%TF.GenerationSoftware,KiCad,Pcbnew,9.0.8*%
%TF.CreationDate,2026-03-17T16:54:28+01:00*%
%TF.ProjectId,Input,496e7075-742e-46b6-9963-61645f706362,1*%
%TF.SameCoordinates,Original*%
%TF.FileFunction,Copper,L3,Inr*%
%TF.FilePolarity,Positive*%
%FSLAX46Y46*%
G04 Gerber Fmt 4.6, Leading zero omitted, Abs format (unit mm)*
G04 Created by KiCad (PCBNEW 9.0.8) date 2026-03-17 16:54:28*
%MOMM*%
%LPD*%
G01*
G04 APERTURE LIST*
G04 Aperture macros list*
%AMRoundRect*
0 Rectangle with rounded corners*
0 $1 Rounding radius*
0 $2 $3 $4 $5 $6 $7 $8 $9 X,Y pos of 4 corners*
0 Add a 4 corners polygon primitive as box body*
4,1,4,$2,$3,$4,$5,$6,$7,$8,$9,$2,$3,0*
0 Add four circle primitives for the rounded corners*
1,1,$1+$1,$2,$3*
1,1,$1+$1,$4,$5*
1,1,$1+$1,$6,$7*
1,1,$1+$1,$8,$9*
0 Add four rect primitives between the rounded corners*
20,1,$1+$1,$2,$3,$4,$5,0*
20,1,$1+$1,$4,$5,$6,$7,0*
20,1,$1+$1,$6,$7,$8,$9,0*
20,1,$1+$1,$8,$9,$2,$3,0*%
G04 Aperture macros list end*
%TA.AperFunction,ComponentPad*%
%ADD10R,2.600000X1.600000*%
%TD*%
%TA.AperFunction,ComponentPad*%
%ADD11O,2.600000X1.600000*%
%TD*%
%TA.AperFunction,ComponentPad*%
%ADD12RoundRect,0.250000X-0.950000X-0.550000X0.950000X-0.550000X0.950000X0.550000X-0.950000X0.550000X0*%
%TD*%
%TA.AperFunction,ComponentPad*%
%ADD13O,2.400000X1.600000*%
%TD*%
%TA.AperFunction,ComponentPad*%
%ADD14C,6.400000*%
%TD*%
%TA.AperFunction,ComponentPad*%
%ADD15R,1.700000X1.700000*%
%TD*%
%TA.AperFunction,ComponentPad*%
%ADD16C,1.700000*%
%TD*%
%TA.AperFunction,ViaPad*%
%ADD17C,0.700000*%
%TD*%
G04 APERTURE END LIST*
D10*
%TO.N,Net-(J28-Pin_1)*%
%TO.C,J28*%
X102870000Y-117475000D03*
D11*
%TO.N,GND_I*%
X102870000Y-114935000D03*
%TD*%
D12*
%TO.N,Net-(U8A--)*%
%TO.C,U8*%
X137160000Y-104775000D03*
D13*
X137160000Y-107315000D03*
%TO.N,Net-(U17C-+)*%
X137160000Y-109855000D03*
%TO.N,+15V_I*%
X137160000Y-112395000D03*
%TO.N,Net-(SW2-B)*%
X137160000Y-114935000D03*
%TO.N,Net-(U8B--)*%
X137160000Y-117475000D03*
%TO.N,Net-(R24-Pad1)*%
X137160000Y-120015000D03*
%TO.N,Net-(R25-Pad2)*%
X144780000Y-120015000D03*
%TO.N,Net-(U8C--)*%
X144780000Y-117475000D03*
%TO.N,Net-(U8C-+)*%
X144780000Y-114935000D03*
%TO.N,-15V_I*%
X144780000Y-112395000D03*
%TO.N,GND_I*%
X144780000Y-109855000D03*
%TO.N,Net-(U8D--)*%
X144780000Y-107315000D03*
X144780000Y-104775000D03*
%TD*%
D10*
%TO.N,Net-(J8-Pin_1)*%
%TO.C,J8*%
X72390000Y-117475000D03*
D11*
%TO.N,GND_I*%
X72390000Y-114935000D03*
%TD*%
D12*
%TO.N,Net-(U15A--)*%
%TO.C,U15*%
X110490000Y-50165000D03*
D13*
X110490000Y-52705000D03*
%TO.N,Net-(U15A-+)*%
X110490000Y-55245000D03*
%TO.N,+15V_I*%
X110490000Y-57785000D03*
%TO.N,Net-(U15B-+)*%
X110490000Y-60325000D03*
%TO.N,Net-(U15B--)*%
X110490000Y-62865000D03*
X110490000Y-65405000D03*
%TO.N,Net-(R58-Pad2)*%
X118110000Y-65405000D03*
%TO.N,Net-(U15C--)*%
X118110000Y-62865000D03*
%TO.N,Net-(U15C-+)*%
X118110000Y-60325000D03*
%TO.N,-15V_I*%
X118110000Y-57785000D03*
%TO.N,Net-(U15D-+)*%
X118110000Y-55245000D03*
%TO.N,Net-(U15D--)*%
X118110000Y-52705000D03*
%TO.N,Net-(R93-Pad2)*%
X118110000Y-50165000D03*
%TD*%
D10*
%TO.N,Net-(J7-Pin_1)*%
%TO.C,J7*%
X72390000Y-107315000D03*
D11*
%TO.N,GND_I*%
X72390000Y-109855000D03*
%TD*%
D10*
%TO.N,Net-(R101-Pad1)*%
%TO.C,RV18*%
X106680000Y-55245000D03*
D11*
%TO.N,Net-(U15A-+)*%
X106680000Y-52705000D03*
%TO.N,Net-(R93-Pad2)*%
X106680000Y-50165000D03*
%TD*%
D14*
%TO.N,N/C*%
%TO.C,H6*%
X185420000Y-46355000D03*
%TD*%
D10*
%TO.N,Net-(J23-Pin_1)*%
%TO.C,J23*%
X160020000Y-103505000D03*
D11*
%TO.N,Net-(J23-Pin_2)*%
X160020000Y-106045000D03*
%TD*%
D10*
%TO.N,Net-(U11A--)*%
%TO.C,RV9*%
X95250000Y-50165000D03*
D11*
%TO.N,Net-(U11B--)*%
X95250000Y-52705000D03*
X95250000Y-55245000D03*
%TD*%
D10*
%TO.N,Net-(J20-Pin_1)*%
%TO.C,J20*%
X102870000Y-80645000D03*
D11*
%TO.N,GND_I*%
X102870000Y-83185000D03*
%TD*%
D12*
%TO.N,Net-(U4A--)*%
%TO.C,U4*%
X80010000Y-78105000D03*
D13*
X80010000Y-80645000D03*
%TO.N,Net-(U4A-+)*%
X80010000Y-83185000D03*
%TO.N,+15V_I*%
X80010000Y-85725000D03*
%TO.N,Net-(U4B-+)*%
X80010000Y-88265000D03*
%TO.N,Net-(U4B--)*%
X80010000Y-90805000D03*
X80010000Y-93345000D03*
%TO.N,Net-(C2-Pad2)*%
X87630000Y-93345000D03*
%TO.N,Net-(U4C--)*%
X87630000Y-90805000D03*
%TO.N,Net-(U4C-+)*%
X87630000Y-88265000D03*
%TO.N,-15V_I*%
X87630000Y-85725000D03*
%TO.N,Net-(U4D-+)*%
X87630000Y-83185000D03*
%TO.N,Net-(U4D--)*%
X87630000Y-80645000D03*
%TO.N,Net-(R7-Pad2)*%
X87630000Y-78105000D03*
%TD*%
D12*
%TO.N,Net-(U9A--)*%
%TO.C,U9*%
X80010000Y-104775000D03*
D13*
X80010000Y-107315000D03*
%TO.N,Net-(U9A-+)*%
X80010000Y-109855000D03*
%TO.N,+15V_I*%
X80010000Y-112395000D03*
%TO.N,Net-(U9B-+)*%
X80010000Y-114935000D03*
%TO.N,Net-(U9B--)*%
X80010000Y-117475000D03*
X80010000Y-120015000D03*
%TO.N,Net-(R30-Pad2)*%
X87630000Y-120015000D03*
%TO.N,Net-(U9C--)*%
X87630000Y-117475000D03*
%TO.N,Net-(U9C-+)*%
X87630000Y-114935000D03*
%TO.N,-15V_I*%
X87630000Y-112395000D03*
%TO.N,GND_I*%
X87630000Y-109855000D03*
%TO.N,Net-(U9D--)*%
X87630000Y-107315000D03*
X87630000Y-104775000D03*
%TD*%
D10*
%TO.N,Net-(J2-Pin_1)*%
%TO.C,J2*%
X72390000Y-80645000D03*
D11*
%TO.N,GND_I*%
X72390000Y-83185000D03*
%TD*%
D10*
%TO.N,Net-(J16-Pin_1)*%
%TO.C,J16*%
X160020000Y-54610000D03*
D11*
%TO.N,Net-(J16-Pin_2)*%
X160020000Y-57150000D03*
%TD*%
D10*
%TO.N,Net-(J23-Pin_1)*%
%TO.C,J27*%
X160020000Y-92075000D03*
D11*
%TO.N,Net-(J27-Pin_2)*%
X160020000Y-94615000D03*
%TD*%
D14*
%TO.N,N/C*%
%TO.C,H1*%
X50800000Y-122555000D03*
%TD*%
D10*
%TO.N,Net-(J17-Pin_1)*%
%TO.C,J17*%
X102870000Y-90805000D03*
D11*
%TO.N,GND_I*%
X102870000Y-88265000D03*
%TD*%
D10*
%TO.N,Net-(J3-Pin_1)*%
%TO.C,J3*%
X72390000Y-90805000D03*
D11*
%TO.N,GND_I*%
X72390000Y-88265000D03*
%TD*%
D14*
%TO.N,Net-(C3-Pad1)*%
%TO.C,H3*%
X185420000Y-122555000D03*
%TD*%
D12*
%TO.N,Net-(R67-Pad1)*%
%TO.C,U11*%
X80010000Y-50165000D03*
D13*
%TO.N,Net-(U11A--)*%
X80010000Y-52705000D03*
%TO.N,Net-(U11A-+)*%
X80010000Y-55245000D03*
%TO.N,+15V_I*%
X80010000Y-57785000D03*
%TO.N,Net-(U11B-+)*%
X80010000Y-60325000D03*
%TO.N,Net-(U11B--)*%
X80010000Y-62865000D03*
%TO.N,Net-(R52-Pad1)*%
X80010000Y-65405000D03*
%TO.N,Net-(R53-Pad1)*%
X87630000Y-65405000D03*
%TO.N,Net-(U11C--)*%
X87630000Y-62865000D03*
%TO.N,Net-(U11C-+)*%
X87630000Y-60325000D03*
%TO.N,-15V_I*%
X87630000Y-57785000D03*
%TO.N,GND_I*%
X87630000Y-55245000D03*
%TO.N,Net-(U11D--)*%
X87630000Y-52705000D03*
X87630000Y-50165000D03*
%TD*%
D10*
%TO.N,Net-(U15C-+)*%
%TO.C,RV11*%
X121920000Y-60325000D03*
D11*
X121920000Y-62865000D03*
%TO.N,Net-(R76-Pad2)*%
X121920000Y-65405000D03*
%TO.N,Net-(R77-Pad2)*%
X125730000Y-65405000D03*
%TO.N,Net-(U15C-+)*%
X125730000Y-62865000D03*
D10*
X125730000Y-60325000D03*
%TD*%
%TO.N,Net-(J22-Pin_1)*%
%TO.C,J22*%
X102870000Y-107315000D03*
D11*
%TO.N,GND_I*%
X102870000Y-109855000D03*
%TD*%
D12*
%TO.N,Net-(U19A--)*%
%TO.C,U19*%
X110490000Y-104775000D03*
D13*
X110490000Y-107315000D03*
%TO.N,Net-(U19A-+)*%
X110490000Y-109855000D03*
%TO.N,+15V_I*%
X110490000Y-112395000D03*
%TO.N,Net-(U19B-+)*%
X110490000Y-114935000D03*
%TO.N,Net-(U19B--)*%
X110490000Y-117475000D03*
X110490000Y-120015000D03*
%TO.N,Net-(R135-Pad1)*%
X118110000Y-120015000D03*
%TO.N,Net-(U19C--)*%
X118110000Y-117475000D03*
%TO.N,Net-(U19C-+)*%
X118110000Y-114935000D03*
%TO.N,-15V_I*%
X118110000Y-112395000D03*
%TO.N,Net-(U17C-+)*%
X118110000Y-109855000D03*
%TO.N,Net-(U19D--)*%
X118110000Y-107315000D03*
X118110000Y-104775000D03*
%TD*%
D10*
%TO.N,Net-(SW2-A)*%
%TO.C,SW2*%
X95250000Y-104775000D03*
D11*
%TO.N,Net-(SW2-B)*%
X95250000Y-107315000D03*
%TO.N,Net-(SW2-C)*%
X95250000Y-109855000D03*
%TD*%
D10*
%TO.N,Net-(J12-Pin_1)*%
%TO.C,J12*%
X160020000Y-77470000D03*
D11*
%TO.N,Net-(J12-Pin_2)*%
X160020000Y-80010000D03*
%TD*%
D10*
%TO.N,Net-(J4-Pin_1)*%
%TO.C,J4*%
X160020000Y-114935000D03*
D11*
%TO.N,Net-(J4-Pin_2)*%
X160020000Y-117475000D03*
%TD*%
D15*
%TO.N,9V_GND_I*%
%TO.C,J30*%
X170180000Y-102235000D03*
D16*
X172720000Y-102235000D03*
X170180000Y-104775000D03*
X172720000Y-104775000D03*
%TO.N,+9V_I*%
X170180000Y-107315000D03*
X172720000Y-107315000D03*
%TO.N,-15V_I*%
X170180000Y-109855000D03*
X172720000Y-109855000D03*
%TO.N,GND_I*%
X170180000Y-112395000D03*
X172720000Y-112395000D03*
X170180000Y-114935000D03*
X172720000Y-114935000D03*
%TO.N,+15V_I*%
X170180000Y-117475000D03*
X172720000Y-117475000D03*
%TD*%
D10*
%TO.N,Net-(R24-Pad1)*%
%TO.C,RV4*%
X133350000Y-120015000D03*
D11*
%TO.N,Net-(U8B--)*%
X133350000Y-117475000D03*
X133350000Y-114935000D03*
%TD*%
D12*
%TO.N,Net-(U17A--)*%
%TO.C,U17*%
X110490000Y-78105000D03*
D13*
X110490000Y-80645000D03*
%TO.N,Net-(U17A-+)*%
X110490000Y-83185000D03*
%TO.N,+15V_I*%
X110490000Y-85725000D03*
%TO.N,Net-(U17B-+)*%
X110490000Y-88265000D03*
%TO.N,Net-(U17B--)*%
X110490000Y-90805000D03*
X110490000Y-93345000D03*
%TO.N,Net-(U17C--)*%
X118110000Y-93345000D03*
X118110000Y-90805000D03*
%TO.N,Net-(U17C-+)*%
X118110000Y-88265000D03*
%TO.N,-15V_I*%
X118110000Y-85725000D03*
%TO.N,Net-(U17D-+)*%
X118110000Y-83185000D03*
%TO.N,Net-(U17D--)*%
X118110000Y-80645000D03*
%TO.N,Net-(R103-Pad2)*%
X118110000Y-78105000D03*
%TD*%
D10*
%TO.N,Net-(J14-Pin_1)*%
%TO.C,J14*%
X160020000Y-66040000D03*
D11*
%TO.N,Net-(J14-Pin_2)*%
X160020000Y-68580000D03*
%TD*%
D10*
%TO.N,Net-(U15D-+)*%
%TO.C,RV17*%
X121920000Y-55245000D03*
D11*
X121920000Y-52705000D03*
%TO.N,Net-(R105-Pad2)*%
X121920000Y-50165000D03*
%TO.N,Net-(R106-Pad2)*%
X125730000Y-50165000D03*
%TO.N,Net-(U15D-+)*%
X125730000Y-52705000D03*
D10*
X125730000Y-55245000D03*
%TD*%
%TO.N,Net-(J9-Pin_1)*%
%TO.C,J9*%
X72390000Y-55245000D03*
D11*
%TO.N,GND_I*%
X72390000Y-57785000D03*
%TO.N,Net-(J9-Pin_3)*%
X72390000Y-60325000D03*
%TD*%
D14*
%TO.N,N/C*%
%TO.C,H7*%
X50800000Y-46355000D03*
%TD*%
D10*
%TO.N,Net-(R65-Pad1)*%
%TO.C,RV13*%
X106680000Y-60325000D03*
D11*
%TO.N,Net-(U15B-+)*%
X106680000Y-62865000D03*
%TO.N,Net-(R58-Pad2)*%
X106680000Y-65405000D03*
%TD*%
D17*
%TO.N,GND_I*%
X159385000Y-109855000D03*
X111760000Y-102235000D03*
X109855000Y-95885000D03*
X107680000Y-74660000D03*
X130577500Y-62865000D03*
X125730000Y-120015000D03*
X155210000Y-94615000D03*
X79375000Y-67945000D03*
X165100000Y-119380000D03*
X157130000Y-74930000D03*
X95885000Y-68580000D03*
X122957500Y-114897500D03*
X128540000Y-94345000D03*
X80010000Y-73025000D03*
X94615000Y-95250000D03*
X155210000Y-97155000D03*
X155210000Y-108585000D03*
X124730000Y-88535000D03*
X157210000Y-63500000D03*
X134620000Y-48260000D03*
X155210000Y-71120000D03*
X82820000Y-95885000D03*
X155210000Y-59690000D03*
X101600000Y-54610000D03*
X94250000Y-83185000D03*
X123825000Y-70485000D03*
X77200000Y-50165000D03*
X124460000Y-57785000D03*
X102870000Y-120015000D03*
X82820000Y-102235000D03*
X81280000Y-73025000D03*
X155210000Y-117475000D03*
X94615000Y-96520000D03*
X166370000Y-119380000D03*
X73025000Y-122555000D03*
X130577500Y-52705000D03*
X157210000Y-52070000D03*
X155130000Y-82550000D03*
X167640000Y-119380000D03*
X92440000Y-129540000D03*
%TO.N,Net-(R58-Pad2)*%
X124730000Y-67945000D03*
%TO.N,Net-(R93-Pad2)*%
X121285000Y-47625000D03*
%TO.N,Net-(R101-Pad1)*%
X106045000Y-72390000D03*
%TO.N,Net-(R102-Pad1)*%
X133350000Y-73660000D03*
X132080000Y-78105000D03*
%TO.N,Net-(U19C--)*%
X115300000Y-109855000D03*
X115300000Y-85725000D03*
%TO.N,Net-(R135-Pad1)*%
X147955000Y-105410000D03*
%TO.N,Net-(U4C-+)*%
X96520000Y-88265000D03*
%TO.N,Net-(U17C--)*%
X149225000Y-54610000D03*
%TO.N,Net-(U19D--)*%
X151765000Y-66040000D03*
%TD*%
%TA.AperFunction,Conductor*%
%TO.N,-15V_I*%
G36*
X168218039Y-40659685D02*
G01*
X168263794Y-40712489D01*
X168275000Y-40764000D01*
X168275000Y-108585000D01*
X169698709Y-108585000D01*
X169737027Y-108591068D01*
X169863757Y-108632246D01*
X170073713Y-108665500D01*
X170073714Y-108665500D01*
X170286286Y-108665500D01*
X170286287Y-108665500D01*
X170496243Y-108632246D01*
X170622972Y-108591068D01*
X170661291Y-108585000D01*
X172238709Y-108585000D01*
X172277027Y-108591068D01*
X172403757Y-108632246D01*
X172613713Y-108665500D01*
X172613714Y-108665500D01*
X172826286Y-108665500D01*
X172826287Y-108665500D01*
X173036243Y-108632246D01*
X173162972Y-108591068D01*
X173165302Y-108590699D01*
X173166356Y-108590023D01*
X173201291Y-108585000D01*
X173231000Y-108585000D01*
X173298039Y-108604685D01*
X173343794Y-108657489D01*
X173355000Y-108709000D01*
X173355000Y-111001000D01*
X173335315Y-111068039D01*
X173282511Y-111113794D01*
X173231000Y-111125000D01*
X173201291Y-111125000D01*
X173162972Y-111118931D01*
X173036243Y-111077754D01*
X172925538Y-111060220D01*
X172826287Y-111044500D01*
X172613713Y-111044500D01*
X172514462Y-111060220D01*
X172403756Y-111077754D01*
X172277028Y-111118931D01*
X172238709Y-111125000D01*
X170661291Y-111125000D01*
X170622972Y-111118931D01*
X170496243Y-111077754D01*
X170385538Y-111060220D01*
X170286287Y-111044500D01*
X170073713Y-111044500D01*
X169974462Y-111060220D01*
X169863756Y-111077754D01*
X169737028Y-111118931D01*
X169698709Y-111125000D01*
X168275000Y-111125000D01*
X168275000Y-113541000D01*
X168255315Y-113608039D01*
X168202511Y-113653794D01*
X168151000Y-113665000D01*
X161514446Y-113665000D01*
X161471112Y-113657181D01*
X161427491Y-113640911D01*
X161427480Y-113640908D01*
X161367883Y-113634501D01*
X161367881Y-113634500D01*
X161367873Y-113634500D01*
X161367864Y-113634500D01*
X158672129Y-113634500D01*
X158672123Y-113634501D01*
X158612518Y-113640908D01*
X158587164Y-113650365D01*
X158568885Y-113657182D01*
X158525554Y-113665000D01*
X145484675Y-113665000D01*
X145465277Y-113663473D01*
X145425558Y-113657182D01*
X145282352Y-113634500D01*
X144277648Y-113634500D01*
X144134442Y-113657182D01*
X144094723Y-113663473D01*
X144075325Y-113665000D01*
X142999000Y-113665000D01*
X142931961Y-113645315D01*
X142886206Y-113592511D01*
X142875000Y-113541000D01*
X142875000Y-111249000D01*
X142894685Y-111181961D01*
X142947489Y-111136206D01*
X142999000Y-111125000D01*
X144075325Y-111125000D01*
X144094722Y-111126526D01*
X144277648Y-111155500D01*
X144277649Y-111155500D01*
X145282351Y-111155500D01*
X145282352Y-111155500D01*
X145465277Y-111126526D01*
X145484675Y-111125000D01*
X162560000Y-111125000D01*
X162560000Y-46990000D01*
X121902756Y-46990000D01*
X121835717Y-46970315D01*
X121831941Y-46967567D01*
X121687860Y-46871295D01*
X121533082Y-46807184D01*
X121533074Y-46807182D01*
X121368771Y-46774500D01*
X121368767Y-46774500D01*
X121201233Y-46774500D01*
X121201228Y-46774500D01*
X121036925Y-46807182D01*
X121036917Y-46807184D01*
X120882139Y-46871295D01*
X120737773Y-46967758D01*
X120736499Y-46965852D01*
X120681587Y-46989168D01*
X120667244Y-46990000D01*
X116205000Y-46990000D01*
X116205000Y-56515000D01*
X117405325Y-56515000D01*
X117424722Y-56516526D01*
X117607648Y-56545500D01*
X117607649Y-56545500D01*
X118612351Y-56545500D01*
X118612352Y-56545500D01*
X118795277Y-56516526D01*
X118814675Y-56515000D01*
X119256000Y-56515000D01*
X119323039Y-56534685D01*
X119368794Y-56587489D01*
X119380000Y-56639000D01*
X119380000Y-58931000D01*
X119360315Y-58998039D01*
X119307511Y-59043794D01*
X119256000Y-59055000D01*
X118814675Y-59055000D01*
X118795277Y-59053473D01*
X118612352Y-59024500D01*
X117607648Y-59024500D01*
X117424723Y-59053473D01*
X117405325Y-59055000D01*
X116205000Y-59055000D01*
X116205000Y-73025000D01*
X123701000Y-73025000D01*
X123768039Y-73044685D01*
X123813794Y-73097489D01*
X123825000Y-73149000D01*
X123825000Y-113541000D01*
X123805315Y-113608039D01*
X123752511Y-113653794D01*
X123701000Y-113665000D01*
X118814675Y-113665000D01*
X118795277Y-113663473D01*
X118755558Y-113657182D01*
X118612352Y-113634500D01*
X117607648Y-113634500D01*
X117464442Y-113657182D01*
X117424723Y-113663473D01*
X117405325Y-113665000D01*
X116964000Y-113665000D01*
X116896961Y-113645315D01*
X116851206Y-113592511D01*
X116840000Y-113541000D01*
X116840000Y-111249000D01*
X116859685Y-111181961D01*
X116912489Y-111136206D01*
X116964000Y-111125000D01*
X117405325Y-111125000D01*
X117424722Y-111126526D01*
X117607648Y-111155500D01*
X117607649Y-111155500D01*
X118612351Y-111155500D01*
X118612352Y-111155500D01*
X118795277Y-111126526D01*
X118814675Y-111125000D01*
X120015000Y-111125000D01*
X120015000Y-86995000D01*
X118814675Y-86995000D01*
X118795277Y-86993473D01*
X118612352Y-86964500D01*
X117607648Y-86964500D01*
X117424723Y-86993473D01*
X117405325Y-86995000D01*
X116329000Y-86995000D01*
X116261961Y-86975315D01*
X116216206Y-86922511D01*
X116205000Y-86871000D01*
X116205000Y-84579000D01*
X116224685Y-84511961D01*
X116277489Y-84466206D01*
X116329000Y-84455000D01*
X117405325Y-84455000D01*
X117424722Y-84456526D01*
X117607648Y-84485500D01*
X117607649Y-84485500D01*
X118612351Y-84485500D01*
X118612352Y-84485500D01*
X118795277Y-84456526D01*
X118814675Y-84455000D01*
X120015000Y-84455000D01*
X120015000Y-76200000D01*
X113154000Y-76200000D01*
X113086961Y-76180315D01*
X113041206Y-76127511D01*
X113030000Y-76076000D01*
X113030000Y-46990000D01*
X93345000Y-46990000D01*
X93345000Y-113541000D01*
X93325315Y-113608039D01*
X93272511Y-113653794D01*
X93221000Y-113665000D01*
X88334675Y-113665000D01*
X88315277Y-113663473D01*
X88275558Y-113657182D01*
X88132352Y-113634500D01*
X87127648Y-113634500D01*
X86984442Y-113657182D01*
X86944723Y-113663473D01*
X86925325Y-113665000D01*
X86484000Y-113665000D01*
X86416961Y-113645315D01*
X86371206Y-113592511D01*
X86360000Y-113541000D01*
X86360000Y-111249000D01*
X86379685Y-111181961D01*
X86432489Y-111136206D01*
X86484000Y-111125000D01*
X86925325Y-111125000D01*
X86944722Y-111126526D01*
X87127648Y-111155500D01*
X87127649Y-111155500D01*
X88132351Y-111155500D01*
X88132352Y-111155500D01*
X88315277Y-111126526D01*
X88334675Y-111125000D01*
X89535000Y-111125000D01*
X89535000Y-86995000D01*
X88334675Y-86995000D01*
X88315277Y-86993473D01*
X88132352Y-86964500D01*
X87127648Y-86964500D01*
X86944723Y-86993473D01*
X86925325Y-86995000D01*
X86484000Y-86995000D01*
X86416961Y-86975315D01*
X86371206Y-86922511D01*
X86360000Y-86871000D01*
X86360000Y-84579000D01*
X86379685Y-84511961D01*
X86432489Y-84466206D01*
X86484000Y-84455000D01*
X86925325Y-84455000D01*
X86944722Y-84456526D01*
X87127648Y-84485500D01*
X87127649Y-84485500D01*
X88132351Y-84485500D01*
X88132352Y-84485500D01*
X88315277Y-84456526D01*
X88334675Y-84455000D01*
X89535000Y-84455000D01*
X89535000Y-59055000D01*
X88334675Y-59055000D01*
X88315277Y-59053473D01*
X88132352Y-59024500D01*
X87127648Y-59024500D01*
X86944723Y-59053473D01*
X86925325Y-59055000D01*
X86484000Y-59055000D01*
X86416961Y-59035315D01*
X86371206Y-58982511D01*
X86360000Y-58931000D01*
X86360000Y-56639000D01*
X86379685Y-56571961D01*
X86432489Y-56526206D01*
X86484000Y-56515000D01*
X86925325Y-56515000D01*
X86944722Y-56516526D01*
X87127648Y-56545500D01*
X87127649Y-56545500D01*
X88132351Y-56545500D01*
X88132352Y-56545500D01*
X88315277Y-56516526D01*
X88334675Y-56515000D01*
X89535000Y-56515000D01*
X89535000Y-40764000D01*
X89554685Y-40696961D01*
X89607489Y-40651206D01*
X89659000Y-40640000D01*
X168151000Y-40640000D01*
X168218039Y-40659685D01*
G37*
%TD.AperFunction*%
%TD*%
%TA.AperFunction,Conductor*%
%TO.N,+15V_I*%
G36*
X79324722Y-56516526D02*
G01*
X79507648Y-56545500D01*
X79507649Y-56545500D01*
X80124138Y-56545500D01*
X80191177Y-56565185D01*
X80211819Y-56581819D01*
X80608681Y-56978681D01*
X80642166Y-57040004D01*
X80645000Y-57066362D01*
X80645000Y-58503638D01*
X80625315Y-58570677D01*
X80608681Y-58591319D01*
X80211819Y-58988181D01*
X80150496Y-59021666D01*
X80124138Y-59024500D01*
X79507648Y-59024500D01*
X79364442Y-59047182D01*
X79324723Y-59053473D01*
X79305325Y-59055000D01*
X77470000Y-59055000D01*
X77470000Y-84455000D01*
X79305325Y-84455000D01*
X79324722Y-84456526D01*
X79507648Y-84485500D01*
X79507649Y-84485500D01*
X80124138Y-84485500D01*
X80191177Y-84505185D01*
X80211819Y-84521819D01*
X80608681Y-84918681D01*
X80642166Y-84980004D01*
X80645000Y-85006362D01*
X80645000Y-86443638D01*
X80625315Y-86510677D01*
X80608681Y-86531319D01*
X80211819Y-86928181D01*
X80150496Y-86961666D01*
X80124138Y-86964500D01*
X79507648Y-86964500D01*
X79324723Y-86993473D01*
X79305325Y-86995000D01*
X77470000Y-86995000D01*
X77470000Y-111125000D01*
X79305325Y-111125000D01*
X79324722Y-111126526D01*
X79507648Y-111155500D01*
X79507649Y-111155500D01*
X80124138Y-111155500D01*
X80191177Y-111175185D01*
X80211819Y-111191819D01*
X80608681Y-111588681D01*
X80642166Y-111650004D01*
X80645000Y-111676362D01*
X80645000Y-113113638D01*
X80625315Y-113180677D01*
X80608681Y-113201319D01*
X80211819Y-113598181D01*
X80150496Y-113631666D01*
X80124138Y-113634500D01*
X79507648Y-113634500D01*
X79324723Y-113663473D01*
X79305325Y-113665000D01*
X77470000Y-113665000D01*
X77470000Y-121920000D01*
X104275000Y-121920000D01*
X104775000Y-121920000D01*
X104775000Y-78740000D01*
X100246362Y-78740000D01*
X100179323Y-78720315D01*
X100158681Y-78703681D01*
X99731319Y-78276319D01*
X99697834Y-78214996D01*
X99695000Y-78188638D01*
X99695000Y-57066362D01*
X99714685Y-56999323D01*
X99731319Y-56978681D01*
X100158681Y-56551319D01*
X100220004Y-56517834D01*
X100246362Y-56515000D01*
X105185554Y-56515000D01*
X105228888Y-56522819D01*
X105272508Y-56539088D01*
X105272511Y-56539088D01*
X105272517Y-56539091D01*
X105332127Y-56545500D01*
X108027872Y-56545499D01*
X108087483Y-56539091D01*
X108131114Y-56522817D01*
X108174446Y-56515000D01*
X109785325Y-56515000D01*
X109804722Y-56516526D01*
X109987648Y-56545500D01*
X109987649Y-56545500D01*
X110604138Y-56545500D01*
X110671177Y-56565185D01*
X110691819Y-56581819D01*
X111088681Y-56978681D01*
X111122166Y-57040004D01*
X111125000Y-57066362D01*
X111125000Y-58503638D01*
X111105315Y-58570677D01*
X111088681Y-58591319D01*
X110691819Y-58988181D01*
X110630496Y-59021666D01*
X110604138Y-59024500D01*
X109987648Y-59024500D01*
X109844442Y-59047182D01*
X109804723Y-59053473D01*
X109785325Y-59055000D01*
X108174446Y-59055000D01*
X108131112Y-59047181D01*
X108087491Y-59030911D01*
X108087480Y-59030908D01*
X108027883Y-59024501D01*
X108027881Y-59024500D01*
X108027873Y-59024500D01*
X108027864Y-59024500D01*
X105332129Y-59024500D01*
X105332123Y-59024501D01*
X105272518Y-59030908D01*
X105247164Y-59040365D01*
X105228885Y-59047182D01*
X105185554Y-59055000D01*
X103505000Y-59055000D01*
X103505000Y-75565000D01*
X107398638Y-75565000D01*
X107465677Y-75584685D01*
X107486319Y-75601319D01*
X107913681Y-76028681D01*
X107947166Y-76090004D01*
X107950000Y-76116362D01*
X107950000Y-84455000D01*
X109785325Y-84455000D01*
X109804722Y-84456526D01*
X109987648Y-84485500D01*
X109987649Y-84485500D01*
X110604138Y-84485500D01*
X110671177Y-84505185D01*
X110691819Y-84521819D01*
X111088681Y-84918681D01*
X111122166Y-84980004D01*
X111125000Y-85006362D01*
X111125000Y-86443638D01*
X111105315Y-86510677D01*
X111088681Y-86531319D01*
X110691819Y-86928181D01*
X110630496Y-86961666D01*
X110604138Y-86964500D01*
X109987648Y-86964500D01*
X109804723Y-86993473D01*
X109785325Y-86995000D01*
X107950000Y-86995000D01*
X107950000Y-111125000D01*
X109785325Y-111125000D01*
X109804722Y-111126526D01*
X109987648Y-111155500D01*
X109987649Y-111155500D01*
X110604138Y-111155500D01*
X110671177Y-111175185D01*
X110691819Y-111191819D01*
X111088681Y-111588681D01*
X111122166Y-111650004D01*
X111125000Y-111676362D01*
X111125000Y-113113638D01*
X111105315Y-113180677D01*
X111088681Y-113201319D01*
X110691819Y-113598181D01*
X110630496Y-113631666D01*
X110604138Y-113634500D01*
X109987648Y-113634500D01*
X109804723Y-113663473D01*
X109785325Y-113665000D01*
X107950000Y-113665000D01*
X107950000Y-121920000D01*
X126500000Y-121920000D01*
X127000000Y-121920000D01*
X127000000Y-111676362D01*
X127019685Y-111609323D01*
X127036319Y-111588681D01*
X127463681Y-111161319D01*
X127525004Y-111127834D01*
X127551362Y-111125000D01*
X136455325Y-111125000D01*
X136474722Y-111126526D01*
X136657648Y-111155500D01*
X136657649Y-111155500D01*
X137274138Y-111155500D01*
X137341177Y-111175185D01*
X137361819Y-111191819D01*
X137758681Y-111588681D01*
X137792166Y-111650004D01*
X137795000Y-111676362D01*
X137795000Y-113113638D01*
X137775315Y-113180677D01*
X137758681Y-113201319D01*
X137361819Y-113598181D01*
X137300496Y-113631666D01*
X137274138Y-113634500D01*
X136657648Y-113634500D01*
X136474723Y-113663473D01*
X136455325Y-113665000D01*
X134154675Y-113665000D01*
X134135277Y-113663473D01*
X133952352Y-113634500D01*
X132747648Y-113634500D01*
X132564723Y-113663473D01*
X132545325Y-113665000D01*
X130810000Y-113665000D01*
X130810000Y-121920000D01*
X168410000Y-121920000D01*
X168910000Y-121920000D01*
X168910000Y-117391362D01*
X168929685Y-117324323D01*
X168946319Y-117303681D01*
X169373681Y-116876319D01*
X169435004Y-116842834D01*
X169461362Y-116840000D01*
X173438638Y-116840000D01*
X173505677Y-116859685D01*
X173526319Y-116876319D01*
X173953681Y-117303681D01*
X173987166Y-117365004D01*
X173990000Y-117391362D01*
X173990000Y-127083868D01*
X173970315Y-127150907D01*
X173953960Y-127171270D01*
X173526049Y-127601914D01*
X173464833Y-127635594D01*
X173438879Y-127638509D01*
X124142500Y-127952500D01*
X74846583Y-128266486D01*
X74779419Y-128247229D01*
X74758394Y-128230451D01*
X74478666Y-127952500D01*
X74331598Y-127806365D01*
X74297918Y-127745149D01*
X74295000Y-127718405D01*
X74295000Y-57066362D01*
X74314685Y-56999323D01*
X74331319Y-56978681D01*
X74758681Y-56551319D01*
X74820004Y-56517834D01*
X74846362Y-56515000D01*
X79305325Y-56515000D01*
X79324722Y-56516526D01*
G37*
%TD.AperFunction*%
%TD*%
M02*
