M48
; DRILL file {KiCad 9.0.8} date 2026-03-16T22:14:26+0100
; FORMAT={-:-/ absolute / metric / decimal}
; #@! TF.CreationDate,2026-03-16T22:14:26+01:00
; #@! TF.GenerationSoftware,Kicad,Pcbnew,9.0.8
; #@! TF.FileFunction,Plated,1,4,PTH
FMAT,2
METRIC
; #@! TA.AperFunction,Plated,PTH,ViaDrill
T1C0.300
; #@! TA.AperFunction,Plated,PTH,ComponentDrill
T2C0.800
; #@! TA.AperFunction,Plated,PTH,ComponentDrill
T3C1.000
; #@! TA.AperFunction,Plated,PTH,ComponentDrill
T4C3.200
%
G90
G05
T1
X73.025Y-121.92
X77.2Y-49.53
X79.375Y-67.31
X80.01Y-72.39
X81.28Y-72.39
X82.82Y-95.25
X82.82Y-101.6
X92.44Y-128.905
X94.25Y-82.55
X94.615Y-94.615
X94.615Y-95.885
X95.885Y-67.945
X96.52Y-87.63
X101.6Y-53.975
X102.87Y-119.38
X106.045Y-71.755
X107.68Y-74.025
X109.855Y-95.25
X111.76Y-101.6
X115.3Y-85.09
X115.3Y-109.22
X121.285Y-46.99
X122.957Y-114.262
X123.825Y-69.85
X124.46Y-57.15
X124.73Y-67.31
X124.73Y-87.9
X125.73Y-119.38
X128.54Y-93.71
X130.577Y-52.07
X130.577Y-62.23
X132.08Y-77.47
X133.35Y-73.025
X134.62Y-47.625
X147.955Y-104.775
X149.225Y-53.975
X151.765Y-65.405
X155.13Y-81.915
X155.21Y-59.055
X155.21Y-70.485
X155.21Y-93.98
X155.21Y-96.52
X155.21Y-107.95
X155.21Y-116.84
X157.13Y-74.295
X157.21Y-51.435
X157.21Y-62.865
X159.385Y-109.22
X165.1Y-118.745
X166.37Y-118.745
X167.64Y-118.745
T2
X80.01Y-49.53
X80.01Y-52.07
X80.01Y-54.61
X80.01Y-57.15
X80.01Y-59.69
X80.01Y-62.23
X80.01Y-64.77
X80.01Y-77.47
X80.01Y-80.01
X80.01Y-82.55
X80.01Y-85.09
X80.01Y-87.63
X80.01Y-90.17
X80.01Y-92.71
X80.01Y-104.14
X80.01Y-106.68
X80.01Y-109.22
X80.01Y-111.76
X80.01Y-114.3
X80.01Y-116.84
X80.01Y-119.38
X87.63Y-49.53
X87.63Y-52.07
X87.63Y-54.61
X87.63Y-57.15
X87.63Y-59.69
X87.63Y-62.23
X87.63Y-64.77
X87.63Y-77.47
X87.63Y-80.01
X87.63Y-82.55
X87.63Y-85.09
X87.63Y-87.63
X87.63Y-90.17
X87.63Y-92.71
X87.63Y-104.14
X87.63Y-106.68
X87.63Y-109.22
X87.63Y-111.76
X87.63Y-114.3
X87.63Y-116.84
X87.63Y-119.38
X110.49Y-49.53
X110.49Y-52.07
X110.49Y-54.61
X110.49Y-57.15
X110.49Y-59.69
X110.49Y-62.23
X110.49Y-64.77
X110.49Y-77.47
X110.49Y-80.01
X110.49Y-82.55
X110.49Y-85.09
X110.49Y-87.63
X110.49Y-90.17
X110.49Y-92.71
X110.49Y-104.14
X110.49Y-106.68
X110.49Y-109.22
X110.49Y-111.76
X110.49Y-114.3
X110.49Y-116.84
X110.49Y-119.38
X118.11Y-49.53
X118.11Y-52.07
X118.11Y-54.61
X118.11Y-57.15
X118.11Y-59.69
X118.11Y-62.23
X118.11Y-64.77
X118.11Y-77.47
X118.11Y-80.01
X118.11Y-82.55
X118.11Y-85.09
X118.11Y-87.63
X118.11Y-90.17
X118.11Y-92.71
X118.11Y-104.14
X118.11Y-106.68
X118.11Y-109.22
X118.11Y-111.76
X118.11Y-114.3
X118.11Y-116.84
X118.11Y-119.38
X137.16Y-104.14
X137.16Y-106.68
X137.16Y-109.22
X137.16Y-111.76
X137.16Y-114.3
X137.16Y-116.84
X137.16Y-119.38
X144.78Y-104.14
X144.78Y-106.68
X144.78Y-109.22
X144.78Y-111.76
X144.78Y-114.3
X144.78Y-116.84
X144.78Y-119.38
T3
X72.39Y-54.61
X72.39Y-57.15
X72.39Y-59.69
X72.39Y-80.01
X72.39Y-82.55
X72.39Y-87.63
X72.39Y-90.17
X72.39Y-106.68
X72.39Y-109.22
X72.39Y-114.3
X72.39Y-116.84
X95.25Y-49.53
X95.25Y-52.07
X95.25Y-54.61
X95.25Y-104.14
X95.25Y-106.68
X95.25Y-109.22
X102.87Y-80.01
X102.87Y-82.55
X102.87Y-87.63
X102.87Y-90.17
X102.87Y-106.68
X102.87Y-109.22
X102.87Y-114.3
X102.87Y-116.84
X106.68Y-49.53
X106.68Y-52.07
X106.68Y-54.61
X106.68Y-59.69
X106.68Y-62.23
X106.68Y-64.77
X121.92Y-49.53
X121.92Y-52.07
X121.92Y-54.61
X121.92Y-59.69
X121.92Y-62.23
X121.92Y-64.77
X125.73Y-49.53
X125.73Y-52.07
X125.73Y-54.61
X125.73Y-59.69
X125.73Y-62.23
X125.73Y-64.77
X133.35Y-114.3
X133.35Y-116.84
X133.35Y-119.38
X160.02Y-53.975
X160.02Y-56.515
X160.02Y-65.405
X160.02Y-67.945
X160.02Y-76.835
X160.02Y-79.375
X160.02Y-91.44
X160.02Y-93.98
X160.02Y-102.87
X160.02Y-105.41
X160.02Y-114.3
X160.02Y-116.84
X170.18Y-101.6
X170.18Y-104.14
X170.18Y-106.68
X170.18Y-109.22
X170.18Y-111.76
X170.18Y-114.3
X170.18Y-116.84
X172.72Y-101.6
X172.72Y-104.14
X172.72Y-106.68
X172.72Y-109.22
X172.72Y-111.76
X172.72Y-114.3
X172.72Y-116.84
T4
X50.8Y-45.72
X50.8Y-121.92
X185.42Y-45.72
X185.42Y-121.92
M30
