%TF.GenerationSoftware,KiCad,Pcbnew,9.0.8*%
%TF.CreationDate,2026-03-16T22:14:10+01:00*%
%TF.ProjectId,Input,496e7075-742e-46b6-9963-61645f706362,1*%
%TF.SameCoordinates,Original*%
%TF.FileFunction,Soldermask,Top*%
%TF.FilePolarity,Negative*%
%FSLAX46Y46*%
G04 Gerber Fmt 4.6, Leading zero omitted, Abs format (unit mm)*
G04 Created by KiCad (PCBNEW 9.0.8) date 2026-03-16 22:14:10*
%MOMM*%
%LPD*%
G01*
G04 APERTURE LIST*
G04 Aperture macros list*
%AMRoundRect*
0 Rectangle with rounded corners*
0 $1 Rounding radius*
0 $2 $3 $4 $5 $6 $7 $8 $9 X,Y pos of 4 corners*
0 Add a 4 corners polygon primitive as box body*
4,1,4,$2,$3,$4,$5,$6,$7,$8,$9,$2,$3,0*
0 Add four circle primitives for the rounded corners*
1,1,$1+$1,$2,$3*
1,1,$1+$1,$4,$5*
1,1,$1+$1,$6,$7*
1,1,$1+$1,$8,$9*
0 Add four rect primitives between the rounded corners*
20,1,$1+$1,$2,$3,$4,$5,0*
20,1,$1+$1,$4,$5,$6,$7,0*
20,1,$1+$1,$6,$7,$8,$9,0*
20,1,$1+$1,$8,$9,$2,$3,0*%
G04 Aperture macros list end*
%ADD10R,2.600000X1.600000*%
%ADD11O,2.600000X1.600000*%
%ADD12RoundRect,0.250000X-0.950000X-0.550000X0.950000X-0.550000X0.950000X0.550000X-0.950000X0.550000X0*%
%ADD13O,2.400000X1.600000*%
%ADD14C,6.400000*%
%ADD15RoundRect,0.250000X0.412500X1.100000X-0.412500X1.100000X-0.412500X-1.100000X0.412500X-1.100000X0*%
%ADD16R,1.700000X1.700000*%
%ADD17C,1.700000*%
G04 APERTURE END LIST*
D10*
%TO.C,J28*%
X102870000Y-116840000D03*
D11*
X102870000Y-114300000D03*
%TD*%
D12*
%TO.C,U8*%
X137160000Y-104140000D03*
D13*
X137160000Y-106680000D03*
X137160000Y-109220000D03*
X137160000Y-111760000D03*
X137160000Y-114300000D03*
X137160000Y-116840000D03*
X137160000Y-119380000D03*
X144780000Y-119380000D03*
X144780000Y-116840000D03*
X144780000Y-114300000D03*
X144780000Y-111760000D03*
X144780000Y-109220000D03*
X144780000Y-106680000D03*
X144780000Y-104140000D03*
%TD*%
D10*
%TO.C,J8*%
X72390000Y-116840000D03*
D11*
X72390000Y-114300000D03*
%TD*%
D12*
%TO.C,U15*%
X110490000Y-49530000D03*
D13*
X110490000Y-52070000D03*
X110490000Y-54610000D03*
X110490000Y-57150000D03*
X110490000Y-59690000D03*
X110490000Y-62230000D03*
X110490000Y-64770000D03*
X118110000Y-64770000D03*
X118110000Y-62230000D03*
X118110000Y-59690000D03*
X118110000Y-57150000D03*
X118110000Y-54610000D03*
X118110000Y-52070000D03*
X118110000Y-49530000D03*
%TD*%
D10*
%TO.C,J7*%
X72390000Y-106680000D03*
D11*
X72390000Y-109220000D03*
%TD*%
D10*
%TO.C,RV18*%
X106680000Y-54610000D03*
D11*
X106680000Y-52070000D03*
X106680000Y-49530000D03*
%TD*%
D14*
%TO.C,H6*%
X185420000Y-45720000D03*
%TD*%
D10*
%TO.C,J23*%
X160020000Y-102870000D03*
D11*
X160020000Y-105410000D03*
%TD*%
D10*
%TO.C,RV9*%
X95250000Y-49530000D03*
D11*
X95250000Y-52070000D03*
X95250000Y-54610000D03*
%TD*%
D10*
%TO.C,J20*%
X102870000Y-80010000D03*
D11*
X102870000Y-82550000D03*
%TD*%
D12*
%TO.C,U4*%
X80010000Y-77470000D03*
D13*
X80010000Y-80010000D03*
X80010000Y-82550000D03*
X80010000Y-85090000D03*
X80010000Y-87630000D03*
X80010000Y-90170000D03*
X80010000Y-92710000D03*
X87630000Y-92710000D03*
X87630000Y-90170000D03*
X87630000Y-87630000D03*
X87630000Y-85090000D03*
X87630000Y-82550000D03*
X87630000Y-80010000D03*
X87630000Y-77470000D03*
%TD*%
D12*
%TO.C,U9*%
X80010000Y-104140000D03*
D13*
X80010000Y-106680000D03*
X80010000Y-109220000D03*
X80010000Y-111760000D03*
X80010000Y-114300000D03*
X80010000Y-116840000D03*
X80010000Y-119380000D03*
X87630000Y-119380000D03*
X87630000Y-116840000D03*
X87630000Y-114300000D03*
X87630000Y-111760000D03*
X87630000Y-109220000D03*
X87630000Y-106680000D03*
X87630000Y-104140000D03*
%TD*%
D10*
%TO.C,J2*%
X72390000Y-80010000D03*
D11*
X72390000Y-82550000D03*
%TD*%
D10*
%TO.C,J16*%
X160020000Y-53975000D03*
D11*
X160020000Y-56515000D03*
%TD*%
D10*
%TO.C,J27*%
X160020000Y-91440000D03*
D11*
X160020000Y-93980000D03*
%TD*%
D14*
%TO.C,H1*%
X50800000Y-121920000D03*
%TD*%
D10*
%TO.C,J17*%
X102870000Y-90170000D03*
D11*
X102870000Y-87630000D03*
%TD*%
D10*
%TO.C,J3*%
X72390000Y-90170000D03*
D11*
X72390000Y-87630000D03*
%TD*%
D14*
%TO.C,H3*%
X185420000Y-121920000D03*
%TD*%
D12*
%TO.C,U11*%
X80010000Y-49530000D03*
D13*
X80010000Y-52070000D03*
X80010000Y-54610000D03*
X80010000Y-57150000D03*
X80010000Y-59690000D03*
X80010000Y-62230000D03*
X80010000Y-64770000D03*
X87630000Y-64770000D03*
X87630000Y-62230000D03*
X87630000Y-59690000D03*
X87630000Y-57150000D03*
X87630000Y-54610000D03*
X87630000Y-52070000D03*
X87630000Y-49530000D03*
%TD*%
D10*
%TO.C,RV11*%
X121920000Y-59690000D03*
D11*
X121920000Y-62230000D03*
X121920000Y-64770000D03*
X125730000Y-64770000D03*
X125730000Y-62230000D03*
D10*
X125730000Y-59690000D03*
%TD*%
%TO.C,J22*%
X102870000Y-106680000D03*
D11*
X102870000Y-109220000D03*
%TD*%
D12*
%TO.C,U19*%
X110490000Y-104140000D03*
D13*
X110490000Y-106680000D03*
X110490000Y-109220000D03*
X110490000Y-111760000D03*
X110490000Y-114300000D03*
X110490000Y-116840000D03*
X110490000Y-119380000D03*
X118110000Y-119380000D03*
X118110000Y-116840000D03*
X118110000Y-114300000D03*
X118110000Y-111760000D03*
X118110000Y-109220000D03*
X118110000Y-106680000D03*
X118110000Y-104140000D03*
%TD*%
D10*
%TO.C,SW2*%
X95250000Y-104140000D03*
D11*
X95250000Y-106680000D03*
X95250000Y-109220000D03*
%TD*%
D15*
%TO.C,C3*%
X173012500Y-121920000D03*
X169887500Y-121920000D03*
%TD*%
D10*
%TO.C,J12*%
X160020000Y-76835000D03*
D11*
X160020000Y-79375000D03*
%TD*%
D10*
%TO.C,J4*%
X160020000Y-114300000D03*
D11*
X160020000Y-116840000D03*
%TD*%
D16*
%TO.C,J30*%
X170180000Y-101600000D03*
D17*
X172720000Y-101600000D03*
X170180000Y-104140000D03*
X172720000Y-104140000D03*
X170180000Y-106680000D03*
X172720000Y-106680000D03*
X170180000Y-109220000D03*
X172720000Y-109220000D03*
X170180000Y-111760000D03*
X172720000Y-111760000D03*
X170180000Y-114300000D03*
X172720000Y-114300000D03*
X170180000Y-116840000D03*
X172720000Y-116840000D03*
%TD*%
D10*
%TO.C,RV4*%
X133350000Y-119380000D03*
D11*
X133350000Y-116840000D03*
X133350000Y-114300000D03*
%TD*%
D12*
%TO.C,U17*%
X110490000Y-77470000D03*
D13*
X110490000Y-80010000D03*
X110490000Y-82550000D03*
X110490000Y-85090000D03*
X110490000Y-87630000D03*
X110490000Y-90170000D03*
X110490000Y-92710000D03*
X118110000Y-92710000D03*
X118110000Y-90170000D03*
X118110000Y-87630000D03*
X118110000Y-85090000D03*
X118110000Y-82550000D03*
X118110000Y-80010000D03*
X118110000Y-77470000D03*
%TD*%
D10*
%TO.C,J14*%
X160020000Y-65405000D03*
D11*
X160020000Y-67945000D03*
%TD*%
D10*
%TO.C,RV17*%
X121920000Y-54610000D03*
D11*
X121920000Y-52070000D03*
X121920000Y-49530000D03*
X125730000Y-49530000D03*
X125730000Y-52070000D03*
D10*
X125730000Y-54610000D03*
%TD*%
%TO.C,J9*%
X72390000Y-54610000D03*
D11*
X72390000Y-57150000D03*
X72390000Y-59690000D03*
%TD*%
D14*
%TO.C,H7*%
X50800000Y-45720000D03*
%TD*%
D10*
%TO.C,RV13*%
X106680000Y-59690000D03*
D11*
X106680000Y-62230000D03*
X106680000Y-64770000D03*
%TD*%
M02*
