%TF.GenerationSoftware,KiCad,Pcbnew,9.0.8*%
%TF.CreationDate,2026-03-16T22:14:09+01:00*%
%TF.ProjectId,Input,496e7075-742e-46b6-9963-61645f706362,1*%
%TF.SameCoordinates,Original*%
%TF.FileFunction,Copper,L1,Top*%
%TF.FilePolarity,Positive*%
%FSLAX46Y46*%
G04 Gerber Fmt 4.6, Leading zero omitted, Abs format (unit mm)*
G04 Created by KiCad (PCBNEW 9.0.8) date 2026-03-16 22:14:09*
%MOMM*%
%LPD*%
G01*
G04 APERTURE LIST*
G04 Aperture macros list*
%AMRoundRect*
0 Rectangle with rounded corners*
0 $1 Rounding radius*
0 $2 $3 $4 $5 $6 $7 $8 $9 X,Y pos of 4 corners*
0 Add a 4 corners polygon primitive as box body*
4,1,4,$2,$3,$4,$5,$6,$7,$8,$9,$2,$3,0*
0 Add four circle primitives for the rounded corners*
1,1,$1+$1,$2,$3*
1,1,$1+$1,$4,$5*
1,1,$1+$1,$6,$7*
1,1,$1+$1,$8,$9*
0 Add four rect primitives between the rounded corners*
20,1,$1+$1,$2,$3,$4,$5,0*
20,1,$1+$1,$4,$5,$6,$7,0*
20,1,$1+$1,$6,$7,$8,$9,0*
20,1,$1+$1,$8,$9,$2,$3,0*%
G04 Aperture macros list end*
%TA.AperFunction,ComponentPad*%
%ADD10R,2.600000X1.600000*%
%TD*%
%TA.AperFunction,ComponentPad*%
%ADD11O,2.600000X1.600000*%
%TD*%
%TA.AperFunction,ComponentPad*%
%ADD12RoundRect,0.250000X-0.950000X-0.550000X0.950000X-0.550000X0.950000X0.550000X-0.950000X0.550000X0*%
%TD*%
%TA.AperFunction,ComponentPad*%
%ADD13O,2.400000X1.600000*%
%TD*%
%TA.AperFunction,ComponentPad*%
%ADD14C,6.400000*%
%TD*%
%TA.AperFunction,SMDPad,CuDef*%
%ADD15RoundRect,0.250000X0.412500X1.100000X-0.412500X1.100000X-0.412500X-1.100000X0.412500X-1.100000X0*%
%TD*%
%TA.AperFunction,ComponentPad*%
%ADD16R,1.700000X1.700000*%
%TD*%
%TA.AperFunction,ComponentPad*%
%ADD17C,1.700000*%
%TD*%
%TA.AperFunction,ViaPad*%
%ADD18C,0.700000*%
%TD*%
%TA.AperFunction,Conductor*%
%ADD19C,1.000000*%
%TD*%
%TA.AperFunction,Conductor*%
%ADD20C,0.600000*%
%TD*%
%TA.AperFunction,Conductor*%
%ADD21C,1.200000*%
%TD*%
G04 APERTURE END LIST*
D10*
%TO.P,J28,1,Pin_1*%
%TO.N,Net-(J28-Pin_1)*%
X102870000Y-116840000D03*
D11*
%TO.P,J28,2,Pin_2*%
%TO.N,GND_I*%
X102870000Y-114300000D03*
%TD*%
D12*
%TO.P,U8,1*%
%TO.N,Net-(U8A--)*%
X137160000Y-104140000D03*
D13*
%TO.P,U8,2,-*%
X137160000Y-106680000D03*
%TO.P,U8,3,+*%
%TO.N,Net-(U17C-+)*%
X137160000Y-109220000D03*
%TO.P,U8,4,V+*%
%TO.N,+15V_I*%
X137160000Y-111760000D03*
%TO.P,U8,5,+*%
%TO.N,Net-(SW2-B)*%
X137160000Y-114300000D03*
%TO.P,U8,6,-*%
%TO.N,Net-(U8B--)*%
X137160000Y-116840000D03*
%TO.P,U8,7*%
%TO.N,Net-(R24-Pad1)*%
X137160000Y-119380000D03*
%TO.P,U8,8*%
%TO.N,Net-(R25-Pad2)*%
X144780000Y-119380000D03*
%TO.P,U8,9,-*%
%TO.N,Net-(U8C--)*%
X144780000Y-116840000D03*
%TO.P,U8,10,+*%
%TO.N,Net-(U8C-+)*%
X144780000Y-114300000D03*
%TO.P,U8,11,V-*%
%TO.N,-15V_I*%
X144780000Y-111760000D03*
%TO.P,U8,12,+*%
%TO.N,GND_I*%
X144780000Y-109220000D03*
%TO.P,U8,13,-*%
%TO.N,Net-(U8D--)*%
X144780000Y-106680000D03*
%TO.P,U8,14*%
X144780000Y-104140000D03*
%TD*%
D10*
%TO.P,J8,1,Pin_1*%
%TO.N,Net-(J8-Pin_1)*%
X72390000Y-116840000D03*
D11*
%TO.P,J8,2,Pin_2*%
%TO.N,GND_I*%
X72390000Y-114300000D03*
%TD*%
D12*
%TO.P,U15,1*%
%TO.N,Net-(U15A--)*%
X110490000Y-49530000D03*
D13*
%TO.P,U15,2,-*%
X110490000Y-52070000D03*
%TO.P,U15,3,+*%
%TO.N,Net-(U15A-+)*%
X110490000Y-54610000D03*
%TO.P,U15,4,V+*%
%TO.N,+15V_I*%
X110490000Y-57150000D03*
%TO.P,U15,5,+*%
%TO.N,Net-(U15B-+)*%
X110490000Y-59690000D03*
%TO.P,U15,6,-*%
%TO.N,Net-(U15B--)*%
X110490000Y-62230000D03*
%TO.P,U15,7*%
X110490000Y-64770000D03*
%TO.P,U15,8*%
%TO.N,Net-(R58-Pad2)*%
X118110000Y-64770000D03*
%TO.P,U15,9,-*%
%TO.N,Net-(U15C--)*%
X118110000Y-62230000D03*
%TO.P,U15,10,+*%
%TO.N,Net-(U15C-+)*%
X118110000Y-59690000D03*
%TO.P,U15,11,V-*%
%TO.N,-15V_I*%
X118110000Y-57150000D03*
%TO.P,U15,12,+*%
%TO.N,Net-(U15D-+)*%
X118110000Y-54610000D03*
%TO.P,U15,13,-*%
%TO.N,Net-(U15D--)*%
X118110000Y-52070000D03*
%TO.P,U15,14*%
%TO.N,Net-(R93-Pad2)*%
X118110000Y-49530000D03*
%TD*%
D10*
%TO.P,J7,1,Pin_1*%
%TO.N,Net-(J7-Pin_1)*%
X72390000Y-106680000D03*
D11*
%TO.P,J7,2,Pin_2*%
%TO.N,GND_I*%
X72390000Y-109220000D03*
%TD*%
D10*
%TO.P,RV18,1,1*%
%TO.N,Net-(R101-Pad1)*%
X106680000Y-54610000D03*
D11*
%TO.P,RV18,2,2*%
%TO.N,Net-(U15A-+)*%
X106680000Y-52070000D03*
%TO.P,RV18,3,3*%
%TO.N,Net-(R93-Pad2)*%
X106680000Y-49530000D03*
%TD*%
D14*
%TO.P,H6,1*%
%TO.N,N/C*%
X185420000Y-45720000D03*
%TD*%
D10*
%TO.P,J23,1,Pin_1*%
%TO.N,Net-(J23-Pin_1)*%
X160020000Y-102870000D03*
D11*
%TO.P,J23,2,Pin_2*%
%TO.N,Net-(J23-Pin_2)*%
X160020000Y-105410000D03*
%TD*%
D10*
%TO.P,RV9,1,1*%
%TO.N,Net-(U11A--)*%
X95250000Y-49530000D03*
D11*
%TO.P,RV9,2,2*%
%TO.N,Net-(U11B--)*%
X95250000Y-52070000D03*
%TO.P,RV9,3,3*%
X95250000Y-54610000D03*
%TD*%
D10*
%TO.P,J20,1,Pin_1*%
%TO.N,Net-(J20-Pin_1)*%
X102870000Y-80010000D03*
D11*
%TO.P,J20,2,Pin_2*%
%TO.N,GND_I*%
X102870000Y-82550000D03*
%TD*%
D12*
%TO.P,U4,1*%
%TO.N,Net-(U4A--)*%
X80010000Y-77470000D03*
D13*
%TO.P,U4,2,-*%
X80010000Y-80010000D03*
%TO.P,U4,3,+*%
%TO.N,Net-(U4A-+)*%
X80010000Y-82550000D03*
%TO.P,U4,4,V+*%
%TO.N,+15V_I*%
X80010000Y-85090000D03*
%TO.P,U4,5,+*%
%TO.N,Net-(U4B-+)*%
X80010000Y-87630000D03*
%TO.P,U4,6,-*%
%TO.N,Net-(U4B--)*%
X80010000Y-90170000D03*
%TO.P,U4,7*%
X80010000Y-92710000D03*
%TO.P,U4,8*%
%TO.N,Net-(C2-Pad2)*%
X87630000Y-92710000D03*
%TO.P,U4,9,-*%
%TO.N,Net-(U4C--)*%
X87630000Y-90170000D03*
%TO.P,U4,10,+*%
%TO.N,Net-(U4C-+)*%
X87630000Y-87630000D03*
%TO.P,U4,11,V-*%
%TO.N,-15V_I*%
X87630000Y-85090000D03*
%TO.P,U4,12,+*%
%TO.N,Net-(U4D-+)*%
X87630000Y-82550000D03*
%TO.P,U4,13,-*%
%TO.N,Net-(U4D--)*%
X87630000Y-80010000D03*
%TO.P,U4,14*%
%TO.N,Net-(R7-Pad2)*%
X87630000Y-77470000D03*
%TD*%
D12*
%TO.P,U9,1*%
%TO.N,Net-(U9A--)*%
X80010000Y-104140000D03*
D13*
%TO.P,U9,2,-*%
X80010000Y-106680000D03*
%TO.P,U9,3,+*%
%TO.N,Net-(U9A-+)*%
X80010000Y-109220000D03*
%TO.P,U9,4,V+*%
%TO.N,+15V_I*%
X80010000Y-111760000D03*
%TO.P,U9,5,+*%
%TO.N,Net-(U9B-+)*%
X80010000Y-114300000D03*
%TO.P,U9,6,-*%
%TO.N,Net-(U9B--)*%
X80010000Y-116840000D03*
%TO.P,U9,7*%
X80010000Y-119380000D03*
%TO.P,U9,8*%
%TO.N,Net-(R30-Pad2)*%
X87630000Y-119380000D03*
%TO.P,U9,9,-*%
%TO.N,Net-(U9C--)*%
X87630000Y-116840000D03*
%TO.P,U9,10,+*%
%TO.N,Net-(U9C-+)*%
X87630000Y-114300000D03*
%TO.P,U9,11,V-*%
%TO.N,-15V_I*%
X87630000Y-111760000D03*
%TO.P,U9,12,+*%
%TO.N,GND_I*%
X87630000Y-109220000D03*
%TO.P,U9,13,-*%
%TO.N,Net-(U9D--)*%
X87630000Y-106680000D03*
%TO.P,U9,14*%
X87630000Y-104140000D03*
%TD*%
D10*
%TO.P,J2,1,Pin_1*%
%TO.N,Net-(J2-Pin_1)*%
X72390000Y-80010000D03*
D11*
%TO.P,J2,2,Pin_2*%
%TO.N,GND_I*%
X72390000Y-82550000D03*
%TD*%
D10*
%TO.P,J16,1,Pin_1*%
%TO.N,Net-(J16-Pin_1)*%
X160020000Y-53975000D03*
D11*
%TO.P,J16,2,Pin_2*%
%TO.N,Net-(J16-Pin_2)*%
X160020000Y-56515000D03*
%TD*%
D10*
%TO.P,J27,1,Pin_1*%
%TO.N,Net-(J23-Pin_1)*%
X160020000Y-91440000D03*
D11*
%TO.P,J27,2,Pin_2*%
%TO.N,Net-(J27-Pin_2)*%
X160020000Y-93980000D03*
%TD*%
D14*
%TO.P,H1,1*%
%TO.N,N/C*%
X50800000Y-121920000D03*
%TD*%
D10*
%TO.P,J17,1,Pin_1*%
%TO.N,Net-(J17-Pin_1)*%
X102870000Y-90170000D03*
D11*
%TO.P,J17,2,Pin_2*%
%TO.N,GND_I*%
X102870000Y-87630000D03*
%TD*%
D10*
%TO.P,J3,1,Pin_1*%
%TO.N,Net-(J3-Pin_1)*%
X72390000Y-90170000D03*
D11*
%TO.P,J3,2,Pin_2*%
%TO.N,GND_I*%
X72390000Y-87630000D03*
%TD*%
D14*
%TO.P,H3,1,1*%
%TO.N,Net-(C3-Pad1)*%
X185420000Y-121920000D03*
%TD*%
D12*
%TO.P,U11,1*%
%TO.N,Net-(R67-Pad1)*%
X80010000Y-49530000D03*
D13*
%TO.P,U11,2,-*%
%TO.N,Net-(U11A--)*%
X80010000Y-52070000D03*
%TO.P,U11,3,+*%
%TO.N,Net-(U11A-+)*%
X80010000Y-54610000D03*
%TO.P,U11,4,V+*%
%TO.N,+15V_I*%
X80010000Y-57150000D03*
%TO.P,U11,5,+*%
%TO.N,Net-(U11B-+)*%
X80010000Y-59690000D03*
%TO.P,U11,6,-*%
%TO.N,Net-(U11B--)*%
X80010000Y-62230000D03*
%TO.P,U11,7*%
%TO.N,Net-(R52-Pad1)*%
X80010000Y-64770000D03*
%TO.P,U11,8*%
%TO.N,Net-(R53-Pad1)*%
X87630000Y-64770000D03*
%TO.P,U11,9,-*%
%TO.N,Net-(U11C--)*%
X87630000Y-62230000D03*
%TO.P,U11,10,+*%
%TO.N,Net-(U11C-+)*%
X87630000Y-59690000D03*
%TO.P,U11,11,V-*%
%TO.N,-15V_I*%
X87630000Y-57150000D03*
%TO.P,U11,12,+*%
%TO.N,GND_I*%
X87630000Y-54610000D03*
%TO.P,U11,13,-*%
%TO.N,Net-(U11D--)*%
X87630000Y-52070000D03*
%TO.P,U11,14*%
X87630000Y-49530000D03*
%TD*%
D10*
%TO.P,RV11,1,1*%
%TO.N,Net-(U15C-+)*%
X121920000Y-59690000D03*
D11*
%TO.P,RV11,2,2*%
X121920000Y-62230000D03*
%TO.P,RV11,3,3*%
%TO.N,Net-(R76-Pad2)*%
X121920000Y-64770000D03*
%TO.P,RV11,4,4*%
%TO.N,Net-(R77-Pad2)*%
X125730000Y-64770000D03*
%TO.P,RV11,5,5*%
%TO.N,Net-(U15C-+)*%
X125730000Y-62230000D03*
D10*
%TO.P,RV11,6,6*%
X125730000Y-59690000D03*
%TD*%
%TO.P,J22,1,Pin_1*%
%TO.N,Net-(J22-Pin_1)*%
X102870000Y-106680000D03*
D11*
%TO.P,J22,2,Pin_2*%
%TO.N,GND_I*%
X102870000Y-109220000D03*
%TD*%
D12*
%TO.P,U19,1*%
%TO.N,Net-(U19A--)*%
X110490000Y-104140000D03*
D13*
%TO.P,U19,2,-*%
X110490000Y-106680000D03*
%TO.P,U19,3,+*%
%TO.N,Net-(U19A-+)*%
X110490000Y-109220000D03*
%TO.P,U19,4,V+*%
%TO.N,+15V_I*%
X110490000Y-111760000D03*
%TO.P,U19,5,+*%
%TO.N,Net-(U19B-+)*%
X110490000Y-114300000D03*
%TO.P,U19,6,-*%
%TO.N,Net-(U19B--)*%
X110490000Y-116840000D03*
%TO.P,U19,7*%
X110490000Y-119380000D03*
%TO.P,U19,8*%
%TO.N,Net-(R135-Pad1)*%
X118110000Y-119380000D03*
%TO.P,U19,9,-*%
%TO.N,Net-(U19C--)*%
X118110000Y-116840000D03*
%TO.P,U19,10,+*%
%TO.N,Net-(U19C-+)*%
X118110000Y-114300000D03*
%TO.P,U19,11,V-*%
%TO.N,-15V_I*%
X118110000Y-111760000D03*
%TO.P,U19,12,+*%
%TO.N,Net-(U17C-+)*%
X118110000Y-109220000D03*
%TO.P,U19,13,-*%
%TO.N,Net-(U19D--)*%
X118110000Y-106680000D03*
%TO.P,U19,14*%
X118110000Y-104140000D03*
%TD*%
D10*
%TO.P,SW2,1,A*%
%TO.N,Net-(SW2-A)*%
X95250000Y-104140000D03*
D11*
%TO.P,SW2,2,B*%
%TO.N,Net-(SW2-B)*%
X95250000Y-106680000D03*
%TO.P,SW2,3,C*%
%TO.N,Net-(SW2-C)*%
X95250000Y-109220000D03*
%TD*%
D15*
%TO.P,C3,1*%
%TO.N,Net-(C3-Pad1)*%
X173012500Y-121920000D03*
%TO.P,C3,2*%
%TO.N,GND_I*%
X169887500Y-121920000D03*
%TD*%
D10*
%TO.P,J12,1,Pin_1*%
%TO.N,Net-(J12-Pin_1)*%
X160020000Y-76835000D03*
D11*
%TO.P,J12,2,Pin_2*%
%TO.N,Net-(J12-Pin_2)*%
X160020000Y-79375000D03*
%TD*%
D10*
%TO.P,J4,1,Pin_1*%
%TO.N,Net-(J4-Pin_1)*%
X160020000Y-114300000D03*
D11*
%TO.P,J4,2,Pin_2*%
%TO.N,Net-(J4-Pin_2)*%
X160020000Y-116840000D03*
%TD*%
D16*
%TO.P,J30,1,Pin_1*%
%TO.N,9V_GND_I*%
X170180000Y-101600000D03*
D17*
%TO.P,J30,2,Pin_2*%
X172720000Y-101600000D03*
%TO.P,J30,3,Pin_3*%
X170180000Y-104140000D03*
%TO.P,J30,4,Pin_4*%
X172720000Y-104140000D03*
%TO.P,J30,5,Pin_5*%
%TO.N,+9V_I*%
X170180000Y-106680000D03*
%TO.P,J30,6,Pin_6*%
X172720000Y-106680000D03*
%TO.P,J30,7,Pin_7*%
%TO.N,-15V_I*%
X170180000Y-109220000D03*
%TO.P,J30,8,Pin_8*%
X172720000Y-109220000D03*
%TO.P,J30,9,Pin_9*%
%TO.N,GND_I*%
X170180000Y-111760000D03*
%TO.P,J30,10,Pin_10*%
X172720000Y-111760000D03*
%TO.P,J30,11,Pin_11*%
X170180000Y-114300000D03*
%TO.P,J30,12,Pin_12*%
X172720000Y-114300000D03*
%TO.P,J30,13,Pin_13*%
%TO.N,+15V_I*%
X170180000Y-116840000D03*
%TO.P,J30,14,Pin_14*%
X172720000Y-116840000D03*
%TD*%
D10*
%TO.P,RV4,1,1*%
%TO.N,Net-(R24-Pad1)*%
X133350000Y-119380000D03*
D11*
%TO.P,RV4,2,2*%
%TO.N,Net-(U8B--)*%
X133350000Y-116840000D03*
%TO.P,RV4,3,3*%
X133350000Y-114300000D03*
%TD*%
D12*
%TO.P,U17,1*%
%TO.N,Net-(U17A--)*%
X110490000Y-77470000D03*
D13*
%TO.P,U17,2,-*%
X110490000Y-80010000D03*
%TO.P,U17,3,+*%
%TO.N,Net-(U17A-+)*%
X110490000Y-82550000D03*
%TO.P,U17,4,V+*%
%TO.N,+15V_I*%
X110490000Y-85090000D03*
%TO.P,U17,5,+*%
%TO.N,Net-(U17B-+)*%
X110490000Y-87630000D03*
%TO.P,U17,6,-*%
%TO.N,Net-(U17B--)*%
X110490000Y-90170000D03*
%TO.P,U17,7*%
X110490000Y-92710000D03*
%TO.P,U17,8*%
%TO.N,Net-(U17C--)*%
X118110000Y-92710000D03*
%TO.P,U17,9,-*%
X118110000Y-90170000D03*
%TO.P,U17,10,+*%
%TO.N,Net-(U17C-+)*%
X118110000Y-87630000D03*
%TO.P,U17,11,V-*%
%TO.N,-15V_I*%
X118110000Y-85090000D03*
%TO.P,U17,12,+*%
%TO.N,Net-(U17D-+)*%
X118110000Y-82550000D03*
%TO.P,U17,13,-*%
%TO.N,Net-(U17D--)*%
X118110000Y-80010000D03*
%TO.P,U17,14*%
%TO.N,Net-(R103-Pad2)*%
X118110000Y-77470000D03*
%TD*%
D10*
%TO.P,J14,1,Pin_1*%
%TO.N,Net-(J14-Pin_1)*%
X160020000Y-65405000D03*
D11*
%TO.P,J14,2,Pin_2*%
%TO.N,Net-(J14-Pin_2)*%
X160020000Y-67945000D03*
%TD*%
D10*
%TO.P,RV17,1,1*%
%TO.N,Net-(U15D-+)*%
X121920000Y-54610000D03*
D11*
%TO.P,RV17,2,2*%
X121920000Y-52070000D03*
%TO.P,RV17,3,3*%
%TO.N,Net-(R105-Pad2)*%
X121920000Y-49530000D03*
%TO.P,RV17,4,4*%
%TO.N,Net-(R106-Pad2)*%
X125730000Y-49530000D03*
%TO.P,RV17,5,5*%
%TO.N,Net-(U15D-+)*%
X125730000Y-52070000D03*
D10*
%TO.P,RV17,6,6*%
X125730000Y-54610000D03*
%TD*%
%TO.P,J9,1,Pin_1*%
%TO.N,Net-(J9-Pin_1)*%
X72390000Y-54610000D03*
D11*
%TO.P,J9,2,Pin_2*%
%TO.N,GND_I*%
X72390000Y-57150000D03*
%TO.P,J9,3,Pin_3*%
%TO.N,Net-(J9-Pin_3)*%
X72390000Y-59690000D03*
%TD*%
D14*
%TO.P,H7,1*%
%TO.N,N/C*%
X50800000Y-45720000D03*
%TD*%
D10*
%TO.P,RV13,1,1*%
%TO.N,Net-(R65-Pad1)*%
X106680000Y-59690000D03*
D11*
%TO.P,RV13,2,2*%
%TO.N,Net-(U15B-+)*%
X106680000Y-62230000D03*
%TO.P,RV13,3,3*%
%TO.N,Net-(R58-Pad2)*%
X106680000Y-64770000D03*
%TD*%
D18*
%TO.N,GND_I*%
X159385000Y-109220000D03*
X111760000Y-101600000D03*
X109855000Y-95250000D03*
X107680000Y-74025000D03*
X130577500Y-62230000D03*
X125730000Y-119380000D03*
X155210000Y-93980000D03*
X79375000Y-67310000D03*
X165100000Y-118745000D03*
X157130000Y-74295000D03*
X95885000Y-67945000D03*
X122957500Y-114262500D03*
X128540000Y-93710000D03*
X80010000Y-72390000D03*
X94615000Y-94615000D03*
X155210000Y-96520000D03*
X155210000Y-107950000D03*
X124730000Y-87900000D03*
X157210000Y-62865000D03*
X134620000Y-47625000D03*
X155210000Y-70485000D03*
X82820000Y-95250000D03*
X155210000Y-59055000D03*
X101600000Y-53975000D03*
X94250000Y-82550000D03*
X123825000Y-69850000D03*
X77200000Y-49530000D03*
X124460000Y-57150000D03*
X102870000Y-119380000D03*
X82820000Y-101600000D03*
X81280000Y-72390000D03*
X155210000Y-116840000D03*
X94615000Y-95885000D03*
X166370000Y-118745000D03*
X73025000Y-121920000D03*
X130577500Y-52070000D03*
X157210000Y-51435000D03*
X155130000Y-81915000D03*
X167640000Y-118745000D03*
X92440000Y-128905000D03*
%TO.N,Net-(R58-Pad2)*%
X124730000Y-67310000D03*
%TO.N,Net-(R93-Pad2)*%
X121285000Y-46990000D03*
%TO.N,Net-(R101-Pad1)*%
X106045000Y-71755000D03*
%TO.N,Net-(R102-Pad1)*%
X133350000Y-73025000D03*
X132080000Y-77470000D03*
%TO.N,Net-(U19C--)*%
X115300000Y-109220000D03*
X115300000Y-85090000D03*
%TO.N,Net-(R135-Pad1)*%
X147955000Y-104775000D03*
%TO.N,Net-(U4C-+)*%
X96520000Y-87630000D03*
%TO.N,Net-(U17C--)*%
X149225000Y-53975000D03*
%TO.N,Net-(U19D--)*%
X151765000Y-65405000D03*
%TD*%
D19*
%TO.N,Net-(U15B--)*%
X110490000Y-64770000D02*
X110490000Y-62230000D01*
%TO.N,Net-(U15A--)*%
X110490000Y-52070000D02*
X110490000Y-49530000D01*
D20*
%TO.N,Net-(U11B--)*%
X95250000Y-66040000D02*
X95250000Y-54610000D01*
X95250000Y-54610000D02*
X95250000Y-52070000D01*
X80010000Y-62230000D02*
X81280000Y-62230000D01*
X81280000Y-62230000D02*
X82550000Y-63500000D01*
X92710000Y-68580000D02*
X95250000Y-66040000D01*
X82550000Y-63500000D02*
X82550000Y-66040000D01*
X85090000Y-68580000D02*
X92710000Y-68580000D01*
X82550000Y-66040000D02*
X85090000Y-68580000D01*
%TO.N,Net-(U11A--)*%
X81280000Y-52070000D02*
X82550000Y-50800000D01*
X82550000Y-48260000D02*
X83820000Y-46990000D01*
X82550000Y-50800000D02*
X82550000Y-48260000D01*
X83820000Y-46990000D02*
X93980000Y-46990000D01*
X95250000Y-48260000D02*
X95250000Y-49530000D01*
X93980000Y-46990000D02*
X95250000Y-48260000D01*
X80010000Y-52070000D02*
X81280000Y-52070000D01*
D19*
%TO.N,Net-(R93-Pad2)*%
X118110000Y-49530000D02*
X118110000Y-47498000D01*
X106680000Y-49530000D02*
X106680000Y-47752000D01*
D20*
%TO.N,Net-(R101-Pad1)*%
X102870000Y-55880000D02*
X104140000Y-54610000D01*
X106045000Y-71755000D02*
X102870000Y-68580000D01*
X102870000Y-68580000D02*
X102870000Y-55880000D01*
X104140000Y-54610000D02*
X106680000Y-54610000D01*
%TO.N,Net-(R102-Pad1)*%
X133350000Y-76200000D02*
X132080000Y-77470000D01*
X133350000Y-73025000D02*
X133350000Y-76200000D01*
%TO.N,Net-(SW2-B)*%
X101600000Y-127000000D02*
X149860000Y-127000000D01*
X95250000Y-106680000D02*
X96520000Y-106680000D01*
X156210000Y-120650000D02*
X156210000Y-102870000D01*
X140970000Y-113030000D02*
X139700000Y-114300000D01*
X139700000Y-114300000D02*
X137160000Y-114300000D01*
X96520000Y-106680000D02*
X97790000Y-107950000D01*
X97790000Y-107950000D02*
X97790000Y-123190000D01*
X156210000Y-102870000D02*
X153670000Y-100330000D01*
X140970000Y-102870000D02*
X140970000Y-113030000D01*
X143510000Y-100330000D02*
X140970000Y-102870000D01*
X153670000Y-100330000D02*
X143510000Y-100330000D01*
X97790000Y-123190000D02*
X101600000Y-127000000D01*
X149860000Y-127000000D02*
X156210000Y-120650000D01*
%TO.N,Net-(U19C--)*%
X115300000Y-109220000D02*
X115300000Y-115935000D01*
X115300000Y-109220000D02*
X113030000Y-106950000D01*
X113030000Y-106950000D02*
X113030000Y-87360000D01*
X116205000Y-116840000D02*
X118110000Y-116840000D01*
X115300000Y-115935000D02*
X116205000Y-116840000D01*
X113030000Y-87360000D02*
X115300000Y-85090000D01*
%TO.N,Net-(R135-Pad1)*%
X119380000Y-123190000D02*
X118110000Y-121920000D01*
X147955000Y-120650000D02*
X145415000Y-123190000D01*
X118110000Y-121920000D02*
X118110000Y-119380000D01*
X147955000Y-104775000D02*
X147955000Y-120650000D01*
X145415000Y-123190000D02*
X119380000Y-123190000D01*
%TO.N,Net-(U15B-+)*%
X109855000Y-59690000D02*
X110490000Y-59690000D01*
X107315000Y-62230000D02*
X109855000Y-59690000D01*
X106680000Y-62230000D02*
X107315000Y-62230000D01*
%TO.N,Net-(U15A-+)*%
X107315000Y-52070000D02*
X106680000Y-52070000D01*
X110490000Y-54610000D02*
X109855000Y-54610000D01*
X109855000Y-54610000D02*
X107315000Y-52070000D01*
%TO.N,Net-(U4C-+)*%
X96520000Y-87630000D02*
X87630000Y-87630000D01*
%TO.N,Net-(U17C-+)*%
X118110000Y-109220000D02*
X117475000Y-109220000D01*
X115570000Y-107315000D02*
X115570000Y-88900000D01*
X115570000Y-88900000D02*
X116840000Y-87630000D01*
X137160000Y-109220000D02*
X118110000Y-109220000D01*
X116840000Y-87630000D02*
X118110000Y-87630000D01*
X117475000Y-109220000D02*
X115570000Y-107315000D01*
%TO.N,Net-(U17C--)*%
X146685000Y-53975000D02*
X144780000Y-55880000D01*
X144780000Y-55880000D02*
X144780000Y-87630000D01*
X144780000Y-87630000D02*
X142240000Y-90170000D01*
X149225000Y-53975000D02*
X146685000Y-53975000D01*
X142240000Y-90170000D02*
X118110000Y-90170000D01*
%TO.N,Net-(U19D--)*%
X120650000Y-96520000D02*
X118110000Y-99060000D01*
X151765000Y-65405000D02*
X149860000Y-67310000D01*
X118110000Y-99060000D02*
X118110000Y-104140000D01*
X149860000Y-67310000D02*
X149860000Y-93980000D01*
X149860000Y-93980000D02*
X147320000Y-96520000D01*
X147320000Y-96520000D02*
X120650000Y-96520000D01*
D21*
%TO.N,+9V_I*%
X170180000Y-106680000D02*
X172720000Y-106680000D01*
%TD*%
%TA.AperFunction,Conductor*%
%TO.N,Net-(U15D-+)*%
G36*
X126007677Y-51835685D02*
G01*
X126028319Y-51852319D01*
X126455681Y-52279681D01*
X126489166Y-52341004D01*
X126492000Y-52367362D01*
X126492000Y-54566638D01*
X126472315Y-54633677D01*
X126455681Y-54654319D01*
X126028319Y-55081681D01*
X125966996Y-55115166D01*
X125940638Y-55118000D01*
X119423362Y-55118000D01*
X119356323Y-55098315D01*
X119335681Y-55081681D01*
X118951681Y-54697681D01*
X118918196Y-54636358D01*
X118923180Y-54566666D01*
X118951681Y-54522319D01*
X119335681Y-54138319D01*
X119397004Y-54104834D01*
X119423362Y-54102000D01*
X121412000Y-54102000D01*
X121412000Y-52367362D01*
X121431685Y-52300323D01*
X121448319Y-52279681D01*
X121875681Y-51852319D01*
X121937004Y-51818834D01*
X121963362Y-51816000D01*
X125940638Y-51816000D01*
X126007677Y-51835685D01*
G37*
%TD.AperFunction*%
%TD*%
%TA.AperFunction,Conductor*%
%TO.N,Net-(R93-Pad2)*%
G36*
X121562677Y-46247685D02*
G01*
X121583319Y-46264319D01*
X122010681Y-46691681D01*
X122044166Y-46753004D01*
X122047000Y-46779362D01*
X122047000Y-47200638D01*
X122027315Y-47267677D01*
X122010681Y-47288319D01*
X121583319Y-47715681D01*
X121521996Y-47749166D01*
X121495638Y-47752000D01*
X119380000Y-47752000D01*
X119380000Y-48312327D01*
X119360315Y-48379366D01*
X119307511Y-48425121D01*
X119238353Y-48435065D01*
X119195982Y-48419777D01*
X119195690Y-48420352D01*
X119009031Y-48325244D01*
X118814417Y-48262009D01*
X118612317Y-48230000D01*
X118360000Y-48230000D01*
X118360000Y-49214314D01*
X118355606Y-49209920D01*
X118264394Y-49157259D01*
X118162661Y-49130000D01*
X118057339Y-49130000D01*
X117955606Y-49157259D01*
X117864394Y-49209920D01*
X117860000Y-49214314D01*
X117860000Y-48230000D01*
X117607683Y-48230000D01*
X117405582Y-48262009D01*
X117210968Y-48325244D01*
X117024310Y-48420352D01*
X117023824Y-48419399D01*
X116961335Y-48436298D01*
X116894734Y-48415178D01*
X116850125Y-48361403D01*
X116840000Y-48312327D01*
X116840000Y-47752000D01*
X116340000Y-47752000D01*
X108704000Y-47752000D01*
X108204000Y-47752000D01*
X108204000Y-48423727D01*
X108184315Y-48490766D01*
X108131511Y-48536521D01*
X108062353Y-48546465D01*
X108007114Y-48524045D01*
X107861349Y-48418140D01*
X107679031Y-48325244D01*
X107484417Y-48262009D01*
X107282317Y-48230000D01*
X106930000Y-48230000D01*
X106930000Y-49096988D01*
X106872993Y-49064075D01*
X106745826Y-49030000D01*
X106614174Y-49030000D01*
X106487007Y-49064075D01*
X106430000Y-49096988D01*
X106430000Y-48230000D01*
X106077683Y-48230000D01*
X105875582Y-48262009D01*
X105680968Y-48325244D01*
X105498650Y-48418140D01*
X105352886Y-48524045D01*
X105287079Y-48547525D01*
X105219025Y-48531700D01*
X105170330Y-48481594D01*
X105156000Y-48423727D01*
X105156000Y-46779362D01*
X105175685Y-46712323D01*
X105192319Y-46691681D01*
X105619681Y-46264319D01*
X105681004Y-46230834D01*
X105707362Y-46228000D01*
X121495638Y-46228000D01*
X121562677Y-46247685D01*
G37*
%TD.AperFunction*%
%TD*%
%TA.AperFunction,Conductor*%
%TO.N,GND_I*%
G36*
X168218039Y-117494685D02*
G01*
X168263794Y-117547489D01*
X168275000Y-117599000D01*
X168275000Y-120015000D01*
X170056000Y-120015000D01*
X170123039Y-120034685D01*
X170168794Y-120087489D01*
X170180000Y-120139000D01*
X170180000Y-123701000D01*
X170160315Y-123768039D01*
X170107511Y-123813794D01*
X170056000Y-123825000D01*
X163954000Y-123825000D01*
X163886961Y-123805315D01*
X163841206Y-123752511D01*
X163830000Y-123701000D01*
X163830000Y-117599000D01*
X163849685Y-117531961D01*
X163902489Y-117486206D01*
X163954000Y-117475000D01*
X168151000Y-117475000D01*
X168218039Y-117494685D01*
G37*
%TD.AperFunction*%
%TD*%
%TA.AperFunction,Conductor*%
%TO.N,9V_GND_I*%
G36*
X172870677Y-100984685D02*
G01*
X172891319Y-101001319D01*
X173318681Y-101428681D01*
X173352166Y-101490004D01*
X173355000Y-101516362D01*
X173355000Y-104223638D01*
X173335315Y-104290677D01*
X173318681Y-104311319D01*
X172891319Y-104738681D01*
X172829996Y-104772166D01*
X172803638Y-104775000D01*
X170096362Y-104775000D01*
X170029323Y-104755315D01*
X170008681Y-104738681D01*
X169581319Y-104311319D01*
X169547834Y-104249996D01*
X169545000Y-104223638D01*
X169545000Y-101516362D01*
X169564685Y-101449323D01*
X169581319Y-101428681D01*
X170008681Y-101001319D01*
X170070004Y-100967834D01*
X170096362Y-100965000D01*
X172803638Y-100965000D01*
X172870677Y-100984685D01*
G37*
%TD.AperFunction*%
%TD*%
%TA.AperFunction,Conductor*%
%TO.N,Net-(C3-Pad1)*%
G36*
X183458039Y-119399685D02*
G01*
X183503794Y-119452489D01*
X183515000Y-119504000D01*
X183515000Y-124336000D01*
X183495315Y-124403039D01*
X183442511Y-124448794D01*
X183391000Y-124460000D01*
X175946362Y-124460000D01*
X175879323Y-124440315D01*
X175858681Y-124423681D01*
X175260000Y-123825000D01*
X172844000Y-123825000D01*
X172776961Y-123805315D01*
X172731206Y-123752511D01*
X172720000Y-123701000D01*
X172720000Y-120139000D01*
X172739685Y-120071961D01*
X172792489Y-120026206D01*
X172844000Y-120015000D01*
X175260000Y-120015000D01*
X175858681Y-119416319D01*
X175920004Y-119382834D01*
X175946362Y-119380000D01*
X183391000Y-119380000D01*
X183458039Y-119399685D01*
G37*
%TD.AperFunction*%
%TD*%
%TA.AperFunction,Conductor*%
%TO.N,Net-(R58-Pad2)*%
G36*
X107719677Y-64535685D02*
G01*
X107740319Y-64552319D01*
X108167681Y-64979681D01*
X108201166Y-65041004D01*
X108204000Y-65067362D01*
X108204000Y-66548000D01*
X116340000Y-66548000D01*
X116840000Y-66548000D01*
X116840000Y-65067362D01*
X116859685Y-65000323D01*
X116876319Y-64979681D01*
X117303681Y-64552319D01*
X117365004Y-64518834D01*
X117391362Y-64516000D01*
X118828638Y-64516000D01*
X118895677Y-64535685D01*
X118916319Y-64552319D01*
X119343681Y-64979681D01*
X119377166Y-65041004D01*
X119380000Y-65067362D01*
X119380000Y-66548000D01*
X124670638Y-66548000D01*
X124737677Y-66567685D01*
X124758319Y-66584319D01*
X125185681Y-67011681D01*
X125219166Y-67073004D01*
X125222000Y-67099362D01*
X125222000Y-67520638D01*
X125202315Y-67587677D01*
X125185681Y-67608319D01*
X124758319Y-68035681D01*
X124696996Y-68069166D01*
X124670638Y-68072000D01*
X105707362Y-68072000D01*
X105640323Y-68052315D01*
X105619681Y-68035681D01*
X105192319Y-67608319D01*
X105158834Y-67546996D01*
X105156000Y-67520638D01*
X105156000Y-65067362D01*
X105175685Y-65000323D01*
X105192319Y-64979681D01*
X105619681Y-64552319D01*
X105681004Y-64518834D01*
X105707362Y-64516000D01*
X107652638Y-64516000D01*
X107719677Y-64535685D01*
G37*
%TD.AperFunction*%
%TD*%
%TA.AperFunction,Conductor*%
%TO.N,Net-(U15C-+)*%
G36*
X126007677Y-59201685D02*
G01*
X126028319Y-59218319D01*
X126455681Y-59645681D01*
X126489166Y-59707004D01*
X126492000Y-59733362D01*
X126492000Y-61932638D01*
X126472315Y-61999677D01*
X126455681Y-62020319D01*
X126028319Y-62447681D01*
X125966996Y-62481166D01*
X125940638Y-62484000D01*
X121963362Y-62484000D01*
X121896323Y-62464315D01*
X121875681Y-62447681D01*
X121448319Y-62020319D01*
X121414834Y-61958996D01*
X121412000Y-61932638D01*
X121412000Y-60198000D01*
X120912000Y-60198000D01*
X119423362Y-60198000D01*
X119356323Y-60178315D01*
X119335681Y-60161681D01*
X118951681Y-59777681D01*
X118918196Y-59716358D01*
X118923180Y-59646666D01*
X118951681Y-59602319D01*
X119335681Y-59218319D01*
X119397004Y-59184834D01*
X119423362Y-59182000D01*
X125940638Y-59182000D01*
X126007677Y-59201685D01*
G37*
%TD.AperFunction*%
%TD*%
M02*
