%TF.GenerationSoftware,KiCad,Pcbnew,9.0.8*%
%TF.CreationDate,2026-03-16T22:14:10+01:00*%
%TF.ProjectId,Input,496e7075-742e-46b6-9963-61645f706362,1*%
%TF.SameCoordinates,Original*%
%TF.FileFunction,Copper,L2,Inr*%
%TF.FilePolarity,Positive*%
%FSLAX46Y46*%
G04 Gerber Fmt 4.6, Leading zero omitted, Abs format (unit mm)*
G04 Created by KiCad (PCBNEW 9.0.8) date 2026-03-16 22:14:10*
%MOMM*%
%LPD*%
G01*
G04 APERTURE LIST*
G04 Aperture macros list*
%AMRoundRect*
0 Rectangle with rounded corners*
0 $1 Rounding radius*
0 $2 $3 $4 $5 $6 $7 $8 $9 X,Y pos of 4 corners*
0 Add a 4 corners polygon primitive as box body*
4,1,4,$2,$3,$4,$5,$6,$7,$8,$9,$2,$3,0*
0 Add four circle primitives for the rounded corners*
1,1,$1+$1,$2,$3*
1,1,$1+$1,$4,$5*
1,1,$1+$1,$6,$7*
1,1,$1+$1,$8,$9*
0 Add four rect primitives between the rounded corners*
20,1,$1+$1,$2,$3,$4,$5,0*
20,1,$1+$1,$4,$5,$6,$7,0*
20,1,$1+$1,$6,$7,$8,$9,0*
20,1,$1+$1,$8,$9,$2,$3,0*%
G04 Aperture macros list end*
%TA.AperFunction,ComponentPad*%
%ADD10R,2.600000X1.600000*%
%TD*%
%TA.AperFunction,ComponentPad*%
%ADD11O,2.600000X1.600000*%
%TD*%
%TA.AperFunction,ComponentPad*%
%ADD12RoundRect,0.250000X-0.950000X-0.550000X0.950000X-0.550000X0.950000X0.550000X-0.950000X0.550000X0*%
%TD*%
%TA.AperFunction,ComponentPad*%
%ADD13O,2.400000X1.600000*%
%TD*%
%TA.AperFunction,ComponentPad*%
%ADD14C,6.400000*%
%TD*%
%TA.AperFunction,ComponentPad*%
%ADD15R,1.700000X1.700000*%
%TD*%
%TA.AperFunction,ComponentPad*%
%ADD16C,1.700000*%
%TD*%
%TA.AperFunction,ViaPad*%
%ADD17C,0.700000*%
%TD*%
G04 APERTURE END LIST*
D10*
%TO.N,Net-(J28-Pin_1)*%
%TO.C,J28*%
X102870000Y-116840000D03*
D11*
%TO.N,GND_I*%
X102870000Y-114300000D03*
%TD*%
D12*
%TO.N,Net-(U8A--)*%
%TO.C,U8*%
X137160000Y-104140000D03*
D13*
X137160000Y-106680000D03*
%TO.N,Net-(U17C-+)*%
X137160000Y-109220000D03*
%TO.N,+15V_I*%
X137160000Y-111760000D03*
%TO.N,Net-(SW2-B)*%
X137160000Y-114300000D03*
%TO.N,Net-(U8B--)*%
X137160000Y-116840000D03*
%TO.N,Net-(R24-Pad1)*%
X137160000Y-119380000D03*
%TO.N,Net-(R25-Pad2)*%
X144780000Y-119380000D03*
%TO.N,Net-(U8C--)*%
X144780000Y-116840000D03*
%TO.N,Net-(U8C-+)*%
X144780000Y-114300000D03*
%TO.N,-15V_I*%
X144780000Y-111760000D03*
%TO.N,GND_I*%
X144780000Y-109220000D03*
%TO.N,Net-(U8D--)*%
X144780000Y-106680000D03*
X144780000Y-104140000D03*
%TD*%
D10*
%TO.N,Net-(J8-Pin_1)*%
%TO.C,J8*%
X72390000Y-116840000D03*
D11*
%TO.N,GND_I*%
X72390000Y-114300000D03*
%TD*%
D12*
%TO.N,Net-(U15A--)*%
%TO.C,U15*%
X110490000Y-49530000D03*
D13*
X110490000Y-52070000D03*
%TO.N,Net-(U15A-+)*%
X110490000Y-54610000D03*
%TO.N,+15V_I*%
X110490000Y-57150000D03*
%TO.N,Net-(U15B-+)*%
X110490000Y-59690000D03*
%TO.N,Net-(U15B--)*%
X110490000Y-62230000D03*
X110490000Y-64770000D03*
%TO.N,Net-(R58-Pad2)*%
X118110000Y-64770000D03*
%TO.N,Net-(U15C--)*%
X118110000Y-62230000D03*
%TO.N,Net-(U15C-+)*%
X118110000Y-59690000D03*
%TO.N,-15V_I*%
X118110000Y-57150000D03*
%TO.N,Net-(U15D-+)*%
X118110000Y-54610000D03*
%TO.N,Net-(U15D--)*%
X118110000Y-52070000D03*
%TO.N,Net-(R93-Pad2)*%
X118110000Y-49530000D03*
%TD*%
D10*
%TO.N,Net-(J7-Pin_1)*%
%TO.C,J7*%
X72390000Y-106680000D03*
D11*
%TO.N,GND_I*%
X72390000Y-109220000D03*
%TD*%
D10*
%TO.N,Net-(R101-Pad1)*%
%TO.C,RV18*%
X106680000Y-54610000D03*
D11*
%TO.N,Net-(U15A-+)*%
X106680000Y-52070000D03*
%TO.N,Net-(R93-Pad2)*%
X106680000Y-49530000D03*
%TD*%
D14*
%TO.N,N/C*%
%TO.C,H6*%
X185420000Y-45720000D03*
%TD*%
D10*
%TO.N,Net-(J23-Pin_1)*%
%TO.C,J23*%
X160020000Y-102870000D03*
D11*
%TO.N,Net-(J23-Pin_2)*%
X160020000Y-105410000D03*
%TD*%
D10*
%TO.N,Net-(U11A--)*%
%TO.C,RV9*%
X95250000Y-49530000D03*
D11*
%TO.N,Net-(U11B--)*%
X95250000Y-52070000D03*
X95250000Y-54610000D03*
%TD*%
D10*
%TO.N,Net-(J20-Pin_1)*%
%TO.C,J20*%
X102870000Y-80010000D03*
D11*
%TO.N,GND_I*%
X102870000Y-82550000D03*
%TD*%
D12*
%TO.N,Net-(U4A--)*%
%TO.C,U4*%
X80010000Y-77470000D03*
D13*
X80010000Y-80010000D03*
%TO.N,Net-(U4A-+)*%
X80010000Y-82550000D03*
%TO.N,+15V_I*%
X80010000Y-85090000D03*
%TO.N,Net-(U4B-+)*%
X80010000Y-87630000D03*
%TO.N,Net-(U4B--)*%
X80010000Y-90170000D03*
X80010000Y-92710000D03*
%TO.N,Net-(C2-Pad2)*%
X87630000Y-92710000D03*
%TO.N,Net-(U4C--)*%
X87630000Y-90170000D03*
%TO.N,Net-(U4C-+)*%
X87630000Y-87630000D03*
%TO.N,-15V_I*%
X87630000Y-85090000D03*
%TO.N,Net-(U4D-+)*%
X87630000Y-82550000D03*
%TO.N,Net-(U4D--)*%
X87630000Y-80010000D03*
%TO.N,Net-(R7-Pad2)*%
X87630000Y-77470000D03*
%TD*%
D12*
%TO.N,Net-(U9A--)*%
%TO.C,U9*%
X80010000Y-104140000D03*
D13*
X80010000Y-106680000D03*
%TO.N,Net-(U9A-+)*%
X80010000Y-109220000D03*
%TO.N,+15V_I*%
X80010000Y-111760000D03*
%TO.N,Net-(U9B-+)*%
X80010000Y-114300000D03*
%TO.N,Net-(U9B--)*%
X80010000Y-116840000D03*
X80010000Y-119380000D03*
%TO.N,Net-(R30-Pad2)*%
X87630000Y-119380000D03*
%TO.N,Net-(U9C--)*%
X87630000Y-116840000D03*
%TO.N,Net-(U9C-+)*%
X87630000Y-114300000D03*
%TO.N,-15V_I*%
X87630000Y-111760000D03*
%TO.N,GND_I*%
X87630000Y-109220000D03*
%TO.N,Net-(U9D--)*%
X87630000Y-106680000D03*
X87630000Y-104140000D03*
%TD*%
D10*
%TO.N,Net-(J2-Pin_1)*%
%TO.C,J2*%
X72390000Y-80010000D03*
D11*
%TO.N,GND_I*%
X72390000Y-82550000D03*
%TD*%
D10*
%TO.N,Net-(J16-Pin_1)*%
%TO.C,J16*%
X160020000Y-53975000D03*
D11*
%TO.N,Net-(J16-Pin_2)*%
X160020000Y-56515000D03*
%TD*%
D10*
%TO.N,Net-(J23-Pin_1)*%
%TO.C,J27*%
X160020000Y-91440000D03*
D11*
%TO.N,Net-(J27-Pin_2)*%
X160020000Y-93980000D03*
%TD*%
D14*
%TO.N,N/C*%
%TO.C,H1*%
X50800000Y-121920000D03*
%TD*%
D10*
%TO.N,Net-(J17-Pin_1)*%
%TO.C,J17*%
X102870000Y-90170000D03*
D11*
%TO.N,GND_I*%
X102870000Y-87630000D03*
%TD*%
D10*
%TO.N,Net-(J3-Pin_1)*%
%TO.C,J3*%
X72390000Y-90170000D03*
D11*
%TO.N,GND_I*%
X72390000Y-87630000D03*
%TD*%
D14*
%TO.N,Net-(C3-Pad1)*%
%TO.C,H3*%
X185420000Y-121920000D03*
%TD*%
D12*
%TO.N,Net-(R67-Pad1)*%
%TO.C,U11*%
X80010000Y-49530000D03*
D13*
%TO.N,Net-(U11A--)*%
X80010000Y-52070000D03*
%TO.N,Net-(U11A-+)*%
X80010000Y-54610000D03*
%TO.N,+15V_I*%
X80010000Y-57150000D03*
%TO.N,Net-(U11B-+)*%
X80010000Y-59690000D03*
%TO.N,Net-(U11B--)*%
X80010000Y-62230000D03*
%TO.N,Net-(R52-Pad1)*%
X80010000Y-64770000D03*
%TO.N,Net-(R53-Pad1)*%
X87630000Y-64770000D03*
%TO.N,Net-(U11C--)*%
X87630000Y-62230000D03*
%TO.N,Net-(U11C-+)*%
X87630000Y-59690000D03*
%TO.N,-15V_I*%
X87630000Y-57150000D03*
%TO.N,GND_I*%
X87630000Y-54610000D03*
%TO.N,Net-(U11D--)*%
X87630000Y-52070000D03*
X87630000Y-49530000D03*
%TD*%
D10*
%TO.N,Net-(U15C-+)*%
%TO.C,RV11*%
X121920000Y-59690000D03*
D11*
X121920000Y-62230000D03*
%TO.N,Net-(R76-Pad2)*%
X121920000Y-64770000D03*
%TO.N,Net-(R77-Pad2)*%
X125730000Y-64770000D03*
%TO.N,Net-(U15C-+)*%
X125730000Y-62230000D03*
D10*
X125730000Y-59690000D03*
%TD*%
%TO.N,Net-(J22-Pin_1)*%
%TO.C,J22*%
X102870000Y-106680000D03*
D11*
%TO.N,GND_I*%
X102870000Y-109220000D03*
%TD*%
D12*
%TO.N,Net-(U19A--)*%
%TO.C,U19*%
X110490000Y-104140000D03*
D13*
X110490000Y-106680000D03*
%TO.N,Net-(U19A-+)*%
X110490000Y-109220000D03*
%TO.N,+15V_I*%
X110490000Y-111760000D03*
%TO.N,Net-(U19B-+)*%
X110490000Y-114300000D03*
%TO.N,Net-(U19B--)*%
X110490000Y-116840000D03*
X110490000Y-119380000D03*
%TO.N,Net-(R135-Pad1)*%
X118110000Y-119380000D03*
%TO.N,Net-(U19C--)*%
X118110000Y-116840000D03*
%TO.N,Net-(U19C-+)*%
X118110000Y-114300000D03*
%TO.N,-15V_I*%
X118110000Y-111760000D03*
%TO.N,Net-(U17C-+)*%
X118110000Y-109220000D03*
%TO.N,Net-(U19D--)*%
X118110000Y-106680000D03*
X118110000Y-104140000D03*
%TD*%
D10*
%TO.N,Net-(SW2-A)*%
%TO.C,SW2*%
X95250000Y-104140000D03*
D11*
%TO.N,Net-(SW2-B)*%
X95250000Y-106680000D03*
%TO.N,Net-(SW2-C)*%
X95250000Y-109220000D03*
%TD*%
D10*
%TO.N,Net-(J12-Pin_1)*%
%TO.C,J12*%
X160020000Y-76835000D03*
D11*
%TO.N,Net-(J12-Pin_2)*%
X160020000Y-79375000D03*
%TD*%
D10*
%TO.N,Net-(J4-Pin_1)*%
%TO.C,J4*%
X160020000Y-114300000D03*
D11*
%TO.N,Net-(J4-Pin_2)*%
X160020000Y-116840000D03*
%TD*%
D15*
%TO.N,9V_GND_I*%
%TO.C,J30*%
X170180000Y-101600000D03*
D16*
X172720000Y-101600000D03*
X170180000Y-104140000D03*
X172720000Y-104140000D03*
%TO.N,+9V_I*%
X170180000Y-106680000D03*
X172720000Y-106680000D03*
%TO.N,-15V_I*%
X170180000Y-109220000D03*
X172720000Y-109220000D03*
%TO.N,GND_I*%
X170180000Y-111760000D03*
X172720000Y-111760000D03*
X170180000Y-114300000D03*
X172720000Y-114300000D03*
%TO.N,+15V_I*%
X170180000Y-116840000D03*
X172720000Y-116840000D03*
%TD*%
D10*
%TO.N,Net-(R24-Pad1)*%
%TO.C,RV4*%
X133350000Y-119380000D03*
D11*
%TO.N,Net-(U8B--)*%
X133350000Y-116840000D03*
X133350000Y-114300000D03*
%TD*%
D12*
%TO.N,Net-(U17A--)*%
%TO.C,U17*%
X110490000Y-77470000D03*
D13*
X110490000Y-80010000D03*
%TO.N,Net-(U17A-+)*%
X110490000Y-82550000D03*
%TO.N,+15V_I*%
X110490000Y-85090000D03*
%TO.N,Net-(U17B-+)*%
X110490000Y-87630000D03*
%TO.N,Net-(U17B--)*%
X110490000Y-90170000D03*
X110490000Y-92710000D03*
%TO.N,Net-(U17C--)*%
X118110000Y-92710000D03*
X118110000Y-90170000D03*
%TO.N,Net-(U17C-+)*%
X118110000Y-87630000D03*
%TO.N,-15V_I*%
X118110000Y-85090000D03*
%TO.N,Net-(U17D-+)*%
X118110000Y-82550000D03*
%TO.N,Net-(U17D--)*%
X118110000Y-80010000D03*
%TO.N,Net-(R103-Pad2)*%
X118110000Y-77470000D03*
%TD*%
D10*
%TO.N,Net-(J14-Pin_1)*%
%TO.C,J14*%
X160020000Y-65405000D03*
D11*
%TO.N,Net-(J14-Pin_2)*%
X160020000Y-67945000D03*
%TD*%
D10*
%TO.N,Net-(U15D-+)*%
%TO.C,RV17*%
X121920000Y-54610000D03*
D11*
X121920000Y-52070000D03*
%TO.N,Net-(R105-Pad2)*%
X121920000Y-49530000D03*
%TO.N,Net-(R106-Pad2)*%
X125730000Y-49530000D03*
%TO.N,Net-(U15D-+)*%
X125730000Y-52070000D03*
D10*
X125730000Y-54610000D03*
%TD*%
%TO.N,Net-(J9-Pin_1)*%
%TO.C,J9*%
X72390000Y-54610000D03*
D11*
%TO.N,GND_I*%
X72390000Y-57150000D03*
%TO.N,Net-(J9-Pin_3)*%
X72390000Y-59690000D03*
%TD*%
D14*
%TO.N,N/C*%
%TO.C,H7*%
X50800000Y-45720000D03*
%TD*%
D10*
%TO.N,Net-(R65-Pad1)*%
%TO.C,RV13*%
X106680000Y-59690000D03*
D11*
%TO.N,Net-(U15B-+)*%
X106680000Y-62230000D03*
%TO.N,Net-(R58-Pad2)*%
X106680000Y-64770000D03*
%TD*%
D17*
%TO.N,GND_I*%
X159385000Y-109220000D03*
X111760000Y-101600000D03*
X109855000Y-95250000D03*
X107680000Y-74025000D03*
X130577500Y-62230000D03*
X125730000Y-119380000D03*
X155210000Y-93980000D03*
X79375000Y-67310000D03*
X165100000Y-118745000D03*
X157130000Y-74295000D03*
X95885000Y-67945000D03*
X122957500Y-114262500D03*
X128540000Y-93710000D03*
X80010000Y-72390000D03*
X94615000Y-94615000D03*
X155210000Y-96520000D03*
X155210000Y-107950000D03*
X124730000Y-87900000D03*
X157210000Y-62865000D03*
X134620000Y-47625000D03*
X155210000Y-70485000D03*
X82820000Y-95250000D03*
X155210000Y-59055000D03*
X101600000Y-53975000D03*
X94250000Y-82550000D03*
X123825000Y-69850000D03*
X77200000Y-49530000D03*
X124460000Y-57150000D03*
X102870000Y-119380000D03*
X82820000Y-101600000D03*
X81280000Y-72390000D03*
X155210000Y-116840000D03*
X94615000Y-95885000D03*
X166370000Y-118745000D03*
X73025000Y-121920000D03*
X130577500Y-52070000D03*
X157210000Y-51435000D03*
X155130000Y-81915000D03*
X167640000Y-118745000D03*
X92440000Y-128905000D03*
%TO.N,Net-(R58-Pad2)*%
X124730000Y-67310000D03*
%TO.N,Net-(R93-Pad2)*%
X121285000Y-46990000D03*
%TO.N,Net-(R101-Pad1)*%
X106045000Y-71755000D03*
%TO.N,Net-(R102-Pad1)*%
X133350000Y-73025000D03*
X132080000Y-77470000D03*
%TO.N,Net-(U19C--)*%
X115300000Y-109220000D03*
X115300000Y-85090000D03*
%TO.N,Net-(R135-Pad1)*%
X147955000Y-104775000D03*
%TO.N,Net-(U4C-+)*%
X96520000Y-87630000D03*
%TO.N,Net-(U17C--)*%
X149225000Y-53975000D03*
%TO.N,Net-(U19D--)*%
X151765000Y-65405000D03*
%TD*%
%TA.AperFunction,Conductor*%
%TO.N,GND_I*%
G36*
X158126979Y-46107382D02*
G01*
X158137034Y-46109382D01*
X158198946Y-46141767D01*
X158233520Y-46202483D01*
X158229781Y-46272252D01*
X158188915Y-46328924D01*
X158123897Y-46354506D01*
X158115100Y-46354899D01*
X158115000Y-46355000D01*
X158115000Y-46855000D01*
X158115000Y-86495000D01*
X158115000Y-86995000D01*
X158115000Y-95250000D01*
X158115000Y-97790000D01*
X158115000Y-106680000D01*
X158615000Y-106680000D01*
X159215325Y-106680000D01*
X159234722Y-106681526D01*
X159417648Y-106710500D01*
X159417649Y-106710500D01*
X160622351Y-106710500D01*
X160622352Y-106710500D01*
X160805277Y-106681526D01*
X160824675Y-106680000D01*
X161425000Y-106680000D01*
X162425000Y-106680000D01*
X168358638Y-106680000D01*
X168425677Y-106699685D01*
X168446319Y-106716319D01*
X168873681Y-107143681D01*
X168907166Y-107205004D01*
X168910000Y-107231362D01*
X168910000Y-108738709D01*
X168903931Y-108777028D01*
X168862754Y-108903756D01*
X168829500Y-109113713D01*
X168829500Y-109326286D01*
X168862753Y-109536239D01*
X168903931Y-109662971D01*
X168910000Y-109701289D01*
X168910000Y-110490000D01*
X169698709Y-110490000D01*
X169737027Y-110496068D01*
X169863757Y-110537246D01*
X170073713Y-110570500D01*
X170073714Y-110570500D01*
X170286286Y-110570500D01*
X170286287Y-110570500D01*
X170496243Y-110537246D01*
X170622972Y-110496068D01*
X170661291Y-110490000D01*
X172238709Y-110490000D01*
X172277027Y-110496068D01*
X172403757Y-110537246D01*
X172613713Y-110570500D01*
X172613714Y-110570500D01*
X172826286Y-110570500D01*
X172826287Y-110570500D01*
X173036243Y-110537246D01*
X173162972Y-110496068D01*
X173165302Y-110495699D01*
X173166356Y-110495023D01*
X173201291Y-110490000D01*
X173438638Y-110490000D01*
X173505677Y-110509685D01*
X173526319Y-110526319D01*
X173953681Y-110953681D01*
X173987166Y-111015004D01*
X173990000Y-111041362D01*
X173990000Y-115018638D01*
X173970315Y-115085677D01*
X173953681Y-115106319D01*
X173526319Y-115533681D01*
X173499391Y-115548384D01*
X173473573Y-115564977D01*
X173467372Y-115565868D01*
X173464996Y-115567166D01*
X173438638Y-115570000D01*
X173201291Y-115570000D01*
X173162972Y-115563931D01*
X173107512Y-115545911D01*
X173036243Y-115522754D01*
X172826287Y-115489500D01*
X172613713Y-115489500D01*
X172527335Y-115503181D01*
X172403756Y-115522754D01*
X172277028Y-115563931D01*
X172238709Y-115570000D01*
X170661291Y-115570000D01*
X170622972Y-115563931D01*
X170567512Y-115545911D01*
X170496243Y-115522754D01*
X170286287Y-115489500D01*
X170073713Y-115489500D01*
X169987335Y-115503181D01*
X169863756Y-115522754D01*
X169737028Y-115563931D01*
X169698709Y-115570000D01*
X168275000Y-115570000D01*
X168275000Y-120098638D01*
X168255315Y-120165677D01*
X168238681Y-120186319D01*
X167811319Y-120613681D01*
X167749996Y-120647166D01*
X167723638Y-120650000D01*
X162476362Y-120650000D01*
X162409323Y-120630315D01*
X162388681Y-120613681D01*
X161961319Y-120186319D01*
X161927834Y-120124996D01*
X161925000Y-120098638D01*
X161925000Y-113030000D01*
X161514446Y-113030000D01*
X161471112Y-113022181D01*
X161427491Y-113005911D01*
X161427480Y-113005908D01*
X161367883Y-112999501D01*
X161367881Y-112999500D01*
X161367873Y-112999500D01*
X161367864Y-112999500D01*
X158672129Y-112999500D01*
X158672123Y-112999501D01*
X158612518Y-113005908D01*
X158587164Y-113015365D01*
X158568885Y-113022182D01*
X158525554Y-113030000D01*
X158115000Y-113030000D01*
X158115000Y-129750638D01*
X158095315Y-129817677D01*
X158078681Y-129838319D01*
X157651319Y-130265681D01*
X157589996Y-130299166D01*
X157563638Y-130302000D01*
X71671362Y-130302000D01*
X71604323Y-130282315D01*
X71583681Y-130265681D01*
X71156319Y-129838319D01*
X71122834Y-129776996D01*
X71120000Y-129750638D01*
X71120000Y-121201362D01*
X71139685Y-121134323D01*
X71156319Y-121113681D01*
X71583681Y-120686319D01*
X71645004Y-120652834D01*
X71671362Y-120650000D01*
X74295000Y-120650000D01*
X74295000Y-115570000D01*
X73884446Y-115570000D01*
X73841112Y-115562181D01*
X73797491Y-115545911D01*
X73797480Y-115545908D01*
X73737883Y-115539501D01*
X73737881Y-115539500D01*
X73737873Y-115539500D01*
X73737865Y-115539500D01*
X71640862Y-115539500D01*
X71573823Y-115519815D01*
X71553181Y-115503181D01*
X71156319Y-115106319D01*
X71122834Y-115044996D01*
X71120000Y-115018638D01*
X71120000Y-113581362D01*
X71139685Y-113514323D01*
X71156319Y-113493681D01*
X71583681Y-113066319D01*
X71645004Y-113032834D01*
X71671362Y-113030000D01*
X77553638Y-113030000D01*
X77620677Y-113049685D01*
X77641319Y-113066319D01*
X78068681Y-113493681D01*
X78102166Y-113555004D01*
X78105000Y-113581362D01*
X78105000Y-121285000D01*
X89035000Y-121285000D01*
X89535000Y-121285000D01*
X89535000Y-110490000D01*
X88334675Y-110490000D01*
X88315277Y-110488473D01*
X88298830Y-110485868D01*
X88132352Y-110459500D01*
X87127648Y-110459500D01*
X86961170Y-110485868D01*
X86944723Y-110488473D01*
X86925325Y-110490000D01*
X82466362Y-110490000D01*
X82399323Y-110470315D01*
X82378681Y-110453681D01*
X81951319Y-110026319D01*
X81917834Y-109964996D01*
X81915000Y-109938638D01*
X81915000Y-102870000D01*
X81415000Y-102870000D01*
X81193159Y-102870000D01*
X81154156Y-102863706D01*
X81112801Y-102850002D01*
X81112798Y-102850001D01*
X81112797Y-102850001D01*
X81112793Y-102850000D01*
X81112790Y-102850000D01*
X81010010Y-102839500D01*
X79009998Y-102839500D01*
X79009981Y-102839501D01*
X78907203Y-102850000D01*
X78875151Y-102860621D01*
X78865843Y-102863706D01*
X78826840Y-102870000D01*
X78105000Y-102870000D01*
X78105000Y-109938638D01*
X78085315Y-110005677D01*
X78068681Y-110026319D01*
X77641319Y-110453681D01*
X77579996Y-110487166D01*
X77553638Y-110490000D01*
X71671362Y-110490000D01*
X71604323Y-110470315D01*
X71583681Y-110453681D01*
X71156319Y-110026319D01*
X71122834Y-109964996D01*
X71120000Y-109938638D01*
X71120000Y-108501361D01*
X71139685Y-108434322D01*
X71156314Y-108413685D01*
X71553183Y-108016816D01*
X71614504Y-107983333D01*
X71640854Y-107980499D01*
X73737872Y-107980499D01*
X73797483Y-107974091D01*
X73841114Y-107957817D01*
X73884446Y-107950000D01*
X74295000Y-107950000D01*
X74295000Y-99611362D01*
X74314685Y-99544323D01*
X74331319Y-99523681D01*
X74758681Y-99096319D01*
X74820004Y-99062834D01*
X74846362Y-99060000D01*
X85173638Y-99060000D01*
X85240677Y-99079685D01*
X85261319Y-99096319D01*
X85688681Y-99523681D01*
X85722166Y-99585004D01*
X85725000Y-99611362D01*
X85725000Y-107950000D01*
X86925325Y-107950000D01*
X86944722Y-107951526D01*
X87127648Y-107980500D01*
X87127649Y-107980500D01*
X88132351Y-107980500D01*
X88132352Y-107980500D01*
X88315277Y-107951526D01*
X88334675Y-107950000D01*
X89535000Y-107950000D01*
X89535000Y-97155000D01*
X89035000Y-97155000D01*
X74846362Y-97155000D01*
X74779323Y-97135315D01*
X74758681Y-97118681D01*
X74331319Y-96691319D01*
X74297834Y-96629996D01*
X74295000Y-96603638D01*
X74295000Y-88900000D01*
X73884446Y-88900000D01*
X73841112Y-88892181D01*
X73797491Y-88875911D01*
X73797480Y-88875908D01*
X73737883Y-88869501D01*
X73737881Y-88869500D01*
X73737873Y-88869500D01*
X73737865Y-88869500D01*
X71640862Y-88869500D01*
X71573823Y-88849815D01*
X71553181Y-88833181D01*
X71156319Y-88436319D01*
X71122834Y-88374996D01*
X71120000Y-88348638D01*
X71120000Y-86911362D01*
X71139685Y-86844323D01*
X71156319Y-86823681D01*
X71583681Y-86396319D01*
X71645004Y-86362834D01*
X71671362Y-86360000D01*
X77553638Y-86360000D01*
X77620677Y-86379685D01*
X77641319Y-86396319D01*
X78068681Y-86823681D01*
X78102166Y-86885004D01*
X78105000Y-86911362D01*
X78105000Y-93980000D01*
X79305325Y-93980000D01*
X79324722Y-93981526D01*
X79507648Y-94010500D01*
X79507649Y-94010500D01*
X80512351Y-94010500D01*
X80512352Y-94010500D01*
X80695277Y-93981526D01*
X80714675Y-93980000D01*
X86925325Y-93980000D01*
X86944722Y-93981526D01*
X87127648Y-94010500D01*
X87127649Y-94010500D01*
X88132351Y-94010500D01*
X88132352Y-94010500D01*
X88315277Y-93981526D01*
X88334675Y-93980000D01*
X89535000Y-93980000D01*
X89535000Y-75565000D01*
X89035000Y-75565000D01*
X78605000Y-75565000D01*
X78105000Y-75565000D01*
X78105000Y-83268638D01*
X78085315Y-83335677D01*
X78068681Y-83356319D01*
X77641319Y-83783681D01*
X77579996Y-83817166D01*
X77553638Y-83820000D01*
X71671362Y-83820000D01*
X71604323Y-83800315D01*
X71583681Y-83783681D01*
X71156319Y-83356319D01*
X71122834Y-83294996D01*
X71120000Y-83268638D01*
X71120000Y-81831361D01*
X71139685Y-81764322D01*
X71156314Y-81743685D01*
X71553183Y-81346816D01*
X71614504Y-81313333D01*
X71640854Y-81310499D01*
X73737872Y-81310499D01*
X73797483Y-81304091D01*
X73841114Y-81287817D01*
X73884446Y-81280000D01*
X74295000Y-81280000D01*
X74295000Y-72306362D01*
X74314685Y-72239323D01*
X74331319Y-72218681D01*
X74758681Y-71791319D01*
X74820004Y-71757834D01*
X74846362Y-71755000D01*
X94698638Y-71755000D01*
X94765677Y-71774685D01*
X94786319Y-71791319D01*
X95213681Y-72218681D01*
X95247166Y-72280004D01*
X95250000Y-72306362D01*
X95250000Y-101683638D01*
X95230315Y-101750677D01*
X95213681Y-101771319D01*
X94786319Y-102198681D01*
X94724996Y-102232166D01*
X94698638Y-102235000D01*
X93345000Y-102235000D01*
X93345000Y-121031000D01*
X97290000Y-121031000D01*
X97790000Y-121031000D01*
X97790000Y-113581362D01*
X97809685Y-113514323D01*
X97826319Y-113493681D01*
X98253681Y-113066319D01*
X98315004Y-113032834D01*
X98341362Y-113030000D01*
X103588638Y-113030000D01*
X103655677Y-113049685D01*
X103676319Y-113066319D01*
X104103681Y-113493681D01*
X104137166Y-113555004D01*
X104140000Y-113581362D01*
X104140000Y-115018637D01*
X104120315Y-115085676D01*
X104103681Y-115106318D01*
X103706818Y-115503181D01*
X103645495Y-115536666D01*
X103619137Y-115539500D01*
X101522129Y-115539500D01*
X101522123Y-115539501D01*
X101462518Y-115545908D01*
X101437164Y-115555365D01*
X101418885Y-115562182D01*
X101375554Y-115570000D01*
X100965000Y-115570000D01*
X100965000Y-118110000D01*
X101375554Y-118110000D01*
X101418888Y-118117819D01*
X101462508Y-118134088D01*
X101462511Y-118134088D01*
X101462517Y-118134091D01*
X101522127Y-118140500D01*
X104217872Y-118140499D01*
X104277483Y-118134091D01*
X104321114Y-118117817D01*
X104364446Y-118110000D01*
X106763638Y-118110000D01*
X106830677Y-118129685D01*
X106851319Y-118146319D01*
X107278681Y-118573681D01*
X107312166Y-118635004D01*
X107315000Y-118661362D01*
X107315000Y-120650000D01*
X109785325Y-120650000D01*
X109804722Y-120651526D01*
X109987648Y-120680500D01*
X109987649Y-120680500D01*
X110992351Y-120680500D01*
X110992352Y-120680500D01*
X111175277Y-120651526D01*
X111194675Y-120650000D01*
X117405325Y-120650000D01*
X117424722Y-120651526D01*
X117607648Y-120680500D01*
X117607649Y-120680500D01*
X118612351Y-120680500D01*
X118612352Y-120680500D01*
X118795277Y-120651526D01*
X118814675Y-120650000D01*
X121285000Y-120650000D01*
X121285000Y-102870000D01*
X120785000Y-102870000D01*
X118814675Y-102870000D01*
X118795277Y-102868473D01*
X118765180Y-102863706D01*
X118612352Y-102839500D01*
X117607648Y-102839500D01*
X117454820Y-102863706D01*
X117424723Y-102868473D01*
X117405325Y-102870000D01*
X111673159Y-102870000D01*
X111634156Y-102863706D01*
X111592801Y-102850002D01*
X111592798Y-102850001D01*
X111592797Y-102850001D01*
X111592793Y-102850000D01*
X111592790Y-102850000D01*
X111490010Y-102839500D01*
X109489998Y-102839500D01*
X109489981Y-102839501D01*
X109387203Y-102850000D01*
X109355151Y-102860621D01*
X109345843Y-102863706D01*
X109306840Y-102870000D01*
X100965000Y-102870000D01*
X100965000Y-107950000D01*
X101375554Y-107950000D01*
X101418888Y-107957819D01*
X101462508Y-107974088D01*
X101462511Y-107974088D01*
X101462517Y-107974091D01*
X101522127Y-107980500D01*
X103619137Y-107980499D01*
X103686176Y-108000184D01*
X103706818Y-108016818D01*
X104103681Y-108413681D01*
X104137166Y-108475004D01*
X104140000Y-108501362D01*
X104140000Y-109938638D01*
X104120315Y-110005677D01*
X104103681Y-110026319D01*
X103676319Y-110453681D01*
X103614996Y-110487166D01*
X103588638Y-110490000D01*
X97706362Y-110490000D01*
X97639323Y-110470315D01*
X97618681Y-110453681D01*
X97191319Y-110026319D01*
X97157834Y-109964996D01*
X97155000Y-109938638D01*
X97155000Y-88247755D01*
X97174685Y-88180716D01*
X97177433Y-88176939D01*
X97180622Y-88172165D01*
X97180626Y-88172162D01*
X97273703Y-88032863D01*
X97337816Y-87878082D01*
X97370500Y-87713767D01*
X97370500Y-87546233D01*
X97337816Y-87381918D01*
X97273703Y-87227137D01*
X97180626Y-87087838D01*
X97177242Y-87082773D01*
X97179147Y-87081499D01*
X97155832Y-87026587D01*
X97155000Y-87012244D01*
X97155000Y-81831362D01*
X97174685Y-81764323D01*
X97191319Y-81743681D01*
X97618681Y-81316319D01*
X97680004Y-81282834D01*
X97706362Y-81280000D01*
X101375554Y-81280000D01*
X101418888Y-81287819D01*
X101462508Y-81304088D01*
X101462511Y-81304088D01*
X101462517Y-81304091D01*
X101522127Y-81310500D01*
X104217872Y-81310499D01*
X104277483Y-81304091D01*
X104321114Y-81287817D01*
X104364446Y-81280000D01*
X104775000Y-81280000D01*
X104775000Y-73576362D01*
X104794685Y-73509323D01*
X104811319Y-73488681D01*
X105238681Y-73061319D01*
X105300004Y-73027834D01*
X105326362Y-73025000D01*
X108033638Y-73025000D01*
X108100677Y-73044685D01*
X108121319Y-73061319D01*
X108548681Y-73488681D01*
X108582166Y-73550004D01*
X108585000Y-73576362D01*
X108585000Y-83268638D01*
X108565315Y-83335677D01*
X108548681Y-83356319D01*
X108121319Y-83783681D01*
X108059996Y-83817166D01*
X108033638Y-83820000D01*
X100965000Y-83820000D01*
X100965000Y-99060000D01*
X101465000Y-99060000D01*
X126448638Y-99060000D01*
X126515677Y-99079685D01*
X126536319Y-99096319D01*
X126963681Y-99523681D01*
X126997166Y-99585004D01*
X127000000Y-99611362D01*
X127000000Y-121031000D01*
X138565000Y-121031000D01*
X139065000Y-121031000D01*
X139065000Y-108501362D01*
X139084685Y-108434323D01*
X139101319Y-108413681D01*
X139528681Y-107986319D01*
X139590004Y-107952834D01*
X139616362Y-107950000D01*
X144075325Y-107950000D01*
X144094722Y-107951526D01*
X144277648Y-107980500D01*
X144277649Y-107980500D01*
X145282351Y-107980500D01*
X145282352Y-107980500D01*
X145465277Y-107951526D01*
X145484675Y-107950000D01*
X145498638Y-107950000D01*
X145565677Y-107969685D01*
X145586319Y-107986319D01*
X146013681Y-108413681D01*
X146047166Y-108475004D01*
X146050000Y-108501362D01*
X146050000Y-109938638D01*
X146030315Y-110005677D01*
X146013681Y-110026319D01*
X145586319Y-110453681D01*
X145559391Y-110468384D01*
X145533573Y-110484977D01*
X145527372Y-110485868D01*
X145524996Y-110487166D01*
X145498638Y-110490000D01*
X145484675Y-110490000D01*
X145465277Y-110488473D01*
X145448830Y-110485868D01*
X145282352Y-110459500D01*
X144277648Y-110459500D01*
X144111170Y-110485868D01*
X144094723Y-110488473D01*
X144075325Y-110490000D01*
X142875000Y-110490000D01*
X142875000Y-121285000D01*
X148725000Y-121285000D01*
X149225000Y-121285000D01*
X149225000Y-99184000D01*
X149244685Y-99116961D01*
X149297489Y-99071206D01*
X149349000Y-99060000D01*
X149352000Y-99060000D01*
X149352000Y-97155000D01*
X105326362Y-97155000D01*
X105259323Y-97135315D01*
X105238681Y-97118681D01*
X104811319Y-96691319D01*
X104777834Y-96629996D01*
X104775000Y-96603638D01*
X104775000Y-88900000D01*
X104364446Y-88900000D01*
X104321112Y-88892181D01*
X104277491Y-88875911D01*
X104277480Y-88875908D01*
X104217883Y-88869501D01*
X104217881Y-88869500D01*
X104217873Y-88869500D01*
X104217865Y-88869500D01*
X102120862Y-88869500D01*
X102053823Y-88849815D01*
X102033181Y-88833181D01*
X101636319Y-88436319D01*
X101602834Y-88374996D01*
X101600000Y-88348638D01*
X101600000Y-86911362D01*
X101619685Y-86844323D01*
X101636319Y-86823681D01*
X102063681Y-86396319D01*
X102125004Y-86362834D01*
X102151362Y-86360000D01*
X108033638Y-86360000D01*
X108100677Y-86379685D01*
X108121319Y-86396319D01*
X108548681Y-86823681D01*
X108582166Y-86885004D01*
X108585000Y-86911362D01*
X108585000Y-93980000D01*
X109785325Y-93980000D01*
X109804722Y-93981526D01*
X109987648Y-94010500D01*
X109987649Y-94010500D01*
X110992351Y-94010500D01*
X110992352Y-94010500D01*
X111175277Y-93981526D01*
X111194675Y-93980000D01*
X117405325Y-93980000D01*
X117424722Y-93981526D01*
X117607648Y-94010500D01*
X117607649Y-94010500D01*
X118612351Y-94010500D01*
X118612352Y-94010500D01*
X118795277Y-93981526D01*
X118814675Y-93980000D01*
X122555000Y-93980000D01*
X122555000Y-79291362D01*
X122574685Y-79224323D01*
X122591319Y-79203681D01*
X123018681Y-78776319D01*
X123080004Y-78742834D01*
X123106362Y-78740000D01*
X134620000Y-78740000D01*
X134620000Y-72390000D01*
X134120000Y-72390000D01*
X133967756Y-72390000D01*
X133900717Y-72370315D01*
X133896941Y-72367567D01*
X133752860Y-72271295D01*
X133598082Y-72207184D01*
X133598074Y-72207182D01*
X133433771Y-72174500D01*
X133433767Y-72174500D01*
X133266233Y-72174500D01*
X133266228Y-72174500D01*
X133101925Y-72207182D01*
X133101917Y-72207184D01*
X132947139Y-72271295D01*
X132802773Y-72367758D01*
X132801499Y-72365852D01*
X132746587Y-72389168D01*
X132732244Y-72390000D01*
X119266118Y-72390000D01*
X119225073Y-72383010D01*
X119181048Y-72367567D01*
X118374493Y-72084642D01*
X118338076Y-72064460D01*
X117157500Y-71120000D01*
X115570000Y-69850000D01*
X115070000Y-69850000D01*
X66591362Y-69850000D01*
X66524323Y-69830315D01*
X66503681Y-69813681D01*
X66076319Y-69386319D01*
X66042834Y-69324996D01*
X66040000Y-69298638D01*
X66040000Y-56431362D01*
X66059685Y-56364323D01*
X66076319Y-56343681D01*
X66503681Y-55916319D01*
X66565004Y-55882834D01*
X66591362Y-55880000D01*
X70895554Y-55880000D01*
X70938888Y-55887819D01*
X70982508Y-55904088D01*
X70982511Y-55904088D01*
X70982517Y-55904091D01*
X71042127Y-55910500D01*
X73737872Y-55910499D01*
X73797483Y-55904091D01*
X73841114Y-55887817D01*
X73884446Y-55880000D01*
X74930000Y-55880000D01*
X74930000Y-48811362D01*
X74949685Y-48744323D01*
X74966319Y-48723681D01*
X75393681Y-48296319D01*
X75455004Y-48262834D01*
X75481362Y-48260000D01*
X77553638Y-48260000D01*
X77620677Y-48279685D01*
X77641319Y-48296319D01*
X78068681Y-48723681D01*
X78102166Y-48785004D01*
X78105000Y-48811362D01*
X78105000Y-57868638D01*
X78085315Y-57935677D01*
X78068681Y-57956319D01*
X77641319Y-58383681D01*
X77579996Y-58417166D01*
X77553638Y-58420000D01*
X73194675Y-58420000D01*
X73175277Y-58418473D01*
X73135558Y-58412182D01*
X72992352Y-58389500D01*
X71787648Y-58389500D01*
X71644442Y-58412182D01*
X71604723Y-58418473D01*
X71585325Y-58420000D01*
X70485000Y-58420000D01*
X70485000Y-66040000D01*
X79305325Y-66040000D01*
X79324722Y-66041526D01*
X79507648Y-66070500D01*
X79507649Y-66070500D01*
X80512351Y-66070500D01*
X80512352Y-66070500D01*
X80695277Y-66041526D01*
X80714675Y-66040000D01*
X81915000Y-66040000D01*
X81915000Y-53891362D01*
X81934685Y-53824323D01*
X81951319Y-53803681D01*
X82378681Y-53376319D01*
X82440004Y-53342834D01*
X82466362Y-53340000D01*
X86925325Y-53340000D01*
X86944722Y-53341526D01*
X87127648Y-53370500D01*
X87127649Y-53370500D01*
X88132351Y-53370500D01*
X88132352Y-53370500D01*
X88315277Y-53341526D01*
X88334675Y-53340000D01*
X88348638Y-53340000D01*
X88415677Y-53359685D01*
X88436319Y-53376319D01*
X88863681Y-53803681D01*
X88897166Y-53865004D01*
X88900000Y-53891362D01*
X88900000Y-55328638D01*
X88880315Y-55395677D01*
X88863681Y-55416319D01*
X88436319Y-55843681D01*
X88409391Y-55858384D01*
X88383573Y-55874977D01*
X88377372Y-55875868D01*
X88374996Y-55877166D01*
X88348638Y-55880000D01*
X88334675Y-55880000D01*
X88315277Y-55878473D01*
X88298830Y-55875868D01*
X88132352Y-55849500D01*
X87127648Y-55849500D01*
X86961170Y-55875868D01*
X86944723Y-55878473D01*
X86925325Y-55880000D01*
X85725000Y-55880000D01*
X85725000Y-66040000D01*
X86925325Y-66040000D01*
X86944722Y-66041526D01*
X87127648Y-66070500D01*
X87127649Y-66070500D01*
X88132351Y-66070500D01*
X88132352Y-66070500D01*
X88315277Y-66041526D01*
X88334675Y-66040000D01*
X100330000Y-66040000D01*
X100330000Y-52986362D01*
X100349685Y-52919323D01*
X100366319Y-52898681D01*
X100793681Y-52471319D01*
X100855004Y-52437834D01*
X100881362Y-52435000D01*
X103588638Y-52435000D01*
X103655677Y-52454685D01*
X103676319Y-52471319D01*
X104103681Y-52898681D01*
X104137166Y-52960004D01*
X104140000Y-52986362D01*
X104140000Y-66040000D01*
X105875325Y-66040000D01*
X105894722Y-66041526D01*
X106077648Y-66070500D01*
X106077649Y-66070500D01*
X107282351Y-66070500D01*
X107282352Y-66070500D01*
X107465277Y-66041526D01*
X107484675Y-66040000D01*
X109785325Y-66040000D01*
X109804722Y-66041526D01*
X109987648Y-66070500D01*
X109987649Y-66070500D01*
X110992351Y-66070500D01*
X110992352Y-66070500D01*
X111175277Y-66041526D01*
X111194675Y-66040000D01*
X117405325Y-66040000D01*
X117424722Y-66041526D01*
X117607648Y-66070500D01*
X117607649Y-66070500D01*
X117681377Y-66070500D01*
X117720589Y-66076863D01*
X118490913Y-66333637D01*
X118526095Y-66352071D01*
X120650000Y-67945000D01*
X120650001Y-67945000D01*
X124112244Y-67945000D01*
X124179283Y-67964685D01*
X124183058Y-67967432D01*
X124187837Y-67970625D01*
X124187838Y-67970626D01*
X124327137Y-68063703D01*
X124481918Y-68127816D01*
X124646228Y-68160499D01*
X124646232Y-68160500D01*
X124646233Y-68160500D01*
X124813768Y-68160500D01*
X124813769Y-68160499D01*
X124978082Y-68127816D01*
X125132863Y-68063703D01*
X125272162Y-67970626D01*
X125272161Y-67970626D01*
X125277227Y-67967242D01*
X125278500Y-67969147D01*
X125333413Y-67945832D01*
X125347756Y-67945000D01*
X127635000Y-67945000D01*
X127635000Y-58420000D01*
X127224446Y-58420000D01*
X127181112Y-58412181D01*
X127137491Y-58395911D01*
X127137480Y-58395908D01*
X127077883Y-58389501D01*
X127077881Y-58389500D01*
X127077873Y-58389500D01*
X127077864Y-58389500D01*
X124382129Y-58389500D01*
X124382123Y-58389501D01*
X124322518Y-58395908D01*
X124297164Y-58405365D01*
X124278885Y-58412182D01*
X124235554Y-58420000D01*
X123741362Y-58420000D01*
X123674323Y-58400315D01*
X123653681Y-58383681D01*
X123226319Y-57956319D01*
X123192834Y-57894996D01*
X123190000Y-57868638D01*
X123190000Y-56431362D01*
X123209685Y-56364323D01*
X123226319Y-56343681D01*
X123653681Y-55916319D01*
X123715004Y-55882834D01*
X123741362Y-55880000D01*
X124235554Y-55880000D01*
X124278888Y-55887819D01*
X124322508Y-55904088D01*
X124322511Y-55904088D01*
X124322517Y-55904091D01*
X124382127Y-55910500D01*
X127077872Y-55910499D01*
X127137483Y-55904091D01*
X127181114Y-55887817D01*
X127224446Y-55880000D01*
X128270000Y-55880000D01*
X128270000Y-46906362D01*
X128289685Y-46839323D01*
X128306319Y-46818681D01*
X128733681Y-46391319D01*
X128795004Y-46357834D01*
X128821362Y-46355000D01*
X144228638Y-46355000D01*
X144295677Y-46374685D01*
X144316319Y-46391319D01*
X144743681Y-46818681D01*
X144777166Y-46880004D01*
X144780000Y-46906362D01*
X144780000Y-78740000D01*
X153670000Y-78740000D01*
X153670000Y-46355000D01*
X153669103Y-46354103D01*
X153649882Y-46348459D01*
X153626755Y-46346390D01*
X153616984Y-46338799D01*
X153605117Y-46335315D01*
X153589915Y-46317771D01*
X153571578Y-46303526D01*
X153567462Y-46291859D01*
X153559362Y-46282511D01*
X153556057Y-46259530D01*
X153548334Y-46237636D01*
X153551178Y-46225597D01*
X153549418Y-46213353D01*
X153559062Y-46192234D01*
X153564402Y-46169639D01*
X153573304Y-46161049D01*
X153578443Y-46149797D01*
X153597974Y-46137244D01*
X153614682Y-46121124D01*
X153633254Y-46114571D01*
X153637221Y-46112023D01*
X153647966Y-46109382D01*
X153658021Y-46107382D01*
X153682211Y-46105000D01*
X158102789Y-46105000D01*
X158126979Y-46107382D01*
G37*
%TD.AperFunction*%
%TD*%
M02*
