%TF.GenerationSoftware,KiCad,Pcbnew,9.0.8*%
%TF.CreationDate,2026-03-17T16:54:28+01:00*%
%TF.ProjectId,Input,496e7075-742e-46b6-9963-61645f706362,1*%
%TF.SameCoordinates,Original*%
%TF.FileFunction,Copper,L4,Bot*%
%TF.FilePolarity,Positive*%
%FSLAX46Y46*%
G04 Gerber Fmt 4.6, Leading zero omitted, Abs format (unit mm)*
G04 Created by KiCad (PCBNEW 9.0.8) date 2026-03-17 16:54:28*
%MOMM*%
%LPD*%
G01*
G04 APERTURE LIST*
G04 Aperture macros list*
%AMRoundRect*
0 Rectangle with rounded corners*
0 $1 Rounding radius*
0 $2 $3 $4 $5 $6 $7 $8 $9 X,Y pos of 4 corners*
0 Add a 4 corners polygon primitive as box body*
4,1,4,$2,$3,$4,$5,$6,$7,$8,$9,$2,$3,0*
0 Add four circle primitives for the rounded corners*
1,1,$1+$1,$2,$3*
1,1,$1+$1,$4,$5*
1,1,$1+$1,$6,$7*
1,1,$1+$1,$8,$9*
0 Add four rect primitives between the rounded corners*
20,1,$1+$1,$2,$3,$4,$5,0*
20,1,$1+$1,$4,$5,$6,$7,0*
20,1,$1+$1,$6,$7,$8,$9,0*
20,1,$1+$1,$8,$9,$2,$3,0*%
G04 Aperture macros list end*
%TA.AperFunction,ComponentPad*%
%ADD10R,2.600000X1.600000*%
%TD*%
%TA.AperFunction,ComponentPad*%
%ADD11O,2.600000X1.600000*%
%TD*%
%TA.AperFunction,ComponentPad*%
%ADD12RoundRect,0.250000X-0.950000X-0.550000X0.950000X-0.550000X0.950000X0.550000X-0.950000X0.550000X0*%
%TD*%
%TA.AperFunction,ComponentPad*%
%ADD13O,2.400000X1.600000*%
%TD*%
%TA.AperFunction,ComponentPad*%
%ADD14C,6.400000*%
%TD*%
%TA.AperFunction,ComponentPad*%
%ADD15R,1.700000X1.700000*%
%TD*%
%TA.AperFunction,ComponentPad*%
%ADD16C,1.700000*%
%TD*%
%TA.AperFunction,SMDPad,CuDef*%
%ADD17RoundRect,0.250000X-0.350000X-0.450000X0.350000X-0.450000X0.350000X0.450000X-0.350000X0.450000X0*%
%TD*%
%TA.AperFunction,SMDPad,CuDef*%
%ADD18RoundRect,0.250000X0.350000X0.450000X-0.350000X0.450000X-0.350000X-0.450000X0.350000X-0.450000X0*%
%TD*%
%TA.AperFunction,SMDPad,CuDef*%
%ADD19RoundRect,0.250000X-0.337500X-0.475000X0.337500X-0.475000X0.337500X0.475000X-0.337500X0.475000X0*%
%TD*%
%TA.AperFunction,SMDPad,CuDef*%
%ADD20RoundRect,0.250000X0.337500X0.475000X-0.337500X0.475000X-0.337500X-0.475000X0.337500X-0.475000X0*%
%TD*%
%TA.AperFunction,ViaPad*%
%ADD21C,0.700000*%
%TD*%
%TA.AperFunction,Conductor*%
%ADD22C,0.600000*%
%TD*%
%TA.AperFunction,Conductor*%
%ADD23C,1.000000*%
%TD*%
%TA.AperFunction,Conductor*%
%ADD24C,0.400000*%
%TD*%
%TA.AperFunction,Conductor*%
%ADD25C,1.200000*%
%TD*%
%TA.AperFunction,Conductor*%
%ADD26C,1.600000*%
%TD*%
G04 APERTURE END LIST*
D10*
%TO.P,J28,1,Pin_1*%
%TO.N,Net-(J28-Pin_1)*%
X102870000Y-117475000D03*
D11*
%TO.P,J28,2,Pin_2*%
%TO.N,GND_I*%
X102870000Y-114935000D03*
%TD*%
D12*
%TO.P,U8,1*%
%TO.N,Net-(U8A--)*%
X137160000Y-104775000D03*
D13*
%TO.P,U8,2,-*%
X137160000Y-107315000D03*
%TO.P,U8,3,+*%
%TO.N,Net-(U17C-+)*%
X137160000Y-109855000D03*
%TO.P,U8,4,V+*%
%TO.N,+15V_I*%
X137160000Y-112395000D03*
%TO.P,U8,5,+*%
%TO.N,Net-(SW2-B)*%
X137160000Y-114935000D03*
%TO.P,U8,6,-*%
%TO.N,Net-(U8B--)*%
X137160000Y-117475000D03*
%TO.P,U8,7*%
%TO.N,Net-(R24-Pad1)*%
X137160000Y-120015000D03*
%TO.P,U8,8*%
%TO.N,Net-(R25-Pad2)*%
X144780000Y-120015000D03*
%TO.P,U8,9,-*%
%TO.N,Net-(U8C--)*%
X144780000Y-117475000D03*
%TO.P,U8,10,+*%
%TO.N,Net-(U8C-+)*%
X144780000Y-114935000D03*
%TO.P,U8,11,V-*%
%TO.N,-15V_I*%
X144780000Y-112395000D03*
%TO.P,U8,12,+*%
%TO.N,GND_I*%
X144780000Y-109855000D03*
%TO.P,U8,13,-*%
%TO.N,Net-(U8D--)*%
X144780000Y-107315000D03*
%TO.P,U8,14*%
X144780000Y-104775000D03*
%TD*%
D10*
%TO.P,J8,1,Pin_1*%
%TO.N,Net-(J8-Pin_1)*%
X72390000Y-117475000D03*
D11*
%TO.P,J8,2,Pin_2*%
%TO.N,GND_I*%
X72390000Y-114935000D03*
%TD*%
D12*
%TO.P,U15,1*%
%TO.N,Net-(U15A--)*%
X110490000Y-50165000D03*
D13*
%TO.P,U15,2,-*%
X110490000Y-52705000D03*
%TO.P,U15,3,+*%
%TO.N,Net-(U15A-+)*%
X110490000Y-55245000D03*
%TO.P,U15,4,V+*%
%TO.N,+15V_I*%
X110490000Y-57785000D03*
%TO.P,U15,5,+*%
%TO.N,Net-(U15B-+)*%
X110490000Y-60325000D03*
%TO.P,U15,6,-*%
%TO.N,Net-(U15B--)*%
X110490000Y-62865000D03*
%TO.P,U15,7*%
X110490000Y-65405000D03*
%TO.P,U15,8*%
%TO.N,Net-(R58-Pad2)*%
X118110000Y-65405000D03*
%TO.P,U15,9,-*%
%TO.N,Net-(U15C--)*%
X118110000Y-62865000D03*
%TO.P,U15,10,+*%
%TO.N,Net-(U15C-+)*%
X118110000Y-60325000D03*
%TO.P,U15,11,V-*%
%TO.N,-15V_I*%
X118110000Y-57785000D03*
%TO.P,U15,12,+*%
%TO.N,Net-(U15D-+)*%
X118110000Y-55245000D03*
%TO.P,U15,13,-*%
%TO.N,Net-(U15D--)*%
X118110000Y-52705000D03*
%TO.P,U15,14*%
%TO.N,Net-(R93-Pad2)*%
X118110000Y-50165000D03*
%TD*%
D10*
%TO.P,J7,1,Pin_1*%
%TO.N,Net-(J7-Pin_1)*%
X72390000Y-107315000D03*
D11*
%TO.P,J7,2,Pin_2*%
%TO.N,GND_I*%
X72390000Y-109855000D03*
%TD*%
D10*
%TO.P,RV18,1,1*%
%TO.N,Net-(R101-Pad1)*%
X106680000Y-55245000D03*
D11*
%TO.P,RV18,2,2*%
%TO.N,Net-(U15A-+)*%
X106680000Y-52705000D03*
%TO.P,RV18,3,3*%
%TO.N,Net-(R93-Pad2)*%
X106680000Y-50165000D03*
%TD*%
D14*
%TO.P,H6,1*%
%TO.N,N/C*%
X185420000Y-46355000D03*
%TD*%
D10*
%TO.P,J23,1,Pin_1*%
%TO.N,Net-(J23-Pin_1)*%
X160020000Y-103505000D03*
D11*
%TO.P,J23,2,Pin_2*%
%TO.N,Net-(J23-Pin_2)*%
X160020000Y-106045000D03*
%TD*%
D10*
%TO.P,RV9,1,1*%
%TO.N,Net-(U11A--)*%
X95250000Y-50165000D03*
D11*
%TO.P,RV9,2,2*%
%TO.N,Net-(U11B--)*%
X95250000Y-52705000D03*
%TO.P,RV9,3,3*%
X95250000Y-55245000D03*
%TD*%
D10*
%TO.P,J20,1,Pin_1*%
%TO.N,Net-(J20-Pin_1)*%
X102870000Y-80645000D03*
D11*
%TO.P,J20,2,Pin_2*%
%TO.N,GND_I*%
X102870000Y-83185000D03*
%TD*%
D12*
%TO.P,U4,1*%
%TO.N,Net-(U4A--)*%
X80010000Y-78105000D03*
D13*
%TO.P,U4,2,-*%
X80010000Y-80645000D03*
%TO.P,U4,3,+*%
%TO.N,Net-(U4A-+)*%
X80010000Y-83185000D03*
%TO.P,U4,4,V+*%
%TO.N,+15V_I*%
X80010000Y-85725000D03*
%TO.P,U4,5,+*%
%TO.N,Net-(U4B-+)*%
X80010000Y-88265000D03*
%TO.P,U4,6,-*%
%TO.N,Net-(U4B--)*%
X80010000Y-90805000D03*
%TO.P,U4,7*%
X80010000Y-93345000D03*
%TO.P,U4,8*%
%TO.N,Net-(C2-Pad2)*%
X87630000Y-93345000D03*
%TO.P,U4,9,-*%
%TO.N,Net-(U4C--)*%
X87630000Y-90805000D03*
%TO.P,U4,10,+*%
%TO.N,Net-(U4C-+)*%
X87630000Y-88265000D03*
%TO.P,U4,11,V-*%
%TO.N,-15V_I*%
X87630000Y-85725000D03*
%TO.P,U4,12,+*%
%TO.N,Net-(U4D-+)*%
X87630000Y-83185000D03*
%TO.P,U4,13,-*%
%TO.N,Net-(U4D--)*%
X87630000Y-80645000D03*
%TO.P,U4,14*%
%TO.N,Net-(R7-Pad2)*%
X87630000Y-78105000D03*
%TD*%
D12*
%TO.P,U9,1*%
%TO.N,Net-(U9A--)*%
X80010000Y-104775000D03*
D13*
%TO.P,U9,2,-*%
X80010000Y-107315000D03*
%TO.P,U9,3,+*%
%TO.N,Net-(U9A-+)*%
X80010000Y-109855000D03*
%TO.P,U9,4,V+*%
%TO.N,+15V_I*%
X80010000Y-112395000D03*
%TO.P,U9,5,+*%
%TO.N,Net-(U9B-+)*%
X80010000Y-114935000D03*
%TO.P,U9,6,-*%
%TO.N,Net-(U9B--)*%
X80010000Y-117475000D03*
%TO.P,U9,7*%
X80010000Y-120015000D03*
%TO.P,U9,8*%
%TO.N,Net-(R30-Pad2)*%
X87630000Y-120015000D03*
%TO.P,U9,9,-*%
%TO.N,Net-(U9C--)*%
X87630000Y-117475000D03*
%TO.P,U9,10,+*%
%TO.N,Net-(U9C-+)*%
X87630000Y-114935000D03*
%TO.P,U9,11,V-*%
%TO.N,-15V_I*%
X87630000Y-112395000D03*
%TO.P,U9,12,+*%
%TO.N,GND_I*%
X87630000Y-109855000D03*
%TO.P,U9,13,-*%
%TO.N,Net-(U9D--)*%
X87630000Y-107315000D03*
%TO.P,U9,14*%
X87630000Y-104775000D03*
%TD*%
D10*
%TO.P,J2,1,Pin_1*%
%TO.N,Net-(J2-Pin_1)*%
X72390000Y-80645000D03*
D11*
%TO.P,J2,2,Pin_2*%
%TO.N,GND_I*%
X72390000Y-83185000D03*
%TD*%
D10*
%TO.P,J16,1,Pin_1*%
%TO.N,Net-(J16-Pin_1)*%
X160020000Y-54610000D03*
D11*
%TO.P,J16,2,Pin_2*%
%TO.N,Net-(J16-Pin_2)*%
X160020000Y-57150000D03*
%TD*%
D10*
%TO.P,J27,1,Pin_1*%
%TO.N,Net-(J23-Pin_1)*%
X160020000Y-92075000D03*
D11*
%TO.P,J27,2,Pin_2*%
%TO.N,Net-(J27-Pin_2)*%
X160020000Y-94615000D03*
%TD*%
D14*
%TO.P,H1,1*%
%TO.N,N/C*%
X50800000Y-122555000D03*
%TD*%
D10*
%TO.P,J17,1,Pin_1*%
%TO.N,Net-(J17-Pin_1)*%
X102870000Y-90805000D03*
D11*
%TO.P,J17,2,Pin_2*%
%TO.N,GND_I*%
X102870000Y-88265000D03*
%TD*%
D10*
%TO.P,J3,1,Pin_1*%
%TO.N,Net-(J3-Pin_1)*%
X72390000Y-90805000D03*
D11*
%TO.P,J3,2,Pin_2*%
%TO.N,GND_I*%
X72390000Y-88265000D03*
%TD*%
D14*
%TO.P,H3,1,1*%
%TO.N,Net-(C3-Pad1)*%
X185420000Y-122555000D03*
%TD*%
D12*
%TO.P,U11,1*%
%TO.N,Net-(R67-Pad1)*%
X80010000Y-50165000D03*
D13*
%TO.P,U11,2,-*%
%TO.N,Net-(U11A--)*%
X80010000Y-52705000D03*
%TO.P,U11,3,+*%
%TO.N,Net-(U11A-+)*%
X80010000Y-55245000D03*
%TO.P,U11,4,V+*%
%TO.N,+15V_I*%
X80010000Y-57785000D03*
%TO.P,U11,5,+*%
%TO.N,Net-(U11B-+)*%
X80010000Y-60325000D03*
%TO.P,U11,6,-*%
%TO.N,Net-(U11B--)*%
X80010000Y-62865000D03*
%TO.P,U11,7*%
%TO.N,Net-(R52-Pad1)*%
X80010000Y-65405000D03*
%TO.P,U11,8*%
%TO.N,Net-(R53-Pad1)*%
X87630000Y-65405000D03*
%TO.P,U11,9,-*%
%TO.N,Net-(U11C--)*%
X87630000Y-62865000D03*
%TO.P,U11,10,+*%
%TO.N,Net-(U11C-+)*%
X87630000Y-60325000D03*
%TO.P,U11,11,V-*%
%TO.N,-15V_I*%
X87630000Y-57785000D03*
%TO.P,U11,12,+*%
%TO.N,GND_I*%
X87630000Y-55245000D03*
%TO.P,U11,13,-*%
%TO.N,Net-(U11D--)*%
X87630000Y-52705000D03*
%TO.P,U11,14*%
X87630000Y-50165000D03*
%TD*%
D10*
%TO.P,RV11,1,1*%
%TO.N,Net-(U15C-+)*%
X121920000Y-60325000D03*
D11*
%TO.P,RV11,2,2*%
X121920000Y-62865000D03*
%TO.P,RV11,3,3*%
%TO.N,Net-(R76-Pad2)*%
X121920000Y-65405000D03*
%TO.P,RV11,4,4*%
%TO.N,Net-(R77-Pad2)*%
X125730000Y-65405000D03*
%TO.P,RV11,5,5*%
%TO.N,Net-(U15C-+)*%
X125730000Y-62865000D03*
D10*
%TO.P,RV11,6,6*%
X125730000Y-60325000D03*
%TD*%
%TO.P,J22,1,Pin_1*%
%TO.N,Net-(J22-Pin_1)*%
X102870000Y-107315000D03*
D11*
%TO.P,J22,2,Pin_2*%
%TO.N,GND_I*%
X102870000Y-109855000D03*
%TD*%
D12*
%TO.P,U19,1*%
%TO.N,Net-(U19A--)*%
X110490000Y-104775000D03*
D13*
%TO.P,U19,2,-*%
X110490000Y-107315000D03*
%TO.P,U19,3,+*%
%TO.N,Net-(U19A-+)*%
X110490000Y-109855000D03*
%TO.P,U19,4,V+*%
%TO.N,+15V_I*%
X110490000Y-112395000D03*
%TO.P,U19,5,+*%
%TO.N,Net-(U19B-+)*%
X110490000Y-114935000D03*
%TO.P,U19,6,-*%
%TO.N,Net-(U19B--)*%
X110490000Y-117475000D03*
%TO.P,U19,7*%
X110490000Y-120015000D03*
%TO.P,U19,8*%
%TO.N,Net-(R135-Pad1)*%
X118110000Y-120015000D03*
%TO.P,U19,9,-*%
%TO.N,Net-(U19C--)*%
X118110000Y-117475000D03*
%TO.P,U19,10,+*%
%TO.N,Net-(U19C-+)*%
X118110000Y-114935000D03*
%TO.P,U19,11,V-*%
%TO.N,-15V_I*%
X118110000Y-112395000D03*
%TO.P,U19,12,+*%
%TO.N,Net-(U17C-+)*%
X118110000Y-109855000D03*
%TO.P,U19,13,-*%
%TO.N,Net-(U19D--)*%
X118110000Y-107315000D03*
%TO.P,U19,14*%
X118110000Y-104775000D03*
%TD*%
D10*
%TO.P,SW2,1,A*%
%TO.N,Net-(SW2-A)*%
X95250000Y-104775000D03*
D11*
%TO.P,SW2,2,B*%
%TO.N,Net-(SW2-B)*%
X95250000Y-107315000D03*
%TO.P,SW2,3,C*%
%TO.N,Net-(SW2-C)*%
X95250000Y-109855000D03*
%TD*%
D10*
%TO.P,J12,1,Pin_1*%
%TO.N,Net-(J12-Pin_1)*%
X160020000Y-77470000D03*
D11*
%TO.P,J12,2,Pin_2*%
%TO.N,Net-(J12-Pin_2)*%
X160020000Y-80010000D03*
%TD*%
D10*
%TO.P,J4,1,Pin_1*%
%TO.N,Net-(J4-Pin_1)*%
X160020000Y-114935000D03*
D11*
%TO.P,J4,2,Pin_2*%
%TO.N,Net-(J4-Pin_2)*%
X160020000Y-117475000D03*
%TD*%
D15*
%TO.P,J30,1,Pin_1*%
%TO.N,9V_GND_I*%
X170180000Y-102235000D03*
D16*
%TO.P,J30,2,Pin_2*%
X172720000Y-102235000D03*
%TO.P,J30,3,Pin_3*%
X170180000Y-104775000D03*
%TO.P,J30,4,Pin_4*%
X172720000Y-104775000D03*
%TO.P,J30,5,Pin_5*%
%TO.N,+9V_I*%
X170180000Y-107315000D03*
%TO.P,J30,6,Pin_6*%
X172720000Y-107315000D03*
%TO.P,J30,7,Pin_7*%
%TO.N,-15V_I*%
X170180000Y-109855000D03*
%TO.P,J30,8,Pin_8*%
X172720000Y-109855000D03*
%TO.P,J30,9,Pin_9*%
%TO.N,GND_I*%
X170180000Y-112395000D03*
%TO.P,J30,10,Pin_10*%
X172720000Y-112395000D03*
%TO.P,J30,11,Pin_11*%
X170180000Y-114935000D03*
%TO.P,J30,12,Pin_12*%
X172720000Y-114935000D03*
%TO.P,J30,13,Pin_13*%
%TO.N,+15V_I*%
X170180000Y-117475000D03*
%TO.P,J30,14,Pin_14*%
X172720000Y-117475000D03*
%TD*%
D10*
%TO.P,RV4,1,1*%
%TO.N,Net-(R24-Pad1)*%
X133350000Y-120015000D03*
D11*
%TO.P,RV4,2,2*%
%TO.N,Net-(U8B--)*%
X133350000Y-117475000D03*
%TO.P,RV4,3,3*%
X133350000Y-114935000D03*
%TD*%
D12*
%TO.P,U17,1*%
%TO.N,Net-(U17A--)*%
X110490000Y-78105000D03*
D13*
%TO.P,U17,2,-*%
X110490000Y-80645000D03*
%TO.P,U17,3,+*%
%TO.N,Net-(U17A-+)*%
X110490000Y-83185000D03*
%TO.P,U17,4,V+*%
%TO.N,+15V_I*%
X110490000Y-85725000D03*
%TO.P,U17,5,+*%
%TO.N,Net-(U17B-+)*%
X110490000Y-88265000D03*
%TO.P,U17,6,-*%
%TO.N,Net-(U17B--)*%
X110490000Y-90805000D03*
%TO.P,U17,7*%
X110490000Y-93345000D03*
%TO.P,U17,8*%
%TO.N,Net-(U17C--)*%
X118110000Y-93345000D03*
%TO.P,U17,9,-*%
X118110000Y-90805000D03*
%TO.P,U17,10,+*%
%TO.N,Net-(U17C-+)*%
X118110000Y-88265000D03*
%TO.P,U17,11,V-*%
%TO.N,-15V_I*%
X118110000Y-85725000D03*
%TO.P,U17,12,+*%
%TO.N,Net-(U17D-+)*%
X118110000Y-83185000D03*
%TO.P,U17,13,-*%
%TO.N,Net-(U17D--)*%
X118110000Y-80645000D03*
%TO.P,U17,14*%
%TO.N,Net-(R103-Pad2)*%
X118110000Y-78105000D03*
%TD*%
D10*
%TO.P,J14,1,Pin_1*%
%TO.N,Net-(J14-Pin_1)*%
X160020000Y-66040000D03*
D11*
%TO.P,J14,2,Pin_2*%
%TO.N,Net-(J14-Pin_2)*%
X160020000Y-68580000D03*
%TD*%
D10*
%TO.P,RV17,1,1*%
%TO.N,Net-(U15D-+)*%
X121920000Y-55245000D03*
D11*
%TO.P,RV17,2,2*%
X121920000Y-52705000D03*
%TO.P,RV17,3,3*%
%TO.N,Net-(R105-Pad2)*%
X121920000Y-50165000D03*
%TO.P,RV17,4,4*%
%TO.N,Net-(R106-Pad2)*%
X125730000Y-50165000D03*
%TO.P,RV17,5,5*%
%TO.N,Net-(U15D-+)*%
X125730000Y-52705000D03*
D10*
%TO.P,RV17,6,6*%
X125730000Y-55245000D03*
%TD*%
%TO.P,J9,1,Pin_1*%
%TO.N,Net-(J9-Pin_1)*%
X72390000Y-55245000D03*
D11*
%TO.P,J9,2,Pin_2*%
%TO.N,GND_I*%
X72390000Y-57785000D03*
%TO.P,J9,3,Pin_3*%
%TO.N,Net-(J9-Pin_3)*%
X72390000Y-60325000D03*
%TD*%
D14*
%TO.P,H7,1*%
%TO.N,N/C*%
X50800000Y-46355000D03*
%TD*%
D10*
%TO.P,RV13,1,1*%
%TO.N,Net-(R65-Pad1)*%
X106680000Y-60325000D03*
D11*
%TO.P,RV13,2,2*%
%TO.N,Net-(U15B-+)*%
X106680000Y-62865000D03*
%TO.P,RV13,3,3*%
%TO.N,Net-(R58-Pad2)*%
X106680000Y-65405000D03*
%TD*%
D17*
%TO.P,Z9,1*%
%TO.N,Net-(R7-Pad2)*%
X94250000Y-80645000D03*
%TO.P,Z9,2*%
%TO.N,Net-(Z10-Pad1)*%
X96250000Y-80645000D03*
%TD*%
%TO.P,Z190,1*%
%TO.N,Net-(U17A--)*%
X113300000Y-80645000D03*
%TO.P,Z190,2*%
%TO.N,Net-(Z190-Pad2)*%
X115300000Y-80645000D03*
%TD*%
D18*
%TO.P,Z12,1*%
%TO.N,Net-(U4A-+)*%
X77200000Y-83185000D03*
%TO.P,Z12,2*%
%TO.N,GND_I*%
X75200000Y-83185000D03*
%TD*%
%TO.P,Z33,1*%
%TO.N,Net-(U4B-+)*%
X77200000Y-88265000D03*
%TO.P,Z33,2*%
%TO.N,GND_I*%
X75200000Y-88265000D03*
%TD*%
D19*
%TO.P,C58,1*%
%TO.N,GND_I*%
X105642500Y-112395000D03*
%TO.P,C58,2*%
%TO.N,+15V_I*%
X107717500Y-112395000D03*
%TD*%
D17*
%TO.P,Z156,1*%
%TO.N,Net-(U19D--)*%
X155210000Y-63500000D03*
%TO.P,Z156,2*%
%TO.N,GND_I*%
X157210000Y-63500000D03*
%TD*%
%TO.P,Z50,1*%
%TO.N,Net-(U9A--)*%
X82820000Y-104775000D03*
%TO.P,Z50,2*%
%TO.N,Net-(Z50-Pad2)*%
X84820000Y-104775000D03*
%TD*%
D18*
%TO.P,Z58,1*%
%TO.N,Net-(U9A-+)*%
X77200000Y-109855000D03*
%TO.P,Z58,2*%
%TO.N,GND_I*%
X75200000Y-109855000D03*
%TD*%
%TO.P,Z194,1*%
%TO.N,Net-(Z190-Pad2)*%
X115300000Y-78105000D03*
%TO.P,Z194,2*%
%TO.N,GND_I*%
X113300000Y-78105000D03*
%TD*%
%TO.P,Z6,1*%
%TO.N,Net-(Z14-Pad1)*%
X84820000Y-78105000D03*
%TO.P,Z6,2*%
%TO.N,Net-(R9-Pad1)*%
X82820000Y-78105000D03*
%TD*%
D17*
%TO.P,Z98,1*%
%TO.N,Net-(Z100-Pad1)*%
X128540000Y-67945000D03*
%TO.P,Z98,2*%
%TO.N,Net-(R101-Pad1)*%
X130540000Y-67945000D03*
%TD*%
D18*
%TO.P,R15,1*%
%TO.N,GND_I*%
X96250000Y-93345000D03*
%TO.P,R15,2*%
%TO.N,Net-(C9-Pad1)*%
X94250000Y-93345000D03*
%TD*%
D17*
%TO.P,Z10,1*%
%TO.N,Net-(Z10-Pad1)*%
X98060000Y-83185000D03*
%TO.P,Z10,2*%
%TO.N,Net-(U4C-+)*%
X100060000Y-83185000D03*
%TD*%
%TO.P,Z176,1*%
%TO.N,Net-(J17-Pin_1)*%
X105680000Y-90805000D03*
%TO.P,Z176,2*%
%TO.N,Net-(U17B-+)*%
X107680000Y-90805000D03*
%TD*%
%TO.P,Z57,1*%
%TO.N,Net-(J7-Pin_1)*%
X75200000Y-104775000D03*
%TO.P,Z57,2*%
%TO.N,GND_I*%
X77200000Y-104775000D03*
%TD*%
%TO.P,Z232,1*%
%TO.N,Net-(Z226-Pad2)*%
X120920000Y-122555000D03*
%TO.P,Z232,2*%
%TO.N,GND_I*%
X122920000Y-122555000D03*
%TD*%
D20*
%TO.P,C63,1*%
%TO.N,GND_I*%
X122957500Y-57785000D03*
%TO.P,C63,2*%
%TO.N,-15V_I*%
X120882500Y-57785000D03*
%TD*%
D18*
%TO.P,Z35,1*%
%TO.N,Net-(Z26-Pad2)*%
X84820000Y-95885000D03*
%TO.P,Z35,2*%
%TO.N,GND_I*%
X82820000Y-95885000D03*
%TD*%
D17*
%TO.P,R76,1*%
%TO.N,Net-(C37-Pad1)*%
X113300000Y-70485000D03*
%TO.P,R76,2*%
%TO.N,Net-(R76-Pad2)*%
X115300000Y-70485000D03*
%TD*%
%TO.P,R16,1*%
%TO.N,Net-(R16-Pad1)*%
X82820000Y-88265000D03*
%TO.P,R16,2*%
%TO.N,Net-(U4D--)*%
X84820000Y-88265000D03*
%TD*%
D18*
%TO.P,Z150,1*%
%TO.N,Net-(R104-Pad1)*%
X126730000Y-83185000D03*
%TO.P,Z150,2*%
%TO.N,Net-(Z150-Pad2)*%
X124730000Y-83185000D03*
%TD*%
%TO.P,R36,1*%
%TO.N,GND_I*%
X149590000Y-114935000D03*
%TO.P,R36,2*%
%TO.N,Net-(U8C-+)*%
X147590000Y-114935000D03*
%TD*%
D20*
%TO.P,C37,1*%
%TO.N,Net-(C37-Pad1)*%
X111295000Y-70485000D03*
%TO.P,C37,2*%
%TO.N,Net-(U15B--)*%
X109220000Y-70485000D03*
%TD*%
D17*
%TO.P,Z180,1*%
%TO.N,Net-(J17-Pin_1)*%
X105680000Y-93345000D03*
%TO.P,Z180,2*%
%TO.N,GND_I*%
X107680000Y-93345000D03*
%TD*%
D18*
%TO.P,R126,1*%
%TO.N,Net-(U19C--)*%
X115300000Y-85725000D03*
%TO.P,R126,2*%
%TO.N,Net-(R126-Pad2)*%
X113300000Y-85725000D03*
%TD*%
%TO.P,Z178,1*%
%TO.N,Net-(J16-Pin_1)*%
X157210000Y-57150000D03*
%TO.P,Z178,2*%
%TO.N,GND_I*%
X155210000Y-57150000D03*
%TD*%
D17*
%TO.P,R30,1*%
%TO.N,Net-(U9C--)*%
X90440000Y-117475000D03*
%TO.P,R30,2*%
%TO.N,Net-(R30-Pad2)*%
X92440000Y-117475000D03*
%TD*%
D18*
%TO.P,Z158,1*%
%TO.N,Net-(J14-Pin_2)*%
X157210000Y-71120000D03*
%TO.P,Z158,2*%
%TO.N,GND_I*%
X155210000Y-71120000D03*
%TD*%
D19*
%TO.P,C56,1*%
%TO.N,GND_I*%
X105642500Y-57785000D03*
%TO.P,C56,2*%
%TO.N,+15V_I*%
X107717500Y-57785000D03*
%TD*%
D17*
%TO.P,Z201,1*%
%TO.N,Net-(J22-Pin_1)*%
X105680000Y-107315000D03*
%TO.P,Z201,2*%
%TO.N,Net-(U19A-+)*%
X107680000Y-107315000D03*
%TD*%
%TO.P,Z202,1*%
%TO.N,Net-(U19A--)*%
X113300000Y-104775000D03*
%TO.P,Z202,2*%
%TO.N,Net-(Z202-Pad2)*%
X115300000Y-104775000D03*
%TD*%
%TO.P,Z23,1*%
%TO.N,Net-(J3-Pin_1)*%
X75200000Y-90805000D03*
%TO.P,Z23,2*%
%TO.N,Net-(U4B-+)*%
X77200000Y-90805000D03*
%TD*%
D18*
%TO.P,Z73,1*%
%TO.N,Net-(Z72-Pad2)*%
X84820000Y-120015000D03*
%TO.P,Z73,2*%
%TO.N,Net-(R45-Pad1)*%
X82820000Y-120015000D03*
%TD*%
%TO.P,Z87,1*%
%TO.N,Net-(U11B-+)*%
X77200000Y-60325000D03*
%TO.P,Z87,2*%
%TO.N,GND_I*%
X75200000Y-60325000D03*
%TD*%
%TO.P,R103,1*%
%TO.N,Net-(U17D--)*%
X122920000Y-78105000D03*
%TO.P,R103,2*%
%TO.N,Net-(R103-Pad2)*%
X120920000Y-78105000D03*
%TD*%
D17*
%TO.P,Z135,1*%
%TO.N,Net-(Z134-Pad2)*%
X128540000Y-47625000D03*
%TO.P,Z135,2*%
%TO.N,Net-(R102-Pad1)*%
X130540000Y-47625000D03*
%TD*%
D18*
%TO.P,R53,1*%
%TO.N,Net-(R53-Pad1)*%
X92440000Y-62865000D03*
%TO.P,R53,2*%
%TO.N,Net-(U11C--)*%
X90440000Y-62865000D03*
%TD*%
%TO.P,R3,1*%
%TO.N,Net-(C1-Pad2)*%
X92440000Y-93345000D03*
%TO.P,R3,2*%
%TO.N,Net-(U4C--)*%
X90440000Y-93345000D03*
%TD*%
D17*
%TO.P,R52,1*%
%TO.N,Net-(R52-Pad1)*%
X82820000Y-65405000D03*
%TO.P,R52,2*%
%TO.N,Net-(U11C--)*%
X84820000Y-65405000D03*
%TD*%
%TO.P,Z112,1*%
%TO.N,Net-(J9-Pin_1)*%
X75200000Y-50165000D03*
%TO.P,Z112,2*%
%TO.N,GND_I*%
X77200000Y-50165000D03*
%TD*%
D18*
%TO.P,R4,1*%
%TO.N,Net-(C2-Pad2)*%
X96250000Y-98425000D03*
%TO.P,R4,2*%
%TO.N,Net-(C1-Pad2)*%
X94250000Y-98425000D03*
%TD*%
D17*
%TO.P,Z2,1*%
%TO.N,Net-(J2-Pin_1)*%
X75200000Y-80645000D03*
%TO.P,Z2,2*%
%TO.N,Net-(U4A-+)*%
X77200000Y-80645000D03*
%TD*%
D20*
%TO.P,C64,1*%
%TO.N,GND_I*%
X122957500Y-85725000D03*
%TO.P,C64,2*%
%TO.N,-15V_I*%
X120882500Y-85725000D03*
%TD*%
D17*
%TO.P,Z86,1*%
%TO.N,Net-(J9-Pin_3)*%
X75200000Y-65405000D03*
%TO.P,Z86,2*%
%TO.N,GND_I*%
X77200000Y-65405000D03*
%TD*%
%TO.P,R105,1*%
%TO.N,Net-(C49-Pad1)*%
X113300000Y-45085000D03*
%TO.P,R105,2*%
%TO.N,Net-(R105-Pad2)*%
X115300000Y-45085000D03*
%TD*%
%TO.P,Z19,1*%
%TO.N,Net-(U4D-+)*%
X90440000Y-83185000D03*
%TO.P,Z19,2*%
%TO.N,GND_I*%
X92440000Y-83185000D03*
%TD*%
%TO.P,Z40,1*%
%TO.N,Net-(R25-Pad2)*%
X155210000Y-112395000D03*
%TO.P,Z40,2*%
%TO.N,GND_I*%
X157210000Y-112395000D03*
%TD*%
D18*
%TO.P,Z155,1*%
%TO.N,Net-(Z150-Pad2)*%
X126730000Y-93345000D03*
%TO.P,Z155,2*%
%TO.N,Net-(U17B--)*%
X124730000Y-93345000D03*
%TD*%
%TO.P,R80,1*%
%TO.N,GND_I*%
X92440000Y-60325000D03*
%TO.P,R80,2*%
%TO.N,Net-(U11C-+)*%
X90440000Y-60325000D03*
%TD*%
D17*
%TO.P,Z26,1*%
%TO.N,Net-(U4B--)*%
X82820000Y-93345000D03*
%TO.P,Z26,2*%
%TO.N,Net-(Z26-Pad2)*%
X84820000Y-93345000D03*
%TD*%
D18*
%TO.P,Z203,1*%
%TO.N,Net-(Z202-Pad2)*%
X115300000Y-107315000D03*
%TO.P,Z203,2*%
%TO.N,Net-(R134-Pad2)*%
X113300000Y-107315000D03*
%TD*%
D20*
%TO.P,C65,1*%
%TO.N,GND_I*%
X122957500Y-112395000D03*
%TO.P,C65,2*%
%TO.N,-15V_I*%
X120882500Y-112395000D03*
%TD*%
D17*
%TO.P,Z152,1*%
%TO.N,Net-(U19D--)*%
X155210000Y-66040000D03*
%TO.P,Z152,2*%
%TO.N,Net-(J14-Pin_1)*%
X157210000Y-66040000D03*
%TD*%
%TO.P,Z140,1*%
%TO.N,Net-(U8A--)*%
X155130000Y-77470000D03*
%TO.P,Z140,2*%
%TO.N,Net-(J12-Pin_1)*%
X157130000Y-77470000D03*
%TD*%
D19*
%TO.P,C53,1*%
%TO.N,GND_I*%
X132312500Y-112395000D03*
%TO.P,C53,2*%
%TO.N,+15V_I*%
X134387500Y-112395000D03*
%TD*%
D20*
%TO.P,C49,1*%
%TO.N,Net-(C49-Pad1)*%
X111295000Y-45085000D03*
%TO.P,C49,2*%
%TO.N,Net-(U15A--)*%
X109220000Y-45085000D03*
%TD*%
D18*
%TO.P,Z227,1*%
%TO.N,Net-(Z226-Pad2)*%
X115300000Y-120015000D03*
%TO.P,Z227,2*%
%TO.N,Net-(R140-Pad2)*%
X113300000Y-120015000D03*
%TD*%
%TO.P,Z22,1*%
%TO.N,Net-(Z15-Pad2)*%
X100060000Y-100965000D03*
%TO.P,Z22,2*%
%TO.N,Net-(SW2-A)*%
X98060000Y-100965000D03*
%TD*%
D17*
%TO.P,Z79,1*%
%TO.N,Net-(Z72-Pad2)*%
X90440000Y-122555000D03*
%TO.P,Z79,2*%
%TO.N,GND_I*%
X92440000Y-122555000D03*
%TD*%
D18*
%TO.P,Z230,1*%
%TO.N,Net-(U19B-+)*%
X107680000Y-114935000D03*
%TO.P,Z230,2*%
%TO.N,GND_I*%
X105680000Y-114935000D03*
%TD*%
D17*
%TO.P,Z143,1*%
%TO.N,GND_I*%
X124730000Y-45085000D03*
%TO.P,Z143,2*%
%TO.N,Net-(Z134-Pad2)*%
X126730000Y-45085000D03*
%TD*%
%TO.P,R45,1*%
%TO.N,Net-(R45-Pad1)*%
X82820000Y-117475000D03*
%TO.P,R45,2*%
%TO.N,Net-(U9C--)*%
X84820000Y-117475000D03*
%TD*%
%TO.P,Z72,1*%
%TO.N,Net-(U9B--)*%
X82820000Y-122555000D03*
%TO.P,Z72,2*%
%TO.N,Net-(Z72-Pad2)*%
X84820000Y-122555000D03*
%TD*%
%TO.P,Z38,1*%
%TO.N,Net-(R25-Pad2)*%
X155210000Y-114935000D03*
%TO.P,Z38,2*%
%TO.N,Net-(J4-Pin_1)*%
X157210000Y-114935000D03*
%TD*%
D18*
%TO.P,Z157,1*%
%TO.N,Net-(J14-Pin_1)*%
X157210000Y-68580000D03*
%TO.P,Z157,2*%
%TO.N,GND_I*%
X155210000Y-68580000D03*
%TD*%
%TO.P,Z59,1*%
%TO.N,Net-(Z50-Pad2)*%
X84820000Y-102235000D03*
%TO.P,Z59,2*%
%TO.N,GND_I*%
X82820000Y-102235000D03*
%TD*%
D17*
%TO.P,R135,1*%
%TO.N,Net-(R135-Pad1)*%
X120920000Y-120015000D03*
%TO.P,R135,2*%
%TO.N,Net-(U19C--)*%
X122920000Y-120015000D03*
%TD*%
%TO.P,Z11,1*%
%TO.N,Net-(J2-Pin_1)*%
X75200000Y-78105000D03*
%TO.P,Z11,2*%
%TO.N,GND_I*%
X77200000Y-78105000D03*
%TD*%
%TO.P,Z226,1*%
%TO.N,Net-(U19B--)*%
X113300000Y-122555000D03*
%TO.P,Z226,2*%
%TO.N,Net-(Z226-Pad2)*%
X115300000Y-122555000D03*
%TD*%
%TO.P,Z63,1*%
%TO.N,Net-(U9C-+)*%
X90440000Y-114935000D03*
%TO.P,Z63,2*%
%TO.N,GND_I*%
X92440000Y-114935000D03*
%TD*%
%TO.P,Z189,1*%
%TO.N,Net-(J20-Pin_1)*%
X105680000Y-80645000D03*
%TO.P,Z189,2*%
%TO.N,Net-(U17A-+)*%
X107680000Y-80645000D03*
%TD*%
D18*
%TO.P,Z136,1*%
%TO.N,Net-(R103-Pad2)*%
X134350000Y-107315000D03*
%TO.P,Z136,2*%
%TO.N,Net-(Z136-Pad2)*%
X132350000Y-107315000D03*
%TD*%
D17*
%TO.P,Z75,1*%
%TO.N,Net-(J8-Pin_1)*%
X75200000Y-120015000D03*
%TO.P,Z75,2*%
%TO.N,GND_I*%
X77200000Y-120015000D03*
%TD*%
%TO.P,Z206,1*%
%TO.N,Net-(J22-Pin_1)*%
X105680000Y-104775000D03*
%TO.P,Z206,2*%
%TO.N,GND_I*%
X107680000Y-104775000D03*
%TD*%
D18*
%TO.P,Z193,1*%
%TO.N,Net-(U17A-+)*%
X107680000Y-83185000D03*
%TO.P,Z193,2*%
%TO.N,GND_I*%
X105680000Y-83185000D03*
%TD*%
D17*
%TO.P,Z225,1*%
%TO.N,Net-(J28-Pin_1)*%
X105680000Y-117475000D03*
%TO.P,Z225,2*%
%TO.N,Net-(U19B-+)*%
X107680000Y-117475000D03*
%TD*%
D20*
%TO.P,C2,1*%
%TO.N,Net-(C1-Pad2)*%
X92477500Y-98425000D03*
%TO.P,C2,2*%
%TO.N,Net-(C2-Pad2)*%
X90402500Y-98425000D03*
%TD*%
D17*
%TO.P,R7,1*%
%TO.N,Net-(U4D--)*%
X90440000Y-80645000D03*
%TO.P,R7,2*%
%TO.N,Net-(R7-Pad2)*%
X92440000Y-80645000D03*
%TD*%
%TO.P,Z80,1*%
%TO.N,Net-(J9-Pin_3)*%
X75200000Y-62865000D03*
%TO.P,Z80,2*%
%TO.N,Net-(U11B-+)*%
X77200000Y-62865000D03*
%TD*%
%TO.P,R9,1*%
%TO.N,Net-(R9-Pad1)*%
X82820000Y-80645000D03*
%TO.P,R9,2*%
%TO.N,Net-(U4D--)*%
X84820000Y-80645000D03*
%TD*%
D18*
%TO.P,R75,1*%
%TO.N,Net-(R67-Pad1)*%
X84820000Y-55245000D03*
%TO.P,R75,2*%
%TO.N,Net-(U11C-+)*%
X82820000Y-55245000D03*
%TD*%
D20*
%TO.P,C61,1*%
%TO.N,GND_I*%
X92477500Y-85725000D03*
%TO.P,C61,2*%
%TO.N,-15V_I*%
X90402500Y-85725000D03*
%TD*%
D17*
%TO.P,Z177,1*%
%TO.N,Net-(U17C--)*%
X155210000Y-52070000D03*
%TO.P,Z177,2*%
%TO.N,GND_I*%
X157210000Y-52070000D03*
%TD*%
D18*
%TO.P,Z55,1*%
%TO.N,Net-(Z54-Pad2)*%
X96250000Y-114935000D03*
%TO.P,Z55,2*%
%TO.N,Net-(SW2-C)*%
X94250000Y-114935000D03*
%TD*%
D17*
%TO.P,Z5,1*%
%TO.N,Net-(U4A--)*%
X82820000Y-75565000D03*
%TO.P,Z5,2*%
%TO.N,Net-(Z14-Pad1)*%
X84820000Y-75565000D03*
%TD*%
%TO.P,Z137,1*%
%TO.N,Net-(Z136-Pad2)*%
X132350000Y-109855000D03*
%TO.P,Z137,2*%
%TO.N,Net-(U17C-+)*%
X134350000Y-109855000D03*
%TD*%
%TO.P,R57,1*%
%TO.N,Net-(U11B--)*%
X82820000Y-62865000D03*
%TO.P,R57,2*%
%TO.N,Net-(R52-Pad1)*%
X84820000Y-62865000D03*
%TD*%
D18*
%TO.P,Z42,1*%
%TO.N,Net-(J4-Pin_2)*%
X157210000Y-120015000D03*
%TO.P,Z42,2*%
%TO.N,GND_I*%
X155210000Y-120015000D03*
%TD*%
D19*
%TO.P,C33,1*%
%TO.N,Net-(U15C-+)*%
X128502500Y-62865000D03*
%TO.P,C33,2*%
%TO.N,GND_I*%
X130577500Y-62865000D03*
%TD*%
%TO.P,C48,1*%
%TO.N,Net-(U15D-+)*%
X128502500Y-52705000D03*
%TO.P,C48,2*%
%TO.N,GND_I*%
X130577500Y-52705000D03*
%TD*%
D17*
%TO.P,R101,1*%
%TO.N,Net-(R101-Pad1)*%
X113300000Y-52705000D03*
%TO.P,R101,2*%
%TO.N,Net-(U15D--)*%
X115300000Y-52705000D03*
%TD*%
D18*
%TO.P,Z62,1*%
%TO.N,Net-(Z54-Pad2)*%
X96250000Y-120015000D03*
%TO.P,Z62,2*%
%TO.N,GND_I*%
X94250000Y-120015000D03*
%TD*%
D17*
%TO.P,Z67,1*%
%TO.N,Net-(J8-Pin_1)*%
X75200000Y-117475000D03*
%TO.P,Z67,2*%
%TO.N,Net-(U9B-+)*%
X77200000Y-117475000D03*
%TD*%
D18*
%TO.P,R106,1*%
%TO.N,GND_I*%
X130540000Y-50165000D03*
%TO.P,R106,2*%
%TO.N,Net-(R106-Pad2)*%
X128540000Y-50165000D03*
%TD*%
%TO.P,Z142,1*%
%TO.N,Net-(Z136-Pad2)*%
X130540000Y-107315000D03*
%TO.P,Z142,2*%
%TO.N,GND_I*%
X128540000Y-107315000D03*
%TD*%
%TO.P,Z99,1*%
%TO.N,Net-(Z94-Pad2)*%
X96250000Y-65405000D03*
%TO.P,Z99,2*%
%TO.N,GND_I*%
X94250000Y-65405000D03*
%TD*%
%TO.P,Z207,1*%
%TO.N,Net-(U19A-+)*%
X107680000Y-109855000D03*
%TO.P,Z207,2*%
%TO.N,GND_I*%
X105680000Y-109855000D03*
%TD*%
D20*
%TO.P,C52,1*%
%TO.N,+15V_I*%
X77237500Y-57785000D03*
%TO.P,C52,2*%
%TO.N,GND_I*%
X75162500Y-57785000D03*
%TD*%
%TO.P,C59,1*%
%TO.N,GND_I*%
X92477500Y-57785000D03*
%TO.P,C59,2*%
%TO.N,-15V_I*%
X90402500Y-57785000D03*
%TD*%
D18*
%TO.P,R93,1*%
%TO.N,Net-(U15D--)*%
X115300000Y-50165000D03*
%TO.P,R93,2*%
%TO.N,Net-(R93-Pad2)*%
X113300000Y-50165000D03*
%TD*%
%TO.P,R77,1*%
%TO.N,GND_I*%
X130540000Y-65405000D03*
%TO.P,R77,2*%
%TO.N,Net-(R77-Pad2)*%
X128540000Y-65405000D03*
%TD*%
D17*
%TO.P,Z151,1*%
%TO.N,Net-(U17D-+)*%
X120920000Y-83185000D03*
%TO.P,Z151,2*%
%TO.N,GND_I*%
X122920000Y-83185000D03*
%TD*%
%TO.P,Z134,1*%
%TO.N,Net-(R93-Pad2)*%
X124730000Y-47625000D03*
%TO.P,Z134,2*%
%TO.N,Net-(Z134-Pad2)*%
X126730000Y-47625000D03*
%TD*%
D18*
%TO.P,Z27,1*%
%TO.N,Net-(Z26-Pad2)*%
X84820000Y-90805000D03*
%TO.P,Z27,2*%
%TO.N,Net-(R16-Pad1)*%
X82820000Y-90805000D03*
%TD*%
D17*
%TO.P,R32,1*%
%TO.N,Net-(U8B--)*%
X139970000Y-117475000D03*
%TO.P,R32,2*%
%TO.N,Net-(U8C-+)*%
X141970000Y-117475000D03*
%TD*%
D19*
%TO.P,C57,1*%
%TO.N,GND_I*%
X105642500Y-85725000D03*
%TO.P,C57,2*%
%TO.N,+15V_I*%
X107717500Y-85725000D03*
%TD*%
D17*
%TO.P,Z229,1*%
%TO.N,Net-(J28-Pin_1)*%
X105680000Y-120015000D03*
%TO.P,Z229,2*%
%TO.N,GND_I*%
X107680000Y-120015000D03*
%TD*%
D18*
%TO.P,R67,1*%
%TO.N,Net-(R67-Pad1)*%
X84820000Y-52705000D03*
%TO.P,R67,2*%
%TO.N,Net-(U11A--)*%
X82820000Y-52705000D03*
%TD*%
%TO.P,Z210,1*%
%TO.N,Net-(Z202-Pad2)*%
X115300000Y-102235000D03*
%TO.P,Z210,2*%
%TO.N,GND_I*%
X113300000Y-102235000D03*
%TD*%
D17*
%TO.P,Z97,1*%
%TO.N,Net-(R58-Pad2)*%
X124730000Y-67945000D03*
%TO.P,Z97,2*%
%TO.N,Net-(Z100-Pad1)*%
X126730000Y-67945000D03*
%TD*%
%TO.P,Z224,1*%
%TO.N,Net-(U19C-+)*%
X120920000Y-114935000D03*
%TO.P,Z224,2*%
%TO.N,GND_I*%
X122920000Y-114935000D03*
%TD*%
%TO.P,R24,1*%
%TO.N,Net-(R24-Pad1)*%
X139970000Y-120015000D03*
%TO.P,R24,2*%
%TO.N,Net-(U8C--)*%
X141970000Y-120015000D03*
%TD*%
D18*
%TO.P,Z100,1*%
%TO.N,Net-(Z100-Pad1)*%
X126730000Y-70485000D03*
%TO.P,Z100,2*%
%TO.N,GND_I*%
X124730000Y-70485000D03*
%TD*%
D17*
%TO.P,Z15,1*%
%TO.N,Net-(C2-Pad2)*%
X98060000Y-98425000D03*
%TO.P,Z15,2*%
%TO.N,Net-(Z15-Pad2)*%
X100060000Y-98425000D03*
%TD*%
%TO.P,Z94,1*%
%TO.N,Net-(R53-Pad1)*%
X94250000Y-62865000D03*
%TO.P,Z94,2*%
%TO.N,Net-(Z94-Pad2)*%
X96250000Y-62865000D03*
%TD*%
D18*
%TO.P,Z212,1*%
%TO.N,Net-(J23-Pin_1)*%
X157210000Y-106045000D03*
%TO.P,Z212,2*%
%TO.N,GND_I*%
X155210000Y-106045000D03*
%TD*%
%TO.P,Z14,1*%
%TO.N,Net-(Z14-Pad1)*%
X84820000Y-73025000D03*
%TO.P,Z14,2*%
%TO.N,GND_I*%
X82820000Y-73025000D03*
%TD*%
%TO.P,Z211,1*%
%TO.N,Net-(R135-Pad1)*%
X157210000Y-97155000D03*
%TO.P,Z211,2*%
%TO.N,GND_I*%
X155210000Y-97155000D03*
%TD*%
%TO.P,R102,1*%
%TO.N,Net-(R102-Pad1)*%
X126730000Y-78105000D03*
%TO.P,R102,2*%
%TO.N,Net-(U17D--)*%
X124730000Y-78105000D03*
%TD*%
%TO.P,Z113,1*%
%TO.N,Net-(U11A-+)*%
X77200000Y-55245000D03*
%TO.P,Z113,2*%
%TO.N,GND_I*%
X75200000Y-55245000D03*
%TD*%
D17*
%TO.P,R65,1*%
%TO.N,Net-(R65-Pad1)*%
X113300000Y-62865000D03*
%TO.P,R65,2*%
%TO.N,Net-(U15C--)*%
X115300000Y-62865000D03*
%TD*%
%TO.P,Z144,1*%
%TO.N,Net-(U8A--)*%
X155130000Y-74930000D03*
%TO.P,Z144,2*%
%TO.N,GND_I*%
X157130000Y-74930000D03*
%TD*%
%TO.P,Z175,1*%
%TO.N,Net-(U17C--)*%
X155210000Y-54610000D03*
%TO.P,Z175,2*%
%TO.N,Net-(J16-Pin_1)*%
X157210000Y-54610000D03*
%TD*%
D18*
%TO.P,Z181,1*%
%TO.N,Net-(U17B-+)*%
X107680000Y-88265000D03*
%TO.P,Z181,2*%
%TO.N,GND_I*%
X105680000Y-88265000D03*
%TD*%
D17*
%TO.P,Z204,1*%
%TO.N,Net-(R135-Pad1)*%
X155210000Y-103505000D03*
%TO.P,Z204,2*%
%TO.N,Net-(J23-Pin_1)*%
X157210000Y-103505000D03*
%TD*%
D18*
%TO.P,Z41,1*%
%TO.N,Net-(J4-Pin_1)*%
X157210000Y-117475000D03*
%TO.P,Z41,2*%
%TO.N,GND_I*%
X155210000Y-117475000D03*
%TD*%
D20*
%TO.P,C9,1*%
%TO.N,Net-(C9-Pad1)*%
X92477500Y-90805000D03*
%TO.P,C9,2*%
%TO.N,Net-(U4C--)*%
X90402500Y-90805000D03*
%TD*%
%TO.P,C60,1*%
%TO.N,GND_I*%
X149627500Y-112395000D03*
%TO.P,C60,2*%
%TO.N,-15V_I*%
X147552500Y-112395000D03*
%TD*%
D18*
%TO.P,Z154,1*%
%TO.N,Net-(Z150-Pad2)*%
X126730000Y-90805000D03*
%TO.P,Z154,2*%
%TO.N,GND_I*%
X124730000Y-90805000D03*
%TD*%
%TO.P,Z146,1*%
%TO.N,Net-(J12-Pin_2)*%
X157130000Y-82550000D03*
%TO.P,Z146,2*%
%TO.N,GND_I*%
X155130000Y-82550000D03*
%TD*%
%TO.P,R104,1*%
%TO.N,Net-(R104-Pad1)*%
X126730000Y-80645000D03*
%TO.P,R104,2*%
%TO.N,Net-(U17D--)*%
X124730000Y-80645000D03*
%TD*%
%TO.P,R140,1*%
%TO.N,Net-(U19C--)*%
X115300000Y-117475000D03*
%TO.P,R140,2*%
%TO.N,Net-(R140-Pad2)*%
X113300000Y-117475000D03*
%TD*%
%TO.P,Z51,1*%
%TO.N,Net-(Z50-Pad2)*%
X84820000Y-107315000D03*
%TO.P,Z51,2*%
%TO.N,Net-(R33-Pad1)*%
X82820000Y-107315000D03*
%TD*%
D17*
%TO.P,R33,1*%
%TO.N,Net-(R33-Pad1)*%
X82820000Y-109855000D03*
%TO.P,R33,2*%
%TO.N,Net-(U9C--)*%
X84820000Y-109855000D03*
%TD*%
%TO.P,Z54,1*%
%TO.N,Net-(R30-Pad2)*%
X94250000Y-117475000D03*
%TO.P,Z54,2*%
%TO.N,Net-(Z54-Pad2)*%
X96250000Y-117475000D03*
%TD*%
D19*
%TO.P,C54,1*%
%TO.N,GND_I*%
X75162500Y-85725000D03*
%TO.P,C54,2*%
%TO.N,+15V_I*%
X77237500Y-85725000D03*
%TD*%
D17*
%TO.P,Z49,1*%
%TO.N,Net-(J7-Pin_1)*%
X75200000Y-107315000D03*
%TO.P,Z49,2*%
%TO.N,Net-(U9A-+)*%
X77200000Y-107315000D03*
%TD*%
D18*
%TO.P,Z213,1*%
%TO.N,Net-(J23-Pin_2)*%
X157210000Y-108585000D03*
%TO.P,Z213,2*%
%TO.N,GND_I*%
X155210000Y-108585000D03*
%TD*%
%TO.P,R134,1*%
%TO.N,Net-(U19C--)*%
X115300000Y-109855000D03*
%TO.P,R134,2*%
%TO.N,Net-(R134-Pad2)*%
X113300000Y-109855000D03*
%TD*%
%TO.P,Z16,1*%
%TO.N,Net-(Z10-Pad1)*%
X96250000Y-83185000D03*
%TO.P,Z16,2*%
%TO.N,GND_I*%
X94250000Y-83185000D03*
%TD*%
%TO.P,Z76,1*%
%TO.N,Net-(U9B-+)*%
X77200000Y-114935000D03*
%TO.P,Z76,2*%
%TO.N,GND_I*%
X75200000Y-114935000D03*
%TD*%
D17*
%TO.P,Z32,1*%
%TO.N,Net-(J3-Pin_1)*%
X75200000Y-93345000D03*
%TO.P,Z32,2*%
%TO.N,GND_I*%
X77200000Y-93345000D03*
%TD*%
D18*
%TO.P,Z145,1*%
%TO.N,Net-(J12-Pin_1)*%
X157130000Y-80010000D03*
%TO.P,Z145,2*%
%TO.N,GND_I*%
X155130000Y-80010000D03*
%TD*%
%TO.P,Z228,1*%
%TO.N,Net-(J27-Pin_2)*%
X157210000Y-94615000D03*
%TO.P,Z228,2*%
%TO.N,GND_I*%
X155210000Y-94615000D03*
%TD*%
%TO.P,R58,1*%
%TO.N,Net-(U15C--)*%
X115300000Y-65405000D03*
%TO.P,R58,2*%
%TO.N,Net-(R58-Pad2)*%
X113300000Y-65405000D03*
%TD*%
D19*
%TO.P,C55,1*%
%TO.N,GND_I*%
X75162500Y-112395000D03*
%TO.P,C55,2*%
%TO.N,+15V_I*%
X77237500Y-112395000D03*
%TD*%
D18*
%TO.P,Z179,1*%
%TO.N,Net-(J16-Pin_2)*%
X157210000Y-59690000D03*
%TO.P,Z179,2*%
%TO.N,GND_I*%
X155210000Y-59690000D03*
%TD*%
%TO.P,Z21,1*%
%TO.N,Net-(Z15-Pad2)*%
X100060000Y-95885000D03*
%TO.P,Z21,2*%
%TO.N,GND_I*%
X98060000Y-95885000D03*
%TD*%
D17*
%TO.P,Z109,1*%
%TO.N,Net-(J9-Pin_1)*%
X75200000Y-52705000D03*
%TO.P,Z109,2*%
%TO.N,Net-(U11A-+)*%
X77200000Y-52705000D03*
%TD*%
D18*
%TO.P,Z191,1*%
%TO.N,Net-(Z190-Pad2)*%
X115300000Y-83185000D03*
%TO.P,Z191,2*%
%TO.N,Net-(R126-Pad2)*%
X113300000Y-83185000D03*
%TD*%
D17*
%TO.P,Z95,1*%
%TO.N,Net-(Z94-Pad2)*%
X98060000Y-62865000D03*
%TO.P,Z95,2*%
%TO.N,Net-(R65-Pad1)*%
X100060000Y-62865000D03*
%TD*%
D19*
%TO.P,C1,1*%
%TO.N,Net-(U4C--)*%
X90402500Y-95885000D03*
%TO.P,C1,2*%
%TO.N,Net-(C1-Pad2)*%
X92477500Y-95885000D03*
%TD*%
D20*
%TO.P,C62,1*%
%TO.N,GND_I*%
X92477500Y-112395000D03*
%TO.P,C62,2*%
%TO.N,-15V_I*%
X90402500Y-112395000D03*
%TD*%
D17*
%TO.P,Z192,1*%
%TO.N,Net-(J20-Pin_1)*%
X105680000Y-78105000D03*
%TO.P,Z192,2*%
%TO.N,GND_I*%
X107680000Y-78105000D03*
%TD*%
D18*
%TO.P,R25,1*%
%TO.N,Net-(U8C--)*%
X149590000Y-120015000D03*
%TO.P,R25,2*%
%TO.N,Net-(R25-Pad2)*%
X147590000Y-120015000D03*
%TD*%
D21*
%TO.N,GND_I*%
X159385000Y-109855000D03*
X111760000Y-102235000D03*
X109855000Y-95885000D03*
X107680000Y-74660000D03*
X130577500Y-62865000D03*
X125730000Y-120015000D03*
X155210000Y-94615000D03*
X79375000Y-67945000D03*
X165100000Y-119380000D03*
X157130000Y-74930000D03*
X95885000Y-68580000D03*
X122957500Y-114897500D03*
X128540000Y-94345000D03*
X80010000Y-73025000D03*
X94615000Y-95250000D03*
X155210000Y-97155000D03*
X155210000Y-108585000D03*
X124730000Y-88535000D03*
X157210000Y-63500000D03*
X134620000Y-48260000D03*
X155210000Y-71120000D03*
X82820000Y-95885000D03*
X155210000Y-59690000D03*
X101600000Y-54610000D03*
X94250000Y-83185000D03*
X123825000Y-70485000D03*
X77200000Y-50165000D03*
X124460000Y-57785000D03*
X102870000Y-120015000D03*
X82820000Y-102235000D03*
X81280000Y-73025000D03*
X155210000Y-117475000D03*
X94615000Y-96520000D03*
X166370000Y-119380000D03*
X73025000Y-122555000D03*
X130577500Y-52705000D03*
X157210000Y-52070000D03*
X155130000Y-82550000D03*
X167640000Y-119380000D03*
X92440000Y-129540000D03*
%TO.N,Net-(R58-Pad2)*%
X124730000Y-67945000D03*
%TO.N,Net-(R93-Pad2)*%
X121285000Y-47625000D03*
%TO.N,Net-(R101-Pad1)*%
X106045000Y-72390000D03*
%TO.N,Net-(R102-Pad1)*%
X133350000Y-73660000D03*
X132080000Y-78105000D03*
%TO.N,Net-(U19C--)*%
X115300000Y-109855000D03*
X115300000Y-85725000D03*
%TO.N,Net-(R135-Pad1)*%
X147955000Y-105410000D03*
%TO.N,Net-(U4C-+)*%
X96520000Y-88265000D03*
%TO.N,Net-(U17C--)*%
X149225000Y-54610000D03*
%TO.N,Net-(U19D--)*%
X151765000Y-66040000D03*
%TD*%
D22*
%TO.N,Net-(C1-Pad2)*%
X92477500Y-95885000D02*
X92477500Y-93382500D01*
X92477500Y-98425000D02*
X92477500Y-95885000D01*
X92440000Y-98462500D02*
X92477500Y-98425000D01*
X92477500Y-93382500D02*
X92440000Y-93345000D01*
X92477500Y-98425000D02*
X94250000Y-98425000D01*
%TO.N,Net-(C2-Pad2)*%
X88900000Y-98425000D02*
X87630000Y-97155000D01*
X90440000Y-98462500D02*
X90402500Y-98425000D01*
X96250000Y-98425000D02*
X96250000Y-99965000D01*
X90402500Y-99927500D02*
X90402500Y-98425000D01*
X91440000Y-100965000D02*
X90402500Y-99927500D01*
X95250000Y-100965000D02*
X91440000Y-100965000D01*
X96250000Y-99965000D02*
X95250000Y-100965000D01*
X87630000Y-97155000D02*
X87630000Y-93345000D01*
X90402500Y-98425000D02*
X88900000Y-98425000D01*
X98060000Y-98425000D02*
X96250000Y-98425000D01*
D23*
%TO.N,GND_I*%
X105680000Y-114935000D02*
X105680000Y-112432500D01*
X107680000Y-120015000D02*
X107680000Y-121555000D01*
X73025000Y-122555000D02*
X76200000Y-122555000D01*
D22*
X105680000Y-112357500D02*
X105642500Y-112395000D01*
D23*
X77200000Y-74565000D02*
X77200000Y-78105000D01*
X109855000Y-95885000D02*
X108585000Y-95885000D01*
X128540000Y-110855000D02*
X128540000Y-107315000D01*
X155130000Y-80010000D02*
X155130000Y-82550000D01*
X133350000Y-41910000D02*
X125730000Y-41910000D01*
D22*
X130540000Y-52667500D02*
X130577500Y-52705000D01*
X75162500Y-55282500D02*
X75200000Y-55245000D01*
X130540000Y-62902500D02*
X130577500Y-62865000D01*
D23*
X134620000Y-43180000D02*
X133350000Y-41910000D01*
X125730000Y-41910000D02*
X124730000Y-42910000D01*
X92477500Y-110892500D02*
X91440000Y-109855000D01*
X93980000Y-85725000D02*
X92477500Y-85725000D01*
X75200000Y-114935000D02*
X72390000Y-114935000D01*
X102870000Y-83185000D02*
X105680000Y-83185000D01*
X75162500Y-57785000D02*
X72390000Y-57785000D01*
X107680000Y-103775000D02*
X109220000Y-102235000D01*
X122920000Y-122555000D02*
X124460000Y-122555000D01*
D22*
X75162500Y-57785000D02*
X75162500Y-55282500D01*
X149590000Y-112432500D02*
X149627500Y-112395000D01*
X122957500Y-114897500D02*
X122920000Y-114935000D01*
D23*
X77200000Y-103140000D02*
X77200000Y-104775000D01*
X92440000Y-60325000D02*
X92440000Y-57822500D01*
X92440000Y-122555000D02*
X92440000Y-129540000D01*
X77200000Y-93345000D02*
X77200000Y-94980000D01*
X102870000Y-88265000D02*
X105680000Y-88265000D01*
X134620000Y-48260000D02*
X134620000Y-43180000D01*
X78105000Y-95885000D02*
X82820000Y-95885000D01*
D22*
X75200000Y-85762500D02*
X75162500Y-85725000D01*
D23*
X113300000Y-75835000D02*
X113300000Y-78105000D01*
D22*
X75200000Y-57822500D02*
X75162500Y-57785000D01*
D23*
X124730000Y-90805000D02*
X124730000Y-88535000D01*
X75200000Y-88265000D02*
X75200000Y-85762500D01*
D22*
X105680000Y-112432500D02*
X105642500Y-112395000D01*
D23*
X122920000Y-83185000D02*
X122920000Y-85687500D01*
X78105000Y-102235000D02*
X77200000Y-103140000D01*
X94250000Y-83185000D02*
X92440000Y-83185000D01*
X92477500Y-57785000D02*
X92477500Y-56282500D01*
X95885000Y-68580000D02*
X94250000Y-66945000D01*
D22*
X75200000Y-85687500D02*
X75162500Y-85725000D01*
D23*
X109220000Y-102235000D02*
X111760000Y-102235000D01*
X122957500Y-86762500D02*
X122957500Y-85725000D01*
X130540000Y-65405000D02*
X130540000Y-62902500D01*
X155210000Y-106045000D02*
X155210000Y-108585000D01*
D22*
X105642500Y-83222500D02*
X105680000Y-83185000D01*
D23*
X107680000Y-121555000D02*
X106680000Y-122555000D01*
X159385000Y-111760000D02*
X158750000Y-112395000D01*
X124460000Y-122555000D02*
X125730000Y-121285000D01*
X78105000Y-67945000D02*
X79375000Y-67945000D01*
X82820000Y-102235000D02*
X78105000Y-102235000D01*
X91440000Y-109855000D02*
X87630000Y-109855000D01*
X112125000Y-74660000D02*
X107680000Y-74660000D01*
X93710000Y-122555000D02*
X92440000Y-122555000D01*
X112125000Y-74660000D02*
X113300000Y-75835000D01*
X92477500Y-112395000D02*
X92477500Y-110892500D01*
X107680000Y-104775000D02*
X107680000Y-103775000D01*
X122957500Y-57785000D02*
X124460000Y-57785000D01*
X148590000Y-109855000D02*
X149627500Y-110892500D01*
X101600000Y-55880000D02*
X103505000Y-57785000D01*
D22*
X92477500Y-83222500D02*
X92440000Y-83185000D01*
D23*
X77200000Y-65405000D02*
X77200000Y-67040000D01*
X128540000Y-94345000D02*
X128540000Y-107315000D01*
X94250000Y-122015000D02*
X93710000Y-122555000D01*
X75200000Y-83185000D02*
X72390000Y-83185000D01*
X77200000Y-94980000D02*
X78105000Y-95885000D01*
X77200000Y-121555000D02*
X77200000Y-120015000D01*
X155210000Y-120015000D02*
X155210000Y-117475000D01*
X104140000Y-122555000D02*
X102870000Y-121285000D01*
X124730000Y-88535000D02*
X122957500Y-86762500D01*
X130080000Y-112395000D02*
X128540000Y-110855000D01*
X159385000Y-109855000D02*
X159385000Y-111760000D01*
X103505000Y-57785000D02*
X105642500Y-57785000D01*
X75200000Y-114935000D02*
X75200000Y-112432500D01*
X158750000Y-112395000D02*
X157210000Y-112395000D01*
X149627500Y-110892500D02*
X149627500Y-112395000D01*
X91440000Y-55245000D02*
X87630000Y-55245000D01*
X132312500Y-112395000D02*
X130080000Y-112395000D01*
X76200000Y-122555000D02*
X77200000Y-121555000D01*
X130540000Y-50165000D02*
X130540000Y-52667500D01*
X75200000Y-60325000D02*
X75200000Y-57822500D01*
X75200000Y-88265000D02*
X72390000Y-88265000D01*
X106680000Y-122555000D02*
X104140000Y-122555000D01*
X94250000Y-120015000D02*
X94250000Y-122015000D01*
X92477500Y-56282500D02*
X91440000Y-55245000D01*
X81280000Y-73025000D02*
X78740000Y-73025000D01*
X124730000Y-70485000D02*
X123825000Y-70485000D01*
X82820000Y-73025000D02*
X81280000Y-73025000D01*
D22*
X92440000Y-112432500D02*
X92477500Y-112395000D01*
D23*
X124730000Y-42910000D02*
X124730000Y-45085000D01*
D22*
X105642500Y-88227500D02*
X105680000Y-88265000D01*
D23*
X108585000Y-95885000D02*
X107680000Y-94980000D01*
X107680000Y-78105000D02*
X107680000Y-74660000D01*
X155210000Y-57150000D02*
X155210000Y-59690000D01*
D22*
X94250000Y-65405000D02*
X94250000Y-65770000D01*
X92440000Y-57822500D02*
X92477500Y-57785000D01*
X122920000Y-85687500D02*
X122957500Y-85725000D01*
X75200000Y-112432500D02*
X75162500Y-112395000D01*
D23*
X77200000Y-67040000D02*
X78105000Y-67945000D01*
D22*
X75200000Y-57747500D02*
X75162500Y-57785000D01*
D23*
X102870000Y-109855000D02*
X105680000Y-109855000D01*
X122957500Y-112395000D02*
X122957500Y-114897500D01*
X94250000Y-66945000D02*
X94250000Y-65405000D01*
X94250000Y-85455000D02*
X93980000Y-85725000D01*
X92440000Y-114935000D02*
X92440000Y-112432500D01*
X107680000Y-94980000D02*
X107680000Y-93345000D01*
X149590000Y-114935000D02*
X149590000Y-112432500D01*
X155210000Y-68580000D02*
X155210000Y-71120000D01*
X105680000Y-114935000D02*
X102870000Y-114935000D01*
X144780000Y-109855000D02*
X148590000Y-109855000D01*
X78740000Y-73025000D02*
X77200000Y-74565000D01*
X101600000Y-54610000D02*
X101600000Y-55880000D01*
X105642500Y-85725000D02*
X105642500Y-88227500D01*
D22*
X75200000Y-112357500D02*
X75162500Y-112395000D01*
D23*
X75200000Y-109855000D02*
X72390000Y-109855000D01*
X113300000Y-102235000D02*
X111760000Y-102235000D01*
X125730000Y-121285000D02*
X125730000Y-120015000D01*
D22*
X144780000Y-109855000D02*
X144510000Y-109855000D01*
D23*
X94250000Y-83185000D02*
X94250000Y-85455000D01*
X102870000Y-121285000D02*
X102870000Y-120015000D01*
D22*
%TO.N,Net-(U4A-+)*%
X77200000Y-83185000D02*
X77200000Y-80645000D01*
X80010000Y-83185000D02*
X77200000Y-83185000D01*
D23*
%TO.N,+15V_I*%
X134387500Y-112395000D02*
X137160000Y-112395000D01*
X77237500Y-57785000D02*
X80010000Y-57785000D01*
X107717500Y-85725000D02*
X110490000Y-85725000D01*
X107717500Y-57785000D02*
X110490000Y-57785000D01*
X107717500Y-112395000D02*
X110490000Y-112395000D01*
X77237500Y-85725000D02*
X80010000Y-85725000D01*
X77237500Y-112395000D02*
X80010000Y-112395000D01*
%TO.N,-15V_I*%
X147552500Y-112395000D02*
X144780000Y-112395000D01*
X90402500Y-57785000D02*
X87630000Y-57785000D01*
D22*
X118105000Y-57780000D02*
X118110000Y-57785000D01*
D23*
X90402500Y-85725000D02*
X87630000Y-85725000D01*
X120882500Y-57785000D02*
X118110000Y-57785000D01*
X120882500Y-112395000D02*
X118110000Y-112395000D01*
X120882500Y-85725000D02*
X118110000Y-85725000D01*
X90402500Y-112395000D02*
X87630000Y-112395000D01*
D22*
%TO.N,Net-(C9-Pad1)*%
X94250000Y-93345000D02*
X94250000Y-91710000D01*
X93345000Y-90805000D02*
X92477500Y-90805000D01*
X94250000Y-91710000D02*
X93345000Y-90805000D01*
%TO.N,Net-(U15C-+)*%
X128502500Y-62865000D02*
X125730000Y-62865000D01*
%TO.N,Net-(U15B--)*%
X109220000Y-67945000D02*
X110490000Y-66675000D01*
X109220000Y-70485000D02*
X109220000Y-67945000D01*
X110490000Y-66675000D02*
X110490000Y-65405000D01*
%TO.N,Net-(C37-Pad1)*%
X111295000Y-70485000D02*
X113300000Y-70485000D01*
%TO.N,Net-(U15D-+)*%
X128502500Y-52705000D02*
X125730000Y-52705000D01*
%TO.N,Net-(U15A--)*%
X110490000Y-48895000D02*
X109220000Y-47625000D01*
X110490000Y-50165000D02*
X110490000Y-48895000D01*
X109220000Y-47625000D02*
X109220000Y-45085000D01*
%TO.N,Net-(J2-Pin_1)*%
X75200000Y-80645000D02*
X72390000Y-80645000D01*
X75200000Y-80645000D02*
X75200000Y-78105000D01*
%TO.N,Net-(J3-Pin_1)*%
X75200000Y-93345000D02*
X75200000Y-90805000D01*
X75200000Y-90805000D02*
X72390000Y-90805000D01*
%TO.N,Net-(J4-Pin_1)*%
X160020000Y-114935000D02*
X157210000Y-114935000D01*
X157210000Y-117475000D02*
X157210000Y-114935000D01*
%TO.N,Net-(C49-Pad1)*%
X111295000Y-45085000D02*
X113300000Y-45085000D01*
%TO.N,Net-(J4-Pin_2)*%
X158750000Y-120015000D02*
X160020000Y-118745000D01*
X160020000Y-118745000D02*
X160020000Y-117475000D01*
X157210000Y-120015000D02*
X158750000Y-120015000D01*
%TO.N,Net-(J7-Pin_1)*%
X75200000Y-107315000D02*
X72390000Y-107315000D01*
X75200000Y-107315000D02*
X75200000Y-104775000D01*
%TO.N,Net-(J8-Pin_1)*%
X75200000Y-117475000D02*
X72390000Y-117475000D01*
X75200000Y-120015000D02*
X75200000Y-117475000D01*
%TO.N,Net-(J9-Pin_1)*%
X72390000Y-54991000D02*
X72390000Y-53340000D01*
X75200000Y-52705000D02*
X75200000Y-50165000D01*
X73025000Y-52705000D02*
X75200000Y-52705000D01*
X72390000Y-53340000D02*
X73025000Y-52705000D01*
%TO.N,Net-(J9-Pin_3)*%
X75200000Y-65405000D02*
X75200000Y-62865000D01*
X73025000Y-62865000D02*
X72390000Y-62230000D01*
X75200000Y-62865000D02*
X73025000Y-62865000D01*
X72390000Y-62230000D02*
X72390000Y-60071000D01*
%TO.N,Net-(J12-Pin_1)*%
X160020000Y-77470000D02*
X157130000Y-77470000D01*
X157130000Y-80010000D02*
X157130000Y-77470000D01*
%TO.N,Net-(J12-Pin_2)*%
X158670000Y-82550000D02*
X160020000Y-81200000D01*
X160020000Y-81200000D02*
X160020000Y-80010000D01*
X157130000Y-82550000D02*
X158670000Y-82550000D01*
%TO.N,Net-(J16-Pin_2)*%
X160020000Y-58420000D02*
X160020000Y-57150000D01*
X157210000Y-59690000D02*
X158750000Y-59690000D01*
X158750000Y-59690000D02*
X160020000Y-58420000D01*
%TO.N,Net-(J16-Pin_1)*%
X157210000Y-57150000D02*
X157210000Y-54610000D01*
X160020000Y-54610000D02*
X157210000Y-54610000D01*
%TO.N,Net-(J14-Pin_2)*%
X160020000Y-69850000D02*
X160020000Y-68580000D01*
X157210000Y-71120000D02*
X158750000Y-71120000D01*
X158750000Y-71120000D02*
X160020000Y-69850000D01*
%TO.N,Net-(J17-Pin_1)*%
X105680000Y-93345000D02*
X105680000Y-90805000D01*
X102870000Y-90805000D02*
X105680000Y-90805000D01*
%TO.N,Net-(J14-Pin_1)*%
X157210000Y-68580000D02*
X157210000Y-66040000D01*
X160020000Y-66040000D02*
X157210000Y-66040000D01*
%TO.N,Net-(J22-Pin_1)*%
X105680000Y-104775000D02*
X105680000Y-107315000D01*
X102870000Y-107315000D02*
X105680000Y-107315000D01*
%TO.N,Net-(J23-Pin_1)*%
X157210000Y-106045000D02*
X157210000Y-103505000D01*
X162560000Y-102235000D02*
X162560000Y-93345000D01*
X161290000Y-92075000D02*
X160020000Y-92075000D01*
X161290000Y-103505000D02*
X162560000Y-102235000D01*
X160020000Y-103505000D02*
X161290000Y-103505000D01*
X157210000Y-103505000D02*
X160020000Y-103505000D01*
X162560000Y-93345000D02*
X161290000Y-92075000D01*
%TO.N,Net-(J20-Pin_1)*%
X105680000Y-78105000D02*
X105680000Y-80645000D01*
X102870000Y-80645000D02*
X105680000Y-80645000D01*
%TO.N,Net-(J23-Pin_2)*%
X157210000Y-108585000D02*
X159385000Y-108585000D01*
X159385000Y-108585000D02*
X160020000Y-107950000D01*
X160020000Y-107950000D02*
X160020000Y-106045000D01*
%TO.N,Net-(J27-Pin_2)*%
X157210000Y-94615000D02*
X160020000Y-94615000D01*
%TO.N,Net-(J28-Pin_1)*%
X105680000Y-120015000D02*
X105680000Y-117475000D01*
X102870000Y-117475000D02*
X105680000Y-117475000D01*
%TO.N,Net-(U4A--)*%
X81280000Y-75565000D02*
X82820000Y-75565000D01*
X80010000Y-78105000D02*
X80010000Y-76835000D01*
X80010000Y-78105000D02*
X80010000Y-80645000D01*
X80010000Y-76835000D02*
X81280000Y-75565000D01*
%TO.N,Net-(R7-Pad2)*%
X91440000Y-78105000D02*
X87630000Y-78105000D01*
X92440000Y-80645000D02*
X92440000Y-79105000D01*
X94250000Y-80645000D02*
X92440000Y-80645000D01*
X92440000Y-79105000D02*
X91440000Y-78105000D01*
%TO.N,Net-(R9-Pad1)*%
X82820000Y-80645000D02*
X82820000Y-78105000D01*
%TO.N,Net-(U8C--)*%
X148590000Y-117475000D02*
X144780000Y-117475000D01*
X149590000Y-120015000D02*
X149590000Y-118475000D01*
X149590000Y-118475000D02*
X148590000Y-117475000D01*
X142240000Y-120015000D02*
X144780000Y-117475000D01*
X141970000Y-120015000D02*
X142240000Y-120015000D01*
%TO.N,Net-(R24-Pad1)*%
X133350000Y-120015000D02*
X137160000Y-120015000D01*
X137160000Y-120015000D02*
X139970000Y-120015000D01*
%TO.N,Net-(R25-Pad2)*%
X144780000Y-120015000D02*
X147590000Y-120015000D01*
X151130000Y-122555000D02*
X152400000Y-121285000D01*
X147590000Y-121555000D02*
X148590000Y-122555000D01*
X152400000Y-116205000D02*
X153670000Y-114935000D01*
X155210000Y-114935000D02*
X155210000Y-112395000D01*
X147590000Y-120015000D02*
X147590000Y-121555000D01*
X153670000Y-114935000D02*
X155210000Y-114935000D01*
X148590000Y-122555000D02*
X151130000Y-122555000D01*
X152400000Y-121285000D02*
X152400000Y-116205000D01*
%TO.N,Net-(U9C--)*%
X84820000Y-117475000D02*
X84820000Y-109855000D01*
X84820000Y-117475000D02*
X87630000Y-117475000D01*
X90440000Y-117475000D02*
X87630000Y-117475000D01*
%TO.N,Net-(U8C-+)*%
X142240000Y-117475000D02*
X144780000Y-114935000D01*
X144780000Y-114935000D02*
X147590000Y-114935000D01*
X141970000Y-117475000D02*
X142240000Y-117475000D01*
%TO.N,Net-(U8B--)*%
X133350000Y-114935000D02*
X133350000Y-117475000D01*
X133350000Y-117475000D02*
X137160000Y-117475000D01*
X137160000Y-117475000D02*
X139970000Y-117475000D01*
%TO.N,Net-(R33-Pad1)*%
X82820000Y-109855000D02*
X82820000Y-107315000D01*
%TO.N,Net-(R45-Pad1)*%
X82820000Y-120015000D02*
X82820000Y-117475000D01*
%TO.N,Net-(R52-Pad1)*%
X82820000Y-65405000D02*
X82820000Y-65135000D01*
X82820000Y-65135000D02*
X84820000Y-63135000D01*
X84820000Y-63135000D02*
X84820000Y-62865000D01*
X80010000Y-65405000D02*
X82820000Y-65405000D01*
%TO.N,Net-(U11C--)*%
X90440000Y-62865000D02*
X87630000Y-62865000D01*
X84820000Y-65405000D02*
X85090000Y-65405000D01*
X85090000Y-65405000D02*
X87630000Y-62865000D01*
%TO.N,Net-(R53-Pad1)*%
X92440000Y-64405000D02*
X91440000Y-65405000D01*
X91440000Y-65405000D02*
X87630000Y-65405000D01*
X94250000Y-62865000D02*
X92440000Y-62865000D01*
X92440000Y-62865000D02*
X92440000Y-64405000D01*
%TO.N,Net-(U11B--)*%
X80010000Y-62865000D02*
X82820000Y-62865000D01*
%TO.N,Net-(U15C--)*%
X115300000Y-65405000D02*
X115300000Y-62865000D01*
X115300000Y-62865000D02*
X118110000Y-62865000D01*
%TO.N,Net-(U4C--)*%
X90402500Y-93382500D02*
X90440000Y-93345000D01*
X90440000Y-90842500D02*
X90402500Y-90805000D01*
X87630000Y-90805000D02*
X90402500Y-90805000D01*
X90402500Y-95885000D02*
X90402500Y-93382500D01*
X90440000Y-93345000D02*
X90440000Y-90842500D01*
%TO.N,Net-(R16-Pad1)*%
X82820000Y-90805000D02*
X82820000Y-88265000D01*
%TO.N,Net-(R58-Pad2)*%
X117475000Y-67310000D02*
X114300000Y-67310000D01*
X118110000Y-66675000D02*
X117475000Y-67310000D01*
X118110000Y-65405000D02*
X118110000Y-66675000D01*
X113300000Y-66310000D02*
X113300000Y-65405000D01*
X114300000Y-67310000D02*
X113300000Y-66310000D01*
%TO.N,Net-(R65-Pad1)*%
X101600000Y-60325000D02*
X106680000Y-60325000D01*
X100060000Y-61865000D02*
X101600000Y-60325000D01*
D24*
X109414000Y-61595000D02*
X113300000Y-61595000D01*
D22*
X100060000Y-62865000D02*
X100060000Y-61865000D01*
D25*
X113300000Y-61595000D02*
X113300000Y-62865000D01*
X106680000Y-60325000D02*
X108144000Y-60325000D01*
D24*
X108144000Y-60325000D02*
X109414000Y-61595000D01*
D22*
%TO.N,Net-(U11A--)*%
X80010000Y-52705000D02*
X82820000Y-52705000D01*
%TO.N,Net-(R67-Pad1)*%
X84820000Y-51165000D02*
X83820000Y-50165000D01*
X84820000Y-52705000D02*
X84820000Y-51165000D01*
X83820000Y-50165000D02*
X80010000Y-50165000D01*
X84820000Y-55245000D02*
X84820000Y-52705000D01*
%TO.N,Net-(U11C-+)*%
X82820000Y-55245000D02*
X82820000Y-58055000D01*
X82820000Y-58055000D02*
X85090000Y-60325000D01*
X90440000Y-60325000D02*
X87630000Y-60325000D01*
X85090000Y-60325000D02*
X87630000Y-60325000D01*
%TO.N,Net-(R76-Pad2)*%
X115300000Y-70485000D02*
X120015000Y-70485000D01*
X121920000Y-68580000D02*
X121920000Y-65405000D01*
X120015000Y-70485000D02*
X121920000Y-68580000D01*
%TO.N,Net-(R77-Pad2)*%
X128540000Y-65405000D02*
X125730000Y-65405000D01*
%TO.N,Net-(U15D--)*%
X115300000Y-52705000D02*
X118110000Y-52705000D01*
X115300000Y-52705000D02*
X115300000Y-50165000D01*
%TO.N,Net-(R93-Pad2)*%
X118110000Y-48895000D02*
X118110000Y-50165000D01*
X114300000Y-48260000D02*
X117475000Y-48260000D01*
X113300000Y-50165000D02*
X113300000Y-49260000D01*
X113300000Y-49260000D02*
X114300000Y-48260000D01*
X124730000Y-47625000D02*
X121285000Y-47625000D01*
X117475000Y-48260000D02*
X118110000Y-48895000D01*
%TO.N,Net-(R101-Pad1)*%
X128270000Y-72390000D02*
X130540000Y-70120000D01*
D24*
X109414000Y-53975000D02*
X113300000Y-53975000D01*
D22*
X106045000Y-72390000D02*
X128270000Y-72390000D01*
X130540000Y-70120000D02*
X130540000Y-67945000D01*
D25*
X106680000Y-55245000D02*
X108144000Y-55245000D01*
X113300000Y-53975000D02*
X113300000Y-52705000D01*
D24*
X108144000Y-55245000D02*
X109414000Y-53975000D01*
D22*
%TO.N,Net-(R30-Pad2)*%
X92440000Y-118761000D02*
X92440000Y-117475000D01*
X94250000Y-117475000D02*
X92440000Y-117475000D01*
X91186000Y-120015000D02*
X92440000Y-118761000D01*
X87630000Y-120015000D02*
X91186000Y-120015000D01*
%TO.N,Net-(U17D--)*%
X122920000Y-78105000D02*
X124730000Y-78105000D01*
X118110000Y-80645000D02*
X121920000Y-80645000D01*
X121920000Y-80645000D02*
X122920000Y-79645000D01*
X122920000Y-79645000D02*
X122920000Y-78105000D01*
X124730000Y-80645000D02*
X124730000Y-78105000D01*
%TO.N,Net-(R102-Pad1)*%
X132080000Y-78105000D02*
X126730000Y-78105000D01*
X133350000Y-73660000D02*
X133350000Y-49530000D01*
X133350000Y-49530000D02*
X131445000Y-47625000D01*
X131445000Y-47625000D02*
X130540000Y-47625000D01*
%TO.N,Net-(SW2-C)*%
X94250000Y-114935000D02*
X94250000Y-113395000D01*
X95250000Y-112395000D02*
X95250000Y-109855000D01*
X94250000Y-113395000D02*
X95250000Y-112395000D01*
%TO.N,Net-(SW2-A)*%
X97155000Y-104775000D02*
X95250000Y-104775000D01*
X98060000Y-103870000D02*
X97155000Y-104775000D01*
X98060000Y-100965000D02*
X98060000Y-103870000D01*
%TO.N,Net-(R103-Pad2)*%
X132715000Y-74930000D02*
X120015000Y-74930000D01*
X120015000Y-74930000D02*
X118110000Y-76835000D01*
X118110000Y-76835000D02*
X118110000Y-78105000D01*
X118110000Y-78105000D02*
X120920000Y-78105000D01*
X134350000Y-107315000D02*
X134350000Y-76565000D01*
X134350000Y-76565000D02*
X132715000Y-74930000D01*
%TO.N,Net-(R104-Pad1)*%
X126730000Y-83185000D02*
X126730000Y-80645000D01*
D26*
%TO.N,Net-(R105-Pad2)*%
X120650000Y-50165000D02*
X121920000Y-50165000D01*
D22*
X115300000Y-45085000D02*
X118110000Y-45085000D01*
X119380000Y-46355000D02*
X119380000Y-48895000D01*
X118110000Y-45085000D02*
X119380000Y-46355000D01*
X119380000Y-48895000D02*
X120650000Y-50165000D01*
%TO.N,Net-(R106-Pad2)*%
X128540000Y-50165000D02*
X125730000Y-50165000D01*
%TO.N,Net-(U19C--)*%
X122920000Y-118475000D02*
X122920000Y-120015000D01*
X115300000Y-117475000D02*
X118110000Y-117475000D01*
X118110000Y-117475000D02*
X121920000Y-117475000D01*
X121920000Y-117475000D02*
X122920000Y-118475000D01*
%TO.N,Net-(R126-Pad2)*%
X113300000Y-85725000D02*
X113300000Y-83185000D01*
%TO.N,Net-(R134-Pad2)*%
X113300000Y-107315000D02*
X113300000Y-109855000D01*
%TO.N,Net-(R135-Pad1)*%
X157210000Y-99965000D02*
X157210000Y-97155000D01*
X149860000Y-103505000D02*
X155210000Y-103505000D01*
X155210000Y-103505000D02*
X155210000Y-101965000D01*
X155210000Y-101965000D02*
X157210000Y-99965000D01*
X118110000Y-120015000D02*
X120920000Y-120015000D01*
X147955000Y-105410000D02*
X149860000Y-103505000D01*
%TO.N,Net-(R140-Pad2)*%
X113300000Y-117475000D02*
X113030000Y-117475000D01*
X113300000Y-117475000D02*
X113300000Y-120015000D01*
%TO.N,Net-(U4D-+)*%
X87630000Y-83185000D02*
X90440000Y-83185000D01*
%TO.N,Net-(U4B--)*%
X82820000Y-93345000D02*
X80010000Y-93345000D01*
X80010000Y-93345000D02*
X80010000Y-90805000D01*
%TO.N,Net-(U4B-+)*%
X77200000Y-90805000D02*
X77200000Y-88265000D01*
X77200000Y-88265000D02*
X80010000Y-88265000D01*
%TO.N,Net-(U4D--)*%
X87630000Y-80645000D02*
X90440000Y-80645000D01*
X84820000Y-88265000D02*
X84820000Y-80645000D01*
X84820000Y-80645000D02*
X87630000Y-80645000D01*
%TO.N,Net-(U4C-+)*%
X96520000Y-88265000D02*
X98425000Y-88265000D01*
X100060000Y-86630000D02*
X100060000Y-83185000D01*
X98425000Y-88265000D02*
X100060000Y-86630000D01*
%TO.N,Net-(U8A--)*%
X137160000Y-76835000D02*
X137160000Y-104775000D01*
X155130000Y-74930000D02*
X139065000Y-74930000D01*
X139065000Y-74930000D02*
X137160000Y-76835000D01*
X155130000Y-77470000D02*
X155130000Y-74930000D01*
X137160000Y-107315000D02*
X137160000Y-104775000D01*
%TO.N,Net-(U8D--)*%
X144780000Y-107315000D02*
X144510000Y-107315000D01*
X144780000Y-107315000D02*
X144780000Y-104775000D01*
%TO.N,Net-(U17C-+)*%
X134350000Y-109855000D02*
X137160000Y-109855000D01*
%TO.N,Net-(U9C-+)*%
X90440000Y-114935000D02*
X87630000Y-114935000D01*
%TO.N,Net-(U9B--)*%
X80645000Y-122555000D02*
X82820000Y-122555000D01*
X80010000Y-121920000D02*
X80645000Y-122555000D01*
X80010000Y-120015000D02*
X80010000Y-117475000D01*
X80010000Y-120015000D02*
X80010000Y-121920000D01*
%TO.N,Net-(U9A-+)*%
X77200000Y-109855000D02*
X77200000Y-107315000D01*
X80010000Y-109855000D02*
X77200000Y-109855000D01*
%TO.N,Net-(U9D--)*%
X87630000Y-107315000D02*
X87630000Y-104775000D01*
%TO.N,Net-(U9A--)*%
X80010000Y-104775000D02*
X82820000Y-104775000D01*
X80010000Y-104775000D02*
X80010000Y-107315000D01*
%TO.N,Net-(U9B-+)*%
X77200000Y-114935000D02*
X80010000Y-114935000D01*
X77200000Y-117475000D02*
X77200000Y-114935000D01*
%TO.N,Net-(U11D--)*%
X87630000Y-52705000D02*
X87630000Y-50165000D01*
%TO.N,Net-(U11A-+)*%
X77200000Y-55245000D02*
X77200000Y-52705000D01*
X77200000Y-55245000D02*
X80010000Y-55245000D01*
%TO.N,Net-(U11B-+)*%
X77200000Y-62865000D02*
X77200000Y-60325000D01*
X77200000Y-60325000D02*
X80010000Y-60325000D01*
%TO.N,Net-(U17C--)*%
X155210000Y-54610000D02*
X149225000Y-54610000D01*
X155210000Y-54610000D02*
X155210000Y-52070000D01*
X118110000Y-93345000D02*
X118110000Y-90805000D01*
%TO.N,Net-(U17A--)*%
X110490000Y-78105000D02*
X110490000Y-80645000D01*
X110490000Y-80645000D02*
X113300000Y-80645000D01*
%TO.N,Net-(U17A-+)*%
X110490000Y-83185000D02*
X107680000Y-83185000D01*
X107680000Y-80645000D02*
X107680000Y-83185000D01*
%TO.N,Net-(U17B--)*%
X110490000Y-93345000D02*
X110490000Y-90805000D01*
X110490000Y-94615000D02*
X111760000Y-95885000D01*
X111760000Y-95885000D02*
X123190000Y-95885000D01*
X123190000Y-95885000D02*
X124730000Y-94345000D01*
X124730000Y-94345000D02*
X124730000Y-93345000D01*
X110490000Y-93345000D02*
X110490000Y-94615000D01*
%TO.N,Net-(U17D-+)*%
X118110000Y-83185000D02*
X120920000Y-83185000D01*
%TO.N,Net-(U17B-+)*%
X107680000Y-90805000D02*
X107680000Y-88265000D01*
X110490000Y-88265000D02*
X107680000Y-88265000D01*
%TO.N,Net-(U19D--)*%
X155210000Y-66040000D02*
X155210000Y-63500000D01*
X118110000Y-107315000D02*
X118110000Y-104775000D01*
X155210000Y-66040000D02*
X151765000Y-66040000D01*
%TO.N,Net-(U19A--)*%
X110490000Y-104775000D02*
X110490000Y-107315000D01*
X110490000Y-104775000D02*
X113300000Y-104775000D01*
%TO.N,Net-(U19B--)*%
X110490000Y-117475000D02*
X110490000Y-120015000D01*
X111125000Y-122555000D02*
X110490000Y-121920000D01*
X113300000Y-122555000D02*
X111125000Y-122555000D01*
X110490000Y-121920000D02*
X110490000Y-120015000D01*
%TO.N,Net-(U19C-+)*%
X118110000Y-114935000D02*
X120920000Y-114935000D01*
%TO.N,Net-(U19A-+)*%
X107680000Y-109855000D02*
X107680000Y-107315000D01*
X110490000Y-109855000D02*
X107680000Y-109855000D01*
%TO.N,Net-(U19B-+)*%
X110490000Y-114935000D02*
X107680000Y-114935000D01*
X107680000Y-117475000D02*
X107680000Y-114935000D01*
%TO.N,Net-(Z14-Pad1)*%
X84820000Y-75565000D02*
X84820000Y-73025000D01*
X84820000Y-78105000D02*
X84820000Y-75565000D01*
%TO.N,Net-(Z10-Pad1)*%
X98060000Y-83185000D02*
X96250000Y-83185000D01*
X96250000Y-83185000D02*
X96250000Y-80645000D01*
%TO.N,Net-(Z15-Pad2)*%
X100060000Y-100965000D02*
X100060000Y-98425000D01*
X100060000Y-98425000D02*
X100060000Y-95885000D01*
%TO.N,Net-(Z26-Pad2)*%
X84820000Y-93345000D02*
X84820000Y-90805000D01*
X84820000Y-95885000D02*
X84820000Y-93345000D01*
%TO.N,Net-(Z50-Pad2)*%
X84820000Y-107315000D02*
X84820000Y-104775000D01*
X84820000Y-104775000D02*
X84820000Y-102235000D01*
%TO.N,Net-(Z54-Pad2)*%
X96250000Y-117475000D02*
X96250000Y-114935000D01*
X96250000Y-120015000D02*
X96250000Y-117475000D01*
%TO.N,Net-(Z72-Pad2)*%
X90440000Y-122555000D02*
X84820000Y-122555000D01*
X84820000Y-122555000D02*
X84820000Y-120015000D01*
%TO.N,Net-(Z94-Pad2)*%
X96250000Y-65405000D02*
X96250000Y-62865000D01*
X98060000Y-62865000D02*
X96250000Y-62865000D01*
%TO.N,Net-(Z100-Pad1)*%
X128540000Y-67945000D02*
X126730000Y-67945000D01*
X126730000Y-70485000D02*
X126730000Y-67945000D01*
%TO.N,Net-(Z134-Pad2)*%
X126730000Y-47625000D02*
X126730000Y-45085000D01*
X128540000Y-47625000D02*
X126730000Y-47625000D01*
%TO.N,Net-(Z136-Pad2)*%
X132350000Y-107315000D02*
X130540000Y-107315000D01*
X132350000Y-109855000D02*
X132350000Y-107315000D01*
%TO.N,Net-(Z150-Pad2)*%
X126730000Y-86725000D02*
X124730000Y-84725000D01*
X126730000Y-93345000D02*
X126730000Y-90805000D01*
X124730000Y-84725000D02*
X124730000Y-83185000D01*
X126730000Y-90805000D02*
X126730000Y-86725000D01*
%TO.N,Net-(Z190-Pad2)*%
X115300000Y-83185000D02*
X115300000Y-80645000D01*
X115300000Y-80645000D02*
X115300000Y-78105000D01*
%TO.N,Net-(Z202-Pad2)*%
X115300000Y-102235000D02*
X115300000Y-104775000D01*
X115300000Y-107315000D02*
X115300000Y-104775000D01*
%TO.N,Net-(Z226-Pad2)*%
X120920000Y-122555000D02*
X115300000Y-122555000D01*
X115300000Y-120015000D02*
X115300000Y-122555000D01*
%TD*%
%TA.AperFunction,Conductor*%
%TO.N,GND_I*%
G36*
X97098039Y-92094685D02*
G01*
X97143794Y-92147489D01*
X97155000Y-92199000D01*
X97155000Y-94615000D01*
X98301000Y-94615000D01*
X98368039Y-94634685D01*
X98413794Y-94687489D01*
X98425000Y-94739000D01*
X98425000Y-97031000D01*
X98405315Y-97098039D01*
X98352511Y-97143794D01*
X98301000Y-97155000D01*
X93850000Y-97155000D01*
X93782961Y-97135315D01*
X93737206Y-97082511D01*
X93726000Y-97031000D01*
X93726000Y-94739000D01*
X93745685Y-94671961D01*
X93798489Y-94626206D01*
X93850000Y-94615000D01*
X95250000Y-94615000D01*
X95250000Y-94205941D01*
X95268462Y-94140844D01*
X95284814Y-94114334D01*
X95339999Y-93947797D01*
X95350500Y-93845009D01*
X95350499Y-92844992D01*
X95339999Y-92742203D01*
X95284814Y-92575666D01*
X95268461Y-92549153D01*
X95250000Y-92484057D01*
X95250000Y-92199000D01*
X95269685Y-92131961D01*
X95322489Y-92086206D01*
X95374000Y-92075000D01*
X97031000Y-92075000D01*
X97098039Y-92094685D01*
G37*
%TD.AperFunction*%
%TD*%
M02*
