%TF.GenerationSoftware,KiCad,Pcbnew,9.0.8*%
%TF.CreationDate,2026-03-17T16:54:28+01:00*%
%TF.ProjectId,Input,496e7075-742e-46b6-9963-61645f706362,1*%
%TF.SameCoordinates,Original*%
%TF.FileFunction,Soldermask,Top*%
%TF.FilePolarity,Negative*%
%FSLAX46Y46*%
G04 Gerber Fmt 4.6, Leading zero omitted, Abs format (unit mm)*
G04 Created by KiCad (PCBNEW 9.0.8) date 2026-03-17 16:54:28*
%MOMM*%
%LPD*%
G01*
G04 APERTURE LIST*
G04 Aperture macros list*
%AMRoundRect*
0 Rectangle with rounded corners*
0 $1 Rounding radius*
0 $2 $3 $4 $5 $6 $7 $8 $9 X,Y pos of 4 corners*
0 Add a 4 corners polygon primitive as box body*
4,1,4,$2,$3,$4,$5,$6,$7,$8,$9,$2,$3,0*
0 Add four circle primitives for the rounded corners*
1,1,$1+$1,$2,$3*
1,1,$1+$1,$4,$5*
1,1,$1+$1,$6,$7*
1,1,$1+$1,$8,$9*
0 Add four rect primitives between the rounded corners*
20,1,$1+$1,$2,$3,$4,$5,0*
20,1,$1+$1,$4,$5,$6,$7,0*
20,1,$1+$1,$6,$7,$8,$9,0*
20,1,$1+$1,$8,$9,$2,$3,0*%
G04 Aperture macros list end*
%ADD10R,2.600000X1.600000*%
%ADD11O,2.600000X1.600000*%
%ADD12RoundRect,0.250000X-0.950000X-0.550000X0.950000X-0.550000X0.950000X0.550000X-0.950000X0.550000X0*%
%ADD13O,2.400000X1.600000*%
%ADD14C,6.400000*%
%ADD15RoundRect,0.250000X0.412500X1.100000X-0.412500X1.100000X-0.412500X-1.100000X0.412500X-1.100000X0*%
%ADD16R,1.700000X1.700000*%
%ADD17C,1.700000*%
G04 APERTURE END LIST*
D10*
%TO.C,J28*%
X102870000Y-117475000D03*
D11*
X102870000Y-114935000D03*
%TD*%
D12*
%TO.C,U8*%
X137160000Y-104775000D03*
D13*
X137160000Y-107315000D03*
X137160000Y-109855000D03*
X137160000Y-112395000D03*
X137160000Y-114935000D03*
X137160000Y-117475000D03*
X137160000Y-120015000D03*
X144780000Y-120015000D03*
X144780000Y-117475000D03*
X144780000Y-114935000D03*
X144780000Y-112395000D03*
X144780000Y-109855000D03*
X144780000Y-107315000D03*
X144780000Y-104775000D03*
%TD*%
D10*
%TO.C,J8*%
X72390000Y-117475000D03*
D11*
X72390000Y-114935000D03*
%TD*%
D12*
%TO.C,U15*%
X110490000Y-50165000D03*
D13*
X110490000Y-52705000D03*
X110490000Y-55245000D03*
X110490000Y-57785000D03*
X110490000Y-60325000D03*
X110490000Y-62865000D03*
X110490000Y-65405000D03*
X118110000Y-65405000D03*
X118110000Y-62865000D03*
X118110000Y-60325000D03*
X118110000Y-57785000D03*
X118110000Y-55245000D03*
X118110000Y-52705000D03*
X118110000Y-50165000D03*
%TD*%
D10*
%TO.C,J7*%
X72390000Y-107315000D03*
D11*
X72390000Y-109855000D03*
%TD*%
D10*
%TO.C,RV18*%
X106680000Y-55245000D03*
D11*
X106680000Y-52705000D03*
X106680000Y-50165000D03*
%TD*%
D14*
%TO.C,H6*%
X185420000Y-46355000D03*
%TD*%
D10*
%TO.C,J23*%
X160020000Y-103505000D03*
D11*
X160020000Y-106045000D03*
%TD*%
D10*
%TO.C,RV9*%
X95250000Y-50165000D03*
D11*
X95250000Y-52705000D03*
X95250000Y-55245000D03*
%TD*%
D10*
%TO.C,J20*%
X102870000Y-80645000D03*
D11*
X102870000Y-83185000D03*
%TD*%
D12*
%TO.C,U4*%
X80010000Y-78105000D03*
D13*
X80010000Y-80645000D03*
X80010000Y-83185000D03*
X80010000Y-85725000D03*
X80010000Y-88265000D03*
X80010000Y-90805000D03*
X80010000Y-93345000D03*
X87630000Y-93345000D03*
X87630000Y-90805000D03*
X87630000Y-88265000D03*
X87630000Y-85725000D03*
X87630000Y-83185000D03*
X87630000Y-80645000D03*
X87630000Y-78105000D03*
%TD*%
D12*
%TO.C,U9*%
X80010000Y-104775000D03*
D13*
X80010000Y-107315000D03*
X80010000Y-109855000D03*
X80010000Y-112395000D03*
X80010000Y-114935000D03*
X80010000Y-117475000D03*
X80010000Y-120015000D03*
X87630000Y-120015000D03*
X87630000Y-117475000D03*
X87630000Y-114935000D03*
X87630000Y-112395000D03*
X87630000Y-109855000D03*
X87630000Y-107315000D03*
X87630000Y-104775000D03*
%TD*%
D10*
%TO.C,J2*%
X72390000Y-80645000D03*
D11*
X72390000Y-83185000D03*
%TD*%
D10*
%TO.C,J16*%
X160020000Y-54610000D03*
D11*
X160020000Y-57150000D03*
%TD*%
D10*
%TO.C,J27*%
X160020000Y-92075000D03*
D11*
X160020000Y-94615000D03*
%TD*%
D14*
%TO.C,H1*%
X50800000Y-122555000D03*
%TD*%
D10*
%TO.C,J17*%
X102870000Y-90805000D03*
D11*
X102870000Y-88265000D03*
%TD*%
D10*
%TO.C,J3*%
X72390000Y-90805000D03*
D11*
X72390000Y-88265000D03*
%TD*%
D14*
%TO.C,H3*%
X185420000Y-122555000D03*
%TD*%
D12*
%TO.C,U11*%
X80010000Y-50165000D03*
D13*
X80010000Y-52705000D03*
X80010000Y-55245000D03*
X80010000Y-57785000D03*
X80010000Y-60325000D03*
X80010000Y-62865000D03*
X80010000Y-65405000D03*
X87630000Y-65405000D03*
X87630000Y-62865000D03*
X87630000Y-60325000D03*
X87630000Y-57785000D03*
X87630000Y-55245000D03*
X87630000Y-52705000D03*
X87630000Y-50165000D03*
%TD*%
D10*
%TO.C,RV11*%
X121920000Y-60325000D03*
D11*
X121920000Y-62865000D03*
X121920000Y-65405000D03*
X125730000Y-65405000D03*
X125730000Y-62865000D03*
D10*
X125730000Y-60325000D03*
%TD*%
%TO.C,J22*%
X102870000Y-107315000D03*
D11*
X102870000Y-109855000D03*
%TD*%
D12*
%TO.C,U19*%
X110490000Y-104775000D03*
D13*
X110490000Y-107315000D03*
X110490000Y-109855000D03*
X110490000Y-112395000D03*
X110490000Y-114935000D03*
X110490000Y-117475000D03*
X110490000Y-120015000D03*
X118110000Y-120015000D03*
X118110000Y-117475000D03*
X118110000Y-114935000D03*
X118110000Y-112395000D03*
X118110000Y-109855000D03*
X118110000Y-107315000D03*
X118110000Y-104775000D03*
%TD*%
D10*
%TO.C,SW2*%
X95250000Y-104775000D03*
D11*
X95250000Y-107315000D03*
X95250000Y-109855000D03*
%TD*%
D15*
%TO.C,C3*%
X173012500Y-122555000D03*
X169887500Y-122555000D03*
%TD*%
D10*
%TO.C,J12*%
X160020000Y-77470000D03*
D11*
X160020000Y-80010000D03*
%TD*%
D10*
%TO.C,J4*%
X160020000Y-114935000D03*
D11*
X160020000Y-117475000D03*
%TD*%
D16*
%TO.C,J30*%
X170180000Y-102235000D03*
D17*
X172720000Y-102235000D03*
X170180000Y-104775000D03*
X172720000Y-104775000D03*
X170180000Y-107315000D03*
X172720000Y-107315000D03*
X170180000Y-109855000D03*
X172720000Y-109855000D03*
X170180000Y-112395000D03*
X172720000Y-112395000D03*
X170180000Y-114935000D03*
X172720000Y-114935000D03*
X170180000Y-117475000D03*
X172720000Y-117475000D03*
%TD*%
D10*
%TO.C,RV4*%
X133350000Y-120015000D03*
D11*
X133350000Y-117475000D03*
X133350000Y-114935000D03*
%TD*%
D12*
%TO.C,U17*%
X110490000Y-78105000D03*
D13*
X110490000Y-80645000D03*
X110490000Y-83185000D03*
X110490000Y-85725000D03*
X110490000Y-88265000D03*
X110490000Y-90805000D03*
X110490000Y-93345000D03*
X118110000Y-93345000D03*
X118110000Y-90805000D03*
X118110000Y-88265000D03*
X118110000Y-85725000D03*
X118110000Y-83185000D03*
X118110000Y-80645000D03*
X118110000Y-78105000D03*
%TD*%
D10*
%TO.C,J14*%
X160020000Y-66040000D03*
D11*
X160020000Y-68580000D03*
%TD*%
D10*
%TO.C,RV17*%
X121920000Y-55245000D03*
D11*
X121920000Y-52705000D03*
X121920000Y-50165000D03*
X125730000Y-50165000D03*
X125730000Y-52705000D03*
D10*
X125730000Y-55245000D03*
%TD*%
%TO.C,J9*%
X72390000Y-55245000D03*
D11*
X72390000Y-57785000D03*
X72390000Y-60325000D03*
%TD*%
D14*
%TO.C,H7*%
X50800000Y-46355000D03*
%TD*%
D10*
%TO.C,RV13*%
X106680000Y-60325000D03*
D11*
X106680000Y-62865000D03*
X106680000Y-65405000D03*
%TD*%
M02*
