%TF.GenerationSoftware,KiCad,Pcbnew,9.0.8*%
%TF.CreationDate,2026-03-16T22:14:10+01:00*%
%TF.ProjectId,Input,496e7075-742e-46b6-9963-61645f706362,1*%
%TF.SameCoordinates,Original*%
%TF.FileFunction,Paste,Bot*%
%TF.FilePolarity,Positive*%
%FSLAX46Y46*%
G04 Gerber Fmt 4.6, Leading zero omitted, Abs format (unit mm)*
G04 Created by KiCad (PCBNEW 9.0.8) date 2026-03-16 22:14:10*
%MOMM*%
%LPD*%
G01*
G04 APERTURE LIST*
G04 Aperture macros list*
%AMRoundRect*
0 Rectangle with rounded corners*
0 $1 Rounding radius*
0 $2 $3 $4 $5 $6 $7 $8 $9 X,Y pos of 4 corners*
0 Add a 4 corners polygon primitive as box body*
4,1,4,$2,$3,$4,$5,$6,$7,$8,$9,$2,$3,0*
0 Add four circle primitives for the rounded corners*
1,1,$1+$1,$2,$3*
1,1,$1+$1,$4,$5*
1,1,$1+$1,$6,$7*
1,1,$1+$1,$8,$9*
0 Add four rect primitives between the rounded corners*
20,1,$1+$1,$2,$3,$4,$5,0*
20,1,$1+$1,$4,$5,$6,$7,0*
20,1,$1+$1,$6,$7,$8,$9,0*
20,1,$1+$1,$8,$9,$2,$3,0*%
G04 Aperture macros list end*
%ADD10RoundRect,0.250000X-0.350000X-0.450000X0.350000X-0.450000X0.350000X0.450000X-0.350000X0.450000X0*%
%ADD11RoundRect,0.250000X0.350000X0.450000X-0.350000X0.450000X-0.350000X-0.450000X0.350000X-0.450000X0*%
%ADD12RoundRect,0.250000X-0.337500X-0.475000X0.337500X-0.475000X0.337500X0.475000X-0.337500X0.475000X0*%
%ADD13RoundRect,0.250000X0.337500X0.475000X-0.337500X0.475000X-0.337500X-0.475000X0.337500X-0.475000X0*%
G04 APERTURE END LIST*
D10*
%TO.C,Z9*%
X94250000Y-80010000D03*
X96250000Y-80010000D03*
%TD*%
%TO.C,Z190*%
X113300000Y-80010000D03*
X115300000Y-80010000D03*
%TD*%
D11*
%TO.C,Z12*%
X77200000Y-82550000D03*
X75200000Y-82550000D03*
%TD*%
%TO.C,Z33*%
X77200000Y-87630000D03*
X75200000Y-87630000D03*
%TD*%
D12*
%TO.C,C58*%
X105642500Y-111760000D03*
X107717500Y-111760000D03*
%TD*%
D10*
%TO.C,Z156*%
X155210000Y-62865000D03*
X157210000Y-62865000D03*
%TD*%
%TO.C,Z50*%
X82820000Y-104140000D03*
X84820000Y-104140000D03*
%TD*%
D11*
%TO.C,Z58*%
X77200000Y-109220000D03*
X75200000Y-109220000D03*
%TD*%
%TO.C,Z194*%
X115300000Y-77470000D03*
X113300000Y-77470000D03*
%TD*%
%TO.C,Z6*%
X84820000Y-77470000D03*
X82820000Y-77470000D03*
%TD*%
D10*
%TO.C,Z98*%
X128540000Y-67310000D03*
X130540000Y-67310000D03*
%TD*%
D11*
%TO.C,R15*%
X96250000Y-92710000D03*
X94250000Y-92710000D03*
%TD*%
D10*
%TO.C,Z10*%
X98060000Y-82550000D03*
X100060000Y-82550000D03*
%TD*%
%TO.C,Z176*%
X105680000Y-90170000D03*
X107680000Y-90170000D03*
%TD*%
%TO.C,Z57*%
X75200000Y-104140000D03*
X77200000Y-104140000D03*
%TD*%
%TO.C,Z232*%
X120920000Y-121920000D03*
X122920000Y-121920000D03*
%TD*%
D13*
%TO.C,C63*%
X122957500Y-57150000D03*
X120882500Y-57150000D03*
%TD*%
D11*
%TO.C,Z35*%
X84820000Y-95250000D03*
X82820000Y-95250000D03*
%TD*%
D10*
%TO.C,R76*%
X113300000Y-69850000D03*
X115300000Y-69850000D03*
%TD*%
%TO.C,R16*%
X82820000Y-87630000D03*
X84820000Y-87630000D03*
%TD*%
D11*
%TO.C,Z150*%
X126730000Y-82550000D03*
X124730000Y-82550000D03*
%TD*%
%TO.C,R36*%
X149590000Y-114300000D03*
X147590000Y-114300000D03*
%TD*%
D13*
%TO.C,C37*%
X111295000Y-69850000D03*
X109220000Y-69850000D03*
%TD*%
D10*
%TO.C,Z180*%
X105680000Y-92710000D03*
X107680000Y-92710000D03*
%TD*%
D11*
%TO.C,R126*%
X115300000Y-85090000D03*
X113300000Y-85090000D03*
%TD*%
%TO.C,Z178*%
X157210000Y-56515000D03*
X155210000Y-56515000D03*
%TD*%
D10*
%TO.C,R30*%
X90440000Y-116840000D03*
X92440000Y-116840000D03*
%TD*%
D11*
%TO.C,Z158*%
X157210000Y-70485000D03*
X155210000Y-70485000D03*
%TD*%
D12*
%TO.C,C56*%
X105642500Y-57150000D03*
X107717500Y-57150000D03*
%TD*%
D10*
%TO.C,Z201*%
X105680000Y-106680000D03*
X107680000Y-106680000D03*
%TD*%
%TO.C,Z202*%
X113300000Y-104140000D03*
X115300000Y-104140000D03*
%TD*%
%TO.C,Z23*%
X75200000Y-90170000D03*
X77200000Y-90170000D03*
%TD*%
D11*
%TO.C,Z73*%
X84820000Y-119380000D03*
X82820000Y-119380000D03*
%TD*%
%TO.C,Z87*%
X77200000Y-59690000D03*
X75200000Y-59690000D03*
%TD*%
%TO.C,R103*%
X122920000Y-77470000D03*
X120920000Y-77470000D03*
%TD*%
D10*
%TO.C,Z135*%
X128540000Y-46990000D03*
X130540000Y-46990000D03*
%TD*%
D11*
%TO.C,R53*%
X92440000Y-62230000D03*
X90440000Y-62230000D03*
%TD*%
%TO.C,R3*%
X92440000Y-92710000D03*
X90440000Y-92710000D03*
%TD*%
D10*
%TO.C,R52*%
X82820000Y-64770000D03*
X84820000Y-64770000D03*
%TD*%
%TO.C,Z112*%
X75200000Y-49530000D03*
X77200000Y-49530000D03*
%TD*%
D11*
%TO.C,R4*%
X96250000Y-97790000D03*
X94250000Y-97790000D03*
%TD*%
D10*
%TO.C,Z2*%
X75200000Y-80010000D03*
X77200000Y-80010000D03*
%TD*%
D13*
%TO.C,C64*%
X122957500Y-85090000D03*
X120882500Y-85090000D03*
%TD*%
D10*
%TO.C,Z86*%
X75200000Y-64770000D03*
X77200000Y-64770000D03*
%TD*%
%TO.C,R105*%
X113300000Y-44450000D03*
X115300000Y-44450000D03*
%TD*%
%TO.C,Z19*%
X90440000Y-82550000D03*
X92440000Y-82550000D03*
%TD*%
%TO.C,Z40*%
X155210000Y-111760000D03*
X157210000Y-111760000D03*
%TD*%
D11*
%TO.C,Z155*%
X126730000Y-92710000D03*
X124730000Y-92710000D03*
%TD*%
%TO.C,R80*%
X92440000Y-59690000D03*
X90440000Y-59690000D03*
%TD*%
D10*
%TO.C,Z26*%
X82820000Y-92710000D03*
X84820000Y-92710000D03*
%TD*%
D11*
%TO.C,Z203*%
X115300000Y-106680000D03*
X113300000Y-106680000D03*
%TD*%
D13*
%TO.C,C65*%
X122957500Y-111760000D03*
X120882500Y-111760000D03*
%TD*%
D10*
%TO.C,Z152*%
X155210000Y-65405000D03*
X157210000Y-65405000D03*
%TD*%
%TO.C,Z140*%
X155130000Y-76835000D03*
X157130000Y-76835000D03*
%TD*%
D12*
%TO.C,C53*%
X132312500Y-111760000D03*
X134387500Y-111760000D03*
%TD*%
D13*
%TO.C,C49*%
X111295000Y-44450000D03*
X109220000Y-44450000D03*
%TD*%
D11*
%TO.C,Z227*%
X115300000Y-119380000D03*
X113300000Y-119380000D03*
%TD*%
%TO.C,Z22*%
X100060000Y-100330000D03*
X98060000Y-100330000D03*
%TD*%
D10*
%TO.C,Z79*%
X90440000Y-121920000D03*
X92440000Y-121920000D03*
%TD*%
D11*
%TO.C,Z230*%
X107680000Y-114300000D03*
X105680000Y-114300000D03*
%TD*%
D10*
%TO.C,Z143*%
X124730000Y-44450000D03*
X126730000Y-44450000D03*
%TD*%
%TO.C,R45*%
X82820000Y-116840000D03*
X84820000Y-116840000D03*
%TD*%
%TO.C,Z72*%
X82820000Y-121920000D03*
X84820000Y-121920000D03*
%TD*%
%TO.C,Z38*%
X155210000Y-114300000D03*
X157210000Y-114300000D03*
%TD*%
D11*
%TO.C,Z157*%
X157210000Y-67945000D03*
X155210000Y-67945000D03*
%TD*%
%TO.C,Z59*%
X84820000Y-101600000D03*
X82820000Y-101600000D03*
%TD*%
D10*
%TO.C,R135*%
X120920000Y-119380000D03*
X122920000Y-119380000D03*
%TD*%
%TO.C,Z11*%
X75200000Y-77470000D03*
X77200000Y-77470000D03*
%TD*%
%TO.C,Z226*%
X113300000Y-121920000D03*
X115300000Y-121920000D03*
%TD*%
%TO.C,Z63*%
X90440000Y-114300000D03*
X92440000Y-114300000D03*
%TD*%
%TO.C,Z189*%
X105680000Y-80010000D03*
X107680000Y-80010000D03*
%TD*%
D11*
%TO.C,Z136*%
X134350000Y-106680000D03*
X132350000Y-106680000D03*
%TD*%
D10*
%TO.C,Z75*%
X75200000Y-119380000D03*
X77200000Y-119380000D03*
%TD*%
%TO.C,Z206*%
X105680000Y-104140000D03*
X107680000Y-104140000D03*
%TD*%
D11*
%TO.C,Z193*%
X107680000Y-82550000D03*
X105680000Y-82550000D03*
%TD*%
D10*
%TO.C,Z225*%
X105680000Y-116840000D03*
X107680000Y-116840000D03*
%TD*%
D13*
%TO.C,C2*%
X92477500Y-97790000D03*
X90402500Y-97790000D03*
%TD*%
D10*
%TO.C,R7*%
X90440000Y-80010000D03*
X92440000Y-80010000D03*
%TD*%
%TO.C,Z80*%
X75200000Y-62230000D03*
X77200000Y-62230000D03*
%TD*%
%TO.C,R9*%
X82820000Y-80010000D03*
X84820000Y-80010000D03*
%TD*%
D11*
%TO.C,R75*%
X84820000Y-54610000D03*
X82820000Y-54610000D03*
%TD*%
D13*
%TO.C,C61*%
X92477500Y-85090000D03*
X90402500Y-85090000D03*
%TD*%
D10*
%TO.C,Z177*%
X155210000Y-51435000D03*
X157210000Y-51435000D03*
%TD*%
D11*
%TO.C,Z55*%
X96250000Y-114300000D03*
X94250000Y-114300000D03*
%TD*%
D10*
%TO.C,Z5*%
X82820000Y-74930000D03*
X84820000Y-74930000D03*
%TD*%
%TO.C,Z137*%
X132350000Y-109220000D03*
X134350000Y-109220000D03*
%TD*%
%TO.C,R57*%
X82820000Y-62230000D03*
X84820000Y-62230000D03*
%TD*%
D11*
%TO.C,Z42*%
X157210000Y-119380000D03*
X155210000Y-119380000D03*
%TD*%
D12*
%TO.C,C33*%
X128502500Y-62230000D03*
X130577500Y-62230000D03*
%TD*%
%TO.C,C48*%
X128502500Y-52070000D03*
X130577500Y-52070000D03*
%TD*%
D10*
%TO.C,R101*%
X113300000Y-52070000D03*
X115300000Y-52070000D03*
%TD*%
D11*
%TO.C,Z62*%
X96250000Y-119380000D03*
X94250000Y-119380000D03*
%TD*%
D10*
%TO.C,Z67*%
X75200000Y-116840000D03*
X77200000Y-116840000D03*
%TD*%
D11*
%TO.C,R106*%
X130540000Y-49530000D03*
X128540000Y-49530000D03*
%TD*%
%TO.C,Z142*%
X130540000Y-106680000D03*
X128540000Y-106680000D03*
%TD*%
%TO.C,Z99*%
X96250000Y-64770000D03*
X94250000Y-64770000D03*
%TD*%
%TO.C,Z207*%
X107680000Y-109220000D03*
X105680000Y-109220000D03*
%TD*%
D13*
%TO.C,C52*%
X77237500Y-57150000D03*
X75162500Y-57150000D03*
%TD*%
%TO.C,C59*%
X92477500Y-57150000D03*
X90402500Y-57150000D03*
%TD*%
D11*
%TO.C,R93*%
X115300000Y-49530000D03*
X113300000Y-49530000D03*
%TD*%
%TO.C,R77*%
X130540000Y-64770000D03*
X128540000Y-64770000D03*
%TD*%
D10*
%TO.C,Z151*%
X120920000Y-82550000D03*
X122920000Y-82550000D03*
%TD*%
%TO.C,Z134*%
X124730000Y-46990000D03*
X126730000Y-46990000D03*
%TD*%
D11*
%TO.C,Z27*%
X84820000Y-90170000D03*
X82820000Y-90170000D03*
%TD*%
D10*
%TO.C,R32*%
X139970000Y-116840000D03*
X141970000Y-116840000D03*
%TD*%
D12*
%TO.C,C57*%
X105642500Y-85090000D03*
X107717500Y-85090000D03*
%TD*%
D10*
%TO.C,Z229*%
X105680000Y-119380000D03*
X107680000Y-119380000D03*
%TD*%
D11*
%TO.C,R67*%
X84820000Y-52070000D03*
X82820000Y-52070000D03*
%TD*%
%TO.C,Z210*%
X115300000Y-101600000D03*
X113300000Y-101600000D03*
%TD*%
D10*
%TO.C,Z97*%
X124730000Y-67310000D03*
X126730000Y-67310000D03*
%TD*%
%TO.C,Z224*%
X120920000Y-114300000D03*
X122920000Y-114300000D03*
%TD*%
%TO.C,R24*%
X139970000Y-119380000D03*
X141970000Y-119380000D03*
%TD*%
D11*
%TO.C,Z100*%
X126730000Y-69850000D03*
X124730000Y-69850000D03*
%TD*%
D10*
%TO.C,Z15*%
X98060000Y-97790000D03*
X100060000Y-97790000D03*
%TD*%
%TO.C,Z94*%
X94250000Y-62230000D03*
X96250000Y-62230000D03*
%TD*%
D11*
%TO.C,Z212*%
X157210000Y-105410000D03*
X155210000Y-105410000D03*
%TD*%
%TO.C,Z14*%
X84820000Y-72390000D03*
X82820000Y-72390000D03*
%TD*%
%TO.C,Z211*%
X157210000Y-96520000D03*
X155210000Y-96520000D03*
%TD*%
%TO.C,R102*%
X126730000Y-77470000D03*
X124730000Y-77470000D03*
%TD*%
%TO.C,Z113*%
X77200000Y-54610000D03*
X75200000Y-54610000D03*
%TD*%
D10*
%TO.C,R65*%
X113300000Y-62230000D03*
X115300000Y-62230000D03*
%TD*%
%TO.C,Z144*%
X155130000Y-74295000D03*
X157130000Y-74295000D03*
%TD*%
%TO.C,Z175*%
X155210000Y-53975000D03*
X157210000Y-53975000D03*
%TD*%
D11*
%TO.C,Z181*%
X107680000Y-87630000D03*
X105680000Y-87630000D03*
%TD*%
D10*
%TO.C,Z204*%
X155210000Y-102870000D03*
X157210000Y-102870000D03*
%TD*%
D11*
%TO.C,Z41*%
X157210000Y-116840000D03*
X155210000Y-116840000D03*
%TD*%
D13*
%TO.C,C9*%
X92477500Y-90170000D03*
X90402500Y-90170000D03*
%TD*%
%TO.C,C60*%
X149627500Y-111760000D03*
X147552500Y-111760000D03*
%TD*%
D11*
%TO.C,Z154*%
X126730000Y-90170000D03*
X124730000Y-90170000D03*
%TD*%
%TO.C,Z146*%
X157130000Y-81915000D03*
X155130000Y-81915000D03*
%TD*%
%TO.C,R104*%
X126730000Y-80010000D03*
X124730000Y-80010000D03*
%TD*%
%TO.C,R140*%
X115300000Y-116840000D03*
X113300000Y-116840000D03*
%TD*%
%TO.C,Z51*%
X84820000Y-106680000D03*
X82820000Y-106680000D03*
%TD*%
D10*
%TO.C,R33*%
X82820000Y-109220000D03*
X84820000Y-109220000D03*
%TD*%
%TO.C,Z54*%
X94250000Y-116840000D03*
X96250000Y-116840000D03*
%TD*%
D12*
%TO.C,C54*%
X75162500Y-85090000D03*
X77237500Y-85090000D03*
%TD*%
D10*
%TO.C,Z49*%
X75200000Y-106680000D03*
X77200000Y-106680000D03*
%TD*%
D11*
%TO.C,Z213*%
X157210000Y-107950000D03*
X155210000Y-107950000D03*
%TD*%
%TO.C,R134*%
X115300000Y-109220000D03*
X113300000Y-109220000D03*
%TD*%
%TO.C,Z16*%
X96250000Y-82550000D03*
X94250000Y-82550000D03*
%TD*%
%TO.C,Z76*%
X77200000Y-114300000D03*
X75200000Y-114300000D03*
%TD*%
D10*
%TO.C,Z32*%
X75200000Y-92710000D03*
X77200000Y-92710000D03*
%TD*%
D11*
%TO.C,Z145*%
X157130000Y-79375000D03*
X155130000Y-79375000D03*
%TD*%
%TO.C,Z228*%
X157210000Y-93980000D03*
X155210000Y-93980000D03*
%TD*%
%TO.C,R58*%
X115300000Y-64770000D03*
X113300000Y-64770000D03*
%TD*%
D12*
%TO.C,C55*%
X75162500Y-111760000D03*
X77237500Y-111760000D03*
%TD*%
D11*
%TO.C,Z179*%
X157210000Y-59055000D03*
X155210000Y-59055000D03*
%TD*%
%TO.C,Z21*%
X100060000Y-95250000D03*
X98060000Y-95250000D03*
%TD*%
D10*
%TO.C,Z109*%
X75200000Y-52070000D03*
X77200000Y-52070000D03*
%TD*%
D11*
%TO.C,Z191*%
X115300000Y-82550000D03*
X113300000Y-82550000D03*
%TD*%
D10*
%TO.C,Z95*%
X98060000Y-62230000D03*
X100060000Y-62230000D03*
%TD*%
D12*
%TO.C,C1*%
X90402500Y-95250000D03*
X92477500Y-95250000D03*
%TD*%
D13*
%TO.C,C62*%
X92477500Y-111760000D03*
X90402500Y-111760000D03*
%TD*%
D10*
%TO.C,Z192*%
X105680000Y-77470000D03*
X107680000Y-77470000D03*
%TD*%
D11*
%TO.C,R25*%
X149590000Y-119380000D03*
X147590000Y-119380000D03*
%TD*%
M02*
