%TF.GenerationSoftware,KiCad,Pcbnew,9.0.8*%
%TF.CreationDate,2026-03-17T16:54:28+01:00*%
%TF.ProjectId,Input,496e7075-742e-46b6-9963-61645f706362,1*%
%TF.SameCoordinates,Original*%
%TF.FileFunction,Legend,Top*%
%TF.FilePolarity,Positive*%
%FSLAX46Y46*%
G04 Gerber Fmt 4.6, Leading zero omitted, Abs format (unit mm)*
G04 Created by KiCad (PCBNEW 9.0.8) date 2026-03-17 16:54:28*
%MOMM*%
%LPD*%
G01*
G04 APERTURE LIST*
%ADD10C,0.125000*%
%ADD11C,0.300000*%
%ADD12C,0.200000*%
%ADD13C,0.150000*%
%ADD14C,0.120000*%
G04 APERTURE END LIST*
D10*
X127831521Y-53034685D02*
X128326759Y-53034685D01*
X128326759Y-53034685D02*
X128060093Y-53339447D01*
X128060093Y-53339447D02*
X128174378Y-53339447D01*
X128174378Y-53339447D02*
X128250569Y-53377542D01*
X128250569Y-53377542D02*
X128288664Y-53415637D01*
X128288664Y-53415637D02*
X128326759Y-53491828D01*
X128326759Y-53491828D02*
X128326759Y-53682304D01*
X128326759Y-53682304D02*
X128288664Y-53758494D01*
X128288664Y-53758494D02*
X128250569Y-53796590D01*
X128250569Y-53796590D02*
X128174378Y-53834685D01*
X128174378Y-53834685D02*
X127945807Y-53834685D01*
X127945807Y-53834685D02*
X127869616Y-53796590D01*
X127869616Y-53796590D02*
X127831521Y-53758494D01*
X129012474Y-53301351D02*
X129012474Y-53834685D01*
X128821998Y-52996590D02*
X128631521Y-53568018D01*
X128631521Y-53568018D02*
X129126760Y-53568018D01*
X127869616Y-54398830D02*
X127907712Y-54360735D01*
X127907712Y-54360735D02*
X127983902Y-54322640D01*
X127983902Y-54322640D02*
X128174378Y-54322640D01*
X128174378Y-54322640D02*
X128250569Y-54360735D01*
X128250569Y-54360735D02*
X128288664Y-54398830D01*
X128288664Y-54398830D02*
X128326759Y-54475021D01*
X128326759Y-54475021D02*
X128326759Y-54551211D01*
X128326759Y-54551211D02*
X128288664Y-54665497D01*
X128288664Y-54665497D02*
X127831521Y-55122640D01*
X127831521Y-55122640D02*
X128326759Y-55122640D01*
X129050569Y-54322640D02*
X128669617Y-54322640D01*
X128669617Y-54322640D02*
X128631521Y-54703592D01*
X128631521Y-54703592D02*
X128669617Y-54665497D01*
X128669617Y-54665497D02*
X128745807Y-54627402D01*
X128745807Y-54627402D02*
X128936283Y-54627402D01*
X128936283Y-54627402D02*
X129012474Y-54665497D01*
X129012474Y-54665497D02*
X129050569Y-54703592D01*
X129050569Y-54703592D02*
X129088664Y-54779783D01*
X129088664Y-54779783D02*
X129088664Y-54970259D01*
X129088664Y-54970259D02*
X129050569Y-55046449D01*
X129050569Y-55046449D02*
X129012474Y-55084545D01*
X129012474Y-55084545D02*
X128936283Y-55122640D01*
X128936283Y-55122640D02*
X128745807Y-55122640D01*
X128745807Y-55122640D02*
X128669617Y-55084545D01*
X128669617Y-55084545D02*
X128631521Y-55046449D01*
X128326759Y-56410595D02*
X127869616Y-56410595D01*
X128098188Y-56410595D02*
X128098188Y-55610595D01*
X128098188Y-55610595D02*
X128021997Y-55724880D01*
X128021997Y-55724880D02*
X127945807Y-55801071D01*
X127945807Y-55801071D02*
X127869616Y-55839166D01*
X129012474Y-55610595D02*
X128860093Y-55610595D01*
X128860093Y-55610595D02*
X128783902Y-55648690D01*
X128783902Y-55648690D02*
X128745807Y-55686785D01*
X128745807Y-55686785D02*
X128669617Y-55801071D01*
X128669617Y-55801071D02*
X128631521Y-55953452D01*
X128631521Y-55953452D02*
X128631521Y-56258214D01*
X128631521Y-56258214D02*
X128669617Y-56334404D01*
X128669617Y-56334404D02*
X128707712Y-56372500D01*
X128707712Y-56372500D02*
X128783902Y-56410595D01*
X128783902Y-56410595D02*
X128936283Y-56410595D01*
X128936283Y-56410595D02*
X129012474Y-56372500D01*
X129012474Y-56372500D02*
X129050569Y-56334404D01*
X129050569Y-56334404D02*
X129088664Y-56258214D01*
X129088664Y-56258214D02*
X129088664Y-56067738D01*
X129088664Y-56067738D02*
X129050569Y-55991547D01*
X129050569Y-55991547D02*
X129012474Y-55953452D01*
X129012474Y-55953452D02*
X128936283Y-55915357D01*
X128936283Y-55915357D02*
X128783902Y-55915357D01*
X128783902Y-55915357D02*
X128707712Y-55953452D01*
X128707712Y-55953452D02*
X128669617Y-55991547D01*
X128669617Y-55991547D02*
X128631521Y-56067738D01*
X128326759Y-63994685D02*
X127869616Y-63994685D01*
X128098188Y-63994685D02*
X128098188Y-63194685D01*
X128098188Y-63194685D02*
X128021997Y-63308970D01*
X128021997Y-63308970D02*
X127945807Y-63385161D01*
X127945807Y-63385161D02*
X127869616Y-63423256D01*
X129012474Y-63194685D02*
X128860093Y-63194685D01*
X128860093Y-63194685D02*
X128783902Y-63232780D01*
X128783902Y-63232780D02*
X128745807Y-63270875D01*
X128745807Y-63270875D02*
X128669617Y-63385161D01*
X128669617Y-63385161D02*
X128631521Y-63537542D01*
X128631521Y-63537542D02*
X128631521Y-63842304D01*
X128631521Y-63842304D02*
X128669617Y-63918494D01*
X128669617Y-63918494D02*
X128707712Y-63956590D01*
X128707712Y-63956590D02*
X128783902Y-63994685D01*
X128783902Y-63994685D02*
X128936283Y-63994685D01*
X128936283Y-63994685D02*
X129012474Y-63956590D01*
X129012474Y-63956590D02*
X129050569Y-63918494D01*
X129050569Y-63918494D02*
X129088664Y-63842304D01*
X129088664Y-63842304D02*
X129088664Y-63651828D01*
X129088664Y-63651828D02*
X129050569Y-63575637D01*
X129050569Y-63575637D02*
X129012474Y-63537542D01*
X129012474Y-63537542D02*
X128936283Y-63499447D01*
X128936283Y-63499447D02*
X128783902Y-63499447D01*
X128783902Y-63499447D02*
X128707712Y-63537542D01*
X128707712Y-63537542D02*
X128669617Y-63575637D01*
X128669617Y-63575637D02*
X128631521Y-63651828D01*
X127869616Y-64558830D02*
X127907712Y-64520735D01*
X127907712Y-64520735D02*
X127983902Y-64482640D01*
X127983902Y-64482640D02*
X128174378Y-64482640D01*
X128174378Y-64482640D02*
X128250569Y-64520735D01*
X128250569Y-64520735D02*
X128288664Y-64558830D01*
X128288664Y-64558830D02*
X128326759Y-64635021D01*
X128326759Y-64635021D02*
X128326759Y-64711211D01*
X128326759Y-64711211D02*
X128288664Y-64825497D01*
X128288664Y-64825497D02*
X127831521Y-65282640D01*
X127831521Y-65282640D02*
X128326759Y-65282640D01*
X129050569Y-64482640D02*
X128669617Y-64482640D01*
X128669617Y-64482640D02*
X128631521Y-64863592D01*
X128631521Y-64863592D02*
X128669617Y-64825497D01*
X128669617Y-64825497D02*
X128745807Y-64787402D01*
X128745807Y-64787402D02*
X128936283Y-64787402D01*
X128936283Y-64787402D02*
X129012474Y-64825497D01*
X129012474Y-64825497D02*
X129050569Y-64863592D01*
X129050569Y-64863592D02*
X129088664Y-64939783D01*
X129088664Y-64939783D02*
X129088664Y-65130259D01*
X129088664Y-65130259D02*
X129050569Y-65206449D01*
X129050569Y-65206449D02*
X129012474Y-65244545D01*
X129012474Y-65244545D02*
X128936283Y-65282640D01*
X128936283Y-65282640D02*
X128745807Y-65282640D01*
X128745807Y-65282640D02*
X128669617Y-65244545D01*
X128669617Y-65244545D02*
X128631521Y-65206449D01*
X127831521Y-65770595D02*
X128326759Y-65770595D01*
X128326759Y-65770595D02*
X128060093Y-66075357D01*
X128060093Y-66075357D02*
X128174378Y-66075357D01*
X128174378Y-66075357D02*
X128250569Y-66113452D01*
X128250569Y-66113452D02*
X128288664Y-66151547D01*
X128288664Y-66151547D02*
X128326759Y-66227738D01*
X128326759Y-66227738D02*
X128326759Y-66418214D01*
X128326759Y-66418214D02*
X128288664Y-66494404D01*
X128288664Y-66494404D02*
X128250569Y-66532500D01*
X128250569Y-66532500D02*
X128174378Y-66570595D01*
X128174378Y-66570595D02*
X127945807Y-66570595D01*
X127945807Y-66570595D02*
X127869616Y-66532500D01*
X127869616Y-66532500D02*
X127831521Y-66494404D01*
X129012474Y-66037261D02*
X129012474Y-66570595D01*
X128821998Y-65732500D02*
X128631521Y-66303928D01*
X128631521Y-66303928D02*
X129126760Y-66303928D01*
D11*
X69642510Y-79032971D02*
X69713939Y-79104400D01*
X69713939Y-79104400D02*
X69642510Y-79175828D01*
X69642510Y-79175828D02*
X69571082Y-79104400D01*
X69571082Y-79104400D02*
X69642510Y-79032971D01*
X69642510Y-79032971D02*
X69642510Y-79175828D01*
X69642510Y-92240971D02*
X69713939Y-92312400D01*
X69713939Y-92312400D02*
X69642510Y-92383828D01*
X69642510Y-92383828D02*
X69571082Y-92312400D01*
X69571082Y-92312400D02*
X69642510Y-92240971D01*
X69642510Y-92240971D02*
X69642510Y-92383828D01*
X69642510Y-119037971D02*
X69713939Y-119109400D01*
X69713939Y-119109400D02*
X69642510Y-119180828D01*
X69642510Y-119180828D02*
X69571082Y-119109400D01*
X69571082Y-119109400D02*
X69642510Y-119037971D01*
X69642510Y-119037971D02*
X69642510Y-119180828D01*
X69769510Y-105702971D02*
X69840939Y-105774400D01*
X69840939Y-105774400D02*
X69769510Y-105845828D01*
X69769510Y-105845828D02*
X69698082Y-105774400D01*
X69698082Y-105774400D02*
X69769510Y-105702971D01*
X69769510Y-105702971D02*
X69769510Y-105845828D01*
X78024510Y-47282971D02*
X78095939Y-47354400D01*
X78095939Y-47354400D02*
X78024510Y-47425828D01*
X78024510Y-47425828D02*
X77953082Y-47354400D01*
X77953082Y-47354400D02*
X78024510Y-47282971D01*
X78024510Y-47282971D02*
X78024510Y-47425828D01*
X78024510Y-75857971D02*
X78095939Y-75929400D01*
X78095939Y-75929400D02*
X78024510Y-76000828D01*
X78024510Y-76000828D02*
X77953082Y-75929400D01*
X77953082Y-75929400D02*
X78024510Y-75857971D01*
X78024510Y-75857971D02*
X78024510Y-76000828D01*
X78024510Y-102527971D02*
X78095939Y-102599400D01*
X78095939Y-102599400D02*
X78024510Y-102670828D01*
X78024510Y-102670828D02*
X77953082Y-102599400D01*
X77953082Y-102599400D02*
X78024510Y-102527971D01*
X78024510Y-102527971D02*
X78024510Y-102670828D01*
X109774510Y-47282971D02*
X109845939Y-47354400D01*
X109845939Y-47354400D02*
X109774510Y-47425828D01*
X109774510Y-47425828D02*
X109703082Y-47354400D01*
X109703082Y-47354400D02*
X109774510Y-47282971D01*
X109774510Y-47282971D02*
X109774510Y-47425828D01*
D12*
X171697219Y-97027231D02*
X171697219Y-96360564D01*
X172744838Y-96074850D02*
X172744838Y-97027231D01*
X172744838Y-97027231D02*
X170744838Y-97027231D01*
X170744838Y-97027231D02*
X170744838Y-96074850D01*
X172744838Y-95217707D02*
X171411504Y-95217707D01*
X170744838Y-95217707D02*
X170840076Y-95312945D01*
X170840076Y-95312945D02*
X170935314Y-95217707D01*
X170935314Y-95217707D02*
X170840076Y-95122469D01*
X170840076Y-95122469D02*
X170744838Y-95217707D01*
X170744838Y-95217707D02*
X170935314Y-95217707D01*
X171411504Y-94265326D02*
X172744838Y-94265326D01*
X171601980Y-94265326D02*
X171506742Y-94170088D01*
X171506742Y-94170088D02*
X171411504Y-93979612D01*
X171411504Y-93979612D02*
X171411504Y-93693897D01*
X171411504Y-93693897D02*
X171506742Y-93503421D01*
X171506742Y-93503421D02*
X171697219Y-93408183D01*
X171697219Y-93408183D02*
X172744838Y-93408183D01*
X171411504Y-91598659D02*
X173030552Y-91598659D01*
X173030552Y-91598659D02*
X173221028Y-91693897D01*
X173221028Y-91693897D02*
X173316266Y-91789135D01*
X173316266Y-91789135D02*
X173411504Y-91979612D01*
X173411504Y-91979612D02*
X173411504Y-92265326D01*
X173411504Y-92265326D02*
X173316266Y-92455802D01*
X172649600Y-91598659D02*
X172744838Y-91789135D01*
X172744838Y-91789135D02*
X172744838Y-92170088D01*
X172744838Y-92170088D02*
X172649600Y-92360564D01*
X172649600Y-92360564D02*
X172554361Y-92455802D01*
X172554361Y-92455802D02*
X172363885Y-92551040D01*
X172363885Y-92551040D02*
X171792457Y-92551040D01*
X171792457Y-92551040D02*
X171601980Y-92455802D01*
X171601980Y-92455802D02*
X171506742Y-92360564D01*
X171506742Y-92360564D02*
X171411504Y-92170088D01*
X171411504Y-92170088D02*
X171411504Y-91789135D01*
X171411504Y-91789135D02*
X171506742Y-91598659D01*
X172744838Y-89789135D02*
X171697219Y-89789135D01*
X171697219Y-89789135D02*
X171506742Y-89884373D01*
X171506742Y-89884373D02*
X171411504Y-90074849D01*
X171411504Y-90074849D02*
X171411504Y-90455802D01*
X171411504Y-90455802D02*
X171506742Y-90646278D01*
X172649600Y-89789135D02*
X172744838Y-89979611D01*
X172744838Y-89979611D02*
X172744838Y-90455802D01*
X172744838Y-90455802D02*
X172649600Y-90646278D01*
X172649600Y-90646278D02*
X172459123Y-90741516D01*
X172459123Y-90741516D02*
X172268647Y-90741516D01*
X172268647Y-90741516D02*
X172078171Y-90646278D01*
X172078171Y-90646278D02*
X171982933Y-90455802D01*
X171982933Y-90455802D02*
X171982933Y-89979611D01*
X171982933Y-89979611D02*
X171887695Y-89789135D01*
X171411504Y-88836754D02*
X172744838Y-88836754D01*
X171601980Y-88836754D02*
X171506742Y-88741516D01*
X171506742Y-88741516D02*
X171411504Y-88551040D01*
X171411504Y-88551040D02*
X171411504Y-88265325D01*
X171411504Y-88265325D02*
X171506742Y-88074849D01*
X171506742Y-88074849D02*
X171697219Y-87979611D01*
X171697219Y-87979611D02*
X172744838Y-87979611D01*
X171411504Y-86170087D02*
X173030552Y-86170087D01*
X173030552Y-86170087D02*
X173221028Y-86265325D01*
X173221028Y-86265325D02*
X173316266Y-86360563D01*
X173316266Y-86360563D02*
X173411504Y-86551040D01*
X173411504Y-86551040D02*
X173411504Y-86836754D01*
X173411504Y-86836754D02*
X173316266Y-87027230D01*
X172649600Y-86170087D02*
X172744838Y-86360563D01*
X172744838Y-86360563D02*
X172744838Y-86741516D01*
X172744838Y-86741516D02*
X172649600Y-86931992D01*
X172649600Y-86931992D02*
X172554361Y-87027230D01*
X172554361Y-87027230D02*
X172363885Y-87122468D01*
X172363885Y-87122468D02*
X171792457Y-87122468D01*
X171792457Y-87122468D02*
X171601980Y-87027230D01*
X171601980Y-87027230D02*
X171506742Y-86931992D01*
X171506742Y-86931992D02*
X171411504Y-86741516D01*
X171411504Y-86741516D02*
X171411504Y-86360563D01*
X171411504Y-86360563D02*
X171506742Y-86170087D01*
X172649600Y-85312944D02*
X172744838Y-85122468D01*
X172744838Y-85122468D02*
X172744838Y-84741516D01*
X172744838Y-84741516D02*
X172649600Y-84551039D01*
X172649600Y-84551039D02*
X172459123Y-84455801D01*
X172459123Y-84455801D02*
X172363885Y-84455801D01*
X172363885Y-84455801D02*
X172173409Y-84551039D01*
X172173409Y-84551039D02*
X172078171Y-84741516D01*
X172078171Y-84741516D02*
X172078171Y-85027230D01*
X172078171Y-85027230D02*
X171982933Y-85217706D01*
X171982933Y-85217706D02*
X171792457Y-85312944D01*
X171792457Y-85312944D02*
X171697219Y-85312944D01*
X171697219Y-85312944D02*
X171506742Y-85217706D01*
X171506742Y-85217706D02*
X171411504Y-85027230D01*
X171411504Y-85027230D02*
X171411504Y-84741516D01*
X171411504Y-84741516D02*
X171506742Y-84551039D01*
X172649600Y-83693896D02*
X172744838Y-83503420D01*
X172744838Y-83503420D02*
X172744838Y-83122468D01*
X172744838Y-83122468D02*
X172649600Y-82931991D01*
X172649600Y-82931991D02*
X172459123Y-82836753D01*
X172459123Y-82836753D02*
X172363885Y-82836753D01*
X172363885Y-82836753D02*
X172173409Y-82931991D01*
X172173409Y-82931991D02*
X172078171Y-83122468D01*
X172078171Y-83122468D02*
X172078171Y-83408182D01*
X172078171Y-83408182D02*
X171982933Y-83598658D01*
X171982933Y-83598658D02*
X171792457Y-83693896D01*
X171792457Y-83693896D02*
X171697219Y-83693896D01*
X171697219Y-83693896D02*
X171506742Y-83598658D01*
X171506742Y-83598658D02*
X171411504Y-83408182D01*
X171411504Y-83408182D02*
X171411504Y-83122468D01*
X171411504Y-83122468D02*
X171506742Y-82931991D01*
X171411504Y-82265324D02*
X171411504Y-81503420D01*
X170744838Y-81979610D02*
X172459123Y-81979610D01*
X172459123Y-81979610D02*
X172649600Y-81884372D01*
X172649600Y-81884372D02*
X172744838Y-81693896D01*
X172744838Y-81693896D02*
X172744838Y-81503420D01*
X171411504Y-79979610D02*
X172744838Y-79979610D01*
X171411504Y-80836753D02*
X172459123Y-80836753D01*
X172459123Y-80836753D02*
X172649600Y-80741515D01*
X172649600Y-80741515D02*
X172744838Y-80551039D01*
X172744838Y-80551039D02*
X172744838Y-80265324D01*
X172744838Y-80265324D02*
X172649600Y-80074848D01*
X172649600Y-80074848D02*
X172554361Y-79979610D01*
X171411504Y-79312943D02*
X171411504Y-78551039D01*
X172744838Y-79027229D02*
X171030552Y-79027229D01*
X171030552Y-79027229D02*
X170840076Y-78931991D01*
X170840076Y-78931991D02*
X170744838Y-78741515D01*
X170744838Y-78741515D02*
X170744838Y-78551039D01*
X172649600Y-77122467D02*
X172744838Y-77312943D01*
X172744838Y-77312943D02*
X172744838Y-77693896D01*
X172744838Y-77693896D02*
X172649600Y-77884372D01*
X172649600Y-77884372D02*
X172459123Y-77979610D01*
X172459123Y-77979610D02*
X171697219Y-77979610D01*
X171697219Y-77979610D02*
X171506742Y-77884372D01*
X171506742Y-77884372D02*
X171411504Y-77693896D01*
X171411504Y-77693896D02*
X171411504Y-77312943D01*
X171411504Y-77312943D02*
X171506742Y-77122467D01*
X171506742Y-77122467D02*
X171697219Y-77027229D01*
X171697219Y-77027229D02*
X171887695Y-77027229D01*
X171887695Y-77027229D02*
X172078171Y-77979610D01*
D13*
X102195476Y-111849819D02*
X102195476Y-112564104D01*
X102195476Y-112564104D02*
X102147857Y-112706961D01*
X102147857Y-112706961D02*
X102052619Y-112802200D01*
X102052619Y-112802200D02*
X101909762Y-112849819D01*
X101909762Y-112849819D02*
X101814524Y-112849819D01*
X102624048Y-111945057D02*
X102671667Y-111897438D01*
X102671667Y-111897438D02*
X102766905Y-111849819D01*
X102766905Y-111849819D02*
X103005000Y-111849819D01*
X103005000Y-111849819D02*
X103100238Y-111897438D01*
X103100238Y-111897438D02*
X103147857Y-111945057D01*
X103147857Y-111945057D02*
X103195476Y-112040295D01*
X103195476Y-112040295D02*
X103195476Y-112135533D01*
X103195476Y-112135533D02*
X103147857Y-112278390D01*
X103147857Y-112278390D02*
X102576429Y-112849819D01*
X102576429Y-112849819D02*
X103195476Y-112849819D01*
X103766905Y-112278390D02*
X103671667Y-112230771D01*
X103671667Y-112230771D02*
X103624048Y-112183152D01*
X103624048Y-112183152D02*
X103576429Y-112087914D01*
X103576429Y-112087914D02*
X103576429Y-112040295D01*
X103576429Y-112040295D02*
X103624048Y-111945057D01*
X103624048Y-111945057D02*
X103671667Y-111897438D01*
X103671667Y-111897438D02*
X103766905Y-111849819D01*
X103766905Y-111849819D02*
X103957381Y-111849819D01*
X103957381Y-111849819D02*
X104052619Y-111897438D01*
X104052619Y-111897438D02*
X104100238Y-111945057D01*
X104100238Y-111945057D02*
X104147857Y-112040295D01*
X104147857Y-112040295D02*
X104147857Y-112087914D01*
X104147857Y-112087914D02*
X104100238Y-112183152D01*
X104100238Y-112183152D02*
X104052619Y-112230771D01*
X104052619Y-112230771D02*
X103957381Y-112278390D01*
X103957381Y-112278390D02*
X103766905Y-112278390D01*
X103766905Y-112278390D02*
X103671667Y-112326009D01*
X103671667Y-112326009D02*
X103624048Y-112373628D01*
X103624048Y-112373628D02*
X103576429Y-112468866D01*
X103576429Y-112468866D02*
X103576429Y-112659342D01*
X103576429Y-112659342D02*
X103624048Y-112754580D01*
X103624048Y-112754580D02*
X103671667Y-112802200D01*
X103671667Y-112802200D02*
X103766905Y-112849819D01*
X103766905Y-112849819D02*
X103957381Y-112849819D01*
X103957381Y-112849819D02*
X104052619Y-112802200D01*
X104052619Y-112802200D02*
X104100238Y-112754580D01*
X104100238Y-112754580D02*
X104147857Y-112659342D01*
X104147857Y-112659342D02*
X104147857Y-112468866D01*
X104147857Y-112468866D02*
X104100238Y-112373628D01*
X104100238Y-112373628D02*
X104052619Y-112326009D01*
X104052619Y-112326009D02*
X103957381Y-112278390D01*
X136398095Y-101899819D02*
X136398095Y-102709342D01*
X136398095Y-102709342D02*
X136445714Y-102804580D01*
X136445714Y-102804580D02*
X136493333Y-102852200D01*
X136493333Y-102852200D02*
X136588571Y-102899819D01*
X136588571Y-102899819D02*
X136779047Y-102899819D01*
X136779047Y-102899819D02*
X136874285Y-102852200D01*
X136874285Y-102852200D02*
X136921904Y-102804580D01*
X136921904Y-102804580D02*
X136969523Y-102709342D01*
X136969523Y-102709342D02*
X136969523Y-101899819D01*
X137588571Y-102328390D02*
X137493333Y-102280771D01*
X137493333Y-102280771D02*
X137445714Y-102233152D01*
X137445714Y-102233152D02*
X137398095Y-102137914D01*
X137398095Y-102137914D02*
X137398095Y-102090295D01*
X137398095Y-102090295D02*
X137445714Y-101995057D01*
X137445714Y-101995057D02*
X137493333Y-101947438D01*
X137493333Y-101947438D02*
X137588571Y-101899819D01*
X137588571Y-101899819D02*
X137779047Y-101899819D01*
X137779047Y-101899819D02*
X137874285Y-101947438D01*
X137874285Y-101947438D02*
X137921904Y-101995057D01*
X137921904Y-101995057D02*
X137969523Y-102090295D01*
X137969523Y-102090295D02*
X137969523Y-102137914D01*
X137969523Y-102137914D02*
X137921904Y-102233152D01*
X137921904Y-102233152D02*
X137874285Y-102280771D01*
X137874285Y-102280771D02*
X137779047Y-102328390D01*
X137779047Y-102328390D02*
X137588571Y-102328390D01*
X137588571Y-102328390D02*
X137493333Y-102376009D01*
X137493333Y-102376009D02*
X137445714Y-102423628D01*
X137445714Y-102423628D02*
X137398095Y-102518866D01*
X137398095Y-102518866D02*
X137398095Y-102709342D01*
X137398095Y-102709342D02*
X137445714Y-102804580D01*
X137445714Y-102804580D02*
X137493333Y-102852200D01*
X137493333Y-102852200D02*
X137588571Y-102899819D01*
X137588571Y-102899819D02*
X137779047Y-102899819D01*
X137779047Y-102899819D02*
X137874285Y-102852200D01*
X137874285Y-102852200D02*
X137921904Y-102804580D01*
X137921904Y-102804580D02*
X137969523Y-102709342D01*
X137969523Y-102709342D02*
X137969523Y-102518866D01*
X137969523Y-102518866D02*
X137921904Y-102423628D01*
X137921904Y-102423628D02*
X137874285Y-102376009D01*
X137874285Y-102376009D02*
X137779047Y-102328390D01*
X72191666Y-111849819D02*
X72191666Y-112564104D01*
X72191666Y-112564104D02*
X72144047Y-112706961D01*
X72144047Y-112706961D02*
X72048809Y-112802200D01*
X72048809Y-112802200D02*
X71905952Y-112849819D01*
X71905952Y-112849819D02*
X71810714Y-112849819D01*
X72810714Y-112278390D02*
X72715476Y-112230771D01*
X72715476Y-112230771D02*
X72667857Y-112183152D01*
X72667857Y-112183152D02*
X72620238Y-112087914D01*
X72620238Y-112087914D02*
X72620238Y-112040295D01*
X72620238Y-112040295D02*
X72667857Y-111945057D01*
X72667857Y-111945057D02*
X72715476Y-111897438D01*
X72715476Y-111897438D02*
X72810714Y-111849819D01*
X72810714Y-111849819D02*
X73001190Y-111849819D01*
X73001190Y-111849819D02*
X73096428Y-111897438D01*
X73096428Y-111897438D02*
X73144047Y-111945057D01*
X73144047Y-111945057D02*
X73191666Y-112040295D01*
X73191666Y-112040295D02*
X73191666Y-112087914D01*
X73191666Y-112087914D02*
X73144047Y-112183152D01*
X73144047Y-112183152D02*
X73096428Y-112230771D01*
X73096428Y-112230771D02*
X73001190Y-112278390D01*
X73001190Y-112278390D02*
X72810714Y-112278390D01*
X72810714Y-112278390D02*
X72715476Y-112326009D01*
X72715476Y-112326009D02*
X72667857Y-112373628D01*
X72667857Y-112373628D02*
X72620238Y-112468866D01*
X72620238Y-112468866D02*
X72620238Y-112659342D01*
X72620238Y-112659342D02*
X72667857Y-112754580D01*
X72667857Y-112754580D02*
X72715476Y-112802200D01*
X72715476Y-112802200D02*
X72810714Y-112849819D01*
X72810714Y-112849819D02*
X73001190Y-112849819D01*
X73001190Y-112849819D02*
X73096428Y-112802200D01*
X73096428Y-112802200D02*
X73144047Y-112754580D01*
X73144047Y-112754580D02*
X73191666Y-112659342D01*
X73191666Y-112659342D02*
X73191666Y-112468866D01*
X73191666Y-112468866D02*
X73144047Y-112373628D01*
X73144047Y-112373628D02*
X73096428Y-112326009D01*
X73096428Y-112326009D02*
X73001190Y-112278390D01*
X110521905Y-47079819D02*
X110521905Y-47889342D01*
X110521905Y-47889342D02*
X110569524Y-47984580D01*
X110569524Y-47984580D02*
X110617143Y-48032200D01*
X110617143Y-48032200D02*
X110712381Y-48079819D01*
X110712381Y-48079819D02*
X110902857Y-48079819D01*
X110902857Y-48079819D02*
X110998095Y-48032200D01*
X110998095Y-48032200D02*
X111045714Y-47984580D01*
X111045714Y-47984580D02*
X111093333Y-47889342D01*
X111093333Y-47889342D02*
X111093333Y-47079819D01*
X112093333Y-48079819D02*
X111521905Y-48079819D01*
X111807619Y-48079819D02*
X111807619Y-47079819D01*
X111807619Y-47079819D02*
X111712381Y-47222676D01*
X111712381Y-47222676D02*
X111617143Y-47317914D01*
X111617143Y-47317914D02*
X111521905Y-47365533D01*
X112998095Y-47079819D02*
X112521905Y-47079819D01*
X112521905Y-47079819D02*
X112474286Y-47556009D01*
X112474286Y-47556009D02*
X112521905Y-47508390D01*
X112521905Y-47508390D02*
X112617143Y-47460771D01*
X112617143Y-47460771D02*
X112855238Y-47460771D01*
X112855238Y-47460771D02*
X112950476Y-47508390D01*
X112950476Y-47508390D02*
X112998095Y-47556009D01*
X112998095Y-47556009D02*
X113045714Y-47651247D01*
X113045714Y-47651247D02*
X113045714Y-47889342D01*
X113045714Y-47889342D02*
X112998095Y-47984580D01*
X112998095Y-47984580D02*
X112950476Y-48032200D01*
X112950476Y-48032200D02*
X112855238Y-48079819D01*
X112855238Y-48079819D02*
X112617143Y-48079819D01*
X112617143Y-48079819D02*
X112521905Y-48032200D01*
X112521905Y-48032200D02*
X112474286Y-47984580D01*
X72056666Y-104229819D02*
X72056666Y-104944104D01*
X72056666Y-104944104D02*
X72009047Y-105086961D01*
X72009047Y-105086961D02*
X71913809Y-105182200D01*
X71913809Y-105182200D02*
X71770952Y-105229819D01*
X71770952Y-105229819D02*
X71675714Y-105229819D01*
X72437619Y-104229819D02*
X73104285Y-104229819D01*
X73104285Y-104229819D02*
X72675714Y-105229819D01*
X105608571Y-48094819D02*
X105275238Y-47618628D01*
X105037143Y-48094819D02*
X105037143Y-47094819D01*
X105037143Y-47094819D02*
X105418095Y-47094819D01*
X105418095Y-47094819D02*
X105513333Y-47142438D01*
X105513333Y-47142438D02*
X105560952Y-47190057D01*
X105560952Y-47190057D02*
X105608571Y-47285295D01*
X105608571Y-47285295D02*
X105608571Y-47428152D01*
X105608571Y-47428152D02*
X105560952Y-47523390D01*
X105560952Y-47523390D02*
X105513333Y-47571009D01*
X105513333Y-47571009D02*
X105418095Y-47618628D01*
X105418095Y-47618628D02*
X105037143Y-47618628D01*
X105894286Y-47094819D02*
X106227619Y-48094819D01*
X106227619Y-48094819D02*
X106560952Y-47094819D01*
X107418095Y-48094819D02*
X106846667Y-48094819D01*
X107132381Y-48094819D02*
X107132381Y-47094819D01*
X107132381Y-47094819D02*
X107037143Y-47237676D01*
X107037143Y-47237676D02*
X106941905Y-47332914D01*
X106941905Y-47332914D02*
X106846667Y-47380533D01*
X107989524Y-47523390D02*
X107894286Y-47475771D01*
X107894286Y-47475771D02*
X107846667Y-47428152D01*
X107846667Y-47428152D02*
X107799048Y-47332914D01*
X107799048Y-47332914D02*
X107799048Y-47285295D01*
X107799048Y-47285295D02*
X107846667Y-47190057D01*
X107846667Y-47190057D02*
X107894286Y-47142438D01*
X107894286Y-47142438D02*
X107989524Y-47094819D01*
X107989524Y-47094819D02*
X108180000Y-47094819D01*
X108180000Y-47094819D02*
X108275238Y-47142438D01*
X108275238Y-47142438D02*
X108322857Y-47190057D01*
X108322857Y-47190057D02*
X108370476Y-47285295D01*
X108370476Y-47285295D02*
X108370476Y-47332914D01*
X108370476Y-47332914D02*
X108322857Y-47428152D01*
X108322857Y-47428152D02*
X108275238Y-47475771D01*
X108275238Y-47475771D02*
X108180000Y-47523390D01*
X108180000Y-47523390D02*
X107989524Y-47523390D01*
X107989524Y-47523390D02*
X107894286Y-47571009D01*
X107894286Y-47571009D02*
X107846667Y-47618628D01*
X107846667Y-47618628D02*
X107799048Y-47713866D01*
X107799048Y-47713866D02*
X107799048Y-47904342D01*
X107799048Y-47904342D02*
X107846667Y-47999580D01*
X107846667Y-47999580D02*
X107894286Y-48047200D01*
X107894286Y-48047200D02*
X107989524Y-48094819D01*
X107989524Y-48094819D02*
X108180000Y-48094819D01*
X108180000Y-48094819D02*
X108275238Y-48047200D01*
X108275238Y-48047200D02*
X108322857Y-47999580D01*
X108322857Y-47999580D02*
X108370476Y-47904342D01*
X108370476Y-47904342D02*
X108370476Y-47713866D01*
X108370476Y-47713866D02*
X108322857Y-47618628D01*
X108322857Y-47618628D02*
X108275238Y-47571009D01*
X108275238Y-47571009D02*
X108180000Y-47523390D01*
X184658095Y-42659819D02*
X184658095Y-41659819D01*
X184658095Y-42136009D02*
X185229523Y-42136009D01*
X185229523Y-42659819D02*
X185229523Y-41659819D01*
X186134285Y-41659819D02*
X185943809Y-41659819D01*
X185943809Y-41659819D02*
X185848571Y-41707438D01*
X185848571Y-41707438D02*
X185800952Y-41755057D01*
X185800952Y-41755057D02*
X185705714Y-41897914D01*
X185705714Y-41897914D02*
X185658095Y-42088390D01*
X185658095Y-42088390D02*
X185658095Y-42469342D01*
X185658095Y-42469342D02*
X185705714Y-42564580D01*
X185705714Y-42564580D02*
X185753333Y-42612200D01*
X185753333Y-42612200D02*
X185848571Y-42659819D01*
X185848571Y-42659819D02*
X186039047Y-42659819D01*
X186039047Y-42659819D02*
X186134285Y-42612200D01*
X186134285Y-42612200D02*
X186181904Y-42564580D01*
X186181904Y-42564580D02*
X186229523Y-42469342D01*
X186229523Y-42469342D02*
X186229523Y-42231247D01*
X186229523Y-42231247D02*
X186181904Y-42136009D01*
X186181904Y-42136009D02*
X186134285Y-42088390D01*
X186134285Y-42088390D02*
X186039047Y-42040771D01*
X186039047Y-42040771D02*
X185848571Y-42040771D01*
X185848571Y-42040771D02*
X185753333Y-42088390D01*
X185753333Y-42088390D02*
X185705714Y-42136009D01*
X185705714Y-42136009D02*
X185658095Y-42231247D01*
X159210476Y-100419819D02*
X159210476Y-101134104D01*
X159210476Y-101134104D02*
X159162857Y-101276961D01*
X159162857Y-101276961D02*
X159067619Y-101372200D01*
X159067619Y-101372200D02*
X158924762Y-101419819D01*
X158924762Y-101419819D02*
X158829524Y-101419819D01*
X159639048Y-100515057D02*
X159686667Y-100467438D01*
X159686667Y-100467438D02*
X159781905Y-100419819D01*
X159781905Y-100419819D02*
X160020000Y-100419819D01*
X160020000Y-100419819D02*
X160115238Y-100467438D01*
X160115238Y-100467438D02*
X160162857Y-100515057D01*
X160162857Y-100515057D02*
X160210476Y-100610295D01*
X160210476Y-100610295D02*
X160210476Y-100705533D01*
X160210476Y-100705533D02*
X160162857Y-100848390D01*
X160162857Y-100848390D02*
X159591429Y-101419819D01*
X159591429Y-101419819D02*
X160210476Y-101419819D01*
X160543810Y-100419819D02*
X161162857Y-100419819D01*
X161162857Y-100419819D02*
X160829524Y-100800771D01*
X160829524Y-100800771D02*
X160972381Y-100800771D01*
X160972381Y-100800771D02*
X161067619Y-100848390D01*
X161067619Y-100848390D02*
X161115238Y-100896009D01*
X161115238Y-100896009D02*
X161162857Y-100991247D01*
X161162857Y-100991247D02*
X161162857Y-101229342D01*
X161162857Y-101229342D02*
X161115238Y-101324580D01*
X161115238Y-101324580D02*
X161067619Y-101372200D01*
X161067619Y-101372200D02*
X160972381Y-101419819D01*
X160972381Y-101419819D02*
X160686667Y-101419819D01*
X160686667Y-101419819D02*
X160591429Y-101372200D01*
X160591429Y-101372200D02*
X160543810Y-101324580D01*
X94654761Y-47849819D02*
X94321428Y-47373628D01*
X94083333Y-47849819D02*
X94083333Y-46849819D01*
X94083333Y-46849819D02*
X94464285Y-46849819D01*
X94464285Y-46849819D02*
X94559523Y-46897438D01*
X94559523Y-46897438D02*
X94607142Y-46945057D01*
X94607142Y-46945057D02*
X94654761Y-47040295D01*
X94654761Y-47040295D02*
X94654761Y-47183152D01*
X94654761Y-47183152D02*
X94607142Y-47278390D01*
X94607142Y-47278390D02*
X94559523Y-47326009D01*
X94559523Y-47326009D02*
X94464285Y-47373628D01*
X94464285Y-47373628D02*
X94083333Y-47373628D01*
X94940476Y-46849819D02*
X95273809Y-47849819D01*
X95273809Y-47849819D02*
X95607142Y-46849819D01*
X95988095Y-47849819D02*
X96178571Y-47849819D01*
X96178571Y-47849819D02*
X96273809Y-47802200D01*
X96273809Y-47802200D02*
X96321428Y-47754580D01*
X96321428Y-47754580D02*
X96416666Y-47611723D01*
X96416666Y-47611723D02*
X96464285Y-47421247D01*
X96464285Y-47421247D02*
X96464285Y-47040295D01*
X96464285Y-47040295D02*
X96416666Y-46945057D01*
X96416666Y-46945057D02*
X96369047Y-46897438D01*
X96369047Y-46897438D02*
X96273809Y-46849819D01*
X96273809Y-46849819D02*
X96083333Y-46849819D01*
X96083333Y-46849819D02*
X95988095Y-46897438D01*
X95988095Y-46897438D02*
X95940476Y-46945057D01*
X95940476Y-46945057D02*
X95892857Y-47040295D01*
X95892857Y-47040295D02*
X95892857Y-47278390D01*
X95892857Y-47278390D02*
X95940476Y-47373628D01*
X95940476Y-47373628D02*
X95988095Y-47421247D01*
X95988095Y-47421247D02*
X96083333Y-47468866D01*
X96083333Y-47468866D02*
X96273809Y-47468866D01*
X96273809Y-47468866D02*
X96369047Y-47421247D01*
X96369047Y-47421247D02*
X96416666Y-47373628D01*
X96416666Y-47373628D02*
X96464285Y-47278390D01*
X102060476Y-77559819D02*
X102060476Y-78274104D01*
X102060476Y-78274104D02*
X102012857Y-78416961D01*
X102012857Y-78416961D02*
X101917619Y-78512200D01*
X101917619Y-78512200D02*
X101774762Y-78559819D01*
X101774762Y-78559819D02*
X101679524Y-78559819D01*
X102489048Y-77655057D02*
X102536667Y-77607438D01*
X102536667Y-77607438D02*
X102631905Y-77559819D01*
X102631905Y-77559819D02*
X102870000Y-77559819D01*
X102870000Y-77559819D02*
X102965238Y-77607438D01*
X102965238Y-77607438D02*
X103012857Y-77655057D01*
X103012857Y-77655057D02*
X103060476Y-77750295D01*
X103060476Y-77750295D02*
X103060476Y-77845533D01*
X103060476Y-77845533D02*
X103012857Y-77988390D01*
X103012857Y-77988390D02*
X102441429Y-78559819D01*
X102441429Y-78559819D02*
X103060476Y-78559819D01*
X103679524Y-77559819D02*
X103774762Y-77559819D01*
X103774762Y-77559819D02*
X103870000Y-77607438D01*
X103870000Y-77607438D02*
X103917619Y-77655057D01*
X103917619Y-77655057D02*
X103965238Y-77750295D01*
X103965238Y-77750295D02*
X104012857Y-77940771D01*
X104012857Y-77940771D02*
X104012857Y-78178866D01*
X104012857Y-78178866D02*
X103965238Y-78369342D01*
X103965238Y-78369342D02*
X103917619Y-78464580D01*
X103917619Y-78464580D02*
X103870000Y-78512200D01*
X103870000Y-78512200D02*
X103774762Y-78559819D01*
X103774762Y-78559819D02*
X103679524Y-78559819D01*
X103679524Y-78559819D02*
X103584286Y-78512200D01*
X103584286Y-78512200D02*
X103536667Y-78464580D01*
X103536667Y-78464580D02*
X103489048Y-78369342D01*
X103489048Y-78369342D02*
X103441429Y-78178866D01*
X103441429Y-78178866D02*
X103441429Y-77940771D01*
X103441429Y-77940771D02*
X103489048Y-77750295D01*
X103489048Y-77750295D02*
X103536667Y-77655057D01*
X103536667Y-77655057D02*
X103584286Y-77607438D01*
X103584286Y-77607438D02*
X103679524Y-77559819D01*
X78887595Y-75183819D02*
X78887595Y-75993342D01*
X78887595Y-75993342D02*
X78935214Y-76088580D01*
X78935214Y-76088580D02*
X78982833Y-76136200D01*
X78982833Y-76136200D02*
X79078071Y-76183819D01*
X79078071Y-76183819D02*
X79268547Y-76183819D01*
X79268547Y-76183819D02*
X79363785Y-76136200D01*
X79363785Y-76136200D02*
X79411404Y-76088580D01*
X79411404Y-76088580D02*
X79459023Y-75993342D01*
X79459023Y-75993342D02*
X79459023Y-75183819D01*
X80363785Y-75517152D02*
X80363785Y-76183819D01*
X80125690Y-75136200D02*
X79887595Y-75850485D01*
X79887595Y-75850485D02*
X80506642Y-75850485D01*
X78887595Y-101853819D02*
X78887595Y-102663342D01*
X78887595Y-102663342D02*
X78935214Y-102758580D01*
X78935214Y-102758580D02*
X78982833Y-102806200D01*
X78982833Y-102806200D02*
X79078071Y-102853819D01*
X79078071Y-102853819D02*
X79268547Y-102853819D01*
X79268547Y-102853819D02*
X79363785Y-102806200D01*
X79363785Y-102806200D02*
X79411404Y-102758580D01*
X79411404Y-102758580D02*
X79459023Y-102663342D01*
X79459023Y-102663342D02*
X79459023Y-101853819D01*
X79982833Y-102853819D02*
X80173309Y-102853819D01*
X80173309Y-102853819D02*
X80268547Y-102806200D01*
X80268547Y-102806200D02*
X80316166Y-102758580D01*
X80316166Y-102758580D02*
X80411404Y-102615723D01*
X80411404Y-102615723D02*
X80459023Y-102425247D01*
X80459023Y-102425247D02*
X80459023Y-102044295D01*
X80459023Y-102044295D02*
X80411404Y-101949057D01*
X80411404Y-101949057D02*
X80363785Y-101901438D01*
X80363785Y-101901438D02*
X80268547Y-101853819D01*
X80268547Y-101853819D02*
X80078071Y-101853819D01*
X80078071Y-101853819D02*
X79982833Y-101901438D01*
X79982833Y-101901438D02*
X79935214Y-101949057D01*
X79935214Y-101949057D02*
X79887595Y-102044295D01*
X79887595Y-102044295D02*
X79887595Y-102282390D01*
X79887595Y-102282390D02*
X79935214Y-102377628D01*
X79935214Y-102377628D02*
X79982833Y-102425247D01*
X79982833Y-102425247D02*
X80078071Y-102472866D01*
X80078071Y-102472866D02*
X80268547Y-102472866D01*
X80268547Y-102472866D02*
X80363785Y-102425247D01*
X80363785Y-102425247D02*
X80411404Y-102377628D01*
X80411404Y-102377628D02*
X80459023Y-102282390D01*
X72056666Y-77559819D02*
X72056666Y-78274104D01*
X72056666Y-78274104D02*
X72009047Y-78416961D01*
X72009047Y-78416961D02*
X71913809Y-78512200D01*
X71913809Y-78512200D02*
X71770952Y-78559819D01*
X71770952Y-78559819D02*
X71675714Y-78559819D01*
X72485238Y-77655057D02*
X72532857Y-77607438D01*
X72532857Y-77607438D02*
X72628095Y-77559819D01*
X72628095Y-77559819D02*
X72866190Y-77559819D01*
X72866190Y-77559819D02*
X72961428Y-77607438D01*
X72961428Y-77607438D02*
X73009047Y-77655057D01*
X73009047Y-77655057D02*
X73056666Y-77750295D01*
X73056666Y-77750295D02*
X73056666Y-77845533D01*
X73056666Y-77845533D02*
X73009047Y-77988390D01*
X73009047Y-77988390D02*
X72437619Y-78559819D01*
X72437619Y-78559819D02*
X73056666Y-78559819D01*
X159210476Y-51294819D02*
X159210476Y-52009104D01*
X159210476Y-52009104D02*
X159162857Y-52151961D01*
X159162857Y-52151961D02*
X159067619Y-52247200D01*
X159067619Y-52247200D02*
X158924762Y-52294819D01*
X158924762Y-52294819D02*
X158829524Y-52294819D01*
X160210476Y-52294819D02*
X159639048Y-52294819D01*
X159924762Y-52294819D02*
X159924762Y-51294819D01*
X159924762Y-51294819D02*
X159829524Y-51437676D01*
X159829524Y-51437676D02*
X159734286Y-51532914D01*
X159734286Y-51532914D02*
X159639048Y-51580533D01*
X161067619Y-51294819D02*
X160877143Y-51294819D01*
X160877143Y-51294819D02*
X160781905Y-51342438D01*
X160781905Y-51342438D02*
X160734286Y-51390057D01*
X160734286Y-51390057D02*
X160639048Y-51532914D01*
X160639048Y-51532914D02*
X160591429Y-51723390D01*
X160591429Y-51723390D02*
X160591429Y-52104342D01*
X160591429Y-52104342D02*
X160639048Y-52199580D01*
X160639048Y-52199580D02*
X160686667Y-52247200D01*
X160686667Y-52247200D02*
X160781905Y-52294819D01*
X160781905Y-52294819D02*
X160972381Y-52294819D01*
X160972381Y-52294819D02*
X161067619Y-52247200D01*
X161067619Y-52247200D02*
X161115238Y-52199580D01*
X161115238Y-52199580D02*
X161162857Y-52104342D01*
X161162857Y-52104342D02*
X161162857Y-51866247D01*
X161162857Y-51866247D02*
X161115238Y-51771009D01*
X161115238Y-51771009D02*
X161067619Y-51723390D01*
X161067619Y-51723390D02*
X160972381Y-51675771D01*
X160972381Y-51675771D02*
X160781905Y-51675771D01*
X160781905Y-51675771D02*
X160686667Y-51723390D01*
X160686667Y-51723390D02*
X160639048Y-51771009D01*
X160639048Y-51771009D02*
X160591429Y-51866247D01*
X159210476Y-88989819D02*
X159210476Y-89704104D01*
X159210476Y-89704104D02*
X159162857Y-89846961D01*
X159162857Y-89846961D02*
X159067619Y-89942200D01*
X159067619Y-89942200D02*
X158924762Y-89989819D01*
X158924762Y-89989819D02*
X158829524Y-89989819D01*
X159639048Y-89085057D02*
X159686667Y-89037438D01*
X159686667Y-89037438D02*
X159781905Y-88989819D01*
X159781905Y-88989819D02*
X160020000Y-88989819D01*
X160020000Y-88989819D02*
X160115238Y-89037438D01*
X160115238Y-89037438D02*
X160162857Y-89085057D01*
X160162857Y-89085057D02*
X160210476Y-89180295D01*
X160210476Y-89180295D02*
X160210476Y-89275533D01*
X160210476Y-89275533D02*
X160162857Y-89418390D01*
X160162857Y-89418390D02*
X159591429Y-89989819D01*
X159591429Y-89989819D02*
X160210476Y-89989819D01*
X160543810Y-88989819D02*
X161210476Y-88989819D01*
X161210476Y-88989819D02*
X160781905Y-89989819D01*
X50038095Y-118859819D02*
X50038095Y-117859819D01*
X50038095Y-118336009D02*
X50609523Y-118336009D01*
X50609523Y-118859819D02*
X50609523Y-117859819D01*
X51609523Y-118859819D02*
X51038095Y-118859819D01*
X51323809Y-118859819D02*
X51323809Y-117859819D01*
X51323809Y-117859819D02*
X51228571Y-118002676D01*
X51228571Y-118002676D02*
X51133333Y-118097914D01*
X51133333Y-118097914D02*
X51038095Y-118145533D01*
X102195476Y-85179819D02*
X102195476Y-85894104D01*
X102195476Y-85894104D02*
X102147857Y-86036961D01*
X102147857Y-86036961D02*
X102052619Y-86132200D01*
X102052619Y-86132200D02*
X101909762Y-86179819D01*
X101909762Y-86179819D02*
X101814524Y-86179819D01*
X103195476Y-86179819D02*
X102624048Y-86179819D01*
X102909762Y-86179819D02*
X102909762Y-85179819D01*
X102909762Y-85179819D02*
X102814524Y-85322676D01*
X102814524Y-85322676D02*
X102719286Y-85417914D01*
X102719286Y-85417914D02*
X102624048Y-85465533D01*
X103528810Y-85179819D02*
X104195476Y-85179819D01*
X104195476Y-85179819D02*
X103766905Y-86179819D01*
X72191666Y-85179819D02*
X72191666Y-85894104D01*
X72191666Y-85894104D02*
X72144047Y-86036961D01*
X72144047Y-86036961D02*
X72048809Y-86132200D01*
X72048809Y-86132200D02*
X71905952Y-86179819D01*
X71905952Y-86179819D02*
X71810714Y-86179819D01*
X72572619Y-85179819D02*
X73191666Y-85179819D01*
X73191666Y-85179819D02*
X72858333Y-85560771D01*
X72858333Y-85560771D02*
X73001190Y-85560771D01*
X73001190Y-85560771D02*
X73096428Y-85608390D01*
X73096428Y-85608390D02*
X73144047Y-85656009D01*
X73144047Y-85656009D02*
X73191666Y-85751247D01*
X73191666Y-85751247D02*
X73191666Y-85989342D01*
X73191666Y-85989342D02*
X73144047Y-86084580D01*
X73144047Y-86084580D02*
X73096428Y-86132200D01*
X73096428Y-86132200D02*
X73001190Y-86179819D01*
X73001190Y-86179819D02*
X72715476Y-86179819D01*
X72715476Y-86179819D02*
X72620238Y-86132200D01*
X72620238Y-86132200D02*
X72572619Y-86084580D01*
X184658095Y-118859819D02*
X184658095Y-117859819D01*
X184658095Y-118336009D02*
X185229523Y-118336009D01*
X185229523Y-118859819D02*
X185229523Y-117859819D01*
X185610476Y-117859819D02*
X186229523Y-117859819D01*
X186229523Y-117859819D02*
X185896190Y-118240771D01*
X185896190Y-118240771D02*
X186039047Y-118240771D01*
X186039047Y-118240771D02*
X186134285Y-118288390D01*
X186134285Y-118288390D02*
X186181904Y-118336009D01*
X186181904Y-118336009D02*
X186229523Y-118431247D01*
X186229523Y-118431247D02*
X186229523Y-118669342D01*
X186229523Y-118669342D02*
X186181904Y-118764580D01*
X186181904Y-118764580D02*
X186134285Y-118812200D01*
X186134285Y-118812200D02*
X186039047Y-118859819D01*
X186039047Y-118859819D02*
X185753333Y-118859819D01*
X185753333Y-118859819D02*
X185658095Y-118812200D01*
X185658095Y-118812200D02*
X185610476Y-118764580D01*
X78771905Y-47079819D02*
X78771905Y-47889342D01*
X78771905Y-47889342D02*
X78819524Y-47984580D01*
X78819524Y-47984580D02*
X78867143Y-48032200D01*
X78867143Y-48032200D02*
X78962381Y-48079819D01*
X78962381Y-48079819D02*
X79152857Y-48079819D01*
X79152857Y-48079819D02*
X79248095Y-48032200D01*
X79248095Y-48032200D02*
X79295714Y-47984580D01*
X79295714Y-47984580D02*
X79343333Y-47889342D01*
X79343333Y-47889342D02*
X79343333Y-47079819D01*
X80343333Y-48079819D02*
X79771905Y-48079819D01*
X80057619Y-48079819D02*
X80057619Y-47079819D01*
X80057619Y-47079819D02*
X79962381Y-47222676D01*
X79962381Y-47222676D02*
X79867143Y-47317914D01*
X79867143Y-47317914D02*
X79771905Y-47365533D01*
X81295714Y-48079819D02*
X80724286Y-48079819D01*
X81010000Y-48079819D02*
X81010000Y-47079819D01*
X81010000Y-47079819D02*
X80914762Y-47222676D01*
X80914762Y-47222676D02*
X80819524Y-47317914D01*
X80819524Y-47317914D02*
X80724286Y-47365533D01*
X120848571Y-58009819D02*
X120515238Y-57533628D01*
X120277143Y-58009819D02*
X120277143Y-57009819D01*
X120277143Y-57009819D02*
X120658095Y-57009819D01*
X120658095Y-57009819D02*
X120753333Y-57057438D01*
X120753333Y-57057438D02*
X120800952Y-57105057D01*
X120800952Y-57105057D02*
X120848571Y-57200295D01*
X120848571Y-57200295D02*
X120848571Y-57343152D01*
X120848571Y-57343152D02*
X120800952Y-57438390D01*
X120800952Y-57438390D02*
X120753333Y-57486009D01*
X120753333Y-57486009D02*
X120658095Y-57533628D01*
X120658095Y-57533628D02*
X120277143Y-57533628D01*
X121134286Y-57009819D02*
X121467619Y-58009819D01*
X121467619Y-58009819D02*
X121800952Y-57009819D01*
X122658095Y-58009819D02*
X122086667Y-58009819D01*
X122372381Y-58009819D02*
X122372381Y-57009819D01*
X122372381Y-57009819D02*
X122277143Y-57152676D01*
X122277143Y-57152676D02*
X122181905Y-57247914D01*
X122181905Y-57247914D02*
X122086667Y-57295533D01*
X123610476Y-58009819D02*
X123039048Y-58009819D01*
X123324762Y-58009819D02*
X123324762Y-57009819D01*
X123324762Y-57009819D02*
X123229524Y-57152676D01*
X123229524Y-57152676D02*
X123134286Y-57247914D01*
X123134286Y-57247914D02*
X123039048Y-57295533D01*
X102060476Y-104229819D02*
X102060476Y-104944104D01*
X102060476Y-104944104D02*
X102012857Y-105086961D01*
X102012857Y-105086961D02*
X101917619Y-105182200D01*
X101917619Y-105182200D02*
X101774762Y-105229819D01*
X101774762Y-105229819D02*
X101679524Y-105229819D01*
X102489048Y-104325057D02*
X102536667Y-104277438D01*
X102536667Y-104277438D02*
X102631905Y-104229819D01*
X102631905Y-104229819D02*
X102870000Y-104229819D01*
X102870000Y-104229819D02*
X102965238Y-104277438D01*
X102965238Y-104277438D02*
X103012857Y-104325057D01*
X103012857Y-104325057D02*
X103060476Y-104420295D01*
X103060476Y-104420295D02*
X103060476Y-104515533D01*
X103060476Y-104515533D02*
X103012857Y-104658390D01*
X103012857Y-104658390D02*
X102441429Y-105229819D01*
X102441429Y-105229819D02*
X103060476Y-105229819D01*
X103441429Y-104325057D02*
X103489048Y-104277438D01*
X103489048Y-104277438D02*
X103584286Y-104229819D01*
X103584286Y-104229819D02*
X103822381Y-104229819D01*
X103822381Y-104229819D02*
X103917619Y-104277438D01*
X103917619Y-104277438D02*
X103965238Y-104325057D01*
X103965238Y-104325057D02*
X104012857Y-104420295D01*
X104012857Y-104420295D02*
X104012857Y-104515533D01*
X104012857Y-104515533D02*
X103965238Y-104658390D01*
X103965238Y-104658390D02*
X103393810Y-105229819D01*
X103393810Y-105229819D02*
X104012857Y-105229819D01*
X108891405Y-101853819D02*
X108891405Y-102663342D01*
X108891405Y-102663342D02*
X108939024Y-102758580D01*
X108939024Y-102758580D02*
X108986643Y-102806200D01*
X108986643Y-102806200D02*
X109081881Y-102853819D01*
X109081881Y-102853819D02*
X109272357Y-102853819D01*
X109272357Y-102853819D02*
X109367595Y-102806200D01*
X109367595Y-102806200D02*
X109415214Y-102758580D01*
X109415214Y-102758580D02*
X109462833Y-102663342D01*
X109462833Y-102663342D02*
X109462833Y-101853819D01*
X110462833Y-102853819D02*
X109891405Y-102853819D01*
X110177119Y-102853819D02*
X110177119Y-101853819D01*
X110177119Y-101853819D02*
X110081881Y-101996676D01*
X110081881Y-101996676D02*
X109986643Y-102091914D01*
X109986643Y-102091914D02*
X109891405Y-102139533D01*
X110939024Y-102853819D02*
X111129500Y-102853819D01*
X111129500Y-102853819D02*
X111224738Y-102806200D01*
X111224738Y-102806200D02*
X111272357Y-102758580D01*
X111272357Y-102758580D02*
X111367595Y-102615723D01*
X111367595Y-102615723D02*
X111415214Y-102425247D01*
X111415214Y-102425247D02*
X111415214Y-102044295D01*
X111415214Y-102044295D02*
X111367595Y-101949057D01*
X111367595Y-101949057D02*
X111319976Y-101901438D01*
X111319976Y-101901438D02*
X111224738Y-101853819D01*
X111224738Y-101853819D02*
X111034262Y-101853819D01*
X111034262Y-101853819D02*
X110939024Y-101901438D01*
X110939024Y-101901438D02*
X110891405Y-101949057D01*
X110891405Y-101949057D02*
X110843786Y-102044295D01*
X110843786Y-102044295D02*
X110843786Y-102282390D01*
X110843786Y-102282390D02*
X110891405Y-102377628D01*
X110891405Y-102377628D02*
X110939024Y-102425247D01*
X110939024Y-102425247D02*
X111034262Y-102472866D01*
X111034262Y-102472866D02*
X111224738Y-102472866D01*
X111224738Y-102472866D02*
X111319976Y-102425247D01*
X111319976Y-102425247D02*
X111367595Y-102377628D01*
X111367595Y-102377628D02*
X111415214Y-102282390D01*
X93916667Y-102642200D02*
X94059524Y-102689819D01*
X94059524Y-102689819D02*
X94297619Y-102689819D01*
X94297619Y-102689819D02*
X94392857Y-102642200D01*
X94392857Y-102642200D02*
X94440476Y-102594580D01*
X94440476Y-102594580D02*
X94488095Y-102499342D01*
X94488095Y-102499342D02*
X94488095Y-102404104D01*
X94488095Y-102404104D02*
X94440476Y-102308866D01*
X94440476Y-102308866D02*
X94392857Y-102261247D01*
X94392857Y-102261247D02*
X94297619Y-102213628D01*
X94297619Y-102213628D02*
X94107143Y-102166009D01*
X94107143Y-102166009D02*
X94011905Y-102118390D01*
X94011905Y-102118390D02*
X93964286Y-102070771D01*
X93964286Y-102070771D02*
X93916667Y-101975533D01*
X93916667Y-101975533D02*
X93916667Y-101880295D01*
X93916667Y-101880295D02*
X93964286Y-101785057D01*
X93964286Y-101785057D02*
X94011905Y-101737438D01*
X94011905Y-101737438D02*
X94107143Y-101689819D01*
X94107143Y-101689819D02*
X94345238Y-101689819D01*
X94345238Y-101689819D02*
X94488095Y-101737438D01*
X94821429Y-101689819D02*
X95059524Y-102689819D01*
X95059524Y-102689819D02*
X95250000Y-101975533D01*
X95250000Y-101975533D02*
X95440476Y-102689819D01*
X95440476Y-102689819D02*
X95678572Y-101689819D01*
X96011905Y-101785057D02*
X96059524Y-101737438D01*
X96059524Y-101737438D02*
X96154762Y-101689819D01*
X96154762Y-101689819D02*
X96392857Y-101689819D01*
X96392857Y-101689819D02*
X96488095Y-101737438D01*
X96488095Y-101737438D02*
X96535714Y-101785057D01*
X96535714Y-101785057D02*
X96583333Y-101880295D01*
X96583333Y-101880295D02*
X96583333Y-101975533D01*
X96583333Y-101975533D02*
X96535714Y-102118390D01*
X96535714Y-102118390D02*
X95964286Y-102689819D01*
X95964286Y-102689819D02*
X96583333Y-102689819D01*
X171283333Y-125214580D02*
X171235714Y-125262200D01*
X171235714Y-125262200D02*
X171092857Y-125309819D01*
X171092857Y-125309819D02*
X170997619Y-125309819D01*
X170997619Y-125309819D02*
X170854762Y-125262200D01*
X170854762Y-125262200D02*
X170759524Y-125166961D01*
X170759524Y-125166961D02*
X170711905Y-125071723D01*
X170711905Y-125071723D02*
X170664286Y-124881247D01*
X170664286Y-124881247D02*
X170664286Y-124738390D01*
X170664286Y-124738390D02*
X170711905Y-124547914D01*
X170711905Y-124547914D02*
X170759524Y-124452676D01*
X170759524Y-124452676D02*
X170854762Y-124357438D01*
X170854762Y-124357438D02*
X170997619Y-124309819D01*
X170997619Y-124309819D02*
X171092857Y-124309819D01*
X171092857Y-124309819D02*
X171235714Y-124357438D01*
X171235714Y-124357438D02*
X171283333Y-124405057D01*
X171616667Y-124309819D02*
X172235714Y-124309819D01*
X172235714Y-124309819D02*
X171902381Y-124690771D01*
X171902381Y-124690771D02*
X172045238Y-124690771D01*
X172045238Y-124690771D02*
X172140476Y-124738390D01*
X172140476Y-124738390D02*
X172188095Y-124786009D01*
X172188095Y-124786009D02*
X172235714Y-124881247D01*
X172235714Y-124881247D02*
X172235714Y-125119342D01*
X172235714Y-125119342D02*
X172188095Y-125214580D01*
X172188095Y-125214580D02*
X172140476Y-125262200D01*
X172140476Y-125262200D02*
X172045238Y-125309819D01*
X172045238Y-125309819D02*
X171759524Y-125309819D01*
X171759524Y-125309819D02*
X171664286Y-125262200D01*
X171664286Y-125262200D02*
X171616667Y-125214580D01*
X159210476Y-74154819D02*
X159210476Y-74869104D01*
X159210476Y-74869104D02*
X159162857Y-75011961D01*
X159162857Y-75011961D02*
X159067619Y-75107200D01*
X159067619Y-75107200D02*
X158924762Y-75154819D01*
X158924762Y-75154819D02*
X158829524Y-75154819D01*
X160210476Y-75154819D02*
X159639048Y-75154819D01*
X159924762Y-75154819D02*
X159924762Y-74154819D01*
X159924762Y-74154819D02*
X159829524Y-74297676D01*
X159829524Y-74297676D02*
X159734286Y-74392914D01*
X159734286Y-74392914D02*
X159639048Y-74440533D01*
X160591429Y-74250057D02*
X160639048Y-74202438D01*
X160639048Y-74202438D02*
X160734286Y-74154819D01*
X160734286Y-74154819D02*
X160972381Y-74154819D01*
X160972381Y-74154819D02*
X161067619Y-74202438D01*
X161067619Y-74202438D02*
X161115238Y-74250057D01*
X161115238Y-74250057D02*
X161162857Y-74345295D01*
X161162857Y-74345295D02*
X161162857Y-74440533D01*
X161162857Y-74440533D02*
X161115238Y-74583390D01*
X161115238Y-74583390D02*
X160543810Y-75154819D01*
X160543810Y-75154819D02*
X161162857Y-75154819D01*
X159686666Y-111619819D02*
X159686666Y-112334104D01*
X159686666Y-112334104D02*
X159639047Y-112476961D01*
X159639047Y-112476961D02*
X159543809Y-112572200D01*
X159543809Y-112572200D02*
X159400952Y-112619819D01*
X159400952Y-112619819D02*
X159305714Y-112619819D01*
X160591428Y-111953152D02*
X160591428Y-112619819D01*
X160353333Y-111572200D02*
X160115238Y-112286485D01*
X160115238Y-112286485D02*
X160734285Y-112286485D01*
X170640476Y-99309819D02*
X170640476Y-100024104D01*
X170640476Y-100024104D02*
X170592857Y-100166961D01*
X170592857Y-100166961D02*
X170497619Y-100262200D01*
X170497619Y-100262200D02*
X170354762Y-100309819D01*
X170354762Y-100309819D02*
X170259524Y-100309819D01*
X171021429Y-99309819D02*
X171640476Y-99309819D01*
X171640476Y-99309819D02*
X171307143Y-99690771D01*
X171307143Y-99690771D02*
X171450000Y-99690771D01*
X171450000Y-99690771D02*
X171545238Y-99738390D01*
X171545238Y-99738390D02*
X171592857Y-99786009D01*
X171592857Y-99786009D02*
X171640476Y-99881247D01*
X171640476Y-99881247D02*
X171640476Y-100119342D01*
X171640476Y-100119342D02*
X171592857Y-100214580D01*
X171592857Y-100214580D02*
X171545238Y-100262200D01*
X171545238Y-100262200D02*
X171450000Y-100309819D01*
X171450000Y-100309819D02*
X171164286Y-100309819D01*
X171164286Y-100309819D02*
X171069048Y-100262200D01*
X171069048Y-100262200D02*
X171021429Y-100214580D01*
X172259524Y-99309819D02*
X172354762Y-99309819D01*
X172354762Y-99309819D02*
X172450000Y-99357438D01*
X172450000Y-99357438D02*
X172497619Y-99405057D01*
X172497619Y-99405057D02*
X172545238Y-99500295D01*
X172545238Y-99500295D02*
X172592857Y-99690771D01*
X172592857Y-99690771D02*
X172592857Y-99928866D01*
X172592857Y-99928866D02*
X172545238Y-100119342D01*
X172545238Y-100119342D02*
X172497619Y-100214580D01*
X172497619Y-100214580D02*
X172450000Y-100262200D01*
X172450000Y-100262200D02*
X172354762Y-100309819D01*
X172354762Y-100309819D02*
X172259524Y-100309819D01*
X172259524Y-100309819D02*
X172164286Y-100262200D01*
X172164286Y-100262200D02*
X172116667Y-100214580D01*
X172116667Y-100214580D02*
X172069048Y-100119342D01*
X172069048Y-100119342D02*
X172021429Y-99928866D01*
X172021429Y-99928866D02*
X172021429Y-99690771D01*
X172021429Y-99690771D02*
X172069048Y-99500295D01*
X172069048Y-99500295D02*
X172116667Y-99405057D01*
X172116667Y-99405057D02*
X172164286Y-99357438D01*
X172164286Y-99357438D02*
X172259524Y-99309819D01*
X132754761Y-112849819D02*
X132421428Y-112373628D01*
X132183333Y-112849819D02*
X132183333Y-111849819D01*
X132183333Y-111849819D02*
X132564285Y-111849819D01*
X132564285Y-111849819D02*
X132659523Y-111897438D01*
X132659523Y-111897438D02*
X132707142Y-111945057D01*
X132707142Y-111945057D02*
X132754761Y-112040295D01*
X132754761Y-112040295D02*
X132754761Y-112183152D01*
X132754761Y-112183152D02*
X132707142Y-112278390D01*
X132707142Y-112278390D02*
X132659523Y-112326009D01*
X132659523Y-112326009D02*
X132564285Y-112373628D01*
X132564285Y-112373628D02*
X132183333Y-112373628D01*
X133040476Y-111849819D02*
X133373809Y-112849819D01*
X133373809Y-112849819D02*
X133707142Y-111849819D01*
X134469047Y-112183152D02*
X134469047Y-112849819D01*
X134230952Y-111802200D02*
X133992857Y-112516485D01*
X133992857Y-112516485D02*
X134611904Y-112516485D01*
X108891405Y-75183819D02*
X108891405Y-75993342D01*
X108891405Y-75993342D02*
X108939024Y-76088580D01*
X108939024Y-76088580D02*
X108986643Y-76136200D01*
X108986643Y-76136200D02*
X109081881Y-76183819D01*
X109081881Y-76183819D02*
X109272357Y-76183819D01*
X109272357Y-76183819D02*
X109367595Y-76136200D01*
X109367595Y-76136200D02*
X109415214Y-76088580D01*
X109415214Y-76088580D02*
X109462833Y-75993342D01*
X109462833Y-75993342D02*
X109462833Y-75183819D01*
X110462833Y-76183819D02*
X109891405Y-76183819D01*
X110177119Y-76183819D02*
X110177119Y-75183819D01*
X110177119Y-75183819D02*
X110081881Y-75326676D01*
X110081881Y-75326676D02*
X109986643Y-75421914D01*
X109986643Y-75421914D02*
X109891405Y-75469533D01*
X110796167Y-75183819D02*
X111462833Y-75183819D01*
X111462833Y-75183819D02*
X111034262Y-76183819D01*
X159210476Y-62724819D02*
X159210476Y-63439104D01*
X159210476Y-63439104D02*
X159162857Y-63581961D01*
X159162857Y-63581961D02*
X159067619Y-63677200D01*
X159067619Y-63677200D02*
X158924762Y-63724819D01*
X158924762Y-63724819D02*
X158829524Y-63724819D01*
X160210476Y-63724819D02*
X159639048Y-63724819D01*
X159924762Y-63724819D02*
X159924762Y-62724819D01*
X159924762Y-62724819D02*
X159829524Y-62867676D01*
X159829524Y-62867676D02*
X159734286Y-62962914D01*
X159734286Y-62962914D02*
X159639048Y-63010533D01*
X161067619Y-63058152D02*
X161067619Y-63724819D01*
X160829524Y-62677200D02*
X160591429Y-63391485D01*
X160591429Y-63391485D02*
X161210476Y-63391485D01*
X122753571Y-48079819D02*
X122420238Y-47603628D01*
X122182143Y-48079819D02*
X122182143Y-47079819D01*
X122182143Y-47079819D02*
X122563095Y-47079819D01*
X122563095Y-47079819D02*
X122658333Y-47127438D01*
X122658333Y-47127438D02*
X122705952Y-47175057D01*
X122705952Y-47175057D02*
X122753571Y-47270295D01*
X122753571Y-47270295D02*
X122753571Y-47413152D01*
X122753571Y-47413152D02*
X122705952Y-47508390D01*
X122705952Y-47508390D02*
X122658333Y-47556009D01*
X122658333Y-47556009D02*
X122563095Y-47603628D01*
X122563095Y-47603628D02*
X122182143Y-47603628D01*
X123039286Y-47079819D02*
X123372619Y-48079819D01*
X123372619Y-48079819D02*
X123705952Y-47079819D01*
X124563095Y-48079819D02*
X123991667Y-48079819D01*
X124277381Y-48079819D02*
X124277381Y-47079819D01*
X124277381Y-47079819D02*
X124182143Y-47222676D01*
X124182143Y-47222676D02*
X124086905Y-47317914D01*
X124086905Y-47317914D02*
X123991667Y-47365533D01*
X124896429Y-47079819D02*
X125563095Y-47079819D01*
X125563095Y-47079819D02*
X125134524Y-48079819D01*
X72056666Y-52159819D02*
X72056666Y-52874104D01*
X72056666Y-52874104D02*
X72009047Y-53016961D01*
X72009047Y-53016961D02*
X71913809Y-53112200D01*
X71913809Y-53112200D02*
X71770952Y-53159819D01*
X71770952Y-53159819D02*
X71675714Y-53159819D01*
X72580476Y-53159819D02*
X72770952Y-53159819D01*
X72770952Y-53159819D02*
X72866190Y-53112200D01*
X72866190Y-53112200D02*
X72913809Y-53064580D01*
X72913809Y-53064580D02*
X73009047Y-52921723D01*
X73009047Y-52921723D02*
X73056666Y-52731247D01*
X73056666Y-52731247D02*
X73056666Y-52350295D01*
X73056666Y-52350295D02*
X73009047Y-52255057D01*
X73009047Y-52255057D02*
X72961428Y-52207438D01*
X72961428Y-52207438D02*
X72866190Y-52159819D01*
X72866190Y-52159819D02*
X72675714Y-52159819D01*
X72675714Y-52159819D02*
X72580476Y-52207438D01*
X72580476Y-52207438D02*
X72532857Y-52255057D01*
X72532857Y-52255057D02*
X72485238Y-52350295D01*
X72485238Y-52350295D02*
X72485238Y-52588390D01*
X72485238Y-52588390D02*
X72532857Y-52683628D01*
X72532857Y-52683628D02*
X72580476Y-52731247D01*
X72580476Y-52731247D02*
X72675714Y-52778866D01*
X72675714Y-52778866D02*
X72866190Y-52778866D01*
X72866190Y-52778866D02*
X72961428Y-52731247D01*
X72961428Y-52731247D02*
X73009047Y-52683628D01*
X73009047Y-52683628D02*
X73056666Y-52588390D01*
X50038095Y-42659819D02*
X50038095Y-41659819D01*
X50038095Y-42136009D02*
X50609523Y-42136009D01*
X50609523Y-42659819D02*
X50609523Y-41659819D01*
X50990476Y-41659819D02*
X51657142Y-41659819D01*
X51657142Y-41659819D02*
X51228571Y-42659819D01*
X105608571Y-58239819D02*
X105275238Y-57763628D01*
X105037143Y-58239819D02*
X105037143Y-57239819D01*
X105037143Y-57239819D02*
X105418095Y-57239819D01*
X105418095Y-57239819D02*
X105513333Y-57287438D01*
X105513333Y-57287438D02*
X105560952Y-57335057D01*
X105560952Y-57335057D02*
X105608571Y-57430295D01*
X105608571Y-57430295D02*
X105608571Y-57573152D01*
X105608571Y-57573152D02*
X105560952Y-57668390D01*
X105560952Y-57668390D02*
X105513333Y-57716009D01*
X105513333Y-57716009D02*
X105418095Y-57763628D01*
X105418095Y-57763628D02*
X105037143Y-57763628D01*
X105894286Y-57239819D02*
X106227619Y-58239819D01*
X106227619Y-58239819D02*
X106560952Y-57239819D01*
X107418095Y-58239819D02*
X106846667Y-58239819D01*
X107132381Y-58239819D02*
X107132381Y-57239819D01*
X107132381Y-57239819D02*
X107037143Y-57382676D01*
X107037143Y-57382676D02*
X106941905Y-57477914D01*
X106941905Y-57477914D02*
X106846667Y-57525533D01*
X107751429Y-57239819D02*
X108370476Y-57239819D01*
X108370476Y-57239819D02*
X108037143Y-57620771D01*
X108037143Y-57620771D02*
X108180000Y-57620771D01*
X108180000Y-57620771D02*
X108275238Y-57668390D01*
X108275238Y-57668390D02*
X108322857Y-57716009D01*
X108322857Y-57716009D02*
X108370476Y-57811247D01*
X108370476Y-57811247D02*
X108370476Y-58049342D01*
X108370476Y-58049342D02*
X108322857Y-58144580D01*
X108322857Y-58144580D02*
X108275238Y-58192200D01*
X108275238Y-58192200D02*
X108180000Y-58239819D01*
X108180000Y-58239819D02*
X107894286Y-58239819D01*
X107894286Y-58239819D02*
X107799048Y-58192200D01*
X107799048Y-58192200D02*
X107751429Y-58144580D01*
D14*
%TO.C,J28*%
X101370000Y-116205000D02*
X101370000Y-113555000D01*
X104370000Y-113555000D02*
X101370000Y-113555000D01*
X104370000Y-116205000D02*
X101370000Y-116205000D01*
X104370000Y-116205000D02*
X104370000Y-113555000D01*
X104370000Y-117475000D02*
X104370000Y-118855000D01*
X104370000Y-118855000D02*
X102990000Y-118855000D01*
%TO.C,U8*%
X138720000Y-103445000D02*
X138720000Y-121345000D01*
X138720000Y-121345000D02*
X143220000Y-121345000D01*
X139970000Y-103445000D02*
X138720000Y-103445000D01*
X143220000Y-103445000D02*
X141970000Y-103445000D01*
X143220000Y-121345000D02*
X143220000Y-103445000D01*
X135720000Y-103385000D02*
X146220000Y-103385000D01*
X146220000Y-121405000D01*
X135720000Y-121405000D01*
X135720000Y-103385000D01*
X141970000Y-103445000D02*
G75*
G02*
X139970000Y-103445000I-1000000J0D01*
G01*
%TO.C,J8*%
X70890000Y-116205000D02*
X70890000Y-113555000D01*
X73890000Y-113555000D02*
X70890000Y-113555000D01*
X73890000Y-116205000D02*
X70890000Y-116205000D01*
X73890000Y-116205000D02*
X73890000Y-113555000D01*
X73890000Y-117475000D02*
X73890000Y-118855000D01*
X73890000Y-118855000D02*
X72510000Y-118855000D01*
%TO.C,U15*%
X112050000Y-48835000D02*
X112050000Y-66735000D01*
X112050000Y-66735000D02*
X116550000Y-66735000D01*
X113300000Y-48835000D02*
X112050000Y-48835000D01*
X116550000Y-48835000D02*
X115300000Y-48835000D01*
X116550000Y-66735000D02*
X116550000Y-48835000D01*
X109050000Y-48775000D02*
X119550000Y-48775000D01*
X119550000Y-66795000D01*
X109050000Y-66795000D01*
X109050000Y-48775000D01*
X115300000Y-48835000D02*
G75*
G02*
X113300000Y-48835000I-1000000J0D01*
G01*
%TO.C,J7*%
X70890000Y-105935000D02*
X72270000Y-105935000D01*
X70890000Y-107315000D02*
X70890000Y-105935000D01*
X70890000Y-108585000D02*
X70890000Y-111235000D01*
X70890000Y-108585000D02*
X73890000Y-108585000D01*
X70890000Y-111235000D02*
X73890000Y-111235000D01*
X73890000Y-108585000D02*
X73890000Y-111235000D01*
%TO.C,RV18*%
X105180000Y-53975000D02*
X105180000Y-48835000D01*
X105180000Y-56575000D02*
X105180000Y-55245000D01*
X106510000Y-56575000D02*
X105180000Y-56575000D01*
X108180000Y-48835000D02*
X105180000Y-48835000D01*
X108180000Y-53975000D02*
X105180000Y-53975000D01*
X108180000Y-53975000D02*
X108180000Y-48835000D01*
%TO.C,J23*%
X158520000Y-104775000D02*
X158520000Y-107375000D01*
X158520000Y-104775000D02*
X161520000Y-104775000D01*
X158520000Y-107375000D02*
X161520000Y-107375000D01*
X160190000Y-102175000D02*
X161520000Y-102175000D01*
X161520000Y-102175000D02*
X161520000Y-103505000D01*
X161520000Y-104775000D02*
X161520000Y-107375000D01*
%TO.C,RV9*%
X93750000Y-51435000D02*
X93750000Y-56575000D01*
X93750000Y-51435000D02*
X96750000Y-51435000D01*
X93750000Y-56575000D02*
X96750000Y-56575000D01*
X95420000Y-48835000D02*
X96750000Y-48835000D01*
X96750000Y-48835000D02*
X96750000Y-50165000D01*
X96750000Y-51435000D02*
X96750000Y-56575000D01*
%TO.C,J20*%
X101370000Y-79265000D02*
X102750000Y-79265000D01*
X101370000Y-80645000D02*
X101370000Y-79265000D01*
X101370000Y-81915000D02*
X101370000Y-84565000D01*
X101370000Y-81915000D02*
X104370000Y-81915000D01*
X101370000Y-84565000D02*
X104370000Y-84565000D01*
X104370000Y-81915000D02*
X104370000Y-84565000D01*
%TO.C,U4*%
X81570000Y-76775000D02*
X81570000Y-94675000D01*
X81570000Y-94675000D02*
X86070000Y-94675000D01*
X82820000Y-76775000D02*
X81570000Y-76775000D01*
X86070000Y-76775000D02*
X84820000Y-76775000D01*
X86070000Y-94675000D02*
X86070000Y-76775000D01*
X78570000Y-76715000D02*
X89070000Y-76715000D01*
X89070000Y-94735000D01*
X78570000Y-94735000D01*
X78570000Y-76715000D01*
X84820000Y-76775000D02*
G75*
G02*
X82820000Y-76775000I-1000000J0D01*
G01*
%TO.C,U9*%
X81570000Y-103445000D02*
X81570000Y-121345000D01*
X81570000Y-121345000D02*
X86070000Y-121345000D01*
X82820000Y-103445000D02*
X81570000Y-103445000D01*
X86070000Y-103445000D02*
X84820000Y-103445000D01*
X86070000Y-121345000D02*
X86070000Y-103445000D01*
X78570000Y-103385000D02*
X89070000Y-103385000D01*
X89070000Y-121405000D01*
X78570000Y-121405000D01*
X78570000Y-103385000D01*
X84820000Y-103445000D02*
G75*
G02*
X82820000Y-103445000I-1000000J0D01*
G01*
%TO.C,J2*%
X70890000Y-79265000D02*
X72270000Y-79265000D01*
X70890000Y-80645000D02*
X70890000Y-79265000D01*
X70890000Y-81915000D02*
X70890000Y-84565000D01*
X70890000Y-81915000D02*
X73890000Y-81915000D01*
X70890000Y-84565000D02*
X73890000Y-84565000D01*
X73890000Y-81915000D02*
X73890000Y-84565000D01*
%TO.C,J16*%
X158520000Y-55880000D02*
X158520000Y-58480000D01*
X158520000Y-55880000D02*
X161520000Y-55880000D01*
X158520000Y-58480000D02*
X161520000Y-58480000D01*
X160190000Y-53280000D02*
X161520000Y-53280000D01*
X161520000Y-53280000D02*
X161520000Y-54610000D01*
X161520000Y-55880000D02*
X161520000Y-58480000D01*
%TO.C,J27*%
X158520000Y-93345000D02*
X158520000Y-95945000D01*
X158520000Y-93345000D02*
X161520000Y-93345000D01*
X158520000Y-95945000D02*
X161520000Y-95945000D01*
X160190000Y-90745000D02*
X161520000Y-90745000D01*
X161520000Y-90745000D02*
X161520000Y-92075000D01*
X161520000Y-93345000D02*
X161520000Y-95945000D01*
%TO.C,J17*%
X101370000Y-89535000D02*
X101370000Y-86885000D01*
X104370000Y-86885000D02*
X101370000Y-86885000D01*
X104370000Y-89535000D02*
X101370000Y-89535000D01*
X104370000Y-89535000D02*
X104370000Y-86885000D01*
X104370000Y-90805000D02*
X104370000Y-92185000D01*
X104370000Y-92185000D02*
X102990000Y-92185000D01*
%TO.C,J3*%
X70890000Y-89535000D02*
X70890000Y-86885000D01*
X73890000Y-86885000D02*
X70890000Y-86885000D01*
X73890000Y-89535000D02*
X70890000Y-89535000D01*
X73890000Y-89535000D02*
X73890000Y-86885000D01*
X73890000Y-90805000D02*
X73890000Y-92185000D01*
X73890000Y-92185000D02*
X72510000Y-92185000D01*
%TO.C,U11*%
X81570000Y-48835000D02*
X81570000Y-66735000D01*
X81570000Y-66735000D02*
X86070000Y-66735000D01*
X82820000Y-48835000D02*
X81570000Y-48835000D01*
X86070000Y-48835000D02*
X84820000Y-48835000D01*
X86070000Y-66735000D02*
X86070000Y-48835000D01*
X78570000Y-48775000D02*
X89070000Y-48775000D01*
X89070000Y-66795000D01*
X78570000Y-66795000D01*
X78570000Y-48775000D01*
X84820000Y-48835000D02*
G75*
G02*
X82820000Y-48835000I-1000000J0D01*
G01*
%TO.C,RV11*%
X120420000Y-61595000D02*
X120420000Y-66735000D01*
X120420000Y-61595000D02*
X123420000Y-61595000D01*
X120420000Y-66735000D02*
X123420000Y-66735000D01*
X122090000Y-58995000D02*
X123420000Y-58995000D01*
X123420000Y-58995000D02*
X123420000Y-60325000D01*
X123420000Y-61595000D02*
X123420000Y-66735000D01*
X124230000Y-61595000D02*
X124230000Y-66735000D01*
X124230000Y-61595000D02*
X127230000Y-61595000D01*
X124230000Y-66735000D02*
X127230000Y-66735000D01*
X125900000Y-58995000D02*
X127230000Y-58995000D01*
X127230000Y-58995000D02*
X127230000Y-60325000D01*
X127230000Y-61595000D02*
X127230000Y-66735000D01*
%TO.C,J22*%
X101370000Y-105935000D02*
X102750000Y-105935000D01*
X101370000Y-107315000D02*
X101370000Y-105935000D01*
X101370000Y-108585000D02*
X101370000Y-111235000D01*
X101370000Y-108585000D02*
X104370000Y-108585000D01*
X101370000Y-111235000D02*
X104370000Y-111235000D01*
X104370000Y-108585000D02*
X104370000Y-111235000D01*
%TO.C,U19*%
X112050000Y-103445000D02*
X112050000Y-121345000D01*
X112050000Y-121345000D02*
X116550000Y-121345000D01*
X113300000Y-103445000D02*
X112050000Y-103445000D01*
X116550000Y-103445000D02*
X115300000Y-103445000D01*
X116550000Y-121345000D02*
X116550000Y-103445000D01*
X109050000Y-103385000D02*
X119550000Y-103385000D01*
X119550000Y-121405000D01*
X109050000Y-121405000D01*
X109050000Y-103385000D01*
X115300000Y-103445000D02*
G75*
G02*
X113300000Y-103445000I-1000000J0D01*
G01*
%TO.C,SW2*%
X93750000Y-103395000D02*
X95130000Y-103395000D01*
X93750000Y-104775000D02*
X93750000Y-103395000D01*
X93750000Y-106045000D02*
X93750000Y-111235000D01*
X93750000Y-106045000D02*
X96750000Y-106045000D01*
X93750000Y-111235000D02*
X96750000Y-111235000D01*
X96750000Y-106045000D02*
X96750000Y-111235000D01*
%TO.C,C3*%
X172161252Y-121195000D02*
X170738748Y-121195000D01*
X172161252Y-123915000D02*
X170738748Y-123915000D01*
%TO.C,J12*%
X158520000Y-78740000D02*
X158520000Y-81340000D01*
X158520000Y-78740000D02*
X161520000Y-78740000D01*
X158520000Y-81340000D02*
X161520000Y-81340000D01*
X160190000Y-76140000D02*
X161520000Y-76140000D01*
X161520000Y-76140000D02*
X161520000Y-77470000D01*
X161520000Y-78740000D02*
X161520000Y-81340000D01*
%TO.C,J4*%
X158520000Y-116205000D02*
X158520000Y-118805000D01*
X158520000Y-116205000D02*
X161520000Y-116205000D01*
X158520000Y-118805000D02*
X161520000Y-118805000D01*
X160190000Y-113605000D02*
X161520000Y-113605000D01*
X161520000Y-113605000D02*
X161520000Y-114935000D01*
X161520000Y-116205000D02*
X161520000Y-118805000D01*
%TO.C,J30*%
X168800000Y-100855000D02*
X170180000Y-100855000D01*
X168800000Y-102235000D02*
X168800000Y-100855000D01*
X168800000Y-103505000D02*
X168800000Y-118855000D01*
X168800000Y-103505000D02*
X171450000Y-103505000D01*
X168800000Y-118855000D02*
X174100000Y-118855000D01*
X171450000Y-100855000D02*
X174100000Y-100855000D01*
X171450000Y-103505000D02*
X171450000Y-100855000D01*
X174100000Y-100855000D02*
X174100000Y-118855000D01*
%TO.C,RV4*%
X131850000Y-118745000D02*
X131850000Y-113605000D01*
X131850000Y-121345000D02*
X131850000Y-120015000D01*
X133180000Y-121345000D02*
X131850000Y-121345000D01*
X134850000Y-113605000D02*
X131850000Y-113605000D01*
X134850000Y-118745000D02*
X131850000Y-118745000D01*
X134850000Y-118745000D02*
X134850000Y-113605000D01*
%TO.C,U17*%
X112050000Y-76775000D02*
X112050000Y-94675000D01*
X112050000Y-94675000D02*
X116550000Y-94675000D01*
X113300000Y-76775000D02*
X112050000Y-76775000D01*
X116550000Y-76775000D02*
X115300000Y-76775000D01*
X116550000Y-94675000D02*
X116550000Y-76775000D01*
X109050000Y-76715000D02*
X119550000Y-76715000D01*
X119550000Y-94735000D01*
X109050000Y-94735000D01*
X109050000Y-76715000D01*
X115300000Y-76775000D02*
G75*
G02*
X113300000Y-76775000I-1000000J0D01*
G01*
%TO.C,J14*%
X158520000Y-67310000D02*
X158520000Y-69910000D01*
X158520000Y-67310000D02*
X161520000Y-67310000D01*
X158520000Y-69910000D02*
X161520000Y-69910000D01*
X160190000Y-64710000D02*
X161520000Y-64710000D01*
X161520000Y-64710000D02*
X161520000Y-66040000D01*
X161520000Y-67310000D02*
X161520000Y-69910000D01*
%TO.C,RV17*%
X120420000Y-53975000D02*
X120420000Y-48835000D01*
X120420000Y-56575000D02*
X120420000Y-55245000D01*
X121750000Y-56575000D02*
X120420000Y-56575000D01*
X123420000Y-48835000D02*
X120420000Y-48835000D01*
X123420000Y-53975000D02*
X120420000Y-53975000D01*
X123420000Y-53975000D02*
X123420000Y-48835000D01*
X124230000Y-53975000D02*
X124230000Y-48835000D01*
X124230000Y-56575000D02*
X124230000Y-55245000D01*
X125560000Y-56575000D02*
X124230000Y-56575000D01*
X127230000Y-48835000D02*
X124230000Y-48835000D01*
X127230000Y-53975000D02*
X124230000Y-53975000D01*
X127230000Y-53975000D02*
X127230000Y-48835000D01*
%TO.C,J9*%
X70890000Y-53865000D02*
X72270000Y-53865000D01*
X70890000Y-55245000D02*
X70890000Y-53865000D01*
X70890000Y-56515000D02*
X70890000Y-61705000D01*
X70890000Y-56515000D02*
X73890000Y-56515000D01*
X70890000Y-61705000D02*
X73890000Y-61705000D01*
X73890000Y-56515000D02*
X73890000Y-61705000D01*
%TO.C,RV13*%
X105180000Y-61595000D02*
X105180000Y-66735000D01*
X105180000Y-61595000D02*
X108180000Y-61595000D01*
X105180000Y-66735000D02*
X108180000Y-66735000D01*
X106850000Y-58995000D02*
X108180000Y-58995000D01*
X108180000Y-58995000D02*
X108180000Y-60325000D01*
X108180000Y-61595000D02*
X108180000Y-66735000D01*
%TD*%
M02*
