%TF.GenerationSoftware,KiCad,Pcbnew,9.0.8*%
%TF.CreationDate,2026-03-17T16:50:21+01:00*%
%TF.ProjectId,Output,4f757470-7574-42e6-9b69-6361645f7063,1*%
%TF.SameCoordinates,Original*%
%TF.FileFunction,Soldermask,Top*%
%TF.FilePolarity,Negative*%
%FSLAX46Y46*%
G04 Gerber Fmt 4.6, Leading zero omitted, Abs format (unit mm)*
G04 Created by KiCad (PCBNEW 9.0.8) date 2026-03-17 16:50:21*
%MOMM*%
%LPD*%
G01*
G04 APERTURE LIST*
G04 Aperture macros list*
%AMRoundRect*
0 Rectangle with rounded corners*
0 $1 Rounding radius*
0 $2 $3 $4 $5 $6 $7 $8 $9 X,Y pos of 4 corners*
0 Add a 4 corners polygon primitive as box body*
4,1,4,$2,$3,$4,$5,$6,$7,$8,$9,$2,$3,0*
0 Add four circle primitives for the rounded corners*
1,1,$1+$1,$2,$3*
1,1,$1+$1,$4,$5*
1,1,$1+$1,$6,$7*
1,1,$1+$1,$8,$9*
0 Add four rect primitives between the rounded corners*
20,1,$1+$1,$2,$3,$4,$5,0*
20,1,$1+$1,$4,$5,$6,$7,0*
20,1,$1+$1,$6,$7,$8,$9,0*
20,1,$1+$1,$8,$9,$2,$3,0*%
G04 Aperture macros list end*
%ADD10R,2.600000X1.600000*%
%ADD11O,2.600000X1.600000*%
%ADD12RoundRect,0.250000X-0.350000X-0.450000X0.350000X-0.450000X0.350000X0.450000X-0.350000X0.450000X0*%
%ADD13RoundRect,0.250000X0.350000X0.450000X-0.350000X0.450000X-0.350000X-0.450000X0.350000X-0.450000X0*%
%ADD14RoundRect,0.250000X-0.950000X-0.550000X0.950000X-0.550000X0.950000X0.550000X-0.950000X0.550000X0*%
%ADD15O,2.400000X1.600000*%
%ADD16RoundRect,0.250000X0.412500X1.100000X-0.412500X1.100000X-0.412500X-1.100000X0.412500X-1.100000X0*%
%ADD17R,1.700000X1.700000*%
%ADD18C,1.700000*%
%ADD19C,6.400000*%
%ADD20RoundRect,0.250000X0.337500X0.475000X-0.337500X0.475000X-0.337500X-0.475000X0.337500X-0.475000X0*%
G04 APERTURE END LIST*
D10*
%TO.C,RV12*%
X161290000Y-105410000D03*
D11*
X161290000Y-102870000D03*
X161290000Y-100330000D03*
%TD*%
D12*
%TO.C,Z60*%
X126000000Y-144780000D03*
X128000000Y-144780000D03*
%TD*%
D10*
%TO.C,J6*%
X100330000Y-45720000D03*
D11*
X100330000Y-43180000D03*
%TD*%
D10*
%TO.C,RV8*%
X107950000Y-100330000D03*
D11*
X107950000Y-102870000D03*
X107950000Y-105410000D03*
%TD*%
D13*
%TO.C,Z268*%
X154670000Y-115570000D03*
X152670000Y-115570000D03*
%TD*%
D10*
%TO.C,J19*%
X123190000Y-45720000D03*
D11*
X123190000Y-43180000D03*
%TD*%
D10*
%TO.C,RV14*%
X107950000Y-115570000D03*
D11*
X107950000Y-113030000D03*
X107950000Y-110490000D03*
%TD*%
D14*
%TO.C,U16*%
X195580000Y-71120000D03*
D15*
X195580000Y-73660000D03*
X195580000Y-76200000D03*
X195580000Y-78740000D03*
X195580000Y-81280000D03*
X195580000Y-83820000D03*
X195580000Y-86360000D03*
X203200000Y-86360000D03*
X203200000Y-83820000D03*
X203200000Y-81280000D03*
X203200000Y-78740000D03*
X203200000Y-76200000D03*
X203200000Y-73660000D03*
X203200000Y-71120000D03*
%TD*%
D12*
%TO.C,R12*%
X152670000Y-124460000D03*
X154670000Y-124460000D03*
%TD*%
D14*
%TO.C,U1*%
X115570000Y-129540000D03*
D15*
X115570000Y-132080000D03*
X115570000Y-134620000D03*
X115570000Y-137160000D03*
X115570000Y-139700000D03*
X115570000Y-142240000D03*
X115570000Y-144780000D03*
X123190000Y-144780000D03*
X123190000Y-142240000D03*
X123190000Y-139700000D03*
X123190000Y-137160000D03*
X123190000Y-134620000D03*
X123190000Y-132080000D03*
X123190000Y-129540000D03*
%TD*%
D12*
%TO.C,R152*%
X148860000Y-102870000D03*
X150860000Y-102870000D03*
%TD*%
D10*
%TO.C,RV6*%
X149860000Y-139700000D03*
D11*
X149860000Y-142240000D03*
X149860000Y-144780000D03*
X153670000Y-144780000D03*
X153670000Y-142240000D03*
D10*
X153670000Y-139700000D03*
%TD*%
D14*
%TO.C,U12*%
X195520000Y-100330000D03*
D15*
X195520000Y-102870000D03*
X195520000Y-105410000D03*
X195520000Y-107950000D03*
X195520000Y-110490000D03*
X195520000Y-113030000D03*
X195520000Y-115570000D03*
X203140000Y-115570000D03*
X203140000Y-113030000D03*
X203140000Y-110490000D03*
X203140000Y-107950000D03*
X203140000Y-105410000D03*
X203140000Y-102870000D03*
X203140000Y-100330000D03*
%TD*%
D14*
%TO.C,U21*%
X138430000Y-71120000D03*
D15*
X138430000Y-73660000D03*
X138430000Y-76200000D03*
X138430000Y-78740000D03*
X138430000Y-81280000D03*
X138430000Y-83820000D03*
X138430000Y-86360000D03*
X146050000Y-86360000D03*
X146050000Y-83820000D03*
X146050000Y-81280000D03*
X146050000Y-78740000D03*
X146050000Y-76200000D03*
X146050000Y-73660000D03*
X146050000Y-71120000D03*
%TD*%
D12*
%TO.C,Z270*%
X148860000Y-110490000D03*
X150860000Y-110490000D03*
%TD*%
D10*
%TO.C,RV20*%
X153670000Y-43180000D03*
D11*
X153670000Y-45720000D03*
X153670000Y-48260000D03*
%TD*%
D16*
%TO.C,C4*%
X219367500Y-144780000D03*
X216242500Y-144780000D03*
%TD*%
D10*
%TO.C,J18*%
X100330000Y-53340000D03*
D11*
X100330000Y-50800000D03*
%TD*%
D10*
%TO.C,RV10*%
X176530000Y-105410000D03*
D11*
X176530000Y-102870000D03*
X176530000Y-100330000D03*
X180340000Y-100330000D03*
X180340000Y-102870000D03*
D10*
X180340000Y-105410000D03*
%TD*%
D13*
%TO.C,Z20*%
X128000000Y-132080000D03*
X126000000Y-132080000D03*
%TD*%
D14*
%TO.C,U20*%
X165100000Y-43180000D03*
D15*
X165100000Y-45720000D03*
X165100000Y-48260000D03*
X165100000Y-50800000D03*
X165100000Y-53340000D03*
X165100000Y-55880000D03*
X165100000Y-58420000D03*
X172720000Y-58420000D03*
X172720000Y-55880000D03*
X172720000Y-53340000D03*
X172720000Y-50800000D03*
X172720000Y-48260000D03*
X172720000Y-45720000D03*
X172720000Y-43180000D03*
%TD*%
D14*
%TO.C,U5*%
X138430000Y-129540000D03*
D15*
X138430000Y-132080000D03*
X138430000Y-134620000D03*
X138430000Y-137160000D03*
X138430000Y-139700000D03*
X138430000Y-142240000D03*
X138430000Y-144780000D03*
X146050000Y-144780000D03*
X146050000Y-142240000D03*
X146050000Y-139700000D03*
X146050000Y-137160000D03*
X146050000Y-134620000D03*
X146050000Y-132080000D03*
X146050000Y-129540000D03*
%TD*%
D10*
%TO.C,RV2*%
X149860000Y-134620000D03*
D11*
X149860000Y-132080000D03*
X149860000Y-129540000D03*
X153670000Y-129540000D03*
X153670000Y-132080000D03*
D10*
X153670000Y-134620000D03*
%TD*%
%TO.C,J24*%
X100330000Y-113030000D03*
D11*
X100330000Y-115570000D03*
%TD*%
D14*
%TO.C,U13*%
X165100000Y-71120000D03*
D15*
X165100000Y-73660000D03*
X165100000Y-76200000D03*
X165100000Y-78740000D03*
X165100000Y-81280000D03*
X165100000Y-83820000D03*
X165100000Y-86360000D03*
X172720000Y-86360000D03*
X172720000Y-83820000D03*
X172720000Y-81280000D03*
X172720000Y-78740000D03*
X172720000Y-76200000D03*
X172720000Y-73660000D03*
X172720000Y-71120000D03*
%TD*%
D10*
%TO.C,J21*%
X115570000Y-45720000D03*
D11*
X115570000Y-43180000D03*
%TD*%
D10*
%TO.C,J15*%
X100330000Y-83820000D03*
D11*
X100330000Y-86360000D03*
%TD*%
D10*
%TO.C,J25*%
X100330000Y-60960000D03*
D11*
X100330000Y-58420000D03*
%TD*%
D10*
%TO.C,J29*%
X100330000Y-73660000D03*
D11*
X100330000Y-71120000D03*
%TD*%
D17*
%TO.C,J31*%
X210820000Y-134620000D03*
D18*
X213360000Y-134620000D03*
X210820000Y-137160000D03*
X213360000Y-137160000D03*
X210820000Y-139700000D03*
X213360000Y-139700000D03*
X210820000Y-142240000D03*
X213360000Y-142240000D03*
X210820000Y-144780000D03*
X213360000Y-144780000D03*
X210820000Y-147320000D03*
X213360000Y-147320000D03*
X210820000Y-149860000D03*
X213360000Y-149860000D03*
%TD*%
D10*
%TO.C,RV16*%
X161290000Y-110490000D03*
D11*
X161290000Y-113030000D03*
X161290000Y-115570000D03*
%TD*%
D19*
%TO.C,H4*%
X223520000Y-148590000D03*
%TD*%
D10*
%TO.C,J11*%
X115570000Y-60960000D03*
D11*
X115570000Y-58420000D03*
%TD*%
D10*
%TO.C,SW7*%
X149860000Y-43180000D03*
D11*
X149860000Y-45720000D03*
%TD*%
D12*
%TO.C,Z266*%
X148860000Y-105410000D03*
X150860000Y-105410000D03*
%TD*%
D14*
%TO.C,U2*%
X165100000Y-129540000D03*
D15*
X165100000Y-132080000D03*
X165100000Y-134620000D03*
X165100000Y-137160000D03*
X165100000Y-139700000D03*
X165100000Y-142240000D03*
X165100000Y-144780000D03*
X172720000Y-144780000D03*
X172720000Y-142240000D03*
X172720000Y-139700000D03*
X172720000Y-137160000D03*
X172720000Y-134620000D03*
X172720000Y-132080000D03*
X172720000Y-129540000D03*
%TD*%
D10*
%TO.C,J1*%
X107950000Y-45720000D03*
D11*
X107950000Y-43180000D03*
%TD*%
D14*
%TO.C,U18*%
X115570000Y-71120000D03*
D15*
X115570000Y-73660000D03*
X115570000Y-76200000D03*
X115570000Y-78740000D03*
X115570000Y-81280000D03*
X115570000Y-83820000D03*
X115570000Y-86360000D03*
X123190000Y-86360000D03*
X123190000Y-83820000D03*
X123190000Y-81280000D03*
X123190000Y-78740000D03*
X123190000Y-76200000D03*
X123190000Y-73660000D03*
X123190000Y-71120000D03*
%TD*%
D10*
%TO.C,SW4*%
X111760000Y-100330000D03*
D11*
X111760000Y-102870000D03*
%TD*%
D14*
%TO.C,U6*%
X195580000Y-129540000D03*
D15*
X195580000Y-132080000D03*
X195580000Y-134620000D03*
X195580000Y-137160000D03*
X195580000Y-139700000D03*
X195580000Y-142240000D03*
X195580000Y-144780000D03*
X203200000Y-144780000D03*
X203200000Y-142240000D03*
X203200000Y-139700000D03*
X203200000Y-137160000D03*
X203200000Y-134620000D03*
X203200000Y-132080000D03*
X203200000Y-129540000D03*
%TD*%
D10*
%TO.C,SW3*%
X111760000Y-144780000D03*
D11*
X111760000Y-142240000D03*
%TD*%
D12*
%TO.C,R46*%
X145685000Y-149860000D03*
X147685000Y-149860000D03*
%TD*%
D13*
%TO.C,Z264*%
X154670000Y-121920000D03*
X152670000Y-121920000D03*
%TD*%
D10*
%TO.C,SW1*%
X111760000Y-129540000D03*
D11*
X111760000Y-132080000D03*
%TD*%
D10*
%TO.C,RV3*%
X134620000Y-134620000D03*
D11*
X134620000Y-132080000D03*
X134620000Y-129540000D03*
%TD*%
D10*
%TO.C,J10*%
X107950000Y-60960000D03*
D11*
X107950000Y-58420000D03*
%TD*%
D10*
%TO.C,J26*%
X115570000Y-53340000D03*
D11*
X115570000Y-50800000D03*
%TD*%
D10*
%TO.C,RV15*%
X176530000Y-110490000D03*
D11*
X176530000Y-113030000D03*
X176530000Y-115570000D03*
X180340000Y-115570000D03*
X180340000Y-113030000D03*
D10*
X180340000Y-110490000D03*
%TD*%
%TO.C,J5*%
X100330000Y-142240000D03*
D11*
X100330000Y-144780000D03*
%TD*%
D10*
%TO.C,RV21*%
X130810000Y-71120000D03*
D11*
X130810000Y-73660000D03*
X130810000Y-76200000D03*
%TD*%
D20*
%TO.C,C36*%
X169917500Y-97155000D03*
X167842500Y-97155000D03*
%TD*%
D12*
%TO.C,Z17*%
X126000000Y-129540000D03*
X128000000Y-129540000D03*
%TD*%
D10*
%TO.C,J13*%
X100330000Y-129540000D03*
D11*
X100330000Y-132080000D03*
%TD*%
D10*
%TO.C,RV7*%
X134620000Y-139700000D03*
D11*
X134620000Y-142240000D03*
X134620000Y-144780000D03*
%TD*%
D10*
%TO.C,J32*%
X123190000Y-60960000D03*
D11*
X123190000Y-58420000D03*
%TD*%
D10*
%TO.C,SW9*%
X134620000Y-71120000D03*
D11*
X134620000Y-73660000D03*
%TD*%
D14*
%TO.C,U3*%
X195580000Y-43180000D03*
D15*
X195580000Y-45720000D03*
X195580000Y-48260000D03*
X195580000Y-50800000D03*
X195580000Y-53340000D03*
X195580000Y-55880000D03*
X195580000Y-58420000D03*
X203200000Y-58420000D03*
X203200000Y-55880000D03*
X203200000Y-53340000D03*
X203200000Y-50800000D03*
X203200000Y-48260000D03*
X203200000Y-45720000D03*
X203200000Y-43180000D03*
%TD*%
D13*
%TO.C,Z61*%
X128000000Y-139700000D03*
X126000000Y-139700000D03*
%TD*%
D12*
%TO.C,R154*%
X148860000Y-113030000D03*
X150860000Y-113030000D03*
%TD*%
D10*
%TO.C,RV1*%
X107950000Y-129540000D03*
D11*
X107950000Y-132080000D03*
X107950000Y-134620000D03*
%TD*%
D12*
%TO.C,R155*%
X126000000Y-137160000D03*
X128000000Y-137160000D03*
%TD*%
D10*
%TO.C,RV5*%
X107950000Y-144780000D03*
D11*
X107950000Y-142240000D03*
X107950000Y-139700000D03*
%TD*%
D13*
%TO.C,Z64*%
X128000000Y-147320000D03*
X126000000Y-147320000D03*
%TD*%
D12*
%TO.C,R153*%
X126000000Y-124460000D03*
X128000000Y-124460000D03*
%TD*%
D13*
%TO.C,Z265*%
X154670000Y-105410000D03*
X152670000Y-105410000D03*
%TD*%
D20*
%TO.C,C15*%
X143277500Y-126365000D03*
X141202500Y-126365000D03*
%TD*%
D14*
%TO.C,U22*%
X138430000Y-43180000D03*
D15*
X138430000Y-45720000D03*
X138430000Y-48260000D03*
X138430000Y-50800000D03*
X138430000Y-53340000D03*
X138430000Y-55880000D03*
X138430000Y-58420000D03*
X146050000Y-58420000D03*
X146050000Y-55880000D03*
X146050000Y-53340000D03*
X146050000Y-50800000D03*
X146050000Y-48260000D03*
X146050000Y-45720000D03*
X146050000Y-43180000D03*
%TD*%
D10*
%TO.C,SW6*%
X107950000Y-71120000D03*
D11*
X107950000Y-73660000D03*
%TD*%
D10*
%TO.C,RV22*%
X153670000Y-58420000D03*
D11*
X153670000Y-55880000D03*
X153670000Y-53340000D03*
%TD*%
D19*
%TO.C,H5*%
X88900000Y-148590000D03*
%TD*%
D10*
%TO.C,SW5*%
X111760000Y-115570000D03*
D11*
X111760000Y-113030000D03*
%TD*%
D10*
%TO.C,SW8*%
X107950000Y-86360000D03*
D11*
X107950000Y-83820000D03*
%TD*%
D12*
%TO.C,R22*%
X145685000Y-126365000D03*
X147685000Y-126365000D03*
%TD*%
%TO.C,Z263*%
X152670000Y-102870000D03*
X154670000Y-102870000D03*
%TD*%
D20*
%TO.C,C25*%
X143277500Y-149860000D03*
X141202500Y-149860000D03*
%TD*%
D12*
%TO.C,R37*%
X152670000Y-118110000D03*
X154670000Y-118110000D03*
%TD*%
%TO.C,R73*%
X172355000Y-97155000D03*
X174355000Y-97155000D03*
%TD*%
D19*
%TO.C,H2*%
X88900000Y-41910000D03*
%TD*%
D10*
%TO.C,RV19*%
X149860000Y-71120000D03*
D11*
X149860000Y-73660000D03*
X149860000Y-76200000D03*
X153670000Y-76200000D03*
X153670000Y-73660000D03*
D10*
X153670000Y-71120000D03*
%TD*%
D14*
%TO.C,U7*%
X138370000Y-100270000D03*
D15*
X138370000Y-102810000D03*
X138370000Y-105350000D03*
X138370000Y-107890000D03*
X138370000Y-110430000D03*
X138370000Y-112970000D03*
X138370000Y-115510000D03*
X145990000Y-115510000D03*
X145990000Y-112970000D03*
X145990000Y-110430000D03*
X145990000Y-107890000D03*
X145990000Y-105350000D03*
X145990000Y-102810000D03*
X145990000Y-100270000D03*
%TD*%
D12*
%TO.C,R99*%
X172355000Y-120015000D03*
X174355000Y-120015000D03*
%TD*%
D14*
%TO.C,U14*%
X165100000Y-100330000D03*
D15*
X165100000Y-102870000D03*
X165100000Y-105410000D03*
X165100000Y-107950000D03*
X165100000Y-110490000D03*
X165100000Y-113030000D03*
X165100000Y-115570000D03*
X172720000Y-115570000D03*
X172720000Y-113030000D03*
X172720000Y-110490000D03*
X172720000Y-107950000D03*
X172720000Y-105410000D03*
X172720000Y-102870000D03*
X172720000Y-100330000D03*
%TD*%
D14*
%TO.C,U10*%
X115570000Y-100330000D03*
D15*
X115570000Y-102870000D03*
X115570000Y-105410000D03*
X115570000Y-107950000D03*
X115570000Y-110490000D03*
X115570000Y-113030000D03*
X115570000Y-115570000D03*
X123190000Y-115570000D03*
X123190000Y-113030000D03*
X123190000Y-110490000D03*
X123190000Y-107950000D03*
X123190000Y-105410000D03*
X123190000Y-102870000D03*
X123190000Y-100330000D03*
%TD*%
D10*
%TO.C,SW10*%
X149860000Y-58420000D03*
D11*
X149860000Y-55880000D03*
%TD*%
D19*
%TO.C,H8*%
X223520000Y-41910000D03*
%TD*%
D12*
%TO.C,Z267*%
X152670000Y-113030000D03*
X154670000Y-113030000D03*
%TD*%
D13*
%TO.C,Z18*%
X128000000Y-127000000D03*
X126000000Y-127000000D03*
%TD*%
%TO.C,Z269*%
X154670000Y-110490000D03*
X152670000Y-110490000D03*
%TD*%
D20*
%TO.C,C47*%
X169947500Y-120015000D03*
X167872500Y-120015000D03*
%TD*%
M02*
