%TF.GenerationSoftware,KiCad,Pcbnew,9.0.8*%
%TF.CreationDate,2026-03-17T16:50:21+01:00*%
%TF.ProjectId,Output,4f757470-7574-42e6-9b69-6361645f7063,1*%
%TF.SameCoordinates,Original*%
%TF.FileFunction,Copper,L3,Inr*%
%TF.FilePolarity,Positive*%
%FSLAX46Y46*%
G04 Gerber Fmt 4.6, Leading zero omitted, Abs format (unit mm)*
G04 Created by KiCad (PCBNEW 9.0.8) date 2026-03-17 16:50:21*
%MOMM*%
%LPD*%
G01*
G04 APERTURE LIST*
G04 Aperture macros list*
%AMRoundRect*
0 Rectangle with rounded corners*
0 $1 Rounding radius*
0 $2 $3 $4 $5 $6 $7 $8 $9 X,Y pos of 4 corners*
0 Add a 4 corners polygon primitive as box body*
4,1,4,$2,$3,$4,$5,$6,$7,$8,$9,$2,$3,0*
0 Add four circle primitives for the rounded corners*
1,1,$1+$1,$2,$3*
1,1,$1+$1,$4,$5*
1,1,$1+$1,$6,$7*
1,1,$1+$1,$8,$9*
0 Add four rect primitives between the rounded corners*
20,1,$1+$1,$2,$3,$4,$5,0*
20,1,$1+$1,$4,$5,$6,$7,0*
20,1,$1+$1,$6,$7,$8,$9,0*
20,1,$1+$1,$8,$9,$2,$3,0*%
G04 Aperture macros list end*
%TA.AperFunction,ComponentPad*%
%ADD10R,2.600000X1.600000*%
%TD*%
%TA.AperFunction,ComponentPad*%
%ADD11O,2.600000X1.600000*%
%TD*%
%TA.AperFunction,ComponentPad*%
%ADD12RoundRect,0.250000X-0.950000X-0.550000X0.950000X-0.550000X0.950000X0.550000X-0.950000X0.550000X0*%
%TD*%
%TA.AperFunction,ComponentPad*%
%ADD13O,2.400000X1.600000*%
%TD*%
%TA.AperFunction,ComponentPad*%
%ADD14R,1.700000X1.700000*%
%TD*%
%TA.AperFunction,ComponentPad*%
%ADD15C,1.700000*%
%TD*%
%TA.AperFunction,ComponentPad*%
%ADD16C,6.400000*%
%TD*%
%TA.AperFunction,ViaPad*%
%ADD17C,0.700000*%
%TD*%
G04 APERTURE END LIST*
D10*
%TO.N,Net-(R64-Pad1)*%
%TO.C,RV12*%
X161290000Y-105410000D03*
D11*
%TO.N,Net-(U14A-+)*%
X161290000Y-102870000D03*
%TO.N,Net-(R55-Pad2)*%
X161290000Y-100330000D03*
%TD*%
D10*
%TO.N,Net-(J6-Pin_1)*%
%TO.C,J6*%
X100330000Y-45720000D03*
D11*
%TO.N,GND_O*%
X100330000Y-43180000D03*
%TD*%
D10*
%TO.N,Net-(SW4-A)*%
%TO.C,RV8*%
X107950000Y-100330000D03*
D11*
%TO.N,Net-(SW4-B)*%
X107950000Y-102870000D03*
X107950000Y-105410000D03*
%TD*%
D10*
%TO.N,Net-(J19-Pin_1)*%
%TO.C,J19*%
X123190000Y-45720000D03*
D11*
%TO.N,GND_O*%
X123190000Y-43180000D03*
%TD*%
D10*
%TO.N,Net-(SW5-A)*%
%TO.C,RV14*%
X107950000Y-115570000D03*
D11*
%TO.N,Net-(SW5-B)*%
X107950000Y-113030000D03*
X107950000Y-110490000D03*
%TD*%
D12*
%TO.N,Net-(U16A--)*%
%TO.C,U16*%
X195580000Y-71120000D03*
D13*
X195580000Y-73660000D03*
%TO.N,Net-(U16A-+)*%
X195580000Y-76200000D03*
%TO.N,+15V_O*%
X195580000Y-78740000D03*
%TO.N,Net-(U16B-+)*%
X195580000Y-81280000D03*
%TO.N,Net-(U16B--)*%
X195580000Y-83820000D03*
X195580000Y-86360000D03*
%TO.N,Net-(U16C--)*%
X203200000Y-86360000D03*
X203200000Y-83820000D03*
%TO.N,Net-(U16C-+)*%
X203200000Y-81280000D03*
%TO.N,-15V_O*%
X203200000Y-78740000D03*
%TO.N,Net-(U16D-+)*%
X203200000Y-76200000D03*
%TO.N,Net-(U16D--)*%
X203200000Y-73660000D03*
X203200000Y-71120000D03*
%TD*%
D12*
%TO.N,Net-(SW1-A)*%
%TO.C,U1*%
X115570000Y-129540000D03*
D13*
%TO.N,Net-(SW1-B)*%
X115570000Y-132080000D03*
%TO.N,Net-(U10A-+)*%
X115570000Y-134620000D03*
%TO.N,+15V_O*%
X115570000Y-137160000D03*
%TO.N,Net-(U10A-+)*%
X115570000Y-139700000D03*
%TO.N,Net-(SW3-B)*%
X115570000Y-142240000D03*
%TO.N,Net-(SW3-A)*%
X115570000Y-144780000D03*
%TO.N,Net-(R27-Pad2)*%
X123190000Y-144780000D03*
%TO.N,Net-(U1C--)*%
X123190000Y-142240000D03*
%TO.N,Net-(U1C-+)*%
X123190000Y-139700000D03*
%TO.N,-15V_O*%
X123190000Y-137160000D03*
%TO.N,Net-(U1D-+)*%
X123190000Y-134620000D03*
%TO.N,Net-(U1D--)*%
X123190000Y-132080000D03*
%TO.N,Net-(R2-Pad2)*%
X123190000Y-129540000D03*
%TD*%
D10*
%TO.N,Net-(U5C-+)*%
%TO.C,RV6*%
X149860000Y-139700000D03*
D11*
X149860000Y-142240000D03*
%TO.N,Net-(R46-Pad2)*%
X149860000Y-144780000D03*
%TO.N,Net-(R47-Pad2)*%
X153670000Y-144780000D03*
%TO.N,Net-(U5C-+)*%
X153670000Y-142240000D03*
D10*
X153670000Y-139700000D03*
%TD*%
D12*
%TO.N,Net-(U12A--)*%
%TO.C,U12*%
X195520000Y-100330000D03*
D13*
X195520000Y-102870000D03*
%TO.N,Net-(U12A-+)*%
X195520000Y-105410000D03*
%TO.N,+15V_O*%
X195520000Y-107950000D03*
%TO.N,Net-(U12B-+)*%
X195520000Y-110490000D03*
%TO.N,Net-(U12B--)*%
X195520000Y-113030000D03*
X195520000Y-115570000D03*
%TO.N,Net-(U12C--)*%
X203140000Y-115570000D03*
X203140000Y-113030000D03*
%TO.N,Net-(U12C-+)*%
X203140000Y-110490000D03*
%TO.N,-15V_O*%
X203140000Y-107950000D03*
%TO.N,Net-(U12D-+)*%
X203140000Y-105410000D03*
%TO.N,Net-(U12D--)*%
X203140000Y-102870000D03*
X203140000Y-100330000D03*
%TD*%
D12*
%TO.N,Net-(SW9-A)*%
%TO.C,U21*%
X138430000Y-71120000D03*
D13*
%TO.N,Net-(SW9-B)*%
X138430000Y-73660000D03*
%TO.N,Net-(U21A-+)*%
X138430000Y-76200000D03*
%TO.N,+15V_O*%
X138430000Y-78740000D03*
%TO.N,Net-(U21B-+)*%
X138430000Y-81280000D03*
%TO.N,Net-(U21B--)*%
X138430000Y-83820000D03*
%TO.N,Net-(R112-Pad1)*%
X138430000Y-86360000D03*
%TO.N,Net-(R118-Pad1)*%
X146050000Y-86360000D03*
%TO.N,Net-(U21C--)*%
X146050000Y-83820000D03*
%TO.N,Net-(U21C-+)*%
X146050000Y-81280000D03*
%TO.N,-15V_O*%
X146050000Y-78740000D03*
%TO.N,Net-(U21D-+)*%
X146050000Y-76200000D03*
%TO.N,Net-(U21D--)*%
X146050000Y-73660000D03*
%TO.N,Net-(R130-Pad1)*%
X146050000Y-71120000D03*
%TD*%
D10*
%TO.N,Net-(SW7-A)*%
%TO.C,RV20*%
X153670000Y-43180000D03*
D11*
%TO.N,Net-(SW7-B)*%
X153670000Y-45720000D03*
X153670000Y-48260000D03*
%TD*%
D10*
%TO.N,Net-(J18-Pin_1)*%
%TO.C,J18*%
X100330000Y-53340000D03*
D11*
%TO.N,GND_O*%
X100330000Y-50800000D03*
%TD*%
D10*
%TO.N,Net-(U14D-+)*%
%TO.C,RV10*%
X176530000Y-105410000D03*
D11*
X176530000Y-102870000D03*
%TO.N,Net-(R73-Pad2)*%
X176530000Y-100330000D03*
%TO.N,Net-(R74-Pad2)*%
X180340000Y-100330000D03*
%TO.N,Net-(U14D-+)*%
X180340000Y-102870000D03*
D10*
X180340000Y-105410000D03*
%TD*%
D12*
%TO.N,Net-(U20A--)*%
%TO.C,U20*%
X165100000Y-43180000D03*
D13*
X165100000Y-45720000D03*
%TO.N,Net-(U20A-+)*%
X165100000Y-48260000D03*
%TO.N,+15V_O*%
X165100000Y-50800000D03*
%TO.N,Net-(U20B-+)*%
X165100000Y-53340000D03*
%TO.N,Net-(U20B--)*%
X165100000Y-55880000D03*
%TO.N,Net-(R156-Pad1)*%
X165100000Y-58420000D03*
%TO.N,Net-(R109-Pad2)*%
X172720000Y-58420000D03*
%TO.N,Net-(U20C--)*%
X172720000Y-55880000D03*
%TO.N,Net-(U20C-+)*%
X172720000Y-53340000D03*
%TO.N,-15V_O*%
X172720000Y-50800000D03*
%TO.N,Net-(U20A-+)*%
X172720000Y-48260000D03*
%TO.N,Net-(U20D--)*%
X172720000Y-45720000D03*
X172720000Y-43180000D03*
%TD*%
D12*
%TO.N,Net-(U5A--)*%
%TO.C,U5*%
X138430000Y-129540000D03*
D13*
X138430000Y-132080000D03*
%TO.N,Net-(U5A-+)*%
X138430000Y-134620000D03*
%TO.N,+15V_O*%
X138430000Y-137160000D03*
%TO.N,Net-(U5B-+)*%
X138430000Y-139700000D03*
%TO.N,Net-(U5B--)*%
X138430000Y-142240000D03*
X138430000Y-144780000D03*
%TO.N,Net-(R31-Pad2)*%
X146050000Y-144780000D03*
%TO.N,Net-(U5C--)*%
X146050000Y-142240000D03*
%TO.N,Net-(U5C-+)*%
X146050000Y-139700000D03*
%TO.N,-15V_O*%
X146050000Y-137160000D03*
%TO.N,Net-(U5D-+)*%
X146050000Y-134620000D03*
%TO.N,Net-(U5D--)*%
X146050000Y-132080000D03*
%TO.N,Net-(R8-Pad2)*%
X146050000Y-129540000D03*
%TD*%
D10*
%TO.N,Net-(U5D-+)*%
%TO.C,RV2*%
X149860000Y-134620000D03*
D11*
X149860000Y-132080000D03*
%TO.N,Net-(R22-Pad2)*%
X149860000Y-129540000D03*
%TO.N,Net-(R23-Pad2)*%
X153670000Y-129540000D03*
%TO.N,Net-(U5D-+)*%
X153670000Y-132080000D03*
D10*
X153670000Y-134620000D03*
%TD*%
%TO.N,Net-(J24-Pin_1)*%
%TO.C,J24*%
X100330000Y-113030000D03*
D11*
%TO.N,Net-(J24-Pin_2)*%
X100330000Y-115570000D03*
%TD*%
D12*
%TO.N,Net-(U13A--)*%
%TO.C,U13*%
X165100000Y-71120000D03*
D13*
X165100000Y-73660000D03*
%TO.N,Net-(U13A-+)*%
X165100000Y-76200000D03*
%TO.N,+15V_O*%
X165100000Y-78740000D03*
%TO.N,Net-(U13B-+)*%
X165100000Y-81280000D03*
%TO.N,Net-(U13B--)*%
X165100000Y-83820000D03*
X165100000Y-86360000D03*
%TO.N,Net-(U13C--)*%
X172720000Y-86360000D03*
X172720000Y-83820000D03*
%TO.N,Net-(U13B-+)*%
X172720000Y-81280000D03*
%TO.N,-15V_O*%
X172720000Y-78740000D03*
%TO.N,Net-(U13A-+)*%
X172720000Y-76200000D03*
%TO.N,Net-(U13D--)*%
X172720000Y-73660000D03*
X172720000Y-71120000D03*
%TD*%
D10*
%TO.N,Net-(J21-Pin_1)*%
%TO.C,J21*%
X115570000Y-45720000D03*
D11*
%TO.N,GND_O*%
X115570000Y-43180000D03*
%TD*%
D10*
%TO.N,Net-(J15-Pin_1)*%
%TO.C,J15*%
X100330000Y-83820000D03*
D11*
%TO.N,Net-(J15-Pin_2)*%
X100330000Y-86360000D03*
%TD*%
D10*
%TO.N,Net-(J25-Pin_1)*%
%TO.C,J25*%
X100330000Y-60960000D03*
D11*
%TO.N,GND_O*%
X100330000Y-58420000D03*
%TD*%
D10*
%TO.N,Net-(J29-Pin_1)*%
%TO.C,J29*%
X100330000Y-73660000D03*
D11*
%TO.N,Net-(J29-Pin_2)*%
X100330000Y-71120000D03*
%TD*%
D14*
%TO.N,9V_GND_O*%
%TO.C,J31*%
X210820000Y-134620000D03*
D15*
X213360000Y-134620000D03*
X210820000Y-137160000D03*
X213360000Y-137160000D03*
%TO.N,+9V_O*%
X210820000Y-139700000D03*
X213360000Y-139700000D03*
%TO.N,-15V_O*%
X210820000Y-142240000D03*
X213360000Y-142240000D03*
%TO.N,GND_O*%
X210820000Y-144780000D03*
X213360000Y-144780000D03*
X210820000Y-147320000D03*
X213360000Y-147320000D03*
%TO.N,+15V_O*%
X210820000Y-149860000D03*
X213360000Y-149860000D03*
%TD*%
D10*
%TO.N,Net-(R91-Pad1)*%
%TO.C,RV16*%
X161290000Y-110490000D03*
D11*
%TO.N,Net-(U14B-+)*%
X161290000Y-113030000D03*
%TO.N,Net-(R84-Pad2)*%
X161290000Y-115570000D03*
%TD*%
D16*
%TO.N,Net-(C4-Pad1)*%
%TO.C,H4*%
X223520000Y-148590000D03*
%TD*%
D10*
%TO.N,Net-(J11-Pin_1)*%
%TO.C,J11*%
X115570000Y-60960000D03*
D11*
%TO.N,GND_O*%
X115570000Y-58420000D03*
%TD*%
D10*
%TO.N,Net-(SW7-A)*%
%TO.C,SW7*%
X149860000Y-43180000D03*
D11*
%TO.N,Net-(SW7-B)*%
X149860000Y-45720000D03*
%TD*%
D12*
%TO.N,Net-(U2A--)*%
%TO.C,U2*%
X165100000Y-129540000D03*
D13*
X165100000Y-132080000D03*
%TO.N,Net-(U2A-+)*%
X165100000Y-134620000D03*
%TO.N,+15V_O*%
X165100000Y-137160000D03*
%TO.N,Net-(U2B-+)*%
X165100000Y-139700000D03*
%TO.N,Net-(U2B--)*%
X165100000Y-142240000D03*
X165100000Y-144780000D03*
%TO.N,Net-(U2C--)*%
X172720000Y-144780000D03*
X172720000Y-142240000D03*
%TO.N,Net-(U2C-+)*%
X172720000Y-139700000D03*
%TO.N,-15V_O*%
X172720000Y-137160000D03*
%TO.N,Net-(U2D-+)*%
X172720000Y-134620000D03*
%TO.N,Net-(U2D--)*%
X172720000Y-132080000D03*
X172720000Y-129540000D03*
%TD*%
D10*
%TO.N,Net-(J1-Pin_1)*%
%TO.C,J1*%
X107950000Y-45720000D03*
D11*
%TO.N,GND_O*%
X107950000Y-43180000D03*
%TD*%
D12*
%TO.N,Net-(SW6-A)*%
%TO.C,U18*%
X115570000Y-71120000D03*
D13*
%TO.N,Net-(SW6-B)*%
X115570000Y-73660000D03*
%TO.N,Net-(U10A-+)*%
X115570000Y-76200000D03*
%TO.N,+15V_O*%
X115570000Y-78740000D03*
%TO.N,Net-(U18B-+)*%
X115570000Y-81280000D03*
%TO.N,Net-(SW8-B)*%
X115570000Y-83820000D03*
%TO.N,Net-(SW8-A)*%
X115570000Y-86360000D03*
%TO.N,Net-(R125-Pad1)*%
X123190000Y-86360000D03*
%TO.N,Net-(U18C--)*%
X123190000Y-83820000D03*
%TO.N,Net-(U18C-+)*%
X123190000Y-81280000D03*
%TO.N,-15V_O*%
X123190000Y-78740000D03*
%TO.N,Net-(U18D-+)*%
X123190000Y-76200000D03*
%TO.N,Net-(U18D--)*%
X123190000Y-73660000D03*
%TO.N,Net-(R108-Pad1)*%
X123190000Y-71120000D03*
%TD*%
D10*
%TO.N,Net-(SW4-A)*%
%TO.C,SW4*%
X111760000Y-100330000D03*
D11*
%TO.N,Net-(SW4-B)*%
X111760000Y-102870000D03*
%TD*%
D12*
%TO.N,Net-(U6A--)*%
%TO.C,U6*%
X195580000Y-129540000D03*
D13*
X195580000Y-132080000D03*
%TO.N,Net-(U6A-+)*%
X195580000Y-134620000D03*
%TO.N,+15V_O*%
X195580000Y-137160000D03*
%TO.N,Net-(U6B-+)*%
X195580000Y-139700000D03*
%TO.N,Net-(U6B--)*%
X195580000Y-142240000D03*
X195580000Y-144780000D03*
%TO.N,Net-(U6C--)*%
X203200000Y-144780000D03*
X203200000Y-142240000D03*
%TO.N,Net-(U6C-+)*%
X203200000Y-139700000D03*
%TO.N,-15V_O*%
X203200000Y-137160000D03*
%TO.N,Net-(U6D-+)*%
X203200000Y-134620000D03*
%TO.N,Net-(U6D--)*%
X203200000Y-132080000D03*
X203200000Y-129540000D03*
%TD*%
D10*
%TO.N,Net-(SW3-A)*%
%TO.C,SW3*%
X111760000Y-144780000D03*
D11*
%TO.N,Net-(SW3-B)*%
X111760000Y-142240000D03*
%TD*%
D10*
%TO.N,Net-(SW1-A)*%
%TO.C,SW1*%
X111760000Y-129540000D03*
D11*
%TO.N,Net-(SW1-B)*%
X111760000Y-132080000D03*
%TD*%
D10*
%TO.N,Net-(R12-Pad1)*%
%TO.C,RV3*%
X134620000Y-134620000D03*
D11*
%TO.N,Net-(U5A-+)*%
X134620000Y-132080000D03*
%TO.N,Net-(R8-Pad2)*%
X134620000Y-129540000D03*
%TD*%
D10*
%TO.N,Net-(J10-Pin_1)*%
%TO.C,J10*%
X107950000Y-60960000D03*
D11*
%TO.N,GND_O*%
X107950000Y-58420000D03*
%TD*%
D10*
%TO.N,Net-(J26-Pin_1)*%
%TO.C,J26*%
X115570000Y-53340000D03*
D11*
%TO.N,GND_O*%
X115570000Y-50800000D03*
%TD*%
D10*
%TO.N,Net-(U14C-+)*%
%TO.C,RV15*%
X176530000Y-110490000D03*
D11*
X176530000Y-113030000D03*
%TO.N,Net-(R99-Pad2)*%
X176530000Y-115570000D03*
%TO.N,Net-(R100-Pad2)*%
X180340000Y-115570000D03*
%TO.N,Net-(U14C-+)*%
X180340000Y-113030000D03*
D10*
X180340000Y-110490000D03*
%TD*%
%TO.N,Net-(J5-Pin_1)*%
%TO.C,J5*%
X100330000Y-142240000D03*
D11*
%TO.N,Net-(J5-Pin_2)*%
X100330000Y-144780000D03*
%TD*%
D10*
%TO.N,Net-(SW9-A)*%
%TO.C,RV21*%
X130810000Y-71120000D03*
D11*
%TO.N,Net-(SW9-B)*%
X130810000Y-73660000D03*
X130810000Y-76200000D03*
%TD*%
D10*
%TO.N,Net-(J13-Pin_1)*%
%TO.C,J13*%
X100330000Y-129540000D03*
D11*
%TO.N,Net-(J13-Pin_2)*%
X100330000Y-132080000D03*
%TD*%
D10*
%TO.N,Net-(R37-Pad1)*%
%TO.C,RV7*%
X134620000Y-139700000D03*
D11*
%TO.N,Net-(U5B-+)*%
X134620000Y-142240000D03*
%TO.N,Net-(R31-Pad2)*%
X134620000Y-144780000D03*
%TD*%
D10*
%TO.N,Net-(J32-Pin_1)*%
%TO.C,J32*%
X123190000Y-60960000D03*
D11*
%TO.N,Net-(J32-Pin_2)*%
X123190000Y-58420000D03*
%TD*%
D10*
%TO.N,Net-(SW9-A)*%
%TO.C,SW9*%
X134620000Y-71120000D03*
D11*
%TO.N,Net-(SW9-B)*%
X134620000Y-73660000D03*
%TD*%
D12*
%TO.N,Net-(U3A--)*%
%TO.C,U3*%
X195580000Y-43180000D03*
D13*
X195580000Y-45720000D03*
%TO.N,Net-(U3A-+)*%
X195580000Y-48260000D03*
%TO.N,+15V_O*%
X195580000Y-50800000D03*
%TO.N,Net-(U3B-+)*%
X195580000Y-53340000D03*
%TO.N,Net-(U3B--)*%
X195580000Y-55880000D03*
X195580000Y-58420000D03*
%TO.N,Net-(U3C--)*%
X203200000Y-58420000D03*
X203200000Y-55880000D03*
%TO.N,Net-(U3B-+)*%
X203200000Y-53340000D03*
%TO.N,-15V_O*%
X203200000Y-50800000D03*
%TO.N,Net-(U3A-+)*%
X203200000Y-48260000D03*
%TO.N,Net-(U3D--)*%
X203200000Y-45720000D03*
X203200000Y-43180000D03*
%TD*%
D10*
%TO.N,Net-(SW1-A)*%
%TO.C,RV1*%
X107950000Y-129540000D03*
D11*
%TO.N,Net-(SW1-B)*%
X107950000Y-132080000D03*
X107950000Y-134620000D03*
%TD*%
D10*
%TO.N,Net-(SW3-A)*%
%TO.C,RV5*%
X107950000Y-144780000D03*
D11*
%TO.N,Net-(SW3-B)*%
X107950000Y-142240000D03*
X107950000Y-139700000D03*
%TD*%
D12*
%TO.N,Net-(R115-Pad1)*%
%TO.C,U22*%
X138430000Y-43180000D03*
D13*
%TO.N,Net-(U22A--)*%
X138430000Y-45720000D03*
%TO.N,Net-(U22A-+)*%
X138430000Y-48260000D03*
%TO.N,+15V_O*%
X138430000Y-50800000D03*
%TO.N,Net-(U22B-+)*%
X138430000Y-53340000D03*
%TO.N,Net-(U22B--)*%
X138430000Y-55880000D03*
%TO.N,Net-(R132-Pad1)*%
X138430000Y-58420000D03*
%TO.N,Net-(SW10-A)*%
X146050000Y-58420000D03*
%TO.N,Net-(SW10-B)*%
X146050000Y-55880000D03*
%TO.N,Net-(U21A-+)*%
X146050000Y-53340000D03*
%TO.N,-15V_O*%
X146050000Y-50800000D03*
%TO.N,Net-(U21A-+)*%
X146050000Y-48260000D03*
%TO.N,Net-(SW7-B)*%
X146050000Y-45720000D03*
%TO.N,Net-(SW7-A)*%
X146050000Y-43180000D03*
%TD*%
D10*
%TO.N,Net-(SW6-A)*%
%TO.C,SW6*%
X107950000Y-71120000D03*
D11*
%TO.N,Net-(SW6-B)*%
X107950000Y-73660000D03*
%TD*%
D10*
%TO.N,Net-(SW10-A)*%
%TO.C,RV22*%
X153670000Y-58420000D03*
D11*
%TO.N,Net-(SW10-B)*%
X153670000Y-55880000D03*
X153670000Y-53340000D03*
%TD*%
D16*
%TO.N,N/C*%
%TO.C,H5*%
X88900000Y-148590000D03*
%TD*%
D10*
%TO.N,Net-(SW5-A)*%
%TO.C,SW5*%
X111760000Y-115570000D03*
D11*
%TO.N,Net-(SW5-B)*%
X111760000Y-113030000D03*
%TD*%
D10*
%TO.N,Net-(SW8-A)*%
%TO.C,SW8*%
X107950000Y-86360000D03*
D11*
%TO.N,Net-(SW8-B)*%
X107950000Y-83820000D03*
%TD*%
D16*
%TO.N,N/C*%
%TO.C,H2*%
X88900000Y-41910000D03*
%TD*%
D10*
%TO.N,Net-(R116-Pad2)*%
%TO.C,RV19*%
X149860000Y-71120000D03*
D11*
X149860000Y-73660000D03*
%TO.N,Net-(R118-Pad1)*%
X149860000Y-76200000D03*
%TO.N,GND_O*%
X153670000Y-76200000D03*
%TO.N,Net-(R117-Pad2)*%
X153670000Y-73660000D03*
D10*
X153670000Y-71120000D03*
%TD*%
D12*
%TO.N,Net-(R63-Pad2)*%
%TO.C,U7*%
X138370000Y-100270000D03*
D13*
%TO.N,Net-(U7A--)*%
X138370000Y-102810000D03*
%TO.N,Net-(U7A-+)*%
X138370000Y-105350000D03*
%TO.N,+15V_O*%
X138370000Y-107890000D03*
%TO.N,Net-(U7B-+)*%
X138370000Y-110430000D03*
%TO.N,Net-(U7B--)*%
X138370000Y-112970000D03*
%TO.N,Net-(R90-Pad2)*%
X138370000Y-115510000D03*
%TO.N,Net-(R154-Pad2)*%
X145990000Y-115510000D03*
%TO.N,Net-(U7C--)*%
X145990000Y-112970000D03*
%TO.N,Net-(U7C-+)*%
X145990000Y-110430000D03*
%TO.N,-15V_O*%
X145990000Y-107890000D03*
%TO.N,Net-(U7D-+)*%
X145990000Y-105350000D03*
%TO.N,Net-(U7D--)*%
X145990000Y-102810000D03*
%TO.N,Net-(R152-Pad2)*%
X145990000Y-100270000D03*
%TD*%
D12*
%TO.N,Net-(U14A--)*%
%TO.C,U14*%
X165100000Y-100330000D03*
D13*
X165100000Y-102870000D03*
%TO.N,Net-(U14A-+)*%
X165100000Y-105410000D03*
%TO.N,+15V_O*%
X165100000Y-107950000D03*
%TO.N,Net-(U14B-+)*%
X165100000Y-110490000D03*
%TO.N,Net-(U14B--)*%
X165100000Y-113030000D03*
X165100000Y-115570000D03*
%TO.N,Net-(R84-Pad2)*%
X172720000Y-115570000D03*
%TO.N,Net-(U14C--)*%
X172720000Y-113030000D03*
%TO.N,Net-(U14C-+)*%
X172720000Y-110490000D03*
%TO.N,-15V_O*%
X172720000Y-107950000D03*
%TO.N,Net-(U14D-+)*%
X172720000Y-105410000D03*
%TO.N,Net-(U14D--)*%
X172720000Y-102870000D03*
%TO.N,Net-(R55-Pad2)*%
X172720000Y-100330000D03*
%TD*%
D12*
%TO.N,Net-(SW4-A)*%
%TO.C,U10*%
X115570000Y-100330000D03*
D13*
%TO.N,Net-(SW4-B)*%
X115570000Y-102870000D03*
%TO.N,Net-(U10A-+)*%
X115570000Y-105410000D03*
%TO.N,+15V_O*%
X115570000Y-107950000D03*
%TO.N,Net-(U10A-+)*%
X115570000Y-110490000D03*
%TO.N,Net-(SW5-B)*%
X115570000Y-113030000D03*
%TO.N,Net-(SW5-A)*%
X115570000Y-115570000D03*
%TO.N,Net-(R79-Pad2)*%
X123190000Y-115570000D03*
%TO.N,Net-(U10C--)*%
X123190000Y-113030000D03*
%TO.N,Net-(U10C-+)*%
X123190000Y-110490000D03*
%TO.N,-15V_O*%
X123190000Y-107950000D03*
%TO.N,Net-(U10D-+)*%
X123190000Y-105410000D03*
%TO.N,Net-(U10D--)*%
X123190000Y-102870000D03*
%TO.N,Net-(R49-Pad2)*%
X123190000Y-100330000D03*
%TD*%
D10*
%TO.N,Net-(SW10-A)*%
%TO.C,SW10*%
X149860000Y-58420000D03*
D11*
%TO.N,Net-(SW10-B)*%
X149860000Y-55880000D03*
%TD*%
D16*
%TO.N,N/C*%
%TO.C,H8*%
X223520000Y-41910000D03*
%TD*%
D17*
%TO.N,GND_O*%
X130810000Y-78740000D03*
X128270000Y-50800000D03*
X186055000Y-102870000D03*
X129540000Y-139700000D03*
X198247000Y-77216000D03*
X198374000Y-114046000D03*
X169850000Y-135560000D03*
X120142000Y-68072000D03*
X141224000Y-72644000D03*
X111125000Y-50800000D03*
X186055000Y-139700000D03*
X200406000Y-49784000D03*
X105156000Y-152908000D03*
X99060000Y-107950000D03*
X215900000Y-50800000D03*
X128000000Y-46736000D03*
X159385000Y-50800000D03*
X171450000Y-121920000D03*
X200330000Y-109525000D03*
X109728000Y-78740000D03*
X152654000Y-153162000D03*
X186055000Y-113030000D03*
X175260000Y-86360000D03*
X186055000Y-100330000D03*
X117475000Y-63500000D03*
X167910000Y-131080000D03*
X159258000Y-137160000D03*
X130810000Y-104140000D03*
X102108000Y-78740000D03*
X150114000Y-122555000D03*
X102108000Y-63500000D03*
X182245000Y-83820000D03*
X198272400Y-85394800D03*
X105156000Y-133350000D03*
X105140000Y-67564000D03*
X182245000Y-78740000D03*
X198374000Y-57404000D03*
X122174000Y-93980000D03*
X126365000Y-121920000D03*
X169926000Y-77216000D03*
X167850000Y-143466000D03*
X169850000Y-140640000D03*
X198292500Y-135590500D03*
X143180000Y-106680000D03*
X130810000Y-81280000D03*
X129540000Y-78740000D03*
X200367500Y-138849500D03*
X189230000Y-137160000D03*
X141202500Y-82804000D03*
X126000000Y-153400000D03*
X153035000Y-107950000D03*
X186055000Y-137160000D03*
X167872500Y-109855000D03*
X124190000Y-51647600D03*
X217170000Y-127000000D03*
X109728000Y-63500000D03*
X200330000Y-106477000D03*
X178435000Y-137160000D03*
X217170000Y-124490000D03*
X200406000Y-131191000D03*
X179705000Y-78740000D03*
X153035000Y-106680000D03*
X126000000Y-96955000D03*
X189230000Y-78740000D03*
X180086000Y-50800000D03*
X177800000Y-93345000D03*
X216535000Y-107950000D03*
X198292500Y-143083500D03*
X167910000Y-72390000D03*
X102235000Y-76200000D03*
X200367500Y-80251700D03*
X207987500Y-139700000D03*
X156845000Y-50800000D03*
X120380000Y-57420000D03*
X178562000Y-53340000D03*
X200406000Y-72644000D03*
X188722000Y-107950000D03*
X110722500Y-105007500D03*
X186055000Y-115570000D03*
X129032000Y-110490000D03*
X103124000Y-135382000D03*
X105140000Y-46720000D03*
X198374000Y-44196000D03*
X105156000Y-87630000D03*
X125095000Y-63500000D03*
X106172000Y-53340000D03*
X216535000Y-90805000D03*
X128037500Y-135770000D03*
X198330000Y-101937000D03*
X110490000Y-121920000D03*
X152400000Y-66040000D03*
X153035000Y-109220000D03*
X152400000Y-83820000D03*
X158517500Y-141245500D03*
X214630000Y-102870000D03*
X128016000Y-57150000D03*
X159385000Y-45720000D03*
X128270000Y-51435000D03*
X141202500Y-139065000D03*
X120396000Y-54102000D03*
X129540000Y-81280000D03*
X216535000Y-110490000D03*
X110722500Y-139065000D03*
X171450000Y-60960000D03*
X120380000Y-46720000D03*
X141224000Y-79756000D03*
%TO.N,Net-(U6D--)*%
X224155000Y-119380000D03*
%TO.N,Net-(R62-Pad1)*%
X121285000Y-122555000D03*
X130810000Y-106680000D03*
X130810000Y-115570000D03*
%TO.N,Net-(U6C--)*%
X224790000Y-132080000D03*
%TO.N,Net-(U12C--)*%
X224155000Y-115570000D03*
%TO.N,Net-(U16D--)*%
X193548000Y-71120000D03*
%TO.N,Net-(U2D--)*%
X183515000Y-122555000D03*
%TO.N,Net-(U13C--)*%
X114935000Y-63500000D03*
%TO.N,Net-(U12D--)*%
X204470000Y-88900000D03*
%TO.N,Net-(U13D--)*%
X121920000Y-63500000D03*
%TO.N,Net-(U2C--)*%
X182880000Y-153670000D03*
%TO.N,Net-(R66-Pad1)*%
X132080000Y-110490000D03*
X132080000Y-100330000D03*
%TO.N,Net-(R111-Pad2)*%
X140165099Y-70061099D03*
X140970000Y-93345000D03*
%TO.N,Net-(U21A-+)*%
X142240000Y-66040000D03*
%TO.N,Net-(U16B--)*%
X202565000Y-88900000D03*
%TO.N,Net-(U3D--)*%
X108585000Y-34925000D03*
%TO.N,Net-(U3C--)*%
X116205000Y-36195000D03*
%TO.N,Net-(U20A-+)*%
X128270000Y-64478000D03*
%TO.N,Net-(Z263-Pad2)*%
X156845000Y-121920000D03*
X158750000Y-114935000D03*
%TO.N,Net-(R117-Pad2)*%
X151765000Y-81280000D03*
%TD*%
%TA.AperFunction,Conductor*%
%TO.N,-15V_O*%
G36*
X214145677Y-36849685D02*
G01*
X214166319Y-36866319D01*
X214593681Y-37293681D01*
X214627166Y-37355004D01*
X214630000Y-37381362D01*
X214630000Y-101901073D01*
X214610315Y-101968112D01*
X214557511Y-102013867D01*
X214530191Y-102022690D01*
X214381925Y-102052182D01*
X214381917Y-102052184D01*
X214227139Y-102116295D01*
X214087837Y-102209373D01*
X213969373Y-102327837D01*
X213876295Y-102467139D01*
X213812184Y-102621917D01*
X213812182Y-102621925D01*
X213779500Y-102786228D01*
X213779500Y-102953771D01*
X213812182Y-103118074D01*
X213812184Y-103118082D01*
X213876295Y-103272860D01*
X213969373Y-103412162D01*
X214087837Y-103530626D01*
X214180494Y-103592537D01*
X214227137Y-103623703D01*
X214381918Y-103687816D01*
X214530194Y-103717309D01*
X214592102Y-103749693D01*
X214626676Y-103810409D01*
X214630000Y-103838926D01*
X214630000Y-128270000D01*
X220428638Y-128270000D01*
X220495677Y-128289685D01*
X220516319Y-128306319D01*
X220943681Y-128733681D01*
X220977166Y-128795004D01*
X220980000Y-128821362D01*
X220980000Y-142958638D01*
X220960315Y-143025677D01*
X220943681Y-143046319D01*
X220516319Y-143473681D01*
X220454996Y-143507166D01*
X220428638Y-143510000D01*
X213841291Y-143510000D01*
X213802972Y-143503931D01*
X213676243Y-143462754D01*
X213565538Y-143445220D01*
X213466287Y-143429500D01*
X213253713Y-143429500D01*
X213154462Y-143445220D01*
X213043756Y-143462754D01*
X212917028Y-143503931D01*
X212878709Y-143510000D01*
X211301291Y-143510000D01*
X211262972Y-143503931D01*
X211136243Y-143462754D01*
X211025538Y-143445220D01*
X210926287Y-143429500D01*
X210713713Y-143429500D01*
X210614462Y-143445220D01*
X210503756Y-143462754D01*
X210377028Y-143503931D01*
X210374697Y-143504300D01*
X210373644Y-143504977D01*
X210338709Y-143510000D01*
X210101362Y-143510000D01*
X210034323Y-143490315D01*
X210013681Y-143473681D01*
X209586319Y-143046319D01*
X209552834Y-142984996D01*
X209550000Y-142958638D01*
X209550000Y-141521362D01*
X209569685Y-141454323D01*
X209586319Y-141433681D01*
X210013681Y-141006319D01*
X210040608Y-140991615D01*
X210066427Y-140975023D01*
X210072627Y-140974131D01*
X210075004Y-140972834D01*
X210101362Y-140970000D01*
X210338709Y-140970000D01*
X210377027Y-140976068D01*
X210503757Y-141017246D01*
X210713713Y-141050500D01*
X210713714Y-141050500D01*
X210926286Y-141050500D01*
X210926287Y-141050500D01*
X211136243Y-141017246D01*
X211262972Y-140976068D01*
X211301291Y-140970000D01*
X212878709Y-140970000D01*
X212917027Y-140976068D01*
X213043757Y-141017246D01*
X213253713Y-141050500D01*
X213253714Y-141050500D01*
X213466286Y-141050500D01*
X213466287Y-141050500D01*
X213676243Y-141017246D01*
X213802972Y-140976068D01*
X213841291Y-140970000D01*
X214630000Y-140970000D01*
X214630000Y-140181289D01*
X214636069Y-140142971D01*
X214649101Y-140102863D01*
X214677246Y-140016243D01*
X214710500Y-139806287D01*
X214710500Y-139593713D01*
X214677246Y-139383757D01*
X214636068Y-139257027D01*
X214630000Y-139218709D01*
X214630000Y-137641289D01*
X214636069Y-137602971D01*
X214649102Y-137562860D01*
X214677246Y-137476243D01*
X214710500Y-137266287D01*
X214710500Y-137053713D01*
X214677246Y-136843757D01*
X214636068Y-136717027D01*
X214630000Y-136678709D01*
X214630000Y-135101289D01*
X214636069Y-135062971D01*
X214677246Y-134936243D01*
X214710500Y-134726287D01*
X214710500Y-134513713D01*
X214677246Y-134303757D01*
X214636068Y-134177027D01*
X214630000Y-134138709D01*
X214630000Y-133350000D01*
X214130000Y-133350000D01*
X213841291Y-133350000D01*
X213802972Y-133343931D01*
X213676243Y-133302754D01*
X213565538Y-133285220D01*
X213466287Y-133269500D01*
X213253713Y-133269500D01*
X213154462Y-133285220D01*
X213043756Y-133302754D01*
X212917028Y-133343931D01*
X212878709Y-133350000D01*
X211985389Y-133350000D01*
X211918350Y-133330315D01*
X211912790Y-133326455D01*
X211912327Y-133326202D01*
X211777482Y-133275908D01*
X211777483Y-133275908D01*
X211717883Y-133269501D01*
X211717881Y-133269500D01*
X211717873Y-133269500D01*
X211717864Y-133269500D01*
X209922129Y-133269500D01*
X209922123Y-133269501D01*
X209862516Y-133275908D01*
X209727672Y-133326202D01*
X209719891Y-133330452D01*
X209719066Y-133328942D01*
X209663457Y-133349684D01*
X209654611Y-133350000D01*
X208915000Y-133350000D01*
X208915000Y-137878638D01*
X208895315Y-137945677D01*
X208878681Y-137966319D01*
X208451319Y-138393681D01*
X208389996Y-138427166D01*
X208363638Y-138430000D01*
X203904675Y-138430000D01*
X203885277Y-138428473D01*
X203868830Y-138425868D01*
X203702352Y-138399500D01*
X202697648Y-138399500D01*
X202531170Y-138425868D01*
X202514723Y-138428473D01*
X202495325Y-138430000D01*
X202481362Y-138430000D01*
X202414323Y-138410315D01*
X202393681Y-138393681D01*
X201966319Y-137966319D01*
X201932834Y-137904996D01*
X201930000Y-137878638D01*
X201930000Y-136441362D01*
X201949685Y-136374323D01*
X201966319Y-136353681D01*
X202393681Y-135926319D01*
X202420608Y-135911615D01*
X202446427Y-135895023D01*
X202452627Y-135894131D01*
X202455004Y-135892834D01*
X202481362Y-135890000D01*
X202495325Y-135890000D01*
X202514722Y-135891526D01*
X202697648Y-135920500D01*
X202697649Y-135920500D01*
X203702351Y-135920500D01*
X203702352Y-135920500D01*
X203885277Y-135891526D01*
X203904675Y-135890000D01*
X205740000Y-135890000D01*
X205740000Y-127000000D01*
X205240000Y-127000000D01*
X178300000Y-127000000D01*
X177800000Y-127000000D01*
X177800000Y-136542244D01*
X177780315Y-136609283D01*
X177777567Y-136613058D01*
X177681295Y-136757139D01*
X177617184Y-136911917D01*
X177617182Y-136911925D01*
X177584500Y-137076228D01*
X177584500Y-137243771D01*
X177617182Y-137408074D01*
X177617184Y-137408082D01*
X177681295Y-137562860D01*
X177777758Y-137707227D01*
X177775846Y-137708504D01*
X177781550Y-137721927D01*
X177794977Y-137742820D01*
X177797303Y-137758999D01*
X177799163Y-137763376D01*
X177800000Y-137777755D01*
X177800000Y-137878638D01*
X177780315Y-137945677D01*
X177763681Y-137966319D01*
X177336319Y-138393681D01*
X177274996Y-138427166D01*
X177248638Y-138430000D01*
X173424675Y-138430000D01*
X173405277Y-138428473D01*
X173388830Y-138425868D01*
X173222352Y-138399500D01*
X172605862Y-138399500D01*
X172538823Y-138379815D01*
X172518181Y-138363181D01*
X172121319Y-137966319D01*
X172087834Y-137904996D01*
X172085000Y-137878638D01*
X172085000Y-136441362D01*
X172104685Y-136374323D01*
X172121319Y-136353681D01*
X172518181Y-135956819D01*
X172579504Y-135923334D01*
X172605862Y-135920500D01*
X173222351Y-135920500D01*
X173222352Y-135920500D01*
X173405277Y-135891526D01*
X173424675Y-135890000D01*
X174498000Y-135890000D01*
X174498000Y-127000000D01*
X173998000Y-127000000D01*
X144645000Y-127000000D01*
X144145000Y-127000000D01*
X144145000Y-135890000D01*
X145345325Y-135890000D01*
X145364722Y-135891526D01*
X145547648Y-135920500D01*
X145547649Y-135920500D01*
X146552351Y-135920500D01*
X146552352Y-135920500D01*
X146735277Y-135891526D01*
X146754675Y-135890000D01*
X146768638Y-135890000D01*
X146835677Y-135909685D01*
X146856319Y-135926319D01*
X147283681Y-136353681D01*
X147317166Y-136415004D01*
X147320000Y-136441362D01*
X147320000Y-137878638D01*
X147300315Y-137945677D01*
X147283681Y-137966319D01*
X146856319Y-138393681D01*
X146829391Y-138408384D01*
X146803573Y-138424977D01*
X146797372Y-138425868D01*
X146794996Y-138427166D01*
X146768638Y-138430000D01*
X146754675Y-138430000D01*
X146735277Y-138428473D01*
X146718830Y-138425868D01*
X146552352Y-138399500D01*
X145547648Y-138399500D01*
X145381170Y-138425868D01*
X145364723Y-138428473D01*
X145345325Y-138430000D01*
X141820256Y-138430000D01*
X141753217Y-138410315D01*
X141749441Y-138407567D01*
X141605360Y-138311295D01*
X141450582Y-138247184D01*
X141450574Y-138247182D01*
X141283503Y-138213949D01*
X141221592Y-138181564D01*
X141220013Y-138180013D01*
X141006319Y-137966319D01*
X140972834Y-137904996D01*
X140970000Y-137878638D01*
X140970000Y-127000000D01*
X140470000Y-127000000D01*
X121658000Y-127000000D01*
X121158000Y-127000000D01*
X121158000Y-135890000D01*
X122485325Y-135890000D01*
X122504722Y-135891526D01*
X122687648Y-135920500D01*
X122687649Y-135920500D01*
X123692351Y-135920500D01*
X123692352Y-135920500D01*
X123875277Y-135891526D01*
X123894675Y-135890000D01*
X123908638Y-135890000D01*
X123975677Y-135909685D01*
X123996319Y-135926319D01*
X124423681Y-136353681D01*
X124457166Y-136415004D01*
X124460000Y-136441362D01*
X124460000Y-137878638D01*
X124440315Y-137945677D01*
X124423681Y-137966319D01*
X123996319Y-138393681D01*
X123969391Y-138408384D01*
X123943573Y-138424977D01*
X123937372Y-138425868D01*
X123934996Y-138427166D01*
X123908638Y-138430000D01*
X123894675Y-138430000D01*
X123875277Y-138428473D01*
X123858830Y-138425868D01*
X123692352Y-138399500D01*
X122687648Y-138399500D01*
X122521170Y-138425868D01*
X122504723Y-138428473D01*
X122485325Y-138430000D01*
X118661362Y-138430000D01*
X118594323Y-138410315D01*
X118573681Y-138393681D01*
X118146319Y-137966319D01*
X118112834Y-137904996D01*
X118110000Y-137878638D01*
X118110000Y-123741362D01*
X118129685Y-123674323D01*
X118146319Y-123653681D01*
X118573681Y-123226319D01*
X118635004Y-123192834D01*
X118661362Y-123190000D01*
X120667244Y-123190000D01*
X120734283Y-123209685D01*
X120738058Y-123212432D01*
X120742837Y-123215625D01*
X120742838Y-123215626D01*
X120882137Y-123308703D01*
X121036918Y-123372816D01*
X121201228Y-123405499D01*
X121201232Y-123405500D01*
X121201233Y-123405500D01*
X121368768Y-123405500D01*
X121368769Y-123405499D01*
X121533082Y-123372816D01*
X121687863Y-123308703D01*
X121827162Y-123215626D01*
X121827161Y-123215626D01*
X121832227Y-123212242D01*
X121833500Y-123214147D01*
X121888413Y-123190832D01*
X121902756Y-123190000D01*
X149496244Y-123190000D01*
X149563283Y-123209685D01*
X149567058Y-123212432D01*
X149571837Y-123215625D01*
X149571838Y-123215626D01*
X149711137Y-123308703D01*
X149865918Y-123372816D01*
X150030228Y-123405499D01*
X150030232Y-123405500D01*
X150030233Y-123405500D01*
X150197768Y-123405500D01*
X150197769Y-123405499D01*
X150362082Y-123372816D01*
X150516863Y-123308703D01*
X150656162Y-123215626D01*
X150656161Y-123215626D01*
X150661227Y-123212242D01*
X150662500Y-123214147D01*
X150717413Y-123190832D01*
X150731756Y-123190000D01*
X182897244Y-123190000D01*
X182964283Y-123209685D01*
X182968058Y-123212432D01*
X182972837Y-123215625D01*
X182972838Y-123215626D01*
X183112137Y-123308703D01*
X183266918Y-123372816D01*
X183431228Y-123405499D01*
X183431232Y-123405500D01*
X183431233Y-123405500D01*
X183598768Y-123405500D01*
X183598769Y-123405499D01*
X183763082Y-123372816D01*
X183917863Y-123308703D01*
X184057162Y-123215626D01*
X184057161Y-123215626D01*
X184062227Y-123212242D01*
X184063500Y-123214147D01*
X184118413Y-123190832D01*
X184132756Y-123190000D01*
X205740000Y-123190000D01*
X205740000Y-109220000D01*
X205240000Y-109220000D01*
X203844675Y-109220000D01*
X203825277Y-109218473D01*
X203808830Y-109215868D01*
X203642352Y-109189500D01*
X202637648Y-109189500D01*
X202597184Y-109195909D01*
X202494465Y-109212178D01*
X202425171Y-109203223D01*
X202387386Y-109177386D01*
X201966319Y-108756319D01*
X201932834Y-108694996D01*
X201930000Y-108668638D01*
X201930000Y-107231362D01*
X201949685Y-107164323D01*
X201966319Y-107143681D01*
X202069956Y-107040044D01*
X202387388Y-106722611D01*
X202448709Y-106689128D01*
X202494461Y-106687821D01*
X202637648Y-106710500D01*
X202637650Y-106710500D01*
X203642351Y-106710500D01*
X203642352Y-106710500D01*
X203825277Y-106681526D01*
X203844675Y-106680000D01*
X205740000Y-106680000D01*
X205740000Y-97790000D01*
X205240000Y-97790000D01*
X170680000Y-97790000D01*
X170180000Y-97790000D01*
X170180000Y-106680000D01*
X172015325Y-106680000D01*
X172034722Y-106681526D01*
X172217648Y-106710500D01*
X172217649Y-106710500D01*
X173222351Y-106710500D01*
X173222352Y-106710500D01*
X173405277Y-106681526D01*
X173424675Y-106680000D01*
X173438638Y-106680000D01*
X173505677Y-106699685D01*
X173526319Y-106716319D01*
X173953681Y-107143681D01*
X173987166Y-107205004D01*
X173990000Y-107231362D01*
X173990000Y-108668638D01*
X173970315Y-108735677D01*
X173953681Y-108756319D01*
X173526319Y-109183681D01*
X173499391Y-109198384D01*
X173473573Y-109214977D01*
X173467372Y-109215868D01*
X173464996Y-109217166D01*
X173438638Y-109220000D01*
X173424675Y-109220000D01*
X173405277Y-109218473D01*
X173388830Y-109215868D01*
X173222352Y-109189500D01*
X172217648Y-109189500D01*
X172051170Y-109215868D01*
X172034723Y-109218473D01*
X172015325Y-109220000D01*
X168490256Y-109220000D01*
X168423217Y-109200315D01*
X168419441Y-109197567D01*
X168275360Y-109101295D01*
X168120582Y-109037184D01*
X168120574Y-109037182D01*
X167953503Y-109003949D01*
X167891592Y-108971564D01*
X167890013Y-108970013D01*
X167676319Y-108756319D01*
X167642834Y-108694996D01*
X167640000Y-108668638D01*
X167640000Y-97790000D01*
X167140000Y-97790000D01*
X152900000Y-97790000D01*
X152400000Y-97790000D01*
X152400000Y-106062244D01*
X152380315Y-106129283D01*
X152377567Y-106133058D01*
X152281295Y-106277139D01*
X152217184Y-106431917D01*
X152217182Y-106431925D01*
X152184500Y-106596228D01*
X152184500Y-106763771D01*
X152217182Y-106928074D01*
X152217184Y-106928082D01*
X152281295Y-107082860D01*
X152377758Y-107227227D01*
X152375846Y-107228504D01*
X152381550Y-107241927D01*
X152394977Y-107262820D01*
X152397303Y-107278999D01*
X152399163Y-107283376D01*
X152400000Y-107297755D01*
X152400000Y-107332244D01*
X152380315Y-107399283D01*
X152377567Y-107403058D01*
X152281295Y-107547139D01*
X152217184Y-107701917D01*
X152217182Y-107701925D01*
X152184500Y-107866228D01*
X152184500Y-108033771D01*
X152217182Y-108198074D01*
X152217184Y-108198082D01*
X152281295Y-108352860D01*
X152377758Y-108497227D01*
X152375846Y-108498504D01*
X152381550Y-108511927D01*
X152394977Y-108532820D01*
X152397303Y-108548999D01*
X152399163Y-108553376D01*
X152400000Y-108567755D01*
X152400000Y-108602244D01*
X152380315Y-108669283D01*
X152377567Y-108673058D01*
X152281297Y-108817136D01*
X152275484Y-108831170D01*
X152248607Y-108871392D01*
X152149987Y-108970013D01*
X151936317Y-109183682D01*
X151874996Y-109217166D01*
X151848638Y-109220000D01*
X146894148Y-109220000D01*
X146855830Y-109213931D01*
X146694536Y-109161523D01*
X146559746Y-109140174D01*
X146492352Y-109129500D01*
X145487648Y-109129500D01*
X145292667Y-109160381D01*
X145223374Y-109151426D01*
X145185589Y-109125589D01*
X144816319Y-108756319D01*
X144782834Y-108694996D01*
X144780000Y-108668638D01*
X144780000Y-107231362D01*
X144799685Y-107164323D01*
X144816319Y-107143681D01*
X145243681Y-106716319D01*
X145305004Y-106682834D01*
X145331362Y-106680000D01*
X148590000Y-106680000D01*
X148590000Y-97790000D01*
X148090000Y-97790000D01*
X130548000Y-97790000D01*
X130048000Y-97790000D01*
X130048000Y-103732501D01*
X130038561Y-103779954D01*
X129992184Y-103891917D01*
X129992182Y-103891925D01*
X129959500Y-104056228D01*
X129959500Y-104223771D01*
X129992182Y-104388074D01*
X129992184Y-104388082D01*
X130038561Y-104500044D01*
X130048000Y-104547497D01*
X130048000Y-106272501D01*
X130038561Y-106319954D01*
X129992184Y-106431917D01*
X129992182Y-106431925D01*
X129959500Y-106596228D01*
X129959500Y-106763771D01*
X129992182Y-106928074D01*
X129992184Y-106928082D01*
X130038561Y-107040044D01*
X130048000Y-107087497D01*
X130048000Y-108668638D01*
X130028315Y-108735677D01*
X130011681Y-108756319D01*
X129584319Y-109183681D01*
X129522996Y-109217166D01*
X129496638Y-109220000D01*
X123894675Y-109220000D01*
X123875277Y-109218473D01*
X123858830Y-109215868D01*
X123692352Y-109189500D01*
X122687648Y-109189500D01*
X122521170Y-109215868D01*
X122504723Y-109218473D01*
X122485325Y-109220000D01*
X122471362Y-109220000D01*
X122404323Y-109200315D01*
X122383681Y-109183681D01*
X121956319Y-108756319D01*
X121922834Y-108694996D01*
X121920000Y-108668638D01*
X121920000Y-107231362D01*
X121939685Y-107164323D01*
X121956319Y-107143681D01*
X122383681Y-106716319D01*
X122410608Y-106701615D01*
X122436427Y-106685023D01*
X122442627Y-106684131D01*
X122445004Y-106682834D01*
X122471362Y-106680000D01*
X122485325Y-106680000D01*
X122504722Y-106681526D01*
X122687648Y-106710500D01*
X122687649Y-106710500D01*
X123692351Y-106710500D01*
X123692352Y-106710500D01*
X123875277Y-106681526D01*
X123894675Y-106680000D01*
X126238000Y-106680000D01*
X126238000Y-97859846D01*
X126257685Y-97792807D01*
X126310489Y-97747052D01*
X126314547Y-97745285D01*
X126402863Y-97708703D01*
X126542162Y-97615626D01*
X126660626Y-97497162D01*
X126753703Y-97357863D01*
X126817816Y-97203082D01*
X126850500Y-97038767D01*
X126850500Y-96871233D01*
X126817816Y-96706918D01*
X126753703Y-96552137D01*
X126722537Y-96505494D01*
X126660626Y-96412837D01*
X126542162Y-96294373D01*
X126402862Y-96201296D01*
X126314546Y-96164714D01*
X126260143Y-96120872D01*
X126238079Y-96054578D01*
X126238000Y-96050153D01*
X126238000Y-94531362D01*
X126257685Y-94464323D01*
X126274319Y-94443681D01*
X126701681Y-94016319D01*
X126763004Y-93982834D01*
X126789362Y-93980000D01*
X140352244Y-93980000D01*
X140419283Y-93999685D01*
X140423058Y-94002432D01*
X140427837Y-94005625D01*
X140427838Y-94005626D01*
X140567137Y-94098703D01*
X140721918Y-94162816D01*
X140886228Y-94195499D01*
X140886232Y-94195500D01*
X140886233Y-94195500D01*
X141053768Y-94195500D01*
X141053769Y-94195499D01*
X141218082Y-94162816D01*
X141372863Y-94098703D01*
X141512162Y-94005626D01*
X141512161Y-94005626D01*
X141517227Y-94002242D01*
X141518500Y-94004147D01*
X141573413Y-93980832D01*
X141587756Y-93980000D01*
X177182244Y-93980000D01*
X177249283Y-93999685D01*
X177253058Y-94002432D01*
X177257837Y-94005625D01*
X177257838Y-94005626D01*
X177397137Y-94098703D01*
X177551918Y-94162816D01*
X177716228Y-94195499D01*
X177716232Y-94195500D01*
X177716233Y-94195500D01*
X177883768Y-94195500D01*
X177883769Y-94195499D01*
X178048082Y-94162816D01*
X178202863Y-94098703D01*
X178342162Y-94005626D01*
X178342161Y-94005626D01*
X178347227Y-94002242D01*
X178348500Y-94004147D01*
X178403413Y-93980832D01*
X178417756Y-93980000D01*
X205740000Y-93980000D01*
X205740000Y-80010000D01*
X205240000Y-80010000D01*
X203904675Y-80010000D01*
X203885277Y-80008473D01*
X203857554Y-80004082D01*
X203702352Y-79979500D01*
X202697648Y-79979500D01*
X202542446Y-80004082D01*
X202514723Y-80008473D01*
X202495325Y-80010000D01*
X202481362Y-80010000D01*
X202414323Y-79990315D01*
X202393681Y-79973681D01*
X201966319Y-79546319D01*
X201932834Y-79484996D01*
X201930000Y-79458638D01*
X201930000Y-78021362D01*
X201949685Y-77954323D01*
X201966319Y-77933681D01*
X202393681Y-77506319D01*
X202420608Y-77491615D01*
X202446427Y-77475023D01*
X202452627Y-77474131D01*
X202455004Y-77472834D01*
X202481362Y-77470000D01*
X202495325Y-77470000D01*
X202514722Y-77471526D01*
X202697648Y-77500500D01*
X202697649Y-77500500D01*
X203702351Y-77500500D01*
X203702352Y-77500500D01*
X203885277Y-77471526D01*
X203904675Y-77470000D01*
X205740000Y-77470000D01*
X205740000Y-69850000D01*
X205240000Y-69850000D01*
X203904675Y-69850000D01*
X203885277Y-69848473D01*
X203845558Y-69842182D01*
X203702352Y-69819500D01*
X202697648Y-69819500D01*
X202554442Y-69842182D01*
X202514723Y-69848473D01*
X202495325Y-69850000D01*
X196763159Y-69850000D01*
X196724156Y-69843706D01*
X196682801Y-69830002D01*
X196682798Y-69830001D01*
X196682797Y-69830001D01*
X196682793Y-69830000D01*
X196682790Y-69830000D01*
X196580010Y-69819500D01*
X194579998Y-69819500D01*
X194579981Y-69819501D01*
X194477203Y-69830000D01*
X194445151Y-69840621D01*
X194435843Y-69843706D01*
X194396840Y-69850000D01*
X179070000Y-69850000D01*
X179070000Y-78122244D01*
X179050315Y-78189283D01*
X179047567Y-78193058D01*
X178951295Y-78337139D01*
X178887184Y-78491917D01*
X178887182Y-78491925D01*
X178854500Y-78656228D01*
X178854500Y-78823771D01*
X178887182Y-78988074D01*
X178887184Y-78988082D01*
X178951295Y-79142860D01*
X179047758Y-79287227D01*
X179045846Y-79288504D01*
X179051550Y-79301927D01*
X179064977Y-79322820D01*
X179067303Y-79338999D01*
X179069163Y-79343376D01*
X179070000Y-79357755D01*
X179070000Y-79458638D01*
X179050315Y-79525677D01*
X179033681Y-79546319D01*
X178606319Y-79973681D01*
X178544996Y-80007166D01*
X178518638Y-80010000D01*
X173424675Y-80010000D01*
X173405277Y-80008473D01*
X173377554Y-80004082D01*
X173222352Y-79979500D01*
X172217648Y-79979500D01*
X172062446Y-80004082D01*
X172034723Y-80008473D01*
X172015325Y-80010000D01*
X172001362Y-80010000D01*
X171934323Y-79990315D01*
X171913681Y-79973681D01*
X171486319Y-79546319D01*
X171452834Y-79484996D01*
X171450000Y-79458638D01*
X171450000Y-78021362D01*
X171469685Y-77954323D01*
X171486319Y-77933681D01*
X171913681Y-77506319D01*
X171940608Y-77491615D01*
X171966427Y-77475023D01*
X171972627Y-77474131D01*
X171975004Y-77472834D01*
X172001362Y-77470000D01*
X172015325Y-77470000D01*
X172034722Y-77471526D01*
X172217648Y-77500500D01*
X172217649Y-77500500D01*
X173222351Y-77500500D01*
X173222352Y-77500500D01*
X173405277Y-77471526D01*
X173424675Y-77470000D01*
X175260000Y-77470000D01*
X175260000Y-69850000D01*
X174760000Y-69850000D01*
X173424675Y-69850000D01*
X173405277Y-69848473D01*
X173365558Y-69842182D01*
X173222352Y-69819500D01*
X172217648Y-69819500D01*
X172074442Y-69842182D01*
X172034723Y-69848473D01*
X172015325Y-69850000D01*
X166283159Y-69850000D01*
X166244156Y-69843706D01*
X166202801Y-69830002D01*
X166202798Y-69830001D01*
X166202797Y-69830001D01*
X166202793Y-69830000D01*
X166202790Y-69830000D01*
X166100010Y-69819500D01*
X164099998Y-69819500D01*
X164099981Y-69819501D01*
X163997203Y-69830000D01*
X163965151Y-69840621D01*
X163955843Y-69843706D01*
X163916840Y-69850000D01*
X160020000Y-69850000D01*
X160020000Y-79458638D01*
X160000315Y-79525677D01*
X159983681Y-79546319D01*
X159556319Y-79973681D01*
X159494996Y-80007166D01*
X159468638Y-80010000D01*
X146754675Y-80010000D01*
X146735277Y-80008473D01*
X146707554Y-80004082D01*
X146552352Y-79979500D01*
X145547648Y-79979500D01*
X145392446Y-80004082D01*
X145364723Y-80008473D01*
X145345325Y-80010000D01*
X145331362Y-80010000D01*
X145264323Y-79990315D01*
X145243681Y-79973681D01*
X144816319Y-79546319D01*
X144782834Y-79484996D01*
X144780000Y-79458638D01*
X144780000Y-78021362D01*
X144799685Y-77954323D01*
X144816319Y-77933681D01*
X145243681Y-77506319D01*
X145270608Y-77491615D01*
X145296427Y-77475023D01*
X145302627Y-77474131D01*
X145305004Y-77472834D01*
X145331362Y-77470000D01*
X145345325Y-77470000D01*
X145364722Y-77471526D01*
X145547648Y-77500500D01*
X145547649Y-77500500D01*
X146552351Y-77500500D01*
X146552352Y-77500500D01*
X146735277Y-77471526D01*
X146754675Y-77470000D01*
X149055325Y-77470000D01*
X149074722Y-77471526D01*
X149257648Y-77500500D01*
X149257649Y-77500500D01*
X150462351Y-77500500D01*
X150462352Y-77500500D01*
X150645277Y-77471526D01*
X150664675Y-77470000D01*
X152865325Y-77470000D01*
X152884722Y-77471526D01*
X153067648Y-77500500D01*
X153067649Y-77500500D01*
X154272351Y-77500500D01*
X154272352Y-77500500D01*
X154455277Y-77471526D01*
X154474675Y-77470000D01*
X156210000Y-77470000D01*
X156210000Y-69850000D01*
X155710000Y-69850000D01*
X155164446Y-69850000D01*
X155121112Y-69842181D01*
X155077491Y-69825911D01*
X155077480Y-69825908D01*
X155017883Y-69819501D01*
X155017881Y-69819500D01*
X155017873Y-69819500D01*
X155017864Y-69819500D01*
X152322129Y-69819500D01*
X152322123Y-69819501D01*
X152262518Y-69825908D01*
X152237164Y-69835365D01*
X152218885Y-69842182D01*
X152175554Y-69850000D01*
X151354446Y-69850000D01*
X151311112Y-69842181D01*
X151267491Y-69825911D01*
X151267480Y-69825908D01*
X151207883Y-69819501D01*
X151207881Y-69819500D01*
X151207873Y-69819500D01*
X151207864Y-69819500D01*
X148512129Y-69819500D01*
X148512123Y-69819501D01*
X148452518Y-69825908D01*
X148427164Y-69835365D01*
X148408885Y-69842182D01*
X148365554Y-69850000D01*
X146754675Y-69850000D01*
X146735277Y-69848473D01*
X146695558Y-69842182D01*
X146552352Y-69819500D01*
X145547648Y-69819500D01*
X145404442Y-69842182D01*
X145364723Y-69848473D01*
X145345325Y-69850000D01*
X141081088Y-69850000D01*
X141014049Y-69830315D01*
X140968294Y-69777511D01*
X140966527Y-69773453D01*
X140918803Y-69658238D01*
X140825725Y-69518936D01*
X140707261Y-69400472D01*
X140567959Y-69307394D01*
X140413181Y-69243283D01*
X140413173Y-69243281D01*
X140248870Y-69210599D01*
X140248866Y-69210599D01*
X140081332Y-69210599D01*
X140081327Y-69210599D01*
X139917024Y-69243281D01*
X139917016Y-69243283D01*
X139762238Y-69307394D01*
X139622936Y-69400472D01*
X139504472Y-69518936D01*
X139411395Y-69658236D01*
X139376304Y-69742954D01*
X139332462Y-69797357D01*
X139266168Y-69819421D01*
X139261743Y-69819500D01*
X137429998Y-69819500D01*
X137429981Y-69819501D01*
X137327203Y-69830000D01*
X137295151Y-69840621D01*
X137285843Y-69843706D01*
X137246840Y-69850000D01*
X136114446Y-69850000D01*
X136071112Y-69842181D01*
X136027491Y-69825911D01*
X136027480Y-69825908D01*
X135967883Y-69819501D01*
X135967881Y-69819500D01*
X135967873Y-69819500D01*
X135967864Y-69819500D01*
X133272129Y-69819500D01*
X133272123Y-69819501D01*
X133212518Y-69825908D01*
X133187164Y-69835365D01*
X133168885Y-69842182D01*
X133125554Y-69850000D01*
X132304446Y-69850000D01*
X132261112Y-69842181D01*
X132217491Y-69825911D01*
X132217480Y-69825908D01*
X132157883Y-69819501D01*
X132157881Y-69819500D01*
X132157873Y-69819500D01*
X132157864Y-69819500D01*
X129462129Y-69819500D01*
X129462123Y-69819501D01*
X129402518Y-69825908D01*
X129377164Y-69835365D01*
X129358885Y-69842182D01*
X129315554Y-69850000D01*
X128270000Y-69850000D01*
X128270000Y-79458638D01*
X128250315Y-79525677D01*
X128233681Y-79546319D01*
X127806319Y-79973681D01*
X127744996Y-80007166D01*
X127718638Y-80010000D01*
X123894675Y-80010000D01*
X123875277Y-80008473D01*
X123847554Y-80004082D01*
X123692352Y-79979500D01*
X122687648Y-79979500D01*
X122532446Y-80004082D01*
X122504723Y-80008473D01*
X122485325Y-80010000D01*
X122471362Y-80010000D01*
X122404323Y-79990315D01*
X122383681Y-79973681D01*
X121956319Y-79546319D01*
X121922834Y-79484996D01*
X121920000Y-79458638D01*
X121920000Y-78021362D01*
X121939685Y-77954323D01*
X121956319Y-77933681D01*
X122383681Y-77506319D01*
X122410608Y-77491615D01*
X122436427Y-77475023D01*
X122442627Y-77474131D01*
X122445004Y-77472834D01*
X122471362Y-77470000D01*
X122485325Y-77470000D01*
X122504722Y-77471526D01*
X122687648Y-77500500D01*
X122687649Y-77500500D01*
X123692351Y-77500500D01*
X123692352Y-77500500D01*
X123875277Y-77471526D01*
X123894675Y-77470000D01*
X125730000Y-77470000D01*
X125730000Y-67226362D01*
X125749685Y-67159323D01*
X125766319Y-67138681D01*
X126193681Y-66711319D01*
X126255004Y-66677834D01*
X126281362Y-66675000D01*
X141622244Y-66675000D01*
X141689283Y-66694685D01*
X141693058Y-66697432D01*
X141697837Y-66700625D01*
X141697838Y-66700626D01*
X141837137Y-66793703D01*
X141991918Y-66857816D01*
X142156228Y-66890499D01*
X142156232Y-66890500D01*
X142156233Y-66890500D01*
X142323768Y-66890500D01*
X142323769Y-66890499D01*
X142488082Y-66857816D01*
X142642863Y-66793703D01*
X142782162Y-66700626D01*
X142782161Y-66700626D01*
X142787227Y-66697242D01*
X142788500Y-66699147D01*
X142843413Y-66675832D01*
X142857756Y-66675000D01*
X151782244Y-66675000D01*
X151849283Y-66694685D01*
X151853058Y-66697432D01*
X151857837Y-66700625D01*
X151857838Y-66700626D01*
X151997137Y-66793703D01*
X152151918Y-66857816D01*
X152316228Y-66890499D01*
X152316232Y-66890500D01*
X152316233Y-66890500D01*
X152483768Y-66890500D01*
X152483769Y-66890499D01*
X152648082Y-66857816D01*
X152802863Y-66793703D01*
X152942162Y-66700626D01*
X152942161Y-66700626D01*
X152947227Y-66697242D01*
X152948500Y-66699147D01*
X153003413Y-66675832D01*
X153017756Y-66675000D01*
X205740000Y-66675000D01*
X205740000Y-52070000D01*
X205240000Y-52070000D01*
X203904675Y-52070000D01*
X203885277Y-52068473D01*
X203868830Y-52065868D01*
X203702352Y-52039500D01*
X202697648Y-52039500D01*
X202531170Y-52065868D01*
X202514723Y-52068473D01*
X202495325Y-52070000D01*
X202481362Y-52070000D01*
X202414323Y-52050315D01*
X202393681Y-52033681D01*
X201966319Y-51606319D01*
X201932834Y-51544996D01*
X201930000Y-51518638D01*
X201930000Y-50081362D01*
X201949685Y-50014323D01*
X201966319Y-49993681D01*
X202393681Y-49566319D01*
X202420608Y-49551615D01*
X202446427Y-49535023D01*
X202452627Y-49534131D01*
X202455004Y-49532834D01*
X202481362Y-49530000D01*
X202495325Y-49530000D01*
X202514722Y-49531526D01*
X202697648Y-49560500D01*
X202697649Y-49560500D01*
X203702351Y-49560500D01*
X203702352Y-49560500D01*
X203885277Y-49531526D01*
X203904675Y-49530000D01*
X205740000Y-49530000D01*
X205740000Y-40640000D01*
X205240000Y-40640000D01*
X179570000Y-40640000D01*
X179070000Y-40640000D01*
X179070000Y-51518638D01*
X179050315Y-51585677D01*
X179033681Y-51606319D01*
X178606319Y-52033681D01*
X178544996Y-52067166D01*
X178518638Y-52070000D01*
X173424675Y-52070000D01*
X173405277Y-52068473D01*
X173388830Y-52065868D01*
X173222352Y-52039500D01*
X172217648Y-52039500D01*
X172051170Y-52065868D01*
X172034723Y-52068473D01*
X172015325Y-52070000D01*
X172001362Y-52070000D01*
X171934323Y-52050315D01*
X171913681Y-52033681D01*
X171486319Y-51606319D01*
X171452834Y-51544996D01*
X171450000Y-51518638D01*
X171450000Y-50081362D01*
X171469685Y-50014323D01*
X171486319Y-49993681D01*
X171913681Y-49566319D01*
X171940608Y-49551615D01*
X171966427Y-49535023D01*
X171972627Y-49534131D01*
X171975004Y-49532834D01*
X172001362Y-49530000D01*
X172015325Y-49530000D01*
X172034722Y-49531526D01*
X172217648Y-49560500D01*
X172217649Y-49560500D01*
X173222351Y-49560500D01*
X173222352Y-49560500D01*
X173405277Y-49531526D01*
X173424675Y-49530000D01*
X175260000Y-49530000D01*
X175260000Y-40640000D01*
X174760000Y-40640000D01*
X144772000Y-40640000D01*
X144272000Y-40640000D01*
X144272000Y-49530000D01*
X145345325Y-49530000D01*
X145364722Y-49531526D01*
X145547648Y-49560500D01*
X145547649Y-49560500D01*
X146552351Y-49560500D01*
X146552352Y-49560500D01*
X146735277Y-49531526D01*
X146754675Y-49530000D01*
X146768638Y-49530000D01*
X146835677Y-49549685D01*
X146856319Y-49566319D01*
X147283681Y-49993681D01*
X147317166Y-50055004D01*
X147320000Y-50081362D01*
X147320000Y-51518638D01*
X147300315Y-51585677D01*
X147283681Y-51606319D01*
X146856319Y-52033681D01*
X146829391Y-52048384D01*
X146803573Y-52064977D01*
X146797372Y-52065868D01*
X146794996Y-52067166D01*
X146768638Y-52070000D01*
X146754675Y-52070000D01*
X146735277Y-52068473D01*
X146718830Y-52065868D01*
X146552352Y-52039500D01*
X145547648Y-52039500D01*
X145381170Y-52065868D01*
X145364723Y-52068473D01*
X145345325Y-52070000D01*
X141521362Y-52070000D01*
X141454323Y-52050315D01*
X141433681Y-52033681D01*
X141006319Y-51606319D01*
X140972834Y-51544996D01*
X140970000Y-51518638D01*
X140970000Y-37381362D01*
X140989685Y-37314323D01*
X141006319Y-37293681D01*
X141433681Y-36866319D01*
X141495004Y-36832834D01*
X141521362Y-36830000D01*
X214078638Y-36830000D01*
X214145677Y-36849685D01*
G37*
%TD.AperFunction*%
%TD*%
%TA.AperFunction,Conductor*%
%TO.N,+15V_O*%
G36*
X115654283Y-36849685D02*
G01*
X115658058Y-36852432D01*
X115662837Y-36855625D01*
X115662838Y-36855626D01*
X115802137Y-36948703D01*
X115956918Y-37012816D01*
X116121228Y-37045499D01*
X116121232Y-37045500D01*
X116121233Y-37045500D01*
X116288768Y-37045500D01*
X116288769Y-37045499D01*
X116453082Y-37012816D01*
X116607863Y-36948703D01*
X116747162Y-36855626D01*
X116747161Y-36855626D01*
X116752227Y-36852242D01*
X116753500Y-36854147D01*
X116808413Y-36830832D01*
X116822756Y-36830000D01*
X135973638Y-36830000D01*
X136040677Y-36849685D01*
X136061319Y-36866319D01*
X136488681Y-37293681D01*
X136522166Y-37355004D01*
X136525000Y-37381362D01*
X136525000Y-49530000D01*
X137725325Y-49530000D01*
X137744722Y-49531526D01*
X137927648Y-49560500D01*
X137927649Y-49560500D01*
X138932351Y-49560500D01*
X138932352Y-49560500D01*
X139115277Y-49531526D01*
X139134675Y-49530000D01*
X139148638Y-49530000D01*
X139215677Y-49549685D01*
X139236319Y-49566319D01*
X139663681Y-49993681D01*
X139697166Y-50055004D01*
X139700000Y-50081362D01*
X139700000Y-51518638D01*
X139680315Y-51585677D01*
X139663681Y-51606319D01*
X139236319Y-52033681D01*
X139209391Y-52048384D01*
X139183573Y-52064977D01*
X139177372Y-52065868D01*
X139174996Y-52067166D01*
X139148638Y-52070000D01*
X139134675Y-52070000D01*
X139115277Y-52068473D01*
X139098830Y-52065868D01*
X138932352Y-52039500D01*
X137927648Y-52039500D01*
X137761170Y-52065868D01*
X137744723Y-52068473D01*
X137725325Y-52070000D01*
X136525000Y-52070000D01*
X136525000Y-60325000D01*
X158885000Y-60325000D01*
X159385000Y-60325000D01*
X159385000Y-51768926D01*
X159404685Y-51701887D01*
X159457489Y-51656132D01*
X159484800Y-51647310D01*
X159633082Y-51617816D01*
X159787863Y-51553703D01*
X159927162Y-51460626D01*
X160045626Y-51342162D01*
X160138703Y-51202863D01*
X160202816Y-51048082D01*
X160235500Y-50883767D01*
X160235500Y-50716233D01*
X160202816Y-50551918D01*
X160138703Y-50397137D01*
X160074320Y-50300781D01*
X160045626Y-50257837D01*
X159927162Y-50139373D01*
X159787860Y-50046295D01*
X159662924Y-49994545D01*
X159608521Y-49950704D01*
X159586456Y-49884410D01*
X159603735Y-49816710D01*
X159622692Y-49792307D01*
X159848681Y-49566319D01*
X159910004Y-49532834D01*
X159936362Y-49530000D01*
X164395325Y-49530000D01*
X164414722Y-49531526D01*
X164597648Y-49560500D01*
X164597649Y-49560500D01*
X165214138Y-49560500D01*
X165281177Y-49580185D01*
X165301819Y-49596819D01*
X165698681Y-49993681D01*
X165732166Y-50055004D01*
X165735000Y-50081362D01*
X165735000Y-51518638D01*
X165715315Y-51585677D01*
X165698681Y-51606319D01*
X165301819Y-52003181D01*
X165240496Y-52036666D01*
X165214138Y-52039500D01*
X164597648Y-52039500D01*
X164431170Y-52065868D01*
X164414723Y-52068473D01*
X164395325Y-52070000D01*
X163195000Y-52070000D01*
X163195000Y-61595000D01*
X170832244Y-61595000D01*
X170899283Y-61614685D01*
X170903058Y-61617432D01*
X170907837Y-61620625D01*
X170907838Y-61620626D01*
X171047137Y-61713703D01*
X171201918Y-61777816D01*
X171353021Y-61807872D01*
X171366228Y-61810499D01*
X171366232Y-61810500D01*
X171366233Y-61810500D01*
X171533768Y-61810500D01*
X171533769Y-61810499D01*
X171698082Y-61777816D01*
X171852863Y-61713703D01*
X171992162Y-61620626D01*
X171992161Y-61620626D01*
X171997227Y-61617242D01*
X171998500Y-61619147D01*
X172053413Y-61595832D01*
X172067756Y-61595000D01*
X189230000Y-61595000D01*
X189230000Y-50081362D01*
X189249685Y-50014323D01*
X189266319Y-49993681D01*
X189693681Y-49566319D01*
X189755004Y-49532834D01*
X189781362Y-49530000D01*
X194875325Y-49530000D01*
X194894722Y-49531526D01*
X195077648Y-49560500D01*
X195077649Y-49560500D01*
X195694138Y-49560500D01*
X195761177Y-49580185D01*
X195781819Y-49596819D01*
X196178681Y-49993681D01*
X196212166Y-50055004D01*
X196215000Y-50081362D01*
X196215000Y-51518638D01*
X196195315Y-51585677D01*
X196178681Y-51606319D01*
X195781819Y-52003181D01*
X195720496Y-52036666D01*
X195694138Y-52039500D01*
X195077648Y-52039500D01*
X194911170Y-52065868D01*
X194894723Y-52068473D01*
X194875325Y-52070000D01*
X193040000Y-52070000D01*
X193040000Y-64853638D01*
X193020315Y-64920677D01*
X193003681Y-64941319D01*
X192576319Y-65368681D01*
X192514996Y-65402166D01*
X192488638Y-65405000D01*
X153017756Y-65405000D01*
X152950717Y-65385315D01*
X152946941Y-65382567D01*
X152802860Y-65286295D01*
X152648082Y-65222184D01*
X152648074Y-65222182D01*
X152483771Y-65189500D01*
X152483767Y-65189500D01*
X152316233Y-65189500D01*
X152316228Y-65189500D01*
X152151925Y-65222182D01*
X152151917Y-65222184D01*
X151997139Y-65286295D01*
X151852773Y-65382758D01*
X151851499Y-65380852D01*
X151796587Y-65404168D01*
X151782244Y-65405000D01*
X142857756Y-65405000D01*
X142790717Y-65385315D01*
X142786941Y-65382567D01*
X142642860Y-65286295D01*
X142488082Y-65222184D01*
X142488074Y-65222182D01*
X142323771Y-65189500D01*
X142323767Y-65189500D01*
X142156233Y-65189500D01*
X142156228Y-65189500D01*
X141991925Y-65222182D01*
X141991917Y-65222184D01*
X141837139Y-65286295D01*
X141692773Y-65382758D01*
X141691499Y-65380852D01*
X141636587Y-65404168D01*
X141622244Y-65405000D01*
X130091362Y-65405000D01*
X130024323Y-65385315D01*
X130003681Y-65368681D01*
X129576319Y-64941319D01*
X129542834Y-64879996D01*
X129540000Y-64853638D01*
X129540000Y-41910000D01*
X129040000Y-41910000D01*
X123994675Y-41910000D01*
X123975277Y-41908473D01*
X123792352Y-41879500D01*
X122587648Y-41879500D01*
X122404723Y-41908473D01*
X122385325Y-41910000D01*
X116374675Y-41910000D01*
X116355277Y-41908473D01*
X116172352Y-41879500D01*
X114967648Y-41879500D01*
X114784723Y-41908473D01*
X114765325Y-41910000D01*
X108754675Y-41910000D01*
X108735277Y-41908473D01*
X108552352Y-41879500D01*
X107347648Y-41879500D01*
X107164723Y-41908473D01*
X107145325Y-41910000D01*
X101134675Y-41910000D01*
X101115277Y-41908473D01*
X100932352Y-41879500D01*
X99727648Y-41879500D01*
X99544723Y-41908473D01*
X99525325Y-41910000D01*
X98425000Y-41910000D01*
X98425000Y-65405000D01*
X98425000Y-88519000D01*
X109990000Y-88519000D01*
X110490000Y-88519000D01*
X110490000Y-79147497D01*
X110499439Y-79100044D01*
X110545816Y-78988082D01*
X110578500Y-78823767D01*
X110578500Y-78656233D01*
X110545816Y-78491918D01*
X110499439Y-78379954D01*
X110490000Y-78332501D01*
X110490000Y-78021362D01*
X110509685Y-77954323D01*
X110526319Y-77933681D01*
X110953681Y-77506319D01*
X111015004Y-77472834D01*
X111041362Y-77470000D01*
X114865325Y-77470000D01*
X114884722Y-77471526D01*
X115067648Y-77500500D01*
X115067649Y-77500500D01*
X115684138Y-77500500D01*
X115751177Y-77520185D01*
X115771819Y-77536819D01*
X116168681Y-77933681D01*
X116202166Y-77995004D01*
X116205000Y-78021362D01*
X116205000Y-79458638D01*
X116185315Y-79525677D01*
X116168681Y-79546319D01*
X115771819Y-79943181D01*
X115710496Y-79976666D01*
X115684138Y-79979500D01*
X115067648Y-79979500D01*
X114912446Y-80004082D01*
X114884723Y-80008473D01*
X114865325Y-80010000D01*
X113665000Y-80010000D01*
X113665000Y-88265000D01*
X130945000Y-88265000D01*
X131445000Y-88265000D01*
X131445000Y-81897755D01*
X131464685Y-81830716D01*
X131467433Y-81826939D01*
X131470622Y-81822165D01*
X131470626Y-81822162D01*
X131563703Y-81682863D01*
X131627816Y-81528082D01*
X131660500Y-81363767D01*
X131660500Y-81196233D01*
X131627816Y-81031918D01*
X131563703Y-80877137D01*
X131470626Y-80737838D01*
X131467242Y-80732773D01*
X131469147Y-80731499D01*
X131445832Y-80676587D01*
X131445000Y-80662244D01*
X131445000Y-79357755D01*
X131464685Y-79290716D01*
X131467433Y-79286939D01*
X131470622Y-79282165D01*
X131470626Y-79282162D01*
X131563703Y-79142863D01*
X131627816Y-78988082D01*
X131660500Y-78823767D01*
X131660500Y-78656233D01*
X131627816Y-78491918D01*
X131563703Y-78337137D01*
X131470626Y-78197838D01*
X131467242Y-78192773D01*
X131469147Y-78191499D01*
X131463440Y-78178056D01*
X131450023Y-78157179D01*
X131447692Y-78140967D01*
X131445832Y-78136587D01*
X131445000Y-78122244D01*
X131445000Y-78021362D01*
X131464685Y-77954323D01*
X131481319Y-77933681D01*
X131908681Y-77506319D01*
X131970004Y-77472834D01*
X131996362Y-77470000D01*
X137725325Y-77470000D01*
X137744722Y-77471526D01*
X137927648Y-77500500D01*
X137927649Y-77500500D01*
X138544138Y-77500500D01*
X138611177Y-77520185D01*
X138631819Y-77536819D01*
X139028681Y-77933681D01*
X139062166Y-77995004D01*
X139065000Y-78021362D01*
X139065000Y-79458638D01*
X139045315Y-79525677D01*
X139028681Y-79546319D01*
X138631819Y-79943181D01*
X138570496Y-79976666D01*
X138544138Y-79979500D01*
X137927648Y-79979500D01*
X137772446Y-80004082D01*
X137744723Y-80008473D01*
X137725325Y-80010000D01*
X135890000Y-80010000D01*
X135890000Y-88265000D01*
X167140000Y-88265000D01*
X167640000Y-88265000D01*
X167640000Y-80010000D01*
X165804675Y-80010000D01*
X165785277Y-80008473D01*
X165757554Y-80004082D01*
X165602352Y-79979500D01*
X164597648Y-79979500D01*
X164442446Y-80004082D01*
X164414723Y-80008473D01*
X164395325Y-80010000D01*
X164381362Y-80010000D01*
X164314323Y-79990315D01*
X164293681Y-79973681D01*
X163866319Y-79546319D01*
X163832834Y-79484996D01*
X163830000Y-79458638D01*
X163830000Y-78021362D01*
X163849685Y-77954323D01*
X163866319Y-77933681D01*
X164293681Y-77506319D01*
X164320608Y-77491615D01*
X164346427Y-77475023D01*
X164352627Y-77474131D01*
X164355004Y-77472834D01*
X164381362Y-77470000D01*
X164395325Y-77470000D01*
X164414722Y-77471526D01*
X164597648Y-77500500D01*
X164597649Y-77500500D01*
X165602351Y-77500500D01*
X165602352Y-77500500D01*
X165785277Y-77471526D01*
X165804675Y-77470000D01*
X169027781Y-77470000D01*
X169094820Y-77489685D01*
X169140575Y-77542489D01*
X169142342Y-77546547D01*
X169172295Y-77618860D01*
X169265373Y-77758162D01*
X169383837Y-77876626D01*
X169452020Y-77922184D01*
X169523137Y-77969703D01*
X169677918Y-78033816D01*
X169801461Y-78058390D01*
X169842228Y-78066499D01*
X169842232Y-78066500D01*
X169842233Y-78066500D01*
X170009768Y-78066500D01*
X170009769Y-78066499D01*
X170174082Y-78033816D01*
X170328863Y-77969703D01*
X170468162Y-77876626D01*
X170507212Y-77837576D01*
X170515158Y-77833236D01*
X170520584Y-77825989D01*
X170545342Y-77816754D01*
X170568535Y-77804090D01*
X170577565Y-77804735D01*
X170586048Y-77801572D01*
X170611869Y-77807189D01*
X170638226Y-77809074D01*
X170647279Y-77814892D01*
X170654321Y-77816424D01*
X170682575Y-77837575D01*
X170778681Y-77933681D01*
X170812166Y-77995004D01*
X170815000Y-78021362D01*
X170815000Y-80010000D01*
X170815000Y-88265000D01*
X189238000Y-88265000D01*
X189738000Y-88265000D01*
X189738000Y-79486151D01*
X189757685Y-79419112D01*
X189774319Y-79398470D01*
X189890623Y-79282165D01*
X189890626Y-79282162D01*
X189983703Y-79142863D01*
X190047816Y-78988082D01*
X190080500Y-78823767D01*
X190080500Y-78656233D01*
X190047816Y-78491918D01*
X189983703Y-78337137D01*
X189919320Y-78240781D01*
X189890626Y-78197837D01*
X189788075Y-78095286D01*
X189754590Y-78033963D01*
X189759574Y-77964271D01*
X189788073Y-77919926D01*
X190201681Y-77506319D01*
X190263004Y-77472834D01*
X190289362Y-77470000D01*
X194875325Y-77470000D01*
X194894722Y-77471526D01*
X195077648Y-77500500D01*
X195077649Y-77500500D01*
X195694138Y-77500500D01*
X195761177Y-77520185D01*
X195781819Y-77536819D01*
X196178681Y-77933681D01*
X196212166Y-77995004D01*
X196215000Y-78021362D01*
X196215000Y-79458638D01*
X196195315Y-79525677D01*
X196178681Y-79546319D01*
X195781819Y-79943181D01*
X195720496Y-79976666D01*
X195694138Y-79979500D01*
X195077648Y-79979500D01*
X194922446Y-80004082D01*
X194894723Y-80008473D01*
X194875325Y-80010000D01*
X193675000Y-80010000D01*
X193675000Y-92158638D01*
X193655315Y-92225677D01*
X193638681Y-92246319D01*
X193211319Y-92673681D01*
X193149996Y-92707166D01*
X193123638Y-92710000D01*
X178417756Y-92710000D01*
X178350717Y-92690315D01*
X178346941Y-92687567D01*
X178202860Y-92591295D01*
X178048082Y-92527184D01*
X178048074Y-92527182D01*
X177883771Y-92494500D01*
X177883767Y-92494500D01*
X177716233Y-92494500D01*
X177716228Y-92494500D01*
X177551925Y-92527182D01*
X177551917Y-92527184D01*
X177397139Y-92591295D01*
X177252773Y-92687758D01*
X177251499Y-92685852D01*
X177196587Y-92709168D01*
X177182244Y-92710000D01*
X141587756Y-92710000D01*
X141520717Y-92690315D01*
X141516941Y-92687567D01*
X141372860Y-92591295D01*
X141218082Y-92527184D01*
X141218074Y-92527182D01*
X141053771Y-92494500D01*
X141053767Y-92494500D01*
X140886233Y-92494500D01*
X140886228Y-92494500D01*
X140721925Y-92527182D01*
X140721917Y-92527184D01*
X140567139Y-92591295D01*
X140422773Y-92687758D01*
X140421499Y-92685852D01*
X140366587Y-92709168D01*
X140352244Y-92710000D01*
X98425000Y-92710000D01*
X98425000Y-107332244D01*
X98405315Y-107399283D01*
X98402567Y-107403058D01*
X98306295Y-107547139D01*
X98242184Y-107701917D01*
X98242182Y-107701925D01*
X98209500Y-107866228D01*
X98209500Y-108033771D01*
X98242182Y-108198074D01*
X98242184Y-108198082D01*
X98306295Y-108352860D01*
X98402758Y-108497227D01*
X98400846Y-108498504D01*
X98424163Y-108553376D01*
X98425000Y-108567755D01*
X98425000Y-117475000D01*
X102370000Y-117475000D01*
X102870000Y-117475000D01*
X102870000Y-107231362D01*
X102889685Y-107164323D01*
X102906319Y-107143681D01*
X103333681Y-106716319D01*
X103395004Y-106682834D01*
X103421362Y-106680000D01*
X107145325Y-106680000D01*
X107164722Y-106681526D01*
X107347648Y-106710500D01*
X107347649Y-106710500D01*
X108552351Y-106710500D01*
X108552352Y-106710500D01*
X108735277Y-106681526D01*
X108754675Y-106680000D01*
X114865325Y-106680000D01*
X114884722Y-106681526D01*
X115067648Y-106710500D01*
X115067649Y-106710500D01*
X115684138Y-106710500D01*
X115751177Y-106730185D01*
X115771819Y-106746819D01*
X116168681Y-107143681D01*
X116202166Y-107205004D01*
X116205000Y-107231362D01*
X116205000Y-108668638D01*
X116185315Y-108735677D01*
X116168681Y-108756319D01*
X115771819Y-109153181D01*
X115710496Y-109186666D01*
X115684138Y-109189500D01*
X115067648Y-109189500D01*
X114884723Y-109218473D01*
X114865325Y-109220000D01*
X108754675Y-109220000D01*
X108735277Y-109218473D01*
X108552352Y-109189500D01*
X107347648Y-109189500D01*
X107164723Y-109218473D01*
X107145325Y-109220000D01*
X106045000Y-109220000D01*
X106045000Y-117475000D01*
X132215000Y-117475000D01*
X132715000Y-117475000D01*
X132715000Y-111107755D01*
X132734685Y-111040716D01*
X132737433Y-111036939D01*
X132740622Y-111032165D01*
X132740626Y-111032162D01*
X132833703Y-110892863D01*
X132897816Y-110738082D01*
X132930500Y-110573767D01*
X132930500Y-110406233D01*
X132897816Y-110241918D01*
X132833703Y-110087137D01*
X132740626Y-109947838D01*
X132737242Y-109942773D01*
X132739147Y-109941499D01*
X132715832Y-109886587D01*
X132715000Y-109872244D01*
X132715000Y-107231362D01*
X132734685Y-107164323D01*
X132751319Y-107143681D01*
X133178681Y-106716319D01*
X133240004Y-106682834D01*
X133266362Y-106680000D01*
X137878638Y-106680000D01*
X137945677Y-106699685D01*
X137966319Y-106716319D01*
X138393681Y-107143681D01*
X138427166Y-107205004D01*
X138430000Y-107231362D01*
X138430000Y-108668638D01*
X138410315Y-108735677D01*
X138393681Y-108756319D01*
X138056819Y-109093181D01*
X137995496Y-109126666D01*
X137969138Y-109129500D01*
X137867648Y-109129500D01*
X137800254Y-109140174D01*
X137665464Y-109161523D01*
X137665461Y-109161523D01*
X137504170Y-109213931D01*
X137465852Y-109220000D01*
X136525000Y-109220000D01*
X136525000Y-117475000D01*
X153805000Y-117475000D01*
X154305000Y-117475000D01*
X154305000Y-107231362D01*
X154324685Y-107164323D01*
X154341319Y-107143681D01*
X154768681Y-106716319D01*
X154830004Y-106682834D01*
X154856362Y-106680000D01*
X159795554Y-106680000D01*
X159838888Y-106687819D01*
X159882508Y-106704088D01*
X159882511Y-106704088D01*
X159882517Y-106704091D01*
X159942127Y-106710500D01*
X162637872Y-106710499D01*
X162697483Y-106704091D01*
X162741114Y-106687817D01*
X162784446Y-106680000D01*
X164395325Y-106680000D01*
X164414722Y-106681526D01*
X164596889Y-106710379D01*
X164660023Y-106740308D01*
X164665171Y-106745171D01*
X165063681Y-107143681D01*
X165097166Y-107205004D01*
X165100000Y-107231362D01*
X165100000Y-108668638D01*
X165080315Y-108735677D01*
X165063681Y-108756319D01*
X164665171Y-109154828D01*
X164646491Y-109165027D01*
X164630607Y-109179194D01*
X164607416Y-109186364D01*
X164603848Y-109188313D01*
X164596888Y-109189620D01*
X164414723Y-109218473D01*
X164395325Y-109220000D01*
X162784446Y-109220000D01*
X162741112Y-109212181D01*
X162697491Y-109195911D01*
X162697480Y-109195908D01*
X162637883Y-109189501D01*
X162637881Y-109189500D01*
X162637873Y-109189500D01*
X162637864Y-109189500D01*
X159942129Y-109189500D01*
X159942123Y-109189501D01*
X159882518Y-109195908D01*
X159857164Y-109205365D01*
X159838885Y-109212182D01*
X159795554Y-109220000D01*
X158115000Y-109220000D01*
X158115000Y-114317244D01*
X158095315Y-114384283D01*
X158092567Y-114388058D01*
X157996295Y-114532139D01*
X157932184Y-114686917D01*
X157932182Y-114686925D01*
X157899500Y-114851228D01*
X157899500Y-115018771D01*
X157932182Y-115183074D01*
X157932184Y-115183082D01*
X157996295Y-115337860D01*
X158092758Y-115482227D01*
X158090846Y-115483504D01*
X158114163Y-115538376D01*
X158115000Y-115552755D01*
X158115000Y-117475000D01*
X189365000Y-117475000D01*
X189865000Y-117475000D01*
X189865000Y-107231362D01*
X189884685Y-107164323D01*
X189901319Y-107143681D01*
X190328681Y-106716319D01*
X190390004Y-106682834D01*
X190416362Y-106680000D01*
X194815325Y-106680000D01*
X194834722Y-106681526D01*
X195017648Y-106710500D01*
X195017649Y-106710500D01*
X195694138Y-106710500D01*
X195761177Y-106730185D01*
X195781819Y-106746819D01*
X196178681Y-107143681D01*
X196212166Y-107205004D01*
X196215000Y-107231362D01*
X196215000Y-108668638D01*
X196195315Y-108735677D01*
X196178681Y-108756319D01*
X195781819Y-109153181D01*
X195720496Y-109186666D01*
X195694138Y-109189500D01*
X195017648Y-109189500D01*
X194834723Y-109218473D01*
X194815325Y-109220000D01*
X193675000Y-109220000D01*
X193675000Y-120733638D01*
X193655315Y-120800677D01*
X193638681Y-120821319D01*
X193211319Y-121248681D01*
X193149996Y-121282166D01*
X193123638Y-121285000D01*
X172067756Y-121285000D01*
X172000717Y-121265315D01*
X171996941Y-121262567D01*
X171852860Y-121166295D01*
X171698082Y-121102184D01*
X171698074Y-121102182D01*
X171533771Y-121069500D01*
X171533767Y-121069500D01*
X171366233Y-121069500D01*
X171366228Y-121069500D01*
X171201925Y-121102182D01*
X171201917Y-121102184D01*
X171047139Y-121166295D01*
X170902773Y-121262758D01*
X170901499Y-121260852D01*
X170846587Y-121284168D01*
X170832244Y-121285000D01*
X157462756Y-121285000D01*
X157395717Y-121265315D01*
X157391941Y-121262567D01*
X157247860Y-121166295D01*
X157093082Y-121102184D01*
X157093074Y-121102182D01*
X156928771Y-121069500D01*
X156928767Y-121069500D01*
X156761233Y-121069500D01*
X156761228Y-121069500D01*
X156596925Y-121102182D01*
X156596917Y-121102184D01*
X156442139Y-121166295D01*
X156297773Y-121262758D01*
X156296499Y-121260852D01*
X156241587Y-121284168D01*
X156227244Y-121285000D01*
X126982756Y-121285000D01*
X126915717Y-121265315D01*
X126911941Y-121262567D01*
X126767860Y-121166295D01*
X126613082Y-121102184D01*
X126613074Y-121102182D01*
X126448771Y-121069500D01*
X126448767Y-121069500D01*
X126281233Y-121069500D01*
X126281228Y-121069500D01*
X126116925Y-121102182D01*
X126116917Y-121102184D01*
X125962139Y-121166295D01*
X125817773Y-121262758D01*
X125816499Y-121260852D01*
X125761587Y-121284168D01*
X125747244Y-121285000D01*
X111107756Y-121285000D01*
X111040717Y-121265315D01*
X111036941Y-121262567D01*
X110892860Y-121166295D01*
X110738082Y-121102184D01*
X110738074Y-121102182D01*
X110573771Y-121069500D01*
X110573767Y-121069500D01*
X110406233Y-121069500D01*
X110406228Y-121069500D01*
X110241925Y-121102182D01*
X110241917Y-121102184D01*
X110087139Y-121166295D01*
X109942773Y-121262758D01*
X109941499Y-121260852D01*
X109886587Y-121284168D01*
X109872244Y-121285000D01*
X98425000Y-121285000D01*
X98425000Y-146685000D01*
X101735000Y-146685000D01*
X102235000Y-146685000D01*
X102235000Y-136441361D01*
X102254685Y-136374322D01*
X102271314Y-136353685D01*
X102510204Y-136114795D01*
X102571523Y-136081313D01*
X102641214Y-136086297D01*
X102666769Y-136099375D01*
X102721137Y-136135703D01*
X102875918Y-136199816D01*
X103040228Y-136232499D01*
X103040232Y-136232500D01*
X103040233Y-136232500D01*
X103207768Y-136232500D01*
X103207769Y-136232499D01*
X103372082Y-136199816D01*
X103526863Y-136135703D01*
X103666162Y-136042626D01*
X103718978Y-135989810D01*
X103782470Y-135926319D01*
X103843793Y-135892834D01*
X103870151Y-135890000D01*
X107145325Y-135890000D01*
X107164722Y-135891526D01*
X107347648Y-135920500D01*
X107347649Y-135920500D01*
X108552351Y-135920500D01*
X108552352Y-135920500D01*
X108735277Y-135891526D01*
X108754675Y-135890000D01*
X114865325Y-135890000D01*
X114884722Y-135891526D01*
X115067648Y-135920500D01*
X115067649Y-135920500D01*
X116072351Y-135920500D01*
X116072352Y-135920500D01*
X116255277Y-135891526D01*
X116274675Y-135890000D01*
X116288638Y-135890000D01*
X116355677Y-135909685D01*
X116376319Y-135926319D01*
X116803681Y-136353681D01*
X116837166Y-136415004D01*
X116840000Y-136441362D01*
X116840000Y-137878638D01*
X116820315Y-137945677D01*
X116803681Y-137966319D01*
X116376319Y-138393681D01*
X116349391Y-138408384D01*
X116323573Y-138424977D01*
X116317372Y-138425868D01*
X116314996Y-138427166D01*
X116288638Y-138430000D01*
X116274675Y-138430000D01*
X116255277Y-138428473D01*
X116238830Y-138425868D01*
X116072352Y-138399500D01*
X115067648Y-138399500D01*
X114901170Y-138425868D01*
X114884723Y-138428473D01*
X114865325Y-138430000D01*
X111340256Y-138430000D01*
X111273217Y-138410315D01*
X111269441Y-138407567D01*
X111125360Y-138311295D01*
X110970582Y-138247184D01*
X110970574Y-138247182D01*
X110806271Y-138214500D01*
X110806267Y-138214500D01*
X110638733Y-138214500D01*
X110638728Y-138214500D01*
X110474425Y-138247182D01*
X110474417Y-138247184D01*
X110319639Y-138311295D01*
X110175273Y-138407758D01*
X110173999Y-138405852D01*
X110119087Y-138429168D01*
X110104744Y-138430000D01*
X108754675Y-138430000D01*
X108735277Y-138428473D01*
X108718830Y-138425868D01*
X108552352Y-138399500D01*
X107347648Y-138399500D01*
X107181170Y-138425868D01*
X107164723Y-138428473D01*
X107145325Y-138430000D01*
X105410000Y-138430000D01*
X105410000Y-146685000D01*
X124595000Y-146685000D01*
X125095000Y-146685000D01*
X125095000Y-136441362D01*
X125114685Y-136374323D01*
X125131319Y-136353681D01*
X125558681Y-135926319D01*
X125620004Y-135892834D01*
X125646362Y-135890000D01*
X127092443Y-135890000D01*
X127159482Y-135909685D01*
X127205237Y-135962489D01*
X127214059Y-135989805D01*
X127217072Y-136004949D01*
X127219684Y-136018082D01*
X127283795Y-136172860D01*
X127376873Y-136312162D01*
X127495337Y-136430626D01*
X127587994Y-136492537D01*
X127634637Y-136523703D01*
X127789418Y-136587816D01*
X127940350Y-136617838D01*
X127953728Y-136620499D01*
X127953732Y-136620500D01*
X127953733Y-136620500D01*
X128121268Y-136620500D01*
X128121269Y-136620499D01*
X128285582Y-136587816D01*
X128440363Y-136523703D01*
X128579662Y-136430626D01*
X128698126Y-136312162D01*
X128791203Y-136172863D01*
X128855316Y-136018082D01*
X128860939Y-135989808D01*
X128893324Y-135927899D01*
X128954039Y-135893324D01*
X128982557Y-135890000D01*
X133125554Y-135890000D01*
X133168888Y-135897819D01*
X133212508Y-135914088D01*
X133212511Y-135914088D01*
X133212517Y-135914091D01*
X133272127Y-135920500D01*
X135967872Y-135920499D01*
X136027483Y-135914091D01*
X136071114Y-135897817D01*
X136114446Y-135890000D01*
X137725325Y-135890000D01*
X137744722Y-135891526D01*
X137927648Y-135920500D01*
X137927649Y-135920500D01*
X138544138Y-135920500D01*
X138611177Y-135940185D01*
X138631819Y-135956819D01*
X139028681Y-136353681D01*
X139062166Y-136415004D01*
X139065000Y-136441362D01*
X139065000Y-137878638D01*
X139045315Y-137945677D01*
X139028681Y-137966319D01*
X138631819Y-138363181D01*
X138570496Y-138396666D01*
X138544138Y-138399500D01*
X137927648Y-138399500D01*
X137761170Y-138425868D01*
X137744723Y-138428473D01*
X137725325Y-138430000D01*
X136114446Y-138430000D01*
X136071112Y-138422181D01*
X136027491Y-138405911D01*
X136027480Y-138405908D01*
X135967883Y-138399501D01*
X135967881Y-138399500D01*
X135967873Y-138399500D01*
X135967864Y-138399500D01*
X133272129Y-138399500D01*
X133272123Y-138399501D01*
X133212518Y-138405908D01*
X133187164Y-138415365D01*
X133168885Y-138422182D01*
X133125554Y-138430000D01*
X130174999Y-138430000D01*
X129780510Y-138824488D01*
X129719187Y-138857973D01*
X129668640Y-138858425D01*
X129623767Y-138849500D01*
X129456233Y-138849500D01*
X129456228Y-138849500D01*
X129291925Y-138882182D01*
X129291917Y-138882184D01*
X129137139Y-138946295D01*
X128997837Y-139039373D01*
X128879373Y-139157837D01*
X128786295Y-139297139D01*
X128722184Y-139451917D01*
X128722182Y-139451925D01*
X128689500Y-139616228D01*
X128689500Y-139783771D01*
X128722182Y-139948074D01*
X128722184Y-139948082D01*
X128786295Y-140102860D01*
X128882758Y-140247227D01*
X128880846Y-140248504D01*
X128904163Y-140303376D01*
X128905000Y-140317755D01*
X128905000Y-146685000D01*
X150495000Y-146685000D01*
X151765000Y-146685000D01*
X159520000Y-146685000D01*
X160020000Y-146685000D01*
X160020000Y-137567497D01*
X160029439Y-137520044D01*
X160075816Y-137408082D01*
X160108500Y-137243767D01*
X160108500Y-137076233D01*
X160075816Y-136911918D01*
X160029439Y-136799954D01*
X160020000Y-136752501D01*
X160020000Y-136441362D01*
X160039685Y-136374323D01*
X160056319Y-136353681D01*
X160483681Y-135926319D01*
X160545004Y-135892834D01*
X160571362Y-135890000D01*
X164395325Y-135890000D01*
X164414722Y-135891526D01*
X164597648Y-135920500D01*
X164597649Y-135920500D01*
X165214138Y-135920500D01*
X165281177Y-135940185D01*
X165301819Y-135956819D01*
X165698681Y-136353681D01*
X165732166Y-136415004D01*
X165735000Y-136441362D01*
X165735000Y-137878638D01*
X165715315Y-137945677D01*
X165698681Y-137966319D01*
X165301819Y-138363181D01*
X165240496Y-138396666D01*
X165214138Y-138399500D01*
X164597648Y-138399500D01*
X164431170Y-138425868D01*
X164414723Y-138428473D01*
X164395325Y-138430000D01*
X163195000Y-138430000D01*
X163195000Y-146685000D01*
X189365000Y-146685000D01*
X189865000Y-146685000D01*
X189865000Y-137777755D01*
X189884685Y-137710716D01*
X189887433Y-137706939D01*
X189890622Y-137702165D01*
X189890626Y-137702162D01*
X189983703Y-137562863D01*
X190047816Y-137408082D01*
X190080500Y-137243767D01*
X190080500Y-137076233D01*
X190047816Y-136911918D01*
X189983703Y-136757137D01*
X189919320Y-136660781D01*
X189887242Y-136612773D01*
X189889147Y-136611499D01*
X189883440Y-136598056D01*
X189870023Y-136577179D01*
X189867692Y-136560967D01*
X189865832Y-136556587D01*
X189865000Y-136542244D01*
X189865000Y-136441362D01*
X189884685Y-136374323D01*
X189884686Y-136374322D01*
X189901319Y-136353681D01*
X190328681Y-135926319D01*
X190390004Y-135892834D01*
X190416362Y-135890000D01*
X194875325Y-135890000D01*
X194894722Y-135891526D01*
X195077648Y-135920500D01*
X195077649Y-135920500D01*
X195694138Y-135920500D01*
X195761177Y-135940185D01*
X195781819Y-135956819D01*
X196178681Y-136353681D01*
X196212166Y-136415004D01*
X196215000Y-136441362D01*
X196215000Y-137878638D01*
X196195315Y-137945677D01*
X196178681Y-137966319D01*
X195781819Y-138363181D01*
X195720496Y-138396666D01*
X195694138Y-138399500D01*
X195077648Y-138399500D01*
X194911170Y-138425868D01*
X194894723Y-138428473D01*
X194875325Y-138430000D01*
X193675000Y-138430000D01*
X193675000Y-148590000D01*
X210338709Y-148590000D01*
X210377027Y-148596068D01*
X210503757Y-148637246D01*
X210713713Y-148670500D01*
X210713714Y-148670500D01*
X210926286Y-148670500D01*
X210926287Y-148670500D01*
X211136243Y-148637246D01*
X211262972Y-148596068D01*
X211301291Y-148590000D01*
X212878709Y-148590000D01*
X212917027Y-148596068D01*
X213043757Y-148637246D01*
X213253713Y-148670500D01*
X213253714Y-148670500D01*
X213466286Y-148670500D01*
X213466287Y-148670500D01*
X213676243Y-148637246D01*
X213802972Y-148596068D01*
X213805302Y-148595699D01*
X213806356Y-148595023D01*
X213841291Y-148590000D01*
X214078638Y-148590000D01*
X214145677Y-148609685D01*
X214166319Y-148626319D01*
X214593681Y-149053681D01*
X214627166Y-149115004D01*
X214630000Y-149141362D01*
X214630000Y-151848638D01*
X214610315Y-151915677D01*
X214593681Y-151936319D01*
X214166319Y-152363681D01*
X214104996Y-152397166D01*
X214078638Y-152400000D01*
X209550000Y-152400000D01*
X208280000Y-152400000D01*
X153061497Y-152400000D01*
X153014045Y-152390561D01*
X152902082Y-152344184D01*
X152902074Y-152344182D01*
X152737771Y-152311500D01*
X152737767Y-152311500D01*
X152570233Y-152311500D01*
X152570228Y-152311500D01*
X152405925Y-152344182D01*
X152405917Y-152344184D01*
X152353641Y-152365838D01*
X152293954Y-152390561D01*
X152246503Y-152400000D01*
X105902151Y-152400000D01*
X105835112Y-152380315D01*
X105814470Y-152363681D01*
X105698162Y-152247373D01*
X105558860Y-152154295D01*
X105404082Y-152090184D01*
X105404074Y-152090182D01*
X105239771Y-152057500D01*
X105239767Y-152057500D01*
X105072233Y-152057500D01*
X105072228Y-152057500D01*
X104907925Y-152090182D01*
X104907917Y-152090184D01*
X104753139Y-152154295D01*
X104613837Y-152247373D01*
X104613834Y-152247376D01*
X104497530Y-152363681D01*
X104436207Y-152397166D01*
X104409849Y-152400000D01*
X94531362Y-152400000D01*
X94464323Y-152380315D01*
X94443681Y-152363681D01*
X94016319Y-151936319D01*
X93982834Y-151874996D01*
X93980000Y-151848638D01*
X93980000Y-145415000D01*
X91440000Y-142875000D01*
X90940000Y-142875000D01*
X88816362Y-142875000D01*
X88749323Y-142855315D01*
X88728681Y-142838681D01*
X88301319Y-142411319D01*
X88267834Y-142349996D01*
X88265000Y-142323638D01*
X88265000Y-48176362D01*
X88284685Y-48109323D01*
X88301319Y-48088681D01*
X88728681Y-47661319D01*
X88790004Y-47627834D01*
X88816362Y-47625000D01*
X91440000Y-47625000D01*
X93980000Y-45085000D01*
X93980000Y-37381362D01*
X93999685Y-37314323D01*
X94016319Y-37293681D01*
X94443681Y-36866319D01*
X94505004Y-36832834D01*
X94531362Y-36830000D01*
X115587244Y-36830000D01*
X115654283Y-36849685D01*
G37*
%TD.AperFunction*%
%TD*%
M02*
