G04*
G04 #@! TF.GenerationSoftware,Altium Limited,Altium Designer,20.0.14 (345)*
G04*
G04 Layer_Physical_Order=1*
G04 Layer_Color=255*
%FSLAX25Y25*%
%MOIN*%
G70*
G01*
G75*
%ADD21C,0.05567*%
%ADD22R,0.05567X0.05567*%
%ADD24C,0.01200*%
%ADD25C,0.02000*%
%ADD26C,0.01500*%
%ADD27C,0.05709*%
%ADD28R,0.05709X0.05709*%
%ADD29R,0.05937X0.07874*%
%ADD30R,0.05937X0.05937*%
%ADD31C,0.05937*%
%ADD32C,0.06024*%
%ADD33R,0.06024X0.06024*%
%ADD34C,0.05906*%
G36*
X590551Y0D02*
X-0D01*
X-0Y295276D01*
X590551D01*
X590551Y0D01*
D02*
G37*
%LPC*%
G36*
X575500Y273291D02*
Y269870D01*
X578921D01*
X578851Y270402D01*
X578453Y271363D01*
X577819Y272189D01*
X576993Y272823D01*
X576032Y273221D01*
X575500Y273291D01*
D02*
G37*
G36*
X574500D02*
X573968Y273221D01*
X573007Y272823D01*
X572181Y272189D01*
X571547Y271363D01*
X571149Y270402D01*
X571079Y269870D01*
X574500D01*
Y273291D01*
D02*
G37*
G36*
X15500D02*
Y269870D01*
X18921D01*
X18851Y270402D01*
X18453Y271363D01*
X17819Y272189D01*
X16993Y272823D01*
X16032Y273221D01*
X15500Y273291D01*
D02*
G37*
G36*
X14500D02*
X13968Y273221D01*
X13007Y272823D01*
X12181Y272189D01*
X11547Y271363D01*
X11149Y270402D01*
X11079Y269870D01*
X14500D01*
Y273291D01*
D02*
G37*
G36*
X578921Y268870D02*
X575500D01*
Y265449D01*
X576032Y265519D01*
X576993Y265917D01*
X577819Y266551D01*
X578453Y267377D01*
X578851Y268338D01*
X578921Y268870D01*
D02*
G37*
G36*
X574500D02*
X571079D01*
X571149Y268338D01*
X571547Y267377D01*
X572181Y266551D01*
X573007Y265917D01*
X573968Y265519D01*
X574500Y265449D01*
Y268870D01*
D02*
G37*
G36*
X18921D02*
X15500D01*
Y265449D01*
X16032Y265519D01*
X16993Y265917D01*
X17819Y266551D01*
X18453Y267377D01*
X18851Y268338D01*
X18921Y268870D01*
D02*
G37*
G36*
X14500D02*
X11079D01*
X11149Y268338D01*
X11547Y267377D01*
X12181Y266551D01*
X13007Y265917D01*
X13968Y265519D01*
X14500Y265449D01*
Y268870D01*
D02*
G37*
G36*
X320000Y281409D02*
X75000D01*
X74220Y281254D01*
X73558Y280812D01*
X53558Y260812D01*
X53116Y260150D01*
X52961Y259370D01*
Y219370D01*
X53116Y218590D01*
X53558Y217928D01*
X56229Y215257D01*
X56112Y214370D01*
X56245Y213364D01*
X56633Y212426D01*
X57251Y211621D01*
X58056Y211003D01*
X58994Y210615D01*
X60000Y210483D01*
X60887Y210599D01*
X62961Y208525D01*
Y207587D01*
X62461Y207340D01*
X61944Y207737D01*
X61006Y208125D01*
X60500Y208192D01*
Y204370D01*
Y200548D01*
X61006Y200615D01*
X61944Y201003D01*
X62461Y201400D01*
X62961Y201153D01*
Y197587D01*
X62461Y197340D01*
X61944Y197737D01*
X61006Y198125D01*
X60000Y198258D01*
X58994Y198125D01*
X58056Y197737D01*
X57251Y197119D01*
X56633Y196314D01*
X56245Y195376D01*
X56112Y194370D01*
X56245Y193364D01*
X56633Y192426D01*
X57251Y191621D01*
X58056Y191003D01*
X58994Y190615D01*
X60000Y190482D01*
X61006Y190615D01*
X61944Y191003D01*
X62461Y191400D01*
X62961Y191154D01*
Y187587D01*
X62461Y187340D01*
X61944Y187737D01*
X61006Y188125D01*
X60000Y188258D01*
X58994Y188125D01*
X58056Y187737D01*
X57251Y187119D01*
X56633Y186314D01*
X56245Y185376D01*
X56112Y184370D01*
X56245Y183364D01*
X56633Y182426D01*
X57251Y181621D01*
X58056Y181003D01*
X58994Y180615D01*
X60000Y180482D01*
X61006Y180615D01*
X61944Y181003D01*
X62461Y181400D01*
X62961Y181154D01*
Y145211D01*
X62461Y144964D01*
X61993Y145323D01*
X61032Y145721D01*
X60500Y145791D01*
Y141870D01*
Y137949D01*
X61032Y138019D01*
X61993Y138417D01*
X62461Y138776D01*
X62961Y138529D01*
Y128224D01*
X56146D01*
Y120516D01*
X62961D01*
Y117587D01*
X62461Y117340D01*
X61944Y117737D01*
X61006Y118125D01*
X60000Y118258D01*
X58994Y118125D01*
X58056Y117737D01*
X57251Y117119D01*
X56633Y116314D01*
X56245Y115376D01*
X56112Y114370D01*
X56245Y113364D01*
X56633Y112426D01*
X57251Y111621D01*
X58056Y111003D01*
X58994Y110615D01*
X60000Y110483D01*
X61006Y110615D01*
X61944Y111003D01*
X62461Y111400D01*
X62961Y111153D01*
Y107587D01*
X62461Y107340D01*
X61944Y107737D01*
X61006Y108125D01*
X60000Y108258D01*
X58994Y108125D01*
X58056Y107737D01*
X57251Y107119D01*
X56633Y106314D01*
X56245Y105376D01*
X56112Y104370D01*
X56245Y103364D01*
X56633Y102426D01*
X57251Y101621D01*
X58056Y101003D01*
X58994Y100615D01*
X60000Y100482D01*
X61006Y100615D01*
X61944Y101003D01*
X62461Y101400D01*
X62961Y101154D01*
Y100215D01*
X60887Y98141D01*
X60000Y98258D01*
X58994Y98125D01*
X58056Y97737D01*
X57251Y97119D01*
X56633Y96314D01*
X56245Y95376D01*
X56112Y94370D01*
X56245Y93364D01*
X56633Y92426D01*
X57251Y91621D01*
X58056Y91003D01*
X58994Y90615D01*
X60000Y90482D01*
X60887Y90599D01*
X63558Y87928D01*
X64220Y87486D01*
X65000Y87331D01*
X86783D01*
X87030Y86831D01*
X86633Y86314D01*
X86245Y85376D01*
X86112Y84370D01*
X86245Y83364D01*
X86633Y82426D01*
X87251Y81621D01*
X88056Y81003D01*
X88994Y80615D01*
X90000Y80483D01*
X91006Y80615D01*
X91944Y81003D01*
X92749Y81621D01*
X93367Y82426D01*
X93755Y83364D01*
X93888Y84370D01*
X93755Y85376D01*
X93367Y86314D01*
X92970Y86831D01*
X93217Y87331D01*
X101655D01*
X110206Y78780D01*
X109931Y78348D01*
X108968Y78221D01*
X108007Y77823D01*
X107181Y77189D01*
X106547Y76363D01*
X106149Y75402D01*
X106013Y74370D01*
X106149Y73338D01*
X106547Y72377D01*
X107181Y71551D01*
X108007Y70917D01*
X108968Y70519D01*
X110000Y70383D01*
X111032Y70519D01*
X111993Y70917D01*
X112819Y71551D01*
X113453Y72377D01*
X113539Y72586D01*
X142500D01*
X143183Y72722D01*
X143762Y73108D01*
X145582Y74929D01*
X146056Y74696D01*
X146013Y74370D01*
X146149Y73338D01*
X146547Y72377D01*
X147181Y71551D01*
X148007Y70917D01*
X148968Y70519D01*
X150000Y70383D01*
X151032Y70519D01*
X151394Y70669D01*
X168846Y53216D01*
X169376Y52863D01*
X170000Y52739D01*
X260000D01*
X260624Y52863D01*
X261154Y53216D01*
X278606Y70669D01*
X278968Y70519D01*
X280000Y70383D01*
X281032Y70519D01*
X281993Y70917D01*
X282819Y71551D01*
X283453Y72377D01*
X283851Y73338D01*
X283987Y74370D01*
X283851Y75402D01*
X283453Y76363D01*
X282819Y77189D01*
X281993Y77823D01*
X281032Y78221D01*
X280000Y78357D01*
X278968Y78221D01*
X278007Y77823D01*
X277181Y77189D01*
X276547Y76363D01*
X276149Y75402D01*
X276013Y74370D01*
X276149Y73338D01*
X276299Y72976D01*
X259324Y56001D01*
X170676D01*
X154400Y72277D01*
X154592Y72739D01*
X161824Y72739D01*
X166347Y68217D01*
X166347Y68217D01*
X166876Y67863D01*
X167291Y67780D01*
X167426Y67253D01*
X167251Y67119D01*
X166633Y66314D01*
X166245Y65376D01*
X166112Y64370D01*
X166245Y63364D01*
X166633Y62426D01*
X167251Y61621D01*
X168056Y61003D01*
X168994Y60615D01*
X170000Y60483D01*
X171006Y60615D01*
X171944Y61003D01*
X172749Y61621D01*
X173367Y62426D01*
X173755Y63364D01*
X173888Y64370D01*
X173755Y65376D01*
X173367Y66314D01*
X172749Y67119D01*
X172593Y67239D01*
X172763Y67739D01*
X197237D01*
X197407Y67239D01*
X197251Y67119D01*
X196633Y66314D01*
X196245Y65376D01*
X196112Y64370D01*
X196245Y63364D01*
X196633Y62426D01*
X197251Y61621D01*
X198056Y61003D01*
X198994Y60615D01*
X200000Y60483D01*
X201006Y60615D01*
X201944Y61003D01*
X202749Y61621D01*
X203367Y62426D01*
X203755Y63364D01*
X203888Y64370D01*
X203755Y65376D01*
X203367Y66314D01*
X202749Y67119D01*
X202593Y67239D01*
X202763Y67739D01*
X205000D01*
X205624Y67863D01*
X206153Y68217D01*
X213653Y75717D01*
X214007Y76246D01*
X214131Y76870D01*
Y114370D01*
X214007Y114994D01*
X213653Y115524D01*
X208653Y120524D01*
X208124Y120877D01*
X207500Y121001D01*
X202763D01*
X202593Y121501D01*
X202749Y121621D01*
X203367Y122426D01*
X203755Y123364D01*
X203888Y124370D01*
X203755Y125376D01*
X203367Y126314D01*
X202749Y127119D01*
X201944Y127737D01*
X201006Y128125D01*
X200000Y128258D01*
X198994Y128125D01*
X198056Y127737D01*
X197251Y127119D01*
X196633Y126314D01*
X196245Y125376D01*
X196112Y124370D01*
X196245Y123364D01*
X196633Y122426D01*
X197251Y121621D01*
X197407Y121501D01*
X197237Y121001D01*
X173854D01*
Y128224D01*
X166146D01*
Y121001D01*
X153603D01*
X153453Y121363D01*
X152819Y122189D01*
X151993Y122823D01*
X151032Y123221D01*
X150000Y123357D01*
X148968Y123221D01*
X148007Y122823D01*
X147181Y122189D01*
X146547Y121363D01*
X146149Y120402D01*
X146013Y119370D01*
X146149Y118338D01*
X146547Y117377D01*
X147181Y116551D01*
X148007Y115917D01*
X148968Y115519D01*
X150000Y115383D01*
X151032Y115519D01*
X151394Y115669D01*
X153369Y113694D01*
Y107251D01*
X152895Y107090D01*
X152819Y107189D01*
X151993Y107823D01*
X151032Y108221D01*
X150500Y108291D01*
Y104370D01*
Y100449D01*
X150575Y100459D01*
X150808Y99985D01*
X149324Y98501D01*
X145000D01*
X145000Y98501D01*
X144376Y98377D01*
X143846Y98024D01*
X134324Y88501D01*
X120676D01*
X116631Y92546D01*
Y188694D01*
X120676Y192739D01*
X146397D01*
X146547Y192377D01*
X147181Y191551D01*
X148007Y190917D01*
X148968Y190519D01*
X150000Y190383D01*
X151032Y190519D01*
X151993Y190917D01*
X152819Y191551D01*
X153453Y192377D01*
X153603Y192739D01*
X157500D01*
X158124Y192863D01*
X158653Y193217D01*
X163176Y197739D01*
X167237D01*
X167407Y197239D01*
X167251Y197119D01*
X166633Y196314D01*
X166245Y195376D01*
X166112Y194370D01*
X166245Y193364D01*
X166633Y192426D01*
X167251Y191621D01*
X168056Y191003D01*
X168994Y190615D01*
X170000Y190482D01*
X171006Y190615D01*
X171944Y191003D01*
X172749Y191621D01*
X173367Y192426D01*
X173755Y193364D01*
X173888Y194370D01*
X173755Y195376D01*
X173367Y196314D01*
X172749Y197119D01*
X172593Y197239D01*
X172763Y197739D01*
X197237D01*
X197407Y197239D01*
X197251Y197119D01*
X196633Y196314D01*
X196245Y195376D01*
X196112Y194370D01*
X196245Y193364D01*
X196633Y192426D01*
X197251Y191621D01*
X198056Y191003D01*
X198994Y190615D01*
X200000Y190482D01*
X201006Y190615D01*
X201944Y191003D01*
X202749Y191621D01*
X203367Y192426D01*
X203755Y193364D01*
X203888Y194370D01*
X203755Y195376D01*
X203367Y196314D01*
X202749Y197119D01*
X202593Y197239D01*
X202763Y197739D01*
X207500D01*
X208124Y197863D01*
X208653Y198216D01*
X213653Y203217D01*
X214007Y203746D01*
X214131Y204370D01*
Y231870D01*
X214007Y232494D01*
X213653Y233024D01*
X206153Y240524D01*
X205624Y240877D01*
X205000Y241001D01*
X202763D01*
X202593Y241501D01*
X202749Y241621D01*
X203367Y242426D01*
X203755Y243364D01*
X203888Y244370D01*
X203755Y245376D01*
X203367Y246314D01*
X202749Y247119D01*
X202593Y247239D01*
X202763Y247739D01*
X216032D01*
Y240402D01*
X223969D01*
Y247739D01*
X244324D01*
X248369Y243694D01*
Y147973D01*
X248007Y147823D01*
X247181Y147189D01*
X246547Y146363D01*
X246149Y145402D01*
X246013Y144370D01*
X246149Y143338D01*
X246547Y142377D01*
X246935Y141872D01*
X246688Y141372D01*
X242806D01*
X218653Y165524D01*
X218124Y165877D01*
X217500Y166001D01*
X203969D01*
Y169307D01*
X196031D01*
Y159433D01*
X203969D01*
Y162739D01*
X216824D01*
X240976Y138587D01*
X241506Y138233D01*
X242130Y138109D01*
X252558D01*
X252728Y137609D01*
X252181Y137189D01*
X251547Y136363D01*
X251397Y136001D01*
X148176D01*
X145307Y138870D01*
X145319Y139051D01*
X145953Y139877D01*
X146351Y140838D01*
X146487Y141870D01*
X146351Y142902D01*
X145953Y143863D01*
X145319Y144689D01*
X144493Y145323D01*
X143532Y145721D01*
X142500Y145857D01*
X141925Y145781D01*
X141692Y146255D01*
X143654Y148216D01*
X144007Y148746D01*
X144131Y149370D01*
Y160767D01*
X144493Y160917D01*
X145319Y161551D01*
X145953Y162377D01*
X146351Y163338D01*
X146487Y164370D01*
X146351Y165402D01*
X145953Y166364D01*
X145319Y167189D01*
X144493Y167823D01*
X143532Y168221D01*
X142500Y168357D01*
X141468Y168221D01*
X140507Y167823D01*
X139681Y167189D01*
X139047Y166364D01*
X138649Y165402D01*
X138513Y164370D01*
X138649Y163338D01*
X139047Y162377D01*
X139681Y161551D01*
X140507Y160917D01*
X140869Y160767D01*
Y150046D01*
X136394Y145571D01*
X136032Y145721D01*
X135000Y145857D01*
X133968Y145721D01*
X133007Y145323D01*
X132181Y144689D01*
X131547Y143863D01*
X131149Y142902D01*
X131013Y141870D01*
X131149Y140838D01*
X131547Y139877D01*
X132181Y139051D01*
X133007Y138417D01*
X133968Y138019D01*
X135000Y137883D01*
X136032Y138019D01*
X136993Y138417D01*
X137819Y139051D01*
X138453Y139877D01*
X138500Y139991D01*
X139000D01*
X139047Y139877D01*
X139681Y139051D01*
X140507Y138417D01*
X141468Y138019D01*
X141555Y138008D01*
X146102Y133461D01*
X146292Y133120D01*
X146102Y132779D01*
X133846Y120524D01*
X133493Y119994D01*
X133369Y119370D01*
Y102973D01*
X133007Y102823D01*
X132181Y102189D01*
X131547Y101364D01*
X131149Y100402D01*
X131013Y99370D01*
X131149Y98338D01*
X131547Y97377D01*
X132181Y96551D01*
X133007Y95917D01*
X133968Y95519D01*
X135000Y95383D01*
X136032Y95519D01*
X136993Y95917D01*
X137819Y96551D01*
X138453Y97377D01*
X138851Y98338D01*
X138987Y99370D01*
X138851Y100402D01*
X138453Y101364D01*
X137819Y102189D01*
X136993Y102823D01*
X136631Y102973D01*
Y118694D01*
X148176Y130239D01*
X241224D01*
X245785Y125679D01*
X245635Y125316D01*
X245499Y124285D01*
X245635Y123253D01*
X246033Y122291D01*
X246667Y121465D01*
X247492Y120832D01*
X248454Y120433D01*
X249486Y120298D01*
X250518Y120433D01*
X251479Y120832D01*
X252305Y121465D01*
X252938Y122291D01*
X253337Y123253D01*
X253473Y124285D01*
X253337Y125316D01*
X252938Y126278D01*
X252305Y127104D01*
X251479Y127737D01*
X250518Y128136D01*
X249486Y128271D01*
X248454Y128136D01*
X248092Y127986D01*
X243800Y132277D01*
X243992Y132739D01*
X251397D01*
X251547Y132377D01*
X252181Y131551D01*
X253007Y130917D01*
X253968Y130519D01*
X255000Y130383D01*
X256032Y130519D01*
X256993Y130917D01*
X257819Y131551D01*
X258453Y132377D01*
X258851Y133338D01*
X258987Y134370D01*
X258851Y135402D01*
X258453Y136363D01*
X257819Y137189D01*
X257272Y137609D01*
X257442Y138109D01*
X262873D01*
X262951Y137953D01*
X263006Y137609D01*
X262302Y137068D01*
X261695Y136278D01*
X261314Y135358D01*
X261184Y134370D01*
X261314Y133382D01*
X261695Y132462D01*
X262302Y131672D01*
X263092Y131065D01*
X264012Y130684D01*
X265000Y130554D01*
X265988Y130684D01*
X266908Y131065D01*
X267698Y131672D01*
X268305Y132462D01*
X268686Y133382D01*
X268816Y134370D01*
X268686Y135358D01*
X268305Y136278D01*
X267698Y137068D01*
X266994Y137609D01*
X267049Y137953D01*
X267127Y138109D01*
X270370D01*
X270994Y138233D01*
X271524Y138587D01*
X286154Y153217D01*
X286507Y153746D01*
X286631Y154370D01*
Y233267D01*
X286993Y233417D01*
X287819Y234051D01*
X288453Y234877D01*
X288851Y235838D01*
X288987Y236870D01*
X288851Y237902D01*
X288453Y238863D01*
X287819Y239689D01*
X286993Y240323D01*
X286032Y240721D01*
X285000Y240857D01*
X283968Y240721D01*
X283007Y240323D01*
X282181Y239689D01*
X281547Y238863D01*
X281149Y237902D01*
X281013Y236870D01*
X281149Y235838D01*
X281547Y234877D01*
X282181Y234051D01*
X283007Y233417D01*
X283369Y233267D01*
Y155046D01*
X269694Y141372D01*
X268098D01*
X267852Y141872D01*
X268305Y142462D01*
X268686Y143382D01*
X268816Y144370D01*
X268686Y145358D01*
X268305Y146278D01*
X267698Y147069D01*
X266908Y147675D01*
X265988Y148056D01*
X265000Y148186D01*
X264012Y148056D01*
X263092Y147675D01*
X262302Y147069D01*
X261695Y146278D01*
X261314Y145358D01*
X261184Y144370D01*
X261314Y143382D01*
X261695Y142462D01*
X262148Y141872D01*
X261902Y141372D01*
X253312D01*
X253065Y141872D01*
X253453Y142377D01*
X253851Y143338D01*
X253987Y144370D01*
X253851Y145402D01*
X253453Y146363D01*
X252819Y147189D01*
X251993Y147823D01*
X251631Y147973D01*
Y151489D01*
X252105Y151650D01*
X252181Y151551D01*
X253007Y150917D01*
X253968Y150519D01*
X255000Y150383D01*
X256032Y150519D01*
X256993Y150917D01*
X257819Y151551D01*
X258453Y152377D01*
X258851Y153338D01*
X258987Y154370D01*
X258851Y155402D01*
X258453Y156363D01*
X257819Y157189D01*
X256993Y157823D01*
X256631Y157973D01*
Y243370D01*
X256631Y243370D01*
X256507Y243994D01*
X256153Y244524D01*
X247654Y253024D01*
X247124Y253377D01*
X246500Y253501D01*
X152546D01*
X146201Y259846D01*
X146351Y260208D01*
X146487Y261240D01*
X146351Y262272D01*
X145953Y263234D01*
X145319Y264059D01*
X144493Y264693D01*
X143532Y265091D01*
X142500Y265227D01*
X141468Y265091D01*
X140507Y264693D01*
X139681Y264059D01*
X139047Y263234D01*
X138649Y262272D01*
X138513Y261240D01*
X138649Y260208D01*
X139047Y259247D01*
X139681Y258421D01*
X140507Y257787D01*
X141468Y257389D01*
X142500Y257253D01*
X143532Y257389D01*
X143894Y257539D01*
X150716Y250716D01*
X150882Y250606D01*
X150931Y250108D01*
X141347Y240524D01*
X140993Y239994D01*
X140869Y239370D01*
Y222973D01*
X140507Y222823D01*
X139681Y222189D01*
X139047Y221363D01*
X138649Y220402D01*
X138513Y219370D01*
X138649Y218338D01*
X139047Y217377D01*
X139681Y216551D01*
X140507Y215917D01*
X141468Y215519D01*
X142500Y215383D01*
X143532Y215519D01*
X144493Y215917D01*
X145319Y216551D01*
X145953Y217377D01*
X146000Y217491D01*
X146500D01*
X146547Y217377D01*
X147181Y216551D01*
X148007Y215917D01*
X148968Y215519D01*
X149500Y215449D01*
Y219370D01*
Y223291D01*
X148968Y223221D01*
X148007Y222823D01*
X147181Y222189D01*
X146547Y221363D01*
X146500Y221249D01*
X146000D01*
X145953Y221363D01*
X145319Y222189D01*
X144493Y222823D01*
X144131Y222973D01*
Y238694D01*
X145615Y240178D01*
X146089Y239945D01*
X146013Y239370D01*
X146149Y238338D01*
X146547Y237377D01*
X147181Y236551D01*
X148007Y235917D01*
X148968Y235519D01*
X150000Y235383D01*
X151032Y235519D01*
X151993Y235917D01*
X152819Y236551D01*
X153453Y237377D01*
X153603Y237739D01*
X167237D01*
X167407Y237239D01*
X167251Y237119D01*
X166633Y236314D01*
X166245Y235376D01*
X166112Y234370D01*
X166245Y233364D01*
X166633Y232426D01*
X167251Y231621D01*
X167401Y231506D01*
X167263Y230982D01*
X166738Y230632D01*
X163738Y227632D01*
X163352Y227053D01*
X163216Y226370D01*
Y222609D01*
X150761Y210154D01*
X116739D01*
X111784Y215109D01*
Y235831D01*
X111993Y235917D01*
X112819Y236551D01*
X113453Y237377D01*
X113851Y238338D01*
X113987Y239370D01*
X113851Y240402D01*
X113453Y241364D01*
X112819Y242189D01*
X111993Y242823D01*
X111784Y242909D01*
Y248631D01*
X131739Y268586D01*
X273542D01*
X273641Y268086D01*
X273007Y267823D01*
X272181Y267189D01*
X271547Y266364D01*
X271149Y265402D01*
X271079Y264870D01*
X278921D01*
X278851Y265402D01*
X278453Y266364D01*
X277819Y267189D01*
X276993Y267823D01*
X276359Y268086D01*
X276458Y268586D01*
X283542D01*
X283642Y268086D01*
X283007Y267823D01*
X282181Y267189D01*
X281547Y266364D01*
X281149Y265402D01*
X281079Y264870D01*
X288921D01*
X288851Y265402D01*
X288453Y266364D01*
X287819Y267189D01*
X286993Y267823D01*
X286358Y268086D01*
X286458Y268586D01*
X303261D01*
X310738Y261108D01*
X311317Y260722D01*
X312000Y260586D01*
X312000Y260586D01*
X316261D01*
X316611Y260236D01*
X316327Y259812D01*
X316323Y259814D01*
X315276Y259952D01*
X314228Y259814D01*
X313252Y259410D01*
X312414Y258767D01*
X311771Y257929D01*
X311367Y256953D01*
X311229Y255906D01*
X311367Y254858D01*
X311771Y253882D01*
X312414Y253044D01*
X313252Y252401D01*
X314228Y251997D01*
X315276Y251859D01*
X316323Y251997D01*
X317299Y252401D01*
X317947Y252898D01*
X318446Y252657D01*
Y249154D01*
X317947Y248913D01*
X317299Y249410D01*
X316323Y249814D01*
X315276Y249952D01*
X314228Y249814D01*
X313252Y249410D01*
X312414Y248767D01*
X311771Y247929D01*
X311367Y246953D01*
X311229Y245905D01*
X311367Y244858D01*
X311771Y243882D01*
X312414Y243044D01*
X313252Y242401D01*
X314228Y241997D01*
X315276Y241859D01*
X316323Y241997D01*
X317299Y242401D01*
X317947Y242898D01*
X318446Y242657D01*
Y239649D01*
X317973Y239489D01*
X317819Y239689D01*
X316993Y240323D01*
X316032Y240721D01*
X315000Y240857D01*
X313968Y240721D01*
X313007Y240323D01*
X312181Y239689D01*
X311547Y238863D01*
X311149Y237902D01*
X311013Y236870D01*
X311149Y235838D01*
X311547Y234877D01*
X312181Y234051D01*
X313007Y233417D01*
X313369Y233267D01*
Y190046D01*
X311347Y188024D01*
X310993Y187494D01*
X310869Y186870D01*
Y166870D01*
X310869Y166870D01*
X310993Y166246D01*
X311347Y165717D01*
X318847Y158217D01*
X319376Y157863D01*
X320000Y157739D01*
X322354D01*
X322523Y157239D01*
X322302Y157069D01*
X321695Y156278D01*
X321314Y155358D01*
X321184Y154370D01*
X321314Y153382D01*
X321695Y152462D01*
X322302Y151672D01*
X323092Y151065D01*
X324012Y150684D01*
X325000Y150554D01*
X325988Y150684D01*
X326908Y151065D01*
X327698Y151672D01*
X328305Y152462D01*
X328686Y153382D01*
X328816Y154370D01*
X328686Y155358D01*
X328305Y156278D01*
X327698Y157069D01*
X327477Y157239D01*
X327646Y157739D01*
X417500Y157739D01*
X418124Y157863D01*
X418653Y158217D01*
X433176Y172739D01*
X459324D01*
X461031Y171031D01*
Y164433D01*
X468968D01*
Y174307D01*
X462370D01*
X461154Y175524D01*
X460624Y175877D01*
X460000Y176001D01*
X432500D01*
X431876Y175877D01*
X431347Y175524D01*
X416824Y161001D01*
X327646Y161001D01*
X327477Y161501D01*
X327698Y161672D01*
X328305Y162462D01*
X328686Y163382D01*
X328816Y164370D01*
X328686Y165358D01*
X328305Y166278D01*
X327698Y167069D01*
X326908Y167675D01*
X325988Y168056D01*
X325000Y168186D01*
X324012Y168056D01*
X323092Y167675D01*
X322302Y167069D01*
X321695Y166278D01*
X321314Y165358D01*
X321184Y164370D01*
X321314Y163382D01*
X321695Y162462D01*
X322302Y161672D01*
X322523Y161501D01*
X322354Y161001D01*
X320676D01*
X314131Y167546D01*
Y171489D01*
X314605Y171650D01*
X314681Y171551D01*
X315507Y170917D01*
X316468Y170519D01*
X317500Y170383D01*
X318532Y170519D01*
X319493Y170917D01*
X320319Y171551D01*
X320953Y172377D01*
X321092Y172712D01*
X321592D01*
X321695Y172462D01*
X322302Y171672D01*
X323092Y171065D01*
X324012Y170684D01*
X325000Y170554D01*
X325988Y170684D01*
X326908Y171065D01*
X327698Y171672D01*
X328305Y172462D01*
X328686Y173382D01*
X328816Y174370D01*
X328686Y175358D01*
X328305Y176278D01*
X327698Y177068D01*
X327477Y177239D01*
X327646Y177739D01*
X331000D01*
X331624Y177863D01*
X332154Y178217D01*
X338043Y184107D01*
X338571Y183927D01*
X338649Y183338D01*
X339047Y182377D01*
X339681Y181551D01*
X340507Y180917D01*
X341468Y180519D01*
X342500Y180383D01*
X343532Y180519D01*
X344493Y180917D01*
X345319Y181551D01*
X345953Y182377D01*
X346351Y183338D01*
X346487Y184370D01*
X346351Y185402D01*
X346264Y185611D01*
X350407Y189753D01*
X350869Y189562D01*
Y189370D01*
X350993Y188746D01*
X351346Y188216D01*
X361347Y178217D01*
X361876Y177863D01*
X362500Y177739D01*
X362500Y177739D01*
X417500D01*
X418124Y177863D01*
X418653Y178217D01*
X433176Y192739D01*
X456397D01*
X456547Y192377D01*
X457181Y191551D01*
X458007Y190917D01*
X458968Y190519D01*
X460000Y190383D01*
X461032Y190519D01*
X461394Y190669D01*
X478369Y173694D01*
Y140046D01*
X461394Y123071D01*
X461032Y123221D01*
X460000Y123357D01*
X458968Y123221D01*
X458007Y122823D01*
X457181Y122189D01*
X456547Y121363D01*
X456149Y120402D01*
X456013Y119370D01*
X456149Y118338D01*
X456299Y117976D01*
X452324Y114001D01*
X436676D01*
X420154Y130524D01*
X419624Y130877D01*
X419000Y131001D01*
X352500D01*
X351876Y130877D01*
X351346Y130524D01*
X331347Y110524D01*
X330993Y109994D01*
X330869Y109370D01*
Y77973D01*
X330507Y77823D01*
X329681Y77189D01*
X329047Y76363D01*
X328908Y76028D01*
X328408D01*
X328305Y76278D01*
X327698Y77069D01*
X326908Y77675D01*
X325988Y78056D01*
X325000Y78186D01*
X324012Y78056D01*
X323092Y77675D01*
X322302Y77069D01*
X321695Y76278D01*
X321314Y75358D01*
X321184Y74370D01*
X321314Y73382D01*
X321695Y72462D01*
X322302Y71672D01*
X322523Y71501D01*
X322354Y71001D01*
X320676D01*
X311631Y80046D01*
Y100767D01*
X311993Y100917D01*
X312819Y101551D01*
X313453Y102377D01*
X313851Y103338D01*
X313987Y104370D01*
X313851Y105402D01*
X313453Y106363D01*
X312819Y107189D01*
X311993Y107823D01*
X311032Y108221D01*
X310000Y108357D01*
X308968Y108221D01*
X308007Y107823D01*
X307181Y107189D01*
X307105Y107090D01*
X306631Y107251D01*
Y111489D01*
X307105Y111650D01*
X307181Y111551D01*
X308007Y110917D01*
X308968Y110519D01*
X310000Y110383D01*
X311032Y110519D01*
X311993Y110917D01*
X312819Y111551D01*
X313453Y112377D01*
X313851Y113338D01*
X313987Y114370D01*
X313851Y115402D01*
X313701Y115764D01*
X315676Y117739D01*
X322354D01*
X322523Y117239D01*
X322302Y117069D01*
X321695Y116278D01*
X321314Y115358D01*
X321184Y114370D01*
X321314Y113382D01*
X321695Y112462D01*
X322302Y111672D01*
X323092Y111065D01*
X324012Y110684D01*
X325000Y110554D01*
X325988Y110684D01*
X326908Y111065D01*
X327698Y111672D01*
X328305Y112462D01*
X328686Y113382D01*
X328816Y114370D01*
X328686Y115358D01*
X328305Y116278D01*
X327698Y117069D01*
X327477Y117239D01*
X327646Y117739D01*
X335000D01*
X335624Y117863D01*
X336154Y118217D01*
X350676Y132739D01*
X447500D01*
X448124Y132863D01*
X448654Y133217D01*
X451106Y135669D01*
X451468Y135519D01*
X452500Y135383D01*
X453532Y135519D01*
X454493Y135917D01*
X455319Y136551D01*
X455953Y137377D01*
X456351Y138338D01*
X456487Y139370D01*
X456351Y140402D01*
X455953Y141364D01*
X455319Y142189D01*
X454493Y142823D01*
X453532Y143221D01*
X452500Y143357D01*
X451468Y143221D01*
X450507Y142823D01*
X449681Y142189D01*
X449047Y141364D01*
X449000Y141249D01*
X448500D01*
X448453Y141364D01*
X447819Y142189D01*
X446993Y142823D01*
X446631Y142973D01*
Y156194D01*
X451106Y160669D01*
X451468Y160519D01*
X452500Y160383D01*
X453532Y160519D01*
X454493Y160917D01*
X455319Y161551D01*
X455953Y162377D01*
X456351Y163338D01*
X456487Y164370D01*
X456351Y165402D01*
X455953Y166364D01*
X455319Y167189D01*
X454493Y167823D01*
X453532Y168221D01*
X452500Y168357D01*
X451468Y168221D01*
X450507Y167823D01*
X449681Y167189D01*
X449047Y166364D01*
X448649Y165402D01*
X448513Y164370D01*
X448649Y163338D01*
X448799Y162976D01*
X443847Y158024D01*
X443493Y157494D01*
X443369Y156870D01*
Y142973D01*
X443007Y142823D01*
X442181Y142189D01*
X441547Y141364D01*
X441149Y140402D01*
X441013Y139370D01*
X441149Y138338D01*
X441547Y137377D01*
X442181Y136551D01*
X442280Y136475D01*
X442119Y136001D01*
X435381D01*
X435220Y136475D01*
X435319Y136551D01*
X435953Y137377D01*
X436351Y138338D01*
X436487Y139370D01*
X436351Y140402D01*
X435953Y141364D01*
X435319Y142189D01*
X434493Y142823D01*
X434131Y142973D01*
Y160767D01*
X434493Y160917D01*
X435319Y161551D01*
X435953Y162377D01*
X436351Y163338D01*
X436487Y164370D01*
X436351Y165402D01*
X435953Y166364D01*
X435319Y167189D01*
X434493Y167823D01*
X433532Y168221D01*
X432500Y168357D01*
X431468Y168221D01*
X430507Y167823D01*
X429681Y167189D01*
X429047Y166364D01*
X428649Y165402D01*
X428513Y164370D01*
X428649Y163338D01*
X429047Y162377D01*
X429681Y161551D01*
X430507Y160917D01*
X430869Y160767D01*
Y142973D01*
X430507Y142823D01*
X429681Y142189D01*
X429047Y141364D01*
X428649Y140402D01*
X428513Y139370D01*
X428649Y138338D01*
X429047Y137377D01*
X429681Y136551D01*
X429780Y136475D01*
X429619Y136001D01*
X372881D01*
X372720Y136475D01*
X372819Y136551D01*
X373453Y137377D01*
X373851Y138338D01*
X373921Y138870D01*
X366079D01*
X366149Y138338D01*
X366547Y137377D01*
X367181Y136551D01*
X367280Y136475D01*
X367119Y136001D01*
X350000D01*
X349376Y135877D01*
X348847Y135524D01*
X334324Y121001D01*
X327646D01*
X327477Y121501D01*
X327698Y121672D01*
X328305Y122462D01*
X328686Y123382D01*
X328816Y124370D01*
X328686Y125358D01*
X328305Y126278D01*
X327698Y127068D01*
X326908Y127675D01*
X325988Y128056D01*
X325000Y128186D01*
X324012Y128056D01*
X323092Y127675D01*
X322302Y127068D01*
X321695Y126278D01*
X321314Y125358D01*
X321184Y124370D01*
X321314Y123382D01*
X321695Y122462D01*
X322302Y121672D01*
X322523Y121501D01*
X322354Y121001D01*
X315000D01*
X314376Y120877D01*
X313846Y120524D01*
X311394Y118071D01*
X311032Y118221D01*
X310000Y118357D01*
X308968Y118221D01*
X308007Y117823D01*
X307181Y117189D01*
X307105Y117090D01*
X306631Y117251D01*
X306631Y233267D01*
X306993Y233417D01*
X307819Y234051D01*
X308453Y234877D01*
X308851Y235838D01*
X308987Y236870D01*
X308851Y237902D01*
X308453Y238863D01*
X307819Y239689D01*
X306993Y240323D01*
X306032Y240721D01*
X305000Y240857D01*
X303968Y240721D01*
X303007Y240323D01*
X302181Y239689D01*
X301547Y238863D01*
X301149Y237902D01*
X301013Y236870D01*
X301149Y235838D01*
X301547Y234877D01*
X302181Y234051D01*
X303007Y233417D01*
X303369Y233267D01*
X303369Y84370D01*
Y80370D01*
X303493Y79746D01*
X303847Y79216D01*
X317846Y65216D01*
X318376Y64863D01*
X319000Y64739D01*
X349824D01*
X362347Y52217D01*
X362876Y51863D01*
X363500Y51739D01*
X460324D01*
X461031Y51032D01*
Y44433D01*
X468968D01*
Y54307D01*
X462370D01*
X462154Y54524D01*
X461624Y54877D01*
X461000Y55001D01*
X454645D01*
X454438Y55501D01*
X466153Y67216D01*
X466507Y67746D01*
X466631Y68370D01*
Y85620D01*
X466507Y86244D01*
X466153Y86774D01*
X457404Y95524D01*
X456874Y95877D01*
X456250Y96001D01*
X456103D01*
X455953Y96364D01*
X455319Y97189D01*
X454493Y97823D01*
X453532Y98221D01*
X452500Y98357D01*
X451468Y98221D01*
X450507Y97823D01*
X449681Y97189D01*
X449047Y96364D01*
X449000Y96249D01*
X448500D01*
X448453Y96364D01*
X447819Y97189D01*
X446993Y97823D01*
X446032Y98221D01*
X445500Y98291D01*
Y94370D01*
Y90449D01*
X446032Y90519D01*
X446993Y90917D01*
X447819Y91551D01*
X448453Y92377D01*
X448500Y92491D01*
X449000D01*
X449047Y92377D01*
X449681Y91551D01*
X450507Y90917D01*
X451468Y90519D01*
X452500Y90383D01*
X453532Y90519D01*
X454493Y90917D01*
X455319Y91551D01*
X455715Y92067D01*
X456214Y92099D01*
X463369Y84944D01*
Y77251D01*
X462895Y77090D01*
X462819Y77189D01*
X461993Y77823D01*
X461032Y78221D01*
X460000Y78357D01*
X458968Y78221D01*
X458007Y77823D01*
X457181Y77189D01*
X456547Y76363D01*
X456149Y75402D01*
X456013Y74370D01*
X456149Y73338D01*
X456547Y72377D01*
X457181Y71551D01*
X458007Y70917D01*
X458369Y70767D01*
Y67546D01*
X451824Y61001D01*
X402763D01*
X402593Y61501D01*
X402749Y61621D01*
X403367Y62426D01*
X403755Y63364D01*
X403888Y64370D01*
X403755Y65376D01*
X403367Y66314D01*
X402749Y67119D01*
X401944Y67737D01*
X401631Y67866D01*
Y70874D01*
X401944Y71003D01*
X402749Y71621D01*
X403367Y72426D01*
X403755Y73364D01*
X403888Y74370D01*
X403755Y75376D01*
X403367Y76314D01*
X402774Y77086D01*
X402816Y77316D01*
X402907Y77586D01*
X414261D01*
X416236Y75611D01*
X416149Y75402D01*
X416013Y74370D01*
X416149Y73338D01*
X416547Y72377D01*
X417181Y71551D01*
X418007Y70917D01*
X418968Y70519D01*
X420000Y70383D01*
X421032Y70519D01*
X421993Y70917D01*
X422819Y71551D01*
X423453Y72377D01*
X423851Y73338D01*
X423987Y74370D01*
X423851Y75402D01*
X423453Y76363D01*
X422819Y77189D01*
X421993Y77823D01*
X421032Y78221D01*
X420000Y78357D01*
X418968Y78221D01*
X418759Y78135D01*
X416262Y80632D01*
X415683Y81019D01*
X415000Y81154D01*
X402907D01*
X402816Y81424D01*
X402774Y81654D01*
X403367Y82426D01*
X403755Y83364D01*
X403888Y84370D01*
X403755Y85376D01*
X403367Y86314D01*
X402749Y87119D01*
X401944Y87737D01*
X401006Y88125D01*
X400000Y88258D01*
X398994Y88125D01*
X398056Y87737D01*
X397251Y87119D01*
X396633Y86314D01*
X396245Y85376D01*
X396112Y84370D01*
X396245Y83364D01*
X396633Y82426D01*
X397226Y81654D01*
X397184Y81424D01*
X397093Y81154D01*
X372907D01*
X372816Y81424D01*
X372774Y81654D01*
X373367Y82426D01*
X373755Y83364D01*
X373822Y83870D01*
X370000D01*
X366048D01*
X365697Y83697D01*
X364284Y85109D01*
Y103631D01*
X365697Y105043D01*
X366170Y104810D01*
X366112Y104370D01*
X366245Y103364D01*
X366633Y102426D01*
X367251Y101621D01*
X368056Y101003D01*
X368994Y100615D01*
X370000Y100482D01*
X371006Y100615D01*
X371944Y101003D01*
X372749Y101621D01*
X373367Y102426D01*
X373755Y103364D01*
X373888Y104370D01*
X373755Y105376D01*
X373367Y106314D01*
X372774Y107086D01*
X372816Y107316D01*
X372907Y107586D01*
X397093D01*
X397184Y107316D01*
X397226Y107086D01*
X396633Y106314D01*
X396245Y105376D01*
X396112Y104370D01*
X396245Y103364D01*
X396633Y102426D01*
X397030Y101909D01*
X396783Y101409D01*
X375000D01*
X374220Y101254D01*
X373558Y100812D01*
X370887Y98141D01*
X370000Y98258D01*
X368994Y98125D01*
X368056Y97737D01*
X367251Y97119D01*
X366633Y96314D01*
X366245Y95376D01*
X366112Y94370D01*
X366245Y93364D01*
X366633Y92426D01*
X367251Y91621D01*
X368056Y91003D01*
X368994Y90615D01*
X370000Y90482D01*
X371006Y90615D01*
X371944Y91003D01*
X372749Y91621D01*
X373367Y92426D01*
X373755Y93364D01*
X373888Y94370D01*
X373771Y95257D01*
X375845Y97331D01*
X396783D01*
X397030Y96831D01*
X396633Y96314D01*
X396245Y95376D01*
X396112Y94370D01*
X396245Y93364D01*
X396633Y92426D01*
X397251Y91621D01*
X398056Y91003D01*
X398994Y90615D01*
X400000Y90482D01*
X401006Y90615D01*
X401944Y91003D01*
X402749Y91621D01*
X403294Y92331D01*
X405000D01*
X405780Y92486D01*
X406442Y92928D01*
X414845Y101331D01*
X462155D01*
X475558Y87928D01*
X476220Y87486D01*
X476812Y87368D01*
X477023Y86949D01*
X477030Y86831D01*
X476633Y86314D01*
X476245Y85376D01*
X476112Y84370D01*
X476245Y83364D01*
X476633Y82426D01*
X477251Y81621D01*
X478056Y81003D01*
X478994Y80615D01*
X480000Y80483D01*
X481006Y80615D01*
X481944Y81003D01*
X482749Y81621D01*
X483367Y82426D01*
X483755Y83364D01*
X483888Y84370D01*
X483755Y85376D01*
X483367Y86314D01*
X482970Y86831D01*
X483217Y87331D01*
X505000D01*
X505780Y87486D01*
X506442Y87928D01*
X509113Y90599D01*
X510000Y90482D01*
X511006Y90615D01*
X511944Y91003D01*
X512749Y91621D01*
X513367Y92426D01*
X513755Y93364D01*
X513888Y94370D01*
X513771Y95257D01*
X516442Y97928D01*
X516884Y98590D01*
X517039Y99370D01*
Y209370D01*
X516884Y210150D01*
X516442Y210812D01*
X513771Y213483D01*
X513888Y214370D01*
X513771Y215257D01*
X516442Y217928D01*
X516884Y218590D01*
X517039Y219370D01*
Y264370D01*
X516884Y265150D01*
X516442Y265812D01*
X502442Y279812D01*
X501780Y280254D01*
X501000Y280409D01*
X349000D01*
X349000Y280409D01*
X348220Y280254D01*
X347558Y279812D01*
X336655Y268909D01*
X319305D01*
X318976Y269285D01*
X318987Y269370D01*
X318851Y270402D01*
X318453Y271363D01*
X317819Y272189D01*
X316993Y272823D01*
X316032Y273221D01*
X315000Y273357D01*
X314025Y273229D01*
X312442Y274812D01*
X311780Y275254D01*
X311000Y275409D01*
X99000D01*
X98220Y275254D01*
X97558Y274812D01*
X83558Y260812D01*
X83116Y260150D01*
X82961Y259370D01*
Y219370D01*
X83116Y218590D01*
X83558Y217928D01*
X86229Y215257D01*
X86112Y214370D01*
X86121Y214302D01*
X85673Y214081D01*
X83942Y215812D01*
X83280Y216254D01*
X82500Y216409D01*
X63294D01*
X62749Y217119D01*
X61944Y217737D01*
X61006Y218125D01*
X60000Y218258D01*
X59113Y218141D01*
X57039Y220215D01*
Y221153D01*
X57539Y221400D01*
X58056Y221003D01*
X58994Y220615D01*
X60000Y220482D01*
X61006Y220615D01*
X61944Y221003D01*
X62749Y221621D01*
X63367Y222426D01*
X63755Y223364D01*
X63888Y224370D01*
X63755Y225376D01*
X63367Y226314D01*
X62749Y227119D01*
X61944Y227737D01*
X61006Y228125D01*
X60000Y228258D01*
X58994Y228125D01*
X58056Y227737D01*
X57539Y227340D01*
X57039Y227587D01*
Y231153D01*
X57539Y231400D01*
X58056Y231003D01*
X58994Y230615D01*
X60000Y230483D01*
X61006Y230615D01*
X61944Y231003D01*
X62749Y231621D01*
X63367Y232426D01*
X63755Y233364D01*
X63888Y234370D01*
X63755Y235376D01*
X63367Y236314D01*
X62749Y237119D01*
X61944Y237737D01*
X61006Y238125D01*
X60000Y238258D01*
X58994Y238125D01*
X58056Y237737D01*
X57539Y237340D01*
X57039Y237587D01*
Y240516D01*
X63854D01*
Y248224D01*
X57039D01*
Y253529D01*
X57539Y253776D01*
X58007Y253417D01*
X58968Y253019D01*
X59500Y252949D01*
Y256870D01*
X60000D01*
Y257370D01*
X63921D01*
X63851Y257902D01*
X63453Y258863D01*
X62819Y259689D01*
X61993Y260323D01*
X61032Y260721D01*
X60069Y260848D01*
X59794Y261280D01*
X75845Y277331D01*
X319155D01*
X321058Y275428D01*
X321419Y275187D01*
X321547Y274877D01*
X322181Y274051D01*
X323007Y273417D01*
X323968Y273019D01*
X325000Y272883D01*
X326032Y273019D01*
X326993Y273417D01*
X327819Y274051D01*
X328453Y274877D01*
X328851Y275838D01*
X328987Y276870D01*
X328851Y277902D01*
X328453Y278864D01*
X327819Y279689D01*
X326993Y280323D01*
X326032Y280721D01*
X325000Y280857D01*
X323968Y280721D01*
X323007Y280323D01*
X322398Y279856D01*
X321442Y280812D01*
X320780Y281254D01*
X320000Y281409D01*
D02*
G37*
G36*
X305776Y259886D02*
Y256405D01*
X309256D01*
X309184Y256953D01*
X308780Y257929D01*
X308137Y258767D01*
X307299Y259410D01*
X306323Y259814D01*
X305776Y259886D01*
D02*
G37*
G36*
X304776Y259886D02*
X304228Y259814D01*
X303252Y259410D01*
X302414Y258767D01*
X301771Y257929D01*
X301367Y256953D01*
X301295Y256405D01*
X304776D01*
Y259886D01*
D02*
G37*
G36*
X278921Y263870D02*
X271079D01*
X271149Y263338D01*
X271547Y262377D01*
X272181Y261551D01*
X273007Y260917D01*
X273968Y260519D01*
X274860Y260402D01*
X274860Y259897D01*
X274228Y259814D01*
X273252Y259410D01*
X272414Y258767D01*
X271771Y257929D01*
X271367Y256953D01*
X271295Y256405D01*
X275276D01*
X279256D01*
X279184Y256953D01*
X278780Y257929D01*
X278137Y258767D01*
X277299Y259410D01*
X276323Y259814D01*
X275415Y259934D01*
Y260438D01*
X276032Y260519D01*
X276993Y260917D01*
X277819Y261551D01*
X278453Y262377D01*
X278851Y263338D01*
X278921Y263870D01*
D02*
G37*
G36*
X288921D02*
X281079D01*
X281149Y263338D01*
X281547Y262377D01*
X282181Y261551D01*
X283007Y260917D01*
X283968Y260519D01*
X284860Y260402D01*
X284860Y259897D01*
X284228Y259814D01*
X283252Y259410D01*
X282414Y258767D01*
X281771Y257929D01*
X281367Y256953D01*
X281295Y256405D01*
X285276D01*
X289256D01*
X289184Y256953D01*
X288780Y257929D01*
X288137Y258767D01*
X287299Y259410D01*
X286323Y259814D01*
X285415Y259934D01*
Y260438D01*
X286032Y260519D01*
X286993Y260917D01*
X287819Y261551D01*
X288453Y262377D01*
X288851Y263338D01*
X288921Y263870D01*
D02*
G37*
G36*
X161469Y266177D02*
X153532D01*
Y256303D01*
X161469D01*
Y266177D01*
D02*
G37*
G36*
X63921Y256370D02*
X60500D01*
Y252949D01*
X61032Y253019D01*
X61993Y253417D01*
X62819Y254051D01*
X63453Y254877D01*
X63851Y255838D01*
X63921Y256370D01*
D02*
G37*
G36*
X309256Y255405D02*
X305776D01*
Y251925D01*
X306323Y251997D01*
X307299Y252401D01*
X308137Y253044D01*
X308780Y253882D01*
X309184Y254858D01*
X309256Y255405D01*
D02*
G37*
G36*
X289256D02*
X285776D01*
Y251925D01*
X286323Y251997D01*
X287299Y252401D01*
X288137Y253044D01*
X288780Y253882D01*
X289184Y254858D01*
X289256Y255405D01*
D02*
G37*
G36*
X279256D02*
X275776D01*
Y251925D01*
X276323Y251997D01*
X277299Y252401D01*
X278137Y253044D01*
X278780Y253882D01*
X279184Y254858D01*
X279256Y255405D01*
D02*
G37*
G36*
X304776D02*
X301295D01*
X301367Y254858D01*
X301771Y253882D01*
X302414Y253044D01*
X303252Y252401D01*
X304228Y251997D01*
X304776Y251925D01*
Y255405D01*
D02*
G37*
G36*
X284776D02*
X281295D01*
X281367Y254858D01*
X281771Y253882D01*
X282414Y253044D01*
X283252Y252401D01*
X284228Y251997D01*
X284776Y251925D01*
Y255405D01*
D02*
G37*
G36*
X274776D02*
X271295D01*
X271367Y254858D01*
X271771Y253882D01*
X272414Y253044D01*
X273252Y252401D01*
X274228Y251997D01*
X274776Y251925D01*
Y255405D01*
D02*
G37*
G36*
X269287Y259917D02*
X261264D01*
Y251894D01*
X269287D01*
Y259917D01*
D02*
G37*
G36*
X295276Y259952D02*
X294228Y259814D01*
X293252Y259410D01*
X292414Y258767D01*
X291771Y257929D01*
X291367Y256953D01*
X291229Y255906D01*
X291367Y254858D01*
X291771Y253882D01*
X292414Y253044D01*
X293252Y252401D01*
X294228Y251997D01*
X295276Y251859D01*
X296323Y251997D01*
X297299Y252401D01*
X298137Y253044D01*
X298780Y253882D01*
X299184Y254858D01*
X299322Y255906D01*
X299184Y256953D01*
X298780Y257929D01*
X298137Y258767D01*
X297299Y259410D01*
X296323Y259814D01*
X295276Y259952D01*
D02*
G37*
G36*
X305276Y249952D02*
X304228Y249814D01*
X303252Y249410D01*
X302414Y248767D01*
X301771Y247929D01*
X301367Y246953D01*
X301229Y245905D01*
X301367Y244858D01*
X301771Y243882D01*
X302414Y243044D01*
X303252Y242401D01*
X304228Y241997D01*
X305276Y241859D01*
X306323Y241997D01*
X307299Y242401D01*
X308137Y243044D01*
X308780Y243882D01*
X309184Y244858D01*
X309322Y245905D01*
X309184Y246953D01*
X308780Y247929D01*
X308137Y248767D01*
X307299Y249410D01*
X306323Y249814D01*
X305276Y249952D01*
D02*
G37*
G36*
X295276D02*
X294228Y249814D01*
X293252Y249410D01*
X292414Y248767D01*
X291771Y247929D01*
X291367Y246953D01*
X291229Y245905D01*
X291367Y244858D01*
X291771Y243882D01*
X292414Y243044D01*
X293252Y242401D01*
X294228Y241997D01*
X295276Y241859D01*
X296323Y241997D01*
X297299Y242401D01*
X298137Y243044D01*
X298780Y243882D01*
X299184Y244858D01*
X299322Y245905D01*
X299184Y246953D01*
X298780Y247929D01*
X298137Y248767D01*
X297299Y249410D01*
X296323Y249814D01*
X295276Y249952D01*
D02*
G37*
G36*
X285276D02*
X284228Y249814D01*
X283252Y249410D01*
X282414Y248767D01*
X281771Y247929D01*
X281367Y246953D01*
X281229Y245905D01*
X281367Y244858D01*
X281771Y243882D01*
X282414Y243044D01*
X283252Y242401D01*
X284228Y241997D01*
X285276Y241859D01*
X286323Y241997D01*
X287299Y242401D01*
X288137Y243044D01*
X288780Y243882D01*
X289184Y244858D01*
X289322Y245905D01*
X289184Y246953D01*
X288780Y247929D01*
X288137Y248767D01*
X287299Y249410D01*
X286323Y249814D01*
X285276Y249952D01*
D02*
G37*
G36*
X275276D02*
X274228Y249814D01*
X273252Y249410D01*
X272414Y248767D01*
X271771Y247929D01*
X271367Y246953D01*
X271229Y245905D01*
X271367Y244858D01*
X271771Y243882D01*
X272414Y243044D01*
X273252Y242401D01*
X274228Y241997D01*
X275276Y241859D01*
X276323Y241997D01*
X277299Y242401D01*
X278137Y243044D01*
X278780Y243882D01*
X279184Y244858D01*
X279322Y245905D01*
X279184Y246953D01*
X278780Y247929D01*
X278137Y248767D01*
X277299Y249410D01*
X276323Y249814D01*
X275276Y249952D01*
D02*
G37*
G36*
X265276D02*
X264228Y249814D01*
X263252Y249410D01*
X262414Y248767D01*
X261771Y247929D01*
X261367Y246953D01*
X261229Y245905D01*
X261367Y244858D01*
X261771Y243882D01*
X262414Y243044D01*
X263252Y242401D01*
X264228Y241997D01*
X265276Y241859D01*
X266323Y241997D01*
X267299Y242401D01*
X268137Y243044D01*
X268780Y243882D01*
X269184Y244858D01*
X269322Y245905D01*
X269184Y246953D01*
X268780Y247929D01*
X268137Y248767D01*
X267299Y249410D01*
X266323Y249814D01*
X265276Y249952D01*
D02*
G37*
G36*
X533968Y248339D02*
X526031D01*
Y240402D01*
X533968D01*
Y248339D01*
D02*
G37*
G36*
X530000Y238373D02*
X528964Y238236D01*
X527999Y237837D01*
X527170Y237200D01*
X526534Y236371D01*
X526134Y235406D01*
X525997Y234370D01*
X526134Y233334D01*
X526534Y232369D01*
X527170Y231540D01*
X527999Y230904D01*
X528964Y230504D01*
X530000Y230367D01*
X531036Y230504D01*
X532001Y230904D01*
X532830Y231540D01*
X533466Y232369D01*
X533866Y233334D01*
X534003Y234370D01*
X533866Y235406D01*
X533466Y236371D01*
X532830Y237200D01*
X532001Y237837D01*
X531036Y238236D01*
X530000Y238373D01*
D02*
G37*
G36*
X220000D02*
X218964Y238236D01*
X217999Y237837D01*
X217170Y237200D01*
X216533Y236371D01*
X216134Y235406D01*
X215997Y234370D01*
X216134Y233334D01*
X216533Y232369D01*
X217170Y231540D01*
X217999Y230904D01*
X218964Y230504D01*
X220000Y230367D01*
X221036Y230504D01*
X222001Y230904D01*
X222830Y231540D01*
X223466Y232369D01*
X223866Y233334D01*
X224003Y234370D01*
X223866Y235406D01*
X223466Y236371D01*
X222830Y237200D01*
X222001Y237837D01*
X221036Y238236D01*
X220000Y238373D01*
D02*
G37*
G36*
X530000Y228373D02*
X528964Y228236D01*
X527999Y227836D01*
X527170Y227200D01*
X526534Y226372D01*
X526134Y225406D01*
X525997Y224370D01*
X526134Y223334D01*
X526534Y222369D01*
X527170Y221540D01*
X527999Y220904D01*
X528964Y220504D01*
X530000Y220367D01*
X531036Y220504D01*
X532001Y220904D01*
X532830Y221540D01*
X533466Y222369D01*
X533866Y223334D01*
X534003Y224370D01*
X533866Y225406D01*
X533466Y226372D01*
X532830Y227200D01*
X532001Y227836D01*
X531036Y228236D01*
X530000Y228373D01*
D02*
G37*
G36*
X220000D02*
X218964Y228236D01*
X217999Y227836D01*
X217170Y227200D01*
X216533Y226372D01*
X216134Y225406D01*
X215997Y224370D01*
X216134Y223334D01*
X216533Y222369D01*
X217170Y221540D01*
X217999Y220904D01*
X218964Y220504D01*
X220000Y220367D01*
X221036Y220504D01*
X222001Y220904D01*
X222830Y221540D01*
X223466Y222369D01*
X223866Y223334D01*
X224003Y224370D01*
X223866Y225406D01*
X223466Y226372D01*
X222830Y227200D01*
X222001Y227836D01*
X221036Y228236D01*
X220000Y228373D01*
D02*
G37*
G36*
X150500Y223291D02*
Y219870D01*
X153921D01*
X153851Y220402D01*
X153453Y221363D01*
X152819Y222189D01*
X151993Y222823D01*
X151032Y223221D01*
X150500Y223291D01*
D02*
G37*
G36*
X123000D02*
Y219870D01*
X126421D01*
X126351Y220402D01*
X125953Y221363D01*
X125319Y222189D01*
X124493Y222823D01*
X123532Y223221D01*
X123000Y223291D01*
D02*
G37*
G36*
X122000D02*
X121468Y223221D01*
X120507Y222823D01*
X119681Y222189D01*
X119047Y221363D01*
X118649Y220402D01*
X118579Y219870D01*
X122000D01*
Y223291D01*
D02*
G37*
G36*
X153921Y218870D02*
X150500D01*
Y215449D01*
X151032Y215519D01*
X151993Y215917D01*
X152819Y216551D01*
X153453Y217377D01*
X153851Y218338D01*
X153921Y218870D01*
D02*
G37*
G36*
X126421D02*
X123000D01*
Y215449D01*
X123532Y215519D01*
X124493Y215917D01*
X125319Y216551D01*
X125953Y217377D01*
X126351Y218338D01*
X126421Y218870D01*
D02*
G37*
G36*
X122000D02*
X118579D01*
X118649Y218338D01*
X119047Y217377D01*
X119681Y216551D01*
X120507Y215917D01*
X121468Y215519D01*
X122000Y215449D01*
Y218870D01*
D02*
G37*
G36*
X268783Y218154D02*
X261216D01*
Y210587D01*
X268783D01*
Y218154D01*
D02*
G37*
G36*
X59500Y208192D02*
X58994Y208125D01*
X58056Y207737D01*
X57251Y207119D01*
X56633Y206314D01*
X56245Y205376D01*
X56178Y204870D01*
X59500D01*
Y208192D01*
D02*
G37*
G36*
X265000Y208186D02*
X264012Y208056D01*
X263092Y207675D01*
X262302Y207068D01*
X261695Y206278D01*
X261314Y205358D01*
X261184Y204370D01*
X261314Y203382D01*
X261695Y202462D01*
X262302Y201672D01*
X263092Y201065D01*
X264012Y200684D01*
X265000Y200554D01*
X265988Y200684D01*
X266908Y201065D01*
X267698Y201672D01*
X268305Y202462D01*
X268686Y203382D01*
X268816Y204370D01*
X268686Y205358D01*
X268305Y206278D01*
X267698Y207068D01*
X266908Y207675D01*
X265988Y208056D01*
X265000Y208186D01*
D02*
G37*
G36*
X59500Y203870D02*
X56178D01*
X56245Y203364D01*
X56633Y202426D01*
X57251Y201621D01*
X58056Y201003D01*
X58994Y200615D01*
X59500Y200548D01*
Y203870D01*
D02*
G37*
G36*
X533968Y208339D02*
X526031D01*
Y200402D01*
X533968D01*
Y208339D01*
D02*
G37*
G36*
X223969D02*
X216032D01*
Y200402D01*
X223969D01*
Y208339D01*
D02*
G37*
G36*
X265000Y198186D02*
X264012Y198056D01*
X263092Y197675D01*
X262302Y197069D01*
X261695Y196278D01*
X261314Y195358D01*
X261184Y194370D01*
X261314Y193382D01*
X261695Y192462D01*
X262302Y191672D01*
X263092Y191065D01*
X264012Y190684D01*
X265000Y190554D01*
X265988Y190684D01*
X266908Y191065D01*
X267698Y191672D01*
X268305Y192462D01*
X268686Y193382D01*
X268816Y194370D01*
X268686Y195358D01*
X268305Y196278D01*
X267698Y197069D01*
X266908Y197675D01*
X265988Y198056D01*
X265000Y198186D01*
D02*
G37*
G36*
X242500Y198357D02*
X241468Y198221D01*
X240507Y197823D01*
X239681Y197189D01*
X239047Y196363D01*
X238649Y195402D01*
X238513Y194370D01*
X238649Y193338D01*
X238799Y192976D01*
X219324Y173501D01*
X130000D01*
X129376Y173377D01*
X128847Y173024D01*
X123894Y168071D01*
X123532Y168221D01*
X122500Y168357D01*
X121468Y168221D01*
X120507Y167823D01*
X119681Y167189D01*
X119047Y166364D01*
X118649Y165402D01*
X118513Y164370D01*
X118649Y163338D01*
X119047Y162377D01*
X119681Y161551D01*
X120507Y160917D01*
X120869Y160767D01*
Y145473D01*
X120507Y145323D01*
X119681Y144689D01*
X119047Y143863D01*
X118649Y142902D01*
X118513Y141870D01*
X118649Y140838D01*
X119047Y139877D01*
X119681Y139051D01*
X120507Y138417D01*
X121468Y138019D01*
X122500Y137883D01*
X123532Y138019D01*
X124493Y138417D01*
X125319Y139051D01*
X125953Y139877D01*
X126351Y140838D01*
X126487Y141870D01*
X126351Y142902D01*
X125953Y143863D01*
X125319Y144689D01*
X124493Y145323D01*
X124131Y145473D01*
Y160767D01*
X124493Y160917D01*
X125319Y161551D01*
X125953Y162377D01*
X126351Y163338D01*
X126487Y164370D01*
X126351Y165402D01*
X126201Y165764D01*
X130676Y170239D01*
X220000D01*
X220624Y170363D01*
X221153Y170717D01*
X241106Y190669D01*
X241468Y190519D01*
X242500Y190383D01*
X243532Y190519D01*
X244493Y190917D01*
X245319Y191551D01*
X245953Y192377D01*
X246351Y193338D01*
X246487Y194370D01*
X246351Y195402D01*
X245953Y196363D01*
X245319Y197189D01*
X244493Y197823D01*
X243532Y198221D01*
X242500Y198357D01*
D02*
G37*
G36*
X530000Y198373D02*
X528964Y198236D01*
X527999Y197837D01*
X527170Y197200D01*
X526534Y196371D01*
X526134Y195406D01*
X525997Y194370D01*
X526134Y193334D01*
X526534Y192369D01*
X527170Y191540D01*
X527999Y190904D01*
X528964Y190504D01*
X530000Y190367D01*
X531036Y190504D01*
X532001Y190904D01*
X532830Y191540D01*
X533466Y192369D01*
X533866Y193334D01*
X534003Y194370D01*
X533866Y195406D01*
X533466Y196371D01*
X532830Y197200D01*
X532001Y197837D01*
X531036Y198236D01*
X530000Y198373D01*
D02*
G37*
G36*
X220000D02*
X218964Y198236D01*
X217999Y197837D01*
X217170Y197200D01*
X216533Y196371D01*
X216134Y195406D01*
X215997Y194370D01*
X216134Y193334D01*
X216533Y192369D01*
X217170Y191540D01*
X217999Y190904D01*
X218964Y190504D01*
X220000Y190367D01*
X221036Y190504D01*
X222001Y190904D01*
X222830Y191540D01*
X223466Y192369D01*
X223866Y193334D01*
X224003Y194370D01*
X223866Y195406D01*
X223466Y196371D01*
X222830Y197200D01*
X222001Y197837D01*
X221036Y198236D01*
X220000Y198373D01*
D02*
G37*
G36*
X265500Y188120D02*
Y184870D01*
X268750D01*
X268686Y185358D01*
X268305Y186278D01*
X267698Y187068D01*
X266908Y187675D01*
X265988Y188056D01*
X265500Y188120D01*
D02*
G37*
G36*
X264500D02*
X264012Y188056D01*
X263092Y187675D01*
X262302Y187068D01*
X261695Y186278D01*
X261314Y185358D01*
X261250Y184870D01*
X264500D01*
Y188120D01*
D02*
G37*
G36*
X268750Y183870D02*
X265500D01*
Y180620D01*
X265988Y180684D01*
X266908Y181065D01*
X267698Y181672D01*
X268305Y182462D01*
X268686Y183382D01*
X268750Y183870D01*
D02*
G37*
G36*
X264500D02*
X261250D01*
X261314Y183382D01*
X261695Y182462D01*
X262302Y181672D01*
X263092Y181065D01*
X264012Y180684D01*
X264500Y180620D01*
Y183870D01*
D02*
G37*
G36*
X200000Y188258D02*
X198994Y188125D01*
X198056Y187737D01*
X197251Y187119D01*
X196633Y186314D01*
X196245Y185376D01*
X196112Y184370D01*
X196245Y183364D01*
X196633Y182426D01*
X197251Y181621D01*
X198056Y181003D01*
X198994Y180615D01*
X200000Y180482D01*
X201006Y180615D01*
X201944Y181003D01*
X202749Y181621D01*
X203367Y182426D01*
X203755Y183364D01*
X203888Y184370D01*
X203755Y185376D01*
X203367Y186314D01*
X202749Y187119D01*
X201944Y187737D01*
X201006Y188125D01*
X200000Y188258D01*
D02*
G37*
G36*
X170000D02*
X168994Y188125D01*
X168056Y187737D01*
X167251Y187119D01*
X166633Y186314D01*
X166245Y185376D01*
X166112Y184370D01*
X166245Y183364D01*
X166633Y182426D01*
X167251Y181621D01*
X168056Y181003D01*
X168994Y180615D01*
X170000Y180482D01*
X171006Y180615D01*
X171944Y181003D01*
X172749Y181621D01*
X173367Y182426D01*
X173755Y183364D01*
X173888Y184370D01*
X173755Y185376D01*
X173367Y186314D01*
X172749Y187119D01*
X171944Y187737D01*
X171006Y188125D01*
X170000Y188258D01*
D02*
G37*
G36*
X530000Y188373D02*
X528964Y188236D01*
X527999Y187837D01*
X527170Y187200D01*
X526534Y186372D01*
X526134Y185406D01*
X525997Y184370D01*
X526134Y183334D01*
X526534Y182369D01*
X527170Y181540D01*
X527999Y180904D01*
X528964Y180504D01*
X530000Y180367D01*
X531036Y180504D01*
X532001Y180904D01*
X532830Y181540D01*
X533466Y182369D01*
X533866Y183334D01*
X534003Y184370D01*
X533866Y185406D01*
X533466Y186372D01*
X532830Y187200D01*
X532001Y187837D01*
X531036Y188236D01*
X530000Y188373D01*
D02*
G37*
G36*
X220000D02*
X218964Y188236D01*
X217999Y187837D01*
X217170Y187200D01*
X216533Y186372D01*
X216134Y185406D01*
X215997Y184370D01*
X216134Y183334D01*
X216533Y182369D01*
X217170Y181540D01*
X217999Y180904D01*
X218964Y180504D01*
X220000Y180367D01*
X221036Y180504D01*
X222001Y180904D01*
X222830Y181540D01*
X223466Y182369D01*
X223866Y183334D01*
X224003Y184370D01*
X223866Y185406D01*
X223466Y186372D01*
X222830Y187200D01*
X222001Y187837D01*
X221036Y188236D01*
X220000Y188373D01*
D02*
G37*
G36*
X265000Y178186D02*
X264012Y178056D01*
X263092Y177675D01*
X262302Y177068D01*
X261695Y176278D01*
X261314Y175358D01*
X261184Y174370D01*
X261314Y173382D01*
X261695Y172462D01*
X262302Y171672D01*
X263092Y171065D01*
X264012Y170684D01*
X265000Y170554D01*
X265988Y170684D01*
X266908Y171065D01*
X267698Y171672D01*
X268305Y172462D01*
X268686Y173382D01*
X268816Y174370D01*
X268686Y175358D01*
X268305Y176278D01*
X267698Y177068D01*
X266908Y177675D01*
X265988Y178056D01*
X265000Y178186D01*
D02*
G37*
G36*
X403968Y174307D02*
X396031D01*
Y164433D01*
X403968D01*
Y174307D01*
D02*
G37*
G36*
X265000Y168186D02*
X264012Y168056D01*
X263092Y167675D01*
X262302Y167069D01*
X261695Y166278D01*
X261314Y165358D01*
X261184Y164370D01*
X261314Y163382D01*
X261695Y162462D01*
X262302Y161672D01*
X263092Y161065D01*
X264012Y160684D01*
X265000Y160554D01*
X265988Y160684D01*
X266908Y161065D01*
X267698Y161672D01*
X268305Y162462D01*
X268686Y163382D01*
X268816Y164370D01*
X268686Y165358D01*
X268305Y166278D01*
X267698Y167069D01*
X266908Y167675D01*
X265988Y168056D01*
X265000Y168186D01*
D02*
G37*
G36*
Y158186D02*
X264012Y158056D01*
X263092Y157675D01*
X262302Y157069D01*
X261695Y156278D01*
X261314Y155358D01*
X261184Y154370D01*
X261314Y153382D01*
X261695Y152462D01*
X262302Y151672D01*
X263092Y151065D01*
X264012Y150684D01*
X265000Y150554D01*
X265988Y150684D01*
X266908Y151065D01*
X267698Y151672D01*
X268305Y152462D01*
X268686Y153382D01*
X268816Y154370D01*
X268686Y155358D01*
X268305Y156278D01*
X267698Y157069D01*
X266908Y157675D01*
X265988Y158056D01*
X265000Y158186D01*
D02*
G37*
G36*
X170500Y145791D02*
Y142370D01*
X173921D01*
X173851Y142902D01*
X173453Y143863D01*
X172819Y144689D01*
X171993Y145323D01*
X171032Y145721D01*
X170500Y145791D01*
D02*
G37*
G36*
X169500D02*
X168968Y145721D01*
X168007Y145323D01*
X167181Y144689D01*
X166547Y143863D01*
X166149Y142902D01*
X166079Y142370D01*
X169500D01*
Y145791D01*
D02*
G37*
G36*
X59500D02*
X58968Y145721D01*
X58007Y145323D01*
X57181Y144689D01*
X56547Y143863D01*
X56149Y142902D01*
X56079Y142370D01*
X59500D01*
Y145791D01*
D02*
G37*
G36*
X325000Y148186D02*
X324012Y148056D01*
X323092Y147675D01*
X322302Y147069D01*
X321695Y146278D01*
X321314Y145358D01*
X321184Y144370D01*
X321314Y143382D01*
X321695Y142462D01*
X322302Y141672D01*
X323092Y141065D01*
X324012Y140684D01*
X325000Y140554D01*
X325988Y140684D01*
X326908Y141065D01*
X327698Y141672D01*
X328305Y142462D01*
X328686Y143382D01*
X328816Y144370D01*
X328686Y145358D01*
X328305Y146278D01*
X327698Y147069D01*
X326908Y147675D01*
X325988Y148056D01*
X325000Y148186D01*
D02*
G37*
G36*
X370500Y143291D02*
Y139870D01*
X373921D01*
X373851Y140402D01*
X373453Y141364D01*
X372819Y142189D01*
X371993Y142823D01*
X371032Y143221D01*
X370500Y143291D01*
D02*
G37*
G36*
X369500D02*
X368968Y143221D01*
X368007Y142823D01*
X367181Y142189D01*
X366547Y141364D01*
X366149Y140402D01*
X366079Y139870D01*
X369500D01*
Y143291D01*
D02*
G37*
G36*
X468968Y149307D02*
X461031D01*
Y139433D01*
X468968D01*
Y149307D01*
D02*
G37*
G36*
X173921Y141370D02*
X170500D01*
Y137949D01*
X171032Y138019D01*
X171993Y138417D01*
X172819Y139051D01*
X173453Y139877D01*
X173851Y140838D01*
X173921Y141370D01*
D02*
G37*
G36*
X169500D02*
X166079D01*
X166149Y140838D01*
X166547Y139877D01*
X167181Y139051D01*
X168007Y138417D01*
X168968Y138019D01*
X169500Y137949D01*
Y141370D01*
D02*
G37*
G36*
X59500D02*
X56079D01*
X56149Y140838D01*
X56547Y139877D01*
X57181Y139051D01*
X58007Y138417D01*
X58968Y138019D01*
X59500Y137949D01*
Y141370D01*
D02*
G37*
G36*
X158968Y146807D02*
X151031D01*
Y136933D01*
X158968D01*
Y146807D01*
D02*
G37*
G36*
X325000Y138186D02*
X324012Y138056D01*
X323092Y137675D01*
X322302Y137068D01*
X321695Y136278D01*
X321314Y135358D01*
X321184Y134370D01*
X321314Y133382D01*
X321695Y132462D01*
X322302Y131672D01*
X323092Y131065D01*
X324012Y130684D01*
X325000Y130554D01*
X325988Y130684D01*
X326908Y131065D01*
X327698Y131672D01*
X328305Y132462D01*
X328686Y133382D01*
X328816Y134370D01*
X328686Y135358D01*
X328305Y136278D01*
X327698Y137068D01*
X326908Y137675D01*
X325988Y138056D01*
X325000Y138186D01*
D02*
G37*
G36*
X265000Y128186D02*
X264012Y128056D01*
X263092Y127675D01*
X262302Y127068D01*
X261695Y126278D01*
X261314Y125358D01*
X261184Y124370D01*
X261314Y123382D01*
X261695Y122462D01*
X262302Y121672D01*
X263092Y121065D01*
X264012Y120684D01*
X265000Y120554D01*
X265988Y120684D01*
X266908Y121065D01*
X267698Y121672D01*
X268305Y122462D01*
X268686Y123382D01*
X268816Y124370D01*
X268686Y125358D01*
X268305Y126278D01*
X267698Y127068D01*
X266908Y127675D01*
X265988Y128056D01*
X265000Y128186D01*
D02*
G37*
G36*
X533968Y128339D02*
X526031D01*
Y120402D01*
X533968D01*
Y128339D01*
D02*
G37*
G36*
X223969D02*
X216032D01*
Y120402D01*
X223969D01*
Y128339D01*
D02*
G37*
G36*
X265000Y118186D02*
X264012Y118056D01*
X263092Y117675D01*
X262302Y117069D01*
X261695Y116278D01*
X261314Y115358D01*
X261184Y114370D01*
X261314Y113382D01*
X261695Y112462D01*
X262302Y111672D01*
X263092Y111065D01*
X264012Y110684D01*
X265000Y110554D01*
X265988Y110684D01*
X266908Y111065D01*
X267698Y111672D01*
X268305Y112462D01*
X268686Y113382D01*
X268816Y114370D01*
X268686Y115358D01*
X268305Y116278D01*
X267698Y117069D01*
X266908Y117675D01*
X265988Y118056D01*
X265000Y118186D01*
D02*
G37*
G36*
X530000Y118373D02*
X528964Y118236D01*
X527999Y117837D01*
X527170Y117200D01*
X526534Y116372D01*
X526134Y115406D01*
X525997Y114370D01*
X526134Y113334D01*
X526534Y112369D01*
X527170Y111540D01*
X527999Y110904D01*
X528964Y110504D01*
X530000Y110367D01*
X531036Y110504D01*
X532001Y110904D01*
X532830Y111540D01*
X533466Y112369D01*
X533866Y113334D01*
X534003Y114370D01*
X533866Y115406D01*
X533466Y116372D01*
X532830Y117200D01*
X532001Y117837D01*
X531036Y118236D01*
X530000Y118373D01*
D02*
G37*
G36*
X220000D02*
X218964Y118236D01*
X217999Y117837D01*
X217170Y117200D01*
X216533Y116372D01*
X216134Y115406D01*
X215997Y114370D01*
X216134Y113334D01*
X216533Y112369D01*
X217170Y111540D01*
X217999Y110904D01*
X218964Y110504D01*
X220000Y110367D01*
X221036Y110504D01*
X222001Y110904D01*
X222830Y111540D01*
X223466Y112369D01*
X223866Y113334D01*
X224003Y114370D01*
X223866Y115406D01*
X223466Y116372D01*
X222830Y117200D01*
X222001Y117837D01*
X221036Y118236D01*
X220000Y118373D01*
D02*
G37*
G36*
X149500Y108291D02*
X148968Y108221D01*
X148007Y107823D01*
X147181Y107189D01*
X146547Y106363D01*
X146149Y105402D01*
X146079Y104870D01*
X149500D01*
Y108291D01*
D02*
G37*
G36*
X325000Y108186D02*
X324012Y108056D01*
X323092Y107675D01*
X322302Y107069D01*
X321695Y106278D01*
X321314Y105358D01*
X321184Y104370D01*
X321314Y103382D01*
X321695Y102462D01*
X322302Y101672D01*
X323092Y101065D01*
X324012Y100684D01*
X325000Y100554D01*
X325988Y100684D01*
X326908Y101065D01*
X327698Y101672D01*
X328305Y102462D01*
X328686Y103382D01*
X328816Y104370D01*
X328686Y105358D01*
X328305Y106278D01*
X327698Y107069D01*
X326908Y107675D01*
X325988Y108056D01*
X325000Y108186D01*
D02*
G37*
G36*
X265000D02*
X264012Y108056D01*
X263092Y107675D01*
X262302Y107069D01*
X261695Y106278D01*
X261314Y105358D01*
X261184Y104370D01*
X261314Y103382D01*
X261695Y102462D01*
X262302Y101672D01*
X263092Y101065D01*
X264012Y100684D01*
X265000Y100554D01*
X265988Y100684D01*
X266908Y101065D01*
X267698Y101672D01*
X268305Y102462D01*
X268686Y103382D01*
X268816Y104370D01*
X268686Y105358D01*
X268305Y106278D01*
X267698Y107069D01*
X266908Y107675D01*
X265988Y108056D01*
X265000Y108186D01*
D02*
G37*
G36*
X149500Y103870D02*
X146079D01*
X146149Y103338D01*
X146547Y102377D01*
X147181Y101551D01*
X148007Y100917D01*
X148968Y100519D01*
X149500Y100449D01*
Y103870D01*
D02*
G37*
G36*
X530000Y108373D02*
X528964Y108236D01*
X527999Y107837D01*
X527170Y107200D01*
X526534Y106371D01*
X526134Y105406D01*
X525997Y104370D01*
X526134Y103334D01*
X526534Y102369D01*
X527170Y101540D01*
X527999Y100904D01*
X528964Y100504D01*
X530000Y100367D01*
X531036Y100504D01*
X532001Y100904D01*
X532830Y101540D01*
X533466Y102369D01*
X533866Y103334D01*
X534003Y104370D01*
X533866Y105406D01*
X533466Y106371D01*
X532830Y107200D01*
X532001Y107837D01*
X531036Y108236D01*
X530000Y108373D01*
D02*
G37*
G36*
X220000D02*
X218964Y108236D01*
X217999Y107837D01*
X217170Y107200D01*
X216533Y106371D01*
X216134Y105406D01*
X215997Y104370D01*
X216134Y103334D01*
X216533Y102369D01*
X217170Y101540D01*
X217999Y100904D01*
X218964Y100504D01*
X220000Y100367D01*
X221036Y100504D01*
X222001Y100904D01*
X222830Y101540D01*
X223466Y102369D01*
X223866Y103334D01*
X224003Y104370D01*
X223866Y105406D01*
X223466Y106371D01*
X222830Y107200D01*
X222001Y107837D01*
X221036Y108236D01*
X220000Y108373D01*
D02*
G37*
G36*
X123000Y103291D02*
Y99870D01*
X126421D01*
X126351Y100402D01*
X125953Y101364D01*
X125319Y102189D01*
X124493Y102823D01*
X123532Y103221D01*
X123000Y103291D01*
D02*
G37*
G36*
X122000D02*
X121468Y103221D01*
X120507Y102823D01*
X119681Y102189D01*
X119047Y101364D01*
X118649Y100402D01*
X118579Y99870D01*
X122000D01*
Y103291D01*
D02*
G37*
G36*
X126421Y98870D02*
X123000D01*
Y95449D01*
X123532Y95519D01*
X124493Y95917D01*
X125319Y96551D01*
X125953Y97377D01*
X126351Y98338D01*
X126421Y98870D01*
D02*
G37*
G36*
X122000D02*
X118579D01*
X118649Y98338D01*
X119047Y97377D01*
X119681Y96551D01*
X120507Y95917D01*
X121468Y95519D01*
X122000Y95449D01*
Y98870D01*
D02*
G37*
G36*
X444500Y98291D02*
X443968Y98221D01*
X443007Y97823D01*
X442181Y97189D01*
X441547Y96364D01*
X441149Y95402D01*
X441079Y94870D01*
X444500D01*
Y98291D01*
D02*
G37*
G36*
X433000D02*
Y94870D01*
X436421D01*
X436351Y95402D01*
X435953Y96364D01*
X435319Y97189D01*
X434493Y97823D01*
X433532Y98221D01*
X433000Y98291D01*
D02*
G37*
G36*
X432000D02*
X431468Y98221D01*
X430507Y97823D01*
X429681Y97189D01*
X429047Y96364D01*
X428649Y95402D01*
X428579Y94870D01*
X432000D01*
Y98291D01*
D02*
G37*
G36*
X325000Y98186D02*
X324012Y98056D01*
X323092Y97675D01*
X322302Y97069D01*
X321695Y96278D01*
X321314Y95358D01*
X321184Y94370D01*
X321314Y93382D01*
X321695Y92462D01*
X322302Y91672D01*
X323092Y91065D01*
X324012Y90684D01*
X325000Y90554D01*
X325988Y90684D01*
X326908Y91065D01*
X327698Y91672D01*
X328305Y92462D01*
X328686Y93382D01*
X328816Y94370D01*
X328686Y95358D01*
X328305Y96278D01*
X327698Y97069D01*
X326908Y97675D01*
X325988Y98056D01*
X325000Y98186D01*
D02*
G37*
G36*
X265000D02*
X264012Y98056D01*
X263092Y97675D01*
X262302Y97069D01*
X261695Y96278D01*
X261314Y95358D01*
X261184Y94370D01*
X261314Y93382D01*
X261695Y92462D01*
X262302Y91672D01*
X263092Y91065D01*
X264012Y90684D01*
X265000Y90554D01*
X265988Y90684D01*
X266908Y91065D01*
X267698Y91672D01*
X268305Y92462D01*
X268686Y93382D01*
X268816Y94370D01*
X268686Y95358D01*
X268305Y96278D01*
X267698Y97069D01*
X266908Y97675D01*
X265988Y98056D01*
X265000Y98186D01*
D02*
G37*
G36*
X444500Y93870D02*
X441079D01*
X441149Y93338D01*
X441547Y92377D01*
X442181Y91551D01*
X443007Y90917D01*
X443968Y90519D01*
X444500Y90449D01*
Y93870D01*
D02*
G37*
G36*
X436421D02*
X433000D01*
Y90449D01*
X433532Y90519D01*
X434493Y90917D01*
X435319Y91551D01*
X435953Y92377D01*
X436351Y93338D01*
X436421Y93870D01*
D02*
G37*
G36*
X432000D02*
X428579D01*
X428649Y93338D01*
X429047Y92377D01*
X429681Y91551D01*
X430507Y90917D01*
X431468Y90519D01*
X432000Y90449D01*
Y93870D01*
D02*
G37*
G36*
X370500Y88192D02*
Y84870D01*
X373822D01*
X373755Y85376D01*
X373367Y86314D01*
X372749Y87119D01*
X371944Y87737D01*
X371006Y88125D01*
X370500Y88192D01*
D02*
G37*
G36*
X60500D02*
Y84870D01*
X63822D01*
X63755Y85376D01*
X63367Y86314D01*
X62749Y87119D01*
X61944Y87737D01*
X61006Y88125D01*
X60500Y88192D01*
D02*
G37*
G36*
X369500D02*
X368994Y88125D01*
X368056Y87737D01*
X367251Y87119D01*
X366633Y86314D01*
X366245Y85376D01*
X366178Y84870D01*
X369500D01*
Y88192D01*
D02*
G37*
G36*
X59500D02*
X58994Y88125D01*
X58056Y87737D01*
X57251Y87119D01*
X56633Y86314D01*
X56245Y85376D01*
X56178Y84870D01*
X59500D01*
Y88192D01*
D02*
G37*
G36*
X325000Y88186D02*
X324012Y88056D01*
X323092Y87675D01*
X322302Y87068D01*
X321695Y86278D01*
X321314Y85358D01*
X321184Y84370D01*
X321314Y83382D01*
X321695Y82462D01*
X322302Y81672D01*
X323092Y81065D01*
X324012Y80684D01*
X325000Y80554D01*
X325988Y80684D01*
X326908Y81065D01*
X327698Y81672D01*
X328305Y82462D01*
X328686Y83382D01*
X328816Y84370D01*
X328686Y85358D01*
X328305Y86278D01*
X327698Y87068D01*
X326908Y87675D01*
X325988Y88056D01*
X325000Y88186D01*
D02*
G37*
G36*
X265000D02*
X264012Y88056D01*
X263092Y87675D01*
X262302Y87068D01*
X261695Y86278D01*
X261314Y85358D01*
X261184Y84370D01*
X261314Y83382D01*
X261695Y82462D01*
X262302Y81672D01*
X263092Y81065D01*
X264012Y80684D01*
X265000Y80554D01*
X265988Y80684D01*
X266908Y81065D01*
X267698Y81672D01*
X268305Y82462D01*
X268686Y83382D01*
X268816Y84370D01*
X268686Y85358D01*
X268305Y86278D01*
X267698Y87068D01*
X266908Y87675D01*
X265988Y88056D01*
X265000Y88186D01*
D02*
G37*
G36*
X63822Y83870D02*
X60500D01*
Y80548D01*
X61006Y80615D01*
X61944Y81003D01*
X62749Y81621D01*
X63367Y82426D01*
X63755Y83364D01*
X63822Y83870D01*
D02*
G37*
G36*
X59500D02*
X56178D01*
X56245Y83364D01*
X56633Y82426D01*
X57251Y81621D01*
X58056Y81003D01*
X58994Y80615D01*
X59500Y80548D01*
Y83870D01*
D02*
G37*
G36*
X510000Y88258D02*
X508994Y88125D01*
X508056Y87737D01*
X507251Y87119D01*
X506633Y86314D01*
X506245Y85376D01*
X506112Y84370D01*
X506245Y83364D01*
X506633Y82426D01*
X507251Y81621D01*
X508056Y81003D01*
X508994Y80615D01*
X510000Y80483D01*
X511006Y80615D01*
X511944Y81003D01*
X512749Y81621D01*
X513367Y82426D01*
X513755Y83364D01*
X513888Y84370D01*
X513755Y85376D01*
X513367Y86314D01*
X512749Y87119D01*
X511944Y87737D01*
X511006Y88125D01*
X510000Y88258D01*
D02*
G37*
G36*
X533968Y88339D02*
X526031D01*
Y80402D01*
X533968D01*
Y88339D01*
D02*
G37*
G36*
X223969D02*
X216032D01*
Y80402D01*
X223969D01*
Y88339D01*
D02*
G37*
G36*
X265000Y78186D02*
X264012Y78056D01*
X263092Y77675D01*
X262302Y77069D01*
X261695Y76278D01*
X261314Y75358D01*
X261184Y74370D01*
X261314Y73382D01*
X261695Y72462D01*
X262302Y71672D01*
X263092Y71065D01*
X264012Y70684D01*
X265000Y70554D01*
X265988Y70684D01*
X266908Y71065D01*
X267698Y71672D01*
X268305Y72462D01*
X268686Y73382D01*
X268816Y74370D01*
X268686Y75358D01*
X268305Y76278D01*
X267698Y77069D01*
X266908Y77675D01*
X265988Y78056D01*
X265000Y78186D01*
D02*
G37*
G36*
X510000Y78258D02*
X508994Y78125D01*
X508056Y77737D01*
X507251Y77119D01*
X506633Y76314D01*
X506245Y75376D01*
X506112Y74370D01*
X506245Y73364D01*
X506633Y72426D01*
X507251Y71621D01*
X508056Y71003D01*
X508994Y70615D01*
X510000Y70482D01*
X511006Y70615D01*
X511944Y71003D01*
X512749Y71621D01*
X513367Y72426D01*
X513755Y73364D01*
X513888Y74370D01*
X513755Y75376D01*
X513367Y76314D01*
X512749Y77119D01*
X511944Y77737D01*
X511006Y78125D01*
X510000Y78258D01*
D02*
G37*
G36*
X480000D02*
X478994Y78125D01*
X478056Y77737D01*
X477251Y77119D01*
X476633Y76314D01*
X476245Y75376D01*
X476112Y74370D01*
X476245Y73364D01*
X476633Y72426D01*
X477251Y71621D01*
X478056Y71003D01*
X478994Y70615D01*
X480000Y70482D01*
X481006Y70615D01*
X481944Y71003D01*
X482749Y71621D01*
X483367Y72426D01*
X483755Y73364D01*
X483888Y74370D01*
X483755Y75376D01*
X483367Y76314D01*
X482749Y77119D01*
X481944Y77737D01*
X481006Y78125D01*
X480000Y78258D01*
D02*
G37*
G36*
X60000D02*
X58994Y78125D01*
X58056Y77737D01*
X57251Y77119D01*
X56633Y76314D01*
X56245Y75376D01*
X56112Y74370D01*
X56245Y73364D01*
X56633Y72426D01*
X57251Y71621D01*
X58056Y71003D01*
X58994Y70615D01*
X60000Y70482D01*
X61006Y70615D01*
X61944Y71003D01*
X62749Y71621D01*
X63367Y72426D01*
X63755Y73364D01*
X63888Y74370D01*
X63755Y75376D01*
X63367Y76314D01*
X62749Y77119D01*
X61944Y77737D01*
X61006Y78125D01*
X60000Y78258D01*
D02*
G37*
G36*
X530000Y78373D02*
X528964Y78236D01*
X527999Y77837D01*
X527170Y77200D01*
X526534Y76372D01*
X526134Y75406D01*
X525997Y74370D01*
X526134Y73334D01*
X526534Y72369D01*
X527170Y71540D01*
X527999Y70904D01*
X528964Y70504D01*
X530000Y70367D01*
X531036Y70504D01*
X532001Y70904D01*
X532830Y71540D01*
X533466Y72369D01*
X533866Y73334D01*
X534003Y74370D01*
X533866Y75406D01*
X533466Y76372D01*
X532830Y77200D01*
X532001Y77837D01*
X531036Y78236D01*
X530000Y78373D01*
D02*
G37*
G36*
X220000D02*
X218964Y78236D01*
X217999Y77837D01*
X217170Y77200D01*
X216533Y76372D01*
X216134Y75406D01*
X215997Y74370D01*
X216134Y73334D01*
X216533Y72369D01*
X217170Y71540D01*
X217999Y70904D01*
X218964Y70504D01*
X220000Y70367D01*
X221036Y70504D01*
X222001Y70904D01*
X222830Y71540D01*
X223466Y72369D01*
X223866Y73334D01*
X224003Y74370D01*
X223866Y75406D01*
X223466Y76372D01*
X222830Y77200D01*
X222001Y77837D01*
X221036Y78236D01*
X220000Y78373D01*
D02*
G37*
G36*
X510000Y68258D02*
X508994Y68125D01*
X508056Y67737D01*
X507251Y67119D01*
X506633Y66314D01*
X506245Y65376D01*
X506112Y64370D01*
X506245Y63364D01*
X506633Y62426D01*
X507251Y61621D01*
X508056Y61003D01*
X508994Y60615D01*
X510000Y60483D01*
X511006Y60615D01*
X511944Y61003D01*
X512749Y61621D01*
X513367Y62426D01*
X513755Y63364D01*
X513888Y64370D01*
X513755Y65376D01*
X513367Y66314D01*
X512749Y67119D01*
X511944Y67737D01*
X511006Y68125D01*
X510000Y68258D01*
D02*
G37*
G36*
X480000D02*
X478994Y68125D01*
X478056Y67737D01*
X477251Y67119D01*
X476633Y66314D01*
X476245Y65376D01*
X476112Y64370D01*
X476245Y63364D01*
X476633Y62426D01*
X477251Y61621D01*
X478056Y61003D01*
X478994Y60615D01*
X480000Y60483D01*
X481006Y60615D01*
X481944Y61003D01*
X482749Y61621D01*
X483367Y62426D01*
X483755Y63364D01*
X483888Y64370D01*
X483755Y65376D01*
X483367Y66314D01*
X482749Y67119D01*
X481944Y67737D01*
X481006Y68125D01*
X480000Y68258D01*
D02*
G37*
G36*
X90000Y78258D02*
X88994Y78125D01*
X88056Y77737D01*
X87251Y77119D01*
X86633Y76314D01*
X86245Y75376D01*
X86112Y74370D01*
X86245Y73364D01*
X86633Y72426D01*
X87251Y71621D01*
X88056Y71003D01*
X88369Y70874D01*
Y67866D01*
X88056Y67737D01*
X87251Y67119D01*
X86633Y66314D01*
X86245Y65376D01*
X86112Y64370D01*
X86245Y63364D01*
X86633Y62426D01*
X87251Y61621D01*
X88056Y61003D01*
X88994Y60615D01*
X90000Y60483D01*
X91006Y60615D01*
X91944Y61003D01*
X92749Y61621D01*
X93367Y62426D01*
X93755Y63364D01*
X93888Y64370D01*
X93755Y65376D01*
X93367Y66314D01*
X92749Y67119D01*
X91944Y67737D01*
X91631Y67866D01*
Y70874D01*
X91944Y71003D01*
X92749Y71621D01*
X93367Y72426D01*
X93755Y73364D01*
X93888Y74370D01*
X93755Y75376D01*
X93367Y76314D01*
X92749Y77119D01*
X91944Y77737D01*
X91006Y78125D01*
X90000Y78258D01*
D02*
G37*
G36*
X60000Y68258D02*
X58994Y68125D01*
X58056Y67737D01*
X57251Y67119D01*
X56633Y66314D01*
X56245Y65376D01*
X56112Y64370D01*
X56245Y63364D01*
X56633Y62426D01*
X57251Y61621D01*
X58056Y61003D01*
X58994Y60615D01*
X60000Y60483D01*
X61006Y60615D01*
X61944Y61003D01*
X62749Y61621D01*
X63367Y62426D01*
X63755Y63364D01*
X63888Y64370D01*
X63755Y65376D01*
X63367Y66314D01*
X62749Y67119D01*
X61944Y67737D01*
X61006Y68125D01*
X60000Y68258D01*
D02*
G37*
G36*
X530000Y68373D02*
X528964Y68236D01*
X527999Y67836D01*
X527170Y67200D01*
X526534Y66372D01*
X526134Y65406D01*
X525997Y64370D01*
X526134Y63334D01*
X526534Y62369D01*
X527170Y61540D01*
X527999Y60904D01*
X528964Y60504D01*
X530000Y60367D01*
X531036Y60504D01*
X532001Y60904D01*
X532830Y61540D01*
X533466Y62369D01*
X533866Y63334D01*
X534003Y64370D01*
X533866Y65406D01*
X533466Y66372D01*
X532830Y67200D01*
X532001Y67836D01*
X531036Y68236D01*
X530000Y68373D01*
D02*
G37*
G36*
X220000D02*
X218964Y68236D01*
X217999Y67836D01*
X217170Y67200D01*
X216533Y66372D01*
X216134Y65406D01*
X215997Y64370D01*
X216134Y63334D01*
X216533Y62369D01*
X217170Y61540D01*
X217999Y60904D01*
X218964Y60504D01*
X220000Y60367D01*
X221036Y60504D01*
X222001Y60904D01*
X222830Y61540D01*
X223466Y62369D01*
X223866Y63334D01*
X224003Y64370D01*
X223866Y65406D01*
X223466Y66372D01*
X222830Y67200D01*
X222001Y67836D01*
X221036Y68236D01*
X220000Y68373D01*
D02*
G37*
G36*
X295000Y240857D02*
X293968Y240721D01*
X293007Y240323D01*
X292181Y239689D01*
X291547Y238863D01*
X291149Y237902D01*
X291013Y236870D01*
X291149Y235838D01*
X291547Y234877D01*
X292181Y234051D01*
X293007Y233417D01*
X293369Y233267D01*
Y67546D01*
X274324Y48501D01*
X183968D01*
Y51807D01*
X176031D01*
Y42001D01*
X93968D01*
Y51177D01*
X86032D01*
Y42001D01*
X52176D01*
X44131Y50046D01*
Y181870D01*
X44007Y182494D01*
X43695Y182962D01*
X43851Y183338D01*
X43987Y184370D01*
X43851Y185402D01*
X43453Y186363D01*
X42819Y187189D01*
X41993Y187823D01*
X41631Y187973D01*
Y215767D01*
X41993Y215917D01*
X42819Y216551D01*
X43453Y217377D01*
X43851Y218338D01*
X43987Y219370D01*
X43851Y220402D01*
X43453Y221363D01*
X42819Y222189D01*
X41993Y222823D01*
X41032Y223221D01*
X40000Y223357D01*
X38968Y223221D01*
X38007Y222823D01*
X37181Y222189D01*
X36547Y221363D01*
X36149Y220402D01*
X36013Y219370D01*
X36149Y218338D01*
X36547Y217377D01*
X37181Y216551D01*
X38007Y215917D01*
X38369Y215767D01*
Y187973D01*
X38007Y187823D01*
X37181Y187189D01*
X36547Y186363D01*
X36149Y185402D01*
X36013Y184370D01*
X36149Y183338D01*
X36547Y182377D01*
X37181Y181551D01*
X38007Y180917D01*
X38968Y180519D01*
X40000Y180383D01*
X40493Y180448D01*
X40869Y180118D01*
Y49370D01*
X40993Y48746D01*
X41346Y48217D01*
X50062Y39501D01*
X49854Y39001D01*
X42676D01*
X34131Y47546D01*
Y181870D01*
X34007Y182494D01*
X33695Y182962D01*
X33851Y183338D01*
X33987Y184370D01*
X33851Y185402D01*
X33453Y186363D01*
X32819Y187189D01*
X31993Y187823D01*
X31631Y187973D01*
Y215767D01*
X31993Y215917D01*
X32819Y216551D01*
X33453Y217377D01*
X33851Y218338D01*
X33987Y219370D01*
X33851Y220402D01*
X33453Y221363D01*
X32819Y222189D01*
X31993Y222823D01*
X31032Y223221D01*
X30000Y223357D01*
X28968Y223221D01*
X28007Y222823D01*
X27181Y222189D01*
X26547Y221363D01*
X26149Y220402D01*
X26013Y219370D01*
X26149Y218338D01*
X26547Y217377D01*
X27181Y216551D01*
X28007Y215917D01*
X28369Y215767D01*
Y187973D01*
X28007Y187823D01*
X27181Y187189D01*
X26547Y186363D01*
X26149Y185402D01*
X26013Y184370D01*
X26149Y183338D01*
X26547Y182377D01*
X27181Y181551D01*
X28007Y180917D01*
X28968Y180519D01*
X30000Y180383D01*
X30493Y180448D01*
X30869Y180118D01*
Y46870D01*
X30993Y46246D01*
X31346Y45717D01*
X40847Y36217D01*
X41376Y35863D01*
X42000Y35739D01*
X335500D01*
X336124Y35863D01*
X336653Y36217D01*
X343445Y43008D01*
X343532Y43019D01*
X344493Y43417D01*
X345319Y44051D01*
X345953Y44877D01*
X346351Y45838D01*
X346487Y46870D01*
X346351Y47902D01*
X345953Y48864D01*
X345319Y49689D01*
X344493Y50323D01*
X343532Y50721D01*
X342500Y50857D01*
X341468Y50721D01*
X340507Y50323D01*
X339681Y49689D01*
X339047Y48864D01*
X338649Y47902D01*
X338513Y46870D01*
X338649Y45838D01*
X339047Y44877D01*
X339681Y44051D01*
X339693Y43870D01*
X334824Y39001D01*
X330146D01*
X329938Y39501D01*
X333445Y43008D01*
X333532Y43019D01*
X334493Y43417D01*
X335319Y44051D01*
X335953Y44877D01*
X336351Y45838D01*
X336487Y46870D01*
X336351Y47902D01*
X335953Y48864D01*
X335319Y49689D01*
X334493Y50323D01*
X333532Y50721D01*
X332500Y50857D01*
X331468Y50721D01*
X330507Y50323D01*
X329681Y49689D01*
X329047Y48864D01*
X328649Y47902D01*
X328513Y46870D01*
X328649Y45838D01*
X329047Y44877D01*
X329681Y44051D01*
X329693Y43870D01*
X327824Y42001D01*
X183968D01*
Y45239D01*
X275000D01*
X275624Y45363D01*
X276153Y45717D01*
X296153Y65716D01*
X296507Y66246D01*
X296631Y66870D01*
Y233267D01*
X296993Y233417D01*
X297819Y234051D01*
X298453Y234877D01*
X298851Y235838D01*
X298987Y236870D01*
X298851Y237902D01*
X298453Y238863D01*
X297819Y239689D01*
X296993Y240323D01*
X296032Y240721D01*
X295000Y240857D01*
D02*
G37*
G36*
X575500Y48291D02*
Y44870D01*
X578921D01*
X578851Y45402D01*
X578453Y46363D01*
X577819Y47189D01*
X576993Y47823D01*
X576032Y48221D01*
X575500Y48291D01*
D02*
G37*
G36*
X574500D02*
X573968Y48221D01*
X573007Y47823D01*
X572181Y47189D01*
X571547Y46363D01*
X571149Y45402D01*
X571079Y44870D01*
X574500D01*
Y48291D01*
D02*
G37*
G36*
X15500D02*
Y44870D01*
X18921D01*
X18851Y45402D01*
X18453Y46363D01*
X17819Y47189D01*
X16993Y47823D01*
X16032Y48221D01*
X15500Y48291D01*
D02*
G37*
G36*
X14500D02*
X13968Y48221D01*
X13007Y47823D01*
X12181Y47189D01*
X11547Y46363D01*
X11149Y45402D01*
X11079Y44870D01*
X14500D01*
Y48291D01*
D02*
G37*
G36*
X356469Y51807D02*
X348532D01*
Y41933D01*
X356469D01*
Y51807D01*
D02*
G37*
G36*
X578921Y43870D02*
X575500D01*
Y40449D01*
X576032Y40519D01*
X576993Y40917D01*
X577819Y41551D01*
X578453Y42377D01*
X578851Y43338D01*
X578921Y43870D01*
D02*
G37*
G36*
X574500D02*
X571079D01*
X571149Y43338D01*
X571547Y42377D01*
X572181Y41551D01*
X573007Y40917D01*
X573968Y40519D01*
X574500Y40449D01*
Y43870D01*
D02*
G37*
G36*
X18921D02*
X15500D01*
Y40449D01*
X16032Y40519D01*
X16993Y40917D01*
X17819Y41551D01*
X18453Y42377D01*
X18851Y43338D01*
X18921Y43870D01*
D02*
G37*
G36*
X14500D02*
X11079D01*
X11149Y43338D01*
X11547Y42377D01*
X12181Y41551D01*
X13007Y40917D01*
X13968Y40519D01*
X14500Y40449D01*
Y43870D01*
D02*
G37*
%LPD*%
G36*
X482961Y263525D02*
Y248224D01*
X476146D01*
Y240516D01*
X482961D01*
Y237587D01*
X482461Y237340D01*
X481944Y237737D01*
X481006Y238125D01*
X480000Y238258D01*
X478994Y238125D01*
X478056Y237737D01*
X477251Y237119D01*
X476633Y236314D01*
X476245Y235376D01*
X476112Y234370D01*
X476245Y233364D01*
X476633Y232426D01*
X477251Y231621D01*
X478056Y231003D01*
X478994Y230615D01*
X480000Y230483D01*
X481006Y230615D01*
X481944Y231003D01*
X482461Y231400D01*
X482961Y231153D01*
Y227587D01*
X482461Y227340D01*
X481944Y227737D01*
X481006Y228125D01*
X480000Y228258D01*
X478994Y228125D01*
X478056Y227737D01*
X477251Y227119D01*
X476633Y226314D01*
X476245Y225376D01*
X476112Y224370D01*
X476245Y223364D01*
X476633Y222426D01*
X477251Y221621D01*
X478056Y221003D01*
X478994Y220615D01*
X480000Y220482D01*
X481006Y220615D01*
X481944Y221003D01*
X482461Y221400D01*
X482961Y221153D01*
Y220215D01*
X480887Y218141D01*
X480000Y218258D01*
X478994Y218125D01*
X478056Y217737D01*
X477251Y217119D01*
X476633Y216314D01*
X476566Y216151D01*
X476058Y215812D01*
X470655Y210409D01*
X462073D01*
X461974Y210909D01*
X461993Y210917D01*
X462819Y211551D01*
X463453Y212377D01*
X463851Y213338D01*
X463921Y213870D01*
X456079D01*
X456149Y213338D01*
X456547Y212377D01*
X457181Y211551D01*
X458007Y210917D01*
X458026Y210909D01*
X457927Y210409D01*
X452073D01*
X451974Y210909D01*
X451993Y210917D01*
X452819Y211551D01*
X453453Y212377D01*
X453851Y213338D01*
X453987Y214370D01*
X453851Y215402D01*
X453453Y216364D01*
X453387Y216450D01*
X468653Y231716D01*
X469007Y232246D01*
X469131Y232870D01*
Y245870D01*
X469007Y246494D01*
X468653Y247024D01*
X462153Y253524D01*
X461624Y253877D01*
X461000Y254001D01*
X365000D01*
X364376Y253877D01*
X363846Y253524D01*
X345847Y235524D01*
X345493Y234994D01*
X345369Y234370D01*
Y196046D01*
X330324Y181001D01*
X327646D01*
X327477Y181501D01*
X327698Y181672D01*
X328305Y182462D01*
X328686Y183382D01*
X328816Y184370D01*
X328686Y185358D01*
X328305Y186278D01*
X327698Y187068D01*
X326908Y187675D01*
X325988Y188056D01*
X325000Y188186D01*
X324012Y188056D01*
X323092Y187675D01*
X322515Y187232D01*
X322015Y187479D01*
Y191261D01*
X322515Y191508D01*
X323092Y191065D01*
X324012Y190684D01*
X325000Y190554D01*
X325988Y190684D01*
X326908Y191065D01*
X327698Y191672D01*
X328305Y192462D01*
X328686Y193382D01*
X328816Y194370D01*
X328686Y195358D01*
X328305Y196278D01*
X327698Y197069D01*
X326908Y197675D01*
X325988Y198056D01*
X325000Y198186D01*
X324012Y198056D01*
X323092Y197675D01*
X322515Y197232D01*
X322015Y197479D01*
Y201261D01*
X322515Y201508D01*
X323092Y201065D01*
X324012Y200684D01*
X324500Y200620D01*
Y204370D01*
Y208120D01*
X324012Y208056D01*
X323092Y207675D01*
X322515Y207232D01*
X322015Y207479D01*
Y211261D01*
X322515Y211508D01*
X323092Y211065D01*
X324012Y210684D01*
X325000Y210554D01*
X325988Y210684D01*
X326908Y211065D01*
X327698Y211672D01*
X328305Y212462D01*
X328686Y213382D01*
X328816Y214370D01*
X328686Y215358D01*
X328305Y216278D01*
X327698Y217069D01*
X326908Y217675D01*
X325988Y218056D01*
X325000Y218186D01*
X324012Y218056D01*
X323092Y217675D01*
X322515Y217232D01*
X322015Y217479D01*
Y242812D01*
X322515Y242967D01*
X323252Y242401D01*
X324228Y241997D01*
X325276Y241859D01*
X326323Y241997D01*
X327299Y242401D01*
X328137Y243044D01*
X328780Y243882D01*
X329184Y244858D01*
X329322Y245905D01*
X329184Y246953D01*
X328780Y247929D01*
X328137Y248767D01*
X327299Y249410D01*
X326323Y249814D01*
X325276Y249952D01*
X324228Y249814D01*
X323252Y249410D01*
X322515Y248844D01*
X322015Y248999D01*
Y252812D01*
X322515Y252967D01*
X323252Y252401D01*
X324228Y251997D01*
X325276Y251859D01*
X326323Y251997D01*
X327299Y252401D01*
X328137Y253044D01*
X328780Y253882D01*
X329184Y254858D01*
X329322Y255906D01*
X329184Y256953D01*
X328780Y257929D01*
X328137Y258767D01*
X327299Y259410D01*
X326323Y259814D01*
X325276Y259952D01*
X324228Y259814D01*
X323252Y259410D01*
X322515Y258844D01*
X322015Y258999D01*
Y259139D01*
X321879Y259822D01*
X321493Y260401D01*
X318262Y263632D01*
X317683Y264019D01*
X317000Y264154D01*
X312739D01*
X306025Y270869D01*
X306216Y271331D01*
X310155D01*
X311141Y270345D01*
X311013Y269370D01*
X311149Y268338D01*
X311547Y267377D01*
X312181Y266551D01*
X313007Y265917D01*
X313968Y265519D01*
X315000Y265383D01*
X315975Y265511D01*
X316058Y265428D01*
X316720Y264986D01*
X317500Y264831D01*
X337500D01*
X338280Y264986D01*
X338942Y265428D01*
X342592Y269078D01*
X343053Y268832D01*
X342961Y268370D01*
Y257788D01*
X342181Y257189D01*
X341547Y256364D01*
X341149Y255402D01*
X341013Y254370D01*
X341149Y253338D01*
X341547Y252377D01*
X342181Y251551D01*
X343007Y250917D01*
X343968Y250519D01*
X345000Y250383D01*
X346032Y250519D01*
X346993Y250917D01*
X347819Y251551D01*
X348453Y252377D01*
X348851Y253338D01*
X348987Y254370D01*
X348851Y255402D01*
X348453Y256364D01*
X347819Y257189D01*
X347039Y257788D01*
Y267525D01*
X352845Y273331D01*
X473155D01*
X482961Y263525D01*
D02*
G37*
G36*
X512961D02*
Y247587D01*
X512461Y247340D01*
X511944Y247737D01*
X511006Y248125D01*
X510000Y248258D01*
X508994Y248125D01*
X508056Y247737D01*
X507251Y247119D01*
X506633Y246314D01*
X506245Y245376D01*
X506112Y244370D01*
X506245Y243364D01*
X506633Y242426D01*
X507251Y241621D01*
X508056Y241003D01*
X508994Y240615D01*
X510000Y240482D01*
X511006Y240615D01*
X511944Y241003D01*
X512461Y241400D01*
X512961Y241154D01*
Y237587D01*
X512461Y237340D01*
X511944Y237737D01*
X511006Y238125D01*
X510000Y238258D01*
X508994Y238125D01*
X508056Y237737D01*
X507251Y237119D01*
X506633Y236314D01*
X506245Y235376D01*
X506112Y234370D01*
X506245Y233364D01*
X506633Y232426D01*
X507251Y231621D01*
X508056Y231003D01*
X508994Y230615D01*
X510000Y230483D01*
X511006Y230615D01*
X511944Y231003D01*
X512461Y231400D01*
X512961Y231153D01*
Y227587D01*
X512461Y227340D01*
X511944Y227737D01*
X511006Y228125D01*
X510000Y228258D01*
X508994Y228125D01*
X508056Y227737D01*
X507251Y227119D01*
X506633Y226314D01*
X506245Y225376D01*
X506112Y224370D01*
X506245Y223364D01*
X506633Y222426D01*
X507251Y221621D01*
X508056Y221003D01*
X508994Y220615D01*
X510000Y220482D01*
X511006Y220615D01*
X511944Y221003D01*
X512461Y221400D01*
X512961Y221153D01*
Y220215D01*
X510887Y218141D01*
X510000Y218258D01*
X508994Y218125D01*
X508056Y217737D01*
X507251Y217119D01*
X506706Y216409D01*
X490000D01*
X489220Y216254D01*
X488558Y215812D01*
X484155Y211409D01*
X483217D01*
X482970Y211909D01*
X483367Y212426D01*
X483755Y213364D01*
X483888Y214370D01*
X483771Y215257D01*
X486442Y217928D01*
X486884Y218590D01*
X487039Y219370D01*
Y264370D01*
X486884Y265150D01*
X486442Y265812D01*
X476385Y275869D01*
X476576Y276331D01*
X500155D01*
X512961Y263525D01*
D02*
G37*
G36*
X433345Y250239D02*
X424261Y241154D01*
X423539D01*
X423453Y241364D01*
X422819Y242189D01*
X421993Y242823D01*
X421032Y243221D01*
X420000Y243357D01*
X418968Y243221D01*
X418007Y242823D01*
X417181Y242189D01*
X416547Y241364D01*
X416461Y241154D01*
X415739D01*
X406655Y250239D01*
X406862Y250739D01*
X433138D01*
X433345Y250239D01*
D02*
G37*
G36*
X397184Y247316D02*
X397226Y247086D01*
X396633Y246314D01*
X396245Y245376D01*
X396112Y244370D01*
X396245Y243364D01*
X396633Y242426D01*
X397251Y241621D01*
X397407Y241501D01*
X397237Y241001D01*
X373854D01*
Y247586D01*
X397093D01*
X397184Y247316D01*
D02*
G37*
G36*
X197407Y247239D02*
X197251Y247119D01*
X196633Y246314D01*
X196245Y245376D01*
X196112Y244370D01*
X196245Y243364D01*
X196633Y242426D01*
X197251Y241621D01*
X197407Y241501D01*
X197237Y241001D01*
X173854D01*
Y247739D01*
X197237D01*
X197407Y247239D01*
D02*
G37*
G36*
X166146Y241001D02*
X153603D01*
X153453Y241364D01*
X152819Y242189D01*
X151993Y242823D01*
X151032Y243221D01*
X150000Y243357D01*
X149425Y243281D01*
X149192Y243755D01*
X153176Y247739D01*
X166146D01*
Y241001D01*
D02*
G37*
G36*
X128975Y270869D02*
X108738Y250632D01*
X108352Y250053D01*
X108216Y249370D01*
Y242909D01*
X108007Y242823D01*
X107181Y242189D01*
X106547Y241364D01*
X106149Y240402D01*
X106013Y239370D01*
X106149Y238338D01*
X106547Y237377D01*
X107181Y236551D01*
X108007Y235917D01*
X108216Y235831D01*
Y214745D01*
X107716Y214538D01*
X106442Y215812D01*
X105780Y216254D01*
X105000Y216409D01*
X93294D01*
X92749Y217119D01*
X91944Y217737D01*
X91006Y218125D01*
X90000Y218258D01*
X89113Y218141D01*
X87039Y220215D01*
Y221153D01*
X87539Y221400D01*
X88056Y221003D01*
X88994Y220615D01*
X90000Y220482D01*
X91006Y220615D01*
X91944Y221003D01*
X92749Y221621D01*
X93367Y222426D01*
X93755Y223364D01*
X93888Y224370D01*
X93755Y225376D01*
X93367Y226314D01*
X92749Y227119D01*
X91944Y227737D01*
X91006Y228125D01*
X90000Y228258D01*
X88994Y228125D01*
X88056Y227737D01*
X87539Y227340D01*
X87039Y227587D01*
Y231153D01*
X87539Y231400D01*
X88056Y231003D01*
X88994Y230615D01*
X90000Y230483D01*
X91006Y230615D01*
X91944Y231003D01*
X92749Y231621D01*
X93367Y232426D01*
X93755Y233364D01*
X93888Y234370D01*
X93755Y235376D01*
X93367Y236314D01*
X92749Y237119D01*
X91944Y237737D01*
X91006Y238125D01*
X90000Y238258D01*
X88994Y238125D01*
X88056Y237737D01*
X87539Y237340D01*
X87039Y237587D01*
Y241154D01*
X87539Y241400D01*
X88056Y241003D01*
X88994Y240615D01*
X90000Y240482D01*
X91006Y240615D01*
X91944Y241003D01*
X92749Y241621D01*
X93367Y242426D01*
X93755Y243364D01*
X93888Y244370D01*
X93755Y245376D01*
X93367Y246314D01*
X92749Y247119D01*
X91944Y247737D01*
X91006Y248125D01*
X90000Y248258D01*
X88994Y248125D01*
X88056Y247737D01*
X87539Y247340D01*
X87039Y247587D01*
Y258525D01*
X99845Y271331D01*
X128784D01*
X128975Y270869D01*
D02*
G37*
G36*
X463216Y243631D02*
Y242426D01*
X462716Y242269D01*
X461993Y242823D01*
X461032Y243221D01*
X460000Y243357D01*
X458968Y243221D01*
X458007Y242823D01*
X457181Y242189D01*
X456547Y241364D01*
X456149Y240402D01*
X456013Y239370D01*
X456149Y238338D01*
X456299Y237976D01*
X452324Y234001D01*
X412676D01*
X406153Y240524D01*
X405624Y240877D01*
X405000Y241001D01*
X402763D01*
X402593Y241501D01*
X402749Y241621D01*
X403367Y242426D01*
X403755Y243364D01*
X403888Y244370D01*
X403755Y245376D01*
X403367Y246314D01*
X402774Y247086D01*
X402816Y247316D01*
X402907Y247586D01*
X404261D01*
X413738Y238108D01*
X413738Y238108D01*
X414317Y237722D01*
X415000Y237586D01*
X415000Y237586D01*
X416461D01*
X416547Y237377D01*
X417181Y236551D01*
X418007Y235917D01*
X418968Y235519D01*
X420000Y235383D01*
X421032Y235519D01*
X421993Y235917D01*
X422819Y236551D01*
X423453Y237377D01*
X423539Y237586D01*
X425000D01*
X425683Y237722D01*
X426262Y238108D01*
X435739Y247586D01*
X459261D01*
X463216Y243631D01*
D02*
G37*
G36*
X410409Y231654D02*
X410202Y231154D01*
X402907D01*
X402816Y231424D01*
X402774Y231654D01*
X403367Y232426D01*
X403755Y233364D01*
X403888Y234370D01*
X403755Y235376D01*
X403367Y236314D01*
X402749Y237119D01*
X402593Y237239D01*
X402763Y237739D01*
X404324D01*
X410409Y231654D01*
D02*
G37*
G36*
X397407Y237239D02*
X397251Y237119D01*
X396633Y236314D01*
X396245Y235376D01*
X396112Y234370D01*
X396245Y233364D01*
X396633Y232426D01*
X397226Y231654D01*
X397184Y231424D01*
X397093Y231154D01*
X372907D01*
X372816Y231424D01*
X372774Y231654D01*
X373367Y232426D01*
X373755Y233364D01*
X373888Y234370D01*
X373755Y235376D01*
X373367Y236314D01*
X372749Y237119D01*
X372593Y237239D01*
X372763Y237739D01*
X397237D01*
X397407Y237239D01*
D02*
G37*
G36*
X197407D02*
X197251Y237119D01*
X196633Y236314D01*
X196245Y235376D01*
X196112Y234370D01*
X196245Y233364D01*
X196633Y232426D01*
X197226Y231654D01*
X197184Y231424D01*
X197093Y231154D01*
X172907D01*
X172816Y231424D01*
X172774Y231654D01*
X173367Y232426D01*
X173755Y233364D01*
X173888Y234370D01*
X173755Y235376D01*
X173367Y236314D01*
X172749Y237119D01*
X172593Y237239D01*
X172763Y237739D01*
X197237D01*
X197407Y237239D01*
D02*
G37*
G36*
X397184Y227316D02*
X397226Y227086D01*
X396633Y226314D01*
X396245Y225376D01*
X396112Y224370D01*
X396245Y223364D01*
X396633Y222426D01*
X397030Y221909D01*
X396783Y221409D01*
X375000D01*
X374220Y221254D01*
X373558Y220812D01*
X370887Y218141D01*
X370000Y218258D01*
X368994Y218125D01*
X368056Y217737D01*
X367251Y217119D01*
X366633Y216314D01*
X366245Y215376D01*
X366112Y214370D01*
X366245Y213364D01*
X366633Y212426D01*
X367251Y211621D01*
X368056Y211003D01*
X368994Y210615D01*
X370000Y210483D01*
X371006Y210615D01*
X371944Y211003D01*
X372749Y211621D01*
X373367Y212426D01*
X373755Y213364D01*
X373888Y214370D01*
X373771Y215257D01*
X375845Y217331D01*
X396783D01*
X397030Y216831D01*
X396633Y216314D01*
X396245Y215376D01*
X396112Y214370D01*
X396245Y213364D01*
X396633Y212426D01*
X397251Y211621D01*
X398056Y211003D01*
X398994Y210615D01*
X400000Y210483D01*
X401006Y210615D01*
X401944Y211003D01*
X402749Y211621D01*
X403367Y212426D01*
X403434Y212589D01*
X403942Y212928D01*
X412345Y221331D01*
X434155D01*
X437961Y217525D01*
Y211870D01*
X438116Y211090D01*
X438558Y210428D01*
X445058Y203928D01*
X445720Y203486D01*
X446500Y203331D01*
X473500D01*
X474280Y203486D01*
X474942Y203928D01*
X475673Y204659D01*
X476121Y204438D01*
X476112Y204370D01*
X476245Y203364D01*
X476633Y202426D01*
X477226Y201654D01*
X477184Y201424D01*
X477093Y201154D01*
X425000D01*
X425000Y201154D01*
X424317Y201019D01*
X423738Y200632D01*
X423738Y200632D01*
X421241Y198135D01*
X421032Y198221D01*
X420000Y198357D01*
X418968Y198221D01*
X418759Y198135D01*
X416262Y200632D01*
X415683Y201019D01*
X415000Y201154D01*
X402907D01*
X402816Y201424D01*
X402774Y201654D01*
X403367Y202426D01*
X403755Y203364D01*
X403888Y204370D01*
X403755Y205376D01*
X403367Y206314D01*
X402749Y207119D01*
X401944Y207737D01*
X401006Y208125D01*
X400000Y208258D01*
X398994Y208125D01*
X398056Y207737D01*
X397251Y207119D01*
X396633Y206314D01*
X396245Y205376D01*
X396112Y204370D01*
X396245Y203364D01*
X396633Y202426D01*
X397226Y201654D01*
X397184Y201424D01*
X397093Y201154D01*
X372907D01*
X372816Y201424D01*
X372774Y201654D01*
X373367Y202426D01*
X373755Y203364D01*
X373822Y203870D01*
X370000D01*
X366048D01*
X365697Y203697D01*
X364784Y204609D01*
Y224131D01*
X365697Y225044D01*
X366170Y224810D01*
X366112Y224370D01*
X366245Y223364D01*
X366633Y222426D01*
X367251Y221621D01*
X368056Y221003D01*
X368994Y220615D01*
X370000Y220482D01*
X371006Y220615D01*
X371944Y221003D01*
X372749Y221621D01*
X373367Y222426D01*
X373755Y223364D01*
X373888Y224370D01*
X373755Y225376D01*
X373367Y226314D01*
X372774Y227086D01*
X372816Y227316D01*
X372907Y227586D01*
X397093D01*
X397184Y227316D01*
D02*
G37*
G36*
X459447Y227124D02*
X450601Y218278D01*
X450000Y218357D01*
X448968Y218221D01*
X448007Y217823D01*
X447181Y217189D01*
X446547Y216364D01*
X446149Y215402D01*
X446022Y214439D01*
X445590Y214164D01*
X445039Y214715D01*
Y220370D01*
X444884Y221150D01*
X444442Y221812D01*
X439130Y227124D01*
X439321Y227586D01*
X459255D01*
X459447Y227124D01*
D02*
G37*
G36*
X197184Y227316D02*
X197226Y227086D01*
X196633Y226314D01*
X196245Y225376D01*
X196112Y224370D01*
X196245Y223364D01*
X196633Y222426D01*
X197251Y221621D01*
X198056Y221003D01*
X198994Y220615D01*
X200000Y220482D01*
X201006Y220615D01*
X201944Y221003D01*
X202749Y221621D01*
X203367Y222426D01*
X203755Y223364D01*
X203888Y224370D01*
X203830Y224810D01*
X204303Y225044D01*
X205716Y223631D01*
Y215109D01*
X204303Y213697D01*
X203830Y213930D01*
X203888Y214370D01*
X203755Y215376D01*
X203367Y216314D01*
X202749Y217119D01*
X201944Y217737D01*
X201006Y218125D01*
X200000Y218258D01*
X198994Y218125D01*
X198056Y217737D01*
X197251Y217119D01*
X196706Y216409D01*
X183345D01*
X178942Y220812D01*
X178280Y221254D01*
X177500Y221409D01*
X173217D01*
X172970Y221909D01*
X173367Y222426D01*
X173755Y223364D01*
X173888Y224370D01*
X173755Y225376D01*
X173367Y226314D01*
X172774Y227086D01*
X172816Y227316D01*
X172907Y227586D01*
X197093D01*
X197184Y227316D01*
D02*
G37*
G36*
X181058Y212928D02*
X181720Y212486D01*
X182500Y212331D01*
X196706D01*
X197226Y211654D01*
X197184Y211424D01*
X197093Y211154D01*
X172907D01*
X172816Y211424D01*
X172774Y211654D01*
X173367Y212426D01*
X173755Y213364D01*
X173888Y214370D01*
X173755Y215376D01*
X173367Y216314D01*
X172970Y216831D01*
X173217Y217331D01*
X176655D01*
X181058Y212928D01*
D02*
G37*
G36*
X507251Y211621D02*
X508056Y211003D01*
X508994Y210615D01*
X510000Y210483D01*
X510887Y210599D01*
X512961Y208525D01*
Y207587D01*
X512461Y207340D01*
X511944Y207737D01*
X511006Y208125D01*
X510000Y208258D01*
X508994Y208125D01*
X508056Y207737D01*
X507251Y207119D01*
X506633Y206314D01*
X506245Y205376D01*
X506112Y204370D01*
X506245Y203364D01*
X506633Y202426D01*
X507251Y201621D01*
X508056Y201003D01*
X508994Y200615D01*
X510000Y200483D01*
X511006Y200615D01*
X511944Y201003D01*
X512461Y201400D01*
X512961Y201153D01*
Y197587D01*
X512461Y197340D01*
X511944Y197737D01*
X511006Y198125D01*
X510000Y198258D01*
X508994Y198125D01*
X508056Y197737D01*
X507539Y197340D01*
X507039Y197587D01*
Y199370D01*
X506884Y200150D01*
X506442Y200812D01*
X501442Y205812D01*
X500780Y206254D01*
X500000Y206409D01*
X498418D01*
X497819Y207189D01*
X496993Y207823D01*
X496032Y208221D01*
X495000Y208357D01*
X493968Y208221D01*
X493007Y207823D01*
X492181Y207189D01*
X491547Y206364D01*
X491149Y205402D01*
X491013Y204370D01*
X491149Y203338D01*
X491547Y202377D01*
X492181Y201551D01*
X493007Y200917D01*
X493968Y200519D01*
X495000Y200383D01*
X496032Y200519D01*
X496993Y200917D01*
X497819Y201551D01*
X498418Y202331D01*
X499155D01*
X502961Y198525D01*
Y110215D01*
X489155Y96409D01*
X483294D01*
X482749Y97119D01*
X481944Y97737D01*
X481006Y98125D01*
X480000Y98258D01*
X479113Y98141D01*
X470130Y107124D01*
X470321Y107586D01*
X477093D01*
X477184Y107316D01*
X477226Y107086D01*
X476633Y106314D01*
X476245Y105376D01*
X476112Y104370D01*
X476245Y103364D01*
X476633Y102426D01*
X477251Y101621D01*
X478056Y101003D01*
X478994Y100615D01*
X480000Y100482D01*
X481006Y100615D01*
X481944Y101003D01*
X482749Y101621D01*
X483367Y102426D01*
X483755Y103364D01*
X483888Y104370D01*
X483755Y105376D01*
X483367Y106314D01*
X482774Y107086D01*
X482816Y107316D01*
X482907Y107586D01*
X485000D01*
X485683Y107722D01*
X486262Y108108D01*
X496262Y118108D01*
X496262Y118108D01*
X496649Y118687D01*
X496784Y119370D01*
X496784Y119370D01*
Y189370D01*
X496784Y189370D01*
X496649Y190053D01*
X496262Y190632D01*
X496262Y190632D01*
X486262Y200632D01*
X485683Y201019D01*
X485000Y201154D01*
X482907D01*
X482816Y201424D01*
X482774Y201654D01*
X483367Y202426D01*
X483755Y203364D01*
X483888Y204370D01*
X483755Y205376D01*
X483367Y206314D01*
X482970Y206831D01*
X483217Y207331D01*
X485000D01*
X485780Y207486D01*
X486442Y207928D01*
X490845Y212331D01*
X506706D01*
X507251Y211621D01*
D02*
G37*
G36*
X210869Y231194D02*
Y205046D01*
X206824Y201001D01*
X202763D01*
X202593Y201501D01*
X202749Y201621D01*
X203367Y202426D01*
X203755Y203364D01*
X203888Y204370D01*
X203755Y205376D01*
X203367Y206314D01*
X202749Y207119D01*
X202742Y207124D01*
X202867Y207659D01*
X203183Y207722D01*
X203762Y208108D01*
X208762Y213108D01*
X208762Y213108D01*
X209149Y213687D01*
X209284Y214370D01*
X209284Y214370D01*
Y224370D01*
X209284Y224370D01*
X209149Y225053D01*
X208762Y225632D01*
X208762Y225632D01*
X203762Y230632D01*
X203183Y231018D01*
X202867Y231081D01*
X202742Y231616D01*
X202749Y231621D01*
X203367Y232426D01*
X203755Y233364D01*
X203888Y234370D01*
X203755Y235376D01*
X203367Y236314D01*
X202749Y237119D01*
X202593Y237239D01*
X202763Y237739D01*
X204324D01*
X210869Y231194D01*
D02*
G37*
G36*
X197184Y207316D02*
X197226Y207086D01*
X196633Y206314D01*
X196245Y205376D01*
X196112Y204370D01*
X196245Y203364D01*
X196633Y202426D01*
X197251Y201621D01*
X197407Y201501D01*
X197237Y201001D01*
X172763D01*
X172593Y201501D01*
X172749Y201621D01*
X173367Y202426D01*
X173755Y203364D01*
X173888Y204370D01*
X173755Y205376D01*
X173367Y206314D01*
X172774Y207086D01*
X172816Y207316D01*
X172907Y207586D01*
X197093D01*
X197184Y207316D01*
D02*
G37*
G36*
X86058Y207928D02*
X86720Y207486D01*
X86901Y207450D01*
X87086Y206904D01*
X86633Y206314D01*
X86245Y205376D01*
X86112Y204370D01*
X86245Y203364D01*
X86633Y202426D01*
X87251Y201621D01*
X88056Y201003D01*
X88994Y200615D01*
X90000Y200483D01*
X91006Y200615D01*
X91944Y201003D01*
X92749Y201621D01*
X93367Y202426D01*
X93755Y203364D01*
X93888Y204370D01*
X93755Y205376D01*
X93367Y206314D01*
X92970Y206831D01*
X93217Y207331D01*
X104155D01*
X110558Y200928D01*
X110558Y200928D01*
X111220Y200486D01*
X112000Y200331D01*
X112784D01*
X112976Y199869D01*
X111241Y198135D01*
X111032Y198221D01*
X110000Y198357D01*
X108968Y198221D01*
X108007Y197823D01*
X107181Y197189D01*
X106547Y196363D01*
X106149Y195402D01*
X106013Y194370D01*
X106149Y193338D01*
X106547Y192377D01*
X107181Y191551D01*
X108007Y190917D01*
X108216Y190831D01*
Y122909D01*
X108007Y122823D01*
X107181Y122189D01*
X106547Y121363D01*
X106149Y120402D01*
X106013Y119370D01*
X106149Y118338D01*
X106547Y117377D01*
X107181Y116551D01*
X108007Y115917D01*
X108216Y115831D01*
Y92245D01*
X107716Y92038D01*
X103942Y95812D01*
X103280Y96254D01*
X102500Y96409D01*
X93294D01*
X92749Y97119D01*
X91944Y97737D01*
X91006Y98125D01*
X90000Y98258D01*
X89997Y98257D01*
X87302Y100952D01*
X87633Y101328D01*
X88056Y101003D01*
X88994Y100615D01*
X90000Y100482D01*
X91006Y100615D01*
X91944Y101003D01*
X92749Y101621D01*
X93367Y102426D01*
X93755Y103364D01*
X93888Y104370D01*
X93755Y105376D01*
X93367Y106314D01*
X92749Y107119D01*
X91944Y107737D01*
X91006Y108125D01*
X90000Y108258D01*
X88994Y108125D01*
X88056Y107737D01*
X87251Y107119D01*
X86633Y106314D01*
X86245Y105376D01*
X86112Y104370D01*
X86245Y103364D01*
X86633Y102426D01*
X86958Y102003D01*
X86581Y101672D01*
X82039Y106215D01*
Y200953D01*
X82819Y201551D01*
X83453Y202377D01*
X83851Y203338D01*
X83987Y204370D01*
X83851Y205402D01*
X83453Y206364D01*
X82819Y207189D01*
X81993Y207823D01*
X81032Y208221D01*
X80000Y208357D01*
X78968Y208221D01*
X78007Y207823D01*
X77181Y207189D01*
X76547Y206364D01*
X76149Y205402D01*
X76013Y204370D01*
X76149Y203338D01*
X76547Y202377D01*
X77181Y201551D01*
X77961Y200953D01*
Y105370D01*
X78116Y104590D01*
X78558Y103928D01*
X86498Y95988D01*
X86245Y95376D01*
X86112Y94370D01*
X86245Y93364D01*
X86633Y92426D01*
X87030Y91909D01*
X86783Y91409D01*
X65845D01*
X63771Y93483D01*
X63888Y94370D01*
X63771Y95257D01*
X66442Y97928D01*
X66884Y98590D01*
X67039Y99370D01*
Y209370D01*
X66884Y210151D01*
X66442Y210812D01*
X65385Y211869D01*
X65576Y212331D01*
X81655D01*
X86058Y207928D01*
D02*
G37*
G36*
X493216Y188631D02*
Y120109D01*
X484261Y111154D01*
X482907D01*
X482816Y111424D01*
X482774Y111654D01*
X483367Y112426D01*
X483755Y113364D01*
X483888Y114370D01*
X483755Y115376D01*
X483367Y116314D01*
X482749Y117119D01*
X481944Y117737D01*
X481006Y118125D01*
X480000Y118258D01*
X478994Y118125D01*
X478056Y117737D01*
X477251Y117119D01*
X476633Y116314D01*
X476245Y115376D01*
X476112Y114370D01*
X476245Y113364D01*
X476633Y112426D01*
X477226Y111654D01*
X477184Y111424D01*
X477093Y111154D01*
X454799D01*
X454591Y111654D01*
X458606Y115669D01*
X458968Y115519D01*
X460000Y115383D01*
X461032Y115519D01*
X461993Y115917D01*
X462819Y116551D01*
X463453Y117377D01*
X463851Y118338D01*
X463987Y119370D01*
X463851Y120402D01*
X463701Y120764D01*
X481153Y138216D01*
X481507Y138746D01*
X481631Y139370D01*
Y174370D01*
X481507Y174994D01*
X481153Y175524D01*
X463701Y192976D01*
X463851Y193338D01*
X463987Y194370D01*
X463851Y195402D01*
X463453Y196363D01*
X462898Y197086D01*
X463056Y197586D01*
X477093D01*
X477184Y197316D01*
X477226Y197086D01*
X476633Y196314D01*
X476245Y195376D01*
X476112Y194370D01*
X476245Y193364D01*
X476633Y192426D01*
X477251Y191621D01*
X478056Y191003D01*
X478994Y190615D01*
X480000Y190482D01*
X481006Y190615D01*
X481944Y191003D01*
X482749Y191621D01*
X483367Y192426D01*
X483755Y193364D01*
X483888Y194370D01*
X483755Y195376D01*
X483367Y196314D01*
X482774Y197086D01*
X482816Y197316D01*
X482907Y197586D01*
X484261D01*
X493216Y188631D01*
D02*
G37*
G36*
X457101Y197086D02*
X456547Y196363D01*
X456397Y196001D01*
X432500D01*
X431876Y195877D01*
X431347Y195524D01*
X416824Y181001D01*
X402763D01*
X402593Y181501D01*
X402749Y181621D01*
X403367Y182426D01*
X403755Y183364D01*
X403888Y184370D01*
X403755Y185376D01*
X403367Y186314D01*
X402749Y187119D01*
X401944Y187737D01*
X401631Y187866D01*
Y190874D01*
X401944Y191003D01*
X402749Y191621D01*
X403367Y192426D01*
X403755Y193364D01*
X403888Y194370D01*
X403755Y195376D01*
X403367Y196314D01*
X402774Y197086D01*
X402816Y197316D01*
X402907Y197586D01*
X414261D01*
X416236Y195611D01*
X416149Y195402D01*
X416013Y194370D01*
X416149Y193338D01*
X416547Y192377D01*
X417181Y191551D01*
X418007Y190917D01*
X418968Y190519D01*
X420000Y190383D01*
X421032Y190519D01*
X421993Y190917D01*
X422819Y191551D01*
X423453Y192377D01*
X423851Y193338D01*
X423987Y194370D01*
X423851Y195402D01*
X423764Y195611D01*
X425739Y197586D01*
X456944D01*
X457101Y197086D01*
D02*
G37*
G36*
X318446Y234091D02*
Y188611D01*
X318071Y188282D01*
X317500Y188357D01*
X316786Y188263D01*
X316496Y188729D01*
X316507Y188746D01*
X316631Y189370D01*
Y233267D01*
X316993Y233417D01*
X317819Y234051D01*
X317973Y234251D01*
X318446Y234091D01*
D02*
G37*
G36*
X367407Y237239D02*
X367251Y237119D01*
X366633Y236314D01*
X366245Y235376D01*
X366112Y234370D01*
X366245Y233364D01*
X366633Y232426D01*
X367251Y231621D01*
X367258Y231616D01*
X367133Y231081D01*
X366817Y231018D01*
X366238Y230632D01*
X361738Y226132D01*
X361351Y225553D01*
X361216Y224870D01*
Y203870D01*
X361351Y203187D01*
X361738Y202608D01*
X366238Y198108D01*
X366817Y197722D01*
X367133Y197659D01*
X367258Y197124D01*
X367251Y197119D01*
X366633Y196314D01*
X366245Y195376D01*
X366112Y194370D01*
X366245Y193364D01*
X366633Y192426D01*
X367251Y191621D01*
X368056Y191003D01*
X368994Y190615D01*
X370000Y190482D01*
X371006Y190615D01*
X371944Y191003D01*
X372749Y191621D01*
X373367Y192426D01*
X373755Y193364D01*
X373888Y194370D01*
X373755Y195376D01*
X373367Y196314D01*
X372774Y197086D01*
X372816Y197316D01*
X372907Y197586D01*
X397093D01*
X397184Y197316D01*
X397226Y197086D01*
X396633Y196314D01*
X396245Y195376D01*
X396112Y194370D01*
X396245Y193364D01*
X396633Y192426D01*
X397251Y191621D01*
X398056Y191003D01*
X398369Y190874D01*
Y187866D01*
X398056Y187737D01*
X397251Y187119D01*
X396633Y186314D01*
X396245Y185376D01*
X396112Y184370D01*
X396245Y183364D01*
X396633Y182426D01*
X397251Y181621D01*
X397407Y181501D01*
X397237Y181001D01*
X372763D01*
X372593Y181501D01*
X372749Y181621D01*
X373367Y182426D01*
X373755Y183364D01*
X373888Y184370D01*
X373755Y185376D01*
X373367Y186314D01*
X372749Y187119D01*
X371944Y187737D01*
X371006Y188125D01*
X370000Y188258D01*
X368994Y188125D01*
X368056Y187737D01*
X367251Y187119D01*
X366633Y186314D01*
X366245Y185376D01*
X366112Y184370D01*
X366245Y183364D01*
X366633Y182426D01*
X367251Y181621D01*
X367407Y181501D01*
X367237Y181001D01*
X363176D01*
X354131Y190046D01*
Y231194D01*
X360676Y237739D01*
X367237D01*
X367407Y237239D01*
D02*
G37*
G36*
X253369Y242694D02*
Y157973D01*
X253007Y157823D01*
X252181Y157189D01*
X252105Y157090D01*
X251631Y157251D01*
Y243724D01*
X252131Y243932D01*
X253369Y242694D01*
D02*
G37*
G36*
X508056Y181003D02*
X508994Y180615D01*
X510000Y180482D01*
X511006Y180615D01*
X511944Y181003D01*
X512461Y181400D01*
X512961Y181154D01*
Y127587D01*
X512461Y127340D01*
X511944Y127737D01*
X511006Y128125D01*
X510000Y128258D01*
X508994Y128125D01*
X508056Y127737D01*
X507539Y127340D01*
X507039Y127587D01*
Y181154D01*
X507539Y181400D01*
X508056Y181003D01*
D02*
G37*
G36*
X147101Y197086D02*
X146547Y196363D01*
X146397Y196001D01*
X120000D01*
X119376Y195877D01*
X118846Y195524D01*
X113847Y190524D01*
X113493Y189994D01*
X113369Y189370D01*
Y122251D01*
X112895Y122090D01*
X112819Y122189D01*
X111993Y122823D01*
X111784Y122909D01*
Y190831D01*
X111993Y190917D01*
X112819Y191551D01*
X113453Y192377D01*
X113851Y193338D01*
X113987Y194370D01*
X113851Y195402D01*
X113764Y195611D01*
X115739Y197586D01*
X146944D01*
X147101Y197086D01*
D02*
G37*
G36*
X434409Y111654D02*
X434201Y111154D01*
X431739D01*
X423933Y118960D01*
X423987Y119370D01*
X423851Y120402D01*
X423453Y121363D01*
X422819Y122189D01*
X421993Y122823D01*
X421032Y123221D01*
X420000Y123357D01*
X418968Y123221D01*
X418007Y122823D01*
X417181Y122189D01*
X416547Y121363D01*
X416461Y121154D01*
X415000D01*
X415000Y121154D01*
X414317Y121019D01*
X413738Y120632D01*
X413738Y120632D01*
X404261Y111154D01*
X402907D01*
X402816Y111424D01*
X402774Y111654D01*
X403367Y112426D01*
X403755Y113364D01*
X403888Y114370D01*
X403755Y115376D01*
X403367Y116314D01*
X402749Y117119D01*
X401944Y117737D01*
X401006Y118125D01*
X400000Y118258D01*
X398994Y118125D01*
X398056Y117737D01*
X397251Y117119D01*
X396633Y116314D01*
X396245Y115376D01*
X396112Y114370D01*
X396245Y113364D01*
X396633Y112426D01*
X397226Y111654D01*
X397184Y111424D01*
X397093Y111154D01*
X372907D01*
X372816Y111424D01*
X372774Y111654D01*
X373367Y112426D01*
X373755Y113364D01*
X373888Y114370D01*
X373755Y115376D01*
X373367Y116314D01*
X372749Y117119D01*
X371944Y117737D01*
X371006Y118125D01*
X370000Y118258D01*
X368994Y118125D01*
X368056Y117737D01*
X367251Y117119D01*
X366633Y116314D01*
X366245Y115376D01*
X366112Y114370D01*
X366245Y113364D01*
X366633Y112426D01*
X367251Y111621D01*
X367258Y111616D01*
X367133Y111081D01*
X366817Y111019D01*
X366238Y110632D01*
X366238Y110632D01*
X361238Y105632D01*
X360852Y105053D01*
X360716Y104370D01*
Y84370D01*
X360852Y83687D01*
X361238Y83108D01*
X366238Y78108D01*
X366238Y78108D01*
X366817Y77722D01*
X367133Y77659D01*
X367258Y77124D01*
X367251Y77119D01*
X366633Y76314D01*
X366245Y75376D01*
X366112Y74370D01*
X366245Y73364D01*
X366633Y72426D01*
X367251Y71621D01*
X368056Y71003D01*
X368994Y70615D01*
X370000Y70482D01*
X371006Y70615D01*
X371944Y71003D01*
X372749Y71621D01*
X373367Y72426D01*
X373755Y73364D01*
X373888Y74370D01*
X373755Y75376D01*
X373367Y76314D01*
X372774Y77086D01*
X372816Y77316D01*
X372907Y77586D01*
X397093D01*
X397184Y77316D01*
X397226Y77086D01*
X396633Y76314D01*
X396245Y75376D01*
X396112Y74370D01*
X396245Y73364D01*
X396633Y72426D01*
X397251Y71621D01*
X398056Y71003D01*
X398369Y70874D01*
Y67866D01*
X398056Y67737D01*
X397251Y67119D01*
X396633Y66314D01*
X396245Y65376D01*
X396112Y64370D01*
X396245Y63364D01*
X396633Y62426D01*
X397251Y61621D01*
X397407Y61501D01*
X397237Y61001D01*
X372763D01*
X372593Y61501D01*
X372749Y61621D01*
X373367Y62426D01*
X373755Y63364D01*
X373888Y64370D01*
X373755Y65376D01*
X373367Y66314D01*
X372749Y67119D01*
X371944Y67737D01*
X371006Y68125D01*
X370000Y68258D01*
X368994Y68125D01*
X368056Y67737D01*
X367251Y67119D01*
X366633Y66314D01*
X366245Y65376D01*
X366112Y64370D01*
X366203Y63681D01*
X365729Y63448D01*
X355654Y73524D01*
X355124Y73877D01*
X354500Y74001D01*
X336810D01*
X336487Y74370D01*
X336351Y75402D01*
X335953Y76363D01*
X335319Y77189D01*
X334493Y77823D01*
X334131Y77973D01*
Y108694D01*
X353176Y127739D01*
X366146D01*
Y120516D01*
X373854D01*
Y127739D01*
X397237D01*
X397407Y127239D01*
X397251Y127119D01*
X396633Y126314D01*
X396245Y125376D01*
X396112Y124370D01*
X396245Y123364D01*
X396633Y122426D01*
X397251Y121621D01*
X398056Y121003D01*
X398994Y120615D01*
X400000Y120483D01*
X401006Y120615D01*
X401944Y121003D01*
X402749Y121621D01*
X403367Y122426D01*
X403755Y123364D01*
X403888Y124370D01*
X403755Y125376D01*
X403367Y126314D01*
X402749Y127119D01*
X402593Y127239D01*
X402763Y127739D01*
X418324D01*
X434409Y111654D01*
D02*
G37*
G36*
X197407Y117239D02*
X197251Y117119D01*
X196633Y116314D01*
X196245Y115376D01*
X196112Y114370D01*
X196245Y113364D01*
X196633Y112426D01*
X197226Y111654D01*
X197184Y111424D01*
X197093Y111154D01*
X172907D01*
X172816Y111424D01*
X172774Y111654D01*
X173367Y112426D01*
X173755Y113364D01*
X173888Y114370D01*
X173755Y115376D01*
X173367Y116314D01*
X172749Y117119D01*
X172593Y117239D01*
X172763Y117739D01*
X197237D01*
X197407Y117239D01*
D02*
G37*
G36*
X508056Y111003D02*
X508994Y110615D01*
X510000Y110483D01*
X511006Y110615D01*
X511944Y111003D01*
X512461Y111400D01*
X512961Y111153D01*
Y107587D01*
X512461Y107340D01*
X511944Y107737D01*
X511006Y108125D01*
X510000Y108258D01*
X508994Y108125D01*
X508056Y107737D01*
X507251Y107119D01*
X506633Y106314D01*
X506245Y105376D01*
X506112Y104370D01*
X506245Y103364D01*
X506633Y102426D01*
X507251Y101621D01*
X508056Y101003D01*
X508994Y100615D01*
X510000Y100482D01*
X511006Y100615D01*
X511944Y101003D01*
X512461Y101400D01*
X512961Y101154D01*
Y100215D01*
X510887Y98141D01*
X510000Y98258D01*
X508994Y98125D01*
X508056Y97737D01*
X507251Y97119D01*
X506633Y96314D01*
X506245Y95376D01*
X506112Y94370D01*
X506229Y93483D01*
X504155Y91409D01*
X483217D01*
X482970Y91909D01*
X483294Y92331D01*
X490000D01*
X490780Y92486D01*
X491442Y92928D01*
X506442Y107928D01*
X506884Y108590D01*
X507039Y109370D01*
Y111153D01*
X507539Y111400D01*
X508056Y111003D01*
D02*
G37*
G36*
X416547Y117377D02*
X417181Y116551D01*
X418007Y115917D01*
X418968Y115519D01*
X420000Y115383D01*
X421032Y115519D01*
X421948Y115899D01*
X428975Y108871D01*
X428784Y108409D01*
X412000D01*
X411220Y108254D01*
X410558Y107812D01*
X410558Y107812D01*
X404155Y101409D01*
X403217D01*
X402970Y101909D01*
X403367Y102426D01*
X403755Y103364D01*
X403888Y104370D01*
X403755Y105376D01*
X403367Y106314D01*
X402774Y107086D01*
X402816Y107316D01*
X402907Y107586D01*
X405000D01*
X405683Y107722D01*
X406262Y108108D01*
X415739Y117586D01*
X416461D01*
X416547Y117377D01*
D02*
G37*
G36*
X167407Y117239D02*
X167251Y117119D01*
X166633Y116314D01*
X166245Y115376D01*
X166112Y114370D01*
X166245Y113364D01*
X166633Y112426D01*
X167251Y111621D01*
X167401Y111506D01*
X167263Y110982D01*
X166738Y110632D01*
X166738Y110632D01*
X156617Y100511D01*
X156229Y100830D01*
X156507Y101246D01*
X156631Y101870D01*
Y114370D01*
X156507Y114994D01*
X156154Y115524D01*
X154400Y117277D01*
X154592Y117739D01*
X167237D01*
X167407Y117239D01*
D02*
G37*
G36*
X113369Y116489D02*
Y91870D01*
X113403Y91698D01*
X112942Y91451D01*
X111784Y92609D01*
Y115831D01*
X111993Y115917D01*
X112819Y116551D01*
X112895Y116650D01*
X113369Y116489D01*
D02*
G37*
G36*
X166126Y104266D02*
X166245Y103364D01*
X166633Y102426D01*
X167086Y101837D01*
X166901Y101290D01*
X166720Y101254D01*
X166058Y100812D01*
X166058Y100812D01*
X156655Y91409D01*
X153115D01*
X152964Y91909D01*
X153262Y92108D01*
X165675Y104522D01*
X166126Y104266D01*
D02*
G37*
G36*
X197184Y107316D02*
X197226Y107086D01*
X196633Y106314D01*
X196245Y105376D01*
X196112Y104370D01*
X196245Y103364D01*
X196633Y102426D01*
X197251Y101621D01*
X198056Y101003D01*
X198994Y100615D01*
X200000Y100482D01*
X201006Y100615D01*
X201944Y101003D01*
X202749Y101621D01*
X203367Y102426D01*
X203755Y103364D01*
X203888Y104370D01*
X203830Y104810D01*
X204303Y105043D01*
X205716Y103631D01*
Y85109D01*
X204303Y83697D01*
X203830Y83930D01*
X203888Y84370D01*
X203755Y85376D01*
X203367Y86314D01*
X202749Y87119D01*
X201944Y87737D01*
X201006Y88125D01*
X200000Y88258D01*
X198994Y88125D01*
X198056Y87737D01*
X197251Y87119D01*
X196633Y86314D01*
X196245Y85376D01*
X196112Y84370D01*
X196245Y83364D01*
X196633Y82426D01*
X197226Y81654D01*
X197184Y81424D01*
X197093Y81154D01*
X172907D01*
X172816Y81424D01*
X172774Y81654D01*
X173367Y82426D01*
X173755Y83364D01*
X173888Y84370D01*
X173755Y85376D01*
X173367Y86314D01*
X172749Y87119D01*
X171944Y87737D01*
X171006Y88125D01*
X170000Y88258D01*
X168994Y88125D01*
X168056Y87737D01*
X167251Y87119D01*
X166633Y86314D01*
X166245Y85376D01*
X166112Y84370D01*
X166245Y83364D01*
X166633Y82426D01*
X167226Y81654D01*
X167184Y81424D01*
X167093Y81154D01*
X147875D01*
X147668Y81654D01*
X148345Y82331D01*
X160000D01*
X160780Y82486D01*
X161442Y82928D01*
X169113Y90599D01*
X170000Y90482D01*
X171006Y90615D01*
X171944Y91003D01*
X172749Y91621D01*
X173367Y92426D01*
X173755Y93364D01*
X173888Y94370D01*
X173755Y95376D01*
X173367Y96314D01*
X172970Y96831D01*
X173217Y97331D01*
X194155D01*
X196229Y95257D01*
X196112Y94370D01*
X196245Y93364D01*
X196633Y92426D01*
X197251Y91621D01*
X198056Y91003D01*
X198994Y90615D01*
X200000Y90482D01*
X201006Y90615D01*
X201944Y91003D01*
X202749Y91621D01*
X203367Y92426D01*
X203755Y93364D01*
X203888Y94370D01*
X203755Y95376D01*
X203367Y96314D01*
X202749Y97119D01*
X201944Y97737D01*
X201006Y98125D01*
X200000Y98258D01*
X199113Y98141D01*
X196442Y100812D01*
X195780Y101254D01*
X195000Y101409D01*
X173217D01*
X172970Y101909D01*
X173367Y102426D01*
X173755Y103364D01*
X173888Y104370D01*
X173755Y105376D01*
X173367Y106314D01*
X172774Y107086D01*
X172816Y107316D01*
X172907Y107586D01*
X197093D01*
X197184Y107316D01*
D02*
G37*
G36*
X307181Y101551D02*
X308007Y100917D01*
X308369Y100767D01*
Y80016D01*
X307869Y79808D01*
X306631Y81046D01*
Y84370D01*
Y101489D01*
X307105Y101650D01*
X307181Y101551D01*
D02*
G37*
G36*
X167184Y77316D02*
X167226Y77086D01*
X166633Y76314D01*
X166245Y75376D01*
X166112Y74370D01*
X166203Y73681D01*
X165729Y73448D01*
X163654Y75524D01*
X163124Y75877D01*
X162500Y76001D01*
X153603Y76001D01*
X153453Y76363D01*
X152899Y77086D01*
X153056Y77586D01*
X167093D01*
X167184Y77316D01*
D02*
G37*
G36*
X210869Y113694D02*
Y77546D01*
X204324Y71001D01*
X202763D01*
X202593Y71501D01*
X202749Y71621D01*
X203367Y72426D01*
X203755Y73364D01*
X203888Y74370D01*
X203755Y75376D01*
X203367Y76314D01*
X202749Y77119D01*
X202742Y77124D01*
X202867Y77659D01*
X203183Y77722D01*
X203762Y78108D01*
X208762Y83108D01*
X208762Y83108D01*
X209149Y83687D01*
X209284Y84370D01*
X209284Y84370D01*
Y104370D01*
X209284Y104370D01*
X209149Y105053D01*
X208762Y105632D01*
X208762Y105632D01*
X203762Y110632D01*
X203183Y111019D01*
X202867Y111081D01*
X202742Y111616D01*
X202749Y111621D01*
X203367Y112426D01*
X203755Y113364D01*
X203888Y114370D01*
X203755Y115376D01*
X203367Y116314D01*
X202749Y117119D01*
X202593Y117239D01*
X202763Y117739D01*
X206824D01*
X210869Y113694D01*
D02*
G37*
G36*
X197184Y77316D02*
X197226Y77086D01*
X196633Y76314D01*
X196245Y75376D01*
X196112Y74370D01*
X196245Y73364D01*
X196633Y72426D01*
X197251Y71621D01*
X197407Y71501D01*
X197237Y71001D01*
X172763D01*
X172593Y71501D01*
X172749Y71621D01*
X173367Y72426D01*
X173755Y73364D01*
X173888Y74370D01*
X173755Y75376D01*
X173367Y76314D01*
X172774Y77086D01*
X172816Y77316D01*
X172907Y77586D01*
X197093D01*
X197184Y77316D01*
D02*
G37*
%LPC*%
G36*
X370500Y263291D02*
Y259870D01*
X373921D01*
X373851Y260402D01*
X373453Y261364D01*
X372819Y262189D01*
X371993Y262823D01*
X371032Y263221D01*
X370500Y263291D01*
D02*
G37*
G36*
X369500D02*
X368968Y263221D01*
X368007Y262823D01*
X367181Y262189D01*
X366547Y261364D01*
X366149Y260402D01*
X366079Y259870D01*
X369500D01*
Y263291D01*
D02*
G37*
G36*
X468968Y266807D02*
X461031D01*
Y256933D01*
X468968D01*
Y266807D01*
D02*
G37*
G36*
X373921Y258870D02*
X370500D01*
Y255449D01*
X371032Y255519D01*
X371993Y255917D01*
X372819Y256551D01*
X373453Y257377D01*
X373851Y258338D01*
X373921Y258870D01*
D02*
G37*
G36*
X369500D02*
X366079D01*
X366149Y258338D01*
X366547Y257377D01*
X367181Y256551D01*
X368007Y255917D01*
X368968Y255519D01*
X369500Y255449D01*
Y258870D01*
D02*
G37*
G36*
X460500Y218291D02*
Y214870D01*
X463921D01*
X463851Y215402D01*
X463453Y216364D01*
X462819Y217189D01*
X461993Y217823D01*
X461032Y218221D01*
X460500Y218291D01*
D02*
G37*
G36*
X459500D02*
X458968Y218221D01*
X458007Y217823D01*
X457181Y217189D01*
X456547Y216364D01*
X456149Y215402D01*
X456079Y214870D01*
X459500D01*
Y218291D01*
D02*
G37*
G36*
X325500Y208120D02*
Y204870D01*
X328750D01*
X328686Y205358D01*
X328305Y206278D01*
X327698Y207068D01*
X326908Y207675D01*
X325988Y208056D01*
X325500Y208120D01*
D02*
G37*
G36*
X328750Y203870D02*
X325500D01*
Y200620D01*
X325988Y200684D01*
X326908Y201065D01*
X327698Y201672D01*
X328305Y202462D01*
X328686Y203382D01*
X328750Y203870D01*
D02*
G37*
G36*
X433000Y218291D02*
Y214870D01*
X436421D01*
X436351Y215402D01*
X435953Y216364D01*
X435319Y217189D01*
X434493Y217823D01*
X433532Y218221D01*
X433000Y218291D01*
D02*
G37*
G36*
X432000D02*
X431468Y218221D01*
X430507Y217823D01*
X429681Y217189D01*
X429047Y216364D01*
X428649Y215402D01*
X428579Y214870D01*
X432000D01*
Y218291D01*
D02*
G37*
G36*
X436421Y213870D02*
X433000D01*
Y210449D01*
X433532Y210519D01*
X434493Y210917D01*
X435319Y211551D01*
X435953Y212377D01*
X436351Y213338D01*
X436421Y213870D01*
D02*
G37*
G36*
X432000D02*
X428579D01*
X428649Y213338D01*
X429047Y212377D01*
X429681Y211551D01*
X430507Y210917D01*
X431468Y210519D01*
X432000Y210449D01*
Y213870D01*
D02*
G37*
G36*
X370500Y208192D02*
Y204870D01*
X373822D01*
X373755Y205376D01*
X373367Y206314D01*
X372749Y207119D01*
X371944Y207737D01*
X371006Y208125D01*
X370500Y208192D01*
D02*
G37*
G36*
X369500D02*
X368994Y208125D01*
X368056Y207737D01*
X367251Y207119D01*
X366633Y206314D01*
X366245Y205376D01*
X366178Y204870D01*
X369500D01*
Y208192D01*
D02*
G37*
G36*
X90000Y198258D02*
X88994Y198125D01*
X88056Y197737D01*
X87251Y197119D01*
X86633Y196314D01*
X86245Y195376D01*
X86112Y194370D01*
X86245Y193364D01*
X86633Y192426D01*
X87251Y191621D01*
X88056Y191003D01*
X88369Y190874D01*
Y187866D01*
X88056Y187737D01*
X87251Y187119D01*
X86633Y186314D01*
X86245Y185376D01*
X86112Y184370D01*
X86245Y183364D01*
X86633Y182426D01*
X87251Y181621D01*
X88056Y181003D01*
X88994Y180615D01*
X90000Y180482D01*
X91006Y180615D01*
X91944Y181003D01*
X92749Y181621D01*
X93367Y182426D01*
X93755Y183364D01*
X93888Y184370D01*
X93755Y185376D01*
X93367Y186314D01*
X92749Y187119D01*
X91944Y187737D01*
X91631Y187866D01*
Y190874D01*
X91944Y191003D01*
X92749Y191621D01*
X93367Y192426D01*
X93755Y193364D01*
X93888Y194370D01*
X93755Y195376D01*
X93367Y196314D01*
X92749Y197119D01*
X91944Y197737D01*
X91006Y198125D01*
X90000Y198258D01*
D02*
G37*
G36*
X93968Y174307D02*
X86032D01*
Y164433D01*
X93968D01*
Y174307D01*
D02*
G37*
G36*
X90000Y128258D02*
X88994Y128125D01*
X88056Y127737D01*
X87251Y127119D01*
X86633Y126314D01*
X86245Y125376D01*
X86112Y124370D01*
X86245Y123364D01*
X86633Y122426D01*
X87251Y121621D01*
X88056Y121003D01*
X88994Y120615D01*
X90000Y120483D01*
X91006Y120615D01*
X91944Y121003D01*
X92749Y121621D01*
X93367Y122426D01*
X93755Y123364D01*
X93888Y124370D01*
X93755Y125376D01*
X93367Y126314D01*
X92749Y127119D01*
X91944Y127737D01*
X91006Y128125D01*
X90000Y128258D01*
D02*
G37*
G36*
Y118258D02*
X88994Y118125D01*
X88056Y117737D01*
X87251Y117119D01*
X86633Y116314D01*
X86245Y115376D01*
X86112Y114370D01*
X86245Y113364D01*
X86633Y112426D01*
X87251Y111621D01*
X88056Y111003D01*
X88994Y110615D01*
X90000Y110483D01*
X91006Y110615D01*
X91944Y111003D01*
X92749Y111621D01*
X93367Y112426D01*
X93755Y113364D01*
X93888Y114370D01*
X93755Y115376D01*
X93367Y116314D01*
X92749Y117119D01*
X91944Y117737D01*
X91006Y118125D01*
X90000Y118258D01*
D02*
G37*
G36*
X480000Y188258D02*
X478994Y188125D01*
X478056Y187737D01*
X477251Y187119D01*
X476633Y186314D01*
X476245Y185376D01*
X476112Y184370D01*
X476245Y183364D01*
X476633Y182426D01*
X477251Y181621D01*
X478056Y181003D01*
X478994Y180615D01*
X480000Y180482D01*
X481006Y180615D01*
X481944Y181003D01*
X482749Y181621D01*
X483367Y182426D01*
X483755Y183364D01*
X483888Y184370D01*
X483755Y185376D01*
X483367Y186314D01*
X482749Y187119D01*
X481944Y187737D01*
X481006Y188125D01*
X480000Y188258D01*
D02*
G37*
G36*
X483854Y128224D02*
X476146D01*
Y120516D01*
X483854D01*
Y128224D01*
D02*
G37*
%LPD*%
D21*
X325000Y214370D02*
D03*
Y204370D02*
D03*
Y194370D02*
D03*
Y184370D02*
D03*
Y174370D02*
D03*
Y164370D02*
D03*
Y154370D02*
D03*
Y144370D02*
D03*
Y134370D02*
D03*
Y124370D02*
D03*
Y114370D02*
D03*
Y104370D02*
D03*
Y94370D02*
D03*
Y84370D02*
D03*
Y74370D02*
D03*
X265000D02*
D03*
Y84370D02*
D03*
Y94370D02*
D03*
Y104370D02*
D03*
Y114370D02*
D03*
Y124370D02*
D03*
Y134370D02*
D03*
Y144370D02*
D03*
Y154370D02*
D03*
Y164370D02*
D03*
Y174370D02*
D03*
Y184370D02*
D03*
Y194370D02*
D03*
Y204370D02*
D03*
D22*
Y214370D02*
D03*
D24*
X461000Y53370D02*
X465000Y49370D01*
X363500Y53370D02*
X461000D01*
X319000Y66370D02*
X350500D01*
X285000Y264370D02*
X285276Y264094D01*
X350500Y66370D02*
X363500Y53370D01*
X365500Y56370D02*
X453000D01*
X320000Y69370D02*
X352500D01*
X365500Y56370D01*
X334500Y72370D02*
X354500D01*
X367500Y59370D02*
X452500D01*
X354500Y72370D02*
X367500Y59370D01*
X342500Y44370D02*
Y46870D01*
X332500Y44370D02*
Y46870D01*
X341870Y43740D02*
X342500Y44370D01*
X331870Y43740D02*
X332500Y44370D01*
X142500Y149370D02*
Y164370D01*
X135000Y141870D02*
X142500Y149370D01*
X121250Y143120D02*
X122500Y141870D01*
Y164370D02*
X122500D01*
X130000Y171870D02*
X220000D01*
X122500Y164370D02*
X130000Y171870D01*
X122500Y144370D02*
Y164370D01*
X121250Y143120D02*
X122500Y144370D01*
X142500Y219370D02*
Y239370D01*
X150000Y74370D02*
X170000Y54370D01*
X260000D01*
X150000Y74370D02*
Y74370D01*
X162500Y74370D01*
X167500Y69370D02*
X205000D01*
X162500Y74370D02*
X167500Y69370D01*
X200000Y164370D02*
X217500D01*
X242130Y139740D02*
X270370D01*
X217500Y164370D02*
X242130Y139740D01*
X246500Y251870D02*
X255000Y243370D01*
X161500Y251870D02*
X246500D01*
X142500Y261240D02*
X151870Y251870D01*
X161500D01*
X142500Y239370D02*
X152500Y249370D01*
X245000D02*
X250000Y244370D01*
X152500Y249370D02*
X245000D01*
X432500Y174370D02*
X460000D01*
X465000Y169370D01*
X200630Y163740D02*
X202130Y162240D01*
X220000Y171870D02*
X242500Y194370D01*
X135000Y119370D02*
X147500Y131870D01*
X135000Y99370D02*
Y119370D01*
X147500Y131870D02*
X241900D01*
X142500Y139370D02*
Y141870D01*
Y139370D02*
X147500Y134370D01*
X445000Y139370D02*
Y156870D01*
X452500Y164370D01*
X432500Y139370D02*
Y164370D01*
X417500Y159370D02*
X432500Y174370D01*
X452500Y94370D02*
X456250D01*
X465000Y68370D02*
Y85620D01*
X456250Y94370D02*
X465000Y85620D01*
X450000Y214370D02*
Y215370D01*
X467500Y232870D02*
Y245870D01*
X450000Y215370D02*
X467500Y232870D01*
X461000Y252370D02*
X467500Y245870D01*
X365000Y252370D02*
X461000D01*
X460000Y119370D02*
X480000Y139370D01*
X460000Y194370D02*
X480000Y174370D01*
Y139370D02*
Y174370D01*
X352500Y189370D02*
Y231870D01*
X360000Y239370D02*
X405000D01*
X352500Y231870D02*
X360000Y239370D01*
X347000Y234370D02*
X365000Y252370D01*
X347000Y195370D02*
Y234370D01*
X322500Y179370D02*
X331000D01*
X347000Y195370D01*
X332500Y74370D02*
X334500Y72370D01*
X352500Y129370D02*
X419000D01*
X436000Y112370D01*
X453000D01*
X255000Y154370D02*
Y243370D01*
X32500Y46870D02*
X42000Y37370D01*
X335500D02*
X341870Y43740D01*
X42000Y37370D02*
X335500D01*
X42500Y49370D02*
X51500Y40370D01*
X328500D02*
X331870Y43740D01*
X51500Y40370D02*
X328500D01*
X305000Y80370D02*
X319000Y66370D01*
X305000Y80370D02*
Y84370D01*
X453000Y56370D02*
X465000Y68370D01*
X453000Y112370D02*
X460000Y119370D01*
X405000Y239370D02*
X412000Y232370D01*
X453000D02*
X460000Y239370D01*
X412000Y232370D02*
X453000D01*
X150000Y194370D02*
X157500D01*
X162500Y199370D02*
X207500D01*
X157500Y194370D02*
X162500Y199370D01*
X332500Y109370D02*
X352500Y129370D01*
X115000Y91870D02*
Y189370D01*
X120000Y194370D02*
X150000D01*
X115000Y189370D02*
X120000Y194370D01*
X450000Y136870D02*
X452500Y139370D01*
X447500Y134370D02*
X450000Y136870D01*
X260000Y54370D02*
X280000Y74370D01*
X150000Y119370D02*
X155000Y114370D01*
Y101870D02*
Y114370D01*
X150000Y96870D02*
X155000Y101870D01*
X145000Y96870D02*
X150000D01*
X135000Y86870D02*
X145000Y96870D01*
X120000Y86870D02*
X135000D01*
X115000Y91870D02*
X120000Y86870D01*
X432500Y194370D02*
X460000D01*
X270370Y139740D02*
X285000Y154370D01*
X142500Y261240D02*
Y261240D01*
X42500Y49370D02*
Y181870D01*
X30000Y184370D02*
X32500Y181870D01*
Y46870D02*
Y181870D01*
X40000Y184370D02*
X42500Y181870D01*
X305000Y84370D02*
X305000Y236870D01*
X310000Y79370D02*
X320000Y69370D01*
X310000Y79370D02*
Y104370D01*
X30000Y184370D02*
Y219370D01*
X40000Y184370D02*
Y219370D01*
X332500Y74370D02*
Y109370D01*
X310000Y114370D02*
X315000Y119370D01*
X335000D01*
X312500Y186870D02*
X315000Y189370D01*
Y236870D01*
X312500Y166870D02*
Y186870D01*
X312500Y166870D02*
X320000Y159370D01*
X180000Y46870D02*
X275000D01*
X295000Y66870D02*
Y236870D01*
X275000Y46870D02*
X295000Y66870D01*
X320000Y159370D02*
X417500Y159370D01*
X317500Y174370D02*
X322500Y179370D01*
X285000Y154370D02*
Y236870D01*
X335000Y119370D02*
X350000Y134370D01*
X447500D01*
X352500Y189370D02*
X362500Y179370D01*
X241900Y131870D02*
X249486Y124285D01*
X205000Y69370D02*
X212500Y76870D01*
X147500Y134370D02*
X255000D01*
X250000Y144370D02*
Y244370D01*
X212500Y76870D02*
Y114370D01*
X207500Y119370D02*
X212500Y114370D01*
X150000Y119370D02*
X207500D01*
Y199370D02*
X212500Y204370D01*
Y231870D01*
X205000Y239370D02*
X212500Y231870D01*
X150000Y239370D02*
X205000D01*
X460000Y66870D02*
Y74370D01*
X452500Y59370D02*
X460000Y66870D01*
X417500Y179370D02*
X432500Y194370D01*
X362500Y179370D02*
X417500D01*
X400000Y64370D02*
Y74370D01*
X90000Y64370D02*
Y74370D01*
X400000Y184370D02*
Y194370D01*
X90000Y184370D02*
Y194370D01*
D25*
X87500Y209370D02*
X105000D01*
X112000Y202370D02*
X156000D01*
X105000Y209370D02*
X112000Y202370D01*
X114000Y205370D02*
X154000D01*
X90000Y214370D02*
X105000D01*
X114000Y205370D01*
X62500Y211870D02*
X65000Y209370D01*
Y99370D02*
Y209370D01*
X60000Y214370D02*
X62500Y211870D01*
X60000Y94370D02*
X65000Y99370D01*
X167500D02*
X195000D01*
X200000Y94370D01*
X65000Y89370D02*
X102500D01*
X90000Y94370D02*
X102500D01*
X109500Y87370D01*
X80000Y105370D02*
Y204370D01*
Y105370D02*
X90000Y95370D01*
X315000Y269370D02*
X317500Y266870D01*
X337500D02*
X349000Y278370D01*
X317500Y266870D02*
X337500D01*
X322500Y276870D02*
X325000D01*
X320000Y279370D02*
X322500Y276870D01*
X55000Y259370D02*
X75000Y279370D01*
X320000D01*
X437000Y226370D02*
X443000Y220370D01*
X409500Y226370D02*
X437000D01*
X443000Y213870D02*
Y220370D01*
X411500Y223370D02*
X435000D01*
X440000Y211870D02*
Y218370D01*
X435000Y223370D02*
X440000Y218370D01*
X402500Y214370D02*
X411500Y223370D01*
X443000Y213870D02*
X448500Y208370D01*
X440000Y211870D02*
X446500Y205370D01*
X473500D01*
X448500Y208370D02*
X471500D01*
X477500Y214370D01*
X473500Y205370D02*
X477500Y209370D01*
X414000Y103370D02*
X463000D01*
X477000Y89370D02*
X505000D01*
X463000Y103370D02*
X477000Y89370D01*
X405000Y94370D02*
X414000Y103370D01*
X405000Y99370D02*
X412000Y106370D01*
X468000D02*
X480000Y94370D01*
X412000Y106370D02*
X468000D01*
X495000Y204370D02*
X500000D01*
X505000Y199370D01*
X402500Y219370D02*
X409500Y226370D01*
X90000Y94370D02*
Y95370D01*
X109500Y87370D02*
X115500Y81370D01*
X375000Y99370D02*
X405000D01*
X510000Y214370D02*
X515000Y219370D01*
Y264370D01*
X349000Y278370D02*
X501000D01*
X345000Y254370D02*
Y268370D01*
X352000Y275370D01*
X474000D01*
X501000Y278370D02*
X515000Y264370D01*
X474000Y275370D02*
X485000Y264370D01*
X85000Y259370D02*
X99000Y273370D01*
X311000D02*
X315000Y269370D01*
X99000Y273370D02*
X311000D01*
X102500Y89370D02*
X113500Y78370D01*
X141500D02*
X147500Y84370D01*
X113500Y78370D02*
X141500D01*
X139500Y81370D02*
X147500Y89370D01*
X115500Y81370D02*
X139500D01*
X82500Y214370D02*
X87500Y209370D01*
X60000Y214370D02*
X82500D01*
X154000Y205370D02*
X168000Y219370D01*
X156000Y202370D02*
X168000Y214370D01*
X170000D01*
X168000Y219370D02*
X177500D01*
X400000Y214370D02*
X402500D01*
X375000Y219370D02*
X402500D01*
X157500Y89370D02*
X167500Y99370D01*
X147500Y89370D02*
X157500D01*
X147500Y84370D02*
X160000D01*
X490000Y94370D02*
X505000Y109370D01*
Y199370D01*
X477500Y214370D02*
X480000D01*
X370000D02*
X375000Y219370D01*
X160000Y84370D02*
X170000Y94370D01*
X182500Y214370D02*
X200000D01*
X177500Y219370D02*
X182500Y214370D01*
X485000Y219370D02*
Y264370D01*
X477500Y209370D02*
X485000D01*
X400000Y94370D02*
X405000D01*
X505000Y89370D02*
X510000Y94370D01*
X480000Y214370D02*
X485000Y219370D01*
X480000Y94370D02*
X490000D01*
X85000Y219370D02*
X90000Y214370D01*
X85000Y219370D02*
Y259370D01*
X370000Y94370D02*
X375000Y99370D01*
X485000Y209370D02*
X490000Y214370D01*
X510000D01*
Y94370D02*
X515000Y99370D01*
Y209370D01*
X510000Y214370D02*
X515000Y209370D01*
X55000Y219370D02*
Y259370D01*
Y219370D02*
X60000Y214370D01*
Y94370D02*
X65000Y89370D01*
D26*
X304000Y270370D02*
X312000Y262370D01*
X131000Y270370D02*
X304000D01*
X312000Y262370D02*
X317000D01*
X116000Y208370D02*
X151500D01*
X110000Y214370D02*
Y239370D01*
Y214370D02*
X116000Y208370D01*
X421000Y119370D02*
X431000Y109370D01*
X420000Y119370D02*
X421000D01*
X431000Y109370D02*
X485000D01*
X363000Y203870D02*
X367500Y199370D01*
X363000Y224870D02*
X367500Y229370D01*
X363000Y203870D02*
Y224870D01*
X350000Y191870D02*
Y233370D01*
X366000Y249370D02*
X405000D01*
X350000Y233370D02*
X366000Y249370D01*
X342500Y184370D02*
X350000Y191870D01*
X110000Y249370D02*
X131000Y270370D01*
X110000Y239370D02*
Y249370D01*
X142500Y74370D02*
X147500Y79370D01*
X110000Y74370D02*
X142500D01*
X110000Y91870D02*
X117500Y84370D01*
X137500D02*
X146500Y93370D01*
X117500Y84370D02*
X137500D01*
X158000Y199370D02*
X165000Y206370D01*
X115000Y199370D02*
X158000D01*
X165000Y206370D02*
Y206370D01*
X151500Y208370D02*
X165000Y221870D01*
Y206370D02*
X168000Y209370D01*
X110000Y194370D02*
X115000Y199370D01*
X165000Y226370D02*
X168000Y229370D01*
X165000Y221870D02*
Y226370D01*
X168000Y229370D02*
X202500D01*
X110000Y91870D02*
Y119370D01*
X146500Y93370D02*
X152000D01*
X168000Y209370D02*
X202500D01*
X485000Y109370D02*
X495000Y119370D01*
X485000Y199370D02*
X495000Y189370D01*
Y119370D02*
Y189370D01*
X415000Y199370D02*
X420000Y194370D01*
X425000Y199370D01*
X317000Y262370D02*
X320231Y259139D01*
X152000Y93370D02*
X168000Y109370D01*
X317500Y184370D02*
X320231Y187101D01*
Y259139D01*
X168000Y109370D02*
X202500D01*
X207500Y84370D02*
Y104370D01*
X147500Y79370D02*
X202500D01*
X207500Y84370D01*
X465000Y234370D02*
Y244370D01*
X435000Y249370D02*
X460000D01*
X465000Y244370D01*
X367500Y229370D02*
X460000D01*
X465000Y234370D01*
X425000Y239370D02*
X435000Y249370D01*
X420000Y239370D02*
X425000D01*
X405000Y249370D02*
X415000Y239370D01*
X420000D01*
X415000Y119370D02*
X420000D01*
X405000Y109370D02*
X415000Y119370D01*
X367500Y109370D02*
X405000D01*
X425000Y199370D02*
X485000D01*
X202500Y109370D02*
X207500Y104370D01*
X202500Y209370D02*
X207500Y214370D01*
X202500Y229370D02*
X207500Y224370D01*
Y214370D02*
Y224370D01*
X362500Y84370D02*
X367500Y79370D01*
X362500Y104370D02*
X367500Y109370D01*
X362500Y84370D02*
Y104370D01*
X367500Y79370D02*
X415000D01*
X367500Y199370D02*
X415000D01*
X110000Y119370D02*
Y194370D01*
X415000Y79370D02*
X420000Y74370D01*
D27*
X400000Y184370D02*
D03*
Y194370D02*
D03*
Y204370D02*
D03*
Y214370D02*
D03*
Y224370D02*
D03*
Y234370D02*
D03*
Y244370D02*
D03*
X370000Y184370D02*
D03*
Y194370D02*
D03*
Y204370D02*
D03*
Y214370D02*
D03*
Y224370D02*
D03*
Y234370D02*
D03*
X400000Y64370D02*
D03*
Y74370D02*
D03*
Y84370D02*
D03*
Y94370D02*
D03*
Y104370D02*
D03*
Y114370D02*
D03*
Y124370D02*
D03*
X370000Y64370D02*
D03*
Y74370D02*
D03*
Y84370D02*
D03*
Y94370D02*
D03*
Y104370D02*
D03*
Y114370D02*
D03*
X510000Y64370D02*
D03*
Y74370D02*
D03*
Y84370D02*
D03*
Y94370D02*
D03*
Y104370D02*
D03*
Y114370D02*
D03*
Y124370D02*
D03*
X480000Y64370D02*
D03*
Y74370D02*
D03*
Y84370D02*
D03*
Y94370D02*
D03*
Y104370D02*
D03*
Y114370D02*
D03*
X90000Y64370D02*
D03*
Y74370D02*
D03*
Y84370D02*
D03*
Y94370D02*
D03*
Y104370D02*
D03*
Y114370D02*
D03*
Y124370D02*
D03*
X60000Y64370D02*
D03*
Y74370D02*
D03*
Y84370D02*
D03*
Y94370D02*
D03*
Y104370D02*
D03*
Y114370D02*
D03*
X200000Y64370D02*
D03*
Y74370D02*
D03*
Y84370D02*
D03*
Y94370D02*
D03*
Y104370D02*
D03*
Y114370D02*
D03*
Y124370D02*
D03*
X170000Y64370D02*
D03*
Y74370D02*
D03*
Y84370D02*
D03*
Y94370D02*
D03*
Y104370D02*
D03*
Y114370D02*
D03*
X510000Y184370D02*
D03*
Y194370D02*
D03*
Y204370D02*
D03*
Y214370D02*
D03*
Y224370D02*
D03*
Y234370D02*
D03*
Y244370D02*
D03*
X480000Y184370D02*
D03*
Y194370D02*
D03*
Y204370D02*
D03*
Y214370D02*
D03*
Y224370D02*
D03*
Y234370D02*
D03*
X170000D02*
D03*
Y224370D02*
D03*
Y214370D02*
D03*
Y204370D02*
D03*
Y194370D02*
D03*
Y184370D02*
D03*
X200000Y244370D02*
D03*
Y234370D02*
D03*
Y224370D02*
D03*
Y214370D02*
D03*
Y204370D02*
D03*
Y194370D02*
D03*
Y184370D02*
D03*
X60000Y234370D02*
D03*
Y224370D02*
D03*
Y214370D02*
D03*
Y204370D02*
D03*
Y194370D02*
D03*
Y184370D02*
D03*
X90000Y244370D02*
D03*
Y234370D02*
D03*
Y224370D02*
D03*
Y214370D02*
D03*
Y204370D02*
D03*
Y194370D02*
D03*
Y184370D02*
D03*
D28*
X370000Y244370D02*
D03*
Y124370D02*
D03*
X480000D02*
D03*
X60000D02*
D03*
X170000D02*
D03*
X480000Y244370D02*
D03*
X170000D02*
D03*
X60000D02*
D03*
D29*
X465000Y49370D02*
D03*
Y144370D02*
D03*
X352500Y46870D02*
D03*
X90000Y46240D02*
D03*
X155000Y141870D02*
D03*
X180000Y46870D02*
D03*
X400000Y169370D02*
D03*
X465000Y261870D02*
D03*
Y169370D02*
D03*
X90000D02*
D03*
X157500Y261240D02*
D03*
X200000Y164370D02*
D03*
D30*
X530000Y124370D02*
D03*
Y84370D02*
D03*
X220000D02*
D03*
Y124370D02*
D03*
X530000Y204370D02*
D03*
Y244370D02*
D03*
X220000D02*
D03*
Y204370D02*
D03*
D31*
X530000Y114370D02*
D03*
Y104370D02*
D03*
Y74370D02*
D03*
Y64370D02*
D03*
X220000Y74370D02*
D03*
Y64370D02*
D03*
Y114370D02*
D03*
Y104370D02*
D03*
X530000Y194370D02*
D03*
Y184370D02*
D03*
Y234370D02*
D03*
Y224370D02*
D03*
X220000Y234370D02*
D03*
Y224370D02*
D03*
Y194370D02*
D03*
Y184370D02*
D03*
D32*
X325276Y255906D02*
D03*
X315276D02*
D03*
X305276D02*
D03*
X275276D02*
D03*
X285276D02*
D03*
X295276D02*
D03*
X325276Y245905D02*
D03*
X315276D02*
D03*
X305276D02*
D03*
X265276D02*
D03*
X275276D02*
D03*
X285276D02*
D03*
X295276D02*
D03*
D33*
X265276Y255906D02*
D03*
D34*
X170000Y141870D02*
D03*
X285000Y264370D02*
D03*
X275000D02*
D03*
X342500Y46870D02*
D03*
X332500D02*
D03*
X575000Y44370D02*
D03*
Y269370D02*
D03*
X15000D02*
D03*
Y44370D02*
D03*
X142500Y164370D02*
D03*
X122500Y141870D02*
D03*
Y164370D02*
D03*
X142500Y219370D02*
D03*
X60000Y141870D02*
D03*
X325000Y276870D02*
D03*
X60000Y256870D02*
D03*
X122500Y219370D02*
D03*
X150000D02*
D03*
Y104370D02*
D03*
X122500Y99370D02*
D03*
X142500Y141870D02*
D03*
X135000D02*
D03*
X452500Y164370D02*
D03*
X432500D02*
D03*
X370000Y259370D02*
D03*
Y139370D02*
D03*
X432500Y94370D02*
D03*
X452500D02*
D03*
X445000Y139370D02*
D03*
X450000Y214370D02*
D03*
X445000Y94370D02*
D03*
X460000Y214370D02*
D03*
X432500D02*
D03*
X495000Y204370D02*
D03*
X432500Y139370D02*
D03*
X452500D02*
D03*
X280000Y74370D02*
D03*
X135000Y99370D02*
D03*
X460000Y194370D02*
D03*
X420000D02*
D03*
X142500Y261240D02*
D03*
X30000Y219370D02*
D03*
Y184370D02*
D03*
X40000Y219370D02*
D03*
Y184370D02*
D03*
X332500Y74370D02*
D03*
X310000Y104370D02*
D03*
Y114370D02*
D03*
X317500Y174370D02*
D03*
X285000Y236870D02*
D03*
X295000D02*
D03*
X305000D02*
D03*
X315000D02*
D03*
X242500Y194370D02*
D03*
X342500Y184370D02*
D03*
X249486Y124285D02*
D03*
X255000Y134370D02*
D03*
X250000Y144370D02*
D03*
X255000Y154370D02*
D03*
X345000Y254370D02*
D03*
X420000Y119370D02*
D03*
X317500Y184370D02*
D03*
X80000Y204370D02*
D03*
X110000Y74370D02*
D03*
Y119370D02*
D03*
Y194370D02*
D03*
Y239370D02*
D03*
X420000Y74370D02*
D03*
Y239370D02*
D03*
X315000Y269370D02*
D03*
X460000Y74370D02*
D03*
Y119370D02*
D03*
X150000Y74370D02*
D03*
Y119370D02*
D03*
X460000Y239370D02*
D03*
X150000D02*
D03*
Y194370D02*
D03*
M02*
