G04*
G04 #@! TF.GenerationSoftware,Altium Limited,Altium Designer,20.0.14 (345)*
G04*
G04 Layer_Color=8388736*
%FSLAX25Y25*%
%MOIN*%
G70*
G01*
G75*
%ADD14C,0.06109*%
%ADD15R,0.06109X0.06109*%
%ADD16R,0.06337X0.08274*%
%ADD17R,0.06337X0.06337*%
%ADD18C,0.06337*%
%ADD19C,0.06424*%
%ADD20R,0.06424X0.06424*%
%ADD21C,0.05567*%
%ADD22R,0.05567X0.05567*%
%ADD23C,0.06306*%
D14*
X400000Y184370D02*
D03*
Y194370D02*
D03*
Y204370D02*
D03*
Y214370D02*
D03*
Y224370D02*
D03*
Y234370D02*
D03*
Y244370D02*
D03*
X370000Y184370D02*
D03*
Y194370D02*
D03*
Y204370D02*
D03*
Y214370D02*
D03*
Y224370D02*
D03*
Y234370D02*
D03*
X400000Y64370D02*
D03*
Y74370D02*
D03*
Y84370D02*
D03*
Y94370D02*
D03*
Y104370D02*
D03*
Y114370D02*
D03*
Y124370D02*
D03*
X370000Y64370D02*
D03*
Y74370D02*
D03*
Y84370D02*
D03*
Y94370D02*
D03*
Y104370D02*
D03*
Y114370D02*
D03*
X510000Y64370D02*
D03*
Y74370D02*
D03*
Y84370D02*
D03*
Y94370D02*
D03*
Y104370D02*
D03*
Y114370D02*
D03*
Y124370D02*
D03*
X480000Y64370D02*
D03*
Y74370D02*
D03*
Y84370D02*
D03*
Y94370D02*
D03*
Y104370D02*
D03*
Y114370D02*
D03*
X90000Y64370D02*
D03*
Y74370D02*
D03*
Y84370D02*
D03*
Y94370D02*
D03*
Y104370D02*
D03*
Y114370D02*
D03*
Y124370D02*
D03*
X60000Y64370D02*
D03*
Y74370D02*
D03*
Y84370D02*
D03*
Y94370D02*
D03*
Y104370D02*
D03*
Y114370D02*
D03*
X200000Y64370D02*
D03*
Y74370D02*
D03*
Y84370D02*
D03*
Y94370D02*
D03*
Y104370D02*
D03*
Y114370D02*
D03*
Y124370D02*
D03*
X170000Y64370D02*
D03*
Y74370D02*
D03*
Y84370D02*
D03*
Y94370D02*
D03*
Y104370D02*
D03*
Y114370D02*
D03*
X510000Y184370D02*
D03*
Y194370D02*
D03*
Y204370D02*
D03*
Y214370D02*
D03*
Y224370D02*
D03*
Y234370D02*
D03*
Y244370D02*
D03*
X480000Y184370D02*
D03*
Y194370D02*
D03*
Y204370D02*
D03*
Y214370D02*
D03*
Y224370D02*
D03*
Y234370D02*
D03*
X170000D02*
D03*
Y224370D02*
D03*
Y214370D02*
D03*
Y204370D02*
D03*
Y194370D02*
D03*
Y184370D02*
D03*
X200000Y244370D02*
D03*
Y234370D02*
D03*
Y224370D02*
D03*
Y214370D02*
D03*
Y204370D02*
D03*
Y194370D02*
D03*
Y184370D02*
D03*
X60000Y234370D02*
D03*
Y224370D02*
D03*
Y214370D02*
D03*
Y204370D02*
D03*
Y194370D02*
D03*
Y184370D02*
D03*
X90000Y244370D02*
D03*
Y234370D02*
D03*
Y224370D02*
D03*
Y214370D02*
D03*
Y204370D02*
D03*
Y194370D02*
D03*
Y184370D02*
D03*
D15*
X370000Y244370D02*
D03*
Y124370D02*
D03*
X480000D02*
D03*
X60000D02*
D03*
X170000D02*
D03*
X480000Y244370D02*
D03*
X170000D02*
D03*
X60000D02*
D03*
D16*
X465000Y49370D02*
D03*
Y144370D02*
D03*
X352500Y46870D02*
D03*
X90000Y46240D02*
D03*
X155000Y141870D02*
D03*
X180000Y46870D02*
D03*
X400000Y169370D02*
D03*
X465000Y261870D02*
D03*
Y169370D02*
D03*
X90000D02*
D03*
X157500Y261240D02*
D03*
X200000Y164370D02*
D03*
D17*
X530000Y124370D02*
D03*
Y84370D02*
D03*
X220000D02*
D03*
Y124370D02*
D03*
X530000Y204370D02*
D03*
Y244370D02*
D03*
X220000D02*
D03*
Y204370D02*
D03*
D18*
X530000Y114370D02*
D03*
Y104370D02*
D03*
Y74370D02*
D03*
Y64370D02*
D03*
X220000Y74370D02*
D03*
Y64370D02*
D03*
Y114370D02*
D03*
Y104370D02*
D03*
X530000Y194370D02*
D03*
Y184370D02*
D03*
Y234370D02*
D03*
Y224370D02*
D03*
X220000Y234370D02*
D03*
Y224370D02*
D03*
Y194370D02*
D03*
Y184370D02*
D03*
D19*
X325276Y255906D02*
D03*
X315276D02*
D03*
X305276D02*
D03*
X275276D02*
D03*
X285276D02*
D03*
X295276D02*
D03*
X325276Y245905D02*
D03*
X315276D02*
D03*
X305276D02*
D03*
X265276D02*
D03*
X275276D02*
D03*
X285276D02*
D03*
X295276D02*
D03*
D20*
X265276Y255906D02*
D03*
D21*
X325000Y214370D02*
D03*
Y204370D02*
D03*
Y194370D02*
D03*
Y184370D02*
D03*
Y174370D02*
D03*
Y164370D02*
D03*
Y154370D02*
D03*
Y144370D02*
D03*
Y134370D02*
D03*
Y124370D02*
D03*
Y114370D02*
D03*
Y104370D02*
D03*
Y94370D02*
D03*
Y84370D02*
D03*
Y74370D02*
D03*
X265000D02*
D03*
Y84370D02*
D03*
Y94370D02*
D03*
Y104370D02*
D03*
Y114370D02*
D03*
Y124370D02*
D03*
Y134370D02*
D03*
Y144370D02*
D03*
Y154370D02*
D03*
Y164370D02*
D03*
Y174370D02*
D03*
Y184370D02*
D03*
Y194370D02*
D03*
Y204370D02*
D03*
D22*
Y214370D02*
D03*
D23*
X170000Y141870D02*
D03*
X285000Y264370D02*
D03*
X275000D02*
D03*
X342500Y46870D02*
D03*
X332500D02*
D03*
X575000Y44370D02*
D03*
Y269370D02*
D03*
X15000D02*
D03*
Y44370D02*
D03*
X142500Y164370D02*
D03*
X122500Y141870D02*
D03*
Y164370D02*
D03*
X142500Y219370D02*
D03*
X60000Y141870D02*
D03*
X325000Y276870D02*
D03*
X60000Y256870D02*
D03*
X122500Y219370D02*
D03*
X150000D02*
D03*
Y104370D02*
D03*
X122500Y99370D02*
D03*
X142500Y141870D02*
D03*
X135000D02*
D03*
X452500Y164370D02*
D03*
X432500D02*
D03*
X370000Y259370D02*
D03*
Y139370D02*
D03*
X432500Y94370D02*
D03*
X452500D02*
D03*
X445000Y139370D02*
D03*
X450000Y214370D02*
D03*
X445000Y94370D02*
D03*
X460000Y214370D02*
D03*
X432500D02*
D03*
X495000Y204370D02*
D03*
X432500Y139370D02*
D03*
X452500D02*
D03*
X280000Y74370D02*
D03*
X135000Y99370D02*
D03*
X460000Y194370D02*
D03*
X420000D02*
D03*
X142500Y261240D02*
D03*
X30000Y219370D02*
D03*
Y184370D02*
D03*
X40000Y219370D02*
D03*
Y184370D02*
D03*
X332500Y74370D02*
D03*
X310000Y104370D02*
D03*
Y114370D02*
D03*
X317500Y174370D02*
D03*
X285000Y236870D02*
D03*
X295000D02*
D03*
X305000D02*
D03*
X315000D02*
D03*
X242500Y194370D02*
D03*
X342500Y184370D02*
D03*
X249486Y124285D02*
D03*
X255000Y134370D02*
D03*
X250000Y144370D02*
D03*
X255000Y154370D02*
D03*
X345000Y254370D02*
D03*
X420000Y119370D02*
D03*
X317500Y184370D02*
D03*
X80000Y204370D02*
D03*
X110000Y74370D02*
D03*
Y119370D02*
D03*
Y194370D02*
D03*
Y239370D02*
D03*
X420000Y74370D02*
D03*
Y239370D02*
D03*
X315000Y269370D02*
D03*
X460000Y74370D02*
D03*
Y119370D02*
D03*
X150000Y74370D02*
D03*
Y119370D02*
D03*
X460000Y239370D02*
D03*
X150000D02*
D03*
Y194370D02*
D03*
M02*
