G04*
G04 #@! TF.GenerationSoftware,Altium Limited,Altium Designer,20.0.14 (345)*
G04*
G04 Layer_Color=1930808*
%FSLAX25Y25*%
%MOIN*%
G70*
G01*
G75*
%ADD11C,0.00787*%
%ADD42C,0.00394*%
%ADD43C,0.00197*%
D11*
X259606Y51476D02*
Y229764D01*
Y51476D02*
X330394D01*
Y229764D01*
X259606D02*
X330394D01*
D42*
X383032Y214370D02*
X386968D01*
X385000Y212402D02*
Y216339D01*
X500000Y102402D02*
Y106339D01*
X498032Y104370D02*
X501968D01*
X490000Y102402D02*
Y106339D01*
X488031Y104370D02*
X491968D01*
X520000Y102402D02*
Y106339D01*
X518032Y104370D02*
X521969D01*
X520000Y82402D02*
Y86339D01*
X518032Y84370D02*
X521969D01*
X540000Y122402D02*
Y126339D01*
X538031Y124370D02*
X541968D01*
X520000Y122402D02*
Y126339D01*
X518032Y124370D02*
X521969D01*
X315000Y222402D02*
Y226339D01*
X313032Y224370D02*
X316968D01*
X500000Y122402D02*
Y126339D01*
X498032Y124370D02*
X501968D01*
X490000Y122402D02*
Y126339D01*
X488031Y124370D02*
X491968D01*
X410000Y82402D02*
Y86339D01*
X408032Y84370D02*
X411969D01*
X410000Y122402D02*
Y126339D01*
X408032Y124370D02*
X411969D01*
X360000Y82402D02*
Y86339D01*
X358032Y84370D02*
X361968D01*
X340000Y82402D02*
Y86339D01*
X338032Y84370D02*
X341968D01*
X350000Y82402D02*
Y86339D01*
X348031Y84370D02*
X351969D01*
X380000Y62402D02*
Y66339D01*
X378031Y64370D02*
X381968D01*
X380000Y82402D02*
Y86339D01*
X378031Y84370D02*
X381968D01*
X390000Y102402D02*
Y106339D01*
X388032Y104370D02*
X391968D01*
X390000Y62402D02*
Y66339D01*
X388032Y64370D02*
X391968D01*
X410000Y62402D02*
Y66339D01*
X408032Y64370D02*
X411969D01*
X380000Y102402D02*
Y106339D01*
X378031Y104370D02*
X381968D01*
X410000Y102402D02*
Y106339D01*
X408032Y104370D02*
X411969D01*
X380000Y122402D02*
Y126339D01*
X378031Y124370D02*
X381968D01*
X390000Y122402D02*
Y126339D01*
X388032Y124370D02*
X391968D01*
X360000Y102402D02*
Y106339D01*
X358032Y104370D02*
X361968D01*
X360000Y122402D02*
Y126339D01*
X358032Y124370D02*
X361968D01*
X470000Y122402D02*
Y126339D01*
X468032Y124370D02*
X471969D01*
X470000Y102402D02*
Y106339D01*
X468032Y104370D02*
X471969D01*
X470000Y62402D02*
Y66339D01*
X468032Y64370D02*
X471969D01*
X490000Y82402D02*
Y86339D01*
X488031Y84370D02*
X491968D01*
X490000Y62402D02*
Y66339D01*
X488031Y64370D02*
X491968D01*
X490000Y42402D02*
Y46339D01*
X488031Y44370D02*
X491968D01*
X440000Y72402D02*
Y76339D01*
X438031Y74370D02*
X441968D01*
X440000Y117402D02*
Y121339D01*
X438031Y119370D02*
X441968D01*
X383032Y94370D02*
X386968D01*
X385000Y92402D02*
Y96339D01*
X493032Y94370D02*
X496969D01*
X495000Y92402D02*
Y96339D01*
X100000Y82402D02*
Y86339D01*
X98032Y84370D02*
X101969D01*
X100000Y122402D02*
Y126339D01*
X98032Y124370D02*
X101969D01*
X40000Y82402D02*
Y86339D01*
X38032Y84370D02*
X41969D01*
X30000Y82402D02*
Y86339D01*
X28032Y84370D02*
X31969D01*
X70000Y62402D02*
Y66339D01*
X68032Y64370D02*
X71969D01*
X80000Y62402D02*
Y66339D01*
X78031Y64370D02*
X81968D01*
X100000Y62402D02*
Y66339D01*
X98032Y64370D02*
X101969D01*
X70000Y102402D02*
Y106339D01*
X68032Y104370D02*
X71969D01*
X100000Y102402D02*
Y106339D01*
X98032Y104370D02*
X101969D01*
X190000Y122402D02*
Y126339D01*
X188031Y124370D02*
X191969D01*
X50000Y82402D02*
Y86339D01*
X48031Y84370D02*
X51968D01*
X180000Y122402D02*
Y126339D01*
X178032Y124370D02*
X181968D01*
X210000Y122402D02*
Y126339D01*
X208032Y124370D02*
X211968D01*
X230000Y122402D02*
Y126339D01*
X228031Y124370D02*
X231968D01*
X210000Y82402D02*
Y86339D01*
X208032Y84370D02*
X211968D01*
X210000Y102402D02*
Y106339D01*
X208032Y104370D02*
X211968D01*
X70000Y82402D02*
Y86339D01*
X68032Y84370D02*
X71969D01*
X80000Y102402D02*
Y106339D01*
X78031Y104370D02*
X81968D01*
X180000Y102402D02*
Y106339D01*
X178032Y104370D02*
X181968D01*
X190000Y102402D02*
Y106339D01*
X188031Y104370D02*
X191969D01*
X73032Y94370D02*
X76968D01*
X75000Y92402D02*
Y96339D01*
X183031Y94370D02*
X186969D01*
X185000Y92402D02*
Y96339D01*
X70000Y122402D02*
Y126339D01*
X68032Y124370D02*
X71969D01*
X80000Y122402D02*
Y126339D01*
X78031Y124370D02*
X81968D01*
X50000Y102402D02*
Y106339D01*
X48031Y104370D02*
X51968D01*
X50000Y122402D02*
Y126339D01*
X48031Y124370D02*
X51968D01*
X160000Y102402D02*
Y106339D01*
X158031Y104370D02*
X161969D01*
X160000Y122402D02*
Y126339D01*
X158031Y124370D02*
X161969D01*
X180000Y62402D02*
Y66339D01*
X178032Y64370D02*
X181968D01*
X160000Y42402D02*
Y46339D01*
X158031Y44370D02*
X161969D01*
X180000Y82402D02*
Y86339D01*
X178032Y84370D02*
X181968D01*
X130000Y72402D02*
Y76339D01*
X128032Y74370D02*
X131968D01*
X130000Y117402D02*
Y121339D01*
X128032Y119370D02*
X131968D01*
X410000Y242402D02*
Y246339D01*
X408032Y244370D02*
X411969D01*
X410000Y202402D02*
Y206339D01*
X408032Y204370D02*
X411969D01*
X490000Y222402D02*
Y226339D01*
X488031Y224370D02*
X491968D01*
X500000Y222402D02*
Y226339D01*
X498032Y224370D02*
X501968D01*
X360000Y202402D02*
Y206339D01*
X358032Y204370D02*
X361968D01*
X390000Y222402D02*
Y226339D01*
X388032Y224370D02*
X391968D01*
X520000Y222402D02*
Y226339D01*
X518032Y224370D02*
X521969D01*
X520000Y202402D02*
Y206339D01*
X518032Y204370D02*
X521969D01*
X540000Y242402D02*
Y246339D01*
X538031Y244370D02*
X541968D01*
X520000Y242402D02*
Y246339D01*
X518032Y244370D02*
X521969D01*
X390000Y182402D02*
Y186339D01*
X388032Y184370D02*
X391968D01*
X410000Y182402D02*
Y186339D01*
X408032Y184370D02*
X411969D01*
X380000Y222402D02*
Y226339D01*
X378031Y224370D02*
X381968D01*
X410000Y222402D02*
Y226339D01*
X408032Y224370D02*
X411969D01*
X390000Y242402D02*
Y246339D01*
X388032Y244370D02*
X391968D01*
X380000Y242402D02*
Y246339D01*
X378031Y244370D02*
X381968D01*
X360000Y222402D02*
Y226339D01*
X358032Y224370D02*
X361968D01*
X360000Y242402D02*
Y246339D01*
X358032Y244370D02*
X361968D01*
X490000Y182402D02*
Y186339D01*
X488031Y184370D02*
X491968D01*
X470000Y242402D02*
Y246339D01*
X468032Y244370D02*
X471969D01*
X470000Y222402D02*
Y226339D01*
X468032Y224370D02*
X471969D01*
X470000Y182402D02*
Y186339D01*
X468032Y184370D02*
X471969D01*
X490000Y162402D02*
Y166339D01*
X488031Y164370D02*
X491968D01*
X480000Y162402D02*
Y166339D01*
X478031Y164370D02*
X481968D01*
X493032Y214370D02*
X496969D01*
X495000Y212402D02*
Y216339D01*
X440000Y192402D02*
Y196339D01*
X438031Y194370D02*
X441968D01*
X440000Y237402D02*
Y241339D01*
X438031Y239370D02*
X441968D01*
X230000Y242402D02*
Y246339D01*
X228031Y244370D02*
X231968D01*
X210000Y242402D02*
Y246339D01*
X208032Y244370D02*
X211968D01*
X210000Y202402D02*
Y206339D01*
X208032Y204370D02*
X211968D01*
X210000Y222402D02*
Y226339D01*
X208032Y224370D02*
X211968D01*
X30000Y202402D02*
Y206339D01*
X28032Y204370D02*
X31969D01*
X40000Y202402D02*
Y206339D01*
X38032Y204370D02*
X41969D01*
X50000Y202402D02*
Y206339D01*
X48031Y204370D02*
X51968D01*
X190000Y242402D02*
Y246339D01*
X188031Y244370D02*
X191969D01*
X180000Y242402D02*
Y246339D01*
X178032Y244370D02*
X181968D01*
X70000Y182402D02*
Y186339D01*
X68032Y184370D02*
X71969D01*
X128032Y194370D02*
X131968D01*
X130000Y192402D02*
Y196339D01*
X78031Y184370D02*
X81968D01*
X80000Y182402D02*
Y186339D01*
X98032Y184370D02*
X101969D01*
X100000Y182402D02*
Y186339D01*
X98032Y204370D02*
X101969D01*
X100000Y202402D02*
Y206339D01*
X188031Y224370D02*
X191969D01*
X190000Y222402D02*
Y226339D01*
X178032Y224370D02*
X181968D01*
X180000Y222402D02*
Y226339D01*
X80000Y222402D02*
Y226339D01*
X78031Y224370D02*
X81968D01*
X70000Y202402D02*
Y206339D01*
X68032Y204370D02*
X71969D01*
X68032Y224370D02*
X71969D01*
X70000Y222402D02*
Y226339D01*
X98032Y244370D02*
X101969D01*
X100000Y242402D02*
Y246339D01*
X98032Y224370D02*
X101969D01*
X100000Y222402D02*
Y226339D01*
X68032Y244370D02*
X71969D01*
X70000Y242402D02*
Y246339D01*
X78031Y244370D02*
X81968D01*
X80000Y242402D02*
Y246339D01*
X128032Y239370D02*
X131968D01*
X130000Y237402D02*
Y241339D01*
X48031Y244370D02*
X51968D01*
X50000Y242402D02*
Y246339D01*
X48031Y224370D02*
X51968D01*
X50000Y222402D02*
Y226339D01*
X158031Y244370D02*
X161969D01*
X160000Y242402D02*
Y246339D01*
X158031Y224370D02*
X161969D01*
X160000Y222402D02*
Y226339D01*
X180000Y162402D02*
Y166339D01*
X178032Y164370D02*
X181968D01*
X170000Y162402D02*
Y166339D01*
X168032Y164370D02*
X171968D01*
X158031Y184370D02*
X161969D01*
X160000Y182402D02*
Y186339D01*
X180000Y202402D02*
Y206339D01*
X178032Y204370D02*
X181968D01*
X185000Y212402D02*
Y216339D01*
X183031Y214370D02*
X186969D01*
X75000Y212402D02*
Y216339D01*
X73032Y214370D02*
X76968D01*
X158031Y64370D02*
X161969D01*
X160000Y62402D02*
Y66339D01*
D43*
X405094Y179228D02*
Y249512D01*
X364906D02*
X405094D01*
X364906Y179228D02*
X405094D01*
X364906D02*
Y249512D01*
X495079Y112835D02*
X504921D01*
X495079Y95906D02*
X504921D01*
X495079D02*
Y112835D01*
X504921Y95906D02*
Y112835D01*
X485079D02*
X494921D01*
X485079Y95906D02*
X494921D01*
X485079D02*
Y112835D01*
X494921Y95906D02*
Y112835D01*
X515079D02*
X524921D01*
X515079Y95906D02*
X524921D01*
X515079D02*
Y112835D01*
X524921Y95906D02*
Y112835D01*
X515079Y75906D02*
X524921D01*
X515079Y92835D02*
X524921D01*
Y75906D02*
Y92835D01*
X515079Y75906D02*
Y92835D01*
X535079Y115905D02*
X544921D01*
X535079Y132835D02*
X544921D01*
Y115905D02*
Y132835D01*
X535079Y115905D02*
Y132835D01*
X515079Y115905D02*
X524921D01*
X515079Y132835D02*
X524921D01*
Y115905D02*
Y132835D01*
X515079Y115905D02*
Y132835D01*
X310079Y232835D02*
X319921D01*
X310079Y215905D02*
X319921D01*
X310079D02*
Y232835D01*
X319921Y215905D02*
Y232835D01*
X495079Y115905D02*
X504921D01*
X495079Y132835D02*
X504921D01*
Y115905D02*
Y132835D01*
X495079Y115905D02*
Y132835D01*
X485079Y115905D02*
X494921D01*
X485079Y132835D02*
X494921D01*
Y115905D02*
Y132835D01*
X485079Y115905D02*
Y132835D01*
X405079Y92835D02*
X414921D01*
X405079Y75906D02*
X414921D01*
X405079D02*
Y92835D01*
X414921Y75906D02*
Y92835D01*
X405079Y115905D02*
X414921D01*
X405079Y132835D02*
X414921D01*
Y115905D02*
Y132835D01*
X405079Y115905D02*
Y132835D01*
X355079Y92835D02*
X364921D01*
X355079Y75906D02*
X364921D01*
X355079D02*
Y92835D01*
X364921Y75906D02*
Y92835D01*
X335079Y75906D02*
X344921D01*
X335079Y92835D02*
X344921D01*
Y75906D02*
Y92835D01*
X335079Y75906D02*
Y92835D01*
X345079Y75906D02*
X354921D01*
X345079Y92835D02*
X354921D01*
Y75906D02*
Y92835D01*
X345079Y75906D02*
Y92835D01*
X375079Y72835D02*
X384921D01*
X375079Y55905D02*
X384921D01*
X375079D02*
Y72835D01*
X384921Y55905D02*
Y72835D01*
X375079Y75906D02*
X384921D01*
X375079Y92835D02*
X384921D01*
Y75906D02*
Y92835D01*
X375079Y75906D02*
Y92835D01*
X385079Y112835D02*
X394921D01*
X385079Y95906D02*
X394921D01*
X385079D02*
Y112835D01*
X394921Y95906D02*
Y112835D01*
X385079Y55905D02*
X394921D01*
X385079Y72835D02*
X394921D01*
Y55905D02*
Y72835D01*
X385079Y55905D02*
Y72835D01*
X405079Y55905D02*
X414921D01*
X405079Y72835D02*
X414921D01*
Y55905D02*
Y72835D01*
X405079Y55905D02*
Y72835D01*
X375079Y95906D02*
X384921D01*
X375079Y112835D02*
X384921D01*
Y95906D02*
Y112835D01*
X375079Y95906D02*
Y112835D01*
X405079Y112835D02*
X414921D01*
X405079Y95906D02*
X414921D01*
X405079D02*
Y112835D01*
X414921Y95906D02*
Y112835D01*
X375079Y132835D02*
X384921D01*
X375079Y115905D02*
X384921D01*
X375079D02*
Y132835D01*
X384921Y115905D02*
Y132835D01*
X385079D02*
X394921D01*
X385079Y115905D02*
X394921D01*
X385079D02*
Y132835D01*
X394921Y115905D02*
Y132835D01*
X355079Y95906D02*
X364921D01*
X355079Y112835D02*
X364921D01*
Y95906D02*
Y112835D01*
X355079Y95906D02*
Y112835D01*
Y132835D02*
X364921D01*
X355079Y115905D02*
X364921D01*
X355079D02*
Y132835D01*
X364921Y115905D02*
Y132835D01*
X465079D02*
X474921D01*
X465079Y115905D02*
X474921D01*
X465079D02*
Y132835D01*
X474921Y115905D02*
Y132835D01*
X465079Y95906D02*
X474921D01*
X465079Y112835D02*
X474921D01*
Y95906D02*
Y112835D01*
X465079Y95906D02*
Y112835D01*
Y55905D02*
X474921D01*
X465079Y72835D02*
X474921D01*
Y55905D02*
Y72835D01*
X465079Y55905D02*
Y72835D01*
X485079Y92835D02*
X494921D01*
X485079Y75906D02*
X494921D01*
X485079D02*
Y92835D01*
X494921Y75906D02*
Y92835D01*
X485079Y72835D02*
X494921D01*
X485079Y55905D02*
X494921D01*
X485079D02*
Y72835D01*
X494921Y55905D02*
Y72835D01*
X485079Y35906D02*
X494921D01*
X485079Y52835D02*
X494921D01*
Y35906D02*
Y52835D01*
X485079Y35906D02*
Y52835D01*
X471000Y43386D02*
Y55354D01*
X459016Y43386D02*
Y55354D01*
X471000D01*
X459016Y43386D02*
X471000D01*
Y138386D02*
Y150354D01*
X459016Y138386D02*
Y150354D01*
X471000D01*
X459016Y138386D02*
X471000D01*
X358500Y40886D02*
Y52854D01*
X346516Y40886D02*
Y52854D01*
X358500D01*
X346516Y40886D02*
X358500D01*
X424449Y60394D02*
X455551D01*
X424449Y88346D02*
X455551D01*
X424449Y60394D02*
Y88346D01*
X455551Y60394D02*
Y88346D01*
X424449Y105394D02*
X455551D01*
X424449Y133346D02*
X455551D01*
X424449Y105394D02*
Y133346D01*
X455551Y105394D02*
Y133346D01*
X405094Y59228D02*
Y129512D01*
X364906D02*
X405094D01*
X364906Y59228D02*
X405094D01*
X364906D02*
Y129512D01*
X515095Y59228D02*
Y129512D01*
X474905D02*
X515095D01*
X474905Y59228D02*
X515095D01*
X474905D02*
Y129512D01*
X515630Y93898D02*
X540236D01*
Y134843D01*
X515630D02*
X540236D01*
X515630Y93898D02*
Y134843D01*
Y53898D02*
X540236D01*
Y94842D01*
X515630D02*
X540236D01*
X515630Y53898D02*
Y94842D01*
X95079Y92835D02*
X104921D01*
X95079Y75906D02*
X104921D01*
X95079D02*
Y92835D01*
X104921Y75906D02*
Y92835D01*
X95079Y115905D02*
X104921D01*
X95079Y132835D02*
X104921D01*
Y115905D02*
Y132835D01*
X95079Y115905D02*
Y132835D01*
X35079Y92835D02*
X44921D01*
X35079Y75906D02*
X44921D01*
X35079D02*
Y92835D01*
X44921Y75906D02*
Y92835D01*
X25079D02*
X34921D01*
X25079Y75906D02*
X34921D01*
X25079D02*
Y92835D01*
X34921Y75906D02*
Y92835D01*
X65079Y72835D02*
X74921D01*
X65079Y55905D02*
X74921D01*
X65079D02*
Y72835D01*
X74921Y55905D02*
Y72835D01*
X75079Y55905D02*
X84921D01*
X75079Y72835D02*
X84921D01*
Y55905D02*
Y72835D01*
X75079Y55905D02*
Y72835D01*
X95079Y55905D02*
X104921D01*
X95079Y72835D02*
X104921D01*
Y55905D02*
Y72835D01*
X95079Y55905D02*
Y72835D01*
X65079Y95906D02*
X74921D01*
X65079Y112835D02*
X74921D01*
Y95906D02*
Y112835D01*
X65079Y95906D02*
Y112835D01*
X95079Y112835D02*
X104921D01*
X95079Y95906D02*
X104921D01*
X95079D02*
Y112835D01*
X104921Y95906D02*
Y112835D01*
X185079Y115905D02*
X194921D01*
X185079Y132835D02*
X194921D01*
Y115905D02*
Y132835D01*
X185079Y115905D02*
Y132835D01*
X45079Y92835D02*
X54921D01*
X45079Y75906D02*
X54921D01*
X45079D02*
Y92835D01*
X54921Y75906D02*
Y92835D01*
X175079Y115905D02*
X184921D01*
X175079Y132835D02*
X184921D01*
Y115905D02*
Y132835D01*
X175079Y115905D02*
Y132835D01*
X205079Y115905D02*
X214921D01*
X205079Y132835D02*
X214921D01*
Y115905D02*
Y132835D01*
X205079Y115905D02*
Y132835D01*
X225079Y115905D02*
X234921D01*
X225079Y132835D02*
X234921D01*
Y115905D02*
Y132835D01*
X225079Y115905D02*
Y132835D01*
X205079Y75906D02*
X214921D01*
X205079Y92835D02*
X214921D01*
Y75906D02*
Y92835D01*
X205079Y75906D02*
Y92835D01*
Y112835D02*
X214921D01*
X205079Y95906D02*
X214921D01*
X205079D02*
Y112835D01*
X214921Y95906D02*
Y112835D01*
X65079Y75906D02*
X74921D01*
X65079Y92835D02*
X74921D01*
Y75906D02*
Y92835D01*
X65079Y75906D02*
Y92835D01*
X75079Y112835D02*
X84921D01*
X75079Y95906D02*
X84921D01*
X75079D02*
Y112835D01*
X84921Y95906D02*
Y112835D01*
X175079D02*
X184921D01*
X175079Y95906D02*
X184921D01*
X175079D02*
Y112835D01*
X184921Y95906D02*
Y112835D01*
X185079D02*
X194921D01*
X185079Y95906D02*
X194921D01*
X185079D02*
Y112835D01*
X194921Y95906D02*
Y112835D01*
X205630Y53898D02*
X230236D01*
Y94842D01*
X205630D02*
X230236D01*
X205630Y53898D02*
Y94842D01*
Y93898D02*
X230236D01*
Y134843D01*
X205630D02*
X230236D01*
X205630Y93898D02*
Y134843D01*
X341260Y238110D02*
Y263701D01*
X303543D02*
X341260D01*
X303543D02*
Y267638D01*
X287008D02*
X303543D01*
X287008Y263701D02*
Y267638D01*
X249291Y263701D02*
X287008D01*
X249291Y238110D02*
Y263701D01*
Y238110D02*
X341260D01*
X95095Y59228D02*
Y129512D01*
X54905D02*
X95095D01*
X54905Y59228D02*
X95095D01*
X54905D02*
Y129512D01*
X205095Y59228D02*
Y129512D01*
X164906D02*
X205095D01*
X164906Y59228D02*
X205095D01*
X164906D02*
Y129512D01*
X96000Y40256D02*
Y52224D01*
X84016Y40256D02*
Y52224D01*
X96000D01*
X84016Y40256D02*
X96000D01*
X161000Y135886D02*
Y147854D01*
X149016Y135886D02*
Y147854D01*
X161000D01*
X149016Y135886D02*
X161000D01*
X186000Y40886D02*
Y52854D01*
X174016Y40886D02*
Y52854D01*
X186000D01*
X174016Y40886D02*
X186000D01*
X65079Y132835D02*
X74921D01*
X65079Y115905D02*
X74921D01*
X65079D02*
Y132835D01*
X74921Y115905D02*
Y132835D01*
X75079D02*
X84921D01*
X75079Y115905D02*
X84921D01*
X75079D02*
Y132835D01*
X84921Y115905D02*
Y132835D01*
X45079Y95906D02*
X54921D01*
X45079Y112835D02*
X54921D01*
Y95906D02*
Y112835D01*
X45079Y95906D02*
Y112835D01*
Y132835D02*
X54921D01*
X45079Y115905D02*
X54921D01*
X45079D02*
Y132835D01*
X54921Y115905D02*
Y132835D01*
X155079Y95906D02*
X164921D01*
X155079Y112835D02*
X164921D01*
Y95906D02*
Y112835D01*
X155079Y95906D02*
Y112835D01*
Y132835D02*
X164921D01*
X155079Y115905D02*
X164921D01*
X155079D02*
Y132835D01*
X164921Y115905D02*
Y132835D01*
X175079Y72835D02*
X184921D01*
X175079Y55905D02*
X184921D01*
X175079D02*
Y72835D01*
X184921Y55905D02*
Y72835D01*
X155079Y52835D02*
X164921D01*
X155079Y35906D02*
X164921D01*
X155079D02*
Y52835D01*
X164921Y35906D02*
Y52835D01*
X175079Y92835D02*
X184921D01*
X175079Y75906D02*
X184921D01*
X175079D02*
Y92835D01*
X184921Y75906D02*
Y92835D01*
X114449Y60394D02*
X145551D01*
X114449Y88346D02*
X145551D01*
X114449Y60394D02*
Y88346D01*
X145551Y60394D02*
Y88346D01*
X114449Y105394D02*
X145551D01*
X114449Y133346D02*
X145551D01*
X114449Y105394D02*
Y133346D01*
X145551Y105394D02*
Y133346D01*
X405079Y235906D02*
X414921D01*
X405079Y252835D02*
X414921D01*
Y235906D02*
Y252835D01*
X405079Y235906D02*
Y252835D01*
Y212835D02*
X414921D01*
X405079Y195905D02*
X414921D01*
X405079D02*
Y212835D01*
X414921Y195905D02*
Y212835D01*
X406000Y163386D02*
Y175354D01*
X394016Y163386D02*
Y175354D01*
X406000D01*
X394016Y163386D02*
X406000D01*
X471000Y255886D02*
Y267854D01*
X459016Y255886D02*
Y267854D01*
X471000D01*
X459016Y255886D02*
X471000D01*
X515630Y173898D02*
X540236D01*
Y214843D01*
X515630D02*
X540236D01*
X515630Y173898D02*
Y214843D01*
Y213898D02*
X540236D01*
Y254842D01*
X515630D02*
X540236D01*
X515630Y213898D02*
Y254842D01*
X485079Y232835D02*
X494921D01*
X485079Y215905D02*
X494921D01*
X485079D02*
Y232835D01*
X494921Y215905D02*
Y232835D01*
X495079D02*
X504921D01*
X495079Y215905D02*
X504921D01*
X495079D02*
Y232835D01*
X504921Y215905D02*
Y232835D01*
X355079Y195905D02*
X364921D01*
X355079Y212835D02*
X364921D01*
Y195905D02*
Y212835D01*
X355079Y195905D02*
Y212835D01*
X385079Y232835D02*
X394921D01*
X385079Y215905D02*
X394921D01*
X385079D02*
Y232835D01*
X394921Y215905D02*
Y232835D01*
X515079D02*
X524921D01*
X515079Y215905D02*
X524921D01*
X515079D02*
Y232835D01*
X524921Y215905D02*
Y232835D01*
X515079Y195905D02*
X524921D01*
X515079Y212835D02*
X524921D01*
Y195905D02*
Y212835D01*
X515079Y195905D02*
Y212835D01*
X535079Y235906D02*
X544921D01*
X535079Y252835D02*
X544921D01*
Y235906D02*
Y252835D01*
X535079Y235906D02*
Y252835D01*
X515079Y235906D02*
X524921D01*
X515079Y252835D02*
X524921D01*
Y235906D02*
Y252835D01*
X515079Y235906D02*
Y252835D01*
X385079Y175906D02*
X394921D01*
X385079Y192835D02*
X394921D01*
Y175906D02*
Y192835D01*
X385079Y175906D02*
Y192835D01*
X405079Y175906D02*
X414921D01*
X405079Y192835D02*
X414921D01*
Y175906D02*
Y192835D01*
X405079Y175906D02*
Y192835D01*
X375079Y215905D02*
X384921D01*
X375079Y232835D02*
X384921D01*
Y215905D02*
Y232835D01*
X375079Y215905D02*
Y232835D01*
X405079Y232835D02*
X414921D01*
X405079Y215905D02*
X414921D01*
X405079D02*
Y232835D01*
X414921Y215905D02*
Y232835D01*
X385079Y252835D02*
X394921D01*
X385079Y235906D02*
X394921D01*
X385079D02*
Y252835D01*
X394921Y235906D02*
Y252835D01*
X375079D02*
X384921D01*
X375079Y235906D02*
X384921D01*
X375079D02*
Y252835D01*
X384921Y235906D02*
Y252835D01*
X355079Y215905D02*
X364921D01*
X355079Y232835D02*
X364921D01*
Y215905D02*
Y232835D01*
X355079Y215905D02*
Y232835D01*
Y252835D02*
X364921D01*
X355079Y235906D02*
X364921D01*
X355079D02*
Y252835D01*
X364921Y235906D02*
Y252835D01*
X485079Y192835D02*
X494921D01*
X485079Y175906D02*
X494921D01*
X485079D02*
Y192835D01*
X494921Y175906D02*
Y192835D01*
X465079Y252835D02*
X474921D01*
X465079Y235906D02*
X474921D01*
X465079D02*
Y252835D01*
X474921Y235906D02*
Y252835D01*
X465079Y215905D02*
X474921D01*
X465079Y232835D02*
X474921D01*
Y215905D02*
Y232835D01*
X465079Y215905D02*
Y232835D01*
Y175906D02*
X474921D01*
X465079Y192835D02*
X474921D01*
Y175906D02*
Y192835D01*
X465079Y175906D02*
Y192835D01*
X485079Y172835D02*
X494921D01*
X485079Y155905D02*
X494921D01*
X485079D02*
Y172835D01*
X494921Y155905D02*
Y172835D01*
X475079D02*
X484921D01*
X475079Y155905D02*
X484921D01*
X475079D02*
Y172835D01*
X484921Y155905D02*
Y172835D01*
X471000Y163386D02*
Y175354D01*
X459016Y163386D02*
Y175354D01*
X471000D01*
X459016Y163386D02*
X471000D01*
X515095Y179228D02*
Y249512D01*
X474905D02*
X515095D01*
X474905Y179228D02*
X515095D01*
X474905D02*
Y249512D01*
X424449Y180394D02*
X455551D01*
X424449Y208347D02*
X455551D01*
X424449Y180394D02*
Y208347D01*
X455551Y180394D02*
Y208347D01*
X424449Y225394D02*
X455551D01*
X424449Y253346D02*
X455551D01*
X424449Y225394D02*
Y253346D01*
X455551Y225394D02*
Y253346D01*
X205630Y213898D02*
X230236D01*
Y254842D01*
X205630D02*
X230236D01*
X205630Y213898D02*
Y254842D01*
Y173898D02*
X230236D01*
Y214843D01*
X205630D02*
X230236D01*
X205630Y173898D02*
Y214843D01*
X225079Y235906D02*
X234921D01*
X225079Y252835D02*
X234921D01*
Y235906D02*
Y252835D01*
X225079Y235906D02*
Y252835D01*
X205079Y235906D02*
X214921D01*
X205079Y252835D02*
X214921D01*
Y235906D02*
Y252835D01*
X205079Y235906D02*
Y252835D01*
Y195905D02*
X214921D01*
X205079Y212835D02*
X214921D01*
Y195905D02*
Y212835D01*
X205079Y195905D02*
Y212835D01*
Y232835D02*
X214921D01*
X205079Y215905D02*
X214921D01*
X205079D02*
Y232835D01*
X214921Y215905D02*
Y232835D01*
X25079Y212835D02*
X34921D01*
X25079Y195905D02*
X34921D01*
X25079D02*
Y212835D01*
X34921Y195905D02*
Y212835D01*
X35079D02*
X44921D01*
X35079Y195905D02*
X44921D01*
X35079D02*
Y212835D01*
X44921Y195905D02*
Y212835D01*
X45079D02*
X54921D01*
X45079Y195905D02*
X54921D01*
X45079D02*
Y212835D01*
X54921Y195905D02*
Y212835D01*
X185079Y235906D02*
X194921D01*
X185079Y252835D02*
X194921D01*
Y235906D02*
Y252835D01*
X185079Y235906D02*
Y252835D01*
X175079Y235906D02*
X184921D01*
X175079Y252835D02*
X184921D01*
Y235906D02*
Y252835D01*
X175079Y235906D02*
Y252835D01*
X65079Y192835D02*
X74921D01*
X65079Y175906D02*
X74921D01*
X65079D02*
Y192835D01*
X74921Y175906D02*
Y192835D01*
X96000Y163386D02*
Y175354D01*
X84016Y163386D02*
Y175354D01*
X96000D01*
X84016Y163386D02*
X96000D01*
X151516Y255256D02*
X163500D01*
X151516Y267224D02*
X163500D01*
X151516Y255256D02*
Y267224D01*
X163500Y255256D02*
Y267224D01*
X206000Y158386D02*
Y170354D01*
X194016Y158386D02*
Y170354D01*
X206000D01*
X194016Y158386D02*
X206000D01*
X145551Y180394D02*
Y208347D01*
X114449Y180394D02*
Y208347D01*
X145551D01*
X114449Y180394D02*
X145551D01*
X75079Y175906D02*
Y192835D01*
X84921Y175906D02*
Y192835D01*
X75079D02*
X84921D01*
X75079Y175906D02*
X84921D01*
X95079D02*
Y192835D01*
X104921Y175906D02*
Y192835D01*
X95079D02*
X104921D01*
X95079Y175906D02*
X104921D01*
Y195905D02*
Y212835D01*
X95079Y195905D02*
Y212835D01*
Y195905D02*
X104921D01*
X95079Y212835D02*
X104921D01*
X194921Y215905D02*
Y232835D01*
X185079Y215905D02*
Y232835D01*
Y215905D02*
X194921D01*
X185079Y232835D02*
X194921D01*
X184921Y215905D02*
Y232835D01*
X175079Y215905D02*
Y232835D01*
Y215905D02*
X184921D01*
X175079Y232835D02*
X184921D01*
X75079D02*
X84921D01*
X75079Y215905D02*
X84921D01*
X75079D02*
Y232835D01*
X84921Y215905D02*
Y232835D01*
X65079Y195905D02*
X74921D01*
X65079Y212835D02*
X74921D01*
Y195905D02*
Y212835D01*
X65079Y195905D02*
Y212835D01*
Y215905D02*
Y232835D01*
X74921Y215905D02*
Y232835D01*
X65079D02*
X74921D01*
X65079Y215905D02*
X74921D01*
X95079Y235906D02*
Y252835D01*
X104921Y235906D02*
Y252835D01*
X95079D02*
X104921D01*
X95079Y235906D02*
X104921D01*
Y215905D02*
Y232835D01*
X95079Y215905D02*
Y232835D01*
Y215905D02*
X104921D01*
X95079Y232835D02*
X104921D01*
X74921Y235906D02*
Y252835D01*
X65079Y235906D02*
Y252835D01*
Y235906D02*
X74921D01*
X65079Y252835D02*
X74921D01*
X84921Y235906D02*
Y252835D01*
X75079Y235906D02*
Y252835D01*
Y235906D02*
X84921D01*
X75079Y252835D02*
X84921D01*
X145551Y225394D02*
Y253346D01*
X114449Y225394D02*
Y253346D01*
X145551D01*
X114449Y225394D02*
X145551D01*
X54921Y235906D02*
Y252835D01*
X45079Y235906D02*
Y252835D01*
Y235906D02*
X54921D01*
X45079Y252835D02*
X54921D01*
X45079Y215905D02*
Y232835D01*
X54921Y215905D02*
Y232835D01*
X45079D02*
X54921D01*
X45079Y215905D02*
X54921D01*
X164921Y235906D02*
Y252835D01*
X155079Y235906D02*
Y252835D01*
Y235906D02*
X164921D01*
X155079Y252835D02*
X164921D01*
X155079Y215905D02*
Y232835D01*
X164921Y215905D02*
Y232835D01*
X155079D02*
X164921D01*
X155079Y215905D02*
X164921D01*
X175079Y172835D02*
X184921D01*
X175079Y155905D02*
X184921D01*
X175079D02*
Y172835D01*
X184921Y155905D02*
Y172835D01*
X165079D02*
X174921D01*
X165079Y155905D02*
X174921D01*
X165079D02*
Y172835D01*
X174921Y155905D02*
Y172835D01*
X155079Y175906D02*
Y192835D01*
X164921Y175906D02*
Y192835D01*
X155079D02*
X164921D01*
X155079Y175906D02*
X164921D01*
X175079Y212835D02*
X184921D01*
X175079Y195905D02*
X184921D01*
X175079D02*
Y212835D01*
X184921Y195905D02*
Y212835D01*
X164906Y179228D02*
Y249512D01*
Y179228D02*
X205095D01*
X164906Y249512D02*
X205095D01*
Y179228D02*
Y249512D01*
X54905Y179228D02*
Y249512D01*
Y179228D02*
X95095D01*
X54905Y249512D02*
X95095D01*
Y179228D02*
Y249512D01*
X155079Y55905D02*
Y72835D01*
X164921Y55905D02*
Y72835D01*
X155079D02*
X164921D01*
X155079Y55905D02*
X164921D01*
M02*
