G04*
G04 #@! TF.GenerationSoftware,Altium Limited,Altium Designer,20.0.14 (345)*
G04*
G04 Layer_Color=16711935*
%FSLAX25Y25*%
%MOIN*%
G70*
G01*
G75*
%ADD11C,0.00787*%
%ADD12C,0.00500*%
%ADD42C,0.00394*%
D11*
X457835Y49370D02*
X457047D01*
X457835D01*
Y144370D02*
X457047D01*
X457835D01*
X345335Y46870D02*
X344547D01*
X345335D01*
X530394Y137008D02*
X529606D01*
X530394D01*
Y97008D02*
X529606D01*
X530394D01*
X220394D02*
X219606D01*
X220394D01*
Y137008D02*
X219606D01*
X220394D01*
X247638Y256417D02*
X246850D01*
X247638D01*
X82835Y46240D02*
X82047D01*
X82835D01*
X147835Y141870D02*
X147047D01*
X147835D01*
X172835Y46870D02*
X172047D01*
X172835D01*
X392835Y169370D02*
X392047D01*
X392835D01*
X457835Y261870D02*
X457047D01*
X457835D01*
X530394Y217008D02*
X529606D01*
X530394D01*
Y257008D02*
X529606D01*
X530394D01*
X457835Y169370D02*
X457047D01*
X457835D01*
X220394Y257008D02*
X219606D01*
X220394D01*
Y217008D02*
X219606D01*
X220394D01*
X82835Y169370D02*
X82047D01*
X82835D01*
X150335Y261240D02*
X149547D01*
X150335D01*
X192835Y164370D02*
X192047D01*
X192835D01*
X260000Y51870D02*
Y229370D01*
Y51870D02*
X330000D01*
Y229370D01*
X260000D02*
X330000D01*
D12*
X460000Y44370D02*
Y54370D01*
X470000D01*
Y46870D02*
Y51870D01*
X460000Y44370D02*
X470000D01*
Y46870D01*
Y51870D02*
Y54370D01*
X460000Y139370D02*
Y149370D01*
X470000D01*
Y141870D02*
Y146870D01*
X460000Y139370D02*
X470000D01*
Y141870D01*
Y146870D02*
Y149370D01*
X347500Y41870D02*
Y51870D01*
X357500D01*
Y44370D02*
Y49370D01*
X347500Y41870D02*
X357500D01*
Y44370D01*
Y49370D02*
Y51870D01*
X516614Y94882D02*
X539252D01*
Y133858D01*
X516614D02*
X539252D01*
X516614Y94882D02*
Y133858D01*
Y54882D02*
X539252D01*
Y93858D01*
X516614D02*
X539252D01*
X516614Y54882D02*
Y93858D01*
X206614Y54882D02*
X229252D01*
Y93858D01*
X206614D02*
X229252D01*
X206614Y54882D02*
Y93858D01*
Y94882D02*
X229252D01*
Y133858D01*
X206614D02*
X229252D01*
X206614Y94882D02*
Y133858D01*
X287992Y262717D02*
Y266653D01*
X302559D01*
Y262717D02*
Y266653D01*
X250276Y239094D02*
X340276D01*
X250276D02*
Y262717D01*
X287992D01*
X302559D01*
X340276D01*
Y239094D02*
Y262717D01*
X85000Y41240D02*
Y51240D01*
X95000D01*
Y43740D02*
Y48740D01*
X85000Y41240D02*
X95000D01*
Y43740D01*
Y48740D02*
Y51240D01*
X150000Y136870D02*
Y146870D01*
X160000D01*
Y139370D02*
Y144370D01*
X150000Y136870D02*
X160000D01*
Y139370D01*
Y144370D02*
Y146870D01*
X175000Y41870D02*
Y51870D01*
X185000D01*
Y44370D02*
Y49370D01*
X175000Y41870D02*
X185000D01*
Y44370D01*
Y49370D02*
Y51870D01*
X395000Y164370D02*
Y174370D01*
X405000D01*
Y166870D02*
Y171870D01*
X395000Y164370D02*
X405000D01*
Y166870D01*
Y171870D02*
Y174370D01*
X460000Y256870D02*
Y266870D01*
X470000D01*
Y259370D02*
Y264370D01*
X460000Y256870D02*
X470000D01*
Y259370D01*
Y264370D02*
Y266870D01*
X516614Y174882D02*
X539252D01*
Y213858D01*
X516614D02*
X539252D01*
X516614Y174882D02*
Y213858D01*
Y214882D02*
X539252D01*
Y253858D01*
X516614D02*
X539252D01*
X516614Y214882D02*
Y253858D01*
X460000Y164370D02*
Y174370D01*
X470000D01*
Y166870D02*
Y171870D01*
X460000Y164370D02*
X470000D01*
Y166870D01*
Y171870D02*
Y174370D01*
X206614Y214882D02*
X229252D01*
Y253858D01*
X206614D02*
X229252D01*
X206614Y214882D02*
Y253858D01*
Y174882D02*
X229252D01*
Y213858D01*
X206614D02*
X229252D01*
X206614Y174882D02*
Y213858D01*
X85000Y164370D02*
Y174370D01*
X95000D01*
Y166870D02*
Y171870D01*
X85000Y164370D02*
X95000D01*
Y166870D01*
Y171870D02*
Y174370D01*
X162500Y263740D02*
Y266240D01*
Y256240D02*
Y258740D01*
X152500Y256240D02*
X162500D01*
Y258740D02*
Y263740D01*
X152500Y266240D02*
X162500D01*
X152500Y256240D02*
Y266240D01*
X195000Y159370D02*
Y169370D01*
X205000D01*
Y161870D02*
Y166870D01*
X195000Y159370D02*
X205000D01*
Y161870D01*
Y166870D02*
Y169370D01*
D42*
X447284Y83819D02*
X447020Y84803D01*
X446299Y85524D01*
X445315Y85787D01*
X444331Y85524D01*
X443610Y84803D01*
X443347Y83819D01*
X443610Y82835D01*
X444331Y82114D01*
X445315Y81850D01*
X446299Y82114D01*
X447020Y82835D01*
X447284Y83819D01*
Y128819D02*
X447020Y129803D01*
X446299Y130524D01*
X445315Y130787D01*
X444331Y130524D01*
X443610Y129803D01*
X443347Y128819D01*
X443610Y127835D01*
X444331Y127114D01*
X445315Y126850D01*
X446299Y127114D01*
X447020Y127835D01*
X447284Y128819D01*
X137284Y83819D02*
X137020Y84803D01*
X136299Y85524D01*
X135315Y85787D01*
X134331Y85524D01*
X133610Y84803D01*
X133346Y83819D01*
X133610Y82835D01*
X134331Y82114D01*
X135315Y81850D01*
X136299Y82114D01*
X137020Y82835D01*
X137284Y83819D01*
Y128819D02*
X137020Y129803D01*
X136299Y130524D01*
X135315Y130787D01*
X134331Y130524D01*
X133610Y129803D01*
X133346Y128819D01*
X133610Y127835D01*
X134331Y127114D01*
X135315Y126850D01*
X136299Y127114D01*
X137020Y127835D01*
X137284Y128819D01*
X447284Y203819D02*
X447020Y204803D01*
X446299Y205524D01*
X445315Y205787D01*
X444331Y205524D01*
X443610Y204803D01*
X443347Y203819D01*
X443610Y202835D01*
X444331Y202114D01*
X445315Y201850D01*
X446299Y202114D01*
X447020Y202835D01*
X447284Y203819D01*
Y248819D02*
X447020Y249803D01*
X446299Y250524D01*
X445315Y250787D01*
X444331Y250524D01*
X443610Y249803D01*
X443347Y248819D01*
X443610Y247835D01*
X444331Y247114D01*
X445315Y246850D01*
X446299Y247114D01*
X447020Y247835D01*
X447284Y248819D01*
X137284Y203819D02*
X137020Y204803D01*
X136299Y205524D01*
X135315Y205787D01*
X134331Y205524D01*
X133610Y204803D01*
X133346Y203819D01*
X133610Y202835D01*
X134331Y202114D01*
X135315Y201850D01*
X136299Y202114D01*
X137020Y202835D01*
X137284Y203819D01*
Y248819D02*
X137020Y249803D01*
X136299Y250524D01*
X135315Y250787D01*
X134331Y250524D01*
X133610Y249803D01*
X133346Y248819D01*
X133610Y247835D01*
X134331Y247114D01*
X135315Y246850D01*
X136299Y247114D01*
X137020Y247835D01*
X137284Y248819D01*
X365300Y179620D02*
Y249120D01*
X404700Y179620D02*
Y249120D01*
X365300Y179620D02*
X404700D01*
X365300Y249120D02*
X404700D01*
X497342Y108504D02*
X502658D01*
X497342Y100236D02*
X502658D01*
X497342D02*
Y108504D01*
X502658Y100236D02*
Y108504D01*
X487343D02*
X492658D01*
X487343Y100236D02*
X492658D01*
X487343D02*
Y108504D01*
X492658Y100236D02*
Y108504D01*
X517343D02*
X522657D01*
X517343Y100236D02*
X522657D01*
X517343D02*
Y108504D01*
X522657Y100236D02*
Y108504D01*
X517343Y80236D02*
X522657D01*
X517343Y88504D02*
X522657D01*
Y80236D02*
Y88504D01*
X517343Y80236D02*
Y88504D01*
X537343Y120236D02*
X542658D01*
X537343Y128504D02*
X542658D01*
Y120236D02*
Y128504D01*
X537343Y120236D02*
Y128504D01*
X517343Y120236D02*
X522657D01*
X517343Y128504D02*
X522657D01*
Y120236D02*
Y128504D01*
X517343Y120236D02*
Y128504D01*
X312343Y228504D02*
X317657D01*
X312343Y220236D02*
X317657D01*
X312343D02*
Y228504D01*
X317657Y220236D02*
Y228504D01*
X497342Y120236D02*
X502658D01*
X497342Y128504D02*
X502658D01*
Y120236D02*
Y128504D01*
X497342Y120236D02*
Y128504D01*
X487343Y120236D02*
X492658D01*
X487343Y128504D02*
X492658D01*
Y120236D02*
Y128504D01*
X487343Y120236D02*
Y128504D01*
X407342Y88504D02*
X412657D01*
X407342Y80236D02*
X412657D01*
X407342D02*
Y88504D01*
X412657Y80236D02*
Y88504D01*
X407342Y120236D02*
X412657D01*
X407342Y128504D02*
X412657D01*
Y120236D02*
Y128504D01*
X407342Y120236D02*
Y128504D01*
X357343Y88504D02*
X362657D01*
X357343Y80236D02*
X362657D01*
X357343D02*
Y88504D01*
X362657Y80236D02*
Y88504D01*
X337343Y80236D02*
X342657D01*
X337343Y88504D02*
X342657D01*
Y80236D02*
Y88504D01*
X337343Y80236D02*
Y88504D01*
X347342Y80236D02*
X352658D01*
X347342Y88504D02*
X352658D01*
Y80236D02*
Y88504D01*
X347342Y80236D02*
Y88504D01*
X377343Y68504D02*
X382658D01*
X377343Y60236D02*
X382658D01*
X377343D02*
Y68504D01*
X382658Y60236D02*
Y68504D01*
X377343Y80236D02*
X382658D01*
X377343Y88504D02*
X382658D01*
Y80236D02*
Y88504D01*
X377343Y80236D02*
Y88504D01*
X387343Y108504D02*
X392657D01*
X387343Y100236D02*
X392657D01*
X387343D02*
Y108504D01*
X392657Y100236D02*
Y108504D01*
X387343Y60236D02*
X392657D01*
X387343Y68504D02*
X392657D01*
Y60236D02*
Y68504D01*
X387343Y60236D02*
Y68504D01*
X407342Y60236D02*
X412657D01*
X407342Y68504D02*
X412657D01*
Y60236D02*
Y68504D01*
X407342Y60236D02*
Y68504D01*
X377343Y100236D02*
X382658D01*
X377343Y108504D02*
X382658D01*
Y100236D02*
Y108504D01*
X377343Y100236D02*
Y108504D01*
X407342D02*
X412657D01*
X407342Y100236D02*
X412657D01*
X407342D02*
Y108504D01*
X412657Y100236D02*
Y108504D01*
X377343Y128504D02*
X382658D01*
X377343Y120236D02*
X382658D01*
X377343D02*
Y128504D01*
X382658Y120236D02*
Y128504D01*
X387343D02*
X392657D01*
X387343Y120236D02*
X392657D01*
X387343D02*
Y128504D01*
X392657Y120236D02*
Y128504D01*
X357343Y100236D02*
X362657D01*
X357343Y108504D02*
X362657D01*
Y100236D02*
Y108504D01*
X357343Y100236D02*
Y108504D01*
Y128504D02*
X362657D01*
X357343Y120236D02*
X362657D01*
X357343D02*
Y128504D01*
X362657Y120236D02*
Y128504D01*
X467343D02*
X472657D01*
X467343Y120236D02*
X472657D01*
X467343D02*
Y128504D01*
X472657Y120236D02*
Y128504D01*
X467343Y100236D02*
X472657D01*
X467343Y108504D02*
X472657D01*
Y100236D02*
Y108504D01*
X467343Y100236D02*
Y108504D01*
Y60236D02*
X472657D01*
X467343Y68504D02*
X472657D01*
Y60236D02*
Y68504D01*
X467343Y60236D02*
Y68504D01*
X487343Y88504D02*
X492658D01*
X487343Y80236D02*
X492658D01*
X487343D02*
Y88504D01*
X492658Y80236D02*
Y88504D01*
X487343Y68504D02*
X492658D01*
X487343Y60236D02*
X492658D01*
X487343D02*
Y68504D01*
X492658Y60236D02*
Y68504D01*
X487343Y40236D02*
X492658D01*
X487343Y48504D02*
X492658D01*
Y40236D02*
Y48504D01*
X487343Y40236D02*
Y48504D01*
X431142Y61378D02*
X448858D01*
X431142Y87362D02*
X448858D01*
X431142Y61378D02*
Y87362D01*
X448858Y61378D02*
Y87362D01*
X431142Y106378D02*
X448858D01*
X431142Y132362D02*
X448858D01*
X431142Y106378D02*
Y132362D01*
X448858Y106378D02*
Y132362D01*
X365300Y59620D02*
Y129120D01*
X404700Y59620D02*
Y129120D01*
X365300Y59620D02*
X404700D01*
X365300Y129120D02*
X404700D01*
X475300Y59620D02*
Y129120D01*
X514700Y59620D02*
Y129120D01*
X475300Y59620D02*
X514700D01*
X475300Y129120D02*
X514700D01*
X97342Y88504D02*
X102657D01*
X97342Y80236D02*
X102657D01*
X97342D02*
Y88504D01*
X102657Y80236D02*
Y88504D01*
X97342Y120236D02*
X102657D01*
X97342Y128504D02*
X102657D01*
Y120236D02*
Y128504D01*
X97342Y120236D02*
Y128504D01*
X37343Y88504D02*
X42658D01*
X37343Y80236D02*
X42658D01*
X37343D02*
Y88504D01*
X42658Y80236D02*
Y88504D01*
X27343D02*
X32658D01*
X27343Y80236D02*
X32658D01*
X27343D02*
Y88504D01*
X32658Y80236D02*
Y88504D01*
X67343Y68504D02*
X72658D01*
X67343Y60236D02*
X72658D01*
X67343D02*
Y68504D01*
X72658Y60236D02*
Y68504D01*
X77342Y60236D02*
X82657D01*
X77342Y68504D02*
X82657D01*
Y60236D02*
Y68504D01*
X77342Y60236D02*
Y68504D01*
X97342Y60236D02*
X102657D01*
X97342Y68504D02*
X102657D01*
Y60236D02*
Y68504D01*
X97342Y60236D02*
Y68504D01*
X67343Y100236D02*
X72658D01*
X67343Y108504D02*
X72658D01*
Y100236D02*
Y108504D01*
X67343Y100236D02*
Y108504D01*
X97342D02*
X102657D01*
X97342Y100236D02*
X102657D01*
X97342D02*
Y108504D01*
X102657Y100236D02*
Y108504D01*
X187343Y120236D02*
X192657D01*
X187343Y128504D02*
X192657D01*
Y120236D02*
Y128504D01*
X187343Y120236D02*
Y128504D01*
X47343Y88504D02*
X52658D01*
X47343Y80236D02*
X52658D01*
X47343D02*
Y88504D01*
X52658Y80236D02*
Y88504D01*
X177342Y120236D02*
X182658D01*
X177342Y128504D02*
X182658D01*
Y120236D02*
Y128504D01*
X177342Y120236D02*
Y128504D01*
X207343Y120236D02*
X212657D01*
X207343Y128504D02*
X212657D01*
Y120236D02*
Y128504D01*
X207343Y120236D02*
Y128504D01*
X227343Y120236D02*
X232658D01*
X227343Y128504D02*
X232658D01*
Y120236D02*
Y128504D01*
X227343Y120236D02*
Y128504D01*
X207343Y80236D02*
X212657D01*
X207343Y88504D02*
X212657D01*
Y80236D02*
Y88504D01*
X207343Y80236D02*
Y88504D01*
Y108504D02*
X212657D01*
X207343Y100236D02*
X212657D01*
X207343D02*
Y108504D01*
X212657Y100236D02*
Y108504D01*
X67343Y80236D02*
X72658D01*
X67343Y88504D02*
X72658D01*
Y80236D02*
Y88504D01*
X67343Y80236D02*
Y88504D01*
X77342Y108504D02*
X82657D01*
X77342Y100236D02*
X82657D01*
X77342D02*
Y108504D01*
X82657Y100236D02*
Y108504D01*
X177342D02*
X182658D01*
X177342Y100236D02*
X182658D01*
X177342D02*
Y108504D01*
X182658Y100236D02*
Y108504D01*
X187343D02*
X192657D01*
X187343Y100236D02*
X192657D01*
X187343D02*
Y108504D01*
X192657Y100236D02*
Y108504D01*
X55300Y59620D02*
Y129120D01*
X94700Y59620D02*
Y129120D01*
X55300Y59620D02*
X94700D01*
X55300Y129120D02*
X94700D01*
X165300Y59620D02*
Y129120D01*
X204700Y59620D02*
Y129120D01*
X165300Y59620D02*
X204700D01*
X165300Y129120D02*
X204700D01*
X67343Y128504D02*
X72658D01*
X67343Y120236D02*
X72658D01*
X67343D02*
Y128504D01*
X72658Y120236D02*
Y128504D01*
X77342D02*
X82657D01*
X77342Y120236D02*
X82657D01*
X77342D02*
Y128504D01*
X82657Y120236D02*
Y128504D01*
X47343Y100236D02*
X52658D01*
X47343Y108504D02*
X52658D01*
Y100236D02*
Y108504D01*
X47343Y100236D02*
Y108504D01*
Y128504D02*
X52658D01*
X47343Y120236D02*
X52658D01*
X47343D02*
Y128504D01*
X52658Y120236D02*
Y128504D01*
X157343Y100236D02*
X162657D01*
X157343Y108504D02*
X162657D01*
Y100236D02*
Y108504D01*
X157343Y100236D02*
Y108504D01*
Y128504D02*
X162657D01*
X157343Y120236D02*
X162657D01*
X157343D02*
Y128504D01*
X162657Y120236D02*
Y128504D01*
X177342Y68504D02*
X182658D01*
X177342Y60236D02*
X182658D01*
X177342D02*
Y68504D01*
X182658Y60236D02*
Y68504D01*
X157343Y48504D02*
X162657D01*
X157343Y40236D02*
X162657D01*
X157343D02*
Y48504D01*
X162657Y40236D02*
Y48504D01*
X177342Y88504D02*
X182658D01*
X177342Y80236D02*
X182658D01*
X177342D02*
Y88504D01*
X182658Y80236D02*
Y88504D01*
X121142Y61378D02*
X138858D01*
X121142Y87362D02*
X138858D01*
X121142Y61378D02*
Y87362D01*
X138858Y61378D02*
Y87362D01*
X121142Y106378D02*
X138858D01*
X121142Y132362D02*
X138858D01*
X121142Y106378D02*
Y132362D01*
X138858Y106378D02*
Y132362D01*
X407342Y240236D02*
X412657D01*
X407342Y248504D02*
X412657D01*
Y240236D02*
Y248504D01*
X407342Y240236D02*
Y248504D01*
Y208504D02*
X412657D01*
X407342Y200236D02*
X412657D01*
X407342D02*
Y208504D01*
X412657Y200236D02*
Y208504D01*
X487343Y228504D02*
X492658D01*
X487343Y220236D02*
X492658D01*
X487343D02*
Y228504D01*
X492658Y220236D02*
Y228504D01*
X497342D02*
X502658D01*
X497342Y220236D02*
X502658D01*
X497342D02*
Y228504D01*
X502658Y220236D02*
Y228504D01*
X357343Y200236D02*
X362657D01*
X357343Y208504D02*
X362657D01*
Y200236D02*
Y208504D01*
X357343Y200236D02*
Y208504D01*
X387343Y228504D02*
X392657D01*
X387343Y220236D02*
X392657D01*
X387343D02*
Y228504D01*
X392657Y220236D02*
Y228504D01*
X517343D02*
X522657D01*
X517343Y220236D02*
X522657D01*
X517343D02*
Y228504D01*
X522657Y220236D02*
Y228504D01*
X517343Y200236D02*
X522657D01*
X517343Y208504D02*
X522657D01*
Y200236D02*
Y208504D01*
X517343Y200236D02*
Y208504D01*
X537343Y240236D02*
X542658D01*
X537343Y248504D02*
X542658D01*
Y240236D02*
Y248504D01*
X537343Y240236D02*
Y248504D01*
X517343Y240236D02*
X522657D01*
X517343Y248504D02*
X522657D01*
Y240236D02*
Y248504D01*
X517343Y240236D02*
Y248504D01*
X387343Y180236D02*
X392657D01*
X387343Y188504D02*
X392657D01*
Y180236D02*
Y188504D01*
X387343Y180236D02*
Y188504D01*
X407342Y180236D02*
X412657D01*
X407342Y188504D02*
X412657D01*
Y180236D02*
Y188504D01*
X407342Y180236D02*
Y188504D01*
X377343Y220236D02*
X382658D01*
X377343Y228504D02*
X382658D01*
Y220236D02*
Y228504D01*
X377343Y220236D02*
Y228504D01*
X407342D02*
X412657D01*
X407342Y220236D02*
X412657D01*
X407342D02*
Y228504D01*
X412657Y220236D02*
Y228504D01*
X387343Y248504D02*
X392657D01*
X387343Y240236D02*
X392657D01*
X387343D02*
Y248504D01*
X392657Y240236D02*
Y248504D01*
X377343D02*
X382658D01*
X377343Y240236D02*
X382658D01*
X377343D02*
Y248504D01*
X382658Y240236D02*
Y248504D01*
X357343Y220236D02*
X362657D01*
X357343Y228504D02*
X362657D01*
Y220236D02*
Y228504D01*
X357343Y220236D02*
Y228504D01*
Y248504D02*
X362657D01*
X357343Y240236D02*
X362657D01*
X357343D02*
Y248504D01*
X362657Y240236D02*
Y248504D01*
X487343Y188504D02*
X492658D01*
X487343Y180236D02*
X492658D01*
X487343D02*
Y188504D01*
X492658Y180236D02*
Y188504D01*
X467343Y248504D02*
X472657D01*
X467343Y240236D02*
X472657D01*
X467343D02*
Y248504D01*
X472657Y240236D02*
Y248504D01*
X467343Y220236D02*
X472657D01*
X467343Y228504D02*
X472657D01*
Y220236D02*
Y228504D01*
X467343Y220236D02*
Y228504D01*
Y180236D02*
X472657D01*
X467343Y188504D02*
X472657D01*
Y180236D02*
Y188504D01*
X467343Y180236D02*
Y188504D01*
X487343Y168504D02*
X492658D01*
X487343Y160236D02*
X492658D01*
X487343D02*
Y168504D01*
X492658Y160236D02*
Y168504D01*
X477343D02*
X482657D01*
X477343Y160236D02*
X482657D01*
X477343D02*
Y168504D01*
X482657Y160236D02*
Y168504D01*
X475300Y179620D02*
Y249120D01*
X514700Y179620D02*
Y249120D01*
X475300Y179620D02*
X514700D01*
X475300Y249120D02*
X514700D01*
X431142Y181378D02*
X448858D01*
X431142Y207362D02*
X448858D01*
X431142Y181378D02*
Y207362D01*
X448858Y181378D02*
Y207362D01*
X431142Y226378D02*
X448858D01*
X431142Y252362D02*
X448858D01*
X431142Y226378D02*
Y252362D01*
X448858Y226378D02*
Y252362D01*
X227343Y240236D02*
X232658D01*
X227343Y248504D02*
X232658D01*
Y240236D02*
Y248504D01*
X227343Y240236D02*
Y248504D01*
X207343Y240236D02*
X212657D01*
X207343Y248504D02*
X212657D01*
Y240236D02*
Y248504D01*
X207343Y240236D02*
Y248504D01*
Y200236D02*
X212657D01*
X207343Y208504D02*
X212657D01*
Y200236D02*
Y208504D01*
X207343Y200236D02*
Y208504D01*
Y228504D02*
X212657D01*
X207343Y220236D02*
X212657D01*
X207343D02*
Y228504D01*
X212657Y220236D02*
Y228504D01*
X27343Y208504D02*
X32658D01*
X27343Y200236D02*
X32658D01*
X27343D02*
Y208504D01*
X32658Y200236D02*
Y208504D01*
X37343D02*
X42658D01*
X37343Y200236D02*
X42658D01*
X37343D02*
Y208504D01*
X42658Y200236D02*
Y208504D01*
X47343D02*
X52658D01*
X47343Y200236D02*
X52658D01*
X47343D02*
Y208504D01*
X52658Y200236D02*
Y208504D01*
X187343Y240236D02*
X192657D01*
X187343Y248504D02*
X192657D01*
Y240236D02*
Y248504D01*
X187343Y240236D02*
Y248504D01*
X177342Y240236D02*
X182658D01*
X177342Y248504D02*
X182658D01*
Y240236D02*
Y248504D01*
X177342Y240236D02*
Y248504D01*
X67343Y188504D02*
X72658D01*
X67343Y180236D02*
X72658D01*
X67343D02*
Y188504D01*
X72658Y180236D02*
Y188504D01*
X138858Y181378D02*
Y207362D01*
X121142Y181378D02*
Y207362D01*
X138858D01*
X121142Y181378D02*
X138858D01*
X77342Y180236D02*
Y188504D01*
X82657Y180236D02*
Y188504D01*
X77342D02*
X82657D01*
X77342Y180236D02*
X82657D01*
X97342D02*
Y188504D01*
X102657Y180236D02*
Y188504D01*
X97342D02*
X102657D01*
X97342Y180236D02*
X102657D01*
Y200236D02*
Y208504D01*
X97342Y200236D02*
Y208504D01*
Y200236D02*
X102657D01*
X97342Y208504D02*
X102657D01*
X192657Y220236D02*
Y228504D01*
X187343Y220236D02*
Y228504D01*
Y220236D02*
X192657D01*
X187343Y228504D02*
X192657D01*
X182658Y220236D02*
Y228504D01*
X177342Y220236D02*
Y228504D01*
Y220236D02*
X182658D01*
X177342Y228504D02*
X182658D01*
X77342D02*
X82657D01*
X77342Y220236D02*
X82657D01*
X77342D02*
Y228504D01*
X82657Y220236D02*
Y228504D01*
X67343Y200236D02*
X72658D01*
X67343Y208504D02*
X72658D01*
Y200236D02*
Y208504D01*
X67343Y200236D02*
Y208504D01*
Y220236D02*
Y228504D01*
X72658Y220236D02*
Y228504D01*
X67343D02*
X72658D01*
X67343Y220236D02*
X72658D01*
X97342Y240236D02*
Y248504D01*
X102657Y240236D02*
Y248504D01*
X97342D02*
X102657D01*
X97342Y240236D02*
X102657D01*
Y220236D02*
Y228504D01*
X97342Y220236D02*
Y228504D01*
Y220236D02*
X102657D01*
X97342Y228504D02*
X102657D01*
X72658Y240236D02*
Y248504D01*
X67343Y240236D02*
Y248504D01*
Y240236D02*
X72658D01*
X67343Y248504D02*
X72658D01*
X82657Y240236D02*
Y248504D01*
X77342Y240236D02*
Y248504D01*
Y240236D02*
X82657D01*
X77342Y248504D02*
X82657D01*
X138858Y226378D02*
Y252362D01*
X121142Y226378D02*
Y252362D01*
X138858D01*
X121142Y226378D02*
X138858D01*
X52658Y240236D02*
Y248504D01*
X47343Y240236D02*
Y248504D01*
Y240236D02*
X52658D01*
X47343Y248504D02*
X52658D01*
X47343Y220236D02*
Y228504D01*
X52658Y220236D02*
Y228504D01*
X47343D02*
X52658D01*
X47343Y220236D02*
X52658D01*
X162657Y240236D02*
Y248504D01*
X157343Y240236D02*
Y248504D01*
Y240236D02*
X162657D01*
X157343Y248504D02*
X162657D01*
X157343Y220236D02*
Y228504D01*
X162657Y220236D02*
Y228504D01*
X157343D02*
X162657D01*
X157343Y220236D02*
X162657D01*
X177342Y168504D02*
X182658D01*
X177342Y160236D02*
X182658D01*
X177342D02*
Y168504D01*
X182658Y160236D02*
Y168504D01*
X167342D02*
X172658D01*
X167342Y160236D02*
X172658D01*
X167342D02*
Y168504D01*
X172658Y160236D02*
Y168504D01*
X157343Y180236D02*
Y188504D01*
X162657Y180236D02*
Y188504D01*
X157343D02*
X162657D01*
X157343Y180236D02*
X162657D01*
X177342Y208504D02*
X182658D01*
X177342Y200236D02*
X182658D01*
X177342D02*
Y208504D01*
X182658Y200236D02*
Y208504D01*
X165300Y249120D02*
X204700D01*
X165300Y179620D02*
X204700D01*
Y249120D01*
X165300Y179620D02*
Y249120D01*
X55300D02*
X94700D01*
X55300Y179620D02*
X94700D01*
Y249120D01*
X55300Y179620D02*
Y249120D01*
X157343Y60236D02*
Y68504D01*
X162657Y60236D02*
Y68504D01*
X157343D02*
X162657D01*
X157343Y60236D02*
X162657D01*
M02*
