%TF.GenerationSoftware,KiCad,Pcbnew,9.0.8*%
%TF.CreationDate,2026-03-16T22:16:16+01:00*%
%TF.ProjectId,Power_Supply_Meter_Amp,506f7765-725f-4537-9570-706c795f4d65,1*%
%TF.SameCoordinates,Original*%
%TF.FileFunction,Copper,L2,Inr*%
%TF.FilePolarity,Positive*%
%FSLAX46Y46*%
G04 Gerber Fmt 4.6, Leading zero omitted, Abs format (unit mm)*
G04 Created by KiCad (PCBNEW 9.0.8) date 2026-03-16 22:16:16*
%MOMM*%
%LPD*%
G01*
G04 APERTURE LIST*
G04 Aperture macros list*
%AMRoundRect*
0 Rectangle with rounded corners*
0 $1 Rounding radius*
0 $2 $3 $4 $5 $6 $7 $8 $9 X,Y pos of 4 corners*
0 Add a 4 corners polygon primitive as box body*
4,1,4,$2,$3,$4,$5,$6,$7,$8,$9,$2,$3,0*
0 Add four circle primitives for the rounded corners*
1,1,$1+$1,$2,$3*
1,1,$1+$1,$4,$5*
1,1,$1+$1,$6,$7*
1,1,$1+$1,$8,$9*
0 Add four rect primitives between the rounded corners*
20,1,$1+$1,$2,$3,$4,$5,0*
20,1,$1+$1,$4,$5,$6,$7,0*
20,1,$1+$1,$6,$7,$8,$9,0*
20,1,$1+$1,$8,$9,$2,$3,0*%
G04 Aperture macros list end*
%TA.AperFunction,ComponentPad*%
%ADD10R,2.600000X1.600000*%
%TD*%
%TA.AperFunction,ComponentPad*%
%ADD11O,2.600000X1.600000*%
%TD*%
%TA.AperFunction,ComponentPad*%
%ADD12C,6.400000*%
%TD*%
%TA.AperFunction,ComponentPad*%
%ADD13R,1.700000X1.700000*%
%TD*%
%TA.AperFunction,ComponentPad*%
%ADD14C,1.700000*%
%TD*%
%TA.AperFunction,ComponentPad*%
%ADD15RoundRect,0.250000X-0.550000X-0.550000X0.550000X-0.550000X0.550000X0.550000X-0.550000X0.550000X0*%
%TD*%
%TA.AperFunction,ComponentPad*%
%ADD16C,1.600000*%
%TD*%
%TA.AperFunction,ComponentPad*%
%ADD17R,1.725000X1.725000*%
%TD*%
%TA.AperFunction,ComponentPad*%
%ADD18C,1.725000*%
%TD*%
%TA.AperFunction,ComponentPad*%
%ADD19R,3.000000X3.000000*%
%TD*%
%TA.AperFunction,ComponentPad*%
%ADD20O,3.000000X2.000000*%
%TD*%
%TA.AperFunction,ComponentPad*%
%ADD21RoundRect,0.250000X-0.950000X-0.550000X0.950000X-0.550000X0.950000X0.550000X-0.950000X0.550000X0*%
%TD*%
%TA.AperFunction,ComponentPad*%
%ADD22O,2.400000X1.600000*%
%TD*%
%TA.AperFunction,ViaPad*%
%ADD23C,0.700000*%
%TD*%
G04 APERTURE END LIST*
D10*
%TO.N,Net-(J39-Pin_1)*%
%TO.C,J39*%
X50800000Y-110490000D03*
D11*
%TO.N,Net-(J39-Pin_2)*%
X50800000Y-113030000D03*
%TD*%
D12*
%TO.N,N/C*%
%TO.C,H13*%
X121920000Y-50800000D03*
%TD*%
%TO.N,N/C*%
%TO.C,H10*%
X121920000Y-125730000D03*
%TD*%
D10*
%TO.N,Net-(J35-Pin_1)*%
%TO.C,J35*%
X146515000Y-77300000D03*
D11*
%TO.N,Net-(J35-Pin_2)*%
X146515000Y-79840000D03*
%TD*%
D13*
%TO.N,9V_GND_M*%
%TO.C,J41*%
X139700000Y-107950000D03*
D14*
X142240000Y-107950000D03*
X139700000Y-110490000D03*
X142240000Y-110490000D03*
%TO.N,+9V_M*%
X139700000Y-113030000D03*
X142240000Y-113030000D03*
%TO.N,-15V_M*%
X139700000Y-115570000D03*
X142240000Y-115570000D03*
%TO.N,GND_M*%
X139700000Y-118110000D03*
X142240000Y-118110000D03*
X139700000Y-120650000D03*
X142240000Y-120650000D03*
%TO.N,+15V_M*%
X139700000Y-123190000D03*
X142240000Y-123190000D03*
%TD*%
D10*
%TO.N,Net-(J37-Pin_1)*%
%TO.C,J37*%
X175725000Y-112860000D03*
D11*
%TO.N,Net-(J37-Pin_2)*%
X175725000Y-115400000D03*
%TD*%
D10*
%TO.N,Net-(J34-Pin_1)*%
%TO.C,J34*%
X175725000Y-100160000D03*
D11*
%TO.N,GND_M*%
X175725000Y-102700000D03*
%TO.N,9V_GND_M*%
X175725000Y-105240000D03*
%TO.N,+9V_M*%
X175725000Y-107780000D03*
%TD*%
D12*
%TO.N,N/C*%
%TO.C,H9*%
X43180000Y-50800000D03*
%TD*%
D10*
%TO.N,Net-(J33-Pin_1)*%
%TO.C,J33*%
X146515000Y-64600000D03*
D11*
%TO.N,Net-(J33-Pin_2)*%
X146515000Y-67140000D03*
%TD*%
D12*
%TO.N,N/C*%
%TO.C,H11*%
X137160000Y-50800000D03*
%TD*%
%TO.N,Net-(C85-Pad1)*%
%TO.C,H12*%
X182880000Y-50800000D03*
%TD*%
%TO.N,N/C*%
%TO.C,H16*%
X137160000Y-99060000D03*
%TD*%
D10*
%TO.N,Net-(J42-Pin_1)*%
%TO.C,J42*%
X146515000Y-105240000D03*
D11*
%TO.N,Net-(J42-Pin_2)*%
X146515000Y-107780000D03*
%TD*%
D15*
%TO.N,+9V_P*%
%TO.C,C91*%
X111992500Y-74676000D03*
D16*
%TO.N,9V_GND_P*%
X114492500Y-74676000D03*
%TD*%
D13*
%TO.N,9V_GND_P*%
%TO.C,J40*%
X111992500Y-107950000D03*
D14*
X114532500Y-107950000D03*
X111992500Y-110490000D03*
X114532500Y-110490000D03*
%TO.N,+9V_P*%
X111992500Y-113030000D03*
X114532500Y-113030000D03*
%TO.N,-15V_P*%
X111992500Y-115570000D03*
X114532500Y-115570000D03*
%TO.N,GND_P*%
X111992500Y-118110000D03*
X114532500Y-118110000D03*
X111992500Y-120650000D03*
X114532500Y-120650000D03*
%TO.N,+15V_P*%
X111992500Y-123190000D03*
X114532500Y-123190000D03*
%TD*%
D10*
%TO.N,Net-(J39-Pin_1)*%
%TO.C,J43*%
X50800000Y-118110000D03*
D11*
%TO.N,Net-(J39-Pin_2)*%
X50800000Y-120650000D03*
%TD*%
D17*
%TO.N,Net-(U25-+VIN)*%
%TO.C,U25*%
X65002500Y-67310000D03*
D18*
%TO.N,Net-(U25--VIN)*%
X65002500Y-62230000D03*
%TO.N,unconnected-(U25-CTRL-Pad3)*%
X65002500Y-54610000D03*
%TO.N,Net-(U25--VOUT)*%
X85322500Y-54610000D03*
%TO.N,unconnected-(U25-TRIM-Pad5)*%
X85322500Y-64770000D03*
%TO.N,Net-(U25-+VOUT)*%
X85322500Y-74930000D03*
%TD*%
D10*
%TO.N,/Pegel_Post*%
%TO.C,SW11*%
X146515000Y-49360000D03*
D11*
%TO.N,/Pegel_Aux_Return*%
X146515000Y-51900000D03*
%TO.N,/Pegel_Mic_Effekt*%
X146515000Y-54440000D03*
%TO.N,/Pegel_Pre*%
X146515000Y-56980000D03*
%TO.N,Net-(R141-Pad1)*%
X146515000Y-59520000D03*
%TD*%
D19*
%TO.N,Net-(C115-Pad1)*%
%TO.C,L4*%
X53975000Y-86360000D03*
D20*
%TO.N,Net-(U25-+VIN)*%
X53975000Y-76360000D03*
%TO.N,Net-(U25--VIN)*%
X41475000Y-76360000D03*
%TO.N,Net-(C115-Pad2)*%
X41475000Y-86360000D03*
%TD*%
D10*
%TO.N,Net-(J36-Pin_1)*%
%TO.C,J36*%
X146515000Y-92540000D03*
D11*
%TO.N,Net-(J36-Pin_2)*%
X146515000Y-95080000D03*
%TD*%
D10*
%TO.N,Net-(J39-Pin_2)*%
%TO.C,SW12*%
X50800000Y-97790000D03*
D11*
%TO.N,Net-(C115-Pad2)*%
X50800000Y-100330000D03*
%TO.N,Net-(J39-Pin_1)*%
X50800000Y-102870000D03*
%TO.N,Net-(C115-Pad1)*%
X50800000Y-105410000D03*
%TD*%
D21*
%TO.N,/Pegel_Aux_Return*%
%TO.C,U24*%
X156675000Y-92540000D03*
D22*
X156675000Y-95080000D03*
%TO.N,Net-(U24A-+)*%
X156675000Y-97620000D03*
%TO.N,+15V_M*%
X156675000Y-100160000D03*
%TO.N,Net-(U24B-+)*%
X156675000Y-102700000D03*
%TO.N,/Pegel_Post*%
X156675000Y-105240000D03*
X156675000Y-107780000D03*
%TO.N,Net-(U24-Pad8)*%
X164295000Y-107780000D03*
%TO.N,Net-(U24C--)*%
X164295000Y-105240000D03*
%TO.N,Net-(U24C-+)*%
X164295000Y-102700000D03*
%TO.N,-15V_M*%
X164295000Y-100160000D03*
%TO.N,Net-(U24C-+)*%
X164295000Y-97620000D03*
%TO.N,Net-(U24D--)*%
X164295000Y-95080000D03*
X164295000Y-92540000D03*
%TD*%
D12*
%TO.N,N/C*%
%TO.C,H15*%
X182880000Y-125730000D03*
%TD*%
D15*
%TO.N,+15V_P*%
%TO.C,C114*%
X101894000Y-113030000D03*
D16*
%TO.N,GND_P*%
X104394000Y-113030000D03*
%TD*%
D21*
%TO.N,/Pegel_Pre*%
%TO.C,U23*%
X156675000Y-64600000D03*
D22*
X156675000Y-67140000D03*
%TO.N,Net-(U23A-+)*%
X156675000Y-69680000D03*
%TO.N,+15V_M*%
X156675000Y-72220000D03*
%TO.N,Net-(U23B-+)*%
X156675000Y-74760000D03*
%TO.N,/Pegel_Mic_Effekt*%
X156675000Y-77300000D03*
X156675000Y-79840000D03*
%TO.N,Net-(U24C-+)*%
X164295000Y-79840000D03*
%TO.N,Net-(U23C--)*%
X164295000Y-77300000D03*
%TO.N,GND_M*%
X164295000Y-74760000D03*
%TO.N,-15V_M*%
X164295000Y-72220000D03*
%TO.N,GND_M*%
X164295000Y-69680000D03*
%TO.N,Net-(D2-K)*%
X164295000Y-67140000D03*
%TO.N,Net-(D1-K)*%
X164295000Y-64600000D03*
%TD*%
D17*
%TO.N,Net-(U25-+VIN)*%
%TO.C,U26*%
X65002500Y-102870000D03*
D18*
%TO.N,Net-(U25--VIN)*%
X65002500Y-97790000D03*
%TO.N,unconnected-(U26-CTRL-Pad3)*%
X65002500Y-90170000D03*
%TO.N,Net-(U26--VOUT)*%
X85322500Y-90170000D03*
%TO.N,GND_P*%
X85322500Y-100330000D03*
%TO.N,Net-(U26-+VOUT)*%
X85322500Y-110490000D03*
%TD*%
D12*
%TO.N,N/C*%
%TO.C,H14*%
X43180000Y-125730000D03*
%TD*%
D15*
%TO.N,GND_P*%
%TO.C,C118*%
X104437388Y-102616000D03*
D16*
%TO.N,-15V_P*%
X106937388Y-102616000D03*
%TD*%
D23*
%TO.N,Net-(C84-Pad2)*%
X94212500Y-69850000D03*
%TO.N,Net-(C110-Pad2)*%
X92307500Y-105410000D03*
%TO.N,Net-(C117-Pad2)*%
X92307500Y-95250000D03*
%TO.N,9V_GND_P*%
X94212500Y-59690000D03*
%TO.N,GND_M*%
X168105000Y-115400000D03*
X149309000Y-97620000D03*
X154135000Y-92540000D03*
X166835000Y-97620000D03*
X170180000Y-74760000D03*
X149309000Y-72220000D03*
X149309000Y-102700000D03*
X170661000Y-102700000D03*
X165100000Y-49530000D03*
X173185000Y-95080000D03*
X157310000Y-116670000D03*
X174725000Y-120480000D03*
X154135000Y-64600000D03*
X165100000Y-50800000D03*
X154135000Y-79840000D03*
X154135000Y-107780000D03*
X149309000Y-74760000D03*
X155405000Y-110320000D03*
X149309000Y-69680000D03*
X149309000Y-100160000D03*
X149055000Y-84920000D03*
X165100000Y-52070000D03*
%TO.N,+15V_M*%
X178900000Y-110320000D03*
%TD*%
%TA.AperFunction,Conductor*%
%TO.N,GND_M*%
G36*
X168890677Y-48279685D02*
G01*
X168911319Y-48296319D01*
X169338681Y-48723681D01*
X169372166Y-48785004D01*
X169375000Y-48811362D01*
X169375000Y-52788638D01*
X169355315Y-52855677D01*
X169338681Y-52876319D01*
X168911319Y-53303681D01*
X168849996Y-53337166D01*
X168823638Y-53340000D01*
X162390000Y-53340000D01*
X162390000Y-73490000D01*
X163590325Y-73490000D01*
X163609722Y-73491526D01*
X163792648Y-73520500D01*
X163792649Y-73520500D01*
X164797351Y-73520500D01*
X164797352Y-73520500D01*
X164980277Y-73491526D01*
X164999675Y-73490000D01*
X166200000Y-73490000D01*
X166200000Y-70950000D01*
X165700000Y-70950000D01*
X164999675Y-70950000D01*
X164980277Y-70948473D01*
X164797352Y-70919500D01*
X163792648Y-70919500D01*
X163609723Y-70948473D01*
X163590325Y-70950000D01*
X163576362Y-70950000D01*
X163509323Y-70930315D01*
X163488681Y-70913681D01*
X163061319Y-70486319D01*
X163027834Y-70424996D01*
X163025000Y-70398638D01*
X163025000Y-68961362D01*
X163044685Y-68894323D01*
X163061319Y-68873681D01*
X163488681Y-68446319D01*
X163515608Y-68431615D01*
X163541427Y-68415023D01*
X163547627Y-68414131D01*
X163550004Y-68412834D01*
X163576362Y-68410000D01*
X163590325Y-68410000D01*
X163609722Y-68411526D01*
X163792648Y-68440500D01*
X163792649Y-68440500D01*
X164797351Y-68440500D01*
X164797352Y-68440500D01*
X164980277Y-68411526D01*
X164999675Y-68410000D01*
X173268638Y-68410000D01*
X173335677Y-68429685D01*
X173356319Y-68446319D01*
X173783681Y-68873681D01*
X173817166Y-68935004D01*
X173820000Y-68961362D01*
X173820000Y-90635000D01*
X173820000Y-93810000D01*
X173820000Y-96350000D01*
X173820000Y-101430000D01*
X174230554Y-101430000D01*
X174273888Y-101437819D01*
X174317508Y-101454088D01*
X174317511Y-101454088D01*
X174317517Y-101454091D01*
X174377127Y-101460500D01*
X176347137Y-101460499D01*
X176414176Y-101480184D01*
X176434818Y-101496818D01*
X176831681Y-101893681D01*
X176865166Y-101955004D01*
X176868000Y-101981362D01*
X176868000Y-103418637D01*
X176848315Y-103485676D01*
X176831681Y-103506318D01*
X176433446Y-103904552D01*
X176372123Y-103938037D01*
X176332258Y-103939176D01*
X176332203Y-103939882D01*
X176327352Y-103939500D01*
X175122648Y-103939500D01*
X174939723Y-103968473D01*
X174920325Y-103970000D01*
X173820000Y-103970000D01*
X173820000Y-118575000D01*
X174792638Y-118575000D01*
X174859677Y-118594685D01*
X174880319Y-118611319D01*
X175307681Y-119038681D01*
X175341166Y-119100004D01*
X175344000Y-119126362D01*
X175344000Y-121198638D01*
X175324315Y-121265677D01*
X175307681Y-121286319D01*
X174880319Y-121713681D01*
X174818996Y-121747166D01*
X174792638Y-121750000D01*
X139319362Y-121750000D01*
X139252323Y-121730315D01*
X139231681Y-121713681D01*
X138804319Y-121286319D01*
X138770834Y-121224996D01*
X138768000Y-121198638D01*
X138768000Y-117772362D01*
X138787685Y-117705323D01*
X138804319Y-117684681D01*
X139231681Y-117257319D01*
X139293004Y-117223834D01*
X139319362Y-117221000D01*
X148420000Y-117221000D01*
X148420000Y-114681362D01*
X148439685Y-114614323D01*
X148456319Y-114593681D01*
X148883681Y-114166319D01*
X148945004Y-114132834D01*
X148971362Y-114130000D01*
X166200000Y-114130000D01*
X166200000Y-76030000D01*
X165700000Y-76030000D01*
X164999675Y-76030000D01*
X164980277Y-76028473D01*
X164797352Y-75999500D01*
X163792648Y-75999500D01*
X163609723Y-76028473D01*
X163590325Y-76030000D01*
X162390000Y-76030000D01*
X162390000Y-111038638D01*
X162370315Y-111105677D01*
X162353681Y-111126319D01*
X161926319Y-111553681D01*
X161864996Y-111587166D01*
X161838638Y-111590000D01*
X148971362Y-111590000D01*
X148904323Y-111570315D01*
X148883681Y-111553681D01*
X148456319Y-111126319D01*
X148422834Y-111064996D01*
X148420000Y-111038638D01*
X148420000Y-102616362D01*
X148439685Y-102549323D01*
X148456319Y-102528681D01*
X148883681Y-102101319D01*
X148945004Y-102067834D01*
X148971362Y-102065000D01*
X154218638Y-102065000D01*
X154285677Y-102084685D01*
X154306319Y-102101319D01*
X154733681Y-102528681D01*
X154767166Y-102590004D01*
X154770000Y-102616362D01*
X154770000Y-109050000D01*
X155970325Y-109050000D01*
X155989722Y-109051526D01*
X156172648Y-109080500D01*
X156172649Y-109080500D01*
X157177351Y-109080500D01*
X157177352Y-109080500D01*
X157360277Y-109051526D01*
X157379675Y-109050000D01*
X158580000Y-109050000D01*
X158580000Y-91270000D01*
X158080000Y-91270000D01*
X157858159Y-91270000D01*
X157819156Y-91263706D01*
X157777801Y-91250002D01*
X157777798Y-91250001D01*
X157777797Y-91250001D01*
X157777793Y-91250000D01*
X157777790Y-91250000D01*
X157675010Y-91239500D01*
X155674998Y-91239500D01*
X155674981Y-91239501D01*
X155572203Y-91250000D01*
X155540151Y-91260621D01*
X155530843Y-91263706D01*
X155491840Y-91270000D01*
X154770000Y-91270000D01*
X154770000Y-100243638D01*
X154750315Y-100310677D01*
X154733681Y-100331319D01*
X154306319Y-100758681D01*
X154244996Y-100792166D01*
X154218638Y-100795000D01*
X148971362Y-100795000D01*
X148904323Y-100775315D01*
X148883681Y-100758681D01*
X148456319Y-100331319D01*
X148422834Y-100269996D01*
X148420000Y-100243638D01*
X148420000Y-74676362D01*
X148439685Y-74609323D01*
X148456319Y-74588681D01*
X148883681Y-74161319D01*
X148945004Y-74127834D01*
X148971362Y-74125000D01*
X154218638Y-74125000D01*
X154285677Y-74144685D01*
X154306319Y-74161319D01*
X154733681Y-74588681D01*
X154767166Y-74650004D01*
X154770000Y-74676362D01*
X154770000Y-81110000D01*
X155970325Y-81110000D01*
X155989722Y-81111526D01*
X156172648Y-81140500D01*
X156172649Y-81140500D01*
X157177351Y-81140500D01*
X157177352Y-81140500D01*
X157360277Y-81111526D01*
X157379675Y-81110000D01*
X158580000Y-81110000D01*
X158580000Y-63330000D01*
X158080000Y-63330000D01*
X157858159Y-63330000D01*
X157819156Y-63323706D01*
X157777801Y-63310002D01*
X157777798Y-63310001D01*
X157777797Y-63310001D01*
X157777793Y-63310000D01*
X157777790Y-63310000D01*
X157675010Y-63299500D01*
X155674998Y-63299500D01*
X155674981Y-63299501D01*
X155572203Y-63310000D01*
X155540151Y-63320621D01*
X155530843Y-63323706D01*
X155491840Y-63330000D01*
X154770000Y-63330000D01*
X154770000Y-72303638D01*
X154750315Y-72370677D01*
X154733681Y-72391319D01*
X154306319Y-72818681D01*
X154244996Y-72852166D01*
X154218638Y-72855000D01*
X148971362Y-72855000D01*
X148904323Y-72835315D01*
X148883681Y-72818681D01*
X148456319Y-72391319D01*
X148422834Y-72329996D01*
X148420000Y-72303638D01*
X148420000Y-48811362D01*
X148439685Y-48744323D01*
X148456319Y-48723681D01*
X148883681Y-48296319D01*
X148945004Y-48262834D01*
X148971362Y-48260000D01*
X168823638Y-48260000D01*
X168890677Y-48279685D01*
G37*
%TD.AperFunction*%
%TD*%
M02*
