M48
; DRILL file {KiCad 9.0.8} date 2026-03-17T16:53:00+0100
; FORMAT={-:-/ absolute / metric / decimal}
; #@! TF.CreationDate,2026-03-17T16:53:00+01:00
; #@! TF.GenerationSoftware,Kicad,Pcbnew,9.0.8
; #@! TF.FileFunction,Plated,1,4,PTH
FMAT,2
METRIC
; #@! TA.AperFunction,Plated,PTH,ViaDrill
T1C0.300
; #@! TA.AperFunction,Plated,PTH,ComponentDrill
T2C0.800
; #@! TA.AperFunction,Plated,PTH,ComponentDrill
T3C0.900
; #@! TA.AperFunction,Plated,PTH,ComponentDrill
T4C1.000
; #@! TA.AperFunction,Plated,PTH,ComponentDrill
T5C1.150
; #@! TA.AperFunction,Plated,PTH,ComponentDrill
T6C3.200
%
G90
G05
T1
X92.307Y-97.79
X92.307Y-107.95
X94.212Y-62.23
X94.212Y-72.39
X149.055Y-87.46
X149.309Y-72.22
X149.309Y-74.76
X149.309Y-77.3
X149.309Y-100.16
X149.309Y-102.7
X149.309Y-105.24
X154.135Y-67.14
X154.135Y-82.38
X154.135Y-95.08
X154.135Y-110.32
X155.405Y-112.86
X157.31Y-119.21
X165.1Y-52.07
X165.1Y-53.34
X165.1Y-54.61
X166.835Y-100.16
X168.105Y-117.94
X170.18Y-77.3
X170.661Y-105.24
X173.185Y-97.62
X174.725Y-123.02
X178.9Y-112.86
T2
X101.894Y-115.57
X104.394Y-115.57
X104.437Y-105.156
X106.937Y-105.156
X111.992Y-77.216
X114.492Y-77.216
X156.675Y-67.14
X156.675Y-69.68
X156.675Y-72.22
X156.675Y-74.76
X156.675Y-77.3
X156.675Y-79.84
X156.675Y-82.38
X156.675Y-95.08
X156.675Y-97.62
X156.675Y-100.16
X156.675Y-102.7
X156.675Y-105.24
X156.675Y-107.78
X156.675Y-110.32
X164.295Y-67.14
X164.295Y-69.68
X164.295Y-72.22
X164.295Y-74.76
X164.295Y-77.3
X164.295Y-79.84
X164.295Y-82.38
X164.295Y-95.08
X164.295Y-97.62
X164.295Y-100.16
X164.295Y-102.7
X164.295Y-105.24
X164.295Y-107.78
X164.295Y-110.32
T4
X50.8Y-100.33
X50.8Y-102.87
X50.8Y-105.41
X50.8Y-107.95
X50.8Y-113.03
X50.8Y-115.57
X50.8Y-120.65
X50.8Y-123.19
X111.992Y-110.49
X111.992Y-113.03
X111.992Y-115.57
X111.992Y-118.11
X111.992Y-120.65
X111.992Y-123.19
X111.992Y-125.73
X114.532Y-110.49
X114.532Y-113.03
X114.532Y-115.57
X114.532Y-118.11
X114.532Y-120.65
X114.532Y-123.19
X114.532Y-125.73
X139.7Y-110.49
X139.7Y-113.03
X139.7Y-115.57
X139.7Y-118.11
X139.7Y-120.65
X139.7Y-123.19
X139.7Y-125.73
X142.24Y-110.49
X142.24Y-113.03
X142.24Y-115.57
X142.24Y-118.11
X142.24Y-120.65
X142.24Y-123.19
X142.24Y-125.73
X146.515Y-51.9
X146.515Y-54.44
X146.515Y-56.98
X146.515Y-59.52
X146.515Y-62.06
X146.515Y-67.14
X146.515Y-69.68
X146.515Y-79.84
X146.515Y-82.38
X146.515Y-95.08
X146.515Y-97.62
X146.515Y-107.78
X146.515Y-110.32
X175.725Y-102.7
X175.725Y-105.24
X175.725Y-107.78
X175.725Y-110.32
X175.725Y-115.4
X175.725Y-117.94
T5
X65.002Y-57.15
X65.002Y-64.77
X65.002Y-69.85
X65.002Y-92.71
X65.002Y-100.33
X65.002Y-105.41
X85.322Y-57.15
X85.322Y-67.31
X85.322Y-77.47
X85.322Y-92.71
X85.322Y-102.87
X85.322Y-113.03
T6
X43.18Y-53.34
X43.18Y-128.27
X121.92Y-53.34
X121.92Y-128.27
X137.16Y-53.34
X137.16Y-101.6
X182.88Y-53.34
X182.88Y-128.27
T3
X41.925Y-78.9G85X41.025Y-78.9
G05
X41.925Y-88.9G85X41.025Y-88.9
G05
X54.425Y-78.9G85X53.525Y-78.9
G05
X54.425Y-88.9G85X53.525Y-88.9
G05
M30
