%TF.GenerationSoftware,KiCad,Pcbnew,9.0.8*%
%TF.CreationDate,2026-03-16T22:16:16+01:00*%
%TF.ProjectId,Power_Supply_Meter_Amp,506f7765-725f-4537-9570-706c795f4d65,1*%
%TF.SameCoordinates,Original*%
%TF.FileFunction,Copper,L4,Bot*%
%TF.FilePolarity,Positive*%
%FSLAX46Y46*%
G04 Gerber Fmt 4.6, Leading zero omitted, Abs format (unit mm)*
G04 Created by KiCad (PCBNEW 9.0.8) date 2026-03-16 22:16:16*
%MOMM*%
%LPD*%
G01*
G04 APERTURE LIST*
G04 Aperture macros list*
%AMRoundRect*
0 Rectangle with rounded corners*
0 $1 Rounding radius*
0 $2 $3 $4 $5 $6 $7 $8 $9 X,Y pos of 4 corners*
0 Add a 4 corners polygon primitive as box body*
4,1,4,$2,$3,$4,$5,$6,$7,$8,$9,$2,$3,0*
0 Add four circle primitives for the rounded corners*
1,1,$1+$1,$2,$3*
1,1,$1+$1,$4,$5*
1,1,$1+$1,$6,$7*
1,1,$1+$1,$8,$9*
0 Add four rect primitives between the rounded corners*
20,1,$1+$1,$2,$3,$4,$5,0*
20,1,$1+$1,$4,$5,$6,$7,0*
20,1,$1+$1,$6,$7,$8,$9,0*
20,1,$1+$1,$8,$9,$2,$3,0*%
G04 Aperture macros list end*
%TA.AperFunction,ComponentPad*%
%ADD10R,2.600000X1.600000*%
%TD*%
%TA.AperFunction,ComponentPad*%
%ADD11O,2.600000X1.600000*%
%TD*%
%TA.AperFunction,ComponentPad*%
%ADD12C,6.400000*%
%TD*%
%TA.AperFunction,ComponentPad*%
%ADD13R,1.700000X1.700000*%
%TD*%
%TA.AperFunction,ComponentPad*%
%ADD14C,1.700000*%
%TD*%
%TA.AperFunction,ComponentPad*%
%ADD15RoundRect,0.250000X-0.550000X-0.550000X0.550000X-0.550000X0.550000X0.550000X-0.550000X0.550000X0*%
%TD*%
%TA.AperFunction,ComponentPad*%
%ADD16C,1.600000*%
%TD*%
%TA.AperFunction,ComponentPad*%
%ADD17R,1.725000X1.725000*%
%TD*%
%TA.AperFunction,ComponentPad*%
%ADD18C,1.725000*%
%TD*%
%TA.AperFunction,ComponentPad*%
%ADD19R,3.000000X3.000000*%
%TD*%
%TA.AperFunction,ComponentPad*%
%ADD20O,3.000000X2.000000*%
%TD*%
%TA.AperFunction,ComponentPad*%
%ADD21RoundRect,0.250000X-0.950000X-0.550000X0.950000X-0.550000X0.950000X0.550000X-0.950000X0.550000X0*%
%TD*%
%TA.AperFunction,ComponentPad*%
%ADD22O,2.400000X1.600000*%
%TD*%
%TA.AperFunction,SMDPad,CuDef*%
%ADD23RoundRect,0.250000X0.337500X0.475000X-0.337500X0.475000X-0.337500X-0.475000X0.337500X-0.475000X0*%
%TD*%
%TA.AperFunction,SMDPad,CuDef*%
%ADD24RoundRect,0.250000X-0.337500X-0.475000X0.337500X-0.475000X0.337500X0.475000X-0.337500X0.475000X0*%
%TD*%
%TA.AperFunction,ViaPad*%
%ADD25C,0.700000*%
%TD*%
%TA.AperFunction,Conductor*%
%ADD26C,0.600000*%
%TD*%
%TA.AperFunction,Conductor*%
%ADD27C,1.000000*%
%TD*%
%TA.AperFunction,Conductor*%
%ADD28C,1.600000*%
%TD*%
G04 APERTURE END LIST*
D10*
%TO.P,J39,1,Pin_1*%
%TO.N,Net-(J39-Pin_1)*%
X50800000Y-110490000D03*
D11*
%TO.P,J39,2,Pin_2*%
%TO.N,Net-(J39-Pin_2)*%
X50800000Y-113030000D03*
%TD*%
D12*
%TO.P,H13,1*%
%TO.N,N/C*%
X121920000Y-50800000D03*
%TD*%
%TO.P,H10,1*%
%TO.N,N/C*%
X121920000Y-125730000D03*
%TD*%
D10*
%TO.P,J35,1,Pin_1*%
%TO.N,Net-(J35-Pin_1)*%
X146515000Y-77300000D03*
D11*
%TO.P,J35,2,Pin_2*%
%TO.N,Net-(J35-Pin_2)*%
X146515000Y-79840000D03*
%TD*%
D13*
%TO.P,J41,1,Pin_1*%
%TO.N,9V_GND_M*%
X139700000Y-107950000D03*
D14*
%TO.P,J41,2,Pin_2*%
X142240000Y-107950000D03*
%TO.P,J41,3,Pin_3*%
X139700000Y-110490000D03*
%TO.P,J41,4,Pin_4*%
X142240000Y-110490000D03*
%TO.P,J41,5,Pin_5*%
%TO.N,+9V_M*%
X139700000Y-113030000D03*
%TO.P,J41,6,Pin_6*%
X142240000Y-113030000D03*
%TO.P,J41,7,Pin_7*%
%TO.N,-15V_M*%
X139700000Y-115570000D03*
%TO.P,J41,8,Pin_8*%
X142240000Y-115570000D03*
%TO.P,J41,9,Pin_9*%
%TO.N,GND_M*%
X139700000Y-118110000D03*
%TO.P,J41,10,Pin_10*%
X142240000Y-118110000D03*
%TO.P,J41,11,Pin_11*%
X139700000Y-120650000D03*
%TO.P,J41,12,Pin_12*%
X142240000Y-120650000D03*
%TO.P,J41,13,Pin_13*%
%TO.N,+15V_M*%
X139700000Y-123190000D03*
%TO.P,J41,14,Pin_14*%
X142240000Y-123190000D03*
%TD*%
D10*
%TO.P,J37,1,Pin_1*%
%TO.N,Net-(J37-Pin_1)*%
X175725000Y-112860000D03*
D11*
%TO.P,J37,2,Pin_2*%
%TO.N,Net-(J37-Pin_2)*%
X175725000Y-115400000D03*
%TD*%
D10*
%TO.P,J34,1,Pin_1*%
%TO.N,Net-(J34-Pin_1)*%
X175725000Y-100160000D03*
D11*
%TO.P,J34,2,Pin_2*%
%TO.N,GND_M*%
X175725000Y-102700000D03*
%TO.P,J34,3,Pin_3*%
%TO.N,9V_GND_M*%
X175725000Y-105240000D03*
%TO.P,J34,4,Pin_4*%
%TO.N,+9V_M*%
X175725000Y-107780000D03*
%TD*%
D12*
%TO.P,H9,1*%
%TO.N,N/C*%
X43180000Y-50800000D03*
%TD*%
D10*
%TO.P,J33,1,Pin_1*%
%TO.N,Net-(J33-Pin_1)*%
X146515000Y-64600000D03*
D11*
%TO.P,J33,2,Pin_2*%
%TO.N,Net-(J33-Pin_2)*%
X146515000Y-67140000D03*
%TD*%
D12*
%TO.P,H11,1*%
%TO.N,N/C*%
X137160000Y-50800000D03*
%TD*%
%TO.P,H12,1,1*%
%TO.N,Net-(C85-Pad1)*%
X182880000Y-50800000D03*
%TD*%
%TO.P,H16,1*%
%TO.N,N/C*%
X137160000Y-99060000D03*
%TD*%
D10*
%TO.P,J42,1,Pin_1*%
%TO.N,Net-(J42-Pin_1)*%
X146515000Y-105240000D03*
D11*
%TO.P,J42,2,Pin_2*%
%TO.N,Net-(J42-Pin_2)*%
X146515000Y-107780000D03*
%TD*%
D15*
%TO.P,C91,1*%
%TO.N,+9V_P*%
X111992500Y-74676000D03*
D16*
%TO.P,C91,2*%
%TO.N,9V_GND_P*%
X114492500Y-74676000D03*
%TD*%
D13*
%TO.P,J40,1,Pin_1*%
%TO.N,9V_GND_P*%
X111992500Y-107950000D03*
D14*
%TO.P,J40,2,Pin_2*%
X114532500Y-107950000D03*
%TO.P,J40,3,Pin_3*%
X111992500Y-110490000D03*
%TO.P,J40,4,Pin_4*%
X114532500Y-110490000D03*
%TO.P,J40,5,Pin_5*%
%TO.N,+9V_P*%
X111992500Y-113030000D03*
%TO.P,J40,6,Pin_6*%
X114532500Y-113030000D03*
%TO.P,J40,7,Pin_7*%
%TO.N,-15V_P*%
X111992500Y-115570000D03*
%TO.P,J40,8,Pin_8*%
X114532500Y-115570000D03*
%TO.P,J40,9,Pin_9*%
%TO.N,GND_P*%
X111992500Y-118110000D03*
%TO.P,J40,10,Pin_10*%
X114532500Y-118110000D03*
%TO.P,J40,11,Pin_11*%
X111992500Y-120650000D03*
%TO.P,J40,12,Pin_12*%
X114532500Y-120650000D03*
%TO.P,J40,13,Pin_13*%
%TO.N,+15V_P*%
X111992500Y-123190000D03*
%TO.P,J40,14,Pin_14*%
X114532500Y-123190000D03*
%TD*%
D10*
%TO.P,J43,1,Pin_1*%
%TO.N,Net-(J39-Pin_1)*%
X50800000Y-118110000D03*
D11*
%TO.P,J43,2,Pin_2*%
%TO.N,Net-(J39-Pin_2)*%
X50800000Y-120650000D03*
%TD*%
D17*
%TO.P,U25,1,+VIN*%
%TO.N,Net-(U25-+VIN)*%
X65002500Y-67310000D03*
D18*
%TO.P,U25,2,-VIN*%
%TO.N,Net-(U25--VIN)*%
X65002500Y-62230000D03*
%TO.P,U25,3,CTRL*%
%TO.N,unconnected-(U25-CTRL-Pad3)*%
X65002500Y-54610000D03*
%TO.P,U25,4,-VOUT*%
%TO.N,Net-(U25--VOUT)*%
X85322500Y-54610000D03*
%TO.P,U25,5,TRIM*%
%TO.N,unconnected-(U25-TRIM-Pad5)*%
X85322500Y-64770000D03*
%TO.P,U25,6,+VOUT*%
%TO.N,Net-(U25-+VOUT)*%
X85322500Y-74930000D03*
%TD*%
D10*
%TO.P,SW11,1*%
%TO.N,/Pegel_Post*%
X146515000Y-49360000D03*
D11*
%TO.P,SW11,2*%
%TO.N,/Pegel_Aux_Return*%
X146515000Y-51900000D03*
%TO.P,SW11,3*%
%TO.N,/Pegel_Mic_Effekt*%
X146515000Y-54440000D03*
%TO.P,SW11,4*%
%TO.N,/Pegel_Pre*%
X146515000Y-56980000D03*
%TO.P,SW11,5*%
%TO.N,Net-(R141-Pad1)*%
X146515000Y-59520000D03*
%TD*%
D19*
%TO.P,L4,1*%
%TO.N,Net-(C115-Pad1)*%
X53975000Y-86360000D03*
D20*
%TO.P,L4,2*%
%TO.N,Net-(U25-+VIN)*%
X53975000Y-76360000D03*
%TO.P,L4,3*%
%TO.N,Net-(U25--VIN)*%
X41475000Y-76360000D03*
%TO.P,L4,4*%
%TO.N,Net-(C115-Pad2)*%
X41475000Y-86360000D03*
%TD*%
D10*
%TO.P,J36,1,Pin_1*%
%TO.N,Net-(J36-Pin_1)*%
X146515000Y-92540000D03*
D11*
%TO.P,J36,2,Pin_2*%
%TO.N,Net-(J36-Pin_2)*%
X146515000Y-95080000D03*
%TD*%
D10*
%TO.P,SW12,1,1*%
%TO.N,Net-(J39-Pin_2)*%
X50800000Y-97790000D03*
D11*
%TO.P,SW12,2,2*%
%TO.N,Net-(C115-Pad2)*%
X50800000Y-100330000D03*
%TO.P,SW12,3,3*%
%TO.N,Net-(J39-Pin_1)*%
X50800000Y-102870000D03*
%TO.P,SW12,4,4*%
%TO.N,Net-(C115-Pad1)*%
X50800000Y-105410000D03*
%TD*%
D21*
%TO.P,U24,1*%
%TO.N,/Pegel_Aux_Return*%
X156675000Y-92540000D03*
D22*
%TO.P,U24,2,-*%
X156675000Y-95080000D03*
%TO.P,U24,3,+*%
%TO.N,Net-(U24A-+)*%
X156675000Y-97620000D03*
%TO.P,U24,4,V+*%
%TO.N,+15V_M*%
X156675000Y-100160000D03*
%TO.P,U24,5,+*%
%TO.N,Net-(U24B-+)*%
X156675000Y-102700000D03*
%TO.P,U24,6,-*%
%TO.N,/Pegel_Post*%
X156675000Y-105240000D03*
%TO.P,U24,7*%
X156675000Y-107780000D03*
%TO.P,U24,8*%
%TO.N,Net-(U24-Pad8)*%
X164295000Y-107780000D03*
%TO.P,U24,9,-*%
%TO.N,Net-(U24C--)*%
X164295000Y-105240000D03*
%TO.P,U24,10,+*%
%TO.N,Net-(U24C-+)*%
X164295000Y-102700000D03*
%TO.P,U24,11,V-*%
%TO.N,-15V_M*%
X164295000Y-100160000D03*
%TO.P,U24,12,+*%
%TO.N,Net-(U24C-+)*%
X164295000Y-97620000D03*
%TO.P,U24,13,-*%
%TO.N,Net-(U24D--)*%
X164295000Y-95080000D03*
%TO.P,U24,14*%
X164295000Y-92540000D03*
%TD*%
D12*
%TO.P,H15,1*%
%TO.N,N/C*%
X182880000Y-125730000D03*
%TD*%
D15*
%TO.P,C114,1*%
%TO.N,+15V_P*%
X101894000Y-113030000D03*
D16*
%TO.P,C114,2*%
%TO.N,GND_P*%
X104394000Y-113030000D03*
%TD*%
D21*
%TO.P,U23,1*%
%TO.N,/Pegel_Pre*%
X156675000Y-64600000D03*
D22*
%TO.P,U23,2,-*%
X156675000Y-67140000D03*
%TO.P,U23,3,+*%
%TO.N,Net-(U23A-+)*%
X156675000Y-69680000D03*
%TO.P,U23,4,V+*%
%TO.N,+15V_M*%
X156675000Y-72220000D03*
%TO.P,U23,5,+*%
%TO.N,Net-(U23B-+)*%
X156675000Y-74760000D03*
%TO.P,U23,6,-*%
%TO.N,/Pegel_Mic_Effekt*%
X156675000Y-77300000D03*
%TO.P,U23,7*%
X156675000Y-79840000D03*
%TO.P,U23,8*%
%TO.N,Net-(U24C-+)*%
X164295000Y-79840000D03*
%TO.P,U23,9,-*%
%TO.N,Net-(U23C--)*%
X164295000Y-77300000D03*
%TO.P,U23,10,+*%
%TO.N,GND_M*%
X164295000Y-74760000D03*
%TO.P,U23,11,V-*%
%TO.N,-15V_M*%
X164295000Y-72220000D03*
%TO.P,U23,12,+*%
%TO.N,GND_M*%
X164295000Y-69680000D03*
%TO.P,U23,13,-*%
%TO.N,Net-(D2-K)*%
X164295000Y-67140000D03*
%TO.P,U23,14*%
%TO.N,Net-(D1-K)*%
X164295000Y-64600000D03*
%TD*%
D17*
%TO.P,U26,1,+VIN*%
%TO.N,Net-(U25-+VIN)*%
X65002500Y-102870000D03*
D18*
%TO.P,U26,2,-VIN*%
%TO.N,Net-(U25--VIN)*%
X65002500Y-97790000D03*
%TO.P,U26,3,CTRL*%
%TO.N,unconnected-(U26-CTRL-Pad3)*%
X65002500Y-90170000D03*
%TO.P,U26,4,-VOUT*%
%TO.N,Net-(U26--VOUT)*%
X85322500Y-90170000D03*
%TO.P,U26,5,COM*%
%TO.N,GND_P*%
X85322500Y-100330000D03*
%TO.P,U26,6,+VOUT*%
%TO.N,Net-(U26-+VOUT)*%
X85322500Y-110490000D03*
%TD*%
D12*
%TO.P,H14,1*%
%TO.N,N/C*%
X43180000Y-125730000D03*
%TD*%
D15*
%TO.P,C118,1*%
%TO.N,GND_P*%
X104437388Y-102616000D03*
D16*
%TO.P,C118,2*%
%TO.N,-15V_P*%
X106937388Y-102616000D03*
%TD*%
D23*
%TO.P,C112,1*%
%TO.N,GND_15V_FILT*%
X72157500Y-102870000D03*
%TO.P,C112,2*%
%TO.N,Net-(U25-+VIN)*%
X70082500Y-102870000D03*
%TD*%
%TO.P,C102,1*%
%TO.N,9V_GND_P*%
X90402500Y-59690000D03*
%TO.P,C102,2*%
%TO.N,GND_9V_FILT*%
X88327500Y-59690000D03*
%TD*%
D24*
%TO.P,C111,1*%
%TO.N,GND_15V_FILT*%
X88327500Y-105410000D03*
%TO.P,C111,2*%
%TO.N,Net-(C110-Pad2)*%
X90402500Y-105410000D03*
%TD*%
%TO.P,C119,1*%
%TO.N,Net-(U25--VIN)*%
X70082500Y-97790000D03*
%TO.P,C119,2*%
%TO.N,GND_15V_FILT*%
X72157500Y-97790000D03*
%TD*%
D23*
%TO.P,C89,1*%
%TO.N,GND_9V_FILT*%
X72157500Y-67310000D03*
%TO.P,C89,2*%
%TO.N,Net-(U25-+VIN)*%
X70082500Y-67310000D03*
%TD*%
D24*
%TO.P,C86,1*%
%TO.N,GND_9V_FILT*%
X88327500Y-69850000D03*
%TO.P,C86,2*%
%TO.N,Net-(C84-Pad2)*%
X90402500Y-69850000D03*
%TD*%
D23*
%TO.P,C120,1*%
%TO.N,Net-(C117-Pad2)*%
X90402500Y-95250000D03*
%TO.P,C120,2*%
%TO.N,GND_15V_FILT*%
X88327500Y-95250000D03*
%TD*%
D24*
%TO.P,C100,1*%
%TO.N,Net-(U25--VIN)*%
X70082500Y-62230000D03*
%TO.P,C100,2*%
%TO.N,GND_9V_FILT*%
X72157500Y-62230000D03*
%TD*%
D25*
%TO.N,Net-(C84-Pad2)*%
X94212500Y-69850000D03*
%TO.N,Net-(C110-Pad2)*%
X92307500Y-105410000D03*
%TO.N,Net-(C117-Pad2)*%
X92307500Y-95250000D03*
%TO.N,9V_GND_P*%
X94212500Y-59690000D03*
%TO.N,GND_M*%
X168105000Y-115400000D03*
X149309000Y-97620000D03*
X154135000Y-92540000D03*
X166835000Y-97620000D03*
X170180000Y-74760000D03*
X149309000Y-72220000D03*
X149309000Y-102700000D03*
X170661000Y-102700000D03*
X165100000Y-49530000D03*
X173185000Y-95080000D03*
X157310000Y-116670000D03*
X174725000Y-120480000D03*
X154135000Y-64600000D03*
X165100000Y-50800000D03*
X154135000Y-79840000D03*
X154135000Y-107780000D03*
X149309000Y-74760000D03*
X155405000Y-110320000D03*
X149309000Y-69680000D03*
X149309000Y-100160000D03*
X149055000Y-84920000D03*
X165100000Y-52070000D03*
%TO.N,+15V_M*%
X178900000Y-110320000D03*
%TD*%
D26*
%TO.N,Net-(U25-+VIN)*%
X70082500Y-67310000D02*
X65002500Y-67310000D01*
X70082500Y-102870000D02*
X65002500Y-102870000D01*
D27*
%TO.N,Net-(C84-Pad2)*%
X90402500Y-69850000D02*
X94212500Y-69850000D01*
D26*
%TO.N,Net-(U25--VIN)*%
X70082500Y-62230000D02*
X65002500Y-62230000D01*
X70082500Y-97790000D02*
X65002500Y-97790000D01*
D27*
%TO.N,Net-(C110-Pad2)*%
X90402500Y-105410000D02*
X92307500Y-105410000D01*
%TO.N,Net-(C117-Pad2)*%
X90402500Y-95250000D02*
X92307500Y-95250000D01*
D28*
%TO.N,/Pegel_Post*%
X156675000Y-105240000D02*
X157945000Y-105240000D01*
D26*
X161755000Y-101430000D02*
X161755000Y-53170000D01*
X161755000Y-53170000D02*
X157945000Y-49360000D01*
X157945000Y-49360000D02*
X146515000Y-49360000D01*
X157945000Y-105240000D02*
X161755000Y-101430000D01*
%TO.N,/Pegel_Mic_Effekt*%
X159215000Y-76030000D02*
X159215000Y-58250000D01*
X157945000Y-77300000D02*
X159215000Y-76030000D01*
X159215000Y-58250000D02*
X155405000Y-54440000D01*
X155405000Y-54440000D02*
X146515000Y-54440000D01*
D28*
X156675000Y-77300000D02*
X157945000Y-77300000D01*
D26*
%TO.N,/Pegel_Pre*%
X154135000Y-56980000D02*
X146515000Y-56980000D01*
X156675000Y-64600000D02*
X156675000Y-59520000D01*
X156675000Y-59520000D02*
X154135000Y-56980000D01*
%TO.N,/Pegel_Aux_Return*%
X157945000Y-92540000D02*
X160485000Y-90000000D01*
X160485000Y-90000000D02*
X160485000Y-55710000D01*
D28*
X156675000Y-92540000D02*
X157945000Y-92540000D01*
D26*
X156675000Y-51900000D02*
X146515000Y-51900000D01*
X160485000Y-55710000D02*
X156675000Y-51900000D01*
D27*
%TO.N,9V_GND_P*%
X90402500Y-59690000D02*
X94212500Y-59690000D01*
%TO.N,9V_GND_M*%
X164760000Y-111760000D02*
X171280000Y-105240000D01*
X171280000Y-105240000D02*
X175725000Y-105240000D01*
X146050000Y-111760000D02*
X147615000Y-111760000D01*
X147615000Y-111760000D02*
X164760000Y-111760000D01*
X144780000Y-110490000D02*
X146050000Y-111760000D01*
X142240000Y-110490000D02*
X144780000Y-110490000D01*
%TO.N,+9V_M*%
X139700000Y-113030000D02*
X142240000Y-113030000D01*
X142240000Y-113030000D02*
X143510000Y-113030000D01*
X172550000Y-107780000D02*
X175725000Y-107780000D01*
X166030000Y-114300000D02*
X172550000Y-107780000D01*
X147615000Y-114300000D02*
X166030000Y-114300000D01*
X143510000Y-113030000D02*
X144780000Y-114300000D01*
X144780000Y-114300000D02*
X147615000Y-114300000D01*
%TD*%
%TA.AperFunction,Conductor*%
%TO.N,GND_15V_FILT*%
G36*
X88440539Y-87014685D02*
G01*
X88486294Y-87067489D01*
X88497500Y-87119000D01*
X88497500Y-113541000D01*
X88477815Y-113608039D01*
X88425011Y-113653794D01*
X88373500Y-113665000D01*
X61951500Y-113665000D01*
X61884461Y-113645315D01*
X61838706Y-113592511D01*
X61827500Y-113541000D01*
X61827500Y-110382724D01*
X83959500Y-110382724D01*
X83959500Y-110597275D01*
X83993060Y-110809170D01*
X84059359Y-111013215D01*
X84156758Y-111204368D01*
X84282862Y-111377935D01*
X84434565Y-111529638D01*
X84608132Y-111655742D01*
X84698443Y-111701758D01*
X84799284Y-111753140D01*
X84799286Y-111753140D01*
X84799289Y-111753142D01*
X84908660Y-111788678D01*
X85003329Y-111819439D01*
X85215225Y-111853000D01*
X85215230Y-111853000D01*
X85429775Y-111853000D01*
X85641670Y-111819439D01*
X85845711Y-111753142D01*
X86036868Y-111655742D01*
X86210435Y-111529638D01*
X86362138Y-111377935D01*
X86488242Y-111204368D01*
X86585642Y-111013211D01*
X86651939Y-110809170D01*
X86685500Y-110597275D01*
X86685500Y-110382724D01*
X86651939Y-110170829D01*
X86585640Y-109966784D01*
X86488241Y-109775631D01*
X86362138Y-109602065D01*
X86210435Y-109450362D01*
X86036868Y-109324258D01*
X85845715Y-109226859D01*
X85641670Y-109160560D01*
X85429775Y-109127000D01*
X85429770Y-109127000D01*
X85215230Y-109127000D01*
X85215225Y-109127000D01*
X85003329Y-109160560D01*
X84799284Y-109226859D01*
X84608131Y-109324258D01*
X84509105Y-109396205D01*
X84434565Y-109450362D01*
X84434563Y-109450364D01*
X84434562Y-109450364D01*
X84282864Y-109602062D01*
X84282864Y-109602063D01*
X84282862Y-109602065D01*
X84228705Y-109676605D01*
X84156758Y-109775631D01*
X84059359Y-109966784D01*
X83993060Y-110170829D01*
X83959500Y-110382724D01*
X61827500Y-110382724D01*
X61827500Y-101959635D01*
X63639500Y-101959635D01*
X63639500Y-103780370D01*
X63639501Y-103780376D01*
X63645908Y-103839983D01*
X63696202Y-103974828D01*
X63696206Y-103974835D01*
X63782452Y-104090044D01*
X63782455Y-104090047D01*
X63897664Y-104176293D01*
X63897671Y-104176297D01*
X64032517Y-104226591D01*
X64032516Y-104226591D01*
X64039444Y-104227335D01*
X64092127Y-104233000D01*
X65912872Y-104232999D01*
X65972483Y-104226591D01*
X66107331Y-104176296D01*
X66222546Y-104090046D01*
X66308796Y-103974831D01*
X66359091Y-103839983D01*
X66365406Y-103781240D01*
X66392143Y-103716694D01*
X66449535Y-103676846D01*
X66488695Y-103670500D01*
X68994782Y-103670500D01*
X69061821Y-103690185D01*
X69100319Y-103729401D01*
X69152288Y-103813656D01*
X69276344Y-103937712D01*
X69425666Y-104029814D01*
X69592203Y-104084999D01*
X69694991Y-104095500D01*
X70470008Y-104095499D01*
X70470016Y-104095498D01*
X70470019Y-104095498D01*
X70526302Y-104089748D01*
X70572797Y-104084999D01*
X70739334Y-104029814D01*
X70888656Y-103937712D01*
X71012712Y-103813656D01*
X71104814Y-103664334D01*
X71159999Y-103497797D01*
X71170500Y-103395009D01*
X71170499Y-102344992D01*
X71159999Y-102242203D01*
X71104814Y-102075666D01*
X71012712Y-101926344D01*
X70888656Y-101802288D01*
X70739334Y-101710186D01*
X70572797Y-101655001D01*
X70572795Y-101655000D01*
X70470010Y-101644500D01*
X69694998Y-101644500D01*
X69694980Y-101644501D01*
X69592203Y-101655000D01*
X69592200Y-101655001D01*
X69425668Y-101710185D01*
X69425663Y-101710187D01*
X69276342Y-101802289D01*
X69152289Y-101926342D01*
X69152288Y-101926344D01*
X69108701Y-101997011D01*
X69100321Y-102010597D01*
X69048373Y-102057321D01*
X68994782Y-102069500D01*
X66488695Y-102069500D01*
X66421656Y-102049815D01*
X66375901Y-101997011D01*
X66365405Y-101958753D01*
X66359091Y-101900016D01*
X66308797Y-101765171D01*
X66308793Y-101765164D01*
X66222547Y-101649955D01*
X66222544Y-101649952D01*
X66107335Y-101563706D01*
X66107328Y-101563702D01*
X65972482Y-101513408D01*
X65972483Y-101513408D01*
X65912883Y-101507001D01*
X65912881Y-101507000D01*
X65912873Y-101507000D01*
X65912864Y-101507000D01*
X64092129Y-101507000D01*
X64092123Y-101507001D01*
X64032516Y-101513408D01*
X63897671Y-101563702D01*
X63897664Y-101563706D01*
X63782455Y-101649952D01*
X63782452Y-101649955D01*
X63696206Y-101765164D01*
X63696202Y-101765171D01*
X63645908Y-101900017D01*
X63639501Y-101959616D01*
X63639500Y-101959635D01*
X61827500Y-101959635D01*
X61827500Y-100222724D01*
X83959500Y-100222724D01*
X83959500Y-100437275D01*
X83993060Y-100649170D01*
X84059359Y-100853215D01*
X84156758Y-101044368D01*
X84282862Y-101217935D01*
X84434565Y-101369638D01*
X84608132Y-101495742D01*
X84698443Y-101541758D01*
X84799284Y-101593140D01*
X84799286Y-101593140D01*
X84799289Y-101593142D01*
X84908660Y-101628678D01*
X85003329Y-101659439D01*
X85215225Y-101693000D01*
X85215230Y-101693000D01*
X85429775Y-101693000D01*
X85641670Y-101659439D01*
X85655332Y-101655000D01*
X85845711Y-101593142D01*
X86036868Y-101495742D01*
X86210435Y-101369638D01*
X86362138Y-101217935D01*
X86488242Y-101044368D01*
X86585642Y-100853211D01*
X86651939Y-100649170D01*
X86685500Y-100437275D01*
X86685500Y-100222724D01*
X86651939Y-100010829D01*
X86585640Y-99806784D01*
X86488241Y-99615631D01*
X86362138Y-99442065D01*
X86210435Y-99290362D01*
X86036868Y-99164258D01*
X86014773Y-99153000D01*
X85845715Y-99066859D01*
X85641670Y-99000560D01*
X85429775Y-98967000D01*
X85429770Y-98967000D01*
X85215230Y-98967000D01*
X85215225Y-98967000D01*
X85003329Y-99000560D01*
X84799284Y-99066859D01*
X84608131Y-99164258D01*
X84509105Y-99236205D01*
X84434565Y-99290362D01*
X84434563Y-99290364D01*
X84434562Y-99290364D01*
X84282864Y-99442062D01*
X84282864Y-99442063D01*
X84282862Y-99442065D01*
X84228705Y-99516605D01*
X84156758Y-99615631D01*
X84059359Y-99806784D01*
X83993060Y-100010829D01*
X83959500Y-100222724D01*
X61827500Y-100222724D01*
X61827500Y-97682724D01*
X63639500Y-97682724D01*
X63639500Y-97897275D01*
X63673060Y-98109170D01*
X63739359Y-98313215D01*
X63836758Y-98504368D01*
X63962862Y-98677935D01*
X64114565Y-98829638D01*
X64288132Y-98955742D01*
X64376092Y-99000560D01*
X64479284Y-99053140D01*
X64479286Y-99053140D01*
X64479289Y-99053142D01*
X64521506Y-99066859D01*
X64683329Y-99119439D01*
X64895225Y-99153000D01*
X64895230Y-99153000D01*
X65109775Y-99153000D01*
X65321670Y-99119439D01*
X65525711Y-99053142D01*
X65716868Y-98955742D01*
X65890435Y-98829638D01*
X66042138Y-98677935D01*
X66068525Y-98641615D01*
X66123854Y-98598950D01*
X66168844Y-98590500D01*
X68994782Y-98590500D01*
X69061821Y-98610185D01*
X69100319Y-98649401D01*
X69152288Y-98733656D01*
X69276344Y-98857712D01*
X69425666Y-98949814D01*
X69592203Y-99004999D01*
X69694991Y-99015500D01*
X70470008Y-99015499D01*
X70470016Y-99015498D01*
X70470019Y-99015498D01*
X70526302Y-99009748D01*
X70572797Y-99004999D01*
X70739334Y-98949814D01*
X70888656Y-98857712D01*
X71012712Y-98733656D01*
X71104814Y-98584334D01*
X71159999Y-98417797D01*
X71170500Y-98315009D01*
X71170499Y-97264992D01*
X71159999Y-97162203D01*
X71104814Y-96995666D01*
X71012712Y-96846344D01*
X70888656Y-96722288D01*
X70739334Y-96630186D01*
X70572797Y-96575001D01*
X70572795Y-96575000D01*
X70470010Y-96564500D01*
X69694998Y-96564500D01*
X69694980Y-96564501D01*
X69592203Y-96575000D01*
X69592200Y-96575001D01*
X69425668Y-96630185D01*
X69425663Y-96630187D01*
X69276342Y-96722289D01*
X69152289Y-96846342D01*
X69152288Y-96846344D01*
X69117918Y-96902068D01*
X69100321Y-96930597D01*
X69048373Y-96977321D01*
X68994782Y-96989500D01*
X66168844Y-96989500D01*
X66101805Y-96969815D01*
X66068525Y-96938384D01*
X66042141Y-96902068D01*
X65890437Y-96750364D01*
X65890435Y-96750362D01*
X65716868Y-96624258D01*
X65525715Y-96526859D01*
X65321670Y-96460560D01*
X65109775Y-96427000D01*
X65109770Y-96427000D01*
X64895230Y-96427000D01*
X64895225Y-96427000D01*
X64683329Y-96460560D01*
X64479284Y-96526859D01*
X64288131Y-96624258D01*
X64279971Y-96630187D01*
X64114565Y-96750362D01*
X64114563Y-96750364D01*
X64114562Y-96750364D01*
X63962864Y-96902062D01*
X63962864Y-96902063D01*
X63962862Y-96902065D01*
X63936475Y-96938384D01*
X63836758Y-97075631D01*
X63739359Y-97266784D01*
X63673060Y-97470829D01*
X63639500Y-97682724D01*
X61827500Y-97682724D01*
X61827500Y-90062724D01*
X63639500Y-90062724D01*
X63639500Y-90277275D01*
X63673060Y-90489170D01*
X63739359Y-90693215D01*
X63836758Y-90884368D01*
X63962862Y-91057935D01*
X64114565Y-91209638D01*
X64288132Y-91335742D01*
X64378443Y-91381758D01*
X64479284Y-91433140D01*
X64479286Y-91433140D01*
X64479289Y-91433142D01*
X64588660Y-91468678D01*
X64683329Y-91499439D01*
X64895225Y-91533000D01*
X64895230Y-91533000D01*
X65109775Y-91533000D01*
X65321670Y-91499439D01*
X65525711Y-91433142D01*
X65716868Y-91335742D01*
X65890435Y-91209638D01*
X66042138Y-91057935D01*
X66168242Y-90884368D01*
X66265642Y-90693211D01*
X66331939Y-90489170D01*
X66365500Y-90277275D01*
X66365500Y-90062724D01*
X83959500Y-90062724D01*
X83959500Y-90277275D01*
X83993060Y-90489170D01*
X84059359Y-90693215D01*
X84156758Y-90884368D01*
X84282862Y-91057935D01*
X84434565Y-91209638D01*
X84608132Y-91335742D01*
X84698443Y-91381758D01*
X84799284Y-91433140D01*
X84799286Y-91433140D01*
X84799289Y-91433142D01*
X84908660Y-91468678D01*
X85003329Y-91499439D01*
X85215225Y-91533000D01*
X85215230Y-91533000D01*
X85429775Y-91533000D01*
X85641670Y-91499439D01*
X85845711Y-91433142D01*
X86036868Y-91335742D01*
X86210435Y-91209638D01*
X86362138Y-91057935D01*
X86488242Y-90884368D01*
X86585642Y-90693211D01*
X86651939Y-90489170D01*
X86685500Y-90277275D01*
X86685500Y-90062724D01*
X86651939Y-89850829D01*
X86585640Y-89646784D01*
X86488241Y-89455631D01*
X86362138Y-89282065D01*
X86210435Y-89130362D01*
X86036868Y-89004258D01*
X85845715Y-88906859D01*
X85641670Y-88840560D01*
X85429775Y-88807000D01*
X85429770Y-88807000D01*
X85215230Y-88807000D01*
X85215225Y-88807000D01*
X85003329Y-88840560D01*
X84799284Y-88906859D01*
X84608131Y-89004258D01*
X84509105Y-89076205D01*
X84434565Y-89130362D01*
X84434563Y-89130364D01*
X84434562Y-89130364D01*
X84282864Y-89282062D01*
X84282864Y-89282063D01*
X84282862Y-89282065D01*
X84228705Y-89356605D01*
X84156758Y-89455631D01*
X84059359Y-89646784D01*
X83993060Y-89850829D01*
X83959500Y-90062724D01*
X66365500Y-90062724D01*
X66331939Y-89850829D01*
X66265640Y-89646784D01*
X66168241Y-89455631D01*
X66042138Y-89282065D01*
X65890435Y-89130362D01*
X65716868Y-89004258D01*
X65525715Y-88906859D01*
X65321670Y-88840560D01*
X65109775Y-88807000D01*
X65109770Y-88807000D01*
X64895230Y-88807000D01*
X64895225Y-88807000D01*
X64683329Y-88840560D01*
X64479284Y-88906859D01*
X64288131Y-89004258D01*
X64189105Y-89076205D01*
X64114565Y-89130362D01*
X64114563Y-89130364D01*
X64114562Y-89130364D01*
X63962864Y-89282062D01*
X63962864Y-89282063D01*
X63962862Y-89282065D01*
X63908705Y-89356605D01*
X63836758Y-89455631D01*
X63739359Y-89646784D01*
X63673060Y-89850829D01*
X63639500Y-90062724D01*
X61827500Y-90062724D01*
X61827500Y-87119000D01*
X61847185Y-87051961D01*
X61899989Y-87006206D01*
X61951500Y-86995000D01*
X88373500Y-86995000D01*
X88440539Y-87014685D01*
G37*
%TD.AperFunction*%
%TD*%
%TA.AperFunction,Conductor*%
%TO.N,9V_GND_M*%
G36*
X142390677Y-107334685D02*
G01*
X142411319Y-107351319D01*
X142838681Y-107778681D01*
X142872166Y-107840004D01*
X142875000Y-107866362D01*
X142875000Y-110573638D01*
X142855315Y-110640677D01*
X142838681Y-110661319D01*
X142411319Y-111088681D01*
X142349996Y-111122166D01*
X142323638Y-111125000D01*
X139616362Y-111125000D01*
X139549323Y-111105315D01*
X139528681Y-111088681D01*
X139101319Y-110661319D01*
X139067834Y-110599996D01*
X139065000Y-110573638D01*
X139065000Y-107866362D01*
X139084685Y-107799323D01*
X139101319Y-107778681D01*
X139528681Y-107351319D01*
X139590004Y-107317834D01*
X139616362Y-107315000D01*
X142323638Y-107315000D01*
X142390677Y-107334685D01*
G37*
%TD.AperFunction*%
%TD*%
%TA.AperFunction,Conductor*%
%TO.N,GND_9V_FILT*%
G36*
X88440539Y-51454685D02*
G01*
X88486294Y-51507489D01*
X88497500Y-51559000D01*
X88497500Y-77981000D01*
X88477815Y-78048039D01*
X88425011Y-78093794D01*
X88373500Y-78105000D01*
X61951500Y-78105000D01*
X61884461Y-78085315D01*
X61838706Y-78032511D01*
X61827500Y-77981000D01*
X61827500Y-74822724D01*
X83959500Y-74822724D01*
X83959500Y-75037275D01*
X83993060Y-75249170D01*
X84059359Y-75453215D01*
X84156758Y-75644368D01*
X84282862Y-75817935D01*
X84434565Y-75969638D01*
X84608132Y-76095742D01*
X84698443Y-76141758D01*
X84799284Y-76193140D01*
X84799286Y-76193140D01*
X84799289Y-76193142D01*
X84908660Y-76228678D01*
X85003329Y-76259439D01*
X85215225Y-76293000D01*
X85215230Y-76293000D01*
X85429775Y-76293000D01*
X85641670Y-76259439D01*
X85845711Y-76193142D01*
X86036868Y-76095742D01*
X86210435Y-75969638D01*
X86362138Y-75817935D01*
X86488242Y-75644368D01*
X86585642Y-75453211D01*
X86651939Y-75249170D01*
X86685500Y-75037275D01*
X86685500Y-74822724D01*
X86651939Y-74610829D01*
X86585640Y-74406784D01*
X86488241Y-74215631D01*
X86362138Y-74042065D01*
X86210435Y-73890362D01*
X86036868Y-73764258D01*
X85845715Y-73666859D01*
X85641670Y-73600560D01*
X85429775Y-73567000D01*
X85429770Y-73567000D01*
X85215230Y-73567000D01*
X85215225Y-73567000D01*
X85003329Y-73600560D01*
X84799284Y-73666859D01*
X84608131Y-73764258D01*
X84509105Y-73836205D01*
X84434565Y-73890362D01*
X84434563Y-73890364D01*
X84434562Y-73890364D01*
X84282864Y-74042062D01*
X84282864Y-74042063D01*
X84282862Y-74042065D01*
X84228705Y-74116605D01*
X84156758Y-74215631D01*
X84059359Y-74406784D01*
X83993060Y-74610829D01*
X83959500Y-74822724D01*
X61827500Y-74822724D01*
X61827500Y-66399635D01*
X63639500Y-66399635D01*
X63639500Y-68220370D01*
X63639501Y-68220376D01*
X63645908Y-68279983D01*
X63696202Y-68414828D01*
X63696206Y-68414835D01*
X63782452Y-68530044D01*
X63782455Y-68530047D01*
X63897664Y-68616293D01*
X63897671Y-68616297D01*
X64032517Y-68666591D01*
X64032516Y-68666591D01*
X64039444Y-68667335D01*
X64092127Y-68673000D01*
X65912872Y-68672999D01*
X65972483Y-68666591D01*
X66107331Y-68616296D01*
X66222546Y-68530046D01*
X66308796Y-68414831D01*
X66359091Y-68279983D01*
X66365406Y-68221240D01*
X66392143Y-68156694D01*
X66449535Y-68116846D01*
X66488695Y-68110500D01*
X68994782Y-68110500D01*
X69061821Y-68130185D01*
X69100319Y-68169401D01*
X69152288Y-68253656D01*
X69276344Y-68377712D01*
X69425666Y-68469814D01*
X69592203Y-68524999D01*
X69694991Y-68535500D01*
X70470008Y-68535499D01*
X70470016Y-68535498D01*
X70470019Y-68535498D01*
X70526302Y-68529748D01*
X70572797Y-68524999D01*
X70739334Y-68469814D01*
X70888656Y-68377712D01*
X71012712Y-68253656D01*
X71104814Y-68104334D01*
X71159999Y-67937797D01*
X71170500Y-67835009D01*
X71170499Y-66784992D01*
X71159999Y-66682203D01*
X71104814Y-66515666D01*
X71012712Y-66366344D01*
X70888656Y-66242288D01*
X70739334Y-66150186D01*
X70572797Y-66095001D01*
X70572795Y-66095000D01*
X70470010Y-66084500D01*
X69694998Y-66084500D01*
X69694980Y-66084501D01*
X69592203Y-66095000D01*
X69592200Y-66095001D01*
X69425668Y-66150185D01*
X69425663Y-66150187D01*
X69276342Y-66242289D01*
X69152289Y-66366342D01*
X69152288Y-66366344D01*
X69108701Y-66437011D01*
X69100321Y-66450597D01*
X69048373Y-66497321D01*
X68994782Y-66509500D01*
X66488695Y-66509500D01*
X66421656Y-66489815D01*
X66375901Y-66437011D01*
X66365405Y-66398753D01*
X66359091Y-66340016D01*
X66308797Y-66205171D01*
X66308793Y-66205164D01*
X66222547Y-66089955D01*
X66222544Y-66089952D01*
X66107335Y-66003706D01*
X66107328Y-66003702D01*
X65972482Y-65953408D01*
X65972483Y-65953408D01*
X65912883Y-65947001D01*
X65912881Y-65947000D01*
X65912873Y-65947000D01*
X65912864Y-65947000D01*
X64092129Y-65947000D01*
X64092123Y-65947001D01*
X64032516Y-65953408D01*
X63897671Y-66003702D01*
X63897664Y-66003706D01*
X63782455Y-66089952D01*
X63782452Y-66089955D01*
X63696206Y-66205164D01*
X63696202Y-66205171D01*
X63645908Y-66340017D01*
X63639501Y-66399616D01*
X63639500Y-66399635D01*
X61827500Y-66399635D01*
X61827500Y-64662724D01*
X83959500Y-64662724D01*
X83959500Y-64877275D01*
X83993060Y-65089170D01*
X84059359Y-65293215D01*
X84156758Y-65484368D01*
X84282862Y-65657935D01*
X84434565Y-65809638D01*
X84608132Y-65935742D01*
X84698443Y-65981758D01*
X84799284Y-66033140D01*
X84799286Y-66033140D01*
X84799289Y-66033142D01*
X84908660Y-66068678D01*
X85003329Y-66099439D01*
X85215225Y-66133000D01*
X85215230Y-66133000D01*
X85429775Y-66133000D01*
X85641670Y-66099439D01*
X85655332Y-66095000D01*
X85845711Y-66033142D01*
X86036868Y-65935742D01*
X86210435Y-65809638D01*
X86362138Y-65657935D01*
X86488242Y-65484368D01*
X86585642Y-65293211D01*
X86651939Y-65089170D01*
X86685500Y-64877275D01*
X86685500Y-64662724D01*
X86651939Y-64450829D01*
X86585640Y-64246784D01*
X86488241Y-64055631D01*
X86362138Y-63882065D01*
X86210435Y-63730362D01*
X86036868Y-63604258D01*
X86014773Y-63593000D01*
X85845715Y-63506859D01*
X85641670Y-63440560D01*
X85429775Y-63407000D01*
X85429770Y-63407000D01*
X85215230Y-63407000D01*
X85215225Y-63407000D01*
X85003329Y-63440560D01*
X84799284Y-63506859D01*
X84608131Y-63604258D01*
X84509105Y-63676205D01*
X84434565Y-63730362D01*
X84434563Y-63730364D01*
X84434562Y-63730364D01*
X84282864Y-63882062D01*
X84282864Y-63882063D01*
X84282862Y-63882065D01*
X84228705Y-63956605D01*
X84156758Y-64055631D01*
X84059359Y-64246784D01*
X83993060Y-64450829D01*
X83959500Y-64662724D01*
X61827500Y-64662724D01*
X61827500Y-62122724D01*
X63639500Y-62122724D01*
X63639500Y-62337275D01*
X63673060Y-62549170D01*
X63739359Y-62753215D01*
X63836758Y-62944368D01*
X63962862Y-63117935D01*
X64114565Y-63269638D01*
X64288132Y-63395742D01*
X64376092Y-63440560D01*
X64479284Y-63493140D01*
X64479286Y-63493140D01*
X64479289Y-63493142D01*
X64521506Y-63506859D01*
X64683329Y-63559439D01*
X64895225Y-63593000D01*
X64895230Y-63593000D01*
X65109775Y-63593000D01*
X65321670Y-63559439D01*
X65525711Y-63493142D01*
X65716868Y-63395742D01*
X65890435Y-63269638D01*
X66042138Y-63117935D01*
X66068525Y-63081615D01*
X66123854Y-63038950D01*
X66168844Y-63030500D01*
X68994782Y-63030500D01*
X69061821Y-63050185D01*
X69100319Y-63089401D01*
X69152288Y-63173656D01*
X69276344Y-63297712D01*
X69425666Y-63389814D01*
X69592203Y-63444999D01*
X69694991Y-63455500D01*
X70470008Y-63455499D01*
X70470016Y-63455498D01*
X70470019Y-63455498D01*
X70526302Y-63449748D01*
X70572797Y-63444999D01*
X70739334Y-63389814D01*
X70888656Y-63297712D01*
X71012712Y-63173656D01*
X71104814Y-63024334D01*
X71159999Y-62857797D01*
X71170500Y-62755009D01*
X71170499Y-61704992D01*
X71159999Y-61602203D01*
X71104814Y-61435666D01*
X71012712Y-61286344D01*
X70888656Y-61162288D01*
X70739334Y-61070186D01*
X70572797Y-61015001D01*
X70572795Y-61015000D01*
X70470010Y-61004500D01*
X69694998Y-61004500D01*
X69694980Y-61004501D01*
X69592203Y-61015000D01*
X69592200Y-61015001D01*
X69425668Y-61070185D01*
X69425663Y-61070187D01*
X69276342Y-61162289D01*
X69152289Y-61286342D01*
X69152288Y-61286344D01*
X69117918Y-61342068D01*
X69100321Y-61370597D01*
X69048373Y-61417321D01*
X68994782Y-61429500D01*
X66168844Y-61429500D01*
X66101805Y-61409815D01*
X66068525Y-61378384D01*
X66042141Y-61342068D01*
X65890437Y-61190364D01*
X65890435Y-61190362D01*
X65716868Y-61064258D01*
X65525715Y-60966859D01*
X65321670Y-60900560D01*
X65109775Y-60867000D01*
X65109770Y-60867000D01*
X64895230Y-60867000D01*
X64895225Y-60867000D01*
X64683329Y-60900560D01*
X64479284Y-60966859D01*
X64288131Y-61064258D01*
X64279971Y-61070187D01*
X64114565Y-61190362D01*
X64114563Y-61190364D01*
X64114562Y-61190364D01*
X63962864Y-61342062D01*
X63962864Y-61342063D01*
X63962862Y-61342065D01*
X63936475Y-61378384D01*
X63836758Y-61515631D01*
X63739359Y-61706784D01*
X63673060Y-61910829D01*
X63639500Y-62122724D01*
X61827500Y-62122724D01*
X61827500Y-54502724D01*
X63639500Y-54502724D01*
X63639500Y-54717275D01*
X63673060Y-54929170D01*
X63739359Y-55133215D01*
X63836758Y-55324368D01*
X63962862Y-55497935D01*
X64114565Y-55649638D01*
X64288132Y-55775742D01*
X64378443Y-55821758D01*
X64479284Y-55873140D01*
X64479286Y-55873140D01*
X64479289Y-55873142D01*
X64588660Y-55908678D01*
X64683329Y-55939439D01*
X64895225Y-55973000D01*
X64895230Y-55973000D01*
X65109775Y-55973000D01*
X65321670Y-55939439D01*
X65525711Y-55873142D01*
X65716868Y-55775742D01*
X65890435Y-55649638D01*
X66042138Y-55497935D01*
X66168242Y-55324368D01*
X66265642Y-55133211D01*
X66331939Y-54929170D01*
X66365500Y-54717275D01*
X66365500Y-54502724D01*
X83959500Y-54502724D01*
X83959500Y-54717275D01*
X83993060Y-54929170D01*
X84059359Y-55133215D01*
X84156758Y-55324368D01*
X84282862Y-55497935D01*
X84434565Y-55649638D01*
X84608132Y-55775742D01*
X84698443Y-55821758D01*
X84799284Y-55873140D01*
X84799286Y-55873140D01*
X84799289Y-55873142D01*
X84908660Y-55908678D01*
X85003329Y-55939439D01*
X85215225Y-55973000D01*
X85215230Y-55973000D01*
X85429775Y-55973000D01*
X85641670Y-55939439D01*
X85845711Y-55873142D01*
X86036868Y-55775742D01*
X86210435Y-55649638D01*
X86362138Y-55497935D01*
X86488242Y-55324368D01*
X86585642Y-55133211D01*
X86651939Y-54929170D01*
X86685500Y-54717275D01*
X86685500Y-54502724D01*
X86651939Y-54290829D01*
X86585640Y-54086784D01*
X86488241Y-53895631D01*
X86362138Y-53722065D01*
X86210435Y-53570362D01*
X86036868Y-53444258D01*
X85845715Y-53346859D01*
X85641670Y-53280560D01*
X85429775Y-53247000D01*
X85429770Y-53247000D01*
X85215230Y-53247000D01*
X85215225Y-53247000D01*
X85003329Y-53280560D01*
X84799284Y-53346859D01*
X84608131Y-53444258D01*
X84509105Y-53516205D01*
X84434565Y-53570362D01*
X84434563Y-53570364D01*
X84434562Y-53570364D01*
X84282864Y-53722062D01*
X84282864Y-53722063D01*
X84282862Y-53722065D01*
X84228705Y-53796605D01*
X84156758Y-53895631D01*
X84059359Y-54086784D01*
X83993060Y-54290829D01*
X83959500Y-54502724D01*
X66365500Y-54502724D01*
X66331939Y-54290829D01*
X66265640Y-54086784D01*
X66168241Y-53895631D01*
X66042138Y-53722065D01*
X65890435Y-53570362D01*
X65716868Y-53444258D01*
X65525715Y-53346859D01*
X65321670Y-53280560D01*
X65109775Y-53247000D01*
X65109770Y-53247000D01*
X64895230Y-53247000D01*
X64895225Y-53247000D01*
X64683329Y-53280560D01*
X64479284Y-53346859D01*
X64288131Y-53444258D01*
X64189105Y-53516205D01*
X64114565Y-53570362D01*
X64114563Y-53570364D01*
X64114562Y-53570364D01*
X63962864Y-53722062D01*
X63962864Y-53722063D01*
X63962862Y-53722065D01*
X63908705Y-53796605D01*
X63836758Y-53895631D01*
X63739359Y-54086784D01*
X63673060Y-54290829D01*
X63639500Y-54502724D01*
X61827500Y-54502724D01*
X61827500Y-51559000D01*
X61847185Y-51491961D01*
X61899989Y-51446206D01*
X61951500Y-51435000D01*
X88373500Y-51435000D01*
X88440539Y-51454685D01*
G37*
%TD.AperFunction*%
%TD*%
M02*
