%TF.GenerationSoftware,KiCad,Pcbnew,9.0.8*%
%TF.CreationDate,2026-03-16T22:16:16+01:00*%
%TF.ProjectId,Power_Supply_Meter_Amp,506f7765-725f-4537-9570-706c795f4d65,1*%
%TF.SameCoordinates,Original*%
%TF.FileFunction,Paste,Top*%
%TF.FilePolarity,Positive*%
%FSLAX46Y46*%
G04 Gerber Fmt 4.6, Leading zero omitted, Abs format (unit mm)*
G04 Created by KiCad (PCBNEW 9.0.8) date 2026-03-16 22:16:16*
%MOMM*%
%LPD*%
G01*
G04 APERTURE LIST*
G04 Aperture macros list*
%AMRoundRect*
0 Rectangle with rounded corners*
0 $1 Rounding radius*
0 $2 $3 $4 $5 $6 $7 $8 $9 X,Y pos of 4 corners*
0 Add a 4 corners polygon primitive as box body*
4,1,4,$2,$3,$4,$5,$6,$7,$8,$9,$2,$3,0*
0 Add four circle primitives for the rounded corners*
1,1,$1+$1,$2,$3*
1,1,$1+$1,$4,$5*
1,1,$1+$1,$6,$7*
1,1,$1+$1,$8,$9*
0 Add four rect primitives between the rounded corners*
20,1,$1+$1,$2,$3,$4,$5,0*
20,1,$1+$1,$4,$5,$6,$7,0*
20,1,$1+$1,$6,$7,$8,$9,0*
20,1,$1+$1,$8,$9,$2,$3,0*%
G04 Aperture macros list end*
%ADD10RoundRect,0.250000X-0.350000X-0.450000X0.350000X-0.450000X0.350000X0.450000X-0.350000X0.450000X0*%
%ADD11RoundRect,0.250000X-0.337500X-0.475000X0.337500X-0.475000X0.337500X0.475000X-0.337500X0.475000X0*%
%ADD12RoundRect,0.250000X0.350000X0.450000X-0.350000X0.450000X-0.350000X-0.450000X0.350000X-0.450000X0*%
%ADD13RoundRect,0.250000X0.412500X1.100000X-0.412500X1.100000X-0.412500X-1.100000X0.412500X-1.100000X0*%
%ADD14RoundRect,0.250000X0.475000X-0.337500X0.475000X0.337500X-0.475000X0.337500X-0.475000X-0.337500X0*%
%ADD15RoundRect,0.250000X-0.275000X-0.700000X0.275000X-0.700000X0.275000X0.700000X-0.275000X0.700000X0*%
%ADD16RoundRect,0.250000X0.325000X0.450000X-0.325000X0.450000X-0.325000X-0.450000X0.325000X-0.450000X0*%
%ADD17RoundRect,0.250000X0.337500X0.475000X-0.337500X0.475000X-0.337500X-0.475000X0.337500X-0.475000X0*%
%ADD18R,2.700000X2.700000*%
%ADD19RoundRect,0.250000X-0.325000X-0.450000X0.325000X-0.450000X0.325000X0.450000X-0.325000X0.450000X0*%
G04 APERTURE END LIST*
D10*
%TO.C,Z237*%
X150865000Y-67140000D03*
X152865000Y-67140000D03*
%TD*%
D11*
%TO.C,C110*%
X74125000Y-115570000D03*
X76200000Y-115570000D03*
%TD*%
D12*
%TO.C,Z243*%
X170105000Y-92540000D03*
X168105000Y-92540000D03*
%TD*%
D13*
%TO.C,C85*%
X172670000Y-50800000D03*
X169545000Y-50800000D03*
%TD*%
D12*
%TO.C,Z254*%
X152865000Y-97620000D03*
X150865000Y-97620000D03*
%TD*%
D10*
%TO.C,Z260*%
X150865000Y-112860000D03*
X152865000Y-112860000D03*
%TD*%
%TO.C,Z261*%
X150865000Y-107780000D03*
X152865000Y-107780000D03*
%TD*%
%TO.C,R143*%
X174725000Y-90000000D03*
X176725000Y-90000000D03*
%TD*%
D14*
%TO.C,C113*%
X94212500Y-105410000D03*
X94212500Y-103335000D03*
%TD*%
%TO.C,C117*%
X94212500Y-97325000D03*
X94212500Y-95250000D03*
%TD*%
D11*
%TO.C,C88*%
X150790000Y-100160000D03*
X152865000Y-100160000D03*
%TD*%
D10*
%TO.C,Z259*%
X150865000Y-105240000D03*
X152865000Y-105240000D03*
%TD*%
D12*
%TO.C,R146*%
X176725000Y-64600000D03*
X174725000Y-64600000D03*
%TD*%
D10*
%TO.C,Z250*%
X168105000Y-107780000D03*
X170105000Y-107780000D03*
%TD*%
D12*
%TO.C,Z245*%
X170105000Y-97620000D03*
X168105000Y-97620000D03*
%TD*%
D15*
%TO.C,L1*%
X91062500Y-74930000D03*
X94212500Y-74930000D03*
%TD*%
D10*
%TO.C,Z251*%
X162295000Y-117940000D03*
X164295000Y-117940000D03*
%TD*%
D16*
%TO.C,D2*%
X176725000Y-67140000D03*
X174675000Y-67140000D03*
%TD*%
D10*
%TO.C,Z249*%
X150865000Y-95080000D03*
X152865000Y-95080000D03*
%TD*%
D15*
%TO.C,L2*%
X91062500Y-54610000D03*
X94212500Y-54610000D03*
%TD*%
D10*
%TO.C,Z253*%
X150865000Y-92540000D03*
X152865000Y-92540000D03*
%TD*%
%TO.C,Z238*%
X145515000Y-72220000D03*
X147515000Y-72220000D03*
%TD*%
D12*
%TO.C,R147*%
X170105000Y-77300000D03*
X168105000Y-77300000D03*
%TD*%
D10*
%TO.C,Z239*%
X150865000Y-64600000D03*
X152865000Y-64600000D03*
%TD*%
D17*
%TO.C,C101*%
X176762500Y-95080000D03*
X174687500Y-95080000D03*
%TD*%
D12*
%TO.C,Z262*%
X152865000Y-102700000D03*
X150865000Y-102700000D03*
%TD*%
D17*
%TO.C,C93*%
X170180000Y-100160000D03*
X168105000Y-100160000D03*
%TD*%
D11*
%TO.C,C87*%
X150790000Y-72220000D03*
X152865000Y-72220000D03*
%TD*%
D12*
%TO.C,R150*%
X170121000Y-105240000D03*
X168121000Y-105240000D03*
%TD*%
%TO.C,R151*%
X170121000Y-102700000D03*
X168121000Y-102700000D03*
%TD*%
D13*
%TO.C,C115*%
X52362500Y-92710000D03*
X49237500Y-92710000D03*
%TD*%
D10*
%TO.C,Z244*%
X150865000Y-77300000D03*
X152865000Y-77300000D03*
%TD*%
%TO.C,Z241*%
X99838000Y-69850000D03*
X101838000Y-69850000D03*
%TD*%
D15*
%TO.C,L5*%
X91062500Y-90170000D03*
X94212500Y-90170000D03*
%TD*%
D10*
%TO.C,Z255*%
X99838000Y-107950000D03*
X101838000Y-107950000D03*
%TD*%
D15*
%TO.C,L3*%
X91062500Y-110490000D03*
X94212500Y-110490000D03*
%TD*%
D18*
%TO.C,L4*%
X53910000Y-78740000D03*
X47690000Y-78740000D03*
X47700000Y-86360000D03*
%TD*%
D10*
%TO.C,R144*%
X174725000Y-92540000D03*
X176725000Y-92540000D03*
%TD*%
D13*
%TO.C,C116*%
X52362500Y-69850000D03*
X49237500Y-69850000D03*
%TD*%
D19*
%TO.C,D1*%
X168105000Y-64600000D03*
X170155000Y-64600000D03*
%TD*%
D10*
%TO.C,Z258*%
X99838000Y-92710000D03*
X101838000Y-92710000D03*
%TD*%
%TO.C,Z246*%
X145515000Y-84920000D03*
X147515000Y-84920000D03*
%TD*%
D12*
%TO.C,Z256*%
X164295000Y-115400000D03*
X162295000Y-115400000D03*
%TD*%
D10*
%TO.C,Z252*%
X145515000Y-100160000D03*
X147515000Y-100160000D03*
%TD*%
D12*
%TO.C,Z248*%
X152865000Y-74760000D03*
X150865000Y-74760000D03*
%TD*%
%TO.C,R148*%
X170105000Y-117940000D03*
X168105000Y-117940000D03*
%TD*%
%TO.C,R149*%
X170105000Y-120480000D03*
X168105000Y-120480000D03*
%TD*%
D11*
%TO.C,C103*%
X74125000Y-49530000D03*
X76200000Y-49530000D03*
%TD*%
D10*
%TO.C,R145*%
X155675000Y-58250000D03*
X157675000Y-58250000D03*
%TD*%
D14*
%TO.C,C90*%
X94212500Y-65807500D03*
X94212500Y-63732500D03*
%TD*%
D10*
%TO.C,R141*%
X155675000Y-60790000D03*
X157675000Y-60790000D03*
%TD*%
D12*
%TO.C,Z240*%
X152865000Y-69680000D03*
X150865000Y-69680000D03*
%TD*%
D11*
%TO.C,C84*%
X74125000Y-80010000D03*
X76200000Y-80010000D03*
%TD*%
D16*
%TO.C,D4*%
X170155000Y-115400000D03*
X168105000Y-115400000D03*
%TD*%
D12*
%TO.C,R142*%
X170105000Y-79840000D03*
X168105000Y-79840000D03*
%TD*%
D17*
%TO.C,C92*%
X170180000Y-74760000D03*
X168105000Y-74760000D03*
%TD*%
D11*
%TO.C,C121*%
X74125000Y-85090000D03*
X76200000Y-85090000D03*
%TD*%
D10*
%TO.C,Z247*%
X150865000Y-79840000D03*
X152865000Y-79840000D03*
%TD*%
D12*
%TO.C,Z257*%
X176725000Y-120480000D03*
X174725000Y-120480000D03*
%TD*%
D10*
%TO.C,Z242*%
X168105000Y-95080000D03*
X170105000Y-95080000D03*
%TD*%
M02*
