%TF.GenerationSoftware,KiCad,Pcbnew,9.0.8*%
%TF.CreationDate,2026-03-16T22:16:16+01:00*%
%TF.ProjectId,Power_Supply_Meter_Amp,506f7765-725f-4537-9570-706c795f4d65,1*%
%TF.SameCoordinates,Original*%
%TF.FileFunction,Copper,L1,Top*%
%TF.FilePolarity,Positive*%
%FSLAX46Y46*%
G04 Gerber Fmt 4.6, Leading zero omitted, Abs format (unit mm)*
G04 Created by KiCad (PCBNEW 9.0.8) date 2026-03-16 22:16:16*
%MOMM*%
%LPD*%
G01*
G04 APERTURE LIST*
G04 Aperture macros list*
%AMRoundRect*
0 Rectangle with rounded corners*
0 $1 Rounding radius*
0 $2 $3 $4 $5 $6 $7 $8 $9 X,Y pos of 4 corners*
0 Add a 4 corners polygon primitive as box body*
4,1,4,$2,$3,$4,$5,$6,$7,$8,$9,$2,$3,0*
0 Add four circle primitives for the rounded corners*
1,1,$1+$1,$2,$3*
1,1,$1+$1,$4,$5*
1,1,$1+$1,$6,$7*
1,1,$1+$1,$8,$9*
0 Add four rect primitives between the rounded corners*
20,1,$1+$1,$2,$3,$4,$5,0*
20,1,$1+$1,$4,$5,$6,$7,0*
20,1,$1+$1,$6,$7,$8,$9,0*
20,1,$1+$1,$8,$9,$2,$3,0*%
G04 Aperture macros list end*
%TA.AperFunction,ComponentPad*%
%ADD10R,2.600000X1.600000*%
%TD*%
%TA.AperFunction,ComponentPad*%
%ADD11O,2.600000X1.600000*%
%TD*%
%TA.AperFunction,SMDPad,CuDef*%
%ADD12RoundRect,0.250000X-0.350000X-0.450000X0.350000X-0.450000X0.350000X0.450000X-0.350000X0.450000X0*%
%TD*%
%TA.AperFunction,SMDPad,CuDef*%
%ADD13RoundRect,0.250000X-0.337500X-0.475000X0.337500X-0.475000X0.337500X0.475000X-0.337500X0.475000X0*%
%TD*%
%TA.AperFunction,SMDPad,CuDef*%
%ADD14RoundRect,0.250000X0.350000X0.450000X-0.350000X0.450000X-0.350000X-0.450000X0.350000X-0.450000X0*%
%TD*%
%TA.AperFunction,SMDPad,CuDef*%
%ADD15RoundRect,0.250000X0.412500X1.100000X-0.412500X1.100000X-0.412500X-1.100000X0.412500X-1.100000X0*%
%TD*%
%TA.AperFunction,ComponentPad*%
%ADD16C,6.400000*%
%TD*%
%TA.AperFunction,SMDPad,CuDef*%
%ADD17RoundRect,0.250000X0.475000X-0.337500X0.475000X0.337500X-0.475000X0.337500X-0.475000X-0.337500X0*%
%TD*%
%TA.AperFunction,SMDPad,CuDef*%
%ADD18RoundRect,0.250000X-0.275000X-0.700000X0.275000X-0.700000X0.275000X0.700000X-0.275000X0.700000X0*%
%TD*%
%TA.AperFunction,SMDPad,CuDef*%
%ADD19RoundRect,0.250000X0.325000X0.450000X-0.325000X0.450000X-0.325000X-0.450000X0.325000X-0.450000X0*%
%TD*%
%TA.AperFunction,ComponentPad*%
%ADD20R,1.700000X1.700000*%
%TD*%
%TA.AperFunction,ComponentPad*%
%ADD21C,1.700000*%
%TD*%
%TA.AperFunction,SMDPad,CuDef*%
%ADD22RoundRect,0.250000X0.337500X0.475000X-0.337500X0.475000X-0.337500X-0.475000X0.337500X-0.475000X0*%
%TD*%
%TA.AperFunction,ComponentPad*%
%ADD23RoundRect,0.250000X-0.550000X-0.550000X0.550000X-0.550000X0.550000X0.550000X-0.550000X0.550000X0*%
%TD*%
%TA.AperFunction,ComponentPad*%
%ADD24C,1.600000*%
%TD*%
%TA.AperFunction,ComponentPad*%
%ADD25R,1.725000X1.725000*%
%TD*%
%TA.AperFunction,ComponentPad*%
%ADD26C,1.725000*%
%TD*%
%TA.AperFunction,ComponentPad*%
%ADD27R,3.000000X3.000000*%
%TD*%
%TA.AperFunction,ComponentPad*%
%ADD28O,3.000000X2.000000*%
%TD*%
%TA.AperFunction,SMDPad,CuDef*%
%ADD29R,2.700000X2.700000*%
%TD*%
%TA.AperFunction,SMDPad,CuDef*%
%ADD30RoundRect,0.250000X-0.325000X-0.450000X0.325000X-0.450000X0.325000X0.450000X-0.325000X0.450000X0*%
%TD*%
%TA.AperFunction,ComponentPad*%
%ADD31RoundRect,0.250000X-0.950000X-0.550000X0.950000X-0.550000X0.950000X0.550000X-0.950000X0.550000X0*%
%TD*%
%TA.AperFunction,ComponentPad*%
%ADD32O,2.400000X1.600000*%
%TD*%
%TA.AperFunction,ViaPad*%
%ADD33C,0.700000*%
%TD*%
%TA.AperFunction,Conductor*%
%ADD34C,0.600000*%
%TD*%
%TA.AperFunction,Conductor*%
%ADD35C,1.200000*%
%TD*%
%TA.AperFunction,Conductor*%
%ADD36C,0.400000*%
%TD*%
%TA.AperFunction,Conductor*%
%ADD37C,1.600000*%
%TD*%
%TA.AperFunction,Conductor*%
%ADD38C,1.000000*%
%TD*%
G04 APERTURE END LIST*
D10*
%TO.P,J39,1,Pin_1*%
%TO.N,Net-(J39-Pin_1)*%
X50800000Y-110490000D03*
D11*
%TO.P,J39,2,Pin_2*%
%TO.N,Net-(J39-Pin_2)*%
X50800000Y-113030000D03*
%TD*%
D12*
%TO.P,Z237,1*%
%TO.N,Net-(J33-Pin_1)*%
X150865000Y-67140000D03*
%TO.P,Z237,2*%
%TO.N,Net-(U23A-+)*%
X152865000Y-67140000D03*
%TD*%
D13*
%TO.P,C110,1*%
%TO.N,Net-(U25-+VIN)*%
X74125000Y-115570000D03*
%TO.P,C110,2*%
%TO.N,Net-(C110-Pad2)*%
X76200000Y-115570000D03*
%TD*%
D14*
%TO.P,Z243,1*%
%TO.N,Net-(Z242-Pad2)*%
X170105000Y-92540000D03*
%TO.P,Z243,2*%
%TO.N,Net-(R143-Pad1)*%
X168105000Y-92540000D03*
%TD*%
D15*
%TO.P,C85,1*%
%TO.N,Net-(C85-Pad1)*%
X172670000Y-50800000D03*
%TO.P,C85,2*%
%TO.N,GND_M*%
X169545000Y-50800000D03*
%TD*%
D16*
%TO.P,H13,1*%
%TO.N,N/C*%
X121920000Y-50800000D03*
%TD*%
D14*
%TO.P,Z254,1*%
%TO.N,Net-(U24A-+)*%
X152865000Y-97620000D03*
%TO.P,Z254,2*%
%TO.N,GND_M*%
X150865000Y-97620000D03*
%TD*%
D12*
%TO.P,Z260,1*%
%TO.N,Net-(J42-Pin_2)*%
X150865000Y-112860000D03*
%TO.P,Z260,2*%
%TO.N,GND_M*%
X152865000Y-112860000D03*
%TD*%
%TO.P,Z261,1*%
%TO.N,Net-(J42-Pin_1)*%
X150865000Y-107780000D03*
%TO.P,Z261,2*%
%TO.N,GND_M*%
X152865000Y-107780000D03*
%TD*%
%TO.P,R143,1*%
%TO.N,Net-(R143-Pad1)*%
X174725000Y-90000000D03*
%TO.P,R143,2*%
%TO.N,Net-(J34-Pin_1)*%
X176725000Y-90000000D03*
%TD*%
D16*
%TO.P,H10,1*%
%TO.N,N/C*%
X121920000Y-125730000D03*
%TD*%
D17*
%TO.P,C113,1*%
%TO.N,Net-(C110-Pad2)*%
X94212500Y-105410000D03*
%TO.P,C113,2*%
%TO.N,GND_P*%
X94212500Y-103335000D03*
%TD*%
%TO.P,C117,1*%
%TO.N,GND_P*%
X94212500Y-97325000D03*
%TO.P,C117,2*%
%TO.N,Net-(C117-Pad2)*%
X94212500Y-95250000D03*
%TD*%
D13*
%TO.P,C88,1*%
%TO.N,GND_M*%
X150790000Y-100160000D03*
%TO.P,C88,2*%
%TO.N,+15V_M*%
X152865000Y-100160000D03*
%TD*%
D12*
%TO.P,Z259,1*%
%TO.N,Net-(J42-Pin_1)*%
X150865000Y-105240000D03*
%TO.P,Z259,2*%
%TO.N,Net-(U24B-+)*%
X152865000Y-105240000D03*
%TD*%
D14*
%TO.P,R146,1*%
%TO.N,Net-(D2-K)*%
X176725000Y-64600000D03*
%TO.P,R146,2*%
%TO.N,Net-(D1-A)*%
X174725000Y-64600000D03*
%TD*%
D12*
%TO.P,Z250,1*%
%TO.N,Net-(U24-Pad8)*%
X168105000Y-107780000D03*
%TO.P,Z250,2*%
%TO.N,Net-(Z250-Pad2)*%
X170105000Y-107780000D03*
%TD*%
D14*
%TO.P,Z245,1*%
%TO.N,Net-(Z242-Pad2)*%
X170105000Y-97620000D03*
%TO.P,Z245,2*%
%TO.N,GND_M*%
X168105000Y-97620000D03*
%TD*%
D18*
%TO.P,L1,1,1*%
%TO.N,Net-(U25-+VOUT)*%
X91062500Y-74930000D03*
%TO.P,L1,2,2*%
%TO.N,Net-(C84-Pad2)*%
X94212500Y-74930000D03*
%TD*%
D12*
%TO.P,Z251,1*%
%TO.N,Net-(Z250-Pad2)*%
X162295000Y-117940000D03*
%TO.P,Z251,2*%
%TO.N,Net-(R148-Pad2)*%
X164295000Y-117940000D03*
%TD*%
D10*
%TO.P,J35,1,Pin_1*%
%TO.N,Net-(J35-Pin_1)*%
X146515000Y-77300000D03*
D11*
%TO.P,J35,2,Pin_2*%
%TO.N,Net-(J35-Pin_2)*%
X146515000Y-79840000D03*
%TD*%
D19*
%TO.P,D2,1,K*%
%TO.N,Net-(D2-K)*%
X176725000Y-67140000D03*
%TO.P,D2,2,A*%
%TO.N,Net-(D1-K)*%
X174675000Y-67140000D03*
%TD*%
D12*
%TO.P,Z249,1*%
%TO.N,Net-(J36-Pin_1)*%
X150865000Y-95080000D03*
%TO.P,Z249,2*%
%TO.N,Net-(U24A-+)*%
X152865000Y-95080000D03*
%TD*%
D18*
%TO.P,L2,1,1*%
%TO.N,Net-(U25--VOUT)*%
X91062500Y-54610000D03*
%TO.P,L2,2,2*%
%TO.N,9V_GND_P*%
X94212500Y-54610000D03*
%TD*%
D12*
%TO.P,Z253,1*%
%TO.N,Net-(J36-Pin_1)*%
X150865000Y-92540000D03*
%TO.P,Z253,2*%
%TO.N,GND_M*%
X152865000Y-92540000D03*
%TD*%
D20*
%TO.P,J41,1,Pin_1*%
%TO.N,9V_GND_M*%
X139700000Y-107950000D03*
D21*
%TO.P,J41,2,Pin_2*%
X142240000Y-107950000D03*
%TO.P,J41,3,Pin_3*%
X139700000Y-110490000D03*
%TO.P,J41,4,Pin_4*%
X142240000Y-110490000D03*
%TO.P,J41,5,Pin_5*%
%TO.N,+9V_M*%
X139700000Y-113030000D03*
%TO.P,J41,6,Pin_6*%
X142240000Y-113030000D03*
%TO.P,J41,7,Pin_7*%
%TO.N,-15V_M*%
X139700000Y-115570000D03*
%TO.P,J41,8,Pin_8*%
X142240000Y-115570000D03*
%TO.P,J41,9,Pin_9*%
%TO.N,GND_M*%
X139700000Y-118110000D03*
%TO.P,J41,10,Pin_10*%
X142240000Y-118110000D03*
%TO.P,J41,11,Pin_11*%
X139700000Y-120650000D03*
%TO.P,J41,12,Pin_12*%
X142240000Y-120650000D03*
%TO.P,J41,13,Pin_13*%
%TO.N,+15V_M*%
X139700000Y-123190000D03*
%TO.P,J41,14,Pin_14*%
X142240000Y-123190000D03*
%TD*%
D12*
%TO.P,Z238,1*%
%TO.N,Net-(J33-Pin_2)*%
X145515000Y-72220000D03*
%TO.P,Z238,2*%
%TO.N,GND_M*%
X147515000Y-72220000D03*
%TD*%
D10*
%TO.P,J37,1,Pin_1*%
%TO.N,Net-(J37-Pin_1)*%
X175725000Y-112860000D03*
D11*
%TO.P,J37,2,Pin_2*%
%TO.N,Net-(J37-Pin_2)*%
X175725000Y-115400000D03*
%TD*%
D10*
%TO.P,J34,1,Pin_1*%
%TO.N,Net-(J34-Pin_1)*%
X175725000Y-100160000D03*
D11*
%TO.P,J34,2,Pin_2*%
%TO.N,GND_M*%
X175725000Y-102700000D03*
%TO.P,J34,3,Pin_3*%
%TO.N,9V_GND_M*%
X175725000Y-105240000D03*
%TO.P,J34,4,Pin_4*%
%TO.N,+9V_M*%
X175725000Y-107780000D03*
%TD*%
D14*
%TO.P,R147,1*%
%TO.N,Net-(D1-A)*%
X170105000Y-77300000D03*
%TO.P,R147,2*%
%TO.N,Net-(U23C--)*%
X168105000Y-77300000D03*
%TD*%
D16*
%TO.P,H9,1*%
%TO.N,N/C*%
X43180000Y-50800000D03*
%TD*%
D12*
%TO.P,Z239,1*%
%TO.N,Net-(J33-Pin_1)*%
X150865000Y-64600000D03*
%TO.P,Z239,2*%
%TO.N,GND_M*%
X152865000Y-64600000D03*
%TD*%
D22*
%TO.P,C101,1*%
%TO.N,Net-(J34-Pin_1)*%
X176762500Y-95080000D03*
%TO.P,C101,2*%
%TO.N,GND_M*%
X174687500Y-95080000D03*
%TD*%
D10*
%TO.P,J33,1,Pin_1*%
%TO.N,Net-(J33-Pin_1)*%
X146515000Y-64600000D03*
D11*
%TO.P,J33,2,Pin_2*%
%TO.N,Net-(J33-Pin_2)*%
X146515000Y-67140000D03*
%TD*%
D16*
%TO.P,H11,1*%
%TO.N,N/C*%
X137160000Y-50800000D03*
%TD*%
%TO.P,H12,1,1*%
%TO.N,Net-(C85-Pad1)*%
X182880000Y-50800000D03*
%TD*%
D14*
%TO.P,Z262,1*%
%TO.N,Net-(U24B-+)*%
X152865000Y-102700000D03*
%TO.P,Z262,2*%
%TO.N,GND_M*%
X150865000Y-102700000D03*
%TD*%
D22*
%TO.P,C93,1*%
%TO.N,GND_M*%
X170180000Y-100160000D03*
%TO.P,C93,2*%
%TO.N,-15V_M*%
X168105000Y-100160000D03*
%TD*%
D16*
%TO.P,H16,1*%
%TO.N,N/C*%
X137160000Y-99060000D03*
%TD*%
D10*
%TO.P,J42,1,Pin_1*%
%TO.N,Net-(J42-Pin_1)*%
X146515000Y-105240000D03*
D11*
%TO.P,J42,2,Pin_2*%
%TO.N,Net-(J42-Pin_2)*%
X146515000Y-107780000D03*
%TD*%
D23*
%TO.P,C91,1*%
%TO.N,+9V_P*%
X111992500Y-74676000D03*
D24*
%TO.P,C91,2*%
%TO.N,9V_GND_P*%
X114492500Y-74676000D03*
%TD*%
D20*
%TO.P,J40,1,Pin_1*%
%TO.N,9V_GND_P*%
X111992500Y-107950000D03*
D21*
%TO.P,J40,2,Pin_2*%
X114532500Y-107950000D03*
%TO.P,J40,3,Pin_3*%
X111992500Y-110490000D03*
%TO.P,J40,4,Pin_4*%
X114532500Y-110490000D03*
%TO.P,J40,5,Pin_5*%
%TO.N,+9V_P*%
X111992500Y-113030000D03*
%TO.P,J40,6,Pin_6*%
X114532500Y-113030000D03*
%TO.P,J40,7,Pin_7*%
%TO.N,-15V_P*%
X111992500Y-115570000D03*
%TO.P,J40,8,Pin_8*%
X114532500Y-115570000D03*
%TO.P,J40,9,Pin_9*%
%TO.N,GND_P*%
X111992500Y-118110000D03*
%TO.P,J40,10,Pin_10*%
X114532500Y-118110000D03*
%TO.P,J40,11,Pin_11*%
X111992500Y-120650000D03*
%TO.P,J40,12,Pin_12*%
X114532500Y-120650000D03*
%TO.P,J40,13,Pin_13*%
%TO.N,+15V_P*%
X111992500Y-123190000D03*
%TO.P,J40,14,Pin_14*%
X114532500Y-123190000D03*
%TD*%
D13*
%TO.P,C87,1*%
%TO.N,GND_M*%
X150790000Y-72220000D03*
%TO.P,C87,2*%
%TO.N,+15V_M*%
X152865000Y-72220000D03*
%TD*%
D14*
%TO.P,R150,1*%
%TO.N,+15V_M*%
X170121000Y-105240000D03*
%TO.P,R150,2*%
%TO.N,Net-(U24C--)*%
X168121000Y-105240000D03*
%TD*%
D10*
%TO.P,J43,1,Pin_1*%
%TO.N,Net-(J39-Pin_1)*%
X50800000Y-118110000D03*
D11*
%TO.P,J43,2,Pin_2*%
%TO.N,Net-(J39-Pin_2)*%
X50800000Y-120650000D03*
%TD*%
D14*
%TO.P,R151,1*%
%TO.N,GND_M*%
X170121000Y-102700000D03*
%TO.P,R151,2*%
%TO.N,Net-(U24C--)*%
X168121000Y-102700000D03*
%TD*%
D25*
%TO.P,U25,1,+VIN*%
%TO.N,Net-(U25-+VIN)*%
X65002500Y-67310000D03*
D26*
%TO.P,U25,2,-VIN*%
%TO.N,Net-(U25--VIN)*%
X65002500Y-62230000D03*
%TO.P,U25,3,CTRL*%
%TO.N,unconnected-(U25-CTRL-Pad3)*%
X65002500Y-54610000D03*
%TO.P,U25,4,-VOUT*%
%TO.N,Net-(U25--VOUT)*%
X85322500Y-54610000D03*
%TO.P,U25,5,TRIM*%
%TO.N,unconnected-(U25-TRIM-Pad5)*%
X85322500Y-64770000D03*
%TO.P,U25,6,+VOUT*%
%TO.N,Net-(U25-+VOUT)*%
X85322500Y-74930000D03*
%TD*%
D15*
%TO.P,C115,1*%
%TO.N,Net-(C115-Pad1)*%
X52362500Y-92710000D03*
%TO.P,C115,2*%
%TO.N,Net-(C115-Pad2)*%
X49237500Y-92710000D03*
%TD*%
D12*
%TO.P,Z244,1*%
%TO.N,Net-(J35-Pin_1)*%
X150865000Y-77300000D03*
%TO.P,Z244,2*%
%TO.N,Net-(U23B-+)*%
X152865000Y-77300000D03*
%TD*%
%TO.P,Z241,1*%
%TO.N,Net-(C84-Pad2)*%
X99838000Y-69850000D03*
%TO.P,Z241,2*%
%TO.N,+9V_P*%
X101838000Y-69850000D03*
%TD*%
D18*
%TO.P,L5,1,1*%
%TO.N,Net-(U26--VOUT)*%
X91062500Y-90170000D03*
%TO.P,L5,2,2*%
%TO.N,Net-(C117-Pad2)*%
X94212500Y-90170000D03*
%TD*%
D12*
%TO.P,Z255,1*%
%TO.N,Net-(C110-Pad2)*%
X99838000Y-107950000D03*
%TO.P,Z255,2*%
%TO.N,+15V_P*%
X101838000Y-107950000D03*
%TD*%
D10*
%TO.P,SW11,1*%
%TO.N,/Pegel_Post*%
X146515000Y-49360000D03*
D11*
%TO.P,SW11,2*%
%TO.N,/Pegel_Aux_Return*%
X146515000Y-51900000D03*
%TO.P,SW11,3*%
%TO.N,/Pegel_Mic_Effekt*%
X146515000Y-54440000D03*
%TO.P,SW11,4*%
%TO.N,/Pegel_Pre*%
X146515000Y-56980000D03*
%TO.P,SW11,5*%
%TO.N,Net-(R141-Pad1)*%
X146515000Y-59520000D03*
%TD*%
D18*
%TO.P,L3,1,1*%
%TO.N,Net-(U26-+VOUT)*%
X91062500Y-110490000D03*
%TO.P,L3,2,2*%
%TO.N,Net-(C110-Pad2)*%
X94212500Y-110490000D03*
%TD*%
D27*
%TO.P,L4,1*%
%TO.N,Net-(C115-Pad1)*%
X53975000Y-86360000D03*
D28*
%TO.P,L4,2*%
%TO.N,Net-(U25-+VIN)*%
X53975000Y-76360000D03*
D29*
X53910000Y-78740000D03*
D28*
%TO.P,L4,3*%
%TO.N,Net-(U25--VIN)*%
X41475000Y-76360000D03*
D29*
X47690000Y-78740000D03*
%TO.P,L4,4*%
%TO.N,Net-(C115-Pad2)*%
X47700000Y-86360000D03*
D28*
X41475000Y-86360000D03*
%TD*%
D12*
%TO.P,R144,1*%
%TO.N,GND_M*%
X174725000Y-92540000D03*
%TO.P,R144,2*%
%TO.N,Net-(J34-Pin_1)*%
X176725000Y-92540000D03*
%TD*%
D15*
%TO.P,C116,1*%
%TO.N,Net-(U25-+VIN)*%
X52362500Y-69850000D03*
%TO.P,C116,2*%
%TO.N,Net-(U25--VIN)*%
X49237500Y-69850000D03*
%TD*%
D30*
%TO.P,D1,1,K*%
%TO.N,Net-(D1-K)*%
X168105000Y-64600000D03*
%TO.P,D1,2,A*%
%TO.N,Net-(D1-A)*%
X170155000Y-64600000D03*
%TD*%
D10*
%TO.P,J36,1,Pin_1*%
%TO.N,Net-(J36-Pin_1)*%
X146515000Y-92540000D03*
D11*
%TO.P,J36,2,Pin_2*%
%TO.N,Net-(J36-Pin_2)*%
X146515000Y-95080000D03*
%TD*%
D12*
%TO.P,Z258,1*%
%TO.N,Net-(C117-Pad2)*%
X99838000Y-92710000D03*
%TO.P,Z258,2*%
%TO.N,-15V_P*%
X101838000Y-92710000D03*
%TD*%
D10*
%TO.P,SW12,1,1*%
%TO.N,Net-(J39-Pin_2)*%
X50800000Y-97790000D03*
D11*
%TO.P,SW12,2,2*%
%TO.N,Net-(C115-Pad2)*%
X50800000Y-100330000D03*
%TO.P,SW12,3,3*%
%TO.N,Net-(J39-Pin_1)*%
X50800000Y-102870000D03*
%TO.P,SW12,4,4*%
%TO.N,Net-(C115-Pad1)*%
X50800000Y-105410000D03*
%TD*%
D12*
%TO.P,Z246,1*%
%TO.N,Net-(J35-Pin_2)*%
X145515000Y-84920000D03*
%TO.P,Z246,2*%
%TO.N,GND_M*%
X147515000Y-84920000D03*
%TD*%
D14*
%TO.P,Z256,1*%
%TO.N,Net-(Z250-Pad2)*%
X164295000Y-115400000D03*
%TO.P,Z256,2*%
%TO.N,GND_M*%
X162295000Y-115400000D03*
%TD*%
D12*
%TO.P,Z252,1*%
%TO.N,Net-(J36-Pin_2)*%
X145515000Y-100160000D03*
%TO.P,Z252,2*%
%TO.N,GND_M*%
X147515000Y-100160000D03*
%TD*%
D14*
%TO.P,Z248,1*%
%TO.N,Net-(U23B-+)*%
X152865000Y-74760000D03*
%TO.P,Z248,2*%
%TO.N,GND_M*%
X150865000Y-74760000D03*
%TD*%
D31*
%TO.P,U24,1*%
%TO.N,/Pegel_Aux_Return*%
X156675000Y-92540000D03*
D32*
%TO.P,U24,2,-*%
X156675000Y-95080000D03*
%TO.P,U24,3,+*%
%TO.N,Net-(U24A-+)*%
X156675000Y-97620000D03*
%TO.P,U24,4,V+*%
%TO.N,+15V_M*%
X156675000Y-100160000D03*
%TO.P,U24,5,+*%
%TO.N,Net-(U24B-+)*%
X156675000Y-102700000D03*
%TO.P,U24,6,-*%
%TO.N,/Pegel_Post*%
X156675000Y-105240000D03*
%TO.P,U24,7*%
X156675000Y-107780000D03*
%TO.P,U24,8*%
%TO.N,Net-(U24-Pad8)*%
X164295000Y-107780000D03*
%TO.P,U24,9,-*%
%TO.N,Net-(U24C--)*%
X164295000Y-105240000D03*
%TO.P,U24,10,+*%
%TO.N,Net-(U24C-+)*%
X164295000Y-102700000D03*
%TO.P,U24,11,V-*%
%TO.N,-15V_M*%
X164295000Y-100160000D03*
%TO.P,U24,12,+*%
%TO.N,Net-(U24C-+)*%
X164295000Y-97620000D03*
%TO.P,U24,13,-*%
%TO.N,Net-(U24D--)*%
X164295000Y-95080000D03*
%TO.P,U24,14*%
X164295000Y-92540000D03*
%TD*%
D16*
%TO.P,H15,1*%
%TO.N,N/C*%
X182880000Y-125730000D03*
%TD*%
D14*
%TO.P,R148,1*%
%TO.N,Net-(D4-K)*%
X170105000Y-117940000D03*
%TO.P,R148,2*%
%TO.N,Net-(R148-Pad2)*%
X168105000Y-117940000D03*
%TD*%
%TO.P,R149,1*%
%TO.N,Net-(J37-Pin_1)*%
X170105000Y-120480000D03*
%TO.P,R149,2*%
%TO.N,Net-(D4-K)*%
X168105000Y-120480000D03*
%TD*%
D13*
%TO.P,C103,1*%
%TO.N,Net-(U25--VIN)*%
X74125000Y-49530000D03*
%TO.P,C103,2*%
%TO.N,9V_GND_P*%
X76200000Y-49530000D03*
%TD*%
D12*
%TO.P,R145,1*%
%TO.N,Net-(R141-Pad1)*%
X155675000Y-58250000D03*
%TO.P,R145,2*%
%TO.N,Net-(D2-K)*%
X157675000Y-58250000D03*
%TD*%
D17*
%TO.P,C90,1*%
%TO.N,Net-(C84-Pad2)*%
X94212500Y-65807500D03*
%TO.P,C90,2*%
%TO.N,9V_GND_P*%
X94212500Y-63732500D03*
%TD*%
D23*
%TO.P,C114,1*%
%TO.N,+15V_P*%
X101894000Y-113030000D03*
D24*
%TO.P,C114,2*%
%TO.N,GND_P*%
X104394000Y-113030000D03*
%TD*%
D31*
%TO.P,U23,1*%
%TO.N,/Pegel_Pre*%
X156675000Y-64600000D03*
D32*
%TO.P,U23,2,-*%
X156675000Y-67140000D03*
%TO.P,U23,3,+*%
%TO.N,Net-(U23A-+)*%
X156675000Y-69680000D03*
%TO.P,U23,4,V+*%
%TO.N,+15V_M*%
X156675000Y-72220000D03*
%TO.P,U23,5,+*%
%TO.N,Net-(U23B-+)*%
X156675000Y-74760000D03*
%TO.P,U23,6,-*%
%TO.N,/Pegel_Mic_Effekt*%
X156675000Y-77300000D03*
%TO.P,U23,7*%
X156675000Y-79840000D03*
%TO.P,U23,8*%
%TO.N,Net-(U24C-+)*%
X164295000Y-79840000D03*
%TO.P,U23,9,-*%
%TO.N,Net-(U23C--)*%
X164295000Y-77300000D03*
%TO.P,U23,10,+*%
%TO.N,GND_M*%
X164295000Y-74760000D03*
%TO.P,U23,11,V-*%
%TO.N,-15V_M*%
X164295000Y-72220000D03*
%TO.P,U23,12,+*%
%TO.N,GND_M*%
X164295000Y-69680000D03*
%TO.P,U23,13,-*%
%TO.N,Net-(D2-K)*%
X164295000Y-67140000D03*
%TO.P,U23,14*%
%TO.N,Net-(D1-K)*%
X164295000Y-64600000D03*
%TD*%
D12*
%TO.P,R141,1*%
%TO.N,Net-(R141-Pad1)*%
X155675000Y-60790000D03*
%TO.P,R141,2*%
%TO.N,Net-(U23C--)*%
X157675000Y-60790000D03*
%TD*%
D14*
%TO.P,Z240,1*%
%TO.N,Net-(U23A-+)*%
X152865000Y-69680000D03*
%TO.P,Z240,2*%
%TO.N,GND_M*%
X150865000Y-69680000D03*
%TD*%
D13*
%TO.P,C84,1*%
%TO.N,Net-(U25-+VIN)*%
X74125000Y-80010000D03*
%TO.P,C84,2*%
%TO.N,Net-(C84-Pad2)*%
X76200000Y-80010000D03*
%TD*%
D19*
%TO.P,D4,1,K*%
%TO.N,Net-(D4-K)*%
X170155000Y-115400000D03*
%TO.P,D4,2,A*%
%TO.N,GND_M*%
X168105000Y-115400000D03*
%TD*%
D25*
%TO.P,U26,1,+VIN*%
%TO.N,Net-(U25-+VIN)*%
X65002500Y-102870000D03*
D26*
%TO.P,U26,2,-VIN*%
%TO.N,Net-(U25--VIN)*%
X65002500Y-97790000D03*
%TO.P,U26,3,CTRL*%
%TO.N,unconnected-(U26-CTRL-Pad3)*%
X65002500Y-90170000D03*
%TO.P,U26,4,-VOUT*%
%TO.N,Net-(U26--VOUT)*%
X85322500Y-90170000D03*
%TO.P,U26,5,COM*%
%TO.N,GND_P*%
X85322500Y-100330000D03*
%TO.P,U26,6,+VOUT*%
%TO.N,Net-(U26-+VOUT)*%
X85322500Y-110490000D03*
%TD*%
D16*
%TO.P,H14,1*%
%TO.N,N/C*%
X43180000Y-125730000D03*
%TD*%
D14*
%TO.P,R142,1*%
%TO.N,Net-(U23C--)*%
X170105000Y-79840000D03*
%TO.P,R142,2*%
%TO.N,Net-(U24C-+)*%
X168105000Y-79840000D03*
%TD*%
D22*
%TO.P,C92,1*%
%TO.N,GND_M*%
X170180000Y-74760000D03*
%TO.P,C92,2*%
%TO.N,-15V_M*%
X168105000Y-74760000D03*
%TD*%
D13*
%TO.P,C121,1*%
%TO.N,Net-(U25--VIN)*%
X74125000Y-85090000D03*
%TO.P,C121,2*%
%TO.N,Net-(C117-Pad2)*%
X76200000Y-85090000D03*
%TD*%
D12*
%TO.P,Z247,1*%
%TO.N,Net-(J35-Pin_1)*%
X150865000Y-79840000D03*
%TO.P,Z247,2*%
%TO.N,GND_M*%
X152865000Y-79840000D03*
%TD*%
D14*
%TO.P,Z257,1*%
%TO.N,Net-(J37-Pin_2)*%
X176725000Y-120480000D03*
%TO.P,Z257,2*%
%TO.N,GND_M*%
X174725000Y-120480000D03*
%TD*%
D23*
%TO.P,C118,1*%
%TO.N,GND_P*%
X104437388Y-102616000D03*
D24*
%TO.P,C118,2*%
%TO.N,-15V_P*%
X106937388Y-102616000D03*
%TD*%
D12*
%TO.P,Z242,1*%
%TO.N,Net-(U24D--)*%
X168105000Y-95080000D03*
%TO.P,Z242,2*%
%TO.N,Net-(Z242-Pad2)*%
X170105000Y-95080000D03*
%TD*%
D33*
%TO.N,Net-(C84-Pad2)*%
X94212500Y-69850000D03*
%TO.N,Net-(C110-Pad2)*%
X92307500Y-105410000D03*
%TO.N,Net-(C117-Pad2)*%
X92307500Y-95250000D03*
%TO.N,9V_GND_P*%
X94212500Y-59690000D03*
%TO.N,GND_M*%
X168105000Y-115400000D03*
X149309000Y-97620000D03*
X154135000Y-92540000D03*
X166835000Y-97620000D03*
X170180000Y-74760000D03*
X149309000Y-72220000D03*
X149309000Y-102700000D03*
X170661000Y-102700000D03*
X165100000Y-49530000D03*
X173185000Y-95080000D03*
X157310000Y-116670000D03*
X174725000Y-120480000D03*
X154135000Y-64600000D03*
X165100000Y-50800000D03*
X154135000Y-79840000D03*
X154135000Y-107780000D03*
X149309000Y-74760000D03*
X155405000Y-110320000D03*
X149309000Y-69680000D03*
X149309000Y-100160000D03*
X149055000Y-84920000D03*
X165100000Y-52070000D03*
%TO.N,+15V_M*%
X178900000Y-110320000D03*
%TD*%
D34*
%TO.N,Net-(J36-Pin_1)*%
X150865000Y-95080000D02*
X150865000Y-92540000D01*
X146515000Y-92540000D02*
X150865000Y-92540000D01*
%TO.N,Net-(D1-A)*%
X170105000Y-77300000D02*
X177630000Y-77300000D01*
X179535000Y-63330000D02*
X178265000Y-62060000D01*
X178265000Y-62060000D02*
X175725000Y-62060000D01*
X177630000Y-77300000D02*
X179535000Y-75395000D01*
X174725000Y-63060000D02*
X174725000Y-64600000D01*
X170155000Y-64600000D02*
X174725000Y-64600000D01*
X179535000Y-75395000D02*
X179535000Y-63330000D01*
X175725000Y-62060000D02*
X174725000Y-63060000D01*
%TO.N,Net-(D1-K)*%
X169375000Y-67140000D02*
X168105000Y-65870000D01*
X174675000Y-67140000D02*
X169375000Y-67140000D01*
X168105000Y-65870000D02*
X168105000Y-64600000D01*
X168105000Y-64600000D02*
X165096000Y-64600000D01*
%TO.N,Net-(U25-+VIN)*%
X74125000Y-109452500D02*
X67542500Y-102870000D01*
X74125000Y-115570000D02*
X74125000Y-109452500D01*
X53975000Y-78675000D02*
X53910000Y-78740000D01*
X74125000Y-80010000D02*
X74125000Y-73892500D01*
X74125000Y-73892500D02*
X67542500Y-67310000D01*
D35*
X53975000Y-76360000D02*
X53975000Y-78675000D01*
D34*
X67542500Y-102870000D02*
X65002500Y-102870000D01*
D35*
X65002500Y-67310000D02*
X62230000Y-67310000D01*
D34*
X67542500Y-67310000D02*
X65002500Y-67310000D01*
%TO.N,Net-(C84-Pad2)*%
X76200000Y-73892500D02*
X82782500Y-67310000D01*
X76200000Y-80010000D02*
X76200000Y-73892500D01*
X82782500Y-67310000D02*
X91037500Y-67310000D01*
%TO.N,Net-(U25--VIN)*%
X67542500Y-62230000D02*
X65002500Y-62230000D01*
X67542500Y-97790000D02*
X65002500Y-97790000D01*
X74125000Y-85090000D02*
X74125000Y-91207500D01*
X74125000Y-55647500D02*
X67542500Y-62230000D01*
D35*
X65002500Y-62230000D02*
X62230000Y-62230000D01*
D34*
X74125000Y-91207500D02*
X67542500Y-97790000D01*
X74125000Y-49530000D02*
X74125000Y-55647500D01*
%TO.N,Net-(C110-Pad2)*%
X91037500Y-105410000D02*
X80242500Y-105410000D01*
X80242500Y-105410000D02*
X76200000Y-109452500D01*
X76200000Y-109452500D02*
X76200000Y-115570000D01*
D36*
%TO.N,Net-(C115-Pad2)*%
X50800000Y-100330000D02*
X50546000Y-100330000D01*
D34*
%TO.N,Net-(C117-Pad2)*%
X80242500Y-95250000D02*
X76200000Y-91207500D01*
X76200000Y-91207500D02*
X76200000Y-85090000D01*
X91037500Y-95250000D02*
X80242500Y-95250000D01*
%TO.N,Net-(D2-K)*%
X175810600Y-69680000D02*
X168740000Y-69680000D01*
X161755000Y-60790000D02*
X159215000Y-58250000D01*
X161755000Y-65870000D02*
X161755000Y-60790000D01*
X168740000Y-69680000D02*
X166200000Y-67140000D01*
D37*
X164295000Y-67140000D02*
X163025000Y-67140000D01*
D34*
X166200000Y-67140000D02*
X165096000Y-67140000D01*
X176725000Y-67140000D02*
X176725000Y-64600000D01*
X163025000Y-67140000D02*
X161755000Y-65870000D01*
X159215000Y-58250000D02*
X157675000Y-58250000D01*
%TO.N,Net-(D4-K)*%
X170105000Y-117940000D02*
X170105000Y-115450000D01*
X168105000Y-120480000D02*
X168105000Y-119940000D01*
X168105000Y-119940000D02*
X170105000Y-117940000D01*
X170105000Y-115450000D02*
X170155000Y-115400000D01*
X170155000Y-117990000D02*
X170105000Y-117940000D01*
D35*
%TO.N,Net-(J33-Pin_1)*%
X146515000Y-64600000D02*
X150865000Y-64600000D01*
D34*
X150865000Y-67140000D02*
X150865000Y-64600000D01*
%TO.N,Net-(J35-Pin_1)*%
X150865000Y-79840000D02*
X150865000Y-77300000D01*
X146515000Y-77300000D02*
X150865000Y-77300000D01*
%TO.N,Net-(J34-Pin_1)*%
X176762500Y-95080000D02*
X176762500Y-92577500D01*
X176762500Y-92577500D02*
X176725000Y-92540000D01*
X176725000Y-90000000D02*
X176725000Y-92540000D01*
%TO.N,Net-(J37-Pin_1)*%
X172466000Y-119380000D02*
X172466000Y-114046000D01*
D36*
%TO.N,Net-(J39-Pin_2)*%
X50165000Y-113030000D02*
X50800000Y-113030000D01*
D38*
X48027500Y-114532500D02*
X49530000Y-113030000D01*
X48027500Y-119397500D02*
X48027500Y-114532500D01*
D37*
X49530000Y-113030000D02*
X50800000Y-113030000D01*
D38*
X49280000Y-120650000D02*
X48027500Y-119397500D01*
D37*
X50800000Y-120650000D02*
X49280000Y-120650000D01*
D38*
%TO.N,Net-(J39-Pin_1)*%
X52070000Y-110490000D02*
X54377500Y-112797500D01*
X54377500Y-112797500D02*
X54377500Y-115802500D01*
D37*
X52070000Y-118110000D02*
X50800000Y-118110000D01*
D38*
X54377500Y-115802500D02*
X52070000Y-118110000D01*
D37*
X50800000Y-110490000D02*
X52070000Y-110490000D01*
D34*
%TO.N,Net-(U23C--)*%
X170105000Y-79300000D02*
X168105000Y-77300000D01*
X164295000Y-77300000D02*
X161120000Y-77300000D01*
X159850000Y-76030000D02*
X159850000Y-62060000D01*
X161120000Y-77300000D02*
X159850000Y-76030000D01*
X159850000Y-62060000D02*
X158580000Y-60790000D01*
X168105000Y-77300000D02*
X164295000Y-77300000D01*
X158580000Y-60790000D02*
X157675000Y-60790000D01*
X170105000Y-79840000D02*
X170105000Y-79300000D01*
D37*
%TO.N,Net-(U24C-+)*%
X163025000Y-79840000D02*
X164295000Y-79840000D01*
X164295000Y-102700000D02*
X163025000Y-102700000D01*
X164295000Y-97620000D02*
X163025000Y-97620000D01*
D34*
X161755000Y-101430000D02*
X161755000Y-98890000D01*
X161755000Y-96350000D02*
X161755000Y-81110000D01*
X163025000Y-102700000D02*
X161755000Y-101430000D01*
X161755000Y-81110000D02*
X163025000Y-79840000D01*
X168105000Y-79840000D02*
X164295000Y-79840000D01*
X163025000Y-97620000D02*
X161755000Y-96350000D01*
X161755000Y-98890000D02*
X163025000Y-97620000D01*
%TO.N,Net-(U24C--)*%
X168121000Y-102700000D02*
X168121000Y-105240000D01*
X164295000Y-105240000D02*
X168121000Y-105240000D01*
D37*
%TO.N,Net-(J42-Pin_2)*%
X146515000Y-107780000D02*
X147785000Y-107780000D01*
D34*
X147785000Y-107780000D02*
X150865000Y-110860000D01*
D35*
X150865000Y-112860000D02*
X150865000Y-112130000D01*
D34*
X150865000Y-110860000D02*
X150865000Y-112130000D01*
%TO.N,Net-(J42-Pin_1)*%
X146515000Y-105240000D02*
X150865000Y-105240000D01*
X150865000Y-107780000D02*
X150865000Y-105240000D01*
D37*
%TO.N,/Pegel_Post*%
X156675000Y-107780000D02*
X156675000Y-105240000D01*
%TO.N,/Pegel_Mic_Effekt*%
X156675000Y-79840000D02*
X156675000Y-77300000D01*
%TO.N,/Pegel_Pre*%
X156675000Y-67140000D02*
X156675000Y-64600000D01*
%TO.N,/Pegel_Aux_Return*%
X156675000Y-95080000D02*
X156675000Y-92540000D01*
D38*
%TO.N,Net-(U25-+VOUT)*%
X91062500Y-74930000D02*
X85322500Y-74930000D01*
%TO.N,Net-(U25--VOUT)*%
X91062500Y-54610000D02*
X85322500Y-54610000D01*
%TO.N,Net-(U26-+VOUT)*%
X91062500Y-110490000D02*
X85322500Y-110490000D01*
D34*
%TO.N,Net-(U24B-+)*%
X152865000Y-105240000D02*
X152865000Y-102700000D01*
X152865000Y-102700000D02*
X156675000Y-102700000D01*
%TO.N,Net-(U23B-+)*%
X156675000Y-74760000D02*
X152865000Y-74760000D01*
X152865000Y-77300000D02*
X152865000Y-74760000D01*
%TO.N,Net-(U24A-+)*%
X152865000Y-97620000D02*
X152865000Y-95080000D01*
X152865000Y-97620000D02*
X156675000Y-97620000D01*
%TO.N,Net-(U23A-+)*%
X152865000Y-69680000D02*
X152865000Y-67140000D01*
X152865000Y-69680000D02*
X156675000Y-69680000D01*
D37*
%TO.N,Net-(U24D--)*%
X164295000Y-95080000D02*
X164295000Y-92540000D01*
D34*
X168105000Y-95080000D02*
X164295000Y-95080000D01*
%TO.N,Net-(U24-Pad8)*%
X168105000Y-107780000D02*
X164295000Y-107780000D01*
D38*
%TO.N,Net-(U26--VOUT)*%
X91062500Y-90170000D02*
X85322500Y-90170000D01*
D34*
%TO.N,Net-(R143-Pad1)*%
X174762500Y-90000000D02*
X169375000Y-90000000D01*
X168105000Y-91270000D02*
X169375000Y-90000000D01*
D37*
X168105000Y-92540000D02*
X168105000Y-91270000D01*
D34*
%TO.N,Net-(R148-Pad2)*%
X168105000Y-117940000D02*
X164295000Y-117940000D01*
D35*
%TO.N,9V_GND_P*%
X114492500Y-65429888D02*
X114492500Y-64730000D01*
D34*
X76200000Y-49530000D02*
X76200000Y-55647500D01*
X82782500Y-62230000D02*
X91037500Y-62230000D01*
X76200000Y-55647500D02*
X82782500Y-62230000D01*
D35*
X114532500Y-89575000D02*
X114532500Y-107950000D01*
D34*
X114492500Y-89535000D02*
X114532500Y-89575000D01*
D35*
X114492500Y-64730000D02*
X113262500Y-63500000D01*
X114492500Y-89535000D02*
X114492500Y-65429888D01*
%TO.N,GND_P*%
X104397388Y-113689888D02*
X104397388Y-115827388D01*
X107950000Y-119380000D02*
X113030000Y-119380000D01*
D38*
X85322500Y-100330000D02*
X91037500Y-100330000D01*
D35*
X104397388Y-103480112D02*
X104437388Y-103440112D01*
X104397388Y-112395000D02*
X104397388Y-103480112D01*
X104397388Y-115827388D02*
X107950000Y-119380000D01*
X104397388Y-112395000D02*
X104397388Y-113689888D01*
D38*
%TO.N,GND_M*%
X150865000Y-69680000D02*
X149309000Y-69680000D01*
D34*
X150865000Y-72295000D02*
X150790000Y-72220000D01*
D38*
X172550000Y-95080000D02*
X173185000Y-95080000D01*
D35*
X147515000Y-100160000D02*
X149055000Y-100160000D01*
D34*
X150790000Y-97695000D02*
X150865000Y-97620000D01*
D38*
X152865000Y-64600000D02*
X154135000Y-64600000D01*
X150865000Y-102700000D02*
X149309000Y-102700000D01*
X152865000Y-79840000D02*
X154135000Y-79840000D01*
D34*
X150790000Y-102625000D02*
X150865000Y-102700000D01*
D38*
X172550000Y-98890000D02*
X172550000Y-95080000D01*
X150865000Y-74760000D02*
X149309000Y-74760000D01*
D35*
X150790000Y-100160000D02*
X149055000Y-100160000D01*
D38*
X152865000Y-107780000D02*
X154135000Y-107780000D01*
X170661000Y-102700000D02*
X170121000Y-102700000D01*
X152865000Y-92540000D02*
X154135000Y-92540000D01*
X170180000Y-100160000D02*
X171280000Y-100160000D01*
X147515000Y-84920000D02*
X149055000Y-84920000D01*
X171280000Y-100160000D02*
X172550000Y-98890000D01*
X150865000Y-97620000D02*
X149309000Y-97620000D01*
X150790000Y-72220000D02*
X147515000Y-72220000D01*
X168105000Y-97620000D02*
X166835000Y-97620000D01*
D34*
X174725000Y-95042500D02*
X174687500Y-95080000D01*
D38*
%TO.N,+15V_M*%
X171915000Y-109050000D02*
X171915000Y-106510000D01*
X171915000Y-106510000D02*
X170645000Y-105240000D01*
D34*
X170121000Y-105240000D02*
X170645000Y-105240000D01*
D38*
X152865000Y-100160000D02*
X156675000Y-100160000D01*
X152865000Y-72220000D02*
X156675000Y-72220000D01*
X173185000Y-110320000D02*
X171915000Y-109050000D01*
X178900000Y-110320000D02*
X173185000Y-110320000D01*
%TO.N,-15V_M*%
X168105000Y-100160000D02*
X164295000Y-100160000D01*
X166835000Y-72220000D02*
X164295000Y-72220000D01*
X168105000Y-74760000D02*
X168105000Y-73490000D01*
X168105000Y-73490000D02*
X166835000Y-72220000D01*
D35*
%TO.N,+15V_P*%
X105410000Y-123190000D02*
X111992500Y-123190000D01*
X101897388Y-119677388D02*
X105410000Y-123190000D01*
D34*
X101897388Y-108014888D02*
X101832500Y-107950000D01*
D35*
X101897388Y-112395000D02*
X101897388Y-108014888D01*
X111992500Y-123190000D02*
X114532500Y-123190000D01*
X101897388Y-112395000D02*
X101897388Y-119677388D01*
%TO.N,-15V_P*%
X106937388Y-100965000D02*
X106937388Y-95274888D01*
X106937388Y-100965000D02*
X106937388Y-113287388D01*
X104372500Y-92710000D02*
X106937388Y-95274888D01*
X111992500Y-115570000D02*
X114532500Y-115570000D01*
X101832500Y-92710000D02*
X104372500Y-92710000D01*
X109220000Y-115570000D02*
X111992500Y-115570000D01*
X106937388Y-113287388D02*
X109220000Y-115570000D01*
%TO.N,+9V_P*%
X109452500Y-106447500D02*
X109452500Y-111992500D01*
X111992500Y-113030000D02*
X114532500Y-113030000D01*
X111992500Y-72390000D02*
X111992500Y-103907500D01*
X110490000Y-113030000D02*
X111992500Y-113030000D01*
X101832500Y-69850000D02*
X109452500Y-69850000D01*
X111992500Y-103907500D02*
X109452500Y-106447500D01*
X109452500Y-69850000D02*
X111992500Y-72390000D01*
X109452500Y-111992500D02*
X110490000Y-113030000D01*
D36*
%TO.N,Net-(C115-Pad1)*%
X50800000Y-105410000D02*
X51054000Y-105410000D01*
D34*
%TO.N,Net-(Z242-Pad2)*%
X170105000Y-97620000D02*
X170105000Y-95080000D01*
X170105000Y-95080000D02*
X170105000Y-92540000D01*
%TO.N,Net-(Z250-Pad2)*%
X162295000Y-117400000D02*
X164295000Y-115400000D01*
X168105000Y-112860000D02*
X165565000Y-112860000D01*
X164295000Y-114130000D02*
X164295000Y-115400000D01*
X162295000Y-117940000D02*
X162295000Y-117400000D01*
X170105000Y-107780000D02*
X170105000Y-110860000D01*
X165565000Y-112860000D02*
X164295000Y-114130000D01*
X170105000Y-110860000D02*
X168105000Y-112860000D01*
%TD*%
%TA.AperFunction,Conductor*%
%TO.N,Net-(U25-+VIN)*%
G36*
X63016753Y-65409805D02*
G01*
X63381909Y-65514529D01*
X63907243Y-65665193D01*
X63938778Y-65679236D01*
X64008001Y-65722501D01*
X64008000Y-65722501D01*
X64064809Y-65758007D01*
X64107545Y-65803047D01*
X64500456Y-66511954D01*
X64516000Y-66572065D01*
X64516000Y-68047934D01*
X64500456Y-68108045D01*
X64107545Y-68816952D01*
X64097070Y-68827991D01*
X64091773Y-68839216D01*
X64064811Y-68861992D01*
X64020667Y-68889582D01*
X64008000Y-68897500D01*
X63943740Y-68937661D01*
X63938778Y-68940763D01*
X63907244Y-68954805D01*
X63016754Y-69210195D01*
X62982569Y-69215000D01*
X56515000Y-69215000D01*
X56515000Y-78442638D01*
X56495315Y-78509677D01*
X56478681Y-78530319D01*
X56051319Y-78957681D01*
X55989996Y-78991166D01*
X55963638Y-78994000D01*
X51986362Y-78994000D01*
X51919323Y-78974315D01*
X51898681Y-78957681D01*
X51471319Y-78530319D01*
X51437834Y-78468996D01*
X51435000Y-78442638D01*
X51435000Y-68469665D01*
X51444439Y-68422212D01*
X51574571Y-68108045D01*
X51779115Y-67614230D01*
X51805991Y-67574008D01*
X53604008Y-65775991D01*
X53644230Y-65749115D01*
X54452212Y-65414438D01*
X54499665Y-65405000D01*
X62982569Y-65405000D01*
X63016753Y-65409805D01*
G37*
%TD.AperFunction*%
%TD*%
%TA.AperFunction,Conductor*%
%TO.N,Net-(J37-Pin_1)*%
G36*
X172630801Y-119011512D02*
G01*
X172633986Y-119014586D01*
X172818481Y-119199081D01*
X172851966Y-119260404D01*
X172854800Y-119286762D01*
X172854800Y-120436638D01*
X172835115Y-120503677D01*
X172818481Y-120524319D01*
X172391119Y-120951681D01*
X172329796Y-120985166D01*
X172303438Y-120988000D01*
X170561362Y-120988000D01*
X170494323Y-120968315D01*
X170473681Y-120951681D01*
X170089681Y-120567681D01*
X170056196Y-120506358D01*
X170061180Y-120436666D01*
X170089681Y-120392319D01*
X170473681Y-120008319D01*
X170535004Y-119974834D01*
X170561362Y-119972000D01*
X171280000Y-119972000D01*
X172080995Y-119171004D01*
X172121217Y-119144128D01*
X172498856Y-118987705D01*
X172568321Y-118980237D01*
X172630801Y-119011512D01*
G37*
%TD.AperFunction*%
%TD*%
%TA.AperFunction,Conductor*%
%TO.N,GND_M*%
G36*
X162232677Y-114911685D02*
G01*
X162253319Y-114928319D01*
X162480681Y-115155681D01*
X162514166Y-115217004D01*
X162517000Y-115243362D01*
X162517000Y-115556638D01*
X162497315Y-115623677D01*
X162480681Y-115644319D01*
X162253319Y-115871681D01*
X162191996Y-115905166D01*
X162165638Y-115908000D01*
X161500999Y-115908000D01*
X161288868Y-116120132D01*
X160206573Y-117202426D01*
X160166345Y-117229306D01*
X159699788Y-117422561D01*
X159652335Y-117432000D01*
X156899362Y-117432000D01*
X156832323Y-117412315D01*
X156811681Y-117395681D01*
X156584319Y-117168319D01*
X156550834Y-117106996D01*
X156548000Y-117080638D01*
X156548000Y-115751362D01*
X156567685Y-115684323D01*
X156584319Y-115663681D01*
X156811681Y-115436319D01*
X156873004Y-115402834D01*
X156899362Y-115400000D01*
X159977000Y-115400000D01*
X160255429Y-115121570D01*
X160295651Y-115094694D01*
X160762212Y-114901438D01*
X160809665Y-114892000D01*
X162165638Y-114892000D01*
X162232677Y-114911685D01*
G37*
%TD.AperFunction*%
%TD*%
%TA.AperFunction,Conductor*%
%TO.N,Net-(J37-Pin_2)*%
G36*
X176456677Y-115419685D02*
G01*
X176477319Y-115436319D01*
X176704681Y-115663681D01*
X176738166Y-115725004D01*
X176741000Y-115751362D01*
X176741000Y-116924000D01*
X177019426Y-117202426D01*
X177046306Y-117242654D01*
X177239561Y-117709212D01*
X177249000Y-117756665D01*
X177249000Y-120128638D01*
X177229315Y-120195677D01*
X177212681Y-120216319D01*
X176985319Y-120443681D01*
X176923996Y-120477166D01*
X176897638Y-120480000D01*
X176584362Y-120480000D01*
X176517323Y-120460315D01*
X176496681Y-120443681D01*
X176269319Y-120216319D01*
X176235834Y-120154996D01*
X176233000Y-120128638D01*
X176233000Y-118448000D01*
X174938573Y-117153573D01*
X174911693Y-117113345D01*
X174718439Y-116646787D01*
X174709000Y-116599334D01*
X174709000Y-115751362D01*
X174728685Y-115684323D01*
X174745319Y-115663681D01*
X174972681Y-115436319D01*
X175034004Y-115402834D01*
X175060362Y-115400000D01*
X176389638Y-115400000D01*
X176456677Y-115419685D01*
G37*
%TD.AperFunction*%
%TD*%
%TA.AperFunction,Conductor*%
%TO.N,9V_GND_P*%
G36*
X103895575Y-53349713D02*
G01*
X104698893Y-53687881D01*
X104739460Y-53715495D01*
X104861136Y-53840000D01*
X113170272Y-62342372D01*
X114928052Y-64141030D01*
X114954201Y-64180904D01*
X115282228Y-64985885D01*
X115285332Y-64993501D01*
X115294500Y-65040295D01*
X115294500Y-65488638D01*
X115274815Y-65555677D01*
X115258181Y-65576319D01*
X114830819Y-66003681D01*
X114769496Y-66037166D01*
X114743138Y-66040000D01*
X114041165Y-66040000D01*
X113993712Y-66030561D01*
X113185733Y-65695885D01*
X113145505Y-65669005D01*
X112500500Y-65024000D01*
X112500501Y-65024000D01*
X109389000Y-64985885D01*
X106797466Y-64954140D01*
X106758545Y-64947369D01*
X105899026Y-64650844D01*
X105864210Y-64632176D01*
X105277888Y-64184452D01*
X104880500Y-63881000D01*
X104380500Y-63881000D01*
X94128862Y-63881000D01*
X94061823Y-63861315D01*
X94041181Y-63844681D01*
X93613819Y-63417319D01*
X93580334Y-63355996D01*
X93577500Y-63329638D01*
X93577500Y-62865000D01*
X93077500Y-62865000D01*
X90318862Y-62865000D01*
X90251823Y-62845315D01*
X90231181Y-62828681D01*
X89803819Y-62401319D01*
X89789115Y-62374391D01*
X89772523Y-62348573D01*
X89771631Y-62342372D01*
X89770334Y-62339996D01*
X89767500Y-62313638D01*
X89767500Y-62135029D01*
X89787185Y-62067990D01*
X89790894Y-62062541D01*
X90218437Y-61469358D01*
X90273603Y-61426484D01*
X90279794Y-61424235D01*
X93103158Y-60483114D01*
X93577500Y-60325000D01*
X93577500Y-53891362D01*
X93597185Y-53824323D01*
X93613819Y-53803681D01*
X94041181Y-53376319D01*
X94102504Y-53342834D01*
X94128862Y-53340000D01*
X103847466Y-53340000D01*
X103895575Y-53349713D01*
G37*
%TD.AperFunction*%
%TD*%
%TA.AperFunction,Conductor*%
%TO.N,Net-(J33-Pin_2)*%
G36*
X147246677Y-66905685D02*
G01*
X147267319Y-66922319D01*
X147494681Y-67149681D01*
X147528166Y-67211004D01*
X147531000Y-67237362D01*
X147531000Y-68085334D01*
X147521561Y-68132787D01*
X147328306Y-68599345D01*
X147301426Y-68639573D01*
X146007000Y-69933999D01*
X146007000Y-71614638D01*
X145987315Y-71681677D01*
X145970681Y-71702319D01*
X145743319Y-71929681D01*
X145681996Y-71963166D01*
X145655638Y-71966000D01*
X145342362Y-71966000D01*
X145275323Y-71946315D01*
X145254681Y-71929681D01*
X145027319Y-71702319D01*
X144993834Y-71640996D01*
X144991000Y-71614638D01*
X144991000Y-69242665D01*
X145000439Y-69195212D01*
X145193694Y-68728651D01*
X145220568Y-68688431D01*
X145286868Y-68622132D01*
X145499000Y-68410000D01*
X145499000Y-67237362D01*
X145518685Y-67170323D01*
X145535319Y-67149681D01*
X145762681Y-66922319D01*
X145824004Y-66888834D01*
X145850362Y-66886000D01*
X147179638Y-66886000D01*
X147246677Y-66905685D01*
G37*
%TD.AperFunction*%
%TD*%
%TA.AperFunction,Conductor*%
%TO.N,Net-(R141-Pad1)*%
G36*
X155882677Y-57761685D02*
G01*
X155903319Y-57778319D01*
X156130681Y-58005681D01*
X156164166Y-58067004D01*
X156167000Y-58093362D01*
X156167000Y-60946638D01*
X156147315Y-61013677D01*
X156130681Y-61034319D01*
X155903319Y-61261681D01*
X155841996Y-61295166D01*
X155815638Y-61298000D01*
X150395665Y-61298000D01*
X150348212Y-61288561D01*
X149881654Y-61095306D01*
X149841426Y-61068426D01*
X148801000Y-60028000D01*
X148501000Y-60028000D01*
X147374362Y-60028000D01*
X147307323Y-60008315D01*
X147286681Y-59991681D01*
X147059319Y-59764319D01*
X147025834Y-59702996D01*
X147023000Y-59676638D01*
X147023000Y-59109362D01*
X147042685Y-59042323D01*
X147059319Y-59021681D01*
X147286681Y-58794319D01*
X147348004Y-58760834D01*
X147374362Y-58758000D01*
X148801000Y-58758000D01*
X149587429Y-57971570D01*
X149627651Y-57944694D01*
X150094212Y-57751438D01*
X150141665Y-57742000D01*
X155815638Y-57742000D01*
X155882677Y-57761685D01*
G37*
%TD.AperFunction*%
%TD*%
%TA.AperFunction,Conductor*%
%TO.N,GND_P*%
G36*
X114683177Y-117494685D02*
G01*
X114703819Y-117511319D01*
X115131181Y-117938681D01*
X115164666Y-118000004D01*
X115167500Y-118026362D01*
X115167500Y-120733638D01*
X115147815Y-120800677D01*
X115131181Y-120821319D01*
X114703819Y-121248681D01*
X114642496Y-121282166D01*
X114616138Y-121285000D01*
X111908862Y-121285000D01*
X111841823Y-121265315D01*
X111821181Y-121248681D01*
X111393819Y-120821319D01*
X111360334Y-120759996D01*
X111357500Y-120733638D01*
X111357500Y-118026362D01*
X111377185Y-117959323D01*
X111393819Y-117938681D01*
X111821181Y-117511319D01*
X111882504Y-117477834D01*
X111908862Y-117475000D01*
X114616138Y-117475000D01*
X114683177Y-117494685D01*
G37*
%TD.AperFunction*%
%TD*%
%TA.AperFunction,Conductor*%
%TO.N,Net-(C115-Pad2)*%
G36*
X49680677Y-84855685D02*
G01*
X49701319Y-84872319D01*
X50128681Y-85299681D01*
X50162166Y-85361004D01*
X50165000Y-85387362D01*
X50165000Y-95333638D01*
X50145315Y-95400677D01*
X50128681Y-95421319D01*
X49701319Y-95848681D01*
X49639996Y-95882166D01*
X49613638Y-95885000D01*
X48895000Y-95885000D01*
X48895000Y-99060000D01*
X49305554Y-99060000D01*
X49348888Y-99067819D01*
X49392508Y-99084088D01*
X49392511Y-99084088D01*
X49392517Y-99084091D01*
X49452127Y-99090500D01*
X51549137Y-99090499D01*
X51616176Y-99110184D01*
X51636818Y-99126818D01*
X52033681Y-99523681D01*
X52067166Y-99585004D01*
X52070000Y-99611362D01*
X52070000Y-101048637D01*
X52050315Y-101115676D01*
X52033681Y-101136318D01*
X51618082Y-101551916D01*
X51556759Y-101585401D01*
X51511003Y-101586708D01*
X51402357Y-101569500D01*
X51402352Y-101569500D01*
X50197648Y-101569500D01*
X50097255Y-101585401D01*
X50014723Y-101598473D01*
X49995325Y-101600000D01*
X45636362Y-101600000D01*
X45569323Y-101580315D01*
X45548681Y-101563681D01*
X45121319Y-101136319D01*
X45087834Y-101074996D01*
X45085000Y-101048638D01*
X45085000Y-90805000D01*
X45084999Y-90804999D01*
X42862500Y-89535000D01*
X41103099Y-88529627D01*
X41057371Y-88484204D01*
X40656751Y-87793864D01*
X40640000Y-87731625D01*
X40640000Y-85387362D01*
X40659685Y-85320323D01*
X40676319Y-85299681D01*
X41103681Y-84872319D01*
X41165004Y-84838834D01*
X41191362Y-84836000D01*
X49613638Y-84836000D01*
X49680677Y-84855685D01*
G37*
%TD.AperFunction*%
%TD*%
%TA.AperFunction,Conductor*%
%TO.N,Net-(C84-Pad2)*%
G36*
X99570177Y-65424685D02*
G01*
X99590819Y-65441319D01*
X100018181Y-65868681D01*
X100051666Y-65930004D01*
X100054500Y-65956362D01*
X100054500Y-75648638D01*
X100034815Y-75715677D01*
X100018181Y-75736319D01*
X99590819Y-76163681D01*
X99529496Y-76197166D01*
X99503138Y-76200000D01*
X94128862Y-76200000D01*
X94061823Y-76180315D01*
X94041181Y-76163681D01*
X93613819Y-75736319D01*
X93580334Y-75674996D01*
X93577500Y-75648638D01*
X93577500Y-69215000D01*
X90279817Y-68115772D01*
X90222442Y-68075898D01*
X90218435Y-68070639D01*
X89790906Y-67477474D01*
X89783905Y-67457617D01*
X89772523Y-67439905D01*
X89768983Y-67415287D01*
X89767676Y-67411579D01*
X89767500Y-67404970D01*
X89767500Y-67226362D01*
X89787185Y-67159323D01*
X89803819Y-67138681D01*
X90231181Y-66711319D01*
X90292504Y-66677834D01*
X90318862Y-66675000D01*
X93577500Y-66675000D01*
X93577500Y-65956362D01*
X93597185Y-65889323D01*
X93613819Y-65868681D01*
X94041181Y-65441319D01*
X94102504Y-65407834D01*
X94128862Y-65405000D01*
X99503138Y-65405000D01*
X99570177Y-65424685D01*
G37*
%TD.AperFunction*%
%TD*%
%TA.AperFunction,Conductor*%
%TO.N,9V_GND_P*%
G36*
X114683177Y-107334685D02*
G01*
X114703819Y-107351319D01*
X115131181Y-107778681D01*
X115164666Y-107840004D01*
X115167500Y-107866362D01*
X115167500Y-110573638D01*
X115147815Y-110640677D01*
X115131181Y-110661319D01*
X114703819Y-111088681D01*
X114642496Y-111122166D01*
X114616138Y-111125000D01*
X111908862Y-111125000D01*
X111841823Y-111105315D01*
X111821181Y-111088681D01*
X111393819Y-110661319D01*
X111360334Y-110599996D01*
X111357500Y-110573638D01*
X111357500Y-107866362D01*
X111377185Y-107799323D01*
X111393819Y-107778681D01*
X111821181Y-107351319D01*
X111882504Y-107317834D01*
X111908862Y-107315000D01*
X114616138Y-107315000D01*
X114683177Y-107334685D01*
G37*
%TD.AperFunction*%
%TD*%
%TA.AperFunction,Conductor*%
%TO.N,Net-(D2-K)*%
G36*
X176768334Y-67191180D02*
G01*
X176812681Y-67219681D01*
X177196681Y-67603681D01*
X177230166Y-67665004D01*
X177233000Y-67691362D01*
X177233000Y-69433438D01*
X177213315Y-69500477D01*
X177196681Y-69521119D01*
X176769319Y-69948481D01*
X176707996Y-69981966D01*
X176681638Y-69984800D01*
X175531762Y-69984800D01*
X175464723Y-69965115D01*
X175444081Y-69948481D01*
X175259586Y-69763986D01*
X175226101Y-69702663D01*
X175231085Y-69632971D01*
X175232682Y-69628912D01*
X175389128Y-69251217D01*
X175416004Y-69210995D01*
X175863447Y-68763553D01*
X176217000Y-68410000D01*
X176217000Y-67691362D01*
X176236685Y-67624323D01*
X176253319Y-67603681D01*
X176637319Y-67219681D01*
X176698642Y-67186196D01*
X176768334Y-67191180D01*
G37*
%TD.AperFunction*%
%TD*%
%TA.AperFunction,Conductor*%
%TO.N,GND_M*%
G36*
X174932677Y-92051685D02*
G01*
X174953319Y-92068319D01*
X175180681Y-92295681D01*
X175214166Y-92357004D01*
X175217000Y-92383362D01*
X175217000Y-95236638D01*
X175197315Y-95303677D01*
X175180681Y-95324319D01*
X174953319Y-95551681D01*
X174891996Y-95585166D01*
X174865638Y-95588000D01*
X172520362Y-95588000D01*
X172453323Y-95568315D01*
X172432681Y-95551681D01*
X172205319Y-95324319D01*
X172171834Y-95262996D01*
X172169000Y-95236638D01*
X172169000Y-94388665D01*
X172178439Y-94341212D01*
X172188054Y-94318000D01*
X172371694Y-93874651D01*
X172398570Y-93834429D01*
X173480868Y-92752132D01*
X173905132Y-92327868D01*
X173971431Y-92261568D01*
X174011651Y-92234694D01*
X174478212Y-92041438D01*
X174525665Y-92032000D01*
X174865638Y-92032000D01*
X174932677Y-92051685D01*
G37*
%TD.AperFunction*%
%TD*%
%TA.AperFunction,Conductor*%
%TO.N,Net-(J36-Pin_2)*%
G36*
X147246677Y-95099685D02*
G01*
X147267319Y-95116319D01*
X147494681Y-95343681D01*
X147528166Y-95405004D01*
X147531000Y-95431362D01*
X147531000Y-96279334D01*
X147521561Y-96326787D01*
X147328306Y-96793345D01*
X147301426Y-96833573D01*
X146007000Y-98127999D01*
X146007000Y-99808638D01*
X145987315Y-99875677D01*
X145970681Y-99896319D01*
X145743319Y-100123681D01*
X145681996Y-100157166D01*
X145655638Y-100160000D01*
X145342362Y-100160000D01*
X145275323Y-100140315D01*
X145254681Y-100123681D01*
X145027319Y-99896319D01*
X144993834Y-99834996D01*
X144991000Y-99808638D01*
X144991000Y-97436665D01*
X145000439Y-97389212D01*
X145193694Y-96922651D01*
X145220568Y-96882431D01*
X145286868Y-96816132D01*
X145499000Y-96604000D01*
X145499000Y-95431362D01*
X145518685Y-95364323D01*
X145535319Y-95343681D01*
X145762681Y-95116319D01*
X145824004Y-95082834D01*
X145850362Y-95080000D01*
X147179638Y-95080000D01*
X147246677Y-95099685D01*
G37*
%TD.AperFunction*%
%TD*%
%TA.AperFunction,Conductor*%
%TO.N,Net-(C117-Pad2)*%
G36*
X99570177Y-89554685D02*
G01*
X99590819Y-89571319D01*
X100018181Y-89998681D01*
X100051666Y-90060004D01*
X100054500Y-90086362D01*
X100054500Y-95333638D01*
X100034815Y-95400677D01*
X100018181Y-95421319D01*
X99590819Y-95848681D01*
X99529496Y-95882166D01*
X99503138Y-95885000D01*
X93577500Y-95885000D01*
X90318862Y-95885000D01*
X90251823Y-95865315D01*
X90231181Y-95848681D01*
X89803819Y-95421319D01*
X89789115Y-95394391D01*
X89772523Y-95368573D01*
X89771631Y-95362372D01*
X89770334Y-95359996D01*
X89767500Y-95333638D01*
X89767500Y-95155029D01*
X89787185Y-95087990D01*
X89790894Y-95082541D01*
X90218437Y-94489358D01*
X90273603Y-94446484D01*
X90279794Y-94444235D01*
X93103158Y-93503114D01*
X93577500Y-93345000D01*
X93577500Y-90086362D01*
X93597185Y-90019323D01*
X93613819Y-89998681D01*
X94041181Y-89571319D01*
X94102504Y-89537834D01*
X94128862Y-89535000D01*
X99503138Y-89535000D01*
X99570177Y-89554685D01*
G37*
%TD.AperFunction*%
%TD*%
%TA.AperFunction,Conductor*%
%TO.N,Net-(J37-Pin_1)*%
G36*
X174605677Y-112371685D02*
G01*
X174626319Y-112388319D01*
X175010319Y-112772319D01*
X175043804Y-112833642D01*
X175038820Y-112903334D01*
X175010319Y-112947681D01*
X174626319Y-113331681D01*
X174564996Y-113365166D01*
X174538638Y-113368000D01*
X173819999Y-113368000D01*
X173466447Y-113721553D01*
X173108809Y-114079190D01*
X173068581Y-114106070D01*
X172474147Y-114352293D01*
X172404677Y-114359762D01*
X172342198Y-114328487D01*
X172339013Y-114325413D01*
X172027519Y-114013919D01*
X171994034Y-113952596D01*
X171991200Y-113926238D01*
X171991200Y-112903362D01*
X172010885Y-112836323D01*
X172027519Y-112815681D01*
X172454881Y-112388319D01*
X172516204Y-112354834D01*
X172542562Y-112352000D01*
X174538638Y-112352000D01*
X174605677Y-112371685D01*
G37*
%TD.AperFunction*%
%TD*%
%TA.AperFunction,Conductor*%
%TO.N,Net-(U25--VIN)*%
G36*
X63025904Y-60210755D02*
G01*
X63778951Y-60581557D01*
X63822459Y-60617198D01*
X64525194Y-61530752D01*
X64544304Y-61566427D01*
X64756419Y-62190071D01*
X64759370Y-62259879D01*
X64756419Y-62269929D01*
X64544304Y-62893572D01*
X64525194Y-62929247D01*
X63822459Y-63842801D01*
X63778951Y-63878442D01*
X63025904Y-64249245D01*
X62971127Y-64262000D01*
X53593999Y-64262000D01*
X50546000Y-67309999D01*
X50546000Y-78442638D01*
X50526315Y-78509677D01*
X50509681Y-78530319D01*
X50082319Y-78957681D01*
X50020996Y-78991166D01*
X49994638Y-78994000D01*
X44339665Y-78994000D01*
X44292212Y-78984561D01*
X43484233Y-78649885D01*
X43444005Y-78623005D01*
X42545000Y-77724000D01*
X42045000Y-77724000D01*
X41191362Y-77724000D01*
X41124323Y-77704315D01*
X41103681Y-77687681D01*
X40676319Y-77260319D01*
X40642834Y-77198996D01*
X40640000Y-77172638D01*
X40640000Y-74832202D01*
X40659685Y-74765163D01*
X40660480Y-74763941D01*
X41079093Y-74129098D01*
X41132431Y-74083967D01*
X41133705Y-74083411D01*
X44625427Y-72586960D01*
X44625427Y-72586959D01*
X44659481Y-72572365D01*
X44659526Y-72572344D01*
X45085000Y-72390000D01*
X45085000Y-65548665D01*
X45094439Y-65501212D01*
X45429115Y-64693230D01*
X45455991Y-64653008D01*
X49540008Y-60568991D01*
X49580230Y-60542115D01*
X50388212Y-60207438D01*
X50435665Y-60198000D01*
X62971127Y-60198000D01*
X63025904Y-60210755D01*
G37*
%TD.AperFunction*%
%TD*%
%TA.AperFunction,Conductor*%
%TO.N,Net-(J35-Pin_2)*%
G36*
X147246677Y-79605685D02*
G01*
X147267319Y-79622319D01*
X147494681Y-79849681D01*
X147528166Y-79911004D01*
X147531000Y-79937362D01*
X147531000Y-80785334D01*
X147521561Y-80832787D01*
X147328306Y-81299345D01*
X147301426Y-81339573D01*
X146007000Y-82633999D01*
X146007000Y-84314638D01*
X145987315Y-84381677D01*
X145970681Y-84402319D01*
X145743319Y-84629681D01*
X145681996Y-84663166D01*
X145655638Y-84666000D01*
X145342362Y-84666000D01*
X145275323Y-84646315D01*
X145254681Y-84629681D01*
X145027319Y-84402319D01*
X144993834Y-84340996D01*
X144991000Y-84314638D01*
X144991000Y-81942665D01*
X145000439Y-81895212D01*
X145193694Y-81428651D01*
X145220568Y-81388431D01*
X145286868Y-81322132D01*
X145499000Y-81110000D01*
X145499000Y-79937362D01*
X145518685Y-79870323D01*
X145535319Y-79849681D01*
X145762681Y-79622319D01*
X145824004Y-79588834D01*
X145850362Y-79586000D01*
X147179638Y-79586000D01*
X147246677Y-79605685D01*
G37*
%TD.AperFunction*%
%TD*%
%TA.AperFunction,Conductor*%
%TO.N,GND_M*%
G36*
X169695677Y-48279685D02*
G01*
X169716319Y-48296319D01*
X170143681Y-48723681D01*
X170177166Y-48785004D01*
X170180000Y-48811362D01*
X170180000Y-52788638D01*
X170160315Y-52855677D01*
X170143681Y-52876319D01*
X169716319Y-53303681D01*
X169654996Y-53337166D01*
X169628638Y-53340000D01*
X163746362Y-53340000D01*
X163679323Y-53320315D01*
X163658681Y-53303681D01*
X163231319Y-52876319D01*
X163197834Y-52814996D01*
X163195000Y-52788638D01*
X163195000Y-48811362D01*
X163214685Y-48744323D01*
X163231319Y-48723681D01*
X163658681Y-48296319D01*
X163720004Y-48262834D01*
X163746362Y-48260000D01*
X169628638Y-48260000D01*
X169695677Y-48279685D01*
G37*
%TD.AperFunction*%
%TD*%
%TA.AperFunction,Conductor*%
%TO.N,Net-(C110-Pad2)*%
G36*
X99570177Y-104794685D02*
G01*
X99590819Y-104811319D01*
X100018181Y-105238681D01*
X100051666Y-105300004D01*
X100054500Y-105326362D01*
X100054500Y-110573638D01*
X100034815Y-110640677D01*
X100018181Y-110661319D01*
X99590819Y-111088681D01*
X99529496Y-111122166D01*
X99503138Y-111125000D01*
X94128862Y-111125000D01*
X94061823Y-111105315D01*
X94041181Y-111088681D01*
X93613819Y-110661319D01*
X93580334Y-110599996D01*
X93577500Y-110573638D01*
X93577500Y-107315000D01*
X90279817Y-106215772D01*
X90222442Y-106175898D01*
X90218435Y-106170639D01*
X89790906Y-105577474D01*
X89783905Y-105557617D01*
X89772523Y-105539905D01*
X89768983Y-105515287D01*
X89767676Y-105511579D01*
X89767500Y-105504970D01*
X89767500Y-105326362D01*
X89787185Y-105259323D01*
X89803819Y-105238681D01*
X90231181Y-104811319D01*
X90292504Y-104777834D01*
X90318862Y-104775000D01*
X99503138Y-104775000D01*
X99570177Y-104794685D01*
G37*
%TD.AperFunction*%
%TD*%
%TA.AperFunction,Conductor*%
%TO.N,GND_M*%
G36*
X156136677Y-109577685D02*
G01*
X156157319Y-109594319D01*
X156384681Y-109821681D01*
X156418166Y-109883004D01*
X156421000Y-109909362D01*
X156421000Y-111873638D01*
X156401315Y-111940677D01*
X156384681Y-111961319D01*
X156157319Y-112188681D01*
X156095996Y-112222166D01*
X156069638Y-112225000D01*
X154896998Y-112225000D01*
X154775157Y-112499142D01*
X154775158Y-112499143D01*
X154707222Y-112652000D01*
X154525767Y-113060272D01*
X154480551Y-113113539D01*
X154480023Y-113113884D01*
X154119817Y-113347973D01*
X154052879Y-113367998D01*
X154052248Y-113368000D01*
X152708362Y-113368000D01*
X152641323Y-113348315D01*
X152620681Y-113331681D01*
X152393319Y-113104319D01*
X152359834Y-113042996D01*
X152357000Y-113016638D01*
X152357000Y-112703362D01*
X152376685Y-112636323D01*
X152393319Y-112615681D01*
X152620681Y-112388319D01*
X152682004Y-112354834D01*
X152708362Y-112352000D01*
X153372999Y-112352000D01*
X153373000Y-112352000D01*
X154737048Y-109851243D01*
X154782608Y-109803995D01*
X155167736Y-109575371D01*
X155231033Y-109558000D01*
X156069638Y-109558000D01*
X156136677Y-109577685D01*
G37*
%TD.AperFunction*%
%TD*%
%TA.AperFunction,Conductor*%
%TO.N,Net-(C115-Pad1)*%
G36*
X56030677Y-86125685D02*
G01*
X56051319Y-86142319D01*
X56478681Y-86569681D01*
X56512166Y-86631004D01*
X56515000Y-86657362D01*
X56515000Y-106128638D01*
X56495315Y-106195677D01*
X56478681Y-106216319D01*
X56051319Y-106643681D01*
X55989996Y-106677166D01*
X55963638Y-106680000D01*
X50081362Y-106680000D01*
X50014323Y-106660315D01*
X49993681Y-106643681D01*
X49566319Y-106216319D01*
X49532834Y-106154996D01*
X49530000Y-106128638D01*
X49530000Y-104691361D01*
X49549685Y-104624322D01*
X49566314Y-104603685D01*
X49981920Y-104188079D01*
X50043239Y-104154597D01*
X50088990Y-104153290D01*
X50197648Y-104170500D01*
X50197650Y-104170500D01*
X51402351Y-104170500D01*
X51402352Y-104170500D01*
X51585277Y-104141526D01*
X51604675Y-104140000D01*
X52705000Y-104140000D01*
X52705000Y-95885000D01*
X52205000Y-95885000D01*
X51986362Y-95885000D01*
X51919323Y-95865315D01*
X51898681Y-95848681D01*
X51471319Y-95421319D01*
X51437834Y-95359996D01*
X51435000Y-95333638D01*
X51435000Y-86657362D01*
X51454685Y-86590323D01*
X51471319Y-86569681D01*
X51898681Y-86142319D01*
X51960004Y-86108834D01*
X51986362Y-86106000D01*
X55963638Y-86106000D01*
X56030677Y-86125685D01*
G37*
%TD.AperFunction*%
%TD*%
%TA.AperFunction,Conductor*%
%TO.N,Net-(J34-Pin_1)*%
G36*
X176964677Y-94896485D02*
G01*
X176985319Y-94913119D01*
X177212681Y-95140481D01*
X177246166Y-95201804D01*
X177249000Y-95228162D01*
X177249000Y-97600134D01*
X177239561Y-97647587D01*
X177046306Y-98114145D01*
X177019426Y-98154373D01*
X176741000Y-98432799D01*
X176741000Y-99605438D01*
X176721315Y-99672477D01*
X176704681Y-99693119D01*
X176477319Y-99920481D01*
X176415996Y-99953966D01*
X176389638Y-99956800D01*
X175060362Y-99956800D01*
X174993323Y-99937115D01*
X174972681Y-99920481D01*
X174745319Y-99693119D01*
X174711834Y-99631796D01*
X174709000Y-99605438D01*
X174709000Y-98757465D01*
X174718439Y-98710012D01*
X174833264Y-98432799D01*
X174911694Y-98243451D01*
X174938570Y-98203229D01*
X176020868Y-97120932D01*
X176233000Y-96908800D01*
X176233000Y-95228162D01*
X176252685Y-95161123D01*
X176269319Y-95140481D01*
X176496681Y-94913119D01*
X176558004Y-94879634D01*
X176584362Y-94876800D01*
X176897638Y-94876800D01*
X176964677Y-94896485D01*
G37*
%TD.AperFunction*%
%TD*%
%TA.AperFunction,Conductor*%
%TO.N,Net-(C85-Pad1)*%
G36*
X184935677Y-48279685D02*
G01*
X184956319Y-48296319D01*
X185383681Y-48723681D01*
X185417166Y-48785004D01*
X185420000Y-48811362D01*
X185420000Y-52788638D01*
X185400315Y-52855677D01*
X185383681Y-52876319D01*
X184956319Y-53303681D01*
X184894996Y-53337166D01*
X184868638Y-53340000D01*
X172636362Y-53340000D01*
X172569323Y-53320315D01*
X172548681Y-53303681D01*
X172121319Y-52876319D01*
X172087834Y-52814996D01*
X172085000Y-52788638D01*
X172085000Y-48811362D01*
X172104685Y-48744323D01*
X172121319Y-48723681D01*
X172548681Y-48296319D01*
X172610004Y-48262834D01*
X172636362Y-48260000D01*
X184868638Y-48260000D01*
X184935677Y-48279685D01*
G37*
%TD.AperFunction*%
%TD*%
%TA.AperFunction,Conductor*%
%TO.N,GND_P*%
G36*
X99590334Y-96521819D02*
G01*
X100540209Y-96686350D01*
X100560736Y-96691751D01*
X101479837Y-97020000D01*
X104626617Y-98143846D01*
X104683128Y-98184930D01*
X104686268Y-98189191D01*
X105111859Y-98793106D01*
X105134387Y-98859244D01*
X105134500Y-98864536D01*
X105134500Y-106098234D01*
X105129075Y-106116707D01*
X105128623Y-106135956D01*
X105119434Y-106149540D01*
X105114815Y-106165273D01*
X105100267Y-106177878D01*
X105089478Y-106193830D01*
X105063746Y-106209523D01*
X105062011Y-106211028D01*
X105059346Y-106212208D01*
X104847584Y-106302963D01*
X104778211Y-106311278D01*
X104715355Y-106280767D01*
X104713221Y-106278782D01*
X104643318Y-106212208D01*
X102467500Y-104140000D01*
X94128862Y-104140000D01*
X94061823Y-104120315D01*
X94041181Y-104103681D01*
X93613819Y-103676319D01*
X93580334Y-103614996D01*
X93577500Y-103588638D01*
X93577500Y-102235000D01*
X90279817Y-101135772D01*
X90222442Y-101095898D01*
X90218435Y-101090639D01*
X89790906Y-100497474D01*
X89783905Y-100477617D01*
X89772523Y-100459905D01*
X89768983Y-100435287D01*
X89767676Y-100431579D01*
X89767500Y-100424970D01*
X89767500Y-100235029D01*
X89787185Y-100167990D01*
X89790894Y-100162541D01*
X90218437Y-99569358D01*
X90273603Y-99526484D01*
X90279794Y-99524235D01*
X93103158Y-98583114D01*
X93577500Y-98425000D01*
X93577500Y-97071362D01*
X93597185Y-97004323D01*
X93613819Y-96983681D01*
X94041181Y-96556319D01*
X94102504Y-96522834D01*
X94128862Y-96520000D01*
X99569171Y-96520000D01*
X99590334Y-96521819D01*
G37*
%TD.AperFunction*%
%TD*%
M02*
