%TF.GenerationSoftware,KiCad,Pcbnew,9.0.8*%
%TF.CreationDate,2026-03-16T22:16:16+01:00*%
%TF.ProjectId,Power_Supply_Meter_Amp,506f7765-725f-4537-9570-706c795f4d65,1*%
%TF.SameCoordinates,Original*%
%TF.FileFunction,Copper,L3,Inr*%
%TF.FilePolarity,Positive*%
%FSLAX46Y46*%
G04 Gerber Fmt 4.6, Leading zero omitted, Abs format (unit mm)*
G04 Created by KiCad (PCBNEW 9.0.8) date 2026-03-16 22:16:16*
%MOMM*%
%LPD*%
G01*
G04 APERTURE LIST*
G04 Aperture macros list*
%AMRoundRect*
0 Rectangle with rounded corners*
0 $1 Rounding radius*
0 $2 $3 $4 $5 $6 $7 $8 $9 X,Y pos of 4 corners*
0 Add a 4 corners polygon primitive as box body*
4,1,4,$2,$3,$4,$5,$6,$7,$8,$9,$2,$3,0*
0 Add four circle primitives for the rounded corners*
1,1,$1+$1,$2,$3*
1,1,$1+$1,$4,$5*
1,1,$1+$1,$6,$7*
1,1,$1+$1,$8,$9*
0 Add four rect primitives between the rounded corners*
20,1,$1+$1,$2,$3,$4,$5,0*
20,1,$1+$1,$4,$5,$6,$7,0*
20,1,$1+$1,$6,$7,$8,$9,0*
20,1,$1+$1,$8,$9,$2,$3,0*%
G04 Aperture macros list end*
%TA.AperFunction,ComponentPad*%
%ADD10R,2.600000X1.600000*%
%TD*%
%TA.AperFunction,ComponentPad*%
%ADD11O,2.600000X1.600000*%
%TD*%
%TA.AperFunction,ComponentPad*%
%ADD12C,6.400000*%
%TD*%
%TA.AperFunction,ComponentPad*%
%ADD13R,1.700000X1.700000*%
%TD*%
%TA.AperFunction,ComponentPad*%
%ADD14C,1.700000*%
%TD*%
%TA.AperFunction,ComponentPad*%
%ADD15RoundRect,0.250000X-0.550000X-0.550000X0.550000X-0.550000X0.550000X0.550000X-0.550000X0.550000X0*%
%TD*%
%TA.AperFunction,ComponentPad*%
%ADD16C,1.600000*%
%TD*%
%TA.AperFunction,ComponentPad*%
%ADD17R,1.725000X1.725000*%
%TD*%
%TA.AperFunction,ComponentPad*%
%ADD18C,1.725000*%
%TD*%
%TA.AperFunction,ComponentPad*%
%ADD19R,3.000000X3.000000*%
%TD*%
%TA.AperFunction,ComponentPad*%
%ADD20O,3.000000X2.000000*%
%TD*%
%TA.AperFunction,ComponentPad*%
%ADD21RoundRect,0.250000X-0.950000X-0.550000X0.950000X-0.550000X0.950000X0.550000X-0.950000X0.550000X0*%
%TD*%
%TA.AperFunction,ComponentPad*%
%ADD22O,2.400000X1.600000*%
%TD*%
%TA.AperFunction,ViaPad*%
%ADD23C,0.700000*%
%TD*%
%TA.AperFunction,Conductor*%
%ADD24C,1.600000*%
%TD*%
%TA.AperFunction,Conductor*%
%ADD25C,1.000000*%
%TD*%
G04 APERTURE END LIST*
D10*
%TO.N,Net-(J39-Pin_1)*%
%TO.C,J39*%
X50800000Y-110490000D03*
D11*
%TO.N,Net-(J39-Pin_2)*%
X50800000Y-113030000D03*
%TD*%
D12*
%TO.N,N/C*%
%TO.C,H13*%
X121920000Y-50800000D03*
%TD*%
%TO.N,N/C*%
%TO.C,H10*%
X121920000Y-125730000D03*
%TD*%
D10*
%TO.N,Net-(J35-Pin_1)*%
%TO.C,J35*%
X146515000Y-77300000D03*
D11*
%TO.N,Net-(J35-Pin_2)*%
X146515000Y-79840000D03*
%TD*%
D13*
%TO.N,9V_GND_M*%
%TO.C,J41*%
X139700000Y-107950000D03*
D14*
X142240000Y-107950000D03*
X139700000Y-110490000D03*
X142240000Y-110490000D03*
%TO.N,+9V_M*%
X139700000Y-113030000D03*
X142240000Y-113030000D03*
%TO.N,-15V_M*%
X139700000Y-115570000D03*
X142240000Y-115570000D03*
%TO.N,GND_M*%
X139700000Y-118110000D03*
X142240000Y-118110000D03*
X139700000Y-120650000D03*
X142240000Y-120650000D03*
%TO.N,+15V_M*%
X139700000Y-123190000D03*
X142240000Y-123190000D03*
%TD*%
D10*
%TO.N,Net-(J37-Pin_1)*%
%TO.C,J37*%
X175725000Y-112860000D03*
D11*
%TO.N,Net-(J37-Pin_2)*%
X175725000Y-115400000D03*
%TD*%
D10*
%TO.N,Net-(J34-Pin_1)*%
%TO.C,J34*%
X175725000Y-100160000D03*
D11*
%TO.N,GND_M*%
X175725000Y-102700000D03*
%TO.N,9V_GND_M*%
X175725000Y-105240000D03*
%TO.N,+9V_M*%
X175725000Y-107780000D03*
%TD*%
D12*
%TO.N,N/C*%
%TO.C,H9*%
X43180000Y-50800000D03*
%TD*%
D10*
%TO.N,Net-(J33-Pin_1)*%
%TO.C,J33*%
X146515000Y-64600000D03*
D11*
%TO.N,Net-(J33-Pin_2)*%
X146515000Y-67140000D03*
%TD*%
D12*
%TO.N,N/C*%
%TO.C,H11*%
X137160000Y-50800000D03*
%TD*%
%TO.N,Net-(C85-Pad1)*%
%TO.C,H12*%
X182880000Y-50800000D03*
%TD*%
%TO.N,N/C*%
%TO.C,H16*%
X137160000Y-99060000D03*
%TD*%
D10*
%TO.N,Net-(J42-Pin_1)*%
%TO.C,J42*%
X146515000Y-105240000D03*
D11*
%TO.N,Net-(J42-Pin_2)*%
X146515000Y-107780000D03*
%TD*%
D15*
%TO.N,+9V_P*%
%TO.C,C91*%
X111992500Y-74676000D03*
D16*
%TO.N,9V_GND_P*%
X114492500Y-74676000D03*
%TD*%
D13*
%TO.N,9V_GND_P*%
%TO.C,J40*%
X111992500Y-107950000D03*
D14*
X114532500Y-107950000D03*
X111992500Y-110490000D03*
X114532500Y-110490000D03*
%TO.N,+9V_P*%
X111992500Y-113030000D03*
X114532500Y-113030000D03*
%TO.N,-15V_P*%
X111992500Y-115570000D03*
X114532500Y-115570000D03*
%TO.N,GND_P*%
X111992500Y-118110000D03*
X114532500Y-118110000D03*
X111992500Y-120650000D03*
X114532500Y-120650000D03*
%TO.N,+15V_P*%
X111992500Y-123190000D03*
X114532500Y-123190000D03*
%TD*%
D10*
%TO.N,Net-(J39-Pin_1)*%
%TO.C,J43*%
X50800000Y-118110000D03*
D11*
%TO.N,Net-(J39-Pin_2)*%
X50800000Y-120650000D03*
%TD*%
D17*
%TO.N,Net-(U25-+VIN)*%
%TO.C,U25*%
X65002500Y-67310000D03*
D18*
%TO.N,Net-(U25--VIN)*%
X65002500Y-62230000D03*
%TO.N,unconnected-(U25-CTRL-Pad3)*%
X65002500Y-54610000D03*
%TO.N,Net-(U25--VOUT)*%
X85322500Y-54610000D03*
%TO.N,unconnected-(U25-TRIM-Pad5)*%
X85322500Y-64770000D03*
%TO.N,Net-(U25-+VOUT)*%
X85322500Y-74930000D03*
%TD*%
D10*
%TO.N,/Pegel_Post*%
%TO.C,SW11*%
X146515000Y-49360000D03*
D11*
%TO.N,/Pegel_Aux_Return*%
X146515000Y-51900000D03*
%TO.N,/Pegel_Mic_Effekt*%
X146515000Y-54440000D03*
%TO.N,/Pegel_Pre*%
X146515000Y-56980000D03*
%TO.N,Net-(R141-Pad1)*%
X146515000Y-59520000D03*
%TD*%
D19*
%TO.N,Net-(C115-Pad1)*%
%TO.C,L4*%
X53975000Y-86360000D03*
D20*
%TO.N,Net-(U25-+VIN)*%
X53975000Y-76360000D03*
%TO.N,Net-(U25--VIN)*%
X41475000Y-76360000D03*
%TO.N,Net-(C115-Pad2)*%
X41475000Y-86360000D03*
%TD*%
D10*
%TO.N,Net-(J36-Pin_1)*%
%TO.C,J36*%
X146515000Y-92540000D03*
D11*
%TO.N,Net-(J36-Pin_2)*%
X146515000Y-95080000D03*
%TD*%
D10*
%TO.N,Net-(J39-Pin_2)*%
%TO.C,SW12*%
X50800000Y-97790000D03*
D11*
%TO.N,Net-(C115-Pad2)*%
X50800000Y-100330000D03*
%TO.N,Net-(J39-Pin_1)*%
X50800000Y-102870000D03*
%TO.N,Net-(C115-Pad1)*%
X50800000Y-105410000D03*
%TD*%
D21*
%TO.N,/Pegel_Aux_Return*%
%TO.C,U24*%
X156675000Y-92540000D03*
D22*
X156675000Y-95080000D03*
%TO.N,Net-(U24A-+)*%
X156675000Y-97620000D03*
%TO.N,+15V_M*%
X156675000Y-100160000D03*
%TO.N,Net-(U24B-+)*%
X156675000Y-102700000D03*
%TO.N,/Pegel_Post*%
X156675000Y-105240000D03*
X156675000Y-107780000D03*
%TO.N,Net-(U24-Pad8)*%
X164295000Y-107780000D03*
%TO.N,Net-(U24C--)*%
X164295000Y-105240000D03*
%TO.N,Net-(U24C-+)*%
X164295000Y-102700000D03*
%TO.N,-15V_M*%
X164295000Y-100160000D03*
%TO.N,Net-(U24C-+)*%
X164295000Y-97620000D03*
%TO.N,Net-(U24D--)*%
X164295000Y-95080000D03*
X164295000Y-92540000D03*
%TD*%
D12*
%TO.N,N/C*%
%TO.C,H15*%
X182880000Y-125730000D03*
%TD*%
D15*
%TO.N,+15V_P*%
%TO.C,C114*%
X101894000Y-113030000D03*
D16*
%TO.N,GND_P*%
X104394000Y-113030000D03*
%TD*%
D21*
%TO.N,/Pegel_Pre*%
%TO.C,U23*%
X156675000Y-64600000D03*
D22*
X156675000Y-67140000D03*
%TO.N,Net-(U23A-+)*%
X156675000Y-69680000D03*
%TO.N,+15V_M*%
X156675000Y-72220000D03*
%TO.N,Net-(U23B-+)*%
X156675000Y-74760000D03*
%TO.N,/Pegel_Mic_Effekt*%
X156675000Y-77300000D03*
X156675000Y-79840000D03*
%TO.N,Net-(U24C-+)*%
X164295000Y-79840000D03*
%TO.N,Net-(U23C--)*%
X164295000Y-77300000D03*
%TO.N,GND_M*%
X164295000Y-74760000D03*
%TO.N,-15V_M*%
X164295000Y-72220000D03*
%TO.N,GND_M*%
X164295000Y-69680000D03*
%TO.N,Net-(D2-K)*%
X164295000Y-67140000D03*
%TO.N,Net-(D1-K)*%
X164295000Y-64600000D03*
%TD*%
D17*
%TO.N,Net-(U25-+VIN)*%
%TO.C,U26*%
X65002500Y-102870000D03*
D18*
%TO.N,Net-(U25--VIN)*%
X65002500Y-97790000D03*
%TO.N,unconnected-(U26-CTRL-Pad3)*%
X65002500Y-90170000D03*
%TO.N,Net-(U26--VOUT)*%
X85322500Y-90170000D03*
%TO.N,GND_P*%
X85322500Y-100330000D03*
%TO.N,Net-(U26-+VOUT)*%
X85322500Y-110490000D03*
%TD*%
D12*
%TO.N,N/C*%
%TO.C,H14*%
X43180000Y-125730000D03*
%TD*%
D15*
%TO.N,GND_P*%
%TO.C,C118*%
X104437388Y-102616000D03*
D16*
%TO.N,-15V_P*%
X106937388Y-102616000D03*
%TD*%
D23*
%TO.N,Net-(C84-Pad2)*%
X94212500Y-69850000D03*
%TO.N,Net-(C110-Pad2)*%
X92307500Y-105410000D03*
%TO.N,Net-(C117-Pad2)*%
X92307500Y-95250000D03*
%TO.N,9V_GND_P*%
X94212500Y-59690000D03*
%TO.N,GND_M*%
X168105000Y-115400000D03*
X149309000Y-97620000D03*
X154135000Y-92540000D03*
X166835000Y-97620000D03*
X170180000Y-74760000D03*
X149309000Y-72220000D03*
X149309000Y-102700000D03*
X170661000Y-102700000D03*
X165100000Y-49530000D03*
X173185000Y-95080000D03*
X157310000Y-116670000D03*
X174725000Y-120480000D03*
X154135000Y-64600000D03*
X165100000Y-50800000D03*
X154135000Y-79840000D03*
X154135000Y-107780000D03*
X149309000Y-74760000D03*
X155405000Y-110320000D03*
X149309000Y-69680000D03*
X149309000Y-100160000D03*
X149055000Y-84920000D03*
X165100000Y-52070000D03*
%TO.N,+15V_M*%
X178900000Y-110320000D03*
%TD*%
D24*
%TO.N,Net-(U25-+VIN)*%
X63732500Y-67310000D02*
X62462500Y-68580000D01*
X62462500Y-101600000D02*
X63732500Y-102870000D01*
X62462500Y-68580000D02*
X62462500Y-101600000D01*
X63732500Y-102870000D02*
X65002500Y-102870000D01*
X65002500Y-67310000D02*
X63732500Y-67310000D01*
%TO.N,Net-(U25--VIN)*%
X67542500Y-95250000D02*
X67542500Y-64770000D01*
X67542500Y-64770000D02*
X65002500Y-62230000D01*
X65002500Y-97790000D02*
X67542500Y-95250000D01*
D25*
%TO.N,Net-(J39-Pin_2)*%
X54377500Y-110722500D02*
X52070000Y-113030000D01*
X52070000Y-97790000D02*
X54377500Y-100097500D01*
D24*
X50800000Y-97790000D02*
X52070000Y-97790000D01*
X52070000Y-113030000D02*
X50800000Y-113030000D01*
D25*
X54377500Y-100097500D02*
X54377500Y-110722500D01*
%TO.N,Net-(J39-Pin_1)*%
X48027500Y-108987500D02*
X49530000Y-110490000D01*
X49530000Y-102870000D02*
X48027500Y-104372500D01*
D24*
X49530000Y-110490000D02*
X50800000Y-110490000D01*
X50800000Y-102870000D02*
X49530000Y-102870000D01*
D25*
X48027500Y-104372500D02*
X48027500Y-108987500D01*
%TD*%
%TA.AperFunction,Conductor*%
%TO.N,-15V_M*%
G36*
X169090677Y-58904685D02*
G01*
X169111319Y-58921319D01*
X169338681Y-59148681D01*
X169372166Y-59210004D01*
X169375000Y-59236362D01*
X169375000Y-73138638D01*
X169355315Y-73205677D01*
X169338681Y-73226319D01*
X169111319Y-73453681D01*
X169049996Y-73487166D01*
X169023638Y-73490000D01*
X164999675Y-73490000D01*
X164980277Y-73488473D01*
X164972025Y-73487166D01*
X164797352Y-73459500D01*
X163792648Y-73459500D01*
X163617975Y-73487166D01*
X163609723Y-73488473D01*
X163590325Y-73490000D01*
X163376362Y-73490000D01*
X163309323Y-73470315D01*
X163288681Y-73453681D01*
X163061319Y-73226319D01*
X163027834Y-73164996D01*
X163025000Y-73138638D01*
X163025000Y-71301362D01*
X163044685Y-71234323D01*
X163061319Y-71213681D01*
X163288681Y-70986319D01*
X163315608Y-70971615D01*
X163341427Y-70955023D01*
X163347627Y-70954131D01*
X163350004Y-70952834D01*
X163376362Y-70950000D01*
X163590325Y-70950000D01*
X163609722Y-70951526D01*
X163792648Y-70980500D01*
X163792649Y-70980500D01*
X164797351Y-70980500D01*
X164797352Y-70980500D01*
X164980277Y-70951526D01*
X164999675Y-70950000D01*
X166200000Y-70950000D01*
X166200000Y-62695000D01*
X165900000Y-62695000D01*
X153800000Y-62695000D01*
X153500000Y-62695000D01*
X153500000Y-63982244D01*
X153480315Y-64049283D01*
X153477567Y-64053058D01*
X153381295Y-64197139D01*
X153317184Y-64351917D01*
X153317182Y-64351925D01*
X153284500Y-64516228D01*
X153284500Y-64683771D01*
X153317182Y-64848074D01*
X153317184Y-64848082D01*
X153381295Y-65002860D01*
X153477758Y-65147227D01*
X153475846Y-65148504D01*
X153499163Y-65203376D01*
X153500000Y-65217755D01*
X153500000Y-79222244D01*
X153480315Y-79289283D01*
X153477567Y-79293058D01*
X153381295Y-79437139D01*
X153317184Y-79591917D01*
X153317182Y-79591925D01*
X153284500Y-79756228D01*
X153284500Y-79923771D01*
X153317182Y-80088074D01*
X153317184Y-80088082D01*
X153381295Y-80242860D01*
X153477758Y-80387227D01*
X153475846Y-80388504D01*
X153499163Y-80443376D01*
X153500000Y-80457755D01*
X153500000Y-87841000D01*
X170420638Y-87841000D01*
X170487677Y-87860685D01*
X170508319Y-87877319D01*
X170735681Y-88104681D01*
X170769166Y-88166004D01*
X170772000Y-88192362D01*
X170772000Y-101078638D01*
X170752315Y-101145677D01*
X170735681Y-101166319D01*
X170508319Y-101393681D01*
X170446996Y-101427166D01*
X170420638Y-101430000D01*
X164999675Y-101430000D01*
X164980277Y-101428473D01*
X164972025Y-101427166D01*
X164797352Y-101399500D01*
X163792648Y-101399500D01*
X163617975Y-101427166D01*
X163609723Y-101428473D01*
X163590325Y-101430000D01*
X163376362Y-101430000D01*
X163309323Y-101410315D01*
X163288681Y-101393681D01*
X163061319Y-101166319D01*
X163027834Y-101104996D01*
X163025000Y-101078638D01*
X163025000Y-99241362D01*
X163044685Y-99174323D01*
X163061319Y-99153681D01*
X163288681Y-98926319D01*
X163315608Y-98911615D01*
X163341427Y-98895023D01*
X163347627Y-98894131D01*
X163350004Y-98892834D01*
X163376362Y-98890000D01*
X163590325Y-98890000D01*
X163609722Y-98891526D01*
X163792648Y-98920500D01*
X163792649Y-98920500D01*
X164797351Y-98920500D01*
X164797352Y-98920500D01*
X164980277Y-98891526D01*
X164999675Y-98890000D01*
X167470000Y-98890000D01*
X167470000Y-98237755D01*
X167489685Y-98170716D01*
X167492433Y-98166939D01*
X167495622Y-98162165D01*
X167495626Y-98162162D01*
X167588703Y-98022863D01*
X167652816Y-97868082D01*
X167685500Y-97703767D01*
X167685500Y-97536233D01*
X167652816Y-97371918D01*
X167588703Y-97217137D01*
X167495626Y-97077838D01*
X167492242Y-97072773D01*
X167494147Y-97071499D01*
X167470832Y-97016587D01*
X167470000Y-97002244D01*
X167470000Y-91270000D01*
X167170000Y-91270000D01*
X164999675Y-91270000D01*
X164980277Y-91268473D01*
X164950180Y-91263706D01*
X164797352Y-91239500D01*
X163792648Y-91239500D01*
X163639820Y-91263706D01*
X163609723Y-91268473D01*
X163590325Y-91270000D01*
X157858159Y-91270000D01*
X157819156Y-91263706D01*
X157777801Y-91250002D01*
X157777798Y-91250001D01*
X157777797Y-91250001D01*
X157777793Y-91250000D01*
X157777790Y-91250000D01*
X157675010Y-91239500D01*
X155674998Y-91239500D01*
X155674981Y-91239501D01*
X155572203Y-91250000D01*
X155540151Y-91260621D01*
X155530843Y-91263706D01*
X155491840Y-91270000D01*
X153373000Y-91270000D01*
X153373000Y-92132501D01*
X153363561Y-92179954D01*
X153317184Y-92291917D01*
X153317182Y-92291925D01*
X153284500Y-92456228D01*
X153284500Y-92623771D01*
X153295499Y-92679065D01*
X153317184Y-92788082D01*
X153340567Y-92844534D01*
X153363561Y-92900044D01*
X153373000Y-92947497D01*
X153373000Y-107372501D01*
X153363561Y-107419954D01*
X153317184Y-107531917D01*
X153317182Y-107531925D01*
X153284500Y-107696228D01*
X153284500Y-107863771D01*
X153292262Y-107902792D01*
X153317184Y-108028082D01*
X153340567Y-108084534D01*
X153363561Y-108140044D01*
X153373000Y-108187497D01*
X153373000Y-116572638D01*
X153353315Y-116639677D01*
X153336681Y-116660319D01*
X153109319Y-116887681D01*
X153047996Y-116921166D01*
X153021638Y-116924000D01*
X142916845Y-116924000D01*
X142860550Y-116910485D01*
X142758414Y-116858444D01*
X142758413Y-116858443D01*
X142758412Y-116858443D01*
X142556243Y-116792754D01*
X142556241Y-116792753D01*
X142556240Y-116792753D01*
X142394957Y-116767208D01*
X142346287Y-116759500D01*
X142133713Y-116759500D01*
X142085042Y-116767208D01*
X141923760Y-116792753D01*
X141721585Y-116858444D01*
X141619450Y-116910485D01*
X141563155Y-116924000D01*
X140376845Y-116924000D01*
X140320550Y-116910485D01*
X140218414Y-116858444D01*
X140218413Y-116858443D01*
X140218412Y-116858443D01*
X140016243Y-116792754D01*
X140016241Y-116792753D01*
X140016240Y-116792753D01*
X139854957Y-116767208D01*
X139806287Y-116759500D01*
X139593713Y-116759500D01*
X139545042Y-116767208D01*
X139383760Y-116792753D01*
X139181585Y-116858444D01*
X139079450Y-116910485D01*
X139066446Y-116913606D01*
X139058090Y-116918977D01*
X139023155Y-116924000D01*
X138992362Y-116924000D01*
X138925323Y-116904315D01*
X138904681Y-116887681D01*
X138677319Y-116660319D01*
X138643834Y-116598996D01*
X138641000Y-116572638D01*
X138641000Y-114735362D01*
X138660685Y-114668323D01*
X138677319Y-114647681D01*
X138904681Y-114420319D01*
X138966004Y-114386834D01*
X138992362Y-114384000D01*
X150198000Y-114384000D01*
X150198000Y-59236362D01*
X150217685Y-59169323D01*
X150234319Y-59148681D01*
X150461681Y-58921319D01*
X150523004Y-58887834D01*
X150549362Y-58885000D01*
X169023638Y-58885000D01*
X169090677Y-58904685D01*
G37*
%TD.AperFunction*%
%TD*%
%TA.AperFunction,Conductor*%
%TO.N,+15V_M*%
G36*
X155989722Y-70951526D02*
G01*
X156172648Y-70980500D01*
X156172649Y-70980500D01*
X157177351Y-70980500D01*
X157177352Y-70980500D01*
X157360277Y-70951526D01*
X157379675Y-70950000D01*
X161403638Y-70950000D01*
X161470677Y-70969685D01*
X161491319Y-70986319D01*
X161718681Y-71213681D01*
X161752166Y-71275004D01*
X161755000Y-71301362D01*
X161755000Y-81745000D01*
X181088638Y-81745000D01*
X181155677Y-81764685D01*
X181176319Y-81781319D01*
X181403681Y-82008681D01*
X181437166Y-82070004D01*
X181440000Y-82096362D01*
X181440000Y-111238638D01*
X181420315Y-111305677D01*
X181403681Y-111326319D01*
X181176319Y-111553681D01*
X181114996Y-111587166D01*
X181088638Y-111590000D01*
X177219446Y-111590000D01*
X177176112Y-111582181D01*
X177132491Y-111565911D01*
X177132480Y-111565908D01*
X177072883Y-111559501D01*
X177072881Y-111559500D01*
X177072873Y-111559500D01*
X177072864Y-111559500D01*
X174377129Y-111559500D01*
X174377123Y-111559501D01*
X174317518Y-111565908D01*
X174292164Y-111575365D01*
X174273885Y-111582182D01*
X174230554Y-111590000D01*
X171280000Y-111590000D01*
X171280000Y-124446638D01*
X171260315Y-124513677D01*
X171243681Y-124534319D01*
X171016319Y-124761681D01*
X170954996Y-124795166D01*
X170928638Y-124798000D01*
X139119362Y-124798000D01*
X139052323Y-124778315D01*
X139031681Y-124761681D01*
X138804319Y-124534319D01*
X138770834Y-124472996D01*
X138768000Y-124446638D01*
X138768000Y-122355362D01*
X138787685Y-122288323D01*
X138804319Y-122267681D01*
X139031681Y-122040319D01*
X139093004Y-122006834D01*
X139119362Y-122004000D01*
X158580000Y-122004000D01*
X158580000Y-101430000D01*
X158280000Y-101430000D01*
X157379675Y-101430000D01*
X157360277Y-101428473D01*
X157177352Y-101399500D01*
X156172648Y-101399500D01*
X155989723Y-101428473D01*
X155970325Y-101430000D01*
X155756362Y-101430000D01*
X155689323Y-101410315D01*
X155668681Y-101393681D01*
X155441319Y-101166319D01*
X155407834Y-101104996D01*
X155405000Y-101078638D01*
X155405000Y-99241362D01*
X155424685Y-99174323D01*
X155441319Y-99153681D01*
X155668681Y-98926319D01*
X155695608Y-98911615D01*
X155721427Y-98895023D01*
X155727627Y-98894131D01*
X155730004Y-98892834D01*
X155756362Y-98890000D01*
X155970325Y-98890000D01*
X155989722Y-98891526D01*
X156172648Y-98920500D01*
X156172649Y-98920500D01*
X157177351Y-98920500D01*
X157177352Y-98920500D01*
X157360277Y-98891526D01*
X157379675Y-98890000D01*
X160768638Y-98890000D01*
X160835677Y-98909685D01*
X160856319Y-98926319D01*
X161083681Y-99153681D01*
X161117166Y-99215004D01*
X161120000Y-99241362D01*
X161120000Y-109685000D01*
X161120000Y-121750000D01*
X167170000Y-121750000D01*
X167470000Y-121750000D01*
X167470000Y-116230581D01*
X167489685Y-116163542D01*
X167542489Y-116117787D01*
X167611647Y-116107843D01*
X167662889Y-116127478D01*
X167702137Y-116153703D01*
X167856918Y-116217816D01*
X168004738Y-116247219D01*
X168021228Y-116250499D01*
X168021232Y-116250500D01*
X168021233Y-116250500D01*
X168188768Y-116250500D01*
X168188769Y-116250499D01*
X168353082Y-116217816D01*
X168507863Y-116153703D01*
X168647162Y-116060626D01*
X168765626Y-115942162D01*
X168858703Y-115802863D01*
X168922816Y-115648082D01*
X168955500Y-115483767D01*
X168955500Y-115316233D01*
X168922816Y-115151918D01*
X168858703Y-114997137D01*
X168794320Y-114900781D01*
X168765626Y-114857837D01*
X168647162Y-114739373D01*
X168507860Y-114646295D01*
X168353082Y-114582184D01*
X168353074Y-114582182D01*
X168188771Y-114549500D01*
X168188767Y-114549500D01*
X168021233Y-114549500D01*
X168021228Y-114549500D01*
X167856925Y-114582182D01*
X167856917Y-114582184D01*
X167702140Y-114646295D01*
X167662890Y-114672521D01*
X167596212Y-114693398D01*
X167528832Y-114674913D01*
X167482142Y-114622933D01*
X167470000Y-114569418D01*
X167470000Y-109401362D01*
X167489685Y-109334323D01*
X167506319Y-109313681D01*
X167733681Y-109086319D01*
X167795004Y-109052834D01*
X167821362Y-109050000D01*
X174920325Y-109050000D01*
X174939722Y-109051526D01*
X175122648Y-109080500D01*
X175122649Y-109080500D01*
X176327351Y-109080500D01*
X176327352Y-109080500D01*
X176510277Y-109051526D01*
X176529675Y-109050000D01*
X177630000Y-109050000D01*
X177630000Y-84285000D01*
X177330000Y-84285000D01*
X158931362Y-84285000D01*
X158864323Y-84265315D01*
X158843681Y-84248681D01*
X158616319Y-84021319D01*
X158582834Y-83959996D01*
X158580000Y-83933638D01*
X158580000Y-73490000D01*
X158280000Y-73490000D01*
X157379675Y-73490000D01*
X157360277Y-73488473D01*
X157177352Y-73459500D01*
X156172648Y-73459500D01*
X155989723Y-73488473D01*
X155970325Y-73490000D01*
X155756362Y-73490000D01*
X155689323Y-73470315D01*
X155668681Y-73453681D01*
X155441319Y-73226319D01*
X155407834Y-73164996D01*
X155405000Y-73138638D01*
X155405000Y-71301362D01*
X155424685Y-71234323D01*
X155441319Y-71213681D01*
X155668681Y-70986319D01*
X155695608Y-70971615D01*
X155721427Y-70955023D01*
X155727627Y-70954131D01*
X155730004Y-70952834D01*
X155756362Y-70950000D01*
X155970325Y-70950000D01*
X155989722Y-70951526D01*
G37*
%TD.AperFunction*%
%TD*%
M02*
