%TF.GenerationSoftware,KiCad,Pcbnew,9.0.8*%
%TF.CreationDate,2026-03-17T16:52:58+01:00*%
%TF.ProjectId,Power_Supply_Meter_Amp,506f7765-725f-4537-9570-706c795f4d65,1*%
%TF.SameCoordinates,Original*%
%TF.FileFunction,Soldermask,Bot*%
%TF.FilePolarity,Negative*%
%FSLAX46Y46*%
G04 Gerber Fmt 4.6, Leading zero omitted, Abs format (unit mm)*
G04 Created by KiCad (PCBNEW 9.0.8) date 2026-03-17 16:52:58*
%MOMM*%
%LPD*%
G01*
G04 APERTURE LIST*
G04 Aperture macros list*
%AMRoundRect*
0 Rectangle with rounded corners*
0 $1 Rounding radius*
0 $2 $3 $4 $5 $6 $7 $8 $9 X,Y pos of 4 corners*
0 Add a 4 corners polygon primitive as box body*
4,1,4,$2,$3,$4,$5,$6,$7,$8,$9,$2,$3,0*
0 Add four circle primitives for the rounded corners*
1,1,$1+$1,$2,$3*
1,1,$1+$1,$4,$5*
1,1,$1+$1,$6,$7*
1,1,$1+$1,$8,$9*
0 Add four rect primitives between the rounded corners*
20,1,$1+$1,$2,$3,$4,$5,0*
20,1,$1+$1,$4,$5,$6,$7,0*
20,1,$1+$1,$6,$7,$8,$9,0*
20,1,$1+$1,$8,$9,$2,$3,0*%
G04 Aperture macros list end*
%ADD10R,2.600000X1.600000*%
%ADD11O,2.600000X1.600000*%
%ADD12C,6.400000*%
%ADD13R,1.700000X1.700000*%
%ADD14C,1.700000*%
%ADD15RoundRect,0.250000X-0.550000X-0.550000X0.550000X-0.550000X0.550000X0.550000X-0.550000X0.550000X0*%
%ADD16C,1.600000*%
%ADD17RoundRect,0.102000X-0.862500X-0.862500X0.862500X-0.862500X0.862500X0.862500X-0.862500X0.862500X0*%
%ADD18C,1.929000*%
%ADD19R,3.000000X3.000000*%
%ADD20O,3.000000X2.000000*%
%ADD21RoundRect,0.250000X-0.950000X-0.550000X0.950000X-0.550000X0.950000X0.550000X-0.950000X0.550000X0*%
%ADD22O,2.400000X1.600000*%
%ADD23RoundRect,0.250000X0.337500X0.475000X-0.337500X0.475000X-0.337500X-0.475000X0.337500X-0.475000X0*%
%ADD24RoundRect,0.250000X-0.337500X-0.475000X0.337500X-0.475000X0.337500X0.475000X-0.337500X0.475000X0*%
G04 APERTURE END LIST*
D10*
%TO.C,J39*%
X50800000Y-113030000D03*
D11*
X50800000Y-115570000D03*
%TD*%
D12*
%TO.C,H13*%
X121920000Y-53340000D03*
%TD*%
%TO.C,H10*%
X121920000Y-128270000D03*
%TD*%
D10*
%TO.C,J35*%
X146515000Y-79840000D03*
D11*
X146515000Y-82380000D03*
%TD*%
D13*
%TO.C,J41*%
X139700000Y-110490000D03*
D14*
X142240000Y-110490000D03*
X139700000Y-113030000D03*
X142240000Y-113030000D03*
X139700000Y-115570000D03*
X142240000Y-115570000D03*
X139700000Y-118110000D03*
X142240000Y-118110000D03*
X139700000Y-120650000D03*
X142240000Y-120650000D03*
X139700000Y-123190000D03*
X142240000Y-123190000D03*
X139700000Y-125730000D03*
X142240000Y-125730000D03*
%TD*%
D10*
%TO.C,J37*%
X175725000Y-115400000D03*
D11*
X175725000Y-117940000D03*
%TD*%
D10*
%TO.C,J34*%
X175725000Y-102700000D03*
D11*
X175725000Y-105240000D03*
X175725000Y-107780000D03*
X175725000Y-110320000D03*
%TD*%
D12*
%TO.C,H9*%
X43180000Y-53340000D03*
%TD*%
D10*
%TO.C,J33*%
X146515000Y-67140000D03*
D11*
X146515000Y-69680000D03*
%TD*%
D12*
%TO.C,H11*%
X137160000Y-53340000D03*
%TD*%
%TO.C,H12*%
X182880000Y-53340000D03*
%TD*%
%TO.C,H16*%
X137160000Y-101600000D03*
%TD*%
D10*
%TO.C,J42*%
X146515000Y-107780000D03*
D11*
X146515000Y-110320000D03*
%TD*%
D15*
%TO.C,C91*%
X111992500Y-77216000D03*
D16*
X114492500Y-77216000D03*
%TD*%
D13*
%TO.C,J40*%
X111992500Y-110490000D03*
D14*
X114532500Y-110490000D03*
X111992500Y-113030000D03*
X114532500Y-113030000D03*
X111992500Y-115570000D03*
X114532500Y-115570000D03*
X111992500Y-118110000D03*
X114532500Y-118110000D03*
X111992500Y-120650000D03*
X114532500Y-120650000D03*
X111992500Y-123190000D03*
X114532500Y-123190000D03*
X111992500Y-125730000D03*
X114532500Y-125730000D03*
%TD*%
D10*
%TO.C,J43*%
X50800000Y-120650000D03*
D11*
X50800000Y-123190000D03*
%TD*%
D17*
%TO.C,U25*%
X65002500Y-69850000D03*
D18*
X65002500Y-64770000D03*
X65002500Y-57150000D03*
X85322500Y-57150000D03*
X85322500Y-67310000D03*
X85322500Y-77470000D03*
%TD*%
D10*
%TO.C,SW11*%
X146515000Y-51900000D03*
D11*
X146515000Y-54440000D03*
X146515000Y-56980000D03*
X146515000Y-59520000D03*
X146515000Y-62060000D03*
%TD*%
D19*
%TO.C,L4*%
X53975000Y-88900000D03*
D20*
X53975000Y-78900000D03*
X41475000Y-78900000D03*
X41475000Y-88900000D03*
%TD*%
D10*
%TO.C,J36*%
X146515000Y-95080000D03*
D11*
X146515000Y-97620000D03*
%TD*%
D10*
%TO.C,SW12*%
X50800000Y-100330000D03*
D11*
X50800000Y-102870000D03*
X50800000Y-105410000D03*
X50800000Y-107950000D03*
%TD*%
D21*
%TO.C,U24*%
X156675000Y-95080000D03*
D22*
X156675000Y-97620000D03*
X156675000Y-100160000D03*
X156675000Y-102700000D03*
X156675000Y-105240000D03*
X156675000Y-107780000D03*
X156675000Y-110320000D03*
X164295000Y-110320000D03*
X164295000Y-107780000D03*
X164295000Y-105240000D03*
X164295000Y-102700000D03*
X164295000Y-100160000D03*
X164295000Y-97620000D03*
X164295000Y-95080000D03*
%TD*%
D12*
%TO.C,H15*%
X182880000Y-128270000D03*
%TD*%
D15*
%TO.C,C114*%
X101894000Y-115570000D03*
D16*
X104394000Y-115570000D03*
%TD*%
D21*
%TO.C,U23*%
X156675000Y-67140000D03*
D22*
X156675000Y-69680000D03*
X156675000Y-72220000D03*
X156675000Y-74760000D03*
X156675000Y-77300000D03*
X156675000Y-79840000D03*
X156675000Y-82380000D03*
X164295000Y-82380000D03*
X164295000Y-79840000D03*
X164295000Y-77300000D03*
X164295000Y-74760000D03*
X164295000Y-72220000D03*
X164295000Y-69680000D03*
X164295000Y-67140000D03*
%TD*%
D17*
%TO.C,U26*%
X65002500Y-105410000D03*
D18*
X65002500Y-100330000D03*
X65002500Y-92710000D03*
X85322500Y-92710000D03*
X85322500Y-102870000D03*
X85322500Y-113030000D03*
%TD*%
D12*
%TO.C,H14*%
X43180000Y-128270000D03*
%TD*%
D15*
%TO.C,C118*%
X104437388Y-105156000D03*
D16*
X106937388Y-105156000D03*
%TD*%
D23*
%TO.C,C112*%
X72157500Y-105410000D03*
X70082500Y-105410000D03*
%TD*%
%TO.C,C102*%
X90402500Y-62230000D03*
X88327500Y-62230000D03*
%TD*%
D24*
%TO.C,C111*%
X88327500Y-107950000D03*
X90402500Y-107950000D03*
%TD*%
%TO.C,C119*%
X70082500Y-100330000D03*
X72157500Y-100330000D03*
%TD*%
D23*
%TO.C,C89*%
X72157500Y-69850000D03*
X70082500Y-69850000D03*
%TD*%
D24*
%TO.C,C86*%
X88327500Y-72390000D03*
X90402500Y-72390000D03*
%TD*%
D23*
%TO.C,C120*%
X90402500Y-97790000D03*
X88327500Y-97790000D03*
%TD*%
D24*
%TO.C,C100*%
X70082500Y-64770000D03*
X72157500Y-64770000D03*
%TD*%
M02*
