M48
; DRILL file {KiCad 9.0.8} date 2026-03-16T22:16:27+0100
; FORMAT={-:-/ absolute / metric / decimal}
; #@! TF.CreationDate,2026-03-16T22:16:27+01:00
; #@! TF.GenerationSoftware,Kicad,Pcbnew,9.0.8
; #@! TF.FileFunction,Plated,1,4,PTH
FMAT,2
METRIC
; #@! TA.AperFunction,Plated,PTH,ViaDrill
T1C0.300
; #@! TA.AperFunction,Plated,PTH,ComponentDrill
T2C0.800
; #@! TA.AperFunction,Plated,PTH,ComponentDrill
T3C0.900
; #@! TA.AperFunction,Plated,PTH,ComponentDrill
T4C1.000
; #@! TA.AperFunction,Plated,PTH,ComponentDrill
T5C1.150
; #@! TA.AperFunction,Plated,PTH,ComponentDrill
T6C3.200
%
G90
G05
T1
X92.307Y-95.25
X92.307Y-105.41
X94.212Y-59.69
X94.212Y-69.85
X149.055Y-84.92
X149.309Y-69.68
X149.309Y-72.22
X149.309Y-74.76
X149.309Y-97.62
X149.309Y-100.16
X149.309Y-102.7
X154.135Y-64.6
X154.135Y-79.84
X154.135Y-92.54
X154.135Y-107.78
X155.405Y-110.32
X157.31Y-116.67
X165.1Y-49.53
X165.1Y-50.8
X165.1Y-52.07
X166.835Y-97.62
X168.105Y-115.4
X170.18Y-74.76
X170.661Y-102.7
X173.185Y-95.08
X174.725Y-120.48
X178.9Y-110.32
T2
X101.894Y-113.03
X104.394Y-113.03
X104.437Y-102.616
X106.937Y-102.616
X111.992Y-74.676
X114.492Y-74.676
X156.675Y-64.6
X156.675Y-67.14
X156.675Y-69.68
X156.675Y-72.22
X156.675Y-74.76
X156.675Y-77.3
X156.675Y-79.84
X156.675Y-92.54
X156.675Y-95.08
X156.675Y-97.62
X156.675Y-100.16
X156.675Y-102.7
X156.675Y-105.24
X156.675Y-107.78
X164.295Y-64.6
X164.295Y-67.14
X164.295Y-69.68
X164.295Y-72.22
X164.295Y-74.76
X164.295Y-77.3
X164.295Y-79.84
X164.295Y-92.54
X164.295Y-95.08
X164.295Y-97.62
X164.295Y-100.16
X164.295Y-102.7
X164.295Y-105.24
X164.295Y-107.78
T4
X50.8Y-97.79
X50.8Y-100.33
X50.8Y-102.87
X50.8Y-105.41
X50.8Y-110.49
X50.8Y-113.03
X50.8Y-118.11
X50.8Y-120.65
X111.992Y-107.95
X111.992Y-110.49
X111.992Y-113.03
X111.992Y-115.57
X111.992Y-118.11
X111.992Y-120.65
X111.992Y-123.19
X114.532Y-107.95
X114.532Y-110.49
X114.532Y-113.03
X114.532Y-115.57
X114.532Y-118.11
X114.532Y-120.65
X114.532Y-123.19
X139.7Y-107.95
X139.7Y-110.49
X139.7Y-113.03
X139.7Y-115.57
X139.7Y-118.11
X139.7Y-120.65
X139.7Y-123.19
X142.24Y-107.95
X142.24Y-110.49
X142.24Y-113.03
X142.24Y-115.57
X142.24Y-118.11
X142.24Y-120.65
X142.24Y-123.19
X146.515Y-49.36
X146.515Y-51.9
X146.515Y-54.44
X146.515Y-56.98
X146.515Y-59.52
X146.515Y-64.6
X146.515Y-67.14
X146.515Y-77.3
X146.515Y-79.84
X146.515Y-92.54
X146.515Y-95.08
X146.515Y-105.24
X146.515Y-107.78
X175.725Y-100.16
X175.725Y-102.7
X175.725Y-105.24
X175.725Y-107.78
X175.725Y-112.86
X175.725Y-115.4
T5
X65.002Y-54.61
X65.002Y-62.23
X65.002Y-67.31
X65.002Y-90.17
X65.002Y-97.79
X65.002Y-102.87
X85.322Y-54.61
X85.322Y-64.77
X85.322Y-74.93
X85.322Y-90.17
X85.322Y-100.33
X85.322Y-110.49
T6
X43.18Y-50.8
X43.18Y-125.73
X121.92Y-50.8
X121.92Y-125.73
X137.16Y-50.8
X137.16Y-99.06
X182.88Y-50.8
X182.88Y-125.73
T3
X41.925Y-76.36G85X41.025Y-76.36
G05
X41.925Y-86.36G85X41.025Y-86.36
G05
X54.425Y-76.36G85X53.525Y-76.36
G05
X54.425Y-86.36G85X53.525Y-86.36
G05
M30
