%TF.GenerationSoftware,KiCad,Pcbnew,9.0.8*%
%TF.CreationDate,2026-03-17T16:52:58+01:00*%
%TF.ProjectId,Power_Supply_Meter_Amp,506f7765-725f-4537-9570-706c795f4d65,1*%
%TF.SameCoordinates,Original*%
%TF.FileFunction,Soldermask,Top*%
%TF.FilePolarity,Negative*%
%FSLAX46Y46*%
G04 Gerber Fmt 4.6, Leading zero omitted, Abs format (unit mm)*
G04 Created by KiCad (PCBNEW 9.0.8) date 2026-03-17 16:52:58*
%MOMM*%
%LPD*%
G01*
G04 APERTURE LIST*
G04 Aperture macros list*
%AMRoundRect*
0 Rectangle with rounded corners*
0 $1 Rounding radius*
0 $2 $3 $4 $5 $6 $7 $8 $9 X,Y pos of 4 corners*
0 Add a 4 corners polygon primitive as box body*
4,1,4,$2,$3,$4,$5,$6,$7,$8,$9,$2,$3,0*
0 Add four circle primitives for the rounded corners*
1,1,$1+$1,$2,$3*
1,1,$1+$1,$4,$5*
1,1,$1+$1,$6,$7*
1,1,$1+$1,$8,$9*
0 Add four rect primitives between the rounded corners*
20,1,$1+$1,$2,$3,$4,$5,0*
20,1,$1+$1,$4,$5,$6,$7,0*
20,1,$1+$1,$6,$7,$8,$9,0*
20,1,$1+$1,$8,$9,$2,$3,0*%
G04 Aperture macros list end*
%ADD10R,2.600000X1.600000*%
%ADD11O,2.600000X1.600000*%
%ADD12RoundRect,0.250000X-0.350000X-0.450000X0.350000X-0.450000X0.350000X0.450000X-0.350000X0.450000X0*%
%ADD13RoundRect,0.250000X-0.337500X-0.475000X0.337500X-0.475000X0.337500X0.475000X-0.337500X0.475000X0*%
%ADD14RoundRect,0.250000X0.350000X0.450000X-0.350000X0.450000X-0.350000X-0.450000X0.350000X-0.450000X0*%
%ADD15RoundRect,0.250000X0.412500X1.100000X-0.412500X1.100000X-0.412500X-1.100000X0.412500X-1.100000X0*%
%ADD16C,6.400000*%
%ADD17RoundRect,0.250000X0.475000X-0.337500X0.475000X0.337500X-0.475000X0.337500X-0.475000X-0.337500X0*%
%ADD18RoundRect,0.250000X-0.275000X-0.700000X0.275000X-0.700000X0.275000X0.700000X-0.275000X0.700000X0*%
%ADD19RoundRect,0.250000X0.325000X0.450000X-0.325000X0.450000X-0.325000X-0.450000X0.325000X-0.450000X0*%
%ADD20R,1.700000X1.700000*%
%ADD21C,1.700000*%
%ADD22RoundRect,0.250000X0.337500X0.475000X-0.337500X0.475000X-0.337500X-0.475000X0.337500X-0.475000X0*%
%ADD23RoundRect,0.250000X-0.550000X-0.550000X0.550000X-0.550000X0.550000X0.550000X-0.550000X0.550000X0*%
%ADD24C,1.600000*%
%ADD25RoundRect,0.102000X-0.862500X-0.862500X0.862500X-0.862500X0.862500X0.862500X-0.862500X0.862500X0*%
%ADD26C,1.929000*%
%ADD27R,3.000000X3.000000*%
%ADD28O,3.000000X2.000000*%
%ADD29R,2.700000X2.700000*%
%ADD30RoundRect,0.250000X-0.325000X-0.450000X0.325000X-0.450000X0.325000X0.450000X-0.325000X0.450000X0*%
%ADD31RoundRect,0.250000X-0.950000X-0.550000X0.950000X-0.550000X0.950000X0.550000X-0.950000X0.550000X0*%
%ADD32O,2.400000X1.600000*%
G04 APERTURE END LIST*
D10*
%TO.C,J39*%
X50800000Y-113030000D03*
D11*
X50800000Y-115570000D03*
%TD*%
D12*
%TO.C,Z237*%
X150865000Y-69680000D03*
X152865000Y-69680000D03*
%TD*%
D13*
%TO.C,C110*%
X74125000Y-118110000D03*
X76200000Y-118110000D03*
%TD*%
D14*
%TO.C,Z243*%
X170105000Y-95080000D03*
X168105000Y-95080000D03*
%TD*%
D15*
%TO.C,C85*%
X172670000Y-53340000D03*
X169545000Y-53340000D03*
%TD*%
D16*
%TO.C,H13*%
X121920000Y-53340000D03*
%TD*%
D14*
%TO.C,Z254*%
X152865000Y-100160000D03*
X150865000Y-100160000D03*
%TD*%
D12*
%TO.C,Z260*%
X150865000Y-115400000D03*
X152865000Y-115400000D03*
%TD*%
%TO.C,Z261*%
X150865000Y-110320000D03*
X152865000Y-110320000D03*
%TD*%
%TO.C,R143*%
X174725000Y-92540000D03*
X176725000Y-92540000D03*
%TD*%
D16*
%TO.C,H10*%
X121920000Y-128270000D03*
%TD*%
D17*
%TO.C,C113*%
X94212500Y-107950000D03*
X94212500Y-105875000D03*
%TD*%
%TO.C,C117*%
X94212500Y-99865000D03*
X94212500Y-97790000D03*
%TD*%
D13*
%TO.C,C88*%
X150790000Y-102700000D03*
X152865000Y-102700000D03*
%TD*%
D12*
%TO.C,Z259*%
X150865000Y-107780000D03*
X152865000Y-107780000D03*
%TD*%
D14*
%TO.C,R146*%
X176725000Y-67140000D03*
X174725000Y-67140000D03*
%TD*%
D12*
%TO.C,Z250*%
X168105000Y-110320000D03*
X170105000Y-110320000D03*
%TD*%
D14*
%TO.C,Z245*%
X170105000Y-100160000D03*
X168105000Y-100160000D03*
%TD*%
D18*
%TO.C,L1*%
X91062500Y-77470000D03*
X94212500Y-77470000D03*
%TD*%
D12*
%TO.C,Z251*%
X162295000Y-120480000D03*
X164295000Y-120480000D03*
%TD*%
D10*
%TO.C,J35*%
X146515000Y-79840000D03*
D11*
X146515000Y-82380000D03*
%TD*%
D19*
%TO.C,D2*%
X176725000Y-69680000D03*
X174675000Y-69680000D03*
%TD*%
D12*
%TO.C,Z249*%
X150865000Y-97620000D03*
X152865000Y-97620000D03*
%TD*%
D18*
%TO.C,L2*%
X91062500Y-57150000D03*
X94212500Y-57150000D03*
%TD*%
D12*
%TO.C,Z253*%
X150865000Y-95080000D03*
X152865000Y-95080000D03*
%TD*%
D20*
%TO.C,J41*%
X139700000Y-110490000D03*
D21*
X142240000Y-110490000D03*
X139700000Y-113030000D03*
X142240000Y-113030000D03*
X139700000Y-115570000D03*
X142240000Y-115570000D03*
X139700000Y-118110000D03*
X142240000Y-118110000D03*
X139700000Y-120650000D03*
X142240000Y-120650000D03*
X139700000Y-123190000D03*
X142240000Y-123190000D03*
X139700000Y-125730000D03*
X142240000Y-125730000D03*
%TD*%
D12*
%TO.C,Z238*%
X145515000Y-74760000D03*
X147515000Y-74760000D03*
%TD*%
D10*
%TO.C,J37*%
X175725000Y-115400000D03*
D11*
X175725000Y-117940000D03*
%TD*%
D10*
%TO.C,J34*%
X175725000Y-102700000D03*
D11*
X175725000Y-105240000D03*
X175725000Y-107780000D03*
X175725000Y-110320000D03*
%TD*%
D14*
%TO.C,R147*%
X170105000Y-79840000D03*
X168105000Y-79840000D03*
%TD*%
D16*
%TO.C,H9*%
X43180000Y-53340000D03*
%TD*%
D12*
%TO.C,Z239*%
X150865000Y-67140000D03*
X152865000Y-67140000D03*
%TD*%
D22*
%TO.C,C101*%
X176762500Y-97620000D03*
X174687500Y-97620000D03*
%TD*%
D10*
%TO.C,J33*%
X146515000Y-67140000D03*
D11*
X146515000Y-69680000D03*
%TD*%
D16*
%TO.C,H11*%
X137160000Y-53340000D03*
%TD*%
%TO.C,H12*%
X182880000Y-53340000D03*
%TD*%
D14*
%TO.C,Z262*%
X152865000Y-105240000D03*
X150865000Y-105240000D03*
%TD*%
D22*
%TO.C,C93*%
X170180000Y-102700000D03*
X168105000Y-102700000D03*
%TD*%
D16*
%TO.C,H16*%
X137160000Y-101600000D03*
%TD*%
D10*
%TO.C,J42*%
X146515000Y-107780000D03*
D11*
X146515000Y-110320000D03*
%TD*%
D23*
%TO.C,C91*%
X111992500Y-77216000D03*
D24*
X114492500Y-77216000D03*
%TD*%
D20*
%TO.C,J40*%
X111992500Y-110490000D03*
D21*
X114532500Y-110490000D03*
X111992500Y-113030000D03*
X114532500Y-113030000D03*
X111992500Y-115570000D03*
X114532500Y-115570000D03*
X111992500Y-118110000D03*
X114532500Y-118110000D03*
X111992500Y-120650000D03*
X114532500Y-120650000D03*
X111992500Y-123190000D03*
X114532500Y-123190000D03*
X111992500Y-125730000D03*
X114532500Y-125730000D03*
%TD*%
D13*
%TO.C,C87*%
X150790000Y-74760000D03*
X152865000Y-74760000D03*
%TD*%
D14*
%TO.C,R150*%
X170121000Y-107780000D03*
X168121000Y-107780000D03*
%TD*%
D10*
%TO.C,J43*%
X50800000Y-120650000D03*
D11*
X50800000Y-123190000D03*
%TD*%
D14*
%TO.C,R151*%
X170121000Y-105240000D03*
X168121000Y-105240000D03*
%TD*%
D25*
%TO.C,U25*%
X65002500Y-69850000D03*
D26*
X65002500Y-64770000D03*
X65002500Y-57150000D03*
X85322500Y-57150000D03*
X85322500Y-67310000D03*
X85322500Y-77470000D03*
%TD*%
D15*
%TO.C,C115*%
X52362500Y-95250000D03*
X49237500Y-95250000D03*
%TD*%
D12*
%TO.C,Z244*%
X150865000Y-79840000D03*
X152865000Y-79840000D03*
%TD*%
%TO.C,Z241*%
X99838000Y-72390000D03*
X101838000Y-72390000D03*
%TD*%
D18*
%TO.C,L5*%
X91062500Y-92710000D03*
X94212500Y-92710000D03*
%TD*%
D12*
%TO.C,Z255*%
X99838000Y-110490000D03*
X101838000Y-110490000D03*
%TD*%
D10*
%TO.C,SW11*%
X146515000Y-51900000D03*
D11*
X146515000Y-54440000D03*
X146515000Y-56980000D03*
X146515000Y-59520000D03*
X146515000Y-62060000D03*
%TD*%
D18*
%TO.C,L3*%
X91062500Y-113030000D03*
X94212500Y-113030000D03*
%TD*%
D27*
%TO.C,L4*%
X53975000Y-88900000D03*
D28*
X53975000Y-78900000D03*
D29*
X53910000Y-81280000D03*
D28*
X41475000Y-78900000D03*
D29*
X47690000Y-81280000D03*
X47700000Y-88900000D03*
D28*
X41475000Y-88900000D03*
%TD*%
D12*
%TO.C,R144*%
X174725000Y-95080000D03*
X176725000Y-95080000D03*
%TD*%
D15*
%TO.C,C116*%
X52362500Y-72390000D03*
X49237500Y-72390000D03*
%TD*%
D30*
%TO.C,D1*%
X168105000Y-67140000D03*
X170155000Y-67140000D03*
%TD*%
D10*
%TO.C,J36*%
X146515000Y-95080000D03*
D11*
X146515000Y-97620000D03*
%TD*%
D12*
%TO.C,Z258*%
X99838000Y-95250000D03*
X101838000Y-95250000D03*
%TD*%
D10*
%TO.C,SW12*%
X50800000Y-100330000D03*
D11*
X50800000Y-102870000D03*
X50800000Y-105410000D03*
X50800000Y-107950000D03*
%TD*%
D12*
%TO.C,Z246*%
X145515000Y-87460000D03*
X147515000Y-87460000D03*
%TD*%
D14*
%TO.C,Z256*%
X164295000Y-117940000D03*
X162295000Y-117940000D03*
%TD*%
D12*
%TO.C,Z252*%
X145515000Y-102700000D03*
X147515000Y-102700000D03*
%TD*%
D14*
%TO.C,Z248*%
X152865000Y-77300000D03*
X150865000Y-77300000D03*
%TD*%
D31*
%TO.C,U24*%
X156675000Y-95080000D03*
D32*
X156675000Y-97620000D03*
X156675000Y-100160000D03*
X156675000Y-102700000D03*
X156675000Y-105240000D03*
X156675000Y-107780000D03*
X156675000Y-110320000D03*
X164295000Y-110320000D03*
X164295000Y-107780000D03*
X164295000Y-105240000D03*
X164295000Y-102700000D03*
X164295000Y-100160000D03*
X164295000Y-97620000D03*
X164295000Y-95080000D03*
%TD*%
D16*
%TO.C,H15*%
X182880000Y-128270000D03*
%TD*%
D14*
%TO.C,R148*%
X170105000Y-120480000D03*
X168105000Y-120480000D03*
%TD*%
%TO.C,R149*%
X170105000Y-123020000D03*
X168105000Y-123020000D03*
%TD*%
D13*
%TO.C,C103*%
X74125000Y-52070000D03*
X76200000Y-52070000D03*
%TD*%
D12*
%TO.C,R145*%
X155675000Y-60790000D03*
X157675000Y-60790000D03*
%TD*%
D17*
%TO.C,C90*%
X94212500Y-68347500D03*
X94212500Y-66272500D03*
%TD*%
D23*
%TO.C,C114*%
X101894000Y-115570000D03*
D24*
X104394000Y-115570000D03*
%TD*%
D31*
%TO.C,U23*%
X156675000Y-67140000D03*
D32*
X156675000Y-69680000D03*
X156675000Y-72220000D03*
X156675000Y-74760000D03*
X156675000Y-77300000D03*
X156675000Y-79840000D03*
X156675000Y-82380000D03*
X164295000Y-82380000D03*
X164295000Y-79840000D03*
X164295000Y-77300000D03*
X164295000Y-74760000D03*
X164295000Y-72220000D03*
X164295000Y-69680000D03*
X164295000Y-67140000D03*
%TD*%
D12*
%TO.C,R141*%
X155675000Y-63330000D03*
X157675000Y-63330000D03*
%TD*%
D14*
%TO.C,Z240*%
X152865000Y-72220000D03*
X150865000Y-72220000D03*
%TD*%
D13*
%TO.C,C84*%
X74125000Y-82550000D03*
X76200000Y-82550000D03*
%TD*%
D19*
%TO.C,D4*%
X170155000Y-117940000D03*
X168105000Y-117940000D03*
%TD*%
D25*
%TO.C,U26*%
X65002500Y-105410000D03*
D26*
X65002500Y-100330000D03*
X65002500Y-92710000D03*
X85322500Y-92710000D03*
X85322500Y-102870000D03*
X85322500Y-113030000D03*
%TD*%
D16*
%TO.C,H14*%
X43180000Y-128270000D03*
%TD*%
D14*
%TO.C,R142*%
X170105000Y-82380000D03*
X168105000Y-82380000D03*
%TD*%
D22*
%TO.C,C92*%
X170180000Y-77300000D03*
X168105000Y-77300000D03*
%TD*%
D13*
%TO.C,C121*%
X74125000Y-87630000D03*
X76200000Y-87630000D03*
%TD*%
D12*
%TO.C,Z247*%
X150865000Y-82380000D03*
X152865000Y-82380000D03*
%TD*%
D14*
%TO.C,Z257*%
X176725000Y-123020000D03*
X174725000Y-123020000D03*
%TD*%
D23*
%TO.C,C118*%
X104437388Y-105156000D03*
D24*
X106937388Y-105156000D03*
%TD*%
D12*
%TO.C,Z242*%
X168105000Y-97620000D03*
X170105000Y-97620000D03*
%TD*%
M02*
