%TF.GenerationSoftware,KiCad,Pcbnew,9.0.8*%
%TF.CreationDate,2026-03-17T16:52:57+01:00*%
%TF.ProjectId,Power_Supply_Meter_Amp,506f7765-725f-4537-9570-706c795f4d65,1*%
%TF.SameCoordinates,Original*%
%TF.FileFunction,Copper,L1,Top*%
%TF.FilePolarity,Positive*%
%FSLAX46Y46*%
G04 Gerber Fmt 4.6, Leading zero omitted, Abs format (unit mm)*
G04 Created by KiCad (PCBNEW 9.0.8) date 2026-03-17 16:52:57*
%MOMM*%
%LPD*%
G01*
G04 APERTURE LIST*
G04 Aperture macros list*
%AMRoundRect*
0 Rectangle with rounded corners*
0 $1 Rounding radius*
0 $2 $3 $4 $5 $6 $7 $8 $9 X,Y pos of 4 corners*
0 Add a 4 corners polygon primitive as box body*
4,1,4,$2,$3,$4,$5,$6,$7,$8,$9,$2,$3,0*
0 Add four circle primitives for the rounded corners*
1,1,$1+$1,$2,$3*
1,1,$1+$1,$4,$5*
1,1,$1+$1,$6,$7*
1,1,$1+$1,$8,$9*
0 Add four rect primitives between the rounded corners*
20,1,$1+$1,$2,$3,$4,$5,0*
20,1,$1+$1,$4,$5,$6,$7,0*
20,1,$1+$1,$6,$7,$8,$9,0*
20,1,$1+$1,$8,$9,$2,$3,0*%
G04 Aperture macros list end*
%TA.AperFunction,ComponentPad*%
%ADD10R,2.600000X1.600000*%
%TD*%
%TA.AperFunction,ComponentPad*%
%ADD11O,2.600000X1.600000*%
%TD*%
%TA.AperFunction,SMDPad,CuDef*%
%ADD12RoundRect,0.250000X-0.350000X-0.450000X0.350000X-0.450000X0.350000X0.450000X-0.350000X0.450000X0*%
%TD*%
%TA.AperFunction,SMDPad,CuDef*%
%ADD13RoundRect,0.250000X-0.337500X-0.475000X0.337500X-0.475000X0.337500X0.475000X-0.337500X0.475000X0*%
%TD*%
%TA.AperFunction,SMDPad,CuDef*%
%ADD14RoundRect,0.250000X0.350000X0.450000X-0.350000X0.450000X-0.350000X-0.450000X0.350000X-0.450000X0*%
%TD*%
%TA.AperFunction,SMDPad,CuDef*%
%ADD15RoundRect,0.250000X0.412500X1.100000X-0.412500X1.100000X-0.412500X-1.100000X0.412500X-1.100000X0*%
%TD*%
%TA.AperFunction,ComponentPad*%
%ADD16C,6.400000*%
%TD*%
%TA.AperFunction,SMDPad,CuDef*%
%ADD17RoundRect,0.250000X0.475000X-0.337500X0.475000X0.337500X-0.475000X0.337500X-0.475000X-0.337500X0*%
%TD*%
%TA.AperFunction,SMDPad,CuDef*%
%ADD18RoundRect,0.250000X-0.275000X-0.700000X0.275000X-0.700000X0.275000X0.700000X-0.275000X0.700000X0*%
%TD*%
%TA.AperFunction,SMDPad,CuDef*%
%ADD19RoundRect,0.250000X0.325000X0.450000X-0.325000X0.450000X-0.325000X-0.450000X0.325000X-0.450000X0*%
%TD*%
%TA.AperFunction,ComponentPad*%
%ADD20R,1.700000X1.700000*%
%TD*%
%TA.AperFunction,ComponentPad*%
%ADD21C,1.700000*%
%TD*%
%TA.AperFunction,SMDPad,CuDef*%
%ADD22RoundRect,0.250000X0.337500X0.475000X-0.337500X0.475000X-0.337500X-0.475000X0.337500X-0.475000X0*%
%TD*%
%TA.AperFunction,ComponentPad*%
%ADD23RoundRect,0.250000X-0.550000X-0.550000X0.550000X-0.550000X0.550000X0.550000X-0.550000X0.550000X0*%
%TD*%
%TA.AperFunction,ComponentPad*%
%ADD24C,1.600000*%
%TD*%
%TA.AperFunction,ComponentPad*%
%ADD25R,1.725000X1.725000*%
%TD*%
%TA.AperFunction,ComponentPad*%
%ADD26C,1.725000*%
%TD*%
%TA.AperFunction,ComponentPad*%
%ADD27R,3.000000X3.000000*%
%TD*%
%TA.AperFunction,ComponentPad*%
%ADD28O,3.000000X2.000000*%
%TD*%
%TA.AperFunction,SMDPad,CuDef*%
%ADD29R,2.700000X2.700000*%
%TD*%
%TA.AperFunction,SMDPad,CuDef*%
%ADD30RoundRect,0.250000X-0.325000X-0.450000X0.325000X-0.450000X0.325000X0.450000X-0.325000X0.450000X0*%
%TD*%
%TA.AperFunction,ComponentPad*%
%ADD31RoundRect,0.250000X-0.950000X-0.550000X0.950000X-0.550000X0.950000X0.550000X-0.950000X0.550000X0*%
%TD*%
%TA.AperFunction,ComponentPad*%
%ADD32O,2.400000X1.600000*%
%TD*%
%TA.AperFunction,ViaPad*%
%ADD33C,0.700000*%
%TD*%
%TA.AperFunction,Conductor*%
%ADD34C,0.600000*%
%TD*%
%TA.AperFunction,Conductor*%
%ADD35C,1.200000*%
%TD*%
%TA.AperFunction,Conductor*%
%ADD36C,0.400000*%
%TD*%
%TA.AperFunction,Conductor*%
%ADD37C,1.600000*%
%TD*%
%TA.AperFunction,Conductor*%
%ADD38C,1.000000*%
%TD*%
G04 APERTURE END LIST*
D10*
%TO.P,J39,1,Pin_1*%
%TO.N,Net-(J39-Pin_1)*%
X50800000Y-113030000D03*
D11*
%TO.P,J39,2,Pin_2*%
%TO.N,Net-(J39-Pin_2)*%
X50800000Y-115570000D03*
%TD*%
D12*
%TO.P,Z237,1*%
%TO.N,Net-(J33-Pin_1)*%
X150865000Y-69680000D03*
%TO.P,Z237,2*%
%TO.N,Net-(U23A-+)*%
X152865000Y-69680000D03*
%TD*%
D13*
%TO.P,C110,1*%
%TO.N,Net-(U25-+VIN)*%
X74125000Y-118110000D03*
%TO.P,C110,2*%
%TO.N,Net-(C110-Pad2)*%
X76200000Y-118110000D03*
%TD*%
D14*
%TO.P,Z243,1*%
%TO.N,Net-(Z242-Pad2)*%
X170105000Y-95080000D03*
%TO.P,Z243,2*%
%TO.N,Net-(R143-Pad1)*%
X168105000Y-95080000D03*
%TD*%
D15*
%TO.P,C85,1*%
%TO.N,Net-(C85-Pad1)*%
X172670000Y-53340000D03*
%TO.P,C85,2*%
%TO.N,GND_M*%
X169545000Y-53340000D03*
%TD*%
D16*
%TO.P,H13,1*%
%TO.N,N/C*%
X121920000Y-53340000D03*
%TD*%
D14*
%TO.P,Z254,1*%
%TO.N,Net-(U24A-+)*%
X152865000Y-100160000D03*
%TO.P,Z254,2*%
%TO.N,GND_M*%
X150865000Y-100160000D03*
%TD*%
D12*
%TO.P,Z260,1*%
%TO.N,Net-(J42-Pin_2)*%
X150865000Y-115400000D03*
%TO.P,Z260,2*%
%TO.N,GND_M*%
X152865000Y-115400000D03*
%TD*%
%TO.P,Z261,1*%
%TO.N,Net-(J42-Pin_1)*%
X150865000Y-110320000D03*
%TO.P,Z261,2*%
%TO.N,GND_M*%
X152865000Y-110320000D03*
%TD*%
%TO.P,R143,1*%
%TO.N,Net-(R143-Pad1)*%
X174725000Y-92540000D03*
%TO.P,R143,2*%
%TO.N,Net-(J34-Pin_1)*%
X176725000Y-92540000D03*
%TD*%
D16*
%TO.P,H10,1*%
%TO.N,N/C*%
X121920000Y-128270000D03*
%TD*%
D17*
%TO.P,C113,1*%
%TO.N,Net-(C110-Pad2)*%
X94212500Y-107950000D03*
%TO.P,C113,2*%
%TO.N,GND_P*%
X94212500Y-105875000D03*
%TD*%
%TO.P,C117,1*%
%TO.N,GND_P*%
X94212500Y-99865000D03*
%TO.P,C117,2*%
%TO.N,Net-(C117-Pad2)*%
X94212500Y-97790000D03*
%TD*%
D13*
%TO.P,C88,1*%
%TO.N,GND_M*%
X150790000Y-102700000D03*
%TO.P,C88,2*%
%TO.N,+15V_M*%
X152865000Y-102700000D03*
%TD*%
D12*
%TO.P,Z259,1*%
%TO.N,Net-(J42-Pin_1)*%
X150865000Y-107780000D03*
%TO.P,Z259,2*%
%TO.N,Net-(U24B-+)*%
X152865000Y-107780000D03*
%TD*%
D14*
%TO.P,R146,1*%
%TO.N,Net-(D2-K)*%
X176725000Y-67140000D03*
%TO.P,R146,2*%
%TO.N,Net-(D1-A)*%
X174725000Y-67140000D03*
%TD*%
D12*
%TO.P,Z250,1*%
%TO.N,Net-(U24-Pad8)*%
X168105000Y-110320000D03*
%TO.P,Z250,2*%
%TO.N,Net-(Z250-Pad2)*%
X170105000Y-110320000D03*
%TD*%
D14*
%TO.P,Z245,1*%
%TO.N,Net-(Z242-Pad2)*%
X170105000Y-100160000D03*
%TO.P,Z245,2*%
%TO.N,GND_M*%
X168105000Y-100160000D03*
%TD*%
D18*
%TO.P,L1,1,1*%
%TO.N,Net-(U25-+VOUT)*%
X91062500Y-77470000D03*
%TO.P,L1,2,2*%
%TO.N,Net-(C84-Pad2)*%
X94212500Y-77470000D03*
%TD*%
D12*
%TO.P,Z251,1*%
%TO.N,Net-(Z250-Pad2)*%
X162295000Y-120480000D03*
%TO.P,Z251,2*%
%TO.N,Net-(R148-Pad2)*%
X164295000Y-120480000D03*
%TD*%
D10*
%TO.P,J35,1,Pin_1*%
%TO.N,Net-(J35-Pin_1)*%
X146515000Y-79840000D03*
D11*
%TO.P,J35,2,Pin_2*%
%TO.N,Net-(J35-Pin_2)*%
X146515000Y-82380000D03*
%TD*%
D19*
%TO.P,D2,1,K*%
%TO.N,Net-(D2-K)*%
X176725000Y-69680000D03*
%TO.P,D2,2,A*%
%TO.N,Net-(D1-K)*%
X174675000Y-69680000D03*
%TD*%
D12*
%TO.P,Z249,1*%
%TO.N,Net-(J36-Pin_1)*%
X150865000Y-97620000D03*
%TO.P,Z249,2*%
%TO.N,Net-(U24A-+)*%
X152865000Y-97620000D03*
%TD*%
D18*
%TO.P,L2,1,1*%
%TO.N,Net-(U25--VOUT)*%
X91062500Y-57150000D03*
%TO.P,L2,2,2*%
%TO.N,9V_GND_P*%
X94212500Y-57150000D03*
%TD*%
D12*
%TO.P,Z253,1*%
%TO.N,Net-(J36-Pin_1)*%
X150865000Y-95080000D03*
%TO.P,Z253,2*%
%TO.N,GND_M*%
X152865000Y-95080000D03*
%TD*%
D20*
%TO.P,J41,1,Pin_1*%
%TO.N,9V_GND_M*%
X139700000Y-110490000D03*
D21*
%TO.P,J41,2,Pin_2*%
X142240000Y-110490000D03*
%TO.P,J41,3,Pin_3*%
X139700000Y-113030000D03*
%TO.P,J41,4,Pin_4*%
X142240000Y-113030000D03*
%TO.P,J41,5,Pin_5*%
%TO.N,+9V_M*%
X139700000Y-115570000D03*
%TO.P,J41,6,Pin_6*%
X142240000Y-115570000D03*
%TO.P,J41,7,Pin_7*%
%TO.N,-15V_M*%
X139700000Y-118110000D03*
%TO.P,J41,8,Pin_8*%
X142240000Y-118110000D03*
%TO.P,J41,9,Pin_9*%
%TO.N,GND_M*%
X139700000Y-120650000D03*
%TO.P,J41,10,Pin_10*%
X142240000Y-120650000D03*
%TO.P,J41,11,Pin_11*%
X139700000Y-123190000D03*
%TO.P,J41,12,Pin_12*%
X142240000Y-123190000D03*
%TO.P,J41,13,Pin_13*%
%TO.N,+15V_M*%
X139700000Y-125730000D03*
%TO.P,J41,14,Pin_14*%
X142240000Y-125730000D03*
%TD*%
D12*
%TO.P,Z238,1*%
%TO.N,Net-(J33-Pin_2)*%
X145515000Y-74760000D03*
%TO.P,Z238,2*%
%TO.N,GND_M*%
X147515000Y-74760000D03*
%TD*%
D10*
%TO.P,J37,1,Pin_1*%
%TO.N,Net-(J37-Pin_1)*%
X175725000Y-115400000D03*
D11*
%TO.P,J37,2,Pin_2*%
%TO.N,Net-(J37-Pin_2)*%
X175725000Y-117940000D03*
%TD*%
D10*
%TO.P,J34,1,Pin_1*%
%TO.N,Net-(J34-Pin_1)*%
X175725000Y-102700000D03*
D11*
%TO.P,J34,2,Pin_2*%
%TO.N,GND_M*%
X175725000Y-105240000D03*
%TO.P,J34,3,Pin_3*%
%TO.N,9V_GND_M*%
X175725000Y-107780000D03*
%TO.P,J34,4,Pin_4*%
%TO.N,+9V_M*%
X175725000Y-110320000D03*
%TD*%
D14*
%TO.P,R147,1*%
%TO.N,Net-(D1-A)*%
X170105000Y-79840000D03*
%TO.P,R147,2*%
%TO.N,Net-(U23C--)*%
X168105000Y-79840000D03*
%TD*%
D16*
%TO.P,H9,1*%
%TO.N,N/C*%
X43180000Y-53340000D03*
%TD*%
D12*
%TO.P,Z239,1*%
%TO.N,Net-(J33-Pin_1)*%
X150865000Y-67140000D03*
%TO.P,Z239,2*%
%TO.N,GND_M*%
X152865000Y-67140000D03*
%TD*%
D22*
%TO.P,C101,1*%
%TO.N,Net-(J34-Pin_1)*%
X176762500Y-97620000D03*
%TO.P,C101,2*%
%TO.N,GND_M*%
X174687500Y-97620000D03*
%TD*%
D10*
%TO.P,J33,1,Pin_1*%
%TO.N,Net-(J33-Pin_1)*%
X146515000Y-67140000D03*
D11*
%TO.P,J33,2,Pin_2*%
%TO.N,Net-(J33-Pin_2)*%
X146515000Y-69680000D03*
%TD*%
D16*
%TO.P,H11,1*%
%TO.N,N/C*%
X137160000Y-53340000D03*
%TD*%
%TO.P,H12,1,1*%
%TO.N,Net-(C85-Pad1)*%
X182880000Y-53340000D03*
%TD*%
D14*
%TO.P,Z262,1*%
%TO.N,Net-(U24B-+)*%
X152865000Y-105240000D03*
%TO.P,Z262,2*%
%TO.N,GND_M*%
X150865000Y-105240000D03*
%TD*%
D22*
%TO.P,C93,1*%
%TO.N,GND_M*%
X170180000Y-102700000D03*
%TO.P,C93,2*%
%TO.N,-15V_M*%
X168105000Y-102700000D03*
%TD*%
D16*
%TO.P,H16,1*%
%TO.N,N/C*%
X137160000Y-101600000D03*
%TD*%
D10*
%TO.P,J42,1,Pin_1*%
%TO.N,Net-(J42-Pin_1)*%
X146515000Y-107780000D03*
D11*
%TO.P,J42,2,Pin_2*%
%TO.N,Net-(J42-Pin_2)*%
X146515000Y-110320000D03*
%TD*%
D23*
%TO.P,C91,1*%
%TO.N,+9V_P*%
X111992500Y-77216000D03*
D24*
%TO.P,C91,2*%
%TO.N,9V_GND_P*%
X114492500Y-77216000D03*
%TD*%
D20*
%TO.P,J40,1,Pin_1*%
%TO.N,9V_GND_P*%
X111992500Y-110490000D03*
D21*
%TO.P,J40,2,Pin_2*%
X114532500Y-110490000D03*
%TO.P,J40,3,Pin_3*%
X111992500Y-113030000D03*
%TO.P,J40,4,Pin_4*%
X114532500Y-113030000D03*
%TO.P,J40,5,Pin_5*%
%TO.N,+9V_P*%
X111992500Y-115570000D03*
%TO.P,J40,6,Pin_6*%
X114532500Y-115570000D03*
%TO.P,J40,7,Pin_7*%
%TO.N,-15V_P*%
X111992500Y-118110000D03*
%TO.P,J40,8,Pin_8*%
X114532500Y-118110000D03*
%TO.P,J40,9,Pin_9*%
%TO.N,GND_P*%
X111992500Y-120650000D03*
%TO.P,J40,10,Pin_10*%
X114532500Y-120650000D03*
%TO.P,J40,11,Pin_11*%
X111992500Y-123190000D03*
%TO.P,J40,12,Pin_12*%
X114532500Y-123190000D03*
%TO.P,J40,13,Pin_13*%
%TO.N,+15V_P*%
X111992500Y-125730000D03*
%TO.P,J40,14,Pin_14*%
X114532500Y-125730000D03*
%TD*%
D13*
%TO.P,C87,1*%
%TO.N,GND_M*%
X150790000Y-74760000D03*
%TO.P,C87,2*%
%TO.N,+15V_M*%
X152865000Y-74760000D03*
%TD*%
D14*
%TO.P,R150,1*%
%TO.N,+15V_M*%
X170121000Y-107780000D03*
%TO.P,R150,2*%
%TO.N,Net-(U24C--)*%
X168121000Y-107780000D03*
%TD*%
D10*
%TO.P,J43,1,Pin_1*%
%TO.N,Net-(J39-Pin_1)*%
X50800000Y-120650000D03*
D11*
%TO.P,J43,2,Pin_2*%
%TO.N,Net-(J39-Pin_2)*%
X50800000Y-123190000D03*
%TD*%
D14*
%TO.P,R151,1*%
%TO.N,GND_M*%
X170121000Y-105240000D03*
%TO.P,R151,2*%
%TO.N,Net-(U24C--)*%
X168121000Y-105240000D03*
%TD*%
D25*
%TO.P,U25,1,+VIN*%
%TO.N,Net-(U25-+VIN)*%
X65002500Y-69850000D03*
D26*
%TO.P,U25,2,-VIN*%
%TO.N,Net-(U25--VIN)*%
X65002500Y-64770000D03*
%TO.P,U25,3,CTRL*%
%TO.N,unconnected-(U25-CTRL-Pad3)*%
X65002500Y-57150000D03*
%TO.P,U25,4,-VOUT*%
%TO.N,Net-(U25--VOUT)*%
X85322500Y-57150000D03*
%TO.P,U25,5,TRIM*%
%TO.N,unconnected-(U25-TRIM-Pad5)*%
X85322500Y-67310000D03*
%TO.P,U25,6,+VOUT*%
%TO.N,Net-(U25-+VOUT)*%
X85322500Y-77470000D03*
%TD*%
D15*
%TO.P,C115,1*%
%TO.N,Net-(C115-Pad1)*%
X52362500Y-95250000D03*
%TO.P,C115,2*%
%TO.N,Net-(C115-Pad2)*%
X49237500Y-95250000D03*
%TD*%
D12*
%TO.P,Z244,1*%
%TO.N,Net-(J35-Pin_1)*%
X150865000Y-79840000D03*
%TO.P,Z244,2*%
%TO.N,Net-(U23B-+)*%
X152865000Y-79840000D03*
%TD*%
%TO.P,Z241,1*%
%TO.N,Net-(C84-Pad2)*%
X99838000Y-72390000D03*
%TO.P,Z241,2*%
%TO.N,+9V_P*%
X101838000Y-72390000D03*
%TD*%
D18*
%TO.P,L5,1,1*%
%TO.N,Net-(U26--VOUT)*%
X91062500Y-92710000D03*
%TO.P,L5,2,2*%
%TO.N,Net-(C117-Pad2)*%
X94212500Y-92710000D03*
%TD*%
D12*
%TO.P,Z255,1*%
%TO.N,Net-(C110-Pad2)*%
X99838000Y-110490000D03*
%TO.P,Z255,2*%
%TO.N,+15V_P*%
X101838000Y-110490000D03*
%TD*%
D10*
%TO.P,SW11,1*%
%TO.N,/Pegel_Post*%
X146515000Y-51900000D03*
D11*
%TO.P,SW11,2*%
%TO.N,/Pegel_Aux_Return*%
X146515000Y-54440000D03*
%TO.P,SW11,3*%
%TO.N,/Pegel_Mic_Effekt*%
X146515000Y-56980000D03*
%TO.P,SW11,4*%
%TO.N,/Pegel_Pre*%
X146515000Y-59520000D03*
%TO.P,SW11,5*%
%TO.N,Net-(R141-Pad1)*%
X146515000Y-62060000D03*
%TD*%
D18*
%TO.P,L3,1,1*%
%TO.N,Net-(U26-+VOUT)*%
X91062500Y-113030000D03*
%TO.P,L3,2,2*%
%TO.N,Net-(C110-Pad2)*%
X94212500Y-113030000D03*
%TD*%
D27*
%TO.P,L4,1*%
%TO.N,Net-(C115-Pad1)*%
X53975000Y-88900000D03*
D28*
%TO.P,L4,2*%
%TO.N,Net-(U25-+VIN)*%
X53975000Y-78900000D03*
D29*
X53910000Y-81280000D03*
D28*
%TO.P,L4,3*%
%TO.N,Net-(U25--VIN)*%
X41475000Y-78900000D03*
D29*
X47690000Y-81280000D03*
%TO.P,L4,4*%
%TO.N,Net-(C115-Pad2)*%
X47700000Y-88900000D03*
D28*
X41475000Y-88900000D03*
%TD*%
D12*
%TO.P,R144,1*%
%TO.N,GND_M*%
X174725000Y-95080000D03*
%TO.P,R144,2*%
%TO.N,Net-(J34-Pin_1)*%
X176725000Y-95080000D03*
%TD*%
D15*
%TO.P,C116,1*%
%TO.N,Net-(U25-+VIN)*%
X52362500Y-72390000D03*
%TO.P,C116,2*%
%TO.N,Net-(U25--VIN)*%
X49237500Y-72390000D03*
%TD*%
D30*
%TO.P,D1,1,K*%
%TO.N,Net-(D1-K)*%
X168105000Y-67140000D03*
%TO.P,D1,2,A*%
%TO.N,Net-(D1-A)*%
X170155000Y-67140000D03*
%TD*%
D10*
%TO.P,J36,1,Pin_1*%
%TO.N,Net-(J36-Pin_1)*%
X146515000Y-95080000D03*
D11*
%TO.P,J36,2,Pin_2*%
%TO.N,Net-(J36-Pin_2)*%
X146515000Y-97620000D03*
%TD*%
D12*
%TO.P,Z258,1*%
%TO.N,Net-(C117-Pad2)*%
X99838000Y-95250000D03*
%TO.P,Z258,2*%
%TO.N,-15V_P*%
X101838000Y-95250000D03*
%TD*%
D10*
%TO.P,SW12,1,1*%
%TO.N,Net-(J39-Pin_2)*%
X50800000Y-100330000D03*
D11*
%TO.P,SW12,2,2*%
%TO.N,Net-(C115-Pad2)*%
X50800000Y-102870000D03*
%TO.P,SW12,3,3*%
%TO.N,Net-(J39-Pin_1)*%
X50800000Y-105410000D03*
%TO.P,SW12,4,4*%
%TO.N,Net-(C115-Pad1)*%
X50800000Y-107950000D03*
%TD*%
D12*
%TO.P,Z246,1*%
%TO.N,Net-(J35-Pin_2)*%
X145515000Y-87460000D03*
%TO.P,Z246,2*%
%TO.N,GND_M*%
X147515000Y-87460000D03*
%TD*%
D14*
%TO.P,Z256,1*%
%TO.N,Net-(Z250-Pad2)*%
X164295000Y-117940000D03*
%TO.P,Z256,2*%
%TO.N,GND_M*%
X162295000Y-117940000D03*
%TD*%
D12*
%TO.P,Z252,1*%
%TO.N,Net-(J36-Pin_2)*%
X145515000Y-102700000D03*
%TO.P,Z252,2*%
%TO.N,GND_M*%
X147515000Y-102700000D03*
%TD*%
D14*
%TO.P,Z248,1*%
%TO.N,Net-(U23B-+)*%
X152865000Y-77300000D03*
%TO.P,Z248,2*%
%TO.N,GND_M*%
X150865000Y-77300000D03*
%TD*%
D31*
%TO.P,U24,1*%
%TO.N,/Pegel_Aux_Return*%
X156675000Y-95080000D03*
D32*
%TO.P,U24,2,-*%
X156675000Y-97620000D03*
%TO.P,U24,3,+*%
%TO.N,Net-(U24A-+)*%
X156675000Y-100160000D03*
%TO.P,U24,4,V+*%
%TO.N,+15V_M*%
X156675000Y-102700000D03*
%TO.P,U24,5,+*%
%TO.N,Net-(U24B-+)*%
X156675000Y-105240000D03*
%TO.P,U24,6,-*%
%TO.N,/Pegel_Post*%
X156675000Y-107780000D03*
%TO.P,U24,7*%
X156675000Y-110320000D03*
%TO.P,U24,8*%
%TO.N,Net-(U24-Pad8)*%
X164295000Y-110320000D03*
%TO.P,U24,9,-*%
%TO.N,Net-(U24C--)*%
X164295000Y-107780000D03*
%TO.P,U24,10,+*%
%TO.N,Net-(U24C-+)*%
X164295000Y-105240000D03*
%TO.P,U24,11,V-*%
%TO.N,-15V_M*%
X164295000Y-102700000D03*
%TO.P,U24,12,+*%
%TO.N,Net-(U24C-+)*%
X164295000Y-100160000D03*
%TO.P,U24,13,-*%
%TO.N,Net-(U24D--)*%
X164295000Y-97620000D03*
%TO.P,U24,14*%
X164295000Y-95080000D03*
%TD*%
D16*
%TO.P,H15,1*%
%TO.N,N/C*%
X182880000Y-128270000D03*
%TD*%
D14*
%TO.P,R148,1*%
%TO.N,Net-(D4-K)*%
X170105000Y-120480000D03*
%TO.P,R148,2*%
%TO.N,Net-(R148-Pad2)*%
X168105000Y-120480000D03*
%TD*%
%TO.P,R149,1*%
%TO.N,Net-(J37-Pin_1)*%
X170105000Y-123020000D03*
%TO.P,R149,2*%
%TO.N,Net-(D4-K)*%
X168105000Y-123020000D03*
%TD*%
D13*
%TO.P,C103,1*%
%TO.N,Net-(U25--VIN)*%
X74125000Y-52070000D03*
%TO.P,C103,2*%
%TO.N,9V_GND_P*%
X76200000Y-52070000D03*
%TD*%
D12*
%TO.P,R145,1*%
%TO.N,Net-(R141-Pad1)*%
X155675000Y-60790000D03*
%TO.P,R145,2*%
%TO.N,Net-(D2-K)*%
X157675000Y-60790000D03*
%TD*%
D17*
%TO.P,C90,1*%
%TO.N,Net-(C84-Pad2)*%
X94212500Y-68347500D03*
%TO.P,C90,2*%
%TO.N,9V_GND_P*%
X94212500Y-66272500D03*
%TD*%
D23*
%TO.P,C114,1*%
%TO.N,+15V_P*%
X101894000Y-115570000D03*
D24*
%TO.P,C114,2*%
%TO.N,GND_P*%
X104394000Y-115570000D03*
%TD*%
D31*
%TO.P,U23,1*%
%TO.N,/Pegel_Pre*%
X156675000Y-67140000D03*
D32*
%TO.P,U23,2,-*%
X156675000Y-69680000D03*
%TO.P,U23,3,+*%
%TO.N,Net-(U23A-+)*%
X156675000Y-72220000D03*
%TO.P,U23,4,V+*%
%TO.N,+15V_M*%
X156675000Y-74760000D03*
%TO.P,U23,5,+*%
%TO.N,Net-(U23B-+)*%
X156675000Y-77300000D03*
%TO.P,U23,6,-*%
%TO.N,/Pegel_Mic_Effekt*%
X156675000Y-79840000D03*
%TO.P,U23,7*%
X156675000Y-82380000D03*
%TO.P,U23,8*%
%TO.N,Net-(U24C-+)*%
X164295000Y-82380000D03*
%TO.P,U23,9,-*%
%TO.N,Net-(U23C--)*%
X164295000Y-79840000D03*
%TO.P,U23,10,+*%
%TO.N,GND_M*%
X164295000Y-77300000D03*
%TO.P,U23,11,V-*%
%TO.N,-15V_M*%
X164295000Y-74760000D03*
%TO.P,U23,12,+*%
%TO.N,GND_M*%
X164295000Y-72220000D03*
%TO.P,U23,13,-*%
%TO.N,Net-(D2-K)*%
X164295000Y-69680000D03*
%TO.P,U23,14*%
%TO.N,Net-(D1-K)*%
X164295000Y-67140000D03*
%TD*%
D12*
%TO.P,R141,1*%
%TO.N,Net-(R141-Pad1)*%
X155675000Y-63330000D03*
%TO.P,R141,2*%
%TO.N,Net-(U23C--)*%
X157675000Y-63330000D03*
%TD*%
D14*
%TO.P,Z240,1*%
%TO.N,Net-(U23A-+)*%
X152865000Y-72220000D03*
%TO.P,Z240,2*%
%TO.N,GND_M*%
X150865000Y-72220000D03*
%TD*%
D13*
%TO.P,C84,1*%
%TO.N,Net-(U25-+VIN)*%
X74125000Y-82550000D03*
%TO.P,C84,2*%
%TO.N,Net-(C84-Pad2)*%
X76200000Y-82550000D03*
%TD*%
D19*
%TO.P,D4,1,K*%
%TO.N,Net-(D4-K)*%
X170155000Y-117940000D03*
%TO.P,D4,2,A*%
%TO.N,GND_M*%
X168105000Y-117940000D03*
%TD*%
D25*
%TO.P,U26,1,+VIN*%
%TO.N,Net-(U25-+VIN)*%
X65002500Y-105410000D03*
D26*
%TO.P,U26,2,-VIN*%
%TO.N,Net-(U25--VIN)*%
X65002500Y-100330000D03*
%TO.P,U26,3,CTRL*%
%TO.N,unconnected-(U26-CTRL-Pad3)*%
X65002500Y-92710000D03*
%TO.P,U26,4,-VOUT*%
%TO.N,Net-(U26--VOUT)*%
X85322500Y-92710000D03*
%TO.P,U26,5,COM*%
%TO.N,GND_P*%
X85322500Y-102870000D03*
%TO.P,U26,6,+VOUT*%
%TO.N,Net-(U26-+VOUT)*%
X85322500Y-113030000D03*
%TD*%
D16*
%TO.P,H14,1*%
%TO.N,N/C*%
X43180000Y-128270000D03*
%TD*%
D14*
%TO.P,R142,1*%
%TO.N,Net-(U23C--)*%
X170105000Y-82380000D03*
%TO.P,R142,2*%
%TO.N,Net-(U24C-+)*%
X168105000Y-82380000D03*
%TD*%
D22*
%TO.P,C92,1*%
%TO.N,GND_M*%
X170180000Y-77300000D03*
%TO.P,C92,2*%
%TO.N,-15V_M*%
X168105000Y-77300000D03*
%TD*%
D13*
%TO.P,C121,1*%
%TO.N,Net-(U25--VIN)*%
X74125000Y-87630000D03*
%TO.P,C121,2*%
%TO.N,Net-(C117-Pad2)*%
X76200000Y-87630000D03*
%TD*%
D12*
%TO.P,Z247,1*%
%TO.N,Net-(J35-Pin_1)*%
X150865000Y-82380000D03*
%TO.P,Z247,2*%
%TO.N,GND_M*%
X152865000Y-82380000D03*
%TD*%
D14*
%TO.P,Z257,1*%
%TO.N,Net-(J37-Pin_2)*%
X176725000Y-123020000D03*
%TO.P,Z257,2*%
%TO.N,GND_M*%
X174725000Y-123020000D03*
%TD*%
D23*
%TO.P,C118,1*%
%TO.N,GND_P*%
X104437388Y-105156000D03*
D24*
%TO.P,C118,2*%
%TO.N,-15V_P*%
X106937388Y-105156000D03*
%TD*%
D12*
%TO.P,Z242,1*%
%TO.N,Net-(U24D--)*%
X168105000Y-97620000D03*
%TO.P,Z242,2*%
%TO.N,Net-(Z242-Pad2)*%
X170105000Y-97620000D03*
%TD*%
D33*
%TO.N,Net-(C84-Pad2)*%
X94212500Y-72390000D03*
%TO.N,Net-(C110-Pad2)*%
X92307500Y-107950000D03*
%TO.N,Net-(C117-Pad2)*%
X92307500Y-97790000D03*
%TO.N,9V_GND_P*%
X94212500Y-62230000D03*
%TO.N,GND_M*%
X168105000Y-117940000D03*
X149309000Y-100160000D03*
X154135000Y-95080000D03*
X166835000Y-100160000D03*
X170180000Y-77300000D03*
X149309000Y-74760000D03*
X149309000Y-105240000D03*
X170661000Y-105240000D03*
X165100000Y-52070000D03*
X173185000Y-97620000D03*
X157310000Y-119210000D03*
X174725000Y-123020000D03*
X154135000Y-67140000D03*
X165100000Y-53340000D03*
X154135000Y-82380000D03*
X154135000Y-110320000D03*
X149309000Y-77300000D03*
X155405000Y-112860000D03*
X149309000Y-72220000D03*
X149309000Y-102700000D03*
X149055000Y-87460000D03*
X165100000Y-54610000D03*
%TO.N,+15V_M*%
X178900000Y-112860000D03*
%TD*%
D34*
%TO.N,Net-(J36-Pin_1)*%
X150865000Y-97620000D02*
X150865000Y-95080000D01*
X146515000Y-95080000D02*
X150865000Y-95080000D01*
%TO.N,Net-(D1-A)*%
X170105000Y-79840000D02*
X177630000Y-79840000D01*
X179535000Y-65870000D02*
X178265000Y-64600000D01*
X178265000Y-64600000D02*
X175725000Y-64600000D01*
X177630000Y-79840000D02*
X179535000Y-77935000D01*
X174725000Y-65600000D02*
X174725000Y-67140000D01*
X170155000Y-67140000D02*
X174725000Y-67140000D01*
X179535000Y-77935000D02*
X179535000Y-65870000D01*
X175725000Y-64600000D02*
X174725000Y-65600000D01*
%TO.N,Net-(D1-K)*%
X169375000Y-69680000D02*
X168105000Y-68410000D01*
X174675000Y-69680000D02*
X169375000Y-69680000D01*
X168105000Y-68410000D02*
X168105000Y-67140000D01*
X168105000Y-67140000D02*
X165096000Y-67140000D01*
%TO.N,Net-(U25-+VIN)*%
X74125000Y-111992500D02*
X67542500Y-105410000D01*
X74125000Y-118110000D02*
X74125000Y-111992500D01*
X53975000Y-81215000D02*
X53910000Y-81280000D01*
X74125000Y-82550000D02*
X74125000Y-76432500D01*
X74125000Y-76432500D02*
X67542500Y-69850000D01*
D35*
X53975000Y-78900000D02*
X53975000Y-81215000D01*
D34*
X67542500Y-105410000D02*
X65002500Y-105410000D01*
D35*
X65002500Y-69850000D02*
X62230000Y-69850000D01*
D34*
X67542500Y-69850000D02*
X65002500Y-69850000D01*
%TO.N,Net-(C84-Pad2)*%
X76200000Y-76432500D02*
X82782500Y-69850000D01*
X76200000Y-82550000D02*
X76200000Y-76432500D01*
X82782500Y-69850000D02*
X91037500Y-69850000D01*
%TO.N,Net-(U25--VIN)*%
X67542500Y-64770000D02*
X65002500Y-64770000D01*
X67542500Y-100330000D02*
X65002500Y-100330000D01*
X74125000Y-87630000D02*
X74125000Y-93747500D01*
X74125000Y-58187500D02*
X67542500Y-64770000D01*
D35*
X65002500Y-64770000D02*
X62230000Y-64770000D01*
D34*
X74125000Y-93747500D02*
X67542500Y-100330000D01*
X74125000Y-52070000D02*
X74125000Y-58187500D01*
%TO.N,Net-(C110-Pad2)*%
X91037500Y-107950000D02*
X80242500Y-107950000D01*
X80242500Y-107950000D02*
X76200000Y-111992500D01*
X76200000Y-111992500D02*
X76200000Y-118110000D01*
D36*
%TO.N,Net-(C115-Pad2)*%
X50800000Y-102870000D02*
X50546000Y-102870000D01*
D34*
%TO.N,Net-(C117-Pad2)*%
X80242500Y-97790000D02*
X76200000Y-93747500D01*
X76200000Y-93747500D02*
X76200000Y-87630000D01*
X91037500Y-97790000D02*
X80242500Y-97790000D01*
%TO.N,Net-(D2-K)*%
X175810600Y-72220000D02*
X168740000Y-72220000D01*
X161755000Y-63330000D02*
X159215000Y-60790000D01*
X161755000Y-68410000D02*
X161755000Y-63330000D01*
X168740000Y-72220000D02*
X166200000Y-69680000D01*
D37*
X164295000Y-69680000D02*
X163025000Y-69680000D01*
D34*
X166200000Y-69680000D02*
X165096000Y-69680000D01*
X176725000Y-69680000D02*
X176725000Y-67140000D01*
X163025000Y-69680000D02*
X161755000Y-68410000D01*
X159215000Y-60790000D02*
X157675000Y-60790000D01*
%TO.N,Net-(D4-K)*%
X170105000Y-120480000D02*
X170105000Y-117990000D01*
X168105000Y-123020000D02*
X168105000Y-122480000D01*
X168105000Y-122480000D02*
X170105000Y-120480000D01*
X170105000Y-117990000D02*
X170155000Y-117940000D01*
X170155000Y-120530000D02*
X170105000Y-120480000D01*
D35*
%TO.N,Net-(J33-Pin_1)*%
X146515000Y-67140000D02*
X150865000Y-67140000D01*
D34*
X150865000Y-69680000D02*
X150865000Y-67140000D01*
%TO.N,Net-(J35-Pin_1)*%
X150865000Y-82380000D02*
X150865000Y-79840000D01*
X146515000Y-79840000D02*
X150865000Y-79840000D01*
%TO.N,Net-(J34-Pin_1)*%
X176762500Y-97620000D02*
X176762500Y-95117500D01*
X176762500Y-95117500D02*
X176725000Y-95080000D01*
X176725000Y-92540000D02*
X176725000Y-95080000D01*
%TO.N,Net-(J37-Pin_1)*%
X172466000Y-121920000D02*
X172466000Y-116586000D01*
D36*
%TO.N,Net-(J39-Pin_2)*%
X50165000Y-115570000D02*
X50800000Y-115570000D01*
D38*
X48027500Y-117072500D02*
X49530000Y-115570000D01*
X48027500Y-121937500D02*
X48027500Y-117072500D01*
D37*
X49530000Y-115570000D02*
X50800000Y-115570000D01*
D38*
X49280000Y-123190000D02*
X48027500Y-121937500D01*
D37*
X50800000Y-123190000D02*
X49280000Y-123190000D01*
D38*
%TO.N,Net-(J39-Pin_1)*%
X52070000Y-113030000D02*
X54377500Y-115337500D01*
X54377500Y-115337500D02*
X54377500Y-118342500D01*
D37*
X52070000Y-120650000D02*
X50800000Y-120650000D01*
D38*
X54377500Y-118342500D02*
X52070000Y-120650000D01*
D37*
X50800000Y-113030000D02*
X52070000Y-113030000D01*
D34*
%TO.N,Net-(U23C--)*%
X170105000Y-81840000D02*
X168105000Y-79840000D01*
X164295000Y-79840000D02*
X161120000Y-79840000D01*
X159850000Y-78570000D02*
X159850000Y-64600000D01*
X161120000Y-79840000D02*
X159850000Y-78570000D01*
X159850000Y-64600000D02*
X158580000Y-63330000D01*
X168105000Y-79840000D02*
X164295000Y-79840000D01*
X158580000Y-63330000D02*
X157675000Y-63330000D01*
X170105000Y-82380000D02*
X170105000Y-81840000D01*
D37*
%TO.N,Net-(U24C-+)*%
X163025000Y-82380000D02*
X164295000Y-82380000D01*
X164295000Y-105240000D02*
X163025000Y-105240000D01*
X164295000Y-100160000D02*
X163025000Y-100160000D01*
D34*
X161755000Y-103970000D02*
X161755000Y-101430000D01*
X161755000Y-98890000D02*
X161755000Y-83650000D01*
X163025000Y-105240000D02*
X161755000Y-103970000D01*
X161755000Y-83650000D02*
X163025000Y-82380000D01*
X168105000Y-82380000D02*
X164295000Y-82380000D01*
X163025000Y-100160000D02*
X161755000Y-98890000D01*
X161755000Y-101430000D02*
X163025000Y-100160000D01*
%TO.N,Net-(U24C--)*%
X168121000Y-105240000D02*
X168121000Y-107780000D01*
X164295000Y-107780000D02*
X168121000Y-107780000D01*
D37*
%TO.N,Net-(J42-Pin_2)*%
X146515000Y-110320000D02*
X147785000Y-110320000D01*
D34*
X147785000Y-110320000D02*
X150865000Y-113400000D01*
D35*
X150865000Y-115400000D02*
X150865000Y-114670000D01*
D34*
X150865000Y-113400000D02*
X150865000Y-114670000D01*
%TO.N,Net-(J42-Pin_1)*%
X146515000Y-107780000D02*
X150865000Y-107780000D01*
X150865000Y-110320000D02*
X150865000Y-107780000D01*
D37*
%TO.N,/Pegel_Post*%
X156675000Y-110320000D02*
X156675000Y-107780000D01*
%TO.N,/Pegel_Mic_Effekt*%
X156675000Y-82380000D02*
X156675000Y-79840000D01*
%TO.N,/Pegel_Pre*%
X156675000Y-69680000D02*
X156675000Y-67140000D01*
%TO.N,/Pegel_Aux_Return*%
X156675000Y-97620000D02*
X156675000Y-95080000D01*
D38*
%TO.N,Net-(U25-+VOUT)*%
X91062500Y-77470000D02*
X85322500Y-77470000D01*
%TO.N,Net-(U25--VOUT)*%
X91062500Y-57150000D02*
X85322500Y-57150000D01*
%TO.N,Net-(U26-+VOUT)*%
X91062500Y-113030000D02*
X85322500Y-113030000D01*
D34*
%TO.N,Net-(U24B-+)*%
X152865000Y-107780000D02*
X152865000Y-105240000D01*
X152865000Y-105240000D02*
X156675000Y-105240000D01*
%TO.N,Net-(U23B-+)*%
X156675000Y-77300000D02*
X152865000Y-77300000D01*
X152865000Y-79840000D02*
X152865000Y-77300000D01*
%TO.N,Net-(U24A-+)*%
X152865000Y-100160000D02*
X152865000Y-97620000D01*
X152865000Y-100160000D02*
X156675000Y-100160000D01*
%TO.N,Net-(U23A-+)*%
X152865000Y-72220000D02*
X152865000Y-69680000D01*
X152865000Y-72220000D02*
X156675000Y-72220000D01*
D37*
%TO.N,Net-(U24D--)*%
X164295000Y-97620000D02*
X164295000Y-95080000D01*
D34*
X168105000Y-97620000D02*
X164295000Y-97620000D01*
%TO.N,Net-(U24-Pad8)*%
X168105000Y-110320000D02*
X164295000Y-110320000D01*
D38*
%TO.N,Net-(U26--VOUT)*%
X91062500Y-92710000D02*
X85322500Y-92710000D01*
D34*
%TO.N,Net-(R143-Pad1)*%
X174762500Y-92540000D02*
X169375000Y-92540000D01*
X168105000Y-93810000D02*
X169375000Y-92540000D01*
D37*
X168105000Y-95080000D02*
X168105000Y-93810000D01*
D34*
%TO.N,Net-(R148-Pad2)*%
X168105000Y-120480000D02*
X164295000Y-120480000D01*
D35*
%TO.N,9V_GND_P*%
X114492500Y-67969888D02*
X114492500Y-67270000D01*
D34*
X76200000Y-52070000D02*
X76200000Y-58187500D01*
X82782500Y-64770000D02*
X91037500Y-64770000D01*
X76200000Y-58187500D02*
X82782500Y-64770000D01*
D35*
X114532500Y-92115000D02*
X114532500Y-110490000D01*
D34*
X114492500Y-92075000D02*
X114532500Y-92115000D01*
D35*
X114492500Y-67270000D02*
X113262500Y-66040000D01*
X114492500Y-92075000D02*
X114492500Y-67969888D01*
%TO.N,GND_P*%
X104397388Y-116229888D02*
X104397388Y-118367388D01*
X107950000Y-121920000D02*
X113030000Y-121920000D01*
D38*
X85322500Y-102870000D02*
X91037500Y-102870000D01*
D35*
X104397388Y-106020112D02*
X104437388Y-105980112D01*
X104397388Y-114935000D02*
X104397388Y-106020112D01*
X104397388Y-118367388D02*
X107950000Y-121920000D01*
X104397388Y-114935000D02*
X104397388Y-116229888D01*
D38*
%TO.N,GND_M*%
X150865000Y-72220000D02*
X149309000Y-72220000D01*
D34*
X150865000Y-74835000D02*
X150790000Y-74760000D01*
D38*
X172550000Y-97620000D02*
X173185000Y-97620000D01*
D35*
X147515000Y-102700000D02*
X149055000Y-102700000D01*
D34*
X150790000Y-100235000D02*
X150865000Y-100160000D01*
D38*
X152865000Y-67140000D02*
X154135000Y-67140000D01*
X150865000Y-105240000D02*
X149309000Y-105240000D01*
X152865000Y-82380000D02*
X154135000Y-82380000D01*
D34*
X150790000Y-105165000D02*
X150865000Y-105240000D01*
D38*
X172550000Y-101430000D02*
X172550000Y-97620000D01*
X150865000Y-77300000D02*
X149309000Y-77300000D01*
D35*
X150790000Y-102700000D02*
X149055000Y-102700000D01*
D38*
X152865000Y-110320000D02*
X154135000Y-110320000D01*
X170661000Y-105240000D02*
X170121000Y-105240000D01*
X152865000Y-95080000D02*
X154135000Y-95080000D01*
X170180000Y-102700000D02*
X171280000Y-102700000D01*
X147515000Y-87460000D02*
X149055000Y-87460000D01*
X171280000Y-102700000D02*
X172550000Y-101430000D01*
X150865000Y-100160000D02*
X149309000Y-100160000D01*
X150790000Y-74760000D02*
X147515000Y-74760000D01*
X168105000Y-100160000D02*
X166835000Y-100160000D01*
D34*
X174725000Y-97582500D02*
X174687500Y-97620000D01*
D38*
%TO.N,+15V_M*%
X171915000Y-111590000D02*
X171915000Y-109050000D01*
X171915000Y-109050000D02*
X170645000Y-107780000D01*
D34*
X170121000Y-107780000D02*
X170645000Y-107780000D01*
D38*
X152865000Y-102700000D02*
X156675000Y-102700000D01*
X152865000Y-74760000D02*
X156675000Y-74760000D01*
X173185000Y-112860000D02*
X171915000Y-111590000D01*
X178900000Y-112860000D02*
X173185000Y-112860000D01*
%TO.N,-15V_M*%
X168105000Y-102700000D02*
X164295000Y-102700000D01*
X166835000Y-74760000D02*
X164295000Y-74760000D01*
X168105000Y-77300000D02*
X168105000Y-76030000D01*
X168105000Y-76030000D02*
X166835000Y-74760000D01*
D35*
%TO.N,+15V_P*%
X105410000Y-125730000D02*
X111992500Y-125730000D01*
X101897388Y-122217388D02*
X105410000Y-125730000D01*
D34*
X101897388Y-110554888D02*
X101832500Y-110490000D01*
D35*
X101897388Y-114935000D02*
X101897388Y-110554888D01*
X111992500Y-125730000D02*
X114532500Y-125730000D01*
X101897388Y-114935000D02*
X101897388Y-122217388D01*
%TO.N,-15V_P*%
X106937388Y-103505000D02*
X106937388Y-97814888D01*
X106937388Y-103505000D02*
X106937388Y-115827388D01*
X104372500Y-95250000D02*
X106937388Y-97814888D01*
X111992500Y-118110000D02*
X114532500Y-118110000D01*
X101832500Y-95250000D02*
X104372500Y-95250000D01*
X109220000Y-118110000D02*
X111992500Y-118110000D01*
X106937388Y-115827388D02*
X109220000Y-118110000D01*
%TO.N,+9V_P*%
X109452500Y-108987500D02*
X109452500Y-114532500D01*
X111992500Y-115570000D02*
X114532500Y-115570000D01*
X111992500Y-74930000D02*
X111992500Y-106447500D01*
X110490000Y-115570000D02*
X111992500Y-115570000D01*
X101832500Y-72390000D02*
X109452500Y-72390000D01*
X111992500Y-106447500D02*
X109452500Y-108987500D01*
X109452500Y-72390000D02*
X111992500Y-74930000D01*
X109452500Y-114532500D02*
X110490000Y-115570000D01*
D36*
%TO.N,Net-(C115-Pad1)*%
X50800000Y-107950000D02*
X51054000Y-107950000D01*
D34*
%TO.N,Net-(Z242-Pad2)*%
X170105000Y-100160000D02*
X170105000Y-97620000D01*
X170105000Y-97620000D02*
X170105000Y-95080000D01*
%TO.N,Net-(Z250-Pad2)*%
X162295000Y-119940000D02*
X164295000Y-117940000D01*
X168105000Y-115400000D02*
X165565000Y-115400000D01*
X164295000Y-116670000D02*
X164295000Y-117940000D01*
X162295000Y-120480000D02*
X162295000Y-119940000D01*
X170105000Y-110320000D02*
X170105000Y-113400000D01*
X165565000Y-115400000D02*
X164295000Y-116670000D01*
X170105000Y-113400000D02*
X168105000Y-115400000D01*
%TD*%
%TA.AperFunction,Conductor*%
%TO.N,Net-(U25-+VIN)*%
G36*
X63016753Y-67949805D02*
G01*
X63381909Y-68054529D01*
X63907243Y-68205193D01*
X63938778Y-68219236D01*
X64008001Y-68262501D01*
X64008000Y-68262501D01*
X64064809Y-68298007D01*
X64107545Y-68343047D01*
X64500456Y-69051954D01*
X64516000Y-69112065D01*
X64516000Y-70587934D01*
X64500456Y-70648045D01*
X64107545Y-71356952D01*
X64097070Y-71367991D01*
X64091773Y-71379216D01*
X64064811Y-71401992D01*
X64020667Y-71429582D01*
X64008000Y-71437500D01*
X63943740Y-71477661D01*
X63938778Y-71480763D01*
X63907244Y-71494805D01*
X63016754Y-71750195D01*
X62982569Y-71755000D01*
X56515000Y-71755000D01*
X56515000Y-80982638D01*
X56495315Y-81049677D01*
X56478681Y-81070319D01*
X56051319Y-81497681D01*
X55989996Y-81531166D01*
X55963638Y-81534000D01*
X51986362Y-81534000D01*
X51919323Y-81514315D01*
X51898681Y-81497681D01*
X51471319Y-81070319D01*
X51437834Y-81008996D01*
X51435000Y-80982638D01*
X51435000Y-71009665D01*
X51444439Y-70962212D01*
X51574571Y-70648045D01*
X51779115Y-70154230D01*
X51805991Y-70114008D01*
X53604008Y-68315991D01*
X53644230Y-68289115D01*
X54452212Y-67954438D01*
X54499665Y-67945000D01*
X62982569Y-67945000D01*
X63016753Y-67949805D01*
G37*
%TD.AperFunction*%
%TD*%
%TA.AperFunction,Conductor*%
%TO.N,Net-(J37-Pin_1)*%
G36*
X172630801Y-121551512D02*
G01*
X172633986Y-121554586D01*
X172818481Y-121739081D01*
X172851966Y-121800404D01*
X172854800Y-121826762D01*
X172854800Y-122976638D01*
X172835115Y-123043677D01*
X172818481Y-123064319D01*
X172391119Y-123491681D01*
X172329796Y-123525166D01*
X172303438Y-123528000D01*
X170561362Y-123528000D01*
X170494323Y-123508315D01*
X170473681Y-123491681D01*
X170089681Y-123107681D01*
X170056196Y-123046358D01*
X170061180Y-122976666D01*
X170089681Y-122932319D01*
X170473681Y-122548319D01*
X170535004Y-122514834D01*
X170561362Y-122512000D01*
X171280000Y-122512000D01*
X172080995Y-121711004D01*
X172121217Y-121684128D01*
X172498856Y-121527705D01*
X172568321Y-121520237D01*
X172630801Y-121551512D01*
G37*
%TD.AperFunction*%
%TD*%
%TA.AperFunction,Conductor*%
%TO.N,GND_M*%
G36*
X162232677Y-117451685D02*
G01*
X162253319Y-117468319D01*
X162480681Y-117695681D01*
X162514166Y-117757004D01*
X162517000Y-117783362D01*
X162517000Y-118096638D01*
X162497315Y-118163677D01*
X162480681Y-118184319D01*
X162253319Y-118411681D01*
X162191996Y-118445166D01*
X162165638Y-118448000D01*
X161500999Y-118448000D01*
X161288868Y-118660132D01*
X160206573Y-119742426D01*
X160166345Y-119769306D01*
X159699788Y-119962561D01*
X159652335Y-119972000D01*
X156899362Y-119972000D01*
X156832323Y-119952315D01*
X156811681Y-119935681D01*
X156584319Y-119708319D01*
X156550834Y-119646996D01*
X156548000Y-119620638D01*
X156548000Y-118291362D01*
X156567685Y-118224323D01*
X156584319Y-118203681D01*
X156811681Y-117976319D01*
X156873004Y-117942834D01*
X156899362Y-117940000D01*
X159977000Y-117940000D01*
X160255429Y-117661570D01*
X160295651Y-117634694D01*
X160762212Y-117441438D01*
X160809665Y-117432000D01*
X162165638Y-117432000D01*
X162232677Y-117451685D01*
G37*
%TD.AperFunction*%
%TD*%
%TA.AperFunction,Conductor*%
%TO.N,Net-(J37-Pin_2)*%
G36*
X176456677Y-117959685D02*
G01*
X176477319Y-117976319D01*
X176704681Y-118203681D01*
X176738166Y-118265004D01*
X176741000Y-118291362D01*
X176741000Y-119464000D01*
X177019426Y-119742426D01*
X177046306Y-119782654D01*
X177239561Y-120249212D01*
X177249000Y-120296665D01*
X177249000Y-122668638D01*
X177229315Y-122735677D01*
X177212681Y-122756319D01*
X176985319Y-122983681D01*
X176923996Y-123017166D01*
X176897638Y-123020000D01*
X176584362Y-123020000D01*
X176517323Y-123000315D01*
X176496681Y-122983681D01*
X176269319Y-122756319D01*
X176235834Y-122694996D01*
X176233000Y-122668638D01*
X176233000Y-120988000D01*
X174938573Y-119693573D01*
X174911693Y-119653345D01*
X174718439Y-119186787D01*
X174709000Y-119139334D01*
X174709000Y-118291362D01*
X174728685Y-118224323D01*
X174745319Y-118203681D01*
X174972681Y-117976319D01*
X175034004Y-117942834D01*
X175060362Y-117940000D01*
X176389638Y-117940000D01*
X176456677Y-117959685D01*
G37*
%TD.AperFunction*%
%TD*%
%TA.AperFunction,Conductor*%
%TO.N,9V_GND_P*%
G36*
X103895575Y-55889713D02*
G01*
X104698893Y-56227881D01*
X104739460Y-56255495D01*
X104861136Y-56380000D01*
X113170272Y-64882372D01*
X114928052Y-66681030D01*
X114954201Y-66720904D01*
X115282228Y-67525885D01*
X115285332Y-67533501D01*
X115294500Y-67580295D01*
X115294500Y-68028638D01*
X115274815Y-68095677D01*
X115258181Y-68116319D01*
X114830819Y-68543681D01*
X114769496Y-68577166D01*
X114743138Y-68580000D01*
X114041165Y-68580000D01*
X113993712Y-68570561D01*
X113185733Y-68235885D01*
X113145505Y-68209005D01*
X112500500Y-67564000D01*
X112500501Y-67564000D01*
X109389000Y-67525885D01*
X106797466Y-67494140D01*
X106758545Y-67487369D01*
X105899026Y-67190844D01*
X105864210Y-67172176D01*
X105277888Y-66724452D01*
X104880500Y-66421000D01*
X104380500Y-66421000D01*
X94128862Y-66421000D01*
X94061823Y-66401315D01*
X94041181Y-66384681D01*
X93613819Y-65957319D01*
X93580334Y-65895996D01*
X93577500Y-65869638D01*
X93577500Y-65405000D01*
X93077500Y-65405000D01*
X90318862Y-65405000D01*
X90251823Y-65385315D01*
X90231181Y-65368681D01*
X89803819Y-64941319D01*
X89789115Y-64914391D01*
X89772523Y-64888573D01*
X89771631Y-64882372D01*
X89770334Y-64879996D01*
X89767500Y-64853638D01*
X89767500Y-64675029D01*
X89787185Y-64607990D01*
X89790894Y-64602541D01*
X90218437Y-64009358D01*
X90273603Y-63966484D01*
X90279794Y-63964235D01*
X93103158Y-63023114D01*
X93577500Y-62865000D01*
X93577500Y-56431362D01*
X93597185Y-56364323D01*
X93613819Y-56343681D01*
X94041181Y-55916319D01*
X94102504Y-55882834D01*
X94128862Y-55880000D01*
X103847466Y-55880000D01*
X103895575Y-55889713D01*
G37*
%TD.AperFunction*%
%TD*%
%TA.AperFunction,Conductor*%
%TO.N,Net-(J33-Pin_2)*%
G36*
X147246677Y-69445685D02*
G01*
X147267319Y-69462319D01*
X147494681Y-69689681D01*
X147528166Y-69751004D01*
X147531000Y-69777362D01*
X147531000Y-70625334D01*
X147521561Y-70672787D01*
X147328306Y-71139345D01*
X147301426Y-71179573D01*
X146007000Y-72473999D01*
X146007000Y-74154638D01*
X145987315Y-74221677D01*
X145970681Y-74242319D01*
X145743319Y-74469681D01*
X145681996Y-74503166D01*
X145655638Y-74506000D01*
X145342362Y-74506000D01*
X145275323Y-74486315D01*
X145254681Y-74469681D01*
X145027319Y-74242319D01*
X144993834Y-74180996D01*
X144991000Y-74154638D01*
X144991000Y-71782665D01*
X145000439Y-71735212D01*
X145193694Y-71268651D01*
X145220568Y-71228431D01*
X145286868Y-71162132D01*
X145499000Y-70950000D01*
X145499000Y-69777362D01*
X145518685Y-69710323D01*
X145535319Y-69689681D01*
X145762681Y-69462319D01*
X145824004Y-69428834D01*
X145850362Y-69426000D01*
X147179638Y-69426000D01*
X147246677Y-69445685D01*
G37*
%TD.AperFunction*%
%TD*%
%TA.AperFunction,Conductor*%
%TO.N,Net-(R141-Pad1)*%
G36*
X155882677Y-60301685D02*
G01*
X155903319Y-60318319D01*
X156130681Y-60545681D01*
X156164166Y-60607004D01*
X156167000Y-60633362D01*
X156167000Y-63486638D01*
X156147315Y-63553677D01*
X156130681Y-63574319D01*
X155903319Y-63801681D01*
X155841996Y-63835166D01*
X155815638Y-63838000D01*
X150395665Y-63838000D01*
X150348212Y-63828561D01*
X149881654Y-63635306D01*
X149841426Y-63608426D01*
X148801000Y-62568000D01*
X148501000Y-62568000D01*
X147374362Y-62568000D01*
X147307323Y-62548315D01*
X147286681Y-62531681D01*
X147059319Y-62304319D01*
X147025834Y-62242996D01*
X147023000Y-62216638D01*
X147023000Y-61649362D01*
X147042685Y-61582323D01*
X147059319Y-61561681D01*
X147286681Y-61334319D01*
X147348004Y-61300834D01*
X147374362Y-61298000D01*
X148801000Y-61298000D01*
X149587429Y-60511570D01*
X149627651Y-60484694D01*
X150094212Y-60291438D01*
X150141665Y-60282000D01*
X155815638Y-60282000D01*
X155882677Y-60301685D01*
G37*
%TD.AperFunction*%
%TD*%
%TA.AperFunction,Conductor*%
%TO.N,GND_P*%
G36*
X114683177Y-120034685D02*
G01*
X114703819Y-120051319D01*
X115131181Y-120478681D01*
X115164666Y-120540004D01*
X115167500Y-120566362D01*
X115167500Y-123273638D01*
X115147815Y-123340677D01*
X115131181Y-123361319D01*
X114703819Y-123788681D01*
X114642496Y-123822166D01*
X114616138Y-123825000D01*
X111908862Y-123825000D01*
X111841823Y-123805315D01*
X111821181Y-123788681D01*
X111393819Y-123361319D01*
X111360334Y-123299996D01*
X111357500Y-123273638D01*
X111357500Y-120566362D01*
X111377185Y-120499323D01*
X111393819Y-120478681D01*
X111821181Y-120051319D01*
X111882504Y-120017834D01*
X111908862Y-120015000D01*
X114616138Y-120015000D01*
X114683177Y-120034685D01*
G37*
%TD.AperFunction*%
%TD*%
%TA.AperFunction,Conductor*%
%TO.N,Net-(C115-Pad2)*%
G36*
X49680677Y-87395685D02*
G01*
X49701319Y-87412319D01*
X50128681Y-87839681D01*
X50162166Y-87901004D01*
X50165000Y-87927362D01*
X50165000Y-97873638D01*
X50145315Y-97940677D01*
X50128681Y-97961319D01*
X49701319Y-98388681D01*
X49639996Y-98422166D01*
X49613638Y-98425000D01*
X48895000Y-98425000D01*
X48895000Y-101600000D01*
X49305554Y-101600000D01*
X49348888Y-101607819D01*
X49392508Y-101624088D01*
X49392511Y-101624088D01*
X49392517Y-101624091D01*
X49452127Y-101630500D01*
X51549137Y-101630499D01*
X51616176Y-101650184D01*
X51636818Y-101666818D01*
X52033681Y-102063681D01*
X52067166Y-102125004D01*
X52070000Y-102151362D01*
X52070000Y-103588637D01*
X52050315Y-103655676D01*
X52033681Y-103676318D01*
X51618082Y-104091916D01*
X51556759Y-104125401D01*
X51511003Y-104126708D01*
X51402357Y-104109500D01*
X51402352Y-104109500D01*
X50197648Y-104109500D01*
X50097255Y-104125401D01*
X50014723Y-104138473D01*
X49995325Y-104140000D01*
X45636362Y-104140000D01*
X45569323Y-104120315D01*
X45548681Y-104103681D01*
X45121319Y-103676319D01*
X45087834Y-103614996D01*
X45085000Y-103588638D01*
X45085000Y-93345000D01*
X45084999Y-93344999D01*
X42862500Y-92075000D01*
X41103099Y-91069627D01*
X41057371Y-91024204D01*
X40656751Y-90333864D01*
X40640000Y-90271625D01*
X40640000Y-87927362D01*
X40659685Y-87860323D01*
X40676319Y-87839681D01*
X41103681Y-87412319D01*
X41165004Y-87378834D01*
X41191362Y-87376000D01*
X49613638Y-87376000D01*
X49680677Y-87395685D01*
G37*
%TD.AperFunction*%
%TD*%
%TA.AperFunction,Conductor*%
%TO.N,Net-(C84-Pad2)*%
G36*
X99570177Y-67964685D02*
G01*
X99590819Y-67981319D01*
X100018181Y-68408681D01*
X100051666Y-68470004D01*
X100054500Y-68496362D01*
X100054500Y-78188638D01*
X100034815Y-78255677D01*
X100018181Y-78276319D01*
X99590819Y-78703681D01*
X99529496Y-78737166D01*
X99503138Y-78740000D01*
X94128862Y-78740000D01*
X94061823Y-78720315D01*
X94041181Y-78703681D01*
X93613819Y-78276319D01*
X93580334Y-78214996D01*
X93577500Y-78188638D01*
X93577500Y-71755000D01*
X90279817Y-70655772D01*
X90222442Y-70615898D01*
X90218435Y-70610639D01*
X89790906Y-70017474D01*
X89783905Y-69997617D01*
X89772523Y-69979905D01*
X89768983Y-69955287D01*
X89767676Y-69951579D01*
X89767500Y-69944970D01*
X89767500Y-69766362D01*
X89787185Y-69699323D01*
X89803819Y-69678681D01*
X90231181Y-69251319D01*
X90292504Y-69217834D01*
X90318862Y-69215000D01*
X93577500Y-69215000D01*
X93577500Y-68496362D01*
X93597185Y-68429323D01*
X93613819Y-68408681D01*
X94041181Y-67981319D01*
X94102504Y-67947834D01*
X94128862Y-67945000D01*
X99503138Y-67945000D01*
X99570177Y-67964685D01*
G37*
%TD.AperFunction*%
%TD*%
%TA.AperFunction,Conductor*%
%TO.N,9V_GND_P*%
G36*
X114683177Y-109874685D02*
G01*
X114703819Y-109891319D01*
X115131181Y-110318681D01*
X115164666Y-110380004D01*
X115167500Y-110406362D01*
X115167500Y-113113638D01*
X115147815Y-113180677D01*
X115131181Y-113201319D01*
X114703819Y-113628681D01*
X114642496Y-113662166D01*
X114616138Y-113665000D01*
X111908862Y-113665000D01*
X111841823Y-113645315D01*
X111821181Y-113628681D01*
X111393819Y-113201319D01*
X111360334Y-113139996D01*
X111357500Y-113113638D01*
X111357500Y-110406362D01*
X111377185Y-110339323D01*
X111393819Y-110318681D01*
X111821181Y-109891319D01*
X111882504Y-109857834D01*
X111908862Y-109855000D01*
X114616138Y-109855000D01*
X114683177Y-109874685D01*
G37*
%TD.AperFunction*%
%TD*%
%TA.AperFunction,Conductor*%
%TO.N,Net-(D2-K)*%
G36*
X176768334Y-69731180D02*
G01*
X176812681Y-69759681D01*
X177196681Y-70143681D01*
X177230166Y-70205004D01*
X177233000Y-70231362D01*
X177233000Y-71973438D01*
X177213315Y-72040477D01*
X177196681Y-72061119D01*
X176769319Y-72488481D01*
X176707996Y-72521966D01*
X176681638Y-72524800D01*
X175531762Y-72524800D01*
X175464723Y-72505115D01*
X175444081Y-72488481D01*
X175259586Y-72303986D01*
X175226101Y-72242663D01*
X175231085Y-72172971D01*
X175232682Y-72168912D01*
X175389128Y-71791217D01*
X175416004Y-71750995D01*
X175863447Y-71303553D01*
X176217000Y-70950000D01*
X176217000Y-70231362D01*
X176236685Y-70164323D01*
X176253319Y-70143681D01*
X176637319Y-69759681D01*
X176698642Y-69726196D01*
X176768334Y-69731180D01*
G37*
%TD.AperFunction*%
%TD*%
%TA.AperFunction,Conductor*%
%TO.N,GND_M*%
G36*
X174932677Y-94591685D02*
G01*
X174953319Y-94608319D01*
X175180681Y-94835681D01*
X175214166Y-94897004D01*
X175217000Y-94923362D01*
X175217000Y-97776638D01*
X175197315Y-97843677D01*
X175180681Y-97864319D01*
X174953319Y-98091681D01*
X174891996Y-98125166D01*
X174865638Y-98128000D01*
X172520362Y-98128000D01*
X172453323Y-98108315D01*
X172432681Y-98091681D01*
X172205319Y-97864319D01*
X172171834Y-97802996D01*
X172169000Y-97776638D01*
X172169000Y-96928665D01*
X172178439Y-96881212D01*
X172188054Y-96858000D01*
X172371694Y-96414651D01*
X172398570Y-96374429D01*
X173480868Y-95292132D01*
X173905132Y-94867868D01*
X173971431Y-94801568D01*
X174011651Y-94774694D01*
X174478212Y-94581438D01*
X174525665Y-94572000D01*
X174865638Y-94572000D01*
X174932677Y-94591685D01*
G37*
%TD.AperFunction*%
%TD*%
%TA.AperFunction,Conductor*%
%TO.N,Net-(J36-Pin_2)*%
G36*
X147246677Y-97639685D02*
G01*
X147267319Y-97656319D01*
X147494681Y-97883681D01*
X147528166Y-97945004D01*
X147531000Y-97971362D01*
X147531000Y-98819334D01*
X147521561Y-98866787D01*
X147328306Y-99333345D01*
X147301426Y-99373573D01*
X146007000Y-100667999D01*
X146007000Y-102348638D01*
X145987315Y-102415677D01*
X145970681Y-102436319D01*
X145743319Y-102663681D01*
X145681996Y-102697166D01*
X145655638Y-102700000D01*
X145342362Y-102700000D01*
X145275323Y-102680315D01*
X145254681Y-102663681D01*
X145027319Y-102436319D01*
X144993834Y-102374996D01*
X144991000Y-102348638D01*
X144991000Y-99976665D01*
X145000439Y-99929212D01*
X145193694Y-99462651D01*
X145220568Y-99422431D01*
X145286868Y-99356132D01*
X145499000Y-99144000D01*
X145499000Y-97971362D01*
X145518685Y-97904323D01*
X145535319Y-97883681D01*
X145762681Y-97656319D01*
X145824004Y-97622834D01*
X145850362Y-97620000D01*
X147179638Y-97620000D01*
X147246677Y-97639685D01*
G37*
%TD.AperFunction*%
%TD*%
%TA.AperFunction,Conductor*%
%TO.N,Net-(C117-Pad2)*%
G36*
X99570177Y-92094685D02*
G01*
X99590819Y-92111319D01*
X100018181Y-92538681D01*
X100051666Y-92600004D01*
X100054500Y-92626362D01*
X100054500Y-97873638D01*
X100034815Y-97940677D01*
X100018181Y-97961319D01*
X99590819Y-98388681D01*
X99529496Y-98422166D01*
X99503138Y-98425000D01*
X93577500Y-98425000D01*
X90318862Y-98425000D01*
X90251823Y-98405315D01*
X90231181Y-98388681D01*
X89803819Y-97961319D01*
X89789115Y-97934391D01*
X89772523Y-97908573D01*
X89771631Y-97902372D01*
X89770334Y-97899996D01*
X89767500Y-97873638D01*
X89767500Y-97695029D01*
X89787185Y-97627990D01*
X89790894Y-97622541D01*
X90218437Y-97029358D01*
X90273603Y-96986484D01*
X90279794Y-96984235D01*
X93103158Y-96043114D01*
X93577500Y-95885000D01*
X93577500Y-92626362D01*
X93597185Y-92559323D01*
X93613819Y-92538681D01*
X94041181Y-92111319D01*
X94102504Y-92077834D01*
X94128862Y-92075000D01*
X99503138Y-92075000D01*
X99570177Y-92094685D01*
G37*
%TD.AperFunction*%
%TD*%
%TA.AperFunction,Conductor*%
%TO.N,Net-(J37-Pin_1)*%
G36*
X174605677Y-114911685D02*
G01*
X174626319Y-114928319D01*
X175010319Y-115312319D01*
X175043804Y-115373642D01*
X175038820Y-115443334D01*
X175010319Y-115487681D01*
X174626319Y-115871681D01*
X174564996Y-115905166D01*
X174538638Y-115908000D01*
X173819999Y-115908000D01*
X173466447Y-116261553D01*
X173108809Y-116619190D01*
X173068581Y-116646070D01*
X172474147Y-116892293D01*
X172404677Y-116899762D01*
X172342198Y-116868487D01*
X172339013Y-116865413D01*
X172027519Y-116553919D01*
X171994034Y-116492596D01*
X171991200Y-116466238D01*
X171991200Y-115443362D01*
X172010885Y-115376323D01*
X172027519Y-115355681D01*
X172454881Y-114928319D01*
X172516204Y-114894834D01*
X172542562Y-114892000D01*
X174538638Y-114892000D01*
X174605677Y-114911685D01*
G37*
%TD.AperFunction*%
%TD*%
%TA.AperFunction,Conductor*%
%TO.N,Net-(U25--VIN)*%
G36*
X63025904Y-62750755D02*
G01*
X63778951Y-63121557D01*
X63822459Y-63157198D01*
X64525194Y-64070752D01*
X64544304Y-64106427D01*
X64756419Y-64730071D01*
X64759370Y-64799879D01*
X64756419Y-64809929D01*
X64544304Y-65433572D01*
X64525194Y-65469247D01*
X63822459Y-66382801D01*
X63778951Y-66418442D01*
X63025904Y-66789245D01*
X62971127Y-66802000D01*
X53593999Y-66802000D01*
X50546000Y-69849999D01*
X50546000Y-80982638D01*
X50526315Y-81049677D01*
X50509681Y-81070319D01*
X50082319Y-81497681D01*
X50020996Y-81531166D01*
X49994638Y-81534000D01*
X44339665Y-81534000D01*
X44292212Y-81524561D01*
X43484233Y-81189885D01*
X43444005Y-81163005D01*
X42545000Y-80264000D01*
X42045000Y-80264000D01*
X41191362Y-80264000D01*
X41124323Y-80244315D01*
X41103681Y-80227681D01*
X40676319Y-79800319D01*
X40642834Y-79738996D01*
X40640000Y-79712638D01*
X40640000Y-77372202D01*
X40659685Y-77305163D01*
X40660480Y-77303941D01*
X41079093Y-76669098D01*
X41132431Y-76623967D01*
X41133705Y-76623411D01*
X44625427Y-75126960D01*
X44625427Y-75126959D01*
X44659481Y-75112365D01*
X44659526Y-75112344D01*
X45085000Y-74930000D01*
X45085000Y-68088665D01*
X45094439Y-68041212D01*
X45429115Y-67233230D01*
X45455991Y-67193008D01*
X49540008Y-63108991D01*
X49580230Y-63082115D01*
X50388212Y-62747438D01*
X50435665Y-62738000D01*
X62971127Y-62738000D01*
X63025904Y-62750755D01*
G37*
%TD.AperFunction*%
%TD*%
%TA.AperFunction,Conductor*%
%TO.N,Net-(J35-Pin_2)*%
G36*
X147246677Y-82145685D02*
G01*
X147267319Y-82162319D01*
X147494681Y-82389681D01*
X147528166Y-82451004D01*
X147531000Y-82477362D01*
X147531000Y-83325334D01*
X147521561Y-83372787D01*
X147328306Y-83839345D01*
X147301426Y-83879573D01*
X146007000Y-85173999D01*
X146007000Y-86854638D01*
X145987315Y-86921677D01*
X145970681Y-86942319D01*
X145743319Y-87169681D01*
X145681996Y-87203166D01*
X145655638Y-87206000D01*
X145342362Y-87206000D01*
X145275323Y-87186315D01*
X145254681Y-87169681D01*
X145027319Y-86942319D01*
X144993834Y-86880996D01*
X144991000Y-86854638D01*
X144991000Y-84482665D01*
X145000439Y-84435212D01*
X145193694Y-83968651D01*
X145220568Y-83928431D01*
X145286868Y-83862132D01*
X145499000Y-83650000D01*
X145499000Y-82477362D01*
X145518685Y-82410323D01*
X145535319Y-82389681D01*
X145762681Y-82162319D01*
X145824004Y-82128834D01*
X145850362Y-82126000D01*
X147179638Y-82126000D01*
X147246677Y-82145685D01*
G37*
%TD.AperFunction*%
%TD*%
%TA.AperFunction,Conductor*%
%TO.N,GND_M*%
G36*
X169695677Y-50819685D02*
G01*
X169716319Y-50836319D01*
X170143681Y-51263681D01*
X170177166Y-51325004D01*
X170180000Y-51351362D01*
X170180000Y-55328638D01*
X170160315Y-55395677D01*
X170143681Y-55416319D01*
X169716319Y-55843681D01*
X169654996Y-55877166D01*
X169628638Y-55880000D01*
X163746362Y-55880000D01*
X163679323Y-55860315D01*
X163658681Y-55843681D01*
X163231319Y-55416319D01*
X163197834Y-55354996D01*
X163195000Y-55328638D01*
X163195000Y-51351362D01*
X163214685Y-51284323D01*
X163231319Y-51263681D01*
X163658681Y-50836319D01*
X163720004Y-50802834D01*
X163746362Y-50800000D01*
X169628638Y-50800000D01*
X169695677Y-50819685D01*
G37*
%TD.AperFunction*%
%TD*%
%TA.AperFunction,Conductor*%
%TO.N,Net-(C110-Pad2)*%
G36*
X99570177Y-107334685D02*
G01*
X99590819Y-107351319D01*
X100018181Y-107778681D01*
X100051666Y-107840004D01*
X100054500Y-107866362D01*
X100054500Y-113113638D01*
X100034815Y-113180677D01*
X100018181Y-113201319D01*
X99590819Y-113628681D01*
X99529496Y-113662166D01*
X99503138Y-113665000D01*
X94128862Y-113665000D01*
X94061823Y-113645315D01*
X94041181Y-113628681D01*
X93613819Y-113201319D01*
X93580334Y-113139996D01*
X93577500Y-113113638D01*
X93577500Y-109855000D01*
X90279817Y-108755772D01*
X90222442Y-108715898D01*
X90218435Y-108710639D01*
X89790906Y-108117474D01*
X89783905Y-108097617D01*
X89772523Y-108079905D01*
X89768983Y-108055287D01*
X89767676Y-108051579D01*
X89767500Y-108044970D01*
X89767500Y-107866362D01*
X89787185Y-107799323D01*
X89803819Y-107778681D01*
X90231181Y-107351319D01*
X90292504Y-107317834D01*
X90318862Y-107315000D01*
X99503138Y-107315000D01*
X99570177Y-107334685D01*
G37*
%TD.AperFunction*%
%TD*%
%TA.AperFunction,Conductor*%
%TO.N,GND_M*%
G36*
X156136677Y-112117685D02*
G01*
X156157319Y-112134319D01*
X156384681Y-112361681D01*
X156418166Y-112423004D01*
X156421000Y-112449362D01*
X156421000Y-114413638D01*
X156401315Y-114480677D01*
X156384681Y-114501319D01*
X156157319Y-114728681D01*
X156095996Y-114762166D01*
X156069638Y-114765000D01*
X154896998Y-114765000D01*
X154775157Y-115039142D01*
X154775158Y-115039143D01*
X154707222Y-115192000D01*
X154525767Y-115600272D01*
X154480551Y-115653539D01*
X154480023Y-115653884D01*
X154119817Y-115887973D01*
X154052879Y-115907998D01*
X154052248Y-115908000D01*
X152708362Y-115908000D01*
X152641323Y-115888315D01*
X152620681Y-115871681D01*
X152393319Y-115644319D01*
X152359834Y-115582996D01*
X152357000Y-115556638D01*
X152357000Y-115243362D01*
X152376685Y-115176323D01*
X152393319Y-115155681D01*
X152620681Y-114928319D01*
X152682004Y-114894834D01*
X152708362Y-114892000D01*
X153372999Y-114892000D01*
X153373000Y-114892000D01*
X154737048Y-112391243D01*
X154782608Y-112343995D01*
X155167736Y-112115371D01*
X155231033Y-112098000D01*
X156069638Y-112098000D01*
X156136677Y-112117685D01*
G37*
%TD.AperFunction*%
%TD*%
%TA.AperFunction,Conductor*%
%TO.N,Net-(C115-Pad1)*%
G36*
X56030677Y-88665685D02*
G01*
X56051319Y-88682319D01*
X56478681Y-89109681D01*
X56512166Y-89171004D01*
X56515000Y-89197362D01*
X56515000Y-108668638D01*
X56495315Y-108735677D01*
X56478681Y-108756319D01*
X56051319Y-109183681D01*
X55989996Y-109217166D01*
X55963638Y-109220000D01*
X50081362Y-109220000D01*
X50014323Y-109200315D01*
X49993681Y-109183681D01*
X49566319Y-108756319D01*
X49532834Y-108694996D01*
X49530000Y-108668638D01*
X49530000Y-107231361D01*
X49549685Y-107164322D01*
X49566314Y-107143685D01*
X49981920Y-106728079D01*
X50043239Y-106694597D01*
X50088990Y-106693290D01*
X50197648Y-106710500D01*
X50197650Y-106710500D01*
X51402351Y-106710500D01*
X51402352Y-106710500D01*
X51585277Y-106681526D01*
X51604675Y-106680000D01*
X52705000Y-106680000D01*
X52705000Y-98425000D01*
X52205000Y-98425000D01*
X51986362Y-98425000D01*
X51919323Y-98405315D01*
X51898681Y-98388681D01*
X51471319Y-97961319D01*
X51437834Y-97899996D01*
X51435000Y-97873638D01*
X51435000Y-89197362D01*
X51454685Y-89130323D01*
X51471319Y-89109681D01*
X51898681Y-88682319D01*
X51960004Y-88648834D01*
X51986362Y-88646000D01*
X55963638Y-88646000D01*
X56030677Y-88665685D01*
G37*
%TD.AperFunction*%
%TD*%
%TA.AperFunction,Conductor*%
%TO.N,Net-(J34-Pin_1)*%
G36*
X176964677Y-97436485D02*
G01*
X176985319Y-97453119D01*
X177212681Y-97680481D01*
X177246166Y-97741804D01*
X177249000Y-97768162D01*
X177249000Y-100140134D01*
X177239561Y-100187587D01*
X177046306Y-100654145D01*
X177019426Y-100694373D01*
X176741000Y-100972799D01*
X176741000Y-102145438D01*
X176721315Y-102212477D01*
X176704681Y-102233119D01*
X176477319Y-102460481D01*
X176415996Y-102493966D01*
X176389638Y-102496800D01*
X175060362Y-102496800D01*
X174993323Y-102477115D01*
X174972681Y-102460481D01*
X174745319Y-102233119D01*
X174711834Y-102171796D01*
X174709000Y-102145438D01*
X174709000Y-101297465D01*
X174718439Y-101250012D01*
X174833264Y-100972799D01*
X174911694Y-100783451D01*
X174938570Y-100743229D01*
X176020868Y-99660932D01*
X176233000Y-99448800D01*
X176233000Y-97768162D01*
X176252685Y-97701123D01*
X176269319Y-97680481D01*
X176496681Y-97453119D01*
X176558004Y-97419634D01*
X176584362Y-97416800D01*
X176897638Y-97416800D01*
X176964677Y-97436485D01*
G37*
%TD.AperFunction*%
%TD*%
%TA.AperFunction,Conductor*%
%TO.N,Net-(C85-Pad1)*%
G36*
X184935677Y-50819685D02*
G01*
X184956319Y-50836319D01*
X185383681Y-51263681D01*
X185417166Y-51325004D01*
X185420000Y-51351362D01*
X185420000Y-55328638D01*
X185400315Y-55395677D01*
X185383681Y-55416319D01*
X184956319Y-55843681D01*
X184894996Y-55877166D01*
X184868638Y-55880000D01*
X172636362Y-55880000D01*
X172569323Y-55860315D01*
X172548681Y-55843681D01*
X172121319Y-55416319D01*
X172087834Y-55354996D01*
X172085000Y-55328638D01*
X172085000Y-51351362D01*
X172104685Y-51284323D01*
X172121319Y-51263681D01*
X172548681Y-50836319D01*
X172610004Y-50802834D01*
X172636362Y-50800000D01*
X184868638Y-50800000D01*
X184935677Y-50819685D01*
G37*
%TD.AperFunction*%
%TD*%
%TA.AperFunction,Conductor*%
%TO.N,GND_P*%
G36*
X99590334Y-99061819D02*
G01*
X100540209Y-99226350D01*
X100560736Y-99231751D01*
X101479837Y-99560000D01*
X104626617Y-100683846D01*
X104683128Y-100724930D01*
X104686268Y-100729191D01*
X105111859Y-101333106D01*
X105134387Y-101399244D01*
X105134500Y-101404536D01*
X105134500Y-108638234D01*
X105129075Y-108656707D01*
X105128623Y-108675956D01*
X105119434Y-108689540D01*
X105114815Y-108705273D01*
X105100267Y-108717878D01*
X105089478Y-108733830D01*
X105063746Y-108749523D01*
X105062011Y-108751028D01*
X105059346Y-108752208D01*
X104847584Y-108842963D01*
X104778211Y-108851278D01*
X104715355Y-108820767D01*
X104713221Y-108818782D01*
X104643318Y-108752208D01*
X102467500Y-106680000D01*
X94128862Y-106680000D01*
X94061823Y-106660315D01*
X94041181Y-106643681D01*
X93613819Y-106216319D01*
X93580334Y-106154996D01*
X93577500Y-106128638D01*
X93577500Y-104775000D01*
X90279817Y-103675772D01*
X90222442Y-103635898D01*
X90218435Y-103630639D01*
X89790906Y-103037474D01*
X89783905Y-103017617D01*
X89772523Y-102999905D01*
X89768983Y-102975287D01*
X89767676Y-102971579D01*
X89767500Y-102964970D01*
X89767500Y-102775029D01*
X89787185Y-102707990D01*
X89790894Y-102702541D01*
X90218437Y-102109358D01*
X90273603Y-102066484D01*
X90279794Y-102064235D01*
X93103158Y-101123114D01*
X93577500Y-100965000D01*
X93577500Y-99611362D01*
X93597185Y-99544323D01*
X93613819Y-99523681D01*
X94041181Y-99096319D01*
X94102504Y-99062834D01*
X94128862Y-99060000D01*
X99569171Y-99060000D01*
X99590334Y-99061819D01*
G37*
%TD.AperFunction*%
%TD*%
M02*
