%TF.GenerationSoftware,KiCad,Pcbnew,9.0.8*%
%TF.CreationDate,2026-03-17T16:52:57+01:00*%
%TF.ProjectId,Power_Supply_Meter_Amp,506f7765-725f-4537-9570-706c795f4d65,1*%
%TF.SameCoordinates,Original*%
%TF.FileFunction,Copper,L3,Inr*%
%TF.FilePolarity,Positive*%
%FSLAX46Y46*%
G04 Gerber Fmt 4.6, Leading zero omitted, Abs format (unit mm)*
G04 Created by KiCad (PCBNEW 9.0.8) date 2026-03-17 16:52:57*
%MOMM*%
%LPD*%
G01*
G04 APERTURE LIST*
G04 Aperture macros list*
%AMRoundRect*
0 Rectangle with rounded corners*
0 $1 Rounding radius*
0 $2 $3 $4 $5 $6 $7 $8 $9 X,Y pos of 4 corners*
0 Add a 4 corners polygon primitive as box body*
4,1,4,$2,$3,$4,$5,$6,$7,$8,$9,$2,$3,0*
0 Add four circle primitives for the rounded corners*
1,1,$1+$1,$2,$3*
1,1,$1+$1,$4,$5*
1,1,$1+$1,$6,$7*
1,1,$1+$1,$8,$9*
0 Add four rect primitives between the rounded corners*
20,1,$1+$1,$2,$3,$4,$5,0*
20,1,$1+$1,$4,$5,$6,$7,0*
20,1,$1+$1,$6,$7,$8,$9,0*
20,1,$1+$1,$8,$9,$2,$3,0*%
G04 Aperture macros list end*
%TA.AperFunction,ComponentPad*%
%ADD10R,2.600000X1.600000*%
%TD*%
%TA.AperFunction,ComponentPad*%
%ADD11O,2.600000X1.600000*%
%TD*%
%TA.AperFunction,ComponentPad*%
%ADD12C,6.400000*%
%TD*%
%TA.AperFunction,ComponentPad*%
%ADD13R,1.700000X1.700000*%
%TD*%
%TA.AperFunction,ComponentPad*%
%ADD14C,1.700000*%
%TD*%
%TA.AperFunction,ComponentPad*%
%ADD15RoundRect,0.250000X-0.550000X-0.550000X0.550000X-0.550000X0.550000X0.550000X-0.550000X0.550000X0*%
%TD*%
%TA.AperFunction,ComponentPad*%
%ADD16C,1.600000*%
%TD*%
%TA.AperFunction,ComponentPad*%
%ADD17R,1.725000X1.725000*%
%TD*%
%TA.AperFunction,ComponentPad*%
%ADD18C,1.725000*%
%TD*%
%TA.AperFunction,ComponentPad*%
%ADD19R,3.000000X3.000000*%
%TD*%
%TA.AperFunction,ComponentPad*%
%ADD20O,3.000000X2.000000*%
%TD*%
%TA.AperFunction,ComponentPad*%
%ADD21RoundRect,0.250000X-0.950000X-0.550000X0.950000X-0.550000X0.950000X0.550000X-0.950000X0.550000X0*%
%TD*%
%TA.AperFunction,ComponentPad*%
%ADD22O,2.400000X1.600000*%
%TD*%
%TA.AperFunction,ViaPad*%
%ADD23C,0.700000*%
%TD*%
%TA.AperFunction,Conductor*%
%ADD24C,1.600000*%
%TD*%
%TA.AperFunction,Conductor*%
%ADD25C,1.000000*%
%TD*%
G04 APERTURE END LIST*
D10*
%TO.N,Net-(J39-Pin_1)*%
%TO.C,J39*%
X50800000Y-113030000D03*
D11*
%TO.N,Net-(J39-Pin_2)*%
X50800000Y-115570000D03*
%TD*%
D12*
%TO.N,N/C*%
%TO.C,H13*%
X121920000Y-53340000D03*
%TD*%
%TO.N,N/C*%
%TO.C,H10*%
X121920000Y-128270000D03*
%TD*%
D10*
%TO.N,Net-(J35-Pin_1)*%
%TO.C,J35*%
X146515000Y-79840000D03*
D11*
%TO.N,Net-(J35-Pin_2)*%
X146515000Y-82380000D03*
%TD*%
D13*
%TO.N,9V_GND_M*%
%TO.C,J41*%
X139700000Y-110490000D03*
D14*
X142240000Y-110490000D03*
X139700000Y-113030000D03*
X142240000Y-113030000D03*
%TO.N,+9V_M*%
X139700000Y-115570000D03*
X142240000Y-115570000D03*
%TO.N,-15V_M*%
X139700000Y-118110000D03*
X142240000Y-118110000D03*
%TO.N,GND_M*%
X139700000Y-120650000D03*
X142240000Y-120650000D03*
X139700000Y-123190000D03*
X142240000Y-123190000D03*
%TO.N,+15V_M*%
X139700000Y-125730000D03*
X142240000Y-125730000D03*
%TD*%
D10*
%TO.N,Net-(J37-Pin_1)*%
%TO.C,J37*%
X175725000Y-115400000D03*
D11*
%TO.N,Net-(J37-Pin_2)*%
X175725000Y-117940000D03*
%TD*%
D10*
%TO.N,Net-(J34-Pin_1)*%
%TO.C,J34*%
X175725000Y-102700000D03*
D11*
%TO.N,GND_M*%
X175725000Y-105240000D03*
%TO.N,9V_GND_M*%
X175725000Y-107780000D03*
%TO.N,+9V_M*%
X175725000Y-110320000D03*
%TD*%
D12*
%TO.N,N/C*%
%TO.C,H9*%
X43180000Y-53340000D03*
%TD*%
D10*
%TO.N,Net-(J33-Pin_1)*%
%TO.C,J33*%
X146515000Y-67140000D03*
D11*
%TO.N,Net-(J33-Pin_2)*%
X146515000Y-69680000D03*
%TD*%
D12*
%TO.N,N/C*%
%TO.C,H11*%
X137160000Y-53340000D03*
%TD*%
%TO.N,Net-(C85-Pad1)*%
%TO.C,H12*%
X182880000Y-53340000D03*
%TD*%
%TO.N,N/C*%
%TO.C,H16*%
X137160000Y-101600000D03*
%TD*%
D10*
%TO.N,Net-(J42-Pin_1)*%
%TO.C,J42*%
X146515000Y-107780000D03*
D11*
%TO.N,Net-(J42-Pin_2)*%
X146515000Y-110320000D03*
%TD*%
D15*
%TO.N,+9V_P*%
%TO.C,C91*%
X111992500Y-77216000D03*
D16*
%TO.N,9V_GND_P*%
X114492500Y-77216000D03*
%TD*%
D13*
%TO.N,9V_GND_P*%
%TO.C,J40*%
X111992500Y-110490000D03*
D14*
X114532500Y-110490000D03*
X111992500Y-113030000D03*
X114532500Y-113030000D03*
%TO.N,+9V_P*%
X111992500Y-115570000D03*
X114532500Y-115570000D03*
%TO.N,-15V_P*%
X111992500Y-118110000D03*
X114532500Y-118110000D03*
%TO.N,GND_P*%
X111992500Y-120650000D03*
X114532500Y-120650000D03*
X111992500Y-123190000D03*
X114532500Y-123190000D03*
%TO.N,+15V_P*%
X111992500Y-125730000D03*
X114532500Y-125730000D03*
%TD*%
D10*
%TO.N,Net-(J39-Pin_1)*%
%TO.C,J43*%
X50800000Y-120650000D03*
D11*
%TO.N,Net-(J39-Pin_2)*%
X50800000Y-123190000D03*
%TD*%
D17*
%TO.N,Net-(U25-+VIN)*%
%TO.C,U25*%
X65002500Y-69850000D03*
D18*
%TO.N,Net-(U25--VIN)*%
X65002500Y-64770000D03*
%TO.N,unconnected-(U25-CTRL-Pad3)*%
X65002500Y-57150000D03*
%TO.N,Net-(U25--VOUT)*%
X85322500Y-57150000D03*
%TO.N,unconnected-(U25-TRIM-Pad5)*%
X85322500Y-67310000D03*
%TO.N,Net-(U25-+VOUT)*%
X85322500Y-77470000D03*
%TD*%
D10*
%TO.N,/Pegel_Post*%
%TO.C,SW11*%
X146515000Y-51900000D03*
D11*
%TO.N,/Pegel_Aux_Return*%
X146515000Y-54440000D03*
%TO.N,/Pegel_Mic_Effekt*%
X146515000Y-56980000D03*
%TO.N,/Pegel_Pre*%
X146515000Y-59520000D03*
%TO.N,Net-(R141-Pad1)*%
X146515000Y-62060000D03*
%TD*%
D19*
%TO.N,Net-(C115-Pad1)*%
%TO.C,L4*%
X53975000Y-88900000D03*
D20*
%TO.N,Net-(U25-+VIN)*%
X53975000Y-78900000D03*
%TO.N,Net-(U25--VIN)*%
X41475000Y-78900000D03*
%TO.N,Net-(C115-Pad2)*%
X41475000Y-88900000D03*
%TD*%
D10*
%TO.N,Net-(J36-Pin_1)*%
%TO.C,J36*%
X146515000Y-95080000D03*
D11*
%TO.N,Net-(J36-Pin_2)*%
X146515000Y-97620000D03*
%TD*%
D10*
%TO.N,Net-(J39-Pin_2)*%
%TO.C,SW12*%
X50800000Y-100330000D03*
D11*
%TO.N,Net-(C115-Pad2)*%
X50800000Y-102870000D03*
%TO.N,Net-(J39-Pin_1)*%
X50800000Y-105410000D03*
%TO.N,Net-(C115-Pad1)*%
X50800000Y-107950000D03*
%TD*%
D21*
%TO.N,/Pegel_Aux_Return*%
%TO.C,U24*%
X156675000Y-95080000D03*
D22*
X156675000Y-97620000D03*
%TO.N,Net-(U24A-+)*%
X156675000Y-100160000D03*
%TO.N,+15V_M*%
X156675000Y-102700000D03*
%TO.N,Net-(U24B-+)*%
X156675000Y-105240000D03*
%TO.N,/Pegel_Post*%
X156675000Y-107780000D03*
X156675000Y-110320000D03*
%TO.N,Net-(U24-Pad8)*%
X164295000Y-110320000D03*
%TO.N,Net-(U24C--)*%
X164295000Y-107780000D03*
%TO.N,Net-(U24C-+)*%
X164295000Y-105240000D03*
%TO.N,-15V_M*%
X164295000Y-102700000D03*
%TO.N,Net-(U24C-+)*%
X164295000Y-100160000D03*
%TO.N,Net-(U24D--)*%
X164295000Y-97620000D03*
X164295000Y-95080000D03*
%TD*%
D12*
%TO.N,N/C*%
%TO.C,H15*%
X182880000Y-128270000D03*
%TD*%
D15*
%TO.N,+15V_P*%
%TO.C,C114*%
X101894000Y-115570000D03*
D16*
%TO.N,GND_P*%
X104394000Y-115570000D03*
%TD*%
D21*
%TO.N,/Pegel_Pre*%
%TO.C,U23*%
X156675000Y-67140000D03*
D22*
X156675000Y-69680000D03*
%TO.N,Net-(U23A-+)*%
X156675000Y-72220000D03*
%TO.N,+15V_M*%
X156675000Y-74760000D03*
%TO.N,Net-(U23B-+)*%
X156675000Y-77300000D03*
%TO.N,/Pegel_Mic_Effekt*%
X156675000Y-79840000D03*
X156675000Y-82380000D03*
%TO.N,Net-(U24C-+)*%
X164295000Y-82380000D03*
%TO.N,Net-(U23C--)*%
X164295000Y-79840000D03*
%TO.N,GND_M*%
X164295000Y-77300000D03*
%TO.N,-15V_M*%
X164295000Y-74760000D03*
%TO.N,GND_M*%
X164295000Y-72220000D03*
%TO.N,Net-(D2-K)*%
X164295000Y-69680000D03*
%TO.N,Net-(D1-K)*%
X164295000Y-67140000D03*
%TD*%
D17*
%TO.N,Net-(U25-+VIN)*%
%TO.C,U26*%
X65002500Y-105410000D03*
D18*
%TO.N,Net-(U25--VIN)*%
X65002500Y-100330000D03*
%TO.N,unconnected-(U26-CTRL-Pad3)*%
X65002500Y-92710000D03*
%TO.N,Net-(U26--VOUT)*%
X85322500Y-92710000D03*
%TO.N,GND_P*%
X85322500Y-102870000D03*
%TO.N,Net-(U26-+VOUT)*%
X85322500Y-113030000D03*
%TD*%
D12*
%TO.N,N/C*%
%TO.C,H14*%
X43180000Y-128270000D03*
%TD*%
D15*
%TO.N,GND_P*%
%TO.C,C118*%
X104437388Y-105156000D03*
D16*
%TO.N,-15V_P*%
X106937388Y-105156000D03*
%TD*%
D23*
%TO.N,Net-(C84-Pad2)*%
X94212500Y-72390000D03*
%TO.N,Net-(C110-Pad2)*%
X92307500Y-107950000D03*
%TO.N,Net-(C117-Pad2)*%
X92307500Y-97790000D03*
%TO.N,9V_GND_P*%
X94212500Y-62230000D03*
%TO.N,GND_M*%
X168105000Y-117940000D03*
X149309000Y-100160000D03*
X154135000Y-95080000D03*
X166835000Y-100160000D03*
X170180000Y-77300000D03*
X149309000Y-74760000D03*
X149309000Y-105240000D03*
X170661000Y-105240000D03*
X165100000Y-52070000D03*
X173185000Y-97620000D03*
X157310000Y-119210000D03*
X174725000Y-123020000D03*
X154135000Y-67140000D03*
X165100000Y-53340000D03*
X154135000Y-82380000D03*
X154135000Y-110320000D03*
X149309000Y-77300000D03*
X155405000Y-112860000D03*
X149309000Y-72220000D03*
X149309000Y-102700000D03*
X149055000Y-87460000D03*
X165100000Y-54610000D03*
%TO.N,+15V_M*%
X178900000Y-112860000D03*
%TD*%
D24*
%TO.N,Net-(U25-+VIN)*%
X63732500Y-69850000D02*
X62462500Y-71120000D01*
X62462500Y-104140000D02*
X63732500Y-105410000D01*
X62462500Y-71120000D02*
X62462500Y-104140000D01*
X63732500Y-105410000D02*
X65002500Y-105410000D01*
X65002500Y-69850000D02*
X63732500Y-69850000D01*
%TO.N,Net-(U25--VIN)*%
X67542500Y-97790000D02*
X67542500Y-67310000D01*
X67542500Y-67310000D02*
X65002500Y-64770000D01*
X65002500Y-100330000D02*
X67542500Y-97790000D01*
D25*
%TO.N,Net-(J39-Pin_2)*%
X54377500Y-113262500D02*
X52070000Y-115570000D01*
X52070000Y-100330000D02*
X54377500Y-102637500D01*
D24*
X50800000Y-100330000D02*
X52070000Y-100330000D01*
X52070000Y-115570000D02*
X50800000Y-115570000D01*
D25*
X54377500Y-102637500D02*
X54377500Y-113262500D01*
%TO.N,Net-(J39-Pin_1)*%
X48027500Y-111527500D02*
X49530000Y-113030000D01*
X49530000Y-105410000D02*
X48027500Y-106912500D01*
D24*
X49530000Y-113030000D02*
X50800000Y-113030000D01*
X50800000Y-105410000D02*
X49530000Y-105410000D01*
D25*
X48027500Y-106912500D02*
X48027500Y-111527500D01*
%TD*%
%TA.AperFunction,Conductor*%
%TO.N,-15V_M*%
G36*
X169090677Y-61444685D02*
G01*
X169111319Y-61461319D01*
X169338681Y-61688681D01*
X169372166Y-61750004D01*
X169375000Y-61776362D01*
X169375000Y-75678638D01*
X169355315Y-75745677D01*
X169338681Y-75766319D01*
X169111319Y-75993681D01*
X169049996Y-76027166D01*
X169023638Y-76030000D01*
X164999675Y-76030000D01*
X164980277Y-76028473D01*
X164972025Y-76027166D01*
X164797352Y-75999500D01*
X163792648Y-75999500D01*
X163617975Y-76027166D01*
X163609723Y-76028473D01*
X163590325Y-76030000D01*
X163376362Y-76030000D01*
X163309323Y-76010315D01*
X163288681Y-75993681D01*
X163061319Y-75766319D01*
X163027834Y-75704996D01*
X163025000Y-75678638D01*
X163025000Y-73841362D01*
X163044685Y-73774323D01*
X163061319Y-73753681D01*
X163288681Y-73526319D01*
X163315608Y-73511615D01*
X163341427Y-73495023D01*
X163347627Y-73494131D01*
X163350004Y-73492834D01*
X163376362Y-73490000D01*
X163590325Y-73490000D01*
X163609722Y-73491526D01*
X163792648Y-73520500D01*
X163792649Y-73520500D01*
X164797351Y-73520500D01*
X164797352Y-73520500D01*
X164980277Y-73491526D01*
X164999675Y-73490000D01*
X166200000Y-73490000D01*
X166200000Y-65235000D01*
X165900000Y-65235000D01*
X153800000Y-65235000D01*
X153500000Y-65235000D01*
X153500000Y-66522244D01*
X153480315Y-66589283D01*
X153477567Y-66593058D01*
X153381295Y-66737139D01*
X153317184Y-66891917D01*
X153317182Y-66891925D01*
X153284500Y-67056228D01*
X153284500Y-67223771D01*
X153317182Y-67388074D01*
X153317184Y-67388082D01*
X153381295Y-67542860D01*
X153477758Y-67687227D01*
X153475846Y-67688504D01*
X153499163Y-67743376D01*
X153500000Y-67757755D01*
X153500000Y-81762244D01*
X153480315Y-81829283D01*
X153477567Y-81833058D01*
X153381295Y-81977139D01*
X153317184Y-82131917D01*
X153317182Y-82131925D01*
X153284500Y-82296228D01*
X153284500Y-82463771D01*
X153317182Y-82628074D01*
X153317184Y-82628082D01*
X153381295Y-82782860D01*
X153477758Y-82927227D01*
X153475846Y-82928504D01*
X153499163Y-82983376D01*
X153500000Y-82997755D01*
X153500000Y-90381000D01*
X170420638Y-90381000D01*
X170487677Y-90400685D01*
X170508319Y-90417319D01*
X170735681Y-90644681D01*
X170769166Y-90706004D01*
X170772000Y-90732362D01*
X170772000Y-103618638D01*
X170752315Y-103685677D01*
X170735681Y-103706319D01*
X170508319Y-103933681D01*
X170446996Y-103967166D01*
X170420638Y-103970000D01*
X164999675Y-103970000D01*
X164980277Y-103968473D01*
X164972025Y-103967166D01*
X164797352Y-103939500D01*
X163792648Y-103939500D01*
X163617975Y-103967166D01*
X163609723Y-103968473D01*
X163590325Y-103970000D01*
X163376362Y-103970000D01*
X163309323Y-103950315D01*
X163288681Y-103933681D01*
X163061319Y-103706319D01*
X163027834Y-103644996D01*
X163025000Y-103618638D01*
X163025000Y-101781362D01*
X163044685Y-101714323D01*
X163061319Y-101693681D01*
X163288681Y-101466319D01*
X163315608Y-101451615D01*
X163341427Y-101435023D01*
X163347627Y-101434131D01*
X163350004Y-101432834D01*
X163376362Y-101430000D01*
X163590325Y-101430000D01*
X163609722Y-101431526D01*
X163792648Y-101460500D01*
X163792649Y-101460500D01*
X164797351Y-101460500D01*
X164797352Y-101460500D01*
X164980277Y-101431526D01*
X164999675Y-101430000D01*
X167470000Y-101430000D01*
X167470000Y-100777755D01*
X167489685Y-100710716D01*
X167492433Y-100706939D01*
X167495622Y-100702165D01*
X167495626Y-100702162D01*
X167588703Y-100562863D01*
X167652816Y-100408082D01*
X167685500Y-100243767D01*
X167685500Y-100076233D01*
X167652816Y-99911918D01*
X167588703Y-99757137D01*
X167495626Y-99617838D01*
X167492242Y-99612773D01*
X167494147Y-99611499D01*
X167470832Y-99556587D01*
X167470000Y-99542244D01*
X167470000Y-93810000D01*
X167170000Y-93810000D01*
X164999675Y-93810000D01*
X164980277Y-93808473D01*
X164950180Y-93803706D01*
X164797352Y-93779500D01*
X163792648Y-93779500D01*
X163639820Y-93803706D01*
X163609723Y-93808473D01*
X163590325Y-93810000D01*
X157858159Y-93810000D01*
X157819156Y-93803706D01*
X157777801Y-93790002D01*
X157777798Y-93790001D01*
X157777797Y-93790001D01*
X157777793Y-93790000D01*
X157777790Y-93790000D01*
X157675010Y-93779500D01*
X155674998Y-93779500D01*
X155674981Y-93779501D01*
X155572203Y-93790000D01*
X155540151Y-93800621D01*
X155530843Y-93803706D01*
X155491840Y-93810000D01*
X153373000Y-93810000D01*
X153373000Y-94672501D01*
X153363561Y-94719954D01*
X153317184Y-94831917D01*
X153317182Y-94831925D01*
X153284500Y-94996228D01*
X153284500Y-95163771D01*
X153295499Y-95219065D01*
X153317184Y-95328082D01*
X153340567Y-95384534D01*
X153363561Y-95440044D01*
X153373000Y-95487497D01*
X153373000Y-109912501D01*
X153363561Y-109959954D01*
X153317184Y-110071917D01*
X153317182Y-110071925D01*
X153284500Y-110236228D01*
X153284500Y-110403771D01*
X153292262Y-110442792D01*
X153317184Y-110568082D01*
X153340567Y-110624534D01*
X153363561Y-110680044D01*
X153373000Y-110727497D01*
X153373000Y-119112638D01*
X153353315Y-119179677D01*
X153336681Y-119200319D01*
X153109319Y-119427681D01*
X153047996Y-119461166D01*
X153021638Y-119464000D01*
X142916845Y-119464000D01*
X142860550Y-119450485D01*
X142758414Y-119398444D01*
X142758413Y-119398443D01*
X142758412Y-119398443D01*
X142556243Y-119332754D01*
X142556241Y-119332753D01*
X142556240Y-119332753D01*
X142394957Y-119307208D01*
X142346287Y-119299500D01*
X142133713Y-119299500D01*
X142085042Y-119307208D01*
X141923760Y-119332753D01*
X141721585Y-119398444D01*
X141619450Y-119450485D01*
X141563155Y-119464000D01*
X140376845Y-119464000D01*
X140320550Y-119450485D01*
X140218414Y-119398444D01*
X140218413Y-119398443D01*
X140218412Y-119398443D01*
X140016243Y-119332754D01*
X140016241Y-119332753D01*
X140016240Y-119332753D01*
X139854957Y-119307208D01*
X139806287Y-119299500D01*
X139593713Y-119299500D01*
X139545042Y-119307208D01*
X139383760Y-119332753D01*
X139181585Y-119398444D01*
X139079450Y-119450485D01*
X139066446Y-119453606D01*
X139058090Y-119458977D01*
X139023155Y-119464000D01*
X138992362Y-119464000D01*
X138925323Y-119444315D01*
X138904681Y-119427681D01*
X138677319Y-119200319D01*
X138643834Y-119138996D01*
X138641000Y-119112638D01*
X138641000Y-117275362D01*
X138660685Y-117208323D01*
X138677319Y-117187681D01*
X138904681Y-116960319D01*
X138966004Y-116926834D01*
X138992362Y-116924000D01*
X150198000Y-116924000D01*
X150198000Y-61776362D01*
X150217685Y-61709323D01*
X150234319Y-61688681D01*
X150461681Y-61461319D01*
X150523004Y-61427834D01*
X150549362Y-61425000D01*
X169023638Y-61425000D01*
X169090677Y-61444685D01*
G37*
%TD.AperFunction*%
%TD*%
%TA.AperFunction,Conductor*%
%TO.N,+15V_M*%
G36*
X155989722Y-73491526D02*
G01*
X156172648Y-73520500D01*
X156172649Y-73520500D01*
X157177351Y-73520500D01*
X157177352Y-73520500D01*
X157360277Y-73491526D01*
X157379675Y-73490000D01*
X161403638Y-73490000D01*
X161470677Y-73509685D01*
X161491319Y-73526319D01*
X161718681Y-73753681D01*
X161752166Y-73815004D01*
X161755000Y-73841362D01*
X161755000Y-84285000D01*
X181088638Y-84285000D01*
X181155677Y-84304685D01*
X181176319Y-84321319D01*
X181403681Y-84548681D01*
X181437166Y-84610004D01*
X181440000Y-84636362D01*
X181440000Y-113778638D01*
X181420315Y-113845677D01*
X181403681Y-113866319D01*
X181176319Y-114093681D01*
X181114996Y-114127166D01*
X181088638Y-114130000D01*
X177219446Y-114130000D01*
X177176112Y-114122181D01*
X177132491Y-114105911D01*
X177132480Y-114105908D01*
X177072883Y-114099501D01*
X177072881Y-114099500D01*
X177072873Y-114099500D01*
X177072864Y-114099500D01*
X174377129Y-114099500D01*
X174377123Y-114099501D01*
X174317518Y-114105908D01*
X174292164Y-114115365D01*
X174273885Y-114122182D01*
X174230554Y-114130000D01*
X171280000Y-114130000D01*
X171280000Y-126986638D01*
X171260315Y-127053677D01*
X171243681Y-127074319D01*
X171016319Y-127301681D01*
X170954996Y-127335166D01*
X170928638Y-127338000D01*
X139119362Y-127338000D01*
X139052323Y-127318315D01*
X139031681Y-127301681D01*
X138804319Y-127074319D01*
X138770834Y-127012996D01*
X138768000Y-126986638D01*
X138768000Y-124895362D01*
X138787685Y-124828323D01*
X138804319Y-124807681D01*
X139031681Y-124580319D01*
X139093004Y-124546834D01*
X139119362Y-124544000D01*
X158580000Y-124544000D01*
X158580000Y-103970000D01*
X158280000Y-103970000D01*
X157379675Y-103970000D01*
X157360277Y-103968473D01*
X157177352Y-103939500D01*
X156172648Y-103939500D01*
X155989723Y-103968473D01*
X155970325Y-103970000D01*
X155756362Y-103970000D01*
X155689323Y-103950315D01*
X155668681Y-103933681D01*
X155441319Y-103706319D01*
X155407834Y-103644996D01*
X155405000Y-103618638D01*
X155405000Y-101781362D01*
X155424685Y-101714323D01*
X155441319Y-101693681D01*
X155668681Y-101466319D01*
X155695608Y-101451615D01*
X155721427Y-101435023D01*
X155727627Y-101434131D01*
X155730004Y-101432834D01*
X155756362Y-101430000D01*
X155970325Y-101430000D01*
X155989722Y-101431526D01*
X156172648Y-101460500D01*
X156172649Y-101460500D01*
X157177351Y-101460500D01*
X157177352Y-101460500D01*
X157360277Y-101431526D01*
X157379675Y-101430000D01*
X160768638Y-101430000D01*
X160835677Y-101449685D01*
X160856319Y-101466319D01*
X161083681Y-101693681D01*
X161117166Y-101755004D01*
X161120000Y-101781362D01*
X161120000Y-112225000D01*
X161120000Y-124290000D01*
X167170000Y-124290000D01*
X167470000Y-124290000D01*
X167470000Y-118770581D01*
X167489685Y-118703542D01*
X167542489Y-118657787D01*
X167611647Y-118647843D01*
X167662889Y-118667478D01*
X167702137Y-118693703D01*
X167856918Y-118757816D01*
X168004738Y-118787219D01*
X168021228Y-118790499D01*
X168021232Y-118790500D01*
X168021233Y-118790500D01*
X168188768Y-118790500D01*
X168188769Y-118790499D01*
X168353082Y-118757816D01*
X168507863Y-118693703D01*
X168647162Y-118600626D01*
X168765626Y-118482162D01*
X168858703Y-118342863D01*
X168922816Y-118188082D01*
X168955500Y-118023767D01*
X168955500Y-117856233D01*
X168922816Y-117691918D01*
X168858703Y-117537137D01*
X168794320Y-117440781D01*
X168765626Y-117397837D01*
X168647162Y-117279373D01*
X168507860Y-117186295D01*
X168353082Y-117122184D01*
X168353074Y-117122182D01*
X168188771Y-117089500D01*
X168188767Y-117089500D01*
X168021233Y-117089500D01*
X168021228Y-117089500D01*
X167856925Y-117122182D01*
X167856917Y-117122184D01*
X167702140Y-117186295D01*
X167662890Y-117212521D01*
X167596212Y-117233398D01*
X167528832Y-117214913D01*
X167482142Y-117162933D01*
X167470000Y-117109418D01*
X167470000Y-111941362D01*
X167489685Y-111874323D01*
X167506319Y-111853681D01*
X167733681Y-111626319D01*
X167795004Y-111592834D01*
X167821362Y-111590000D01*
X174920325Y-111590000D01*
X174939722Y-111591526D01*
X175122648Y-111620500D01*
X175122649Y-111620500D01*
X176327351Y-111620500D01*
X176327352Y-111620500D01*
X176510277Y-111591526D01*
X176529675Y-111590000D01*
X177630000Y-111590000D01*
X177630000Y-86825000D01*
X177330000Y-86825000D01*
X158931362Y-86825000D01*
X158864323Y-86805315D01*
X158843681Y-86788681D01*
X158616319Y-86561319D01*
X158582834Y-86499996D01*
X158580000Y-86473638D01*
X158580000Y-76030000D01*
X158280000Y-76030000D01*
X157379675Y-76030000D01*
X157360277Y-76028473D01*
X157177352Y-75999500D01*
X156172648Y-75999500D01*
X155989723Y-76028473D01*
X155970325Y-76030000D01*
X155756362Y-76030000D01*
X155689323Y-76010315D01*
X155668681Y-75993681D01*
X155441319Y-75766319D01*
X155407834Y-75704996D01*
X155405000Y-75678638D01*
X155405000Y-73841362D01*
X155424685Y-73774323D01*
X155441319Y-73753681D01*
X155668681Y-73526319D01*
X155695608Y-73511615D01*
X155721427Y-73495023D01*
X155727627Y-73494131D01*
X155730004Y-73492834D01*
X155756362Y-73490000D01*
X155970325Y-73490000D01*
X155989722Y-73491526D01*
G37*
%TD.AperFunction*%
%TD*%
M02*
