G04*
G04 #@! TF.GenerationSoftware,Altium Limited,Altium Designer,20.0.14 (345)*
G04*
G04 Layer_Physical_Order=1*
G04 Layer_Color=255*
%FSLAX25Y25*%
%MOIN*%
G70*
G01*
G75*
%ADD21C,0.02000*%
%ADD22C,0.05937*%
%ADD23R,0.05937X0.05937*%
%ADD24R,0.05709X0.05709*%
%ADD25C,0.05709*%
%ADD26C,0.06024*%
%ADD27R,0.06024X0.06024*%
%ADD28C,0.05906*%
G36*
X590551Y0D02*
X0D01*
X-0Y295276D01*
X590551D01*
X590551Y0D01*
D02*
G37*
%LPC*%
G36*
X575500Y283921D02*
Y280500D01*
X578921D01*
X578851Y281032D01*
X578453Y281993D01*
X577819Y282819D01*
X576993Y283453D01*
X576032Y283851D01*
X575500Y283921D01*
D02*
G37*
G36*
X574500D02*
X573968Y283851D01*
X573007Y283453D01*
X572181Y282819D01*
X571547Y281993D01*
X571149Y281032D01*
X571079Y280500D01*
X574500D01*
Y283921D01*
D02*
G37*
G36*
X15500D02*
Y280500D01*
X18921D01*
X18851Y281032D01*
X18453Y281993D01*
X17819Y282819D01*
X16993Y283453D01*
X16032Y283851D01*
X15500Y283921D01*
D02*
G37*
G36*
X14500D02*
X13968Y283851D01*
X13007Y283453D01*
X12181Y282819D01*
X11547Y281993D01*
X11149Y281032D01*
X11079Y280500D01*
X14500D01*
Y283921D01*
D02*
G37*
G36*
X578921Y279500D02*
X575500D01*
Y276079D01*
X576032Y276149D01*
X576993Y276547D01*
X577819Y277181D01*
X578453Y278007D01*
X578851Y278968D01*
X578921Y279500D01*
D02*
G37*
G36*
X574500D02*
X571079D01*
X571149Y278968D01*
X571547Y278007D01*
X572181Y277181D01*
X573007Y276547D01*
X573968Y276149D01*
X574500Y276079D01*
Y279500D01*
D02*
G37*
G36*
X18921D02*
X15500D01*
Y276079D01*
X16032Y276149D01*
X16993Y276547D01*
X17819Y277181D01*
X18453Y278007D01*
X18851Y278968D01*
X18921Y279500D01*
D02*
G37*
G36*
X14500D02*
X11079D01*
X11149Y278968D01*
X11547Y278007D01*
X12181Y277181D01*
X13007Y276547D01*
X13968Y276149D01*
X14500Y276079D01*
Y279500D01*
D02*
G37*
G36*
X443854Y268854D02*
X436146D01*
Y261146D01*
X443854D01*
Y268854D01*
D02*
G37*
G36*
X470000Y268888D02*
X468994Y268755D01*
X468056Y268367D01*
X467251Y267749D01*
X466633Y266944D01*
X466245Y266006D01*
X466112Y265000D01*
X466245Y263994D01*
X466633Y263056D01*
X467251Y262251D01*
X468056Y261633D01*
X468994Y261245D01*
X470000Y261112D01*
X471006Y261245D01*
X471944Y261633D01*
X472749Y262251D01*
X473367Y263056D01*
X473755Y263994D01*
X473888Y265000D01*
X473755Y266006D01*
X473367Y266944D01*
X472749Y267749D01*
X471944Y268367D01*
X471006Y268755D01*
X470000Y268888D01*
D02*
G37*
G36*
Y258888D02*
X468994Y258755D01*
X468056Y258367D01*
X467251Y257749D01*
X466633Y256944D01*
X466245Y256006D01*
X466112Y255000D01*
X466245Y253994D01*
X466633Y253056D01*
X467251Y252251D01*
X468056Y251633D01*
X468994Y251245D01*
X470000Y251112D01*
X471006Y251245D01*
X471944Y251633D01*
X472749Y252251D01*
X473367Y253056D01*
X473755Y253994D01*
X473888Y255000D01*
X473755Y256006D01*
X473367Y256944D01*
X472749Y257749D01*
X471944Y258367D01*
X471006Y258755D01*
X470000Y258888D01*
D02*
G37*
G36*
X440000D02*
X438994Y258755D01*
X438056Y258367D01*
X437251Y257749D01*
X436633Y256944D01*
X436245Y256006D01*
X436112Y255000D01*
X436245Y253994D01*
X436633Y253056D01*
X437251Y252251D01*
X438056Y251633D01*
X438994Y251245D01*
X440000Y251112D01*
X441006Y251245D01*
X441944Y251633D01*
X442749Y252251D01*
X443367Y253056D01*
X443755Y253994D01*
X443888Y255000D01*
X443755Y256006D01*
X443367Y256944D01*
X442749Y257749D01*
X441944Y258367D01*
X441006Y258755D01*
X440000Y258888D01*
D02*
G37*
G36*
X470500Y248822D02*
Y245500D01*
X473822D01*
X473755Y246006D01*
X473367Y246944D01*
X472749Y247749D01*
X471944Y248367D01*
X471006Y248755D01*
X470500Y248822D01*
D02*
G37*
G36*
X410500Y248937D02*
Y245500D01*
X413937D01*
X413866Y246036D01*
X413467Y247001D01*
X412830Y247830D01*
X412001Y248466D01*
X411036Y248866D01*
X410500Y248937D01*
D02*
G37*
G36*
X409500D02*
X408964Y248866D01*
X407999Y248466D01*
X407170Y247830D01*
X406533Y247001D01*
X406134Y246036D01*
X406063Y245500D01*
X409500D01*
Y248937D01*
D02*
G37*
G36*
X400500D02*
Y245500D01*
X403937D01*
X403866Y246036D01*
X403467Y247001D01*
X402830Y247830D01*
X402001Y248466D01*
X401036Y248866D01*
X400500Y248937D01*
D02*
G37*
G36*
X399500D02*
X398964Y248866D01*
X397999Y248466D01*
X397170Y247830D01*
X396533Y247001D01*
X396134Y246036D01*
X396063Y245500D01*
X399500D01*
Y248937D01*
D02*
G37*
G36*
X469500Y248822D02*
X468994Y248755D01*
X468056Y248367D01*
X467251Y247749D01*
X466633Y246944D01*
X466245Y246006D01*
X466178Y245500D01*
X469500D01*
Y248822D01*
D02*
G37*
G36*
X423969Y248969D02*
X416032D01*
Y242039D01*
X413361D01*
X413114Y242539D01*
X413467Y242999D01*
X413866Y243964D01*
X413937Y244500D01*
X406063D01*
X406134Y243964D01*
X406533Y242999D01*
X406886Y242539D01*
X406639Y242039D01*
X403361D01*
X403114Y242539D01*
X403467Y242999D01*
X403866Y243964D01*
X403937Y244500D01*
X396063D01*
X396134Y243964D01*
X396533Y242999D01*
X396886Y242539D01*
X396639Y242039D01*
X355000D01*
X354220Y241884D01*
X353558Y241442D01*
X346058Y233942D01*
X345616Y233280D01*
X345461Y232500D01*
Y128345D01*
X340975Y123858D01*
X340000Y123987D01*
X339025Y123858D01*
X321442Y141442D01*
X320780Y141884D01*
X320000Y142039D01*
X303294D01*
X302749Y142749D01*
X301944Y143367D01*
X301006Y143755D01*
X300000Y143888D01*
X299113Y143771D01*
X296442Y146442D01*
X295780Y146884D01*
X295000Y147039D01*
X273217D01*
X272970Y147539D01*
X273367Y148056D01*
X273755Y148994D01*
X273888Y150000D01*
X273755Y151006D01*
X273367Y151944D01*
X272749Y152749D01*
X271944Y153367D01*
X271006Y153755D01*
X270000Y153888D01*
X268994Y153755D01*
X268056Y153367D01*
X267251Y152749D01*
X266633Y151944D01*
X266245Y151006D01*
X266112Y150000D01*
X266245Y148994D01*
X266633Y148056D01*
X267030Y147539D01*
X266783Y147039D01*
X175000D01*
X174220Y146884D01*
X173558Y146442D01*
X170887Y143771D01*
X170000Y143888D01*
X168994Y143755D01*
X168056Y143367D01*
X167251Y142749D01*
X166633Y141944D01*
X166245Y141006D01*
X166112Y140000D01*
X166245Y138994D01*
X166633Y138056D01*
X167251Y137251D01*
X168056Y136633D01*
X168994Y136245D01*
X170000Y136112D01*
X171006Y136245D01*
X171944Y136633D01*
X172749Y137251D01*
X173367Y138056D01*
X173755Y138994D01*
X173888Y140000D01*
X173771Y140887D01*
X175845Y142961D01*
X266783D01*
X267030Y142461D01*
X266633Y141944D01*
X266245Y141006D01*
X266244Y140996D01*
X265848Y140732D01*
X253011Y127895D01*
X252569Y127233D01*
X252414Y126453D01*
Y32418D01*
X251634Y31819D01*
X251035Y31039D01*
X154345D01*
X147039Y38345D01*
Y135000D01*
X146884Y135780D01*
X146442Y136442D01*
X143771Y139113D01*
X143888Y140000D01*
X143755Y141006D01*
X143367Y141944D01*
X142749Y142749D01*
X141944Y143367D01*
X141006Y143755D01*
X140000Y143888D01*
X138994Y143755D01*
X138056Y143367D01*
X137251Y142749D01*
X136633Y141944D01*
X136245Y141006D01*
X136112Y140000D01*
X136245Y138994D01*
X136633Y138056D01*
X137251Y137251D01*
X138056Y136633D01*
X138994Y136245D01*
X140000Y136112D01*
X140887Y136229D01*
X142961Y134155D01*
Y133217D01*
X142461Y132970D01*
X141944Y133367D01*
X141006Y133755D01*
X140000Y133888D01*
X138994Y133755D01*
X138056Y133367D01*
X137251Y132749D01*
X136633Y131944D01*
X136245Y131006D01*
X136112Y130000D01*
X136245Y128994D01*
X136633Y128056D01*
X137251Y127251D01*
X138056Y126633D01*
X138994Y126245D01*
X140000Y126112D01*
X141006Y126245D01*
X141944Y126633D01*
X142461Y127030D01*
X142961Y126783D01*
Y123217D01*
X142461Y122970D01*
X141944Y123367D01*
X141006Y123755D01*
X140000Y123888D01*
X138994Y123755D01*
X138056Y123367D01*
X137251Y122749D01*
X136633Y121944D01*
X136245Y121006D01*
X136112Y120000D01*
X136245Y118994D01*
X136633Y118056D01*
X137251Y117251D01*
X138056Y116633D01*
X138994Y116245D01*
X140000Y116112D01*
X141006Y116245D01*
X141944Y116633D01*
X142461Y117030D01*
X142961Y116783D01*
Y113217D01*
X142461Y112970D01*
X141944Y113367D01*
X141006Y113755D01*
X140000Y113888D01*
X138994Y113755D01*
X138056Y113367D01*
X137251Y112749D01*
X136633Y111944D01*
X136245Y111006D01*
X136112Y110000D01*
X136245Y108994D01*
X136633Y108056D01*
X137251Y107251D01*
X138056Y106633D01*
X138994Y106245D01*
X140000Y106112D01*
X141006Y106245D01*
X141944Y106633D01*
X142461Y107030D01*
X142961Y106783D01*
Y37500D01*
X143116Y36720D01*
X143558Y36058D01*
X152058Y27558D01*
X152720Y27116D01*
X153500Y26961D01*
X251035D01*
X251634Y26181D01*
X252414Y25582D01*
Y15547D01*
X252569Y14767D01*
X253011Y14105D01*
X256058Y11058D01*
X256720Y10616D01*
X257500Y10461D01*
X430965D01*
X431745Y10616D01*
X432407Y11058D01*
X435740Y14392D01*
X436214Y14231D01*
X436245Y13994D01*
X436633Y13056D01*
X437251Y12251D01*
X438056Y11633D01*
X438994Y11245D01*
X440000Y11112D01*
X441006Y11245D01*
X441944Y11633D01*
X442749Y12251D01*
X443367Y13056D01*
X443755Y13994D01*
X443888Y15000D01*
X443755Y16006D01*
X443367Y16944D01*
X442749Y17749D01*
X441944Y18367D01*
X441006Y18755D01*
X440000Y18888D01*
X438994Y18755D01*
X438056Y18367D01*
X437460Y17910D01*
X436960Y18156D01*
Y21844D01*
X437460Y22090D01*
X438056Y21633D01*
X438994Y21245D01*
X440000Y21112D01*
X441006Y21245D01*
X441944Y21633D01*
X442749Y22251D01*
X443367Y23056D01*
X443755Y23994D01*
X443888Y25000D01*
X443755Y26006D01*
X443367Y26944D01*
X442749Y27749D01*
X441944Y28367D01*
X441006Y28755D01*
X440000Y28888D01*
X438994Y28755D01*
X438056Y28367D01*
X437460Y27910D01*
X436960Y28156D01*
Y31844D01*
X437460Y32090D01*
X438056Y31633D01*
X438994Y31245D01*
X440000Y31112D01*
X441006Y31245D01*
X441944Y31633D01*
X442749Y32251D01*
X443367Y33056D01*
X443755Y33994D01*
X443888Y35000D01*
X443755Y36006D01*
X443367Y36944D01*
X442749Y37749D01*
X441944Y38367D01*
X441006Y38755D01*
X440000Y38888D01*
X438994Y38755D01*
X438056Y38367D01*
X437460Y37910D01*
X436960Y38156D01*
Y39077D01*
X439113Y41229D01*
X440000Y41112D01*
X441006Y41245D01*
X441944Y41633D01*
X442749Y42251D01*
X443367Y43056D01*
X443755Y43994D01*
X443888Y45000D01*
X443771Y45887D01*
X446442Y48558D01*
X446884Y49220D01*
X447039Y50000D01*
Y135000D01*
X446884Y135780D01*
X446442Y136442D01*
X443771Y139113D01*
X443888Y140000D01*
X443755Y141006D01*
X443367Y141944D01*
X442749Y142749D01*
X441944Y143367D01*
X441006Y143755D01*
X440000Y143888D01*
X439113Y143771D01*
X436945Y145939D01*
Y146858D01*
X437445Y147102D01*
X438056Y146633D01*
X438994Y146245D01*
X440000Y146112D01*
X441006Y146245D01*
X441944Y146633D01*
X442749Y147251D01*
X443367Y148056D01*
X443755Y148994D01*
X443888Y150000D01*
X443755Y151006D01*
X443367Y151944D01*
X442749Y152749D01*
X441944Y153367D01*
X441006Y153755D01*
X440000Y153888D01*
X438994Y153755D01*
X438056Y153367D01*
X437445Y152898D01*
X436945Y153142D01*
Y156858D01*
X437445Y157103D01*
X438056Y156633D01*
X438994Y156245D01*
X440000Y156112D01*
X441006Y156245D01*
X441944Y156633D01*
X442749Y157251D01*
X443367Y158056D01*
X443755Y158994D01*
X443888Y160000D01*
X443755Y161006D01*
X443367Y161944D01*
X442749Y162749D01*
X441944Y163367D01*
X441006Y163755D01*
X440000Y163888D01*
X438994Y163755D01*
X438056Y163367D01*
X437445Y162898D01*
X436945Y163142D01*
Y166146D01*
X443854D01*
Y173854D01*
X436945D01*
Y201858D01*
X437445Y202102D01*
X438056Y201633D01*
X438994Y201245D01*
X440000Y201112D01*
X441006Y201245D01*
X441944Y201633D01*
X442749Y202251D01*
X443367Y203056D01*
X443755Y203994D01*
X443888Y205000D01*
X443755Y206006D01*
X443367Y206944D01*
X442749Y207749D01*
X441944Y208367D01*
X441006Y208755D01*
X440000Y208888D01*
X438994Y208755D01*
X438056Y208367D01*
X437445Y207897D01*
X436945Y208142D01*
Y211858D01*
X437445Y212103D01*
X438056Y211633D01*
X438994Y211245D01*
X440000Y211112D01*
X441006Y211245D01*
X441944Y211633D01*
X442749Y212251D01*
X443367Y213056D01*
X443755Y213994D01*
X443888Y215000D01*
X443755Y216006D01*
X443367Y216944D01*
X442749Y217749D01*
X441944Y218367D01*
X441006Y218755D01*
X440000Y218888D01*
X438994Y218755D01*
X438056Y218367D01*
X437445Y217898D01*
X436945Y218142D01*
Y221858D01*
X437445Y222102D01*
X438056Y221633D01*
X438994Y221245D01*
X439500Y221178D01*
Y225000D01*
Y228822D01*
X438994Y228755D01*
X438056Y228367D01*
X437445Y227898D01*
X436945Y228142D01*
Y229061D01*
X439113Y231229D01*
X440000Y231112D01*
X441006Y231245D01*
X441944Y231633D01*
X442749Y232251D01*
X443367Y233056D01*
X443755Y233994D01*
X443888Y235000D01*
X443755Y236006D01*
X443367Y236944D01*
X442970Y237461D01*
X443217Y237961D01*
X464155D01*
X466229Y235887D01*
X466112Y235000D01*
X466245Y233994D01*
X466633Y233056D01*
X467251Y232251D01*
X468056Y231633D01*
X468994Y231245D01*
X470000Y231112D01*
X470887Y231229D01*
X472961Y229155D01*
Y228217D01*
X472461Y227970D01*
X471944Y228367D01*
X471006Y228755D01*
X470500Y228822D01*
Y225000D01*
Y221178D01*
X471006Y221245D01*
X471944Y221633D01*
X472461Y222030D01*
X472961Y221783D01*
Y218217D01*
X472461Y217970D01*
X471944Y218367D01*
X471006Y218755D01*
X470000Y218888D01*
X468994Y218755D01*
X468056Y218367D01*
X467251Y217749D01*
X466633Y216944D01*
X466245Y216006D01*
X466112Y215000D01*
X466245Y213994D01*
X466633Y213056D01*
X467251Y212251D01*
X468056Y211633D01*
X468994Y211245D01*
X470000Y211112D01*
X471006Y211245D01*
X471944Y211633D01*
X472461Y212030D01*
X472961Y211783D01*
Y208217D01*
X472461Y207970D01*
X471944Y208367D01*
X471006Y208755D01*
X470000Y208888D01*
X468994Y208755D01*
X468056Y208367D01*
X467251Y207749D01*
X466633Y206944D01*
X466245Y206006D01*
X466112Y205000D01*
X466245Y203994D01*
X466633Y203056D01*
X467251Y202251D01*
X468056Y201633D01*
X468994Y201245D01*
X470000Y201112D01*
X471006Y201245D01*
X471944Y201633D01*
X472461Y202030D01*
X472961Y201783D01*
Y173217D01*
X472461Y172970D01*
X471944Y173367D01*
X471006Y173755D01*
X470000Y173888D01*
X468994Y173755D01*
X468056Y173367D01*
X467251Y172749D01*
X466633Y171944D01*
X466245Y171006D01*
X466112Y170000D01*
X466245Y168994D01*
X466633Y168056D01*
X467251Y167251D01*
X468056Y166633D01*
X468994Y166245D01*
X470000Y166112D01*
X471006Y166245D01*
X471944Y166633D01*
X472461Y167030D01*
X472961Y166783D01*
Y163217D01*
X472461Y162970D01*
X471944Y163367D01*
X471006Y163755D01*
X470000Y163888D01*
X468994Y163755D01*
X468056Y163367D01*
X467251Y162749D01*
X466633Y161944D01*
X466245Y161006D01*
X466112Y160000D01*
X466245Y158994D01*
X466633Y158056D01*
X467251Y157251D01*
X468056Y156633D01*
X468994Y156245D01*
X470000Y156112D01*
X471006Y156245D01*
X471944Y156633D01*
X472461Y157030D01*
X472961Y156783D01*
Y153217D01*
X472461Y152970D01*
X471944Y153367D01*
X471006Y153755D01*
X470000Y153888D01*
X468994Y153755D01*
X468056Y153367D01*
X467251Y152749D01*
X466633Y151944D01*
X466245Y151006D01*
X466112Y150000D01*
X466245Y148994D01*
X466633Y148056D01*
X467251Y147251D01*
X468056Y146633D01*
X468994Y146245D01*
X470000Y146112D01*
X471006Y146245D01*
X471944Y146633D01*
X472461Y147030D01*
X472961Y146783D01*
Y145845D01*
X470887Y143771D01*
X470000Y143888D01*
X468994Y143755D01*
X468056Y143367D01*
X467251Y142749D01*
X466633Y141944D01*
X466245Y141006D01*
X466112Y140000D01*
X466245Y138994D01*
X466633Y138056D01*
X467251Y137251D01*
X468056Y136633D01*
X468994Y136245D01*
X470000Y136112D01*
X470887Y136229D01*
X472961Y134155D01*
Y133217D01*
X472461Y132970D01*
X471944Y133367D01*
X471006Y133755D01*
X470000Y133888D01*
X468994Y133755D01*
X468056Y133367D01*
X467251Y132749D01*
X466633Y131944D01*
X466245Y131006D01*
X466112Y130000D01*
X466245Y128994D01*
X466633Y128056D01*
X467251Y127251D01*
X468056Y126633D01*
X468994Y126245D01*
X470000Y126112D01*
X471006Y126245D01*
X471944Y126633D01*
X472461Y127030D01*
X472961Y126783D01*
Y123217D01*
X472461Y122970D01*
X471944Y123367D01*
X471006Y123755D01*
X470000Y123888D01*
X468994Y123755D01*
X468056Y123367D01*
X467251Y122749D01*
X466633Y121944D01*
X466245Y121006D01*
X466112Y120000D01*
X466245Y118994D01*
X466633Y118056D01*
X467251Y117251D01*
X468056Y116633D01*
X468994Y116245D01*
X470000Y116112D01*
X471006Y116245D01*
X471944Y116633D01*
X472461Y117030D01*
X472961Y116783D01*
Y113217D01*
X472461Y112970D01*
X471944Y113367D01*
X471006Y113755D01*
X470000Y113888D01*
X468994Y113755D01*
X468056Y113367D01*
X467251Y112749D01*
X466633Y111944D01*
X466245Y111006D01*
X466112Y110000D01*
X466245Y108994D01*
X466633Y108056D01*
X467251Y107251D01*
X468056Y106633D01*
X468994Y106245D01*
X470000Y106112D01*
X471006Y106245D01*
X471944Y106633D01*
X472461Y107030D01*
X472961Y106783D01*
Y78217D01*
X472461Y77970D01*
X471944Y78367D01*
X471006Y78755D01*
X470000Y78888D01*
X468994Y78755D01*
X468056Y78367D01*
X467251Y77749D01*
X466633Y76944D01*
X466245Y76006D01*
X466112Y75000D01*
X466245Y73994D01*
X466633Y73056D01*
X467251Y72251D01*
X468056Y71633D01*
X468994Y71245D01*
X470000Y71112D01*
X471006Y71245D01*
X471944Y71633D01*
X472461Y72030D01*
X472961Y71783D01*
Y68217D01*
X472461Y67970D01*
X471944Y68367D01*
X471006Y68755D01*
X470000Y68888D01*
X468994Y68755D01*
X468056Y68367D01*
X467251Y67749D01*
X466633Y66944D01*
X466245Y66006D01*
X466112Y65000D01*
X466245Y63994D01*
X466633Y63056D01*
X467251Y62251D01*
X468056Y61633D01*
X468994Y61245D01*
X470000Y61112D01*
X471006Y61245D01*
X471944Y61633D01*
X472461Y62030D01*
X472961Y61783D01*
Y58217D01*
X472461Y57970D01*
X471944Y58367D01*
X471006Y58755D01*
X470000Y58888D01*
X468994Y58755D01*
X468056Y58367D01*
X467251Y57749D01*
X466633Y56944D01*
X466245Y56006D01*
X466112Y55000D01*
X466245Y53994D01*
X466633Y53056D01*
X467251Y52251D01*
X468056Y51633D01*
X468994Y51245D01*
X470000Y51112D01*
X471006Y51245D01*
X471944Y51633D01*
X472461Y52030D01*
X472961Y51783D01*
Y50845D01*
X470887Y48771D01*
X470000Y48888D01*
X468994Y48755D01*
X468056Y48367D01*
X467251Y47749D01*
X466633Y46944D01*
X466245Y46006D01*
X466112Y45000D01*
X466245Y43994D01*
X466633Y43056D01*
X467251Y42251D01*
X468056Y41633D01*
X468994Y41245D01*
X470000Y41112D01*
X471006Y41245D01*
X471944Y41633D01*
X472749Y42251D01*
X473367Y43056D01*
X473755Y43994D01*
X473888Y45000D01*
X473771Y45887D01*
X476442Y48558D01*
X476884Y49220D01*
X477039Y50000D01*
Y135000D01*
X476884Y135780D01*
X476442Y136442D01*
X473771Y139113D01*
X473888Y140000D01*
X473771Y140887D01*
X476442Y143558D01*
X476884Y144220D01*
X477039Y145000D01*
Y230000D01*
X476884Y230780D01*
X476442Y231442D01*
X473771Y234113D01*
X473888Y235000D01*
X473755Y236006D01*
X473367Y236944D01*
X472749Y237749D01*
X471944Y238367D01*
X471006Y238755D01*
X470000Y238888D01*
X469113Y238771D01*
X466442Y241442D01*
X465780Y241884D01*
X465000Y242039D01*
X443217D01*
X442970Y242539D01*
X443367Y243056D01*
X443755Y243994D01*
X443888Y245000D01*
X443755Y246006D01*
X443367Y246944D01*
X442749Y247749D01*
X441944Y248367D01*
X441006Y248755D01*
X440000Y248888D01*
X438994Y248755D01*
X438056Y248367D01*
X437251Y247749D01*
X436633Y246944D01*
X436245Y246006D01*
X436112Y245000D01*
X436245Y243994D01*
X436633Y243056D01*
X437030Y242539D01*
X436783Y242039D01*
X423969D01*
Y248969D01*
D02*
G37*
G36*
X473822Y244500D02*
X470500D01*
Y241178D01*
X471006Y241245D01*
X471944Y241633D01*
X472749Y242251D01*
X473367Y243056D01*
X473755Y243994D01*
X473822Y244500D01*
D02*
G37*
G36*
X469500D02*
X466178D01*
X466245Y243994D01*
X466633Y243056D01*
X467251Y242251D01*
X468056Y241633D01*
X468994Y241245D01*
X469500Y241178D01*
Y244500D01*
D02*
G37*
G36*
X440500Y228822D02*
Y225500D01*
X443822D01*
X443755Y226006D01*
X443367Y226944D01*
X442749Y227749D01*
X441944Y228367D01*
X441006Y228755D01*
X440500Y228822D01*
D02*
G37*
G36*
X469500D02*
X468994Y228755D01*
X468056Y228367D01*
X467251Y227749D01*
X466633Y226944D01*
X466245Y226006D01*
X466178Y225500D01*
X469500D01*
Y228822D01*
D02*
G37*
G36*
X443822Y224500D02*
X440500D01*
Y221178D01*
X441006Y221245D01*
X441944Y221633D01*
X442749Y222251D01*
X443367Y223056D01*
X443755Y223994D01*
X443822Y224500D01*
D02*
G37*
G36*
X469500D02*
X466178D01*
X466245Y223994D01*
X466633Y223056D01*
X467251Y222251D01*
X468056Y221633D01*
X468994Y221245D01*
X469500Y221178D01*
Y224500D01*
D02*
G37*
G36*
X273854Y173854D02*
X266146D01*
Y166146D01*
X273854D01*
Y173854D01*
D02*
G37*
G36*
X143854D02*
X136146D01*
Y166146D01*
X143854D01*
Y173854D01*
D02*
G37*
G36*
X300000Y173888D02*
X298994Y173755D01*
X298056Y173367D01*
X297251Y172749D01*
X296633Y171944D01*
X296245Y171006D01*
X296112Y170000D01*
X296245Y168994D01*
X296633Y168056D01*
X297251Y167251D01*
X298056Y166633D01*
X298994Y166245D01*
X300000Y166112D01*
X301006Y166245D01*
X301944Y166633D01*
X302749Y167251D01*
X303367Y168056D01*
X303755Y168994D01*
X303888Y170000D01*
X303755Y171006D01*
X303367Y171944D01*
X302749Y172749D01*
X301944Y173367D01*
X301006Y173755D01*
X300000Y173888D01*
D02*
G37*
G36*
X170000D02*
X168994Y173755D01*
X168056Y173367D01*
X167251Y172749D01*
X166633Y171944D01*
X166245Y171006D01*
X166112Y170000D01*
X166245Y168994D01*
X166633Y168056D01*
X167251Y167251D01*
X168056Y166633D01*
X168994Y166245D01*
X170000Y166112D01*
X171006Y166245D01*
X171944Y166633D01*
X172749Y167251D01*
X173367Y168056D01*
X173755Y168994D01*
X173888Y170000D01*
X173755Y171006D01*
X173367Y171944D01*
X172749Y172749D01*
X171944Y173367D01*
X171006Y173755D01*
X170000Y173888D01*
D02*
G37*
G36*
X300000Y163888D02*
X298994Y163755D01*
X298056Y163367D01*
X297251Y162749D01*
X296633Y161944D01*
X296245Y161006D01*
X296112Y160000D01*
X296245Y158994D01*
X296633Y158056D01*
X297251Y157251D01*
X298056Y156633D01*
X298994Y156245D01*
X300000Y156112D01*
X301006Y156245D01*
X301944Y156633D01*
X302749Y157251D01*
X303367Y158056D01*
X303755Y158994D01*
X303888Y160000D01*
X303755Y161006D01*
X303367Y161944D01*
X302749Y162749D01*
X301944Y163367D01*
X301006Y163755D01*
X300000Y163888D01*
D02*
G37*
G36*
X270000D02*
X268994Y163755D01*
X268056Y163367D01*
X267251Y162749D01*
X266633Y161944D01*
X266245Y161006D01*
X266112Y160000D01*
X266245Y158994D01*
X266633Y158056D01*
X267251Y157251D01*
X268056Y156633D01*
X268994Y156245D01*
X270000Y156112D01*
X271006Y156245D01*
X271944Y156633D01*
X272749Y157251D01*
X273367Y158056D01*
X273755Y158994D01*
X273888Y160000D01*
X273755Y161006D01*
X273367Y161944D01*
X272749Y162749D01*
X271944Y163367D01*
X271006Y163755D01*
X270000Y163888D01*
D02*
G37*
G36*
X170000D02*
X168994Y163755D01*
X168056Y163367D01*
X167251Y162749D01*
X166633Y161944D01*
X166245Y161006D01*
X166112Y160000D01*
X166245Y158994D01*
X166633Y158056D01*
X167251Y157251D01*
X168056Y156633D01*
X168994Y156245D01*
X170000Y156112D01*
X171006Y156245D01*
X171944Y156633D01*
X172749Y157251D01*
X173367Y158056D01*
X173755Y158994D01*
X173888Y160000D01*
X173755Y161006D01*
X173367Y161944D01*
X172749Y162749D01*
X171944Y163367D01*
X171006Y163755D01*
X170000Y163888D01*
D02*
G37*
G36*
X140000D02*
X138994Y163755D01*
X138056Y163367D01*
X137251Y162749D01*
X136633Y161944D01*
X136245Y161006D01*
X136112Y160000D01*
X136245Y158994D01*
X136633Y158056D01*
X137251Y157251D01*
X138056Y156633D01*
X138994Y156245D01*
X140000Y156112D01*
X141006Y156245D01*
X141944Y156633D01*
X142749Y157251D01*
X143367Y158056D01*
X143755Y158994D01*
X143888Y160000D01*
X143755Y161006D01*
X143367Y161944D01*
X142749Y162749D01*
X141944Y163367D01*
X141006Y163755D01*
X140000Y163888D01*
D02*
G37*
G36*
X300000Y153888D02*
X298994Y153755D01*
X298056Y153367D01*
X297251Y152749D01*
X296633Y151944D01*
X296245Y151006D01*
X296112Y150000D01*
X296245Y148994D01*
X296633Y148056D01*
X297251Y147251D01*
X298056Y146633D01*
X298994Y146245D01*
X300000Y146112D01*
X301006Y146245D01*
X301944Y146633D01*
X302749Y147251D01*
X303367Y148056D01*
X303755Y148994D01*
X303888Y150000D01*
X303755Y151006D01*
X303367Y151944D01*
X302749Y152749D01*
X301944Y153367D01*
X301006Y153755D01*
X300000Y153888D01*
D02*
G37*
G36*
X170000D02*
X168994Y153755D01*
X168056Y153367D01*
X167251Y152749D01*
X166633Y151944D01*
X166245Y151006D01*
X166112Y150000D01*
X166245Y148994D01*
X166633Y148056D01*
X167251Y147251D01*
X168056Y146633D01*
X168994Y146245D01*
X170000Y146112D01*
X171006Y146245D01*
X171944Y146633D01*
X172749Y147251D01*
X173367Y148056D01*
X173755Y148994D01*
X173888Y150000D01*
X173755Y151006D01*
X173367Y151944D01*
X172749Y152749D01*
X171944Y153367D01*
X171006Y153755D01*
X170000Y153888D01*
D02*
G37*
G36*
X140000D02*
X138994Y153755D01*
X138056Y153367D01*
X137251Y152749D01*
X136633Y151944D01*
X136245Y151006D01*
X136112Y150000D01*
X136245Y148994D01*
X136633Y148056D01*
X137251Y147251D01*
X138056Y146633D01*
X138994Y146245D01*
X140000Y146112D01*
X141006Y146245D01*
X141944Y146633D01*
X142749Y147251D01*
X143367Y148056D01*
X143755Y148994D01*
X143888Y150000D01*
X143755Y151006D01*
X143367Y151944D01*
X142749Y152749D01*
X141944Y153367D01*
X141006Y153755D01*
X140000Y153888D01*
D02*
G37*
G36*
X513969Y153969D02*
X506032D01*
Y146031D01*
X513969D01*
Y153969D01*
D02*
G37*
G36*
X343969D02*
X336032D01*
Y146031D01*
X343969D01*
Y153969D01*
D02*
G37*
G36*
X500000Y154003D02*
X498964Y153866D01*
X497999Y153466D01*
X497170Y152830D01*
X496533Y152001D01*
X496134Y151036D01*
X495997Y150000D01*
X496134Y148964D01*
X496533Y147999D01*
X497170Y147170D01*
X497999Y146534D01*
X498964Y146134D01*
X500000Y145997D01*
X501036Y146134D01*
X502001Y146534D01*
X502830Y147170D01*
X503467Y147999D01*
X503866Y148964D01*
X504003Y150000D01*
X503866Y151036D01*
X503467Y152001D01*
X502830Y152830D01*
X502001Y153466D01*
X501036Y153866D01*
X500000Y154003D01*
D02*
G37*
G36*
X490000D02*
X488964Y153866D01*
X487999Y153466D01*
X487170Y152830D01*
X486533Y152001D01*
X486134Y151036D01*
X485997Y150000D01*
X486134Y148964D01*
X486533Y147999D01*
X487170Y147170D01*
X487999Y146534D01*
X488964Y146134D01*
X490000Y145997D01*
X491036Y146134D01*
X492001Y146534D01*
X492830Y147170D01*
X493467Y147999D01*
X493866Y148964D01*
X494003Y150000D01*
X493866Y151036D01*
X493467Y152001D01*
X492830Y152830D01*
X492001Y153466D01*
X491036Y153866D01*
X490000Y154003D01*
D02*
G37*
G36*
X330000D02*
X328964Y153866D01*
X327999Y153466D01*
X327170Y152830D01*
X326534Y152001D01*
X326134Y151036D01*
X325997Y150000D01*
X326134Y148964D01*
X326534Y147999D01*
X327170Y147170D01*
X327999Y146534D01*
X328964Y146134D01*
X330000Y145997D01*
X331036Y146134D01*
X332001Y146534D01*
X332830Y147170D01*
X333467Y147999D01*
X333866Y148964D01*
X334003Y150000D01*
X333866Y151036D01*
X333467Y152001D01*
X332830Y152830D01*
X332001Y153466D01*
X331036Y153866D01*
X330000Y154003D01*
D02*
G37*
G36*
X320000D02*
X318964Y153866D01*
X317999Y153466D01*
X317170Y152830D01*
X316533Y152001D01*
X316134Y151036D01*
X315997Y150000D01*
X316134Y148964D01*
X316533Y147999D01*
X317170Y147170D01*
X317999Y146534D01*
X318964Y146134D01*
X320000Y145997D01*
X321036Y146134D01*
X322001Y146534D01*
X322830Y147170D01*
X323466Y147999D01*
X323866Y148964D01*
X324003Y150000D01*
X323866Y151036D01*
X323466Y152001D01*
X322830Y152830D01*
X322001Y153466D01*
X321036Y153866D01*
X320000Y154003D01*
D02*
G37*
G36*
X170500Y133822D02*
Y130500D01*
X173822D01*
X173755Y131006D01*
X173367Y131944D01*
X172749Y132749D01*
X171944Y133367D01*
X171006Y133755D01*
X170500Y133822D01*
D02*
G37*
G36*
X169500D02*
X168994Y133755D01*
X168056Y133367D01*
X167251Y132749D01*
X166633Y131944D01*
X166245Y131006D01*
X166178Y130500D01*
X169500D01*
Y133822D01*
D02*
G37*
G36*
X173822Y129500D02*
X170500D01*
Y126178D01*
X171006Y126245D01*
X171944Y126633D01*
X172749Y127251D01*
X173367Y128056D01*
X173755Y128994D01*
X173822Y129500D01*
D02*
G37*
G36*
X169500D02*
X166178D01*
X166245Y128994D01*
X166633Y128056D01*
X167251Y127251D01*
X168056Y126633D01*
X168994Y126245D01*
X169500Y126178D01*
Y129500D01*
D02*
G37*
G36*
X513969Y128969D02*
X506032D01*
Y121031D01*
X513969D01*
Y128969D01*
D02*
G37*
G36*
X500000Y129003D02*
X498964Y128866D01*
X497999Y128466D01*
X497170Y127830D01*
X496533Y127001D01*
X496134Y126036D01*
X495997Y125000D01*
X496134Y123964D01*
X496533Y122999D01*
X497170Y122170D01*
X497999Y121534D01*
X498964Y121134D01*
X500000Y120997D01*
X501036Y121134D01*
X502001Y121534D01*
X502830Y122170D01*
X503467Y122999D01*
X503866Y123964D01*
X504003Y125000D01*
X503866Y126036D01*
X503467Y127001D01*
X502830Y127830D01*
X502001Y128466D01*
X501036Y128866D01*
X500000Y129003D01*
D02*
G37*
G36*
X490000D02*
X488964Y128866D01*
X487999Y128466D01*
X487170Y127830D01*
X486533Y127001D01*
X486134Y126036D01*
X485997Y125000D01*
X486134Y123964D01*
X486533Y122999D01*
X487170Y122170D01*
X487999Y121534D01*
X488964Y121134D01*
X490000Y120997D01*
X491036Y121134D01*
X492001Y121534D01*
X492830Y122170D01*
X493467Y122999D01*
X493866Y123964D01*
X494003Y125000D01*
X493866Y126036D01*
X493467Y127001D01*
X492830Y127830D01*
X492001Y128466D01*
X491036Y128866D01*
X490000Y129003D01*
D02*
G37*
G36*
X170000Y123888D02*
X168994Y123755D01*
X168056Y123367D01*
X167251Y122749D01*
X166633Y121944D01*
X166245Y121006D01*
X166112Y120000D01*
X166245Y118994D01*
X166633Y118056D01*
X167251Y117251D01*
X168056Y116633D01*
X168994Y116245D01*
X170000Y116112D01*
X171006Y116245D01*
X171944Y116633D01*
X172749Y117251D01*
X173367Y118056D01*
X173755Y118994D01*
X173888Y120000D01*
X173755Y121006D01*
X173367Y121944D01*
X172749Y122749D01*
X171944Y123367D01*
X171006Y123755D01*
X170000Y123888D01*
D02*
G37*
G36*
Y113888D02*
X168994Y113755D01*
X168056Y113367D01*
X167251Y112749D01*
X166633Y111944D01*
X166245Y111006D01*
X166112Y110000D01*
X166245Y108994D01*
X166633Y108056D01*
X167251Y107251D01*
X168056Y106633D01*
X168994Y106245D01*
X170000Y106112D01*
X171006Y106245D01*
X171944Y106633D01*
X172749Y107251D01*
X173367Y108056D01*
X173755Y108994D01*
X173888Y110000D01*
X173755Y111006D01*
X173367Y111944D01*
X172749Y112749D01*
X171944Y113367D01*
X171006Y113755D01*
X170000Y113888D01*
D02*
G37*
G36*
X210500Y103937D02*
Y100500D01*
X213937D01*
X213866Y101036D01*
X213467Y102001D01*
X212830Y102830D01*
X212001Y103466D01*
X211036Y103866D01*
X210500Y103937D01*
D02*
G37*
G36*
X209500D02*
X208964Y103866D01*
X207999Y103466D01*
X207170Y102830D01*
X206534Y102001D01*
X206134Y101036D01*
X206063Y100500D01*
X209500D01*
Y103937D01*
D02*
G37*
G36*
X123969Y103969D02*
X120500D01*
Y100500D01*
X123969D01*
Y103969D01*
D02*
G37*
G36*
X119500D02*
X116032D01*
Y100500D01*
X119500D01*
Y103969D01*
D02*
G37*
G36*
X213937Y99500D02*
X210500D01*
Y96063D01*
X211036Y96134D01*
X212001Y96534D01*
X212830Y97170D01*
X213467Y97999D01*
X213866Y98964D01*
X213937Y99500D01*
D02*
G37*
G36*
X209500D02*
X206063D01*
X206134Y98964D01*
X206534Y97999D01*
X207170Y97170D01*
X207999Y96534D01*
X208964Y96134D01*
X209500Y96063D01*
Y99500D01*
D02*
G37*
G36*
X513969Y103969D02*
X506032D01*
Y96031D01*
X513969D01*
Y103969D01*
D02*
G37*
G36*
X233968D02*
X226031D01*
Y96031D01*
X233968D01*
Y103969D01*
D02*
G37*
G36*
X123969Y99500D02*
X120500D01*
Y96031D01*
X123969D01*
Y99500D01*
D02*
G37*
G36*
X119500D02*
X116032D01*
Y96031D01*
X119500D01*
Y99500D01*
D02*
G37*
G36*
X500000Y104003D02*
X498964Y103866D01*
X497999Y103466D01*
X497170Y102830D01*
X496533Y102001D01*
X496134Y101036D01*
X495997Y100000D01*
X496134Y98964D01*
X496533Y97999D01*
X497170Y97170D01*
X497999Y96534D01*
X498964Y96134D01*
X500000Y95997D01*
X501036Y96134D01*
X502001Y96534D01*
X502830Y97170D01*
X503467Y97999D01*
X503866Y98964D01*
X504003Y100000D01*
X503866Y101036D01*
X503467Y102001D01*
X502830Y102830D01*
X502001Y103466D01*
X501036Y103866D01*
X500000Y104003D01*
D02*
G37*
G36*
X490000D02*
X488964Y103866D01*
X487999Y103466D01*
X487170Y102830D01*
X486533Y102001D01*
X486134Y101036D01*
X485997Y100000D01*
X486134Y98964D01*
X486533Y97999D01*
X487170Y97170D01*
X487999Y96534D01*
X488964Y96134D01*
X490000Y95997D01*
X491036Y96134D01*
X492001Y96534D01*
X492830Y97170D01*
X493467Y97999D01*
X493866Y98964D01*
X494003Y100000D01*
X493866Y101036D01*
X493467Y102001D01*
X492830Y102830D01*
X492001Y103466D01*
X491036Y103866D01*
X490000Y104003D01*
D02*
G37*
G36*
X220000D02*
X218964Y103866D01*
X217999Y103466D01*
X217170Y102830D01*
X216533Y102001D01*
X216134Y101036D01*
X215997Y100000D01*
X216134Y98964D01*
X216533Y97999D01*
X217170Y97170D01*
X217999Y96534D01*
X218964Y96134D01*
X220000Y95997D01*
X221036Y96134D01*
X222001Y96534D01*
X222830Y97170D01*
X223466Y97999D01*
X223866Y98964D01*
X224003Y100000D01*
X223866Y101036D01*
X223466Y102001D01*
X222830Y102830D01*
X222001Y103466D01*
X221036Y103866D01*
X220000Y104003D01*
D02*
G37*
G36*
X110000D02*
X108964Y103866D01*
X107999Y103466D01*
X107170Y102830D01*
X106534Y102001D01*
X106134Y101036D01*
X105997Y100000D01*
X106134Y98964D01*
X106534Y97999D01*
X107170Y97170D01*
X107999Y96534D01*
X108964Y96134D01*
X110000Y95997D01*
X111036Y96134D01*
X112001Y96534D01*
X112830Y97170D01*
X113467Y97999D01*
X113866Y98964D01*
X114003Y100000D01*
X113866Y101036D01*
X113467Y102001D01*
X112830Y102830D01*
X112001Y103466D01*
X111036Y103866D01*
X110000Y104003D01*
D02*
G37*
G36*
X100000D02*
X98964Y103866D01*
X97999Y103466D01*
X97170Y102830D01*
X96534Y102001D01*
X96134Y101036D01*
X95997Y100000D01*
X96134Y98964D01*
X96534Y97999D01*
X97170Y97170D01*
X97999Y96534D01*
X98964Y96134D01*
X100000Y95997D01*
X101036Y96134D01*
X102001Y96534D01*
X102830Y97170D01*
X103466Y97999D01*
X103866Y98964D01*
X104003Y100000D01*
X103866Y101036D01*
X103466Y102001D01*
X102830Y102830D01*
X102001Y103466D01*
X101036Y103866D01*
X100000Y104003D01*
D02*
G37*
G36*
X513969Y58969D02*
X506032D01*
Y51032D01*
X513969D01*
Y58969D01*
D02*
G37*
G36*
X500000Y59003D02*
X498964Y58866D01*
X497999Y58467D01*
X497170Y57830D01*
X496533Y57001D01*
X496134Y56036D01*
X495997Y55000D01*
X496134Y53964D01*
X496533Y52999D01*
X497170Y52170D01*
X497999Y51534D01*
X498964Y51134D01*
X500000Y50997D01*
X501036Y51134D01*
X502001Y51534D01*
X502830Y52170D01*
X503467Y52999D01*
X503866Y53964D01*
X504003Y55000D01*
X503866Y56036D01*
X503467Y57001D01*
X502830Y57830D01*
X502001Y58467D01*
X501036Y58866D01*
X500000Y59003D01*
D02*
G37*
G36*
X490000D02*
X488964Y58866D01*
X487999Y58467D01*
X487170Y57830D01*
X486533Y57001D01*
X486134Y56036D01*
X485997Y55000D01*
X486134Y53964D01*
X486533Y52999D01*
X487170Y52170D01*
X487999Y51534D01*
X488964Y51134D01*
X490000Y50997D01*
X491036Y51134D01*
X492001Y51534D01*
X492830Y52170D01*
X493467Y52999D01*
X493866Y53964D01*
X494003Y55000D01*
X493866Y56036D01*
X493467Y57001D01*
X492830Y57830D01*
X492001Y58467D01*
X491036Y58866D01*
X490000Y59003D01*
D02*
G37*
G36*
X470000Y38888D02*
X468994Y38755D01*
X468056Y38367D01*
X467251Y37749D01*
X466633Y36944D01*
X466245Y36006D01*
X466112Y35000D01*
X466245Y33994D01*
X466633Y33056D01*
X467251Y32251D01*
X468056Y31633D01*
X468994Y31245D01*
X470000Y31112D01*
X471006Y31245D01*
X471944Y31633D01*
X472749Y32251D01*
X473367Y33056D01*
X473755Y33994D01*
X473888Y35000D01*
X473755Y36006D01*
X473367Y36944D01*
X472749Y37749D01*
X471944Y38367D01*
X471006Y38755D01*
X470000Y38888D01*
D02*
G37*
G36*
Y28888D02*
X468994Y28755D01*
X468056Y28367D01*
X467251Y27749D01*
X466633Y26944D01*
X466245Y26006D01*
X466112Y25000D01*
X466245Y23994D01*
X466633Y23056D01*
X467251Y22251D01*
X468056Y21633D01*
X468994Y21245D01*
X470000Y21112D01*
X471006Y21245D01*
X471944Y21633D01*
X472749Y22251D01*
X473367Y23056D01*
X473755Y23994D01*
X473888Y25000D01*
X473755Y26006D01*
X473367Y26944D01*
X472749Y27749D01*
X471944Y28367D01*
X471006Y28755D01*
X470000Y28888D01*
D02*
G37*
G36*
X15500Y18921D02*
Y15500D01*
X18921D01*
X18851Y16032D01*
X18453Y16993D01*
X17819Y17819D01*
X16993Y18453D01*
X16032Y18851D01*
X15500Y18921D01*
D02*
G37*
G36*
X14500D02*
X13968Y18851D01*
X13007Y18453D01*
X12181Y17819D01*
X11547Y16993D01*
X11149Y16032D01*
X11079Y15500D01*
X14500D01*
Y18921D01*
D02*
G37*
G36*
X470000Y18888D02*
X468994Y18755D01*
X468056Y18367D01*
X467251Y17749D01*
X466633Y16944D01*
X466245Y16006D01*
X466112Y15000D01*
X466245Y13994D01*
X466633Y13056D01*
X467251Y12251D01*
X468056Y11633D01*
X468994Y11245D01*
X470000Y11112D01*
X471006Y11245D01*
X471944Y11633D01*
X472749Y12251D01*
X473367Y13056D01*
X473755Y13994D01*
X473888Y15000D01*
X473755Y16006D01*
X473367Y16944D01*
X472749Y17749D01*
X471944Y18367D01*
X471006Y18755D01*
X470000Y18888D01*
D02*
G37*
G36*
X18921Y14500D02*
X15500D01*
Y11079D01*
X16032Y11149D01*
X16993Y11547D01*
X17819Y12181D01*
X18453Y13007D01*
X18851Y13968D01*
X18921Y14500D01*
D02*
G37*
G36*
X14500D02*
X11079D01*
X11149Y13968D01*
X11547Y13007D01*
X12181Y12181D01*
X13007Y11547D01*
X13968Y11149D01*
X14500Y11079D01*
Y14500D01*
D02*
G37*
G36*
X580500Y13921D02*
Y10500D01*
X583921D01*
X583851Y11032D01*
X583453Y11993D01*
X582819Y12819D01*
X581993Y13453D01*
X581032Y13851D01*
X580500Y13921D01*
D02*
G37*
G36*
X579500D02*
X578968Y13851D01*
X578007Y13453D01*
X577181Y12819D01*
X576547Y11993D01*
X576149Y11032D01*
X576079Y10500D01*
X579500D01*
Y13921D01*
D02*
G37*
G36*
X583921Y9500D02*
X580500D01*
Y6079D01*
X581032Y6149D01*
X581993Y6547D01*
X582819Y7181D01*
X583453Y8007D01*
X583851Y8968D01*
X583921Y9500D01*
D02*
G37*
G36*
X579500D02*
X576079D01*
X576149Y8968D01*
X576547Y8007D01*
X577181Y7181D01*
X578007Y6547D01*
X578968Y6149D01*
X579500Y6079D01*
Y9500D01*
D02*
G37*
%LPD*%
G36*
X437030Y237461D02*
X436633Y236944D01*
X436245Y236006D01*
X436112Y235000D01*
X436229Y234113D01*
X433464Y231347D01*
X433022Y230686D01*
X432866Y229906D01*
Y145095D01*
X433022Y144314D01*
X433464Y143653D01*
X436229Y140887D01*
X436112Y140000D01*
X436229Y139113D01*
X434155Y137039D01*
X405845D01*
X403859Y139025D01*
X403987Y140000D01*
X403851Y141032D01*
X403453Y141993D01*
X402819Y142819D01*
X401993Y143453D01*
X401032Y143851D01*
X400000Y143987D01*
X398968Y143851D01*
X398007Y143453D01*
X397181Y142819D01*
X396547Y141993D01*
X396149Y141032D01*
X396013Y140000D01*
X396149Y138968D01*
X396547Y138007D01*
X397181Y137181D01*
X398007Y136547D01*
X398968Y136149D01*
X400000Y136013D01*
X400975Y136142D01*
X403558Y133558D01*
X404220Y133116D01*
X405000Y132961D01*
X435000D01*
X435780Y133116D01*
X436442Y133558D01*
X439113Y136229D01*
X440000Y136112D01*
X440887Y136229D01*
X442961Y134155D01*
Y133217D01*
X442461Y132970D01*
X441944Y133367D01*
X441006Y133755D01*
X440000Y133888D01*
X438994Y133755D01*
X438056Y133367D01*
X437251Y132749D01*
X436633Y131944D01*
X436245Y131006D01*
X436112Y130000D01*
X436245Y128994D01*
X436633Y128056D01*
X437251Y127251D01*
X438056Y126633D01*
X438994Y126245D01*
X440000Y126112D01*
X441006Y126245D01*
X441944Y126633D01*
X442461Y127030D01*
X442961Y126783D01*
Y123217D01*
X442461Y122970D01*
X441944Y123367D01*
X441006Y123755D01*
X440000Y123888D01*
X438994Y123755D01*
X438056Y123367D01*
X437251Y122749D01*
X436633Y121944D01*
X436245Y121006D01*
X436112Y120000D01*
X436245Y118994D01*
X436633Y118056D01*
X437251Y117251D01*
X438056Y116633D01*
X438994Y116245D01*
X440000Y116112D01*
X441006Y116245D01*
X441944Y116633D01*
X442461Y117030D01*
X442961Y116783D01*
Y113217D01*
X442461Y112970D01*
X441944Y113367D01*
X441006Y113755D01*
X440000Y113888D01*
X438994Y113755D01*
X438056Y113367D01*
X437251Y112749D01*
X436633Y111944D01*
X436245Y111006D01*
X436112Y110000D01*
X436245Y108994D01*
X436633Y108056D01*
X437251Y107251D01*
X438056Y106633D01*
X438994Y106245D01*
X440000Y106112D01*
X441006Y106245D01*
X441944Y106633D01*
X442461Y107030D01*
X442961Y106783D01*
Y78854D01*
X436146D01*
Y71146D01*
X442961D01*
Y68217D01*
X442461Y67970D01*
X441944Y68367D01*
X441006Y68755D01*
X440000Y68888D01*
X438994Y68755D01*
X438056Y68367D01*
X437251Y67749D01*
X436633Y66944D01*
X436245Y66006D01*
X436112Y65000D01*
X436245Y63994D01*
X436633Y63056D01*
X437251Y62251D01*
X438056Y61633D01*
X438994Y61245D01*
X440000Y61112D01*
X441006Y61245D01*
X441944Y61633D01*
X442461Y62030D01*
X442961Y61783D01*
Y58217D01*
X442461Y57970D01*
X441944Y58367D01*
X441006Y58755D01*
X440000Y58888D01*
X438994Y58755D01*
X438056Y58367D01*
X437251Y57749D01*
X436633Y56944D01*
X436245Y56006D01*
X436112Y55000D01*
X436245Y53994D01*
X436633Y53056D01*
X437251Y52251D01*
X438056Y51633D01*
X438994Y51245D01*
X440000Y51112D01*
X441006Y51245D01*
X441944Y51633D01*
X442461Y52030D01*
X442961Y51783D01*
Y50845D01*
X440887Y48771D01*
X440000Y48888D01*
X438994Y48755D01*
X438056Y48367D01*
X437251Y47749D01*
X436633Y46944D01*
X436245Y46006D01*
X436112Y45000D01*
X436229Y44113D01*
X433479Y41363D01*
X433037Y40702D01*
X432882Y39921D01*
Y17301D01*
X430120Y14539D01*
X258345D01*
X256492Y16392D01*
Y25582D01*
X257272Y26181D01*
X257906Y27007D01*
X258304Y27968D01*
X258440Y29000D01*
X258304Y30032D01*
X257906Y30993D01*
X257272Y31819D01*
X256492Y32418D01*
Y125608D01*
X267751Y136867D01*
X268056Y136633D01*
X268994Y136245D01*
X270000Y136112D01*
X271006Y136245D01*
X271944Y136633D01*
X272749Y137251D01*
X273367Y138056D01*
X273755Y138994D01*
X273888Y140000D01*
X273755Y141006D01*
X273367Y141944D01*
X272970Y142461D01*
X273217Y142961D01*
X294155D01*
X296229Y140887D01*
X296112Y140000D01*
X296245Y138994D01*
X296633Y138056D01*
X297251Y137251D01*
X298056Y136633D01*
X298994Y136245D01*
X300000Y136112D01*
X301006Y136245D01*
X301944Y136633D01*
X302749Y137251D01*
X303294Y137961D01*
X319155D01*
X336141Y120975D01*
X336013Y120000D01*
X336149Y118968D01*
X336547Y118007D01*
X337181Y117181D01*
X338007Y116547D01*
X338968Y116149D01*
X340000Y116013D01*
X340975Y116141D01*
X342961Y114155D01*
Y103969D01*
X336032D01*
Y96031D01*
X342961D01*
Y63345D01*
X339155Y59539D01*
X278418D01*
X277819Y60319D01*
X276993Y60953D01*
X276032Y61351D01*
X275000Y61487D01*
X273968Y61351D01*
X273007Y60953D01*
X272181Y60319D01*
X271547Y59493D01*
X271149Y58532D01*
X271013Y57500D01*
X271149Y56468D01*
X271547Y55507D01*
X272181Y54681D01*
X273007Y54047D01*
X273968Y53649D01*
X275000Y53513D01*
X276032Y53649D01*
X276993Y54047D01*
X277819Y54681D01*
X278418Y55461D01*
X340000D01*
X340780Y55616D01*
X341442Y56058D01*
X346442Y61058D01*
X346884Y61720D01*
X347039Y62500D01*
Y115000D01*
X346884Y115780D01*
X346442Y116442D01*
X343859Y119025D01*
X343987Y120000D01*
X343859Y120975D01*
X348942Y126058D01*
X349384Y126720D01*
X349539Y127500D01*
Y231655D01*
X355845Y237961D01*
X436783D01*
X437030Y237461D01*
D02*
G37*
%LPC*%
G36*
X383968Y153969D02*
X380500D01*
Y150500D01*
X383968D01*
Y153969D01*
D02*
G37*
G36*
X379500D02*
X376031D01*
Y150500D01*
X379500D01*
Y153969D01*
D02*
G37*
G36*
X423969D02*
X416032D01*
Y146031D01*
X423969D01*
Y153969D01*
D02*
G37*
G36*
X383968Y149500D02*
X380500D01*
Y146031D01*
X383968D01*
Y149500D01*
D02*
G37*
G36*
X379500D02*
X376031D01*
Y146031D01*
X379500D01*
Y149500D01*
D02*
G37*
G36*
X410000Y154003D02*
X408964Y153866D01*
X407999Y153466D01*
X407170Y152830D01*
X406533Y152001D01*
X406134Y151036D01*
X405997Y150000D01*
X406134Y148964D01*
X406533Y147999D01*
X407170Y147170D01*
X407999Y146534D01*
X408964Y146134D01*
X410000Y145997D01*
X411036Y146134D01*
X412001Y146534D01*
X412830Y147170D01*
X413467Y147999D01*
X413866Y148964D01*
X414003Y150000D01*
X413866Y151036D01*
X413467Y152001D01*
X412830Y152830D01*
X412001Y153466D01*
X411036Y153866D01*
X410000Y154003D01*
D02*
G37*
G36*
X400000D02*
X398964Y153866D01*
X397999Y153466D01*
X397170Y152830D01*
X396533Y152001D01*
X396134Y151036D01*
X395997Y150000D01*
X396134Y148964D01*
X396533Y147999D01*
X397170Y147170D01*
X397999Y146534D01*
X398964Y146134D01*
X400000Y145997D01*
X401036Y146134D01*
X402001Y146534D01*
X402830Y147170D01*
X403467Y147999D01*
X403866Y148964D01*
X404003Y150000D01*
X403866Y151036D01*
X403467Y152001D01*
X402830Y152830D01*
X402001Y153466D01*
X401036Y153866D01*
X400000Y154003D01*
D02*
G37*
G36*
X370000D02*
X368964Y153866D01*
X367999Y153466D01*
X367170Y152830D01*
X366533Y152001D01*
X366134Y151036D01*
X365997Y150000D01*
X366134Y148964D01*
X366533Y147999D01*
X367170Y147170D01*
X367999Y146534D01*
X368964Y146134D01*
X370000Y145997D01*
X371036Y146134D01*
X372001Y146534D01*
X372830Y147170D01*
X373466Y147999D01*
X373866Y148964D01*
X374003Y150000D01*
X373866Y151036D01*
X373466Y152001D01*
X372830Y152830D01*
X372001Y153466D01*
X371036Y153866D01*
X370000Y154003D01*
D02*
G37*
G36*
X360000D02*
X358964Y153866D01*
X357999Y153466D01*
X357170Y152830D01*
X356534Y152001D01*
X356134Y151036D01*
X355997Y150000D01*
X356134Y148964D01*
X356534Y147999D01*
X357170Y147170D01*
X357999Y146534D01*
X358964Y146134D01*
X360000Y145997D01*
X361036Y146134D01*
X362001Y146534D01*
X362830Y147170D01*
X363467Y147999D01*
X363866Y148964D01*
X364003Y150000D01*
X363866Y151036D01*
X363467Y152001D01*
X362830Y152830D01*
X362001Y153466D01*
X361036Y153866D01*
X360000Y154003D01*
D02*
G37*
G36*
X300500Y133822D02*
Y130500D01*
X303822D01*
X303755Y131006D01*
X303367Y131944D01*
X302749Y132749D01*
X301944Y133367D01*
X301006Y133755D01*
X300500Y133822D01*
D02*
G37*
G36*
X299500D02*
X298994Y133755D01*
X298056Y133367D01*
X297251Y132749D01*
X296633Y131944D01*
X296245Y131006D01*
X296178Y130500D01*
X299500D01*
Y133822D01*
D02*
G37*
G36*
X303822Y129500D02*
X300500D01*
Y126178D01*
X301006Y126245D01*
X301944Y126633D01*
X302749Y127251D01*
X303367Y128056D01*
X303755Y128994D01*
X303822Y129500D01*
D02*
G37*
G36*
X299500D02*
X296178D01*
X296245Y128994D01*
X296633Y128056D01*
X297251Y127251D01*
X298056Y126633D01*
X298994Y126245D01*
X299500Y126178D01*
Y129500D01*
D02*
G37*
G36*
X270000Y133888D02*
X268994Y133755D01*
X268056Y133367D01*
X267251Y132749D01*
X266633Y131944D01*
X266245Y131006D01*
X266112Y130000D01*
X266245Y128994D01*
X266633Y128056D01*
X267251Y127251D01*
X268056Y126633D01*
X268994Y126245D01*
X270000Y126112D01*
X271006Y126245D01*
X271944Y126633D01*
X272749Y127251D01*
X273367Y128056D01*
X273755Y128994D01*
X273888Y130000D01*
X273755Y131006D01*
X273367Y131944D01*
X272749Y132749D01*
X271944Y133367D01*
X271006Y133755D01*
X270000Y133888D01*
D02*
G37*
G36*
X423969Y128969D02*
X416032D01*
Y121031D01*
X423969D01*
Y128969D01*
D02*
G37*
G36*
X410000Y129003D02*
X408964Y128866D01*
X407999Y128466D01*
X407170Y127830D01*
X406533Y127001D01*
X406134Y126036D01*
X405997Y125000D01*
X406134Y123964D01*
X406533Y122999D01*
X407170Y122170D01*
X407999Y121534D01*
X408964Y121134D01*
X410000Y120997D01*
X411036Y121134D01*
X412001Y121534D01*
X412830Y122170D01*
X413467Y122999D01*
X413866Y123964D01*
X414003Y125000D01*
X413866Y126036D01*
X413467Y127001D01*
X412830Y127830D01*
X412001Y128466D01*
X411036Y128866D01*
X410000Y129003D01*
D02*
G37*
G36*
X400000D02*
X398964Y128866D01*
X397999Y128466D01*
X397170Y127830D01*
X396533Y127001D01*
X396134Y126036D01*
X395997Y125000D01*
X396134Y123964D01*
X396533Y122999D01*
X397170Y122170D01*
X397999Y121534D01*
X398964Y121134D01*
X400000Y120997D01*
X401036Y121134D01*
X402001Y121534D01*
X402830Y122170D01*
X403467Y122999D01*
X403866Y123964D01*
X404003Y125000D01*
X403866Y126036D01*
X403467Y127001D01*
X402830Y127830D01*
X402001Y128466D01*
X401036Y128866D01*
X400000Y129003D01*
D02*
G37*
G36*
X300000Y123888D02*
X298994Y123755D01*
X298056Y123367D01*
X297251Y122749D01*
X296633Y121944D01*
X296245Y121006D01*
X296112Y120000D01*
X296245Y118994D01*
X296633Y118056D01*
X297251Y117251D01*
X298056Y116633D01*
X298994Y116245D01*
X300000Y116112D01*
X301006Y116245D01*
X301944Y116633D01*
X302749Y117251D01*
X303367Y118056D01*
X303755Y118994D01*
X303888Y120000D01*
X303755Y121006D01*
X303367Y121944D01*
X302749Y122749D01*
X301944Y123367D01*
X301006Y123755D01*
X300000Y123888D01*
D02*
G37*
G36*
X270000D02*
X268994Y123755D01*
X268056Y123367D01*
X267251Y122749D01*
X266633Y121944D01*
X266245Y121006D01*
X266112Y120000D01*
X266245Y118994D01*
X266633Y118056D01*
X267251Y117251D01*
X268056Y116633D01*
X268994Y116245D01*
X270000Y116112D01*
X271006Y116245D01*
X271944Y116633D01*
X272749Y117251D01*
X273367Y118056D01*
X273755Y118994D01*
X273888Y120000D01*
X273755Y121006D01*
X273367Y121944D01*
X272749Y122749D01*
X271944Y123367D01*
X271006Y123755D01*
X270000Y123888D01*
D02*
G37*
G36*
X300000Y113888D02*
X298994Y113755D01*
X298056Y113367D01*
X297251Y112749D01*
X296633Y111944D01*
X296245Y111006D01*
X296112Y110000D01*
X296245Y108994D01*
X296633Y108056D01*
X297251Y107251D01*
X298056Y106633D01*
X298994Y106245D01*
X300000Y106112D01*
X301006Y106245D01*
X301944Y106633D01*
X302749Y107251D01*
X303367Y108056D01*
X303755Y108994D01*
X303888Y110000D01*
X303755Y111006D01*
X303367Y111944D01*
X302749Y112749D01*
X301944Y113367D01*
X301006Y113755D01*
X300000Y113888D01*
D02*
G37*
G36*
X270000D02*
X268994Y113755D01*
X268056Y113367D01*
X267251Y112749D01*
X266633Y111944D01*
X266245Y111006D01*
X266112Y110000D01*
X266245Y108994D01*
X266633Y108056D01*
X267251Y107251D01*
X268056Y106633D01*
X268994Y106245D01*
X270000Y106112D01*
X271006Y106245D01*
X271944Y106633D01*
X272749Y107251D01*
X273367Y108056D01*
X273755Y108994D01*
X273888Y110000D01*
X273755Y111006D01*
X273367Y111944D01*
X272749Y112749D01*
X271944Y113367D01*
X271006Y113755D01*
X270000Y113888D01*
D02*
G37*
G36*
X423969Y103969D02*
X416032D01*
Y96031D01*
X423969D01*
Y103969D01*
D02*
G37*
G36*
X383968D02*
X376031D01*
Y96031D01*
X383968D01*
Y103969D01*
D02*
G37*
G36*
X410000Y104003D02*
X408964Y103866D01*
X407999Y103466D01*
X407170Y102830D01*
X406533Y102001D01*
X406134Y101036D01*
X405997Y100000D01*
X406134Y98964D01*
X406533Y97999D01*
X407170Y97170D01*
X407999Y96534D01*
X408964Y96134D01*
X410000Y95997D01*
X411036Y96134D01*
X412001Y96534D01*
X412830Y97170D01*
X413467Y97999D01*
X413866Y98964D01*
X414003Y100000D01*
X413866Y101036D01*
X413467Y102001D01*
X412830Y102830D01*
X412001Y103466D01*
X411036Y103866D01*
X410000Y104003D01*
D02*
G37*
G36*
X400000D02*
X398964Y103866D01*
X397999Y103466D01*
X397170Y102830D01*
X396533Y102001D01*
X396134Y101036D01*
X395997Y100000D01*
X396134Y98964D01*
X396533Y97999D01*
X397170Y97170D01*
X397999Y96534D01*
X398964Y96134D01*
X400000Y95997D01*
X401036Y96134D01*
X402001Y96534D01*
X402830Y97170D01*
X403467Y97999D01*
X403866Y98964D01*
X404003Y100000D01*
X403866Y101036D01*
X403467Y102001D01*
X402830Y102830D01*
X402001Y103466D01*
X401036Y103866D01*
X400000Y104003D01*
D02*
G37*
G36*
X370000D02*
X368964Y103866D01*
X367999Y103466D01*
X367170Y102830D01*
X366533Y102001D01*
X366134Y101036D01*
X365997Y100000D01*
X366134Y98964D01*
X366533Y97999D01*
X367170Y97170D01*
X367999Y96534D01*
X368964Y96134D01*
X370000Y95997D01*
X371036Y96134D01*
X372001Y96534D01*
X372830Y97170D01*
X373466Y97999D01*
X373866Y98964D01*
X374003Y100000D01*
X373866Y101036D01*
X373466Y102001D01*
X372830Y102830D01*
X372001Y103466D01*
X371036Y103866D01*
X370000Y104003D01*
D02*
G37*
G36*
X360000D02*
X358964Y103866D01*
X357999Y103466D01*
X357170Y102830D01*
X356534Y102001D01*
X356134Y101036D01*
X355997Y100000D01*
X356134Y98964D01*
X356534Y97999D01*
X357170Y97170D01*
X357999Y96534D01*
X358964Y96134D01*
X360000Y95997D01*
X361036Y96134D01*
X362001Y96534D01*
X362830Y97170D01*
X363467Y97999D01*
X363866Y98964D01*
X364003Y100000D01*
X363866Y101036D01*
X363467Y102001D01*
X362830Y102830D01*
X362001Y103466D01*
X361036Y103866D01*
X360000Y104003D01*
D02*
G37*
G36*
X330000D02*
X328964Y103866D01*
X327999Y103466D01*
X327170Y102830D01*
X326534Y102001D01*
X326134Y101036D01*
X325997Y100000D01*
X326134Y98964D01*
X326534Y97999D01*
X327170Y97170D01*
X327999Y96534D01*
X328964Y96134D01*
X330000Y95997D01*
X331036Y96134D01*
X332001Y96534D01*
X332830Y97170D01*
X333467Y97999D01*
X333866Y98964D01*
X334003Y100000D01*
X333866Y101036D01*
X333467Y102001D01*
X332830Y102830D01*
X332001Y103466D01*
X331036Y103866D01*
X330000Y104003D01*
D02*
G37*
G36*
X320000D02*
X318964Y103866D01*
X317999Y103466D01*
X317170Y102830D01*
X316533Y102001D01*
X316134Y101036D01*
X315997Y100000D01*
X316134Y98964D01*
X316533Y97999D01*
X317170Y97170D01*
X317999Y96534D01*
X318964Y96134D01*
X320000Y95997D01*
X321036Y96134D01*
X322001Y96534D01*
X322830Y97170D01*
X323466Y97999D01*
X323866Y98964D01*
X324003Y100000D01*
X323866Y101036D01*
X323466Y102001D01*
X322830Y102830D01*
X322001Y103466D01*
X321036Y103866D01*
X320000Y104003D01*
D02*
G37*
G36*
X325276Y43417D02*
X324228Y43279D01*
X323252Y42874D01*
X322414Y42231D01*
X321771Y41393D01*
X321367Y40417D01*
X321229Y39370D01*
X321367Y38323D01*
X321771Y37347D01*
X322414Y36509D01*
X323252Y35866D01*
X324228Y35462D01*
X325276Y35324D01*
X326323Y35462D01*
X327299Y35866D01*
X328137Y36509D01*
X328780Y37347D01*
X329184Y38323D01*
X329322Y39370D01*
X329184Y40417D01*
X328780Y41393D01*
X328137Y42231D01*
X327299Y42874D01*
X326323Y43279D01*
X325276Y43417D01*
D02*
G37*
G36*
X315276D02*
X314228Y43279D01*
X313252Y42874D01*
X312414Y42231D01*
X311771Y41393D01*
X311367Y40417D01*
X311229Y39370D01*
X311367Y38323D01*
X311771Y37347D01*
X312414Y36509D01*
X313252Y35866D01*
X314228Y35462D01*
X315276Y35324D01*
X316323Y35462D01*
X317299Y35866D01*
X318137Y36509D01*
X318780Y37347D01*
X319184Y38323D01*
X319322Y39370D01*
X319184Y40417D01*
X318780Y41393D01*
X318137Y42231D01*
X317299Y42874D01*
X316323Y43279D01*
X315276Y43417D01*
D02*
G37*
G36*
X305276D02*
X304228Y43279D01*
X303252Y42874D01*
X302414Y42231D01*
X301771Y41393D01*
X301367Y40417D01*
X301229Y39370D01*
X301367Y38323D01*
X301771Y37347D01*
X302414Y36509D01*
X303252Y35866D01*
X304228Y35462D01*
X305276Y35324D01*
X306323Y35462D01*
X307299Y35866D01*
X308137Y36509D01*
X308780Y37347D01*
X309184Y38323D01*
X309322Y39370D01*
X309184Y40417D01*
X308780Y41393D01*
X308137Y42231D01*
X307299Y42874D01*
X306323Y43279D01*
X305276Y43417D01*
D02*
G37*
G36*
X295276D02*
X294228Y43279D01*
X293252Y42874D01*
X292414Y42231D01*
X291771Y41393D01*
X291367Y40417D01*
X291229Y39370D01*
X291367Y38323D01*
X291771Y37347D01*
X292414Y36509D01*
X293252Y35866D01*
X294228Y35462D01*
X295276Y35324D01*
X296323Y35462D01*
X297299Y35866D01*
X298137Y36509D01*
X298780Y37347D01*
X299184Y38323D01*
X299322Y39370D01*
X299184Y40417D01*
X298780Y41393D01*
X298137Y42231D01*
X297299Y42874D01*
X296323Y43279D01*
X295276Y43417D01*
D02*
G37*
G36*
X285276D02*
X284228Y43279D01*
X283252Y42874D01*
X282414Y42231D01*
X281771Y41393D01*
X281367Y40417D01*
X281229Y39370D01*
X281367Y38323D01*
X281771Y37347D01*
X282414Y36509D01*
X283252Y35866D01*
X284228Y35462D01*
X285276Y35324D01*
X286323Y35462D01*
X287299Y35866D01*
X288137Y36509D01*
X288780Y37347D01*
X289184Y38323D01*
X289322Y39370D01*
X289184Y40417D01*
X288780Y41393D01*
X288137Y42231D01*
X287299Y42874D01*
X286323Y43279D01*
X285276Y43417D01*
D02*
G37*
G36*
X275276D02*
X274228Y43279D01*
X273252Y42874D01*
X272414Y42231D01*
X271771Y41393D01*
X271367Y40417D01*
X271229Y39370D01*
X271367Y38323D01*
X271771Y37347D01*
X272414Y36509D01*
X273252Y35866D01*
X274228Y35462D01*
X275276Y35324D01*
X276323Y35462D01*
X277299Y35866D01*
X278137Y36509D01*
X278780Y37347D01*
X279184Y38323D01*
X279322Y39370D01*
X279184Y40417D01*
X278780Y41393D01*
X278137Y42231D01*
X277299Y42874D01*
X276323Y43279D01*
X275276Y43417D01*
D02*
G37*
G36*
X265276D02*
X264228Y43279D01*
X263252Y42874D01*
X262414Y42231D01*
X261771Y41393D01*
X261367Y40417D01*
X261229Y39370D01*
X261367Y38323D01*
X261771Y37347D01*
X262414Y36509D01*
X263252Y35866D01*
X264228Y35462D01*
X265276Y35324D01*
X266323Y35462D01*
X267299Y35866D01*
X268137Y36509D01*
X268780Y37347D01*
X269184Y38323D01*
X269322Y39370D01*
X269184Y40417D01*
X268780Y41393D01*
X268137Y42231D01*
X267299Y42874D01*
X266323Y43279D01*
X265276Y43417D01*
D02*
G37*
G36*
X315776Y33351D02*
Y29870D01*
X319256D01*
X319184Y30417D01*
X318780Y31393D01*
X318137Y32231D01*
X317299Y32874D01*
X316323Y33279D01*
X315776Y33351D01*
D02*
G37*
G36*
X314776D02*
X314228Y33279D01*
X313252Y32874D01*
X312414Y32231D01*
X311771Y31393D01*
X311367Y30417D01*
X311295Y29870D01*
X314776D01*
Y33351D01*
D02*
G37*
G36*
X305776D02*
Y29870D01*
X309256D01*
X309184Y30417D01*
X308780Y31393D01*
X308137Y32231D01*
X307299Y32874D01*
X306323Y33279D01*
X305776Y33351D01*
D02*
G37*
G36*
X304776D02*
X304228Y33279D01*
X303252Y32874D01*
X302414Y32231D01*
X301771Y31393D01*
X301367Y30417D01*
X301295Y29870D01*
X304776D01*
Y33351D01*
D02*
G37*
G36*
X285776D02*
Y29870D01*
X289256D01*
X289184Y30417D01*
X288780Y31393D01*
X288137Y32231D01*
X287299Y32874D01*
X286323Y33279D01*
X285776Y33351D01*
D02*
G37*
G36*
X284776D02*
X284228Y33279D01*
X283252Y32874D01*
X282414Y32231D01*
X281771Y31393D01*
X281367Y30417D01*
X281295Y29870D01*
X284776D01*
Y33351D01*
D02*
G37*
G36*
X319256Y28870D02*
X315776D01*
Y25390D01*
X316323Y25462D01*
X317299Y25866D01*
X318137Y26509D01*
X318780Y27347D01*
X319184Y28323D01*
X319256Y28870D01*
D02*
G37*
G36*
X314776D02*
X311295D01*
X311367Y28323D01*
X311771Y27347D01*
X312414Y26509D01*
X313252Y25866D01*
X314228Y25462D01*
X314776Y25390D01*
Y28870D01*
D02*
G37*
G36*
X309256D02*
X305776D01*
Y25390D01*
X306323Y25462D01*
X307299Y25866D01*
X308137Y26509D01*
X308780Y27347D01*
X309184Y28323D01*
X309256Y28870D01*
D02*
G37*
G36*
X304776D02*
X301295D01*
X301367Y28323D01*
X301771Y27347D01*
X302414Y26509D01*
X303252Y25866D01*
X304228Y25462D01*
X304776Y25390D01*
Y28870D01*
D02*
G37*
G36*
X289256D02*
X285776D01*
Y25390D01*
X286323Y25462D01*
X287299Y25866D01*
X288137Y26509D01*
X288780Y27347D01*
X289184Y28323D01*
X289256Y28870D01*
D02*
G37*
G36*
X284776D02*
X281295D01*
X281367Y28323D01*
X281771Y27347D01*
X282414Y26509D01*
X283252Y25866D01*
X284228Y25462D01*
X284776Y25390D01*
Y28870D01*
D02*
G37*
G36*
X329287Y33382D02*
X321264D01*
Y25358D01*
X329287D01*
Y33382D01*
D02*
G37*
G36*
X295276Y33417D02*
X294228Y33279D01*
X293252Y32874D01*
X292414Y32231D01*
X291771Y31393D01*
X291367Y30417D01*
X291229Y29370D01*
X291367Y28323D01*
X291771Y27347D01*
X292414Y26509D01*
X293252Y25866D01*
X294228Y25462D01*
X295276Y25324D01*
X296323Y25462D01*
X297299Y25866D01*
X298137Y26509D01*
X298780Y27347D01*
X299184Y28323D01*
X299322Y29370D01*
X299184Y30417D01*
X298780Y31393D01*
X298137Y32231D01*
X297299Y32874D01*
X296323Y33279D01*
X295276Y33417D01*
D02*
G37*
G36*
X275276D02*
X274228Y33279D01*
X273252Y32874D01*
X272414Y32231D01*
X271771Y31393D01*
X271367Y30417D01*
X271229Y29370D01*
X271367Y28323D01*
X271771Y27347D01*
X272414Y26509D01*
X273252Y25866D01*
X274228Y25462D01*
X275276Y25324D01*
X276323Y25462D01*
X277299Y25866D01*
X278137Y26509D01*
X278780Y27347D01*
X279184Y28323D01*
X279322Y29370D01*
X279184Y30417D01*
X278780Y31393D01*
X278137Y32231D01*
X277299Y32874D01*
X276323Y33279D01*
X275276Y33417D01*
D02*
G37*
G36*
X265276D02*
X264228Y33279D01*
X263252Y32874D01*
X262414Y32231D01*
X261771Y31393D01*
X261367Y30417D01*
X261229Y29370D01*
X261367Y28323D01*
X261771Y27347D01*
X262414Y26509D01*
X263252Y25866D01*
X264228Y25462D01*
X265276Y25324D01*
X266323Y25462D01*
X267299Y25866D01*
X268137Y26509D01*
X268780Y27347D01*
X269184Y28323D01*
X269322Y29370D01*
X269184Y30417D01*
X268780Y31393D01*
X268137Y32231D01*
X267299Y32874D01*
X266323Y33279D01*
X265276Y33417D01*
D02*
G37*
G36*
X315500Y23921D02*
Y20500D01*
X318921D01*
X318851Y21032D01*
X318453Y21993D01*
X317819Y22819D01*
X316993Y23453D01*
X316032Y23851D01*
X315500Y23921D01*
D02*
G37*
G36*
X314500D02*
X313968Y23851D01*
X313007Y23453D01*
X312181Y22819D01*
X311547Y21993D01*
X311149Y21032D01*
X311079Y20500D01*
X314500D01*
Y23921D01*
D02*
G37*
G36*
X318921Y19500D02*
X315500D01*
Y16079D01*
X316032Y16149D01*
X316993Y16547D01*
X317819Y17181D01*
X318453Y18007D01*
X318851Y18968D01*
X318921Y19500D01*
D02*
G37*
G36*
X314500D02*
X311079D01*
X311149Y18968D01*
X311547Y18007D01*
X312181Y17181D01*
X313007Y16547D01*
X313968Y16149D01*
X314500Y16079D01*
Y19500D01*
D02*
G37*
%LPD*%
D21*
X275000Y57500D02*
X340000D01*
X345000Y62500D01*
Y115000D01*
X340000Y120000D02*
X345000Y115000D01*
X254453Y15547D02*
Y29000D01*
X257500Y12500D02*
X397500D01*
X254453Y15547D02*
X257500Y12500D01*
X397500D02*
X430965D01*
X434921Y16457D01*
Y39921D01*
X440000Y45000D01*
X145000Y37500D02*
Y135000D01*
X153500Y29000D02*
X254453D01*
X145000Y37500D02*
X153500Y29000D01*
X140000Y140000D02*
X145000Y135000D01*
X440000Y45000D02*
X445000Y50000D01*
X440000Y140000D02*
X445000Y135000D01*
Y50000D02*
Y135000D01*
X440000Y140000D02*
X440000D01*
X470000Y45000D02*
X475000Y50000D01*
X470000Y140000D02*
X475000Y135000D01*
Y50000D02*
Y135000D01*
X400000Y140000D02*
X405000Y135000D01*
X435000D02*
X440000Y140000D01*
X405000Y135000D02*
X435000D01*
X434905Y229906D02*
X440000Y235000D01*
X434905Y145095D02*
Y229906D01*
Y145095D02*
X440000Y140000D01*
X347500Y232500D02*
X355000Y240000D01*
X347500Y127500D02*
Y232500D01*
X355000Y240000D02*
X465000D01*
X470000Y235000D01*
X340000Y120000D02*
X347500Y127500D01*
X470000Y235000D02*
X475000Y230000D01*
Y145000D02*
Y230000D01*
X470000Y140000D02*
X475000Y145000D01*
X254453Y29000D02*
Y126453D01*
X300000Y140000D02*
X320000D01*
X340000Y120000D02*
X340000D01*
X320000Y140000D02*
X340000Y120000D01*
X269290Y139290D02*
X270000Y140000D01*
X267290Y139290D02*
X269290D01*
X295000Y145000D02*
X300000Y140000D01*
X175000Y145000D02*
X295000D01*
X170000Y140000D02*
X175000Y145000D01*
X254453Y126453D02*
X267290Y139290D01*
D22*
X400000Y245000D02*
D03*
X410000D02*
D03*
X500000Y55000D02*
D03*
X490000D02*
D03*
X500000Y100000D02*
D03*
X490000D02*
D03*
X500000Y125000D02*
D03*
X490000D02*
D03*
X500000Y150000D02*
D03*
X490000D02*
D03*
X410000Y100000D02*
D03*
X400000D02*
D03*
X330000D02*
D03*
X320000D02*
D03*
X370000D02*
D03*
X360000D02*
D03*
X410000Y150000D02*
D03*
X400000D02*
D03*
X370000D02*
D03*
X360000D02*
D03*
X330000D02*
D03*
X320000D02*
D03*
X400000Y125000D02*
D03*
X410000D02*
D03*
X220000Y100000D02*
D03*
X210000D02*
D03*
X110000D02*
D03*
X100000D02*
D03*
D23*
X420000Y245000D02*
D03*
X510000Y55000D02*
D03*
Y100000D02*
D03*
Y125000D02*
D03*
Y150000D02*
D03*
X420000Y100000D02*
D03*
X340000D02*
D03*
X380000D02*
D03*
X420000Y150000D02*
D03*
X380000D02*
D03*
X340000D02*
D03*
X420000Y125000D02*
D03*
X230000Y100000D02*
D03*
X120000D02*
D03*
D24*
X440000Y265000D02*
D03*
Y75000D02*
D03*
Y170000D02*
D03*
X270000D02*
D03*
X140000D02*
D03*
D25*
X440000Y255000D02*
D03*
Y245000D02*
D03*
Y235000D02*
D03*
Y225000D02*
D03*
Y215000D02*
D03*
Y205000D02*
D03*
X470000Y265000D02*
D03*
Y255000D02*
D03*
Y245000D02*
D03*
Y235000D02*
D03*
Y225000D02*
D03*
Y215000D02*
D03*
Y205000D02*
D03*
Y15000D02*
D03*
Y25000D02*
D03*
Y35000D02*
D03*
Y45000D02*
D03*
Y55000D02*
D03*
Y65000D02*
D03*
Y75000D02*
D03*
X440000Y15000D02*
D03*
Y25000D02*
D03*
Y35000D02*
D03*
Y45000D02*
D03*
Y55000D02*
D03*
Y65000D02*
D03*
Y160000D02*
D03*
Y150000D02*
D03*
Y140000D02*
D03*
Y130000D02*
D03*
Y120000D02*
D03*
Y110000D02*
D03*
X470000Y170000D02*
D03*
Y160000D02*
D03*
Y150000D02*
D03*
Y140000D02*
D03*
Y130000D02*
D03*
Y120000D02*
D03*
Y110000D02*
D03*
X300000D02*
D03*
Y120000D02*
D03*
Y130000D02*
D03*
Y140000D02*
D03*
Y150000D02*
D03*
Y160000D02*
D03*
Y170000D02*
D03*
X270000Y110000D02*
D03*
Y120000D02*
D03*
Y130000D02*
D03*
Y140000D02*
D03*
Y150000D02*
D03*
Y160000D02*
D03*
X170000Y110000D02*
D03*
Y120000D02*
D03*
Y130000D02*
D03*
Y140000D02*
D03*
Y150000D02*
D03*
Y160000D02*
D03*
Y170000D02*
D03*
X140000Y110000D02*
D03*
Y120000D02*
D03*
Y130000D02*
D03*
Y140000D02*
D03*
Y150000D02*
D03*
Y160000D02*
D03*
D26*
X295276Y39370D02*
D03*
X305276D02*
D03*
X315276D02*
D03*
X325276D02*
D03*
X285276D02*
D03*
X275276D02*
D03*
X265276D02*
D03*
X295276Y29370D02*
D03*
X305276D02*
D03*
X315276D02*
D03*
X285276D02*
D03*
X275276D02*
D03*
X265276D02*
D03*
D27*
X325276D02*
D03*
D28*
X15000Y15000D02*
D03*
X254453Y29000D02*
D03*
X340000Y120000D02*
D03*
X315000Y20000D02*
D03*
X275000Y57500D02*
D03*
X580000Y10000D02*
D03*
X575000Y280000D02*
D03*
X15000D02*
D03*
X400000Y140000D02*
D03*
M02*
