G04*
G04 #@! TF.GenerationSoftware,Altium Limited,Altium Designer,20.0.14 (345)*
G04*
G04 Layer_Color=16711935*
%FSLAX25Y25*%
%MOIN*%
G70*
G01*
G75*
%ADD14C,0.06337*%
%ADD15R,0.06337X0.06337*%
%ADD16R,0.06109X0.06109*%
%ADD17C,0.06109*%
%ADD18C,0.06424*%
%ADD19R,0.06424X0.06424*%
%ADD20C,0.06306*%
%ADD32R,0.06306X0.05912*%
G04:AMPARAMS|DCode=33|XSize=29.59mil|YSize=68.96mil|CornerRadius=3.92mil|HoleSize=0mil|Usage=FLASHONLY|Rotation=270.000|XOffset=0mil|YOffset=0mil|HoleType=Round|Shape=RoundedRectangle|*
%AMROUNDEDRECTD33*
21,1,0.02959,0.06112,0,0,270.0*
21,1,0.02175,0.06896,0,0,270.0*
1,1,0.00784,-0.03056,-0.01088*
1,1,0.00784,-0.03056,0.01088*
1,1,0.00784,0.03056,0.01088*
1,1,0.00784,0.03056,-0.01088*
%
%ADD33ROUNDEDRECTD33*%
D14*
X400000Y245000D02*
D03*
X410000D02*
D03*
X500000Y55000D02*
D03*
X490000D02*
D03*
X500000Y100000D02*
D03*
X490000D02*
D03*
X500000Y125000D02*
D03*
X490000D02*
D03*
X500000Y150000D02*
D03*
X490000D02*
D03*
X410000Y100000D02*
D03*
X400000D02*
D03*
X330000D02*
D03*
X320000D02*
D03*
X370000D02*
D03*
X360000D02*
D03*
X410000Y150000D02*
D03*
X400000D02*
D03*
X370000D02*
D03*
X360000D02*
D03*
X330000D02*
D03*
X320000D02*
D03*
X400000Y125000D02*
D03*
X410000D02*
D03*
X220000Y100000D02*
D03*
X210000D02*
D03*
X110000D02*
D03*
X100000D02*
D03*
D15*
X420000Y245000D02*
D03*
X510000Y55000D02*
D03*
Y100000D02*
D03*
Y125000D02*
D03*
Y150000D02*
D03*
X420000Y100000D02*
D03*
X340000D02*
D03*
X380000D02*
D03*
X420000Y150000D02*
D03*
X380000D02*
D03*
X340000D02*
D03*
X420000Y125000D02*
D03*
X230000Y100000D02*
D03*
X120000D02*
D03*
D16*
X440000Y265000D02*
D03*
Y75000D02*
D03*
Y170000D02*
D03*
X270000D02*
D03*
X140000D02*
D03*
D17*
X440000Y255000D02*
D03*
Y245000D02*
D03*
Y235000D02*
D03*
Y225000D02*
D03*
Y215000D02*
D03*
Y205000D02*
D03*
X470000Y265000D02*
D03*
Y255000D02*
D03*
Y245000D02*
D03*
Y235000D02*
D03*
Y225000D02*
D03*
Y215000D02*
D03*
Y205000D02*
D03*
Y15000D02*
D03*
Y25000D02*
D03*
Y35000D02*
D03*
Y45000D02*
D03*
Y55000D02*
D03*
Y65000D02*
D03*
Y75000D02*
D03*
X440000Y15000D02*
D03*
Y25000D02*
D03*
Y35000D02*
D03*
Y45000D02*
D03*
Y55000D02*
D03*
Y65000D02*
D03*
Y160000D02*
D03*
Y150000D02*
D03*
Y140000D02*
D03*
Y130000D02*
D03*
Y120000D02*
D03*
Y110000D02*
D03*
X470000Y170000D02*
D03*
Y160000D02*
D03*
Y150000D02*
D03*
Y140000D02*
D03*
Y130000D02*
D03*
Y120000D02*
D03*
Y110000D02*
D03*
X300000D02*
D03*
Y120000D02*
D03*
Y130000D02*
D03*
Y140000D02*
D03*
Y150000D02*
D03*
Y160000D02*
D03*
Y170000D02*
D03*
X270000Y110000D02*
D03*
Y120000D02*
D03*
Y130000D02*
D03*
Y140000D02*
D03*
Y150000D02*
D03*
Y160000D02*
D03*
X170000Y110000D02*
D03*
Y120000D02*
D03*
Y130000D02*
D03*
Y140000D02*
D03*
Y150000D02*
D03*
Y160000D02*
D03*
Y170000D02*
D03*
X140000Y110000D02*
D03*
Y120000D02*
D03*
Y130000D02*
D03*
Y140000D02*
D03*
Y150000D02*
D03*
Y160000D02*
D03*
D18*
X295276Y39370D02*
D03*
X305276D02*
D03*
X315276D02*
D03*
X325276D02*
D03*
X285276D02*
D03*
X275276D02*
D03*
X265276D02*
D03*
X295276Y29370D02*
D03*
X305276D02*
D03*
X315276D02*
D03*
X285276D02*
D03*
X275276D02*
D03*
X265276D02*
D03*
D19*
X325276D02*
D03*
D20*
X15000Y15000D02*
D03*
X254453Y29000D02*
D03*
X340000Y120000D02*
D03*
X315000Y20000D02*
D03*
X275000Y57500D02*
D03*
X580000Y10000D02*
D03*
X575000Y280000D02*
D03*
X15000D02*
D03*
X400000Y140000D02*
D03*
D32*
X460000Y206260D02*
D03*
Y213740D02*
D03*
Y186260D02*
D03*
Y193740D02*
D03*
Y263740D02*
D03*
Y256260D02*
D03*
X430000Y256260D02*
D03*
Y263740D02*
D03*
Y213740D02*
D03*
Y206260D02*
D03*
X450000Y206260D02*
D03*
Y213740D02*
D03*
Y263740D02*
D03*
Y256260D02*
D03*
X470000Y186260D02*
D03*
Y193740D02*
D03*
X450000Y236260D02*
D03*
Y243740D02*
D03*
X460000Y236260D02*
D03*
Y243740D02*
D03*
X430000Y243740D02*
D03*
Y236260D02*
D03*
X360000Y161260D02*
D03*
Y168740D02*
D03*
X370000Y161260D02*
D03*
Y168740D02*
D03*
X400000Y73740D02*
D03*
Y66260D02*
D03*
X410000Y73740D02*
D03*
Y66260D02*
D03*
X450000Y73740D02*
D03*
Y66260D02*
D03*
X420000Y66260D02*
D03*
Y73740D02*
D03*
X430000Y73740D02*
D03*
Y66260D02*
D03*
X390000Y98740D02*
D03*
Y91260D02*
D03*
X420000Y16260D02*
D03*
Y23740D02*
D03*
X430000Y23740D02*
D03*
Y16260D02*
D03*
X490000Y16260D02*
D03*
Y23740D02*
D03*
X480000Y16260D02*
D03*
Y23740D02*
D03*
X460000Y16260D02*
D03*
Y23740D02*
D03*
X480000Y36260D02*
D03*
Y43740D02*
D03*
X460000Y43740D02*
D03*
Y36260D02*
D03*
X430000Y43740D02*
D03*
Y36260D02*
D03*
X490000Y36260D02*
D03*
Y43740D02*
D03*
X500000Y36260D02*
D03*
Y43740D02*
D03*
X480000Y73740D02*
D03*
Y66260D02*
D03*
X350000Y141260D02*
D03*
Y148740D02*
D03*
X390000Y141260D02*
D03*
Y148740D02*
D03*
X450000Y168740D02*
D03*
Y161260D02*
D03*
X460000Y161260D02*
D03*
Y168740D02*
D03*
X520000Y111260D02*
D03*
Y118740D02*
D03*
Y91260D02*
D03*
Y98740D02*
D03*
X480000Y111260D02*
D03*
Y118740D02*
D03*
Y91260D02*
D03*
Y98740D02*
D03*
X490000Y168740D02*
D03*
Y161260D02*
D03*
X500000Y161260D02*
D03*
Y168740D02*
D03*
X390000Y111260D02*
D03*
Y118740D02*
D03*
X430000Y111260D02*
D03*
Y118740D02*
D03*
Y91260D02*
D03*
Y98740D02*
D03*
X510000Y168740D02*
D03*
Y161260D02*
D03*
X520000Y168740D02*
D03*
Y161260D02*
D03*
X430000Y148740D02*
D03*
Y141260D02*
D03*
X480000Y147740D02*
D03*
Y140260D02*
D03*
X420000Y161260D02*
D03*
Y168740D02*
D03*
X400000Y168740D02*
D03*
Y161260D02*
D03*
X390000Y161260D02*
D03*
Y168740D02*
D03*
X410000Y168740D02*
D03*
Y161260D02*
D03*
X320000Y138740D02*
D03*
Y131260D02*
D03*
X340000Y131260D02*
D03*
Y138740D02*
D03*
X330000Y131260D02*
D03*
Y138740D02*
D03*
X290000Y141260D02*
D03*
Y148740D02*
D03*
X310000Y111260D02*
D03*
Y118740D02*
D03*
X240000Y118740D02*
D03*
Y111260D02*
D03*
X260000Y118740D02*
D03*
Y111260D02*
D03*
X310000Y138740D02*
D03*
Y131260D02*
D03*
X280000Y111260D02*
D03*
Y118740D02*
D03*
X250000Y118740D02*
D03*
Y111260D02*
D03*
X280000Y148740D02*
D03*
Y141260D02*
D03*
Y161260D02*
D03*
Y168740D02*
D03*
X260000Y161260D02*
D03*
Y168740D02*
D03*
Y141260D02*
D03*
Y148740D02*
D03*
X250000Y141260D02*
D03*
Y148740D02*
D03*
X240000Y141260D02*
D03*
Y148740D02*
D03*
X250000Y161260D02*
D03*
Y168740D02*
D03*
X240000Y161260D02*
D03*
Y168740D02*
D03*
X130000Y141260D02*
D03*
Y148740D02*
D03*
X180000Y141260D02*
D03*
Y148740D02*
D03*
X230000Y161260D02*
D03*
Y168740D02*
D03*
Y141260D02*
D03*
Y148740D02*
D03*
X220000Y148740D02*
D03*
Y141260D02*
D03*
Y161260D02*
D03*
Y168740D02*
D03*
X210000Y148740D02*
D03*
Y141260D02*
D03*
Y168740D02*
D03*
Y161260D02*
D03*
X200000Y168740D02*
D03*
Y161260D02*
D03*
Y148740D02*
D03*
Y141260D02*
D03*
X190000Y148740D02*
D03*
Y141260D02*
D03*
Y168740D02*
D03*
Y161260D02*
D03*
X200000Y111260D02*
D03*
Y118740D02*
D03*
X190000Y111260D02*
D03*
Y118740D02*
D03*
X180000Y111260D02*
D03*
Y118740D02*
D03*
X160000Y111260D02*
D03*
Y118740D02*
D03*
X130000Y118740D02*
D03*
Y111260D02*
D03*
X150000Y118740D02*
D03*
Y111260D02*
D03*
X130000Y161260D02*
D03*
Y168740D02*
D03*
X150000Y148740D02*
D03*
Y141260D02*
D03*
Y161260D02*
D03*
Y168740D02*
D03*
X120000Y161260D02*
D03*
Y168740D02*
D03*
X110000Y161260D02*
D03*
Y168740D02*
D03*
X120000Y141260D02*
D03*
Y148740D02*
D03*
X110000Y141260D02*
D03*
Y148740D02*
D03*
D33*
X377244Y135000D02*
D03*
Y130000D02*
D03*
Y125000D02*
D03*
Y120000D02*
D03*
X355000Y135000D02*
D03*
Y130000D02*
D03*
Y125000D02*
D03*
Y120000D02*
D03*
M02*
