M48
; DRILL file {KiCad 9.0.8} date 2026-03-17T16:50:24+0100
; FORMAT={-:-/ absolute / metric / decimal}
; #@! TF.CreationDate,2026-03-17T16:50:24+01:00
; #@! TF.GenerationSoftware,Kicad,Pcbnew,9.0.8
; #@! TF.FileFunction,Plated,1,4,PTH
FMAT,2
METRIC
; #@! TA.AperFunction,Plated,PTH,ViaDrill
T1C0.300
; #@! TA.AperFunction,Plated,PTH,ComponentDrill
T2C0.800
; #@! TA.AperFunction,Plated,PTH,ComponentDrill
T3C1.000
; #@! TA.AperFunction,Plated,PTH,ComponentDrill
T4C3.200
%
G90
G05
T1
X99.06Y-107.95
X102.108Y-63.5
X102.108Y-78.74
X102.235Y-76.2
X103.124Y-135.382
X105.14Y-46.72
X105.14Y-67.564
X105.156Y-87.63
X105.156Y-133.35
X105.156Y-152.908
X106.172Y-53.34
X108.585Y-34.925
X109.728Y-63.5
X109.728Y-78.74
X110.49Y-121.92
X110.722Y-105.007
X110.722Y-139.065
X111.125Y-50.8
X114.935Y-63.5
X116.205Y-36.195
X117.475Y-63.5
X120.142Y-68.072
X120.38Y-46.72
X120.38Y-57.42
X120.396Y-54.102
X121.285Y-122.555
X121.92Y-63.5
X122.174Y-93.98
X124.19Y-51.648
X125.095Y-63.5
X126.0Y-96.955
X126.0Y-153.4
X126.365Y-121.92
X128.0Y-46.736
X128.016Y-57.15
X128.037Y-135.77
X128.27Y-50.8
X128.27Y-51.435
X128.27Y-64.478
X129.032Y-110.49
X129.54Y-78.74
X129.54Y-81.28
X129.54Y-139.7
X130.81Y-78.74
X130.81Y-81.28
X130.81Y-104.14
X130.81Y-106.68
X130.81Y-115.57
X132.08Y-100.33
X132.08Y-110.49
X140.165Y-70.061
X140.97Y-93.345
X141.202Y-82.804
X141.202Y-139.065
X141.224Y-72.644
X141.224Y-79.756
X142.24Y-66.04
X143.18Y-106.68
X150.114Y-122.555
X151.765Y-81.28
X152.4Y-66.04
X152.4Y-83.82
X152.654Y-153.162
X153.035Y-106.68
X153.035Y-107.95
X153.035Y-109.22
X156.845Y-50.8
X156.845Y-121.92
X158.517Y-141.245
X158.75Y-114.935
X159.258Y-137.16
X159.385Y-45.72
X159.385Y-50.8
X167.85Y-143.466
X167.873Y-109.855
X167.91Y-72.39
X167.91Y-131.08
X169.85Y-135.56
X169.85Y-140.64
X169.926Y-77.216
X171.45Y-60.96
X171.45Y-121.92
X175.26Y-86.36
X177.8Y-93.345
X178.435Y-137.16
X178.562Y-53.34
X179.705Y-78.74
X180.086Y-50.8
X182.245Y-78.74
X182.245Y-83.82
X182.88Y-153.67
X183.515Y-122.555
X186.055Y-100.33
X186.055Y-102.87
X186.055Y-113.03
X186.055Y-115.57
X186.055Y-137.16
X186.055Y-139.7
X188.722Y-107.95
X189.23Y-78.74
X189.23Y-137.16
X193.548Y-71.12
X198.247Y-77.216
X198.272Y-85.395
X198.292Y-135.59
X198.292Y-143.083
X198.33Y-101.937
X198.374Y-44.196
X198.374Y-57.404
X198.374Y-114.046
X200.33Y-106.477
X200.33Y-109.525
X200.367Y-80.252
X200.367Y-138.85
X200.406Y-49.784
X200.406Y-72.644
X200.406Y-131.191
X202.565Y-88.9
X204.47Y-88.9
X207.987Y-139.7
X214.63Y-102.87
X215.9Y-50.8
X216.535Y-90.805
X216.535Y-107.95
X216.535Y-110.49
X217.17Y-124.49
X217.17Y-127.0
X224.155Y-115.57
X224.155Y-119.38
X224.79Y-132.08
T2
X115.57Y-71.12
X115.57Y-73.66
X115.57Y-76.2
X115.57Y-78.74
X115.57Y-81.28
X115.57Y-83.82
X115.57Y-86.36
X115.57Y-100.33
X115.57Y-102.87
X115.57Y-105.41
X115.57Y-107.95
X115.57Y-110.49
X115.57Y-113.03
X115.57Y-115.57
X115.57Y-129.54
X115.57Y-132.08
X115.57Y-134.62
X115.57Y-137.16
X115.57Y-139.7
X115.57Y-142.24
X115.57Y-144.78
X123.19Y-71.12
X123.19Y-73.66
X123.19Y-76.2
X123.19Y-78.74
X123.19Y-81.28
X123.19Y-83.82
X123.19Y-86.36
X123.19Y-100.33
X123.19Y-102.87
X123.19Y-105.41
X123.19Y-107.95
X123.19Y-110.49
X123.19Y-113.03
X123.19Y-115.57
X123.19Y-129.54
X123.19Y-132.08
X123.19Y-134.62
X123.19Y-137.16
X123.19Y-139.7
X123.19Y-142.24
X123.19Y-144.78
X138.37Y-100.27
X138.37Y-102.81
X138.37Y-105.35
X138.37Y-107.89
X138.37Y-110.43
X138.37Y-112.97
X138.37Y-115.51
X138.43Y-43.18
X138.43Y-45.72
X138.43Y-48.26
X138.43Y-50.8
X138.43Y-53.34
X138.43Y-55.88
X138.43Y-58.42
X138.43Y-71.12
X138.43Y-73.66
X138.43Y-76.2
X138.43Y-78.74
X138.43Y-81.28
X138.43Y-83.82
X138.43Y-86.36
X138.43Y-129.54
X138.43Y-132.08
X138.43Y-134.62
X138.43Y-137.16
X138.43Y-139.7
X138.43Y-142.24
X138.43Y-144.78
X145.99Y-100.27
X145.99Y-102.81
X145.99Y-105.35
X145.99Y-107.89
X145.99Y-110.43
X145.99Y-112.97
X145.99Y-115.51
X146.05Y-43.18
X146.05Y-45.72
X146.05Y-48.26
X146.05Y-50.8
X146.05Y-53.34
X146.05Y-55.88
X146.05Y-58.42
X146.05Y-71.12
X146.05Y-73.66
X146.05Y-76.2
X146.05Y-78.74
X146.05Y-81.28
X146.05Y-83.82
X146.05Y-86.36
X146.05Y-129.54
X146.05Y-132.08
X146.05Y-134.62
X146.05Y-137.16
X146.05Y-139.7
X146.05Y-142.24
X146.05Y-144.78
X165.1Y-43.18
X165.1Y-45.72
X165.1Y-48.26
X165.1Y-50.8
X165.1Y-53.34
X165.1Y-55.88
X165.1Y-58.42
X165.1Y-71.12
X165.1Y-73.66
X165.1Y-76.2
X165.1Y-78.74
X165.1Y-81.28
X165.1Y-83.82
X165.1Y-86.36
X165.1Y-100.33
X165.1Y-102.87
X165.1Y-105.41
X165.1Y-107.95
X165.1Y-110.49
X165.1Y-113.03
X165.1Y-115.57
X165.1Y-129.54
X165.1Y-132.08
X165.1Y-134.62
X165.1Y-137.16
X165.1Y-139.7
X165.1Y-142.24
X165.1Y-144.78
X172.72Y-43.18
X172.72Y-45.72
X172.72Y-48.26
X172.72Y-50.8
X172.72Y-53.34
X172.72Y-55.88
X172.72Y-58.42
X172.72Y-71.12
X172.72Y-73.66
X172.72Y-76.2
X172.72Y-78.74
X172.72Y-81.28
X172.72Y-83.82
X172.72Y-86.36
X172.72Y-100.33
X172.72Y-102.87
X172.72Y-105.41
X172.72Y-107.95
X172.72Y-110.49
X172.72Y-113.03
X172.72Y-115.57
X172.72Y-129.54
X172.72Y-132.08
X172.72Y-134.62
X172.72Y-137.16
X172.72Y-139.7
X172.72Y-142.24
X172.72Y-144.78
X195.52Y-100.33
X195.52Y-102.87
X195.52Y-105.41
X195.52Y-107.95
X195.52Y-110.49
X195.52Y-113.03
X195.52Y-115.57
X195.58Y-43.18
X195.58Y-45.72
X195.58Y-48.26
X195.58Y-50.8
X195.58Y-53.34
X195.58Y-55.88
X195.58Y-58.42
X195.58Y-71.12
X195.58Y-73.66
X195.58Y-76.2
X195.58Y-78.74
X195.58Y-81.28
X195.58Y-83.82
X195.58Y-86.36
X195.58Y-129.54
X195.58Y-132.08
X195.58Y-134.62
X195.58Y-137.16
X195.58Y-139.7
X195.58Y-142.24
X195.58Y-144.78
X203.14Y-100.33
X203.14Y-102.87
X203.14Y-105.41
X203.14Y-107.95
X203.14Y-110.49
X203.14Y-113.03
X203.14Y-115.57
X203.2Y-43.18
X203.2Y-45.72
X203.2Y-48.26
X203.2Y-50.8
X203.2Y-53.34
X203.2Y-55.88
X203.2Y-58.42
X203.2Y-71.12
X203.2Y-73.66
X203.2Y-76.2
X203.2Y-78.74
X203.2Y-81.28
X203.2Y-83.82
X203.2Y-86.36
X203.2Y-129.54
X203.2Y-132.08
X203.2Y-134.62
X203.2Y-137.16
X203.2Y-139.7
X203.2Y-142.24
X203.2Y-144.78
T3
X100.33Y-43.18
X100.33Y-45.72
X100.33Y-50.8
X100.33Y-53.34
X100.33Y-58.42
X100.33Y-60.96
X100.33Y-71.12
X100.33Y-73.66
X100.33Y-83.82
X100.33Y-86.36
X100.33Y-113.03
X100.33Y-115.57
X100.33Y-129.54
X100.33Y-132.08
X100.33Y-142.24
X100.33Y-144.78
X107.95Y-43.18
X107.95Y-45.72
X107.95Y-58.42
X107.95Y-60.96
X107.95Y-71.12
X107.95Y-73.66
X107.95Y-83.82
X107.95Y-86.36
X107.95Y-100.33
X107.95Y-102.87
X107.95Y-105.41
X107.95Y-110.49
X107.95Y-113.03
X107.95Y-115.57
X107.95Y-129.54
X107.95Y-132.08
X107.95Y-134.62
X107.95Y-139.7
X107.95Y-142.24
X107.95Y-144.78
X111.76Y-100.33
X111.76Y-102.87
X111.76Y-113.03
X111.76Y-115.57
X111.76Y-129.54
X111.76Y-132.08
X111.76Y-142.24
X111.76Y-144.78
X115.57Y-43.18
X115.57Y-45.72
X115.57Y-50.8
X115.57Y-53.34
X115.57Y-58.42
X115.57Y-60.96
X123.19Y-43.18
X123.19Y-45.72
X123.19Y-58.42
X123.19Y-60.96
X130.81Y-71.12
X130.81Y-73.66
X130.81Y-76.2
X134.62Y-71.12
X134.62Y-73.66
X134.62Y-129.54
X134.62Y-132.08
X134.62Y-134.62
X134.62Y-139.7
X134.62Y-142.24
X134.62Y-144.78
X149.86Y-43.18
X149.86Y-45.72
X149.86Y-55.88
X149.86Y-58.42
X149.86Y-71.12
X149.86Y-73.66
X149.86Y-76.2
X149.86Y-129.54
X149.86Y-132.08
X149.86Y-134.62
X149.86Y-139.7
X149.86Y-142.24
X149.86Y-144.78
X153.67Y-43.18
X153.67Y-45.72
X153.67Y-48.26
X153.67Y-53.34
X153.67Y-55.88
X153.67Y-58.42
X153.67Y-71.12
X153.67Y-73.66
X153.67Y-76.2
X153.67Y-129.54
X153.67Y-132.08
X153.67Y-134.62
X153.67Y-139.7
X153.67Y-142.24
X153.67Y-144.78
X161.29Y-100.33
X161.29Y-102.87
X161.29Y-105.41
X161.29Y-110.49
X161.29Y-113.03
X161.29Y-115.57
X176.53Y-100.33
X176.53Y-102.87
X176.53Y-105.41
X176.53Y-110.49
X176.53Y-113.03
X176.53Y-115.57
X180.34Y-100.33
X180.34Y-102.87
X180.34Y-105.41
X180.34Y-110.49
X180.34Y-113.03
X180.34Y-115.57
X210.82Y-134.62
X210.82Y-137.16
X210.82Y-139.7
X210.82Y-142.24
X210.82Y-144.78
X210.82Y-147.32
X210.82Y-149.86
X213.36Y-134.62
X213.36Y-137.16
X213.36Y-139.7
X213.36Y-142.24
X213.36Y-144.78
X213.36Y-147.32
X213.36Y-149.86
T4
X88.9Y-41.91
X88.9Y-148.59
X223.52Y-41.91
X223.52Y-148.59
M30
