%TF.GenerationSoftware,KiCad,Pcbnew,9.0.8*%
%TF.CreationDate,2026-03-17T16:50:21+01:00*%
%TF.ProjectId,Output,4f757470-7574-42e6-9b69-6361645f7063,1*%
%TF.SameCoordinates,Original*%
%TF.FileFunction,Copper,L2,Inr*%
%TF.FilePolarity,Positive*%
%FSLAX46Y46*%
G04 Gerber Fmt 4.6, Leading zero omitted, Abs format (unit mm)*
G04 Created by KiCad (PCBNEW 9.0.8) date 2026-03-17 16:50:21*
%MOMM*%
%LPD*%
G01*
G04 APERTURE LIST*
G04 Aperture macros list*
%AMRoundRect*
0 Rectangle with rounded corners*
0 $1 Rounding radius*
0 $2 $3 $4 $5 $6 $7 $8 $9 X,Y pos of 4 corners*
0 Add a 4 corners polygon primitive as box body*
4,1,4,$2,$3,$4,$5,$6,$7,$8,$9,$2,$3,0*
0 Add four circle primitives for the rounded corners*
1,1,$1+$1,$2,$3*
1,1,$1+$1,$4,$5*
1,1,$1+$1,$6,$7*
1,1,$1+$1,$8,$9*
0 Add four rect primitives between the rounded corners*
20,1,$1+$1,$2,$3,$4,$5,0*
20,1,$1+$1,$4,$5,$6,$7,0*
20,1,$1+$1,$6,$7,$8,$9,0*
20,1,$1+$1,$8,$9,$2,$3,0*%
G04 Aperture macros list end*
%TA.AperFunction,ComponentPad*%
%ADD10R,2.600000X1.600000*%
%TD*%
%TA.AperFunction,ComponentPad*%
%ADD11O,2.600000X1.600000*%
%TD*%
%TA.AperFunction,ComponentPad*%
%ADD12RoundRect,0.250000X-0.950000X-0.550000X0.950000X-0.550000X0.950000X0.550000X-0.950000X0.550000X0*%
%TD*%
%TA.AperFunction,ComponentPad*%
%ADD13O,2.400000X1.600000*%
%TD*%
%TA.AperFunction,ComponentPad*%
%ADD14R,1.700000X1.700000*%
%TD*%
%TA.AperFunction,ComponentPad*%
%ADD15C,1.700000*%
%TD*%
%TA.AperFunction,ComponentPad*%
%ADD16C,6.400000*%
%TD*%
%TA.AperFunction,ViaPad*%
%ADD17C,0.700000*%
%TD*%
%TA.AperFunction,Conductor*%
%ADD18C,0.600000*%
%TD*%
G04 APERTURE END LIST*
D10*
%TO.N,Net-(R64-Pad1)*%
%TO.C,RV12*%
X161290000Y-105410000D03*
D11*
%TO.N,Net-(U14A-+)*%
X161290000Y-102870000D03*
%TO.N,Net-(R55-Pad2)*%
X161290000Y-100330000D03*
%TD*%
D10*
%TO.N,Net-(J6-Pin_1)*%
%TO.C,J6*%
X100330000Y-45720000D03*
D11*
%TO.N,GND_O*%
X100330000Y-43180000D03*
%TD*%
D10*
%TO.N,Net-(SW4-A)*%
%TO.C,RV8*%
X107950000Y-100330000D03*
D11*
%TO.N,Net-(SW4-B)*%
X107950000Y-102870000D03*
X107950000Y-105410000D03*
%TD*%
D10*
%TO.N,Net-(J19-Pin_1)*%
%TO.C,J19*%
X123190000Y-45720000D03*
D11*
%TO.N,GND_O*%
X123190000Y-43180000D03*
%TD*%
D10*
%TO.N,Net-(SW5-A)*%
%TO.C,RV14*%
X107950000Y-115570000D03*
D11*
%TO.N,Net-(SW5-B)*%
X107950000Y-113030000D03*
X107950000Y-110490000D03*
%TD*%
D12*
%TO.N,Net-(U16A--)*%
%TO.C,U16*%
X195580000Y-71120000D03*
D13*
X195580000Y-73660000D03*
%TO.N,Net-(U16A-+)*%
X195580000Y-76200000D03*
%TO.N,+15V_O*%
X195580000Y-78740000D03*
%TO.N,Net-(U16B-+)*%
X195580000Y-81280000D03*
%TO.N,Net-(U16B--)*%
X195580000Y-83820000D03*
X195580000Y-86360000D03*
%TO.N,Net-(U16C--)*%
X203200000Y-86360000D03*
X203200000Y-83820000D03*
%TO.N,Net-(U16C-+)*%
X203200000Y-81280000D03*
%TO.N,-15V_O*%
X203200000Y-78740000D03*
%TO.N,Net-(U16D-+)*%
X203200000Y-76200000D03*
%TO.N,Net-(U16D--)*%
X203200000Y-73660000D03*
X203200000Y-71120000D03*
%TD*%
D12*
%TO.N,Net-(SW1-A)*%
%TO.C,U1*%
X115570000Y-129540000D03*
D13*
%TO.N,Net-(SW1-B)*%
X115570000Y-132080000D03*
%TO.N,Net-(U10A-+)*%
X115570000Y-134620000D03*
%TO.N,+15V_O*%
X115570000Y-137160000D03*
%TO.N,Net-(U10A-+)*%
X115570000Y-139700000D03*
%TO.N,Net-(SW3-B)*%
X115570000Y-142240000D03*
%TO.N,Net-(SW3-A)*%
X115570000Y-144780000D03*
%TO.N,Net-(R27-Pad2)*%
X123190000Y-144780000D03*
%TO.N,Net-(U1C--)*%
X123190000Y-142240000D03*
%TO.N,Net-(U1C-+)*%
X123190000Y-139700000D03*
%TO.N,-15V_O*%
X123190000Y-137160000D03*
%TO.N,Net-(U1D-+)*%
X123190000Y-134620000D03*
%TO.N,Net-(U1D--)*%
X123190000Y-132080000D03*
%TO.N,Net-(R2-Pad2)*%
X123190000Y-129540000D03*
%TD*%
D10*
%TO.N,Net-(U5C-+)*%
%TO.C,RV6*%
X149860000Y-139700000D03*
D11*
X149860000Y-142240000D03*
%TO.N,Net-(R46-Pad2)*%
X149860000Y-144780000D03*
%TO.N,Net-(R47-Pad2)*%
X153670000Y-144780000D03*
%TO.N,Net-(U5C-+)*%
X153670000Y-142240000D03*
D10*
X153670000Y-139700000D03*
%TD*%
D12*
%TO.N,Net-(U12A--)*%
%TO.C,U12*%
X195520000Y-100330000D03*
D13*
X195520000Y-102870000D03*
%TO.N,Net-(U12A-+)*%
X195520000Y-105410000D03*
%TO.N,+15V_O*%
X195520000Y-107950000D03*
%TO.N,Net-(U12B-+)*%
X195520000Y-110490000D03*
%TO.N,Net-(U12B--)*%
X195520000Y-113030000D03*
X195520000Y-115570000D03*
%TO.N,Net-(U12C--)*%
X203140000Y-115570000D03*
X203140000Y-113030000D03*
%TO.N,Net-(U12C-+)*%
X203140000Y-110490000D03*
%TO.N,-15V_O*%
X203140000Y-107950000D03*
%TO.N,Net-(U12D-+)*%
X203140000Y-105410000D03*
%TO.N,Net-(U12D--)*%
X203140000Y-102870000D03*
X203140000Y-100330000D03*
%TD*%
D12*
%TO.N,Net-(SW9-A)*%
%TO.C,U21*%
X138430000Y-71120000D03*
D13*
%TO.N,Net-(SW9-B)*%
X138430000Y-73660000D03*
%TO.N,Net-(U21A-+)*%
X138430000Y-76200000D03*
%TO.N,+15V_O*%
X138430000Y-78740000D03*
%TO.N,Net-(U21B-+)*%
X138430000Y-81280000D03*
%TO.N,Net-(U21B--)*%
X138430000Y-83820000D03*
%TO.N,Net-(R112-Pad1)*%
X138430000Y-86360000D03*
%TO.N,Net-(R118-Pad1)*%
X146050000Y-86360000D03*
%TO.N,Net-(U21C--)*%
X146050000Y-83820000D03*
%TO.N,Net-(U21C-+)*%
X146050000Y-81280000D03*
%TO.N,-15V_O*%
X146050000Y-78740000D03*
%TO.N,Net-(U21D-+)*%
X146050000Y-76200000D03*
%TO.N,Net-(U21D--)*%
X146050000Y-73660000D03*
%TO.N,Net-(R130-Pad1)*%
X146050000Y-71120000D03*
%TD*%
D10*
%TO.N,Net-(SW7-A)*%
%TO.C,RV20*%
X153670000Y-43180000D03*
D11*
%TO.N,Net-(SW7-B)*%
X153670000Y-45720000D03*
X153670000Y-48260000D03*
%TD*%
D10*
%TO.N,Net-(J18-Pin_1)*%
%TO.C,J18*%
X100330000Y-53340000D03*
D11*
%TO.N,GND_O*%
X100330000Y-50800000D03*
%TD*%
D10*
%TO.N,Net-(U14D-+)*%
%TO.C,RV10*%
X176530000Y-105410000D03*
D11*
X176530000Y-102870000D03*
%TO.N,Net-(R73-Pad2)*%
X176530000Y-100330000D03*
%TO.N,Net-(R74-Pad2)*%
X180340000Y-100330000D03*
%TO.N,Net-(U14D-+)*%
X180340000Y-102870000D03*
D10*
X180340000Y-105410000D03*
%TD*%
D12*
%TO.N,Net-(U20A--)*%
%TO.C,U20*%
X165100000Y-43180000D03*
D13*
X165100000Y-45720000D03*
%TO.N,Net-(U20A-+)*%
X165100000Y-48260000D03*
%TO.N,+15V_O*%
X165100000Y-50800000D03*
%TO.N,Net-(U20B-+)*%
X165100000Y-53340000D03*
%TO.N,Net-(U20B--)*%
X165100000Y-55880000D03*
%TO.N,Net-(R156-Pad1)*%
X165100000Y-58420000D03*
%TO.N,Net-(R109-Pad2)*%
X172720000Y-58420000D03*
%TO.N,Net-(U20C--)*%
X172720000Y-55880000D03*
%TO.N,Net-(U20C-+)*%
X172720000Y-53340000D03*
%TO.N,-15V_O*%
X172720000Y-50800000D03*
%TO.N,Net-(U20A-+)*%
X172720000Y-48260000D03*
%TO.N,Net-(U20D--)*%
X172720000Y-45720000D03*
X172720000Y-43180000D03*
%TD*%
D12*
%TO.N,Net-(U5A--)*%
%TO.C,U5*%
X138430000Y-129540000D03*
D13*
X138430000Y-132080000D03*
%TO.N,Net-(U5A-+)*%
X138430000Y-134620000D03*
%TO.N,+15V_O*%
X138430000Y-137160000D03*
%TO.N,Net-(U5B-+)*%
X138430000Y-139700000D03*
%TO.N,Net-(U5B--)*%
X138430000Y-142240000D03*
X138430000Y-144780000D03*
%TO.N,Net-(R31-Pad2)*%
X146050000Y-144780000D03*
%TO.N,Net-(U5C--)*%
X146050000Y-142240000D03*
%TO.N,Net-(U5C-+)*%
X146050000Y-139700000D03*
%TO.N,-15V_O*%
X146050000Y-137160000D03*
%TO.N,Net-(U5D-+)*%
X146050000Y-134620000D03*
%TO.N,Net-(U5D--)*%
X146050000Y-132080000D03*
%TO.N,Net-(R8-Pad2)*%
X146050000Y-129540000D03*
%TD*%
D10*
%TO.N,Net-(U5D-+)*%
%TO.C,RV2*%
X149860000Y-134620000D03*
D11*
X149860000Y-132080000D03*
%TO.N,Net-(R22-Pad2)*%
X149860000Y-129540000D03*
%TO.N,Net-(R23-Pad2)*%
X153670000Y-129540000D03*
%TO.N,Net-(U5D-+)*%
X153670000Y-132080000D03*
D10*
X153670000Y-134620000D03*
%TD*%
%TO.N,Net-(J24-Pin_1)*%
%TO.C,J24*%
X100330000Y-113030000D03*
D11*
%TO.N,Net-(J24-Pin_2)*%
X100330000Y-115570000D03*
%TD*%
D12*
%TO.N,Net-(U13A--)*%
%TO.C,U13*%
X165100000Y-71120000D03*
D13*
X165100000Y-73660000D03*
%TO.N,Net-(U13A-+)*%
X165100000Y-76200000D03*
%TO.N,+15V_O*%
X165100000Y-78740000D03*
%TO.N,Net-(U13B-+)*%
X165100000Y-81280000D03*
%TO.N,Net-(U13B--)*%
X165100000Y-83820000D03*
X165100000Y-86360000D03*
%TO.N,Net-(U13C--)*%
X172720000Y-86360000D03*
X172720000Y-83820000D03*
%TO.N,Net-(U13B-+)*%
X172720000Y-81280000D03*
%TO.N,-15V_O*%
X172720000Y-78740000D03*
%TO.N,Net-(U13A-+)*%
X172720000Y-76200000D03*
%TO.N,Net-(U13D--)*%
X172720000Y-73660000D03*
X172720000Y-71120000D03*
%TD*%
D10*
%TO.N,Net-(J21-Pin_1)*%
%TO.C,J21*%
X115570000Y-45720000D03*
D11*
%TO.N,GND_O*%
X115570000Y-43180000D03*
%TD*%
D10*
%TO.N,Net-(J15-Pin_1)*%
%TO.C,J15*%
X100330000Y-83820000D03*
D11*
%TO.N,Net-(J15-Pin_2)*%
X100330000Y-86360000D03*
%TD*%
D10*
%TO.N,Net-(J25-Pin_1)*%
%TO.C,J25*%
X100330000Y-60960000D03*
D11*
%TO.N,GND_O*%
X100330000Y-58420000D03*
%TD*%
D10*
%TO.N,Net-(J29-Pin_1)*%
%TO.C,J29*%
X100330000Y-73660000D03*
D11*
%TO.N,Net-(J29-Pin_2)*%
X100330000Y-71120000D03*
%TD*%
D14*
%TO.N,9V_GND_O*%
%TO.C,J31*%
X210820000Y-134620000D03*
D15*
X213360000Y-134620000D03*
X210820000Y-137160000D03*
X213360000Y-137160000D03*
%TO.N,+9V_O*%
X210820000Y-139700000D03*
X213360000Y-139700000D03*
%TO.N,-15V_O*%
X210820000Y-142240000D03*
X213360000Y-142240000D03*
%TO.N,GND_O*%
X210820000Y-144780000D03*
X213360000Y-144780000D03*
X210820000Y-147320000D03*
X213360000Y-147320000D03*
%TO.N,+15V_O*%
X210820000Y-149860000D03*
X213360000Y-149860000D03*
%TD*%
D10*
%TO.N,Net-(R91-Pad1)*%
%TO.C,RV16*%
X161290000Y-110490000D03*
D11*
%TO.N,Net-(U14B-+)*%
X161290000Y-113030000D03*
%TO.N,Net-(R84-Pad2)*%
X161290000Y-115570000D03*
%TD*%
D16*
%TO.N,Net-(C4-Pad1)*%
%TO.C,H4*%
X223520000Y-148590000D03*
%TD*%
D10*
%TO.N,Net-(J11-Pin_1)*%
%TO.C,J11*%
X115570000Y-60960000D03*
D11*
%TO.N,GND_O*%
X115570000Y-58420000D03*
%TD*%
D10*
%TO.N,Net-(SW7-A)*%
%TO.C,SW7*%
X149860000Y-43180000D03*
D11*
%TO.N,Net-(SW7-B)*%
X149860000Y-45720000D03*
%TD*%
D12*
%TO.N,Net-(U2A--)*%
%TO.C,U2*%
X165100000Y-129540000D03*
D13*
X165100000Y-132080000D03*
%TO.N,Net-(U2A-+)*%
X165100000Y-134620000D03*
%TO.N,+15V_O*%
X165100000Y-137160000D03*
%TO.N,Net-(U2B-+)*%
X165100000Y-139700000D03*
%TO.N,Net-(U2B--)*%
X165100000Y-142240000D03*
X165100000Y-144780000D03*
%TO.N,Net-(U2C--)*%
X172720000Y-144780000D03*
X172720000Y-142240000D03*
%TO.N,Net-(U2C-+)*%
X172720000Y-139700000D03*
%TO.N,-15V_O*%
X172720000Y-137160000D03*
%TO.N,Net-(U2D-+)*%
X172720000Y-134620000D03*
%TO.N,Net-(U2D--)*%
X172720000Y-132080000D03*
X172720000Y-129540000D03*
%TD*%
D10*
%TO.N,Net-(J1-Pin_1)*%
%TO.C,J1*%
X107950000Y-45720000D03*
D11*
%TO.N,GND_O*%
X107950000Y-43180000D03*
%TD*%
D12*
%TO.N,Net-(SW6-A)*%
%TO.C,U18*%
X115570000Y-71120000D03*
D13*
%TO.N,Net-(SW6-B)*%
X115570000Y-73660000D03*
%TO.N,Net-(U10A-+)*%
X115570000Y-76200000D03*
%TO.N,+15V_O*%
X115570000Y-78740000D03*
%TO.N,Net-(U18B-+)*%
X115570000Y-81280000D03*
%TO.N,Net-(SW8-B)*%
X115570000Y-83820000D03*
%TO.N,Net-(SW8-A)*%
X115570000Y-86360000D03*
%TO.N,Net-(R125-Pad1)*%
X123190000Y-86360000D03*
%TO.N,Net-(U18C--)*%
X123190000Y-83820000D03*
%TO.N,Net-(U18C-+)*%
X123190000Y-81280000D03*
%TO.N,-15V_O*%
X123190000Y-78740000D03*
%TO.N,Net-(U18D-+)*%
X123190000Y-76200000D03*
%TO.N,Net-(U18D--)*%
X123190000Y-73660000D03*
%TO.N,Net-(R108-Pad1)*%
X123190000Y-71120000D03*
%TD*%
D10*
%TO.N,Net-(SW4-A)*%
%TO.C,SW4*%
X111760000Y-100330000D03*
D11*
%TO.N,Net-(SW4-B)*%
X111760000Y-102870000D03*
%TD*%
D12*
%TO.N,Net-(U6A--)*%
%TO.C,U6*%
X195580000Y-129540000D03*
D13*
X195580000Y-132080000D03*
%TO.N,Net-(U6A-+)*%
X195580000Y-134620000D03*
%TO.N,+15V_O*%
X195580000Y-137160000D03*
%TO.N,Net-(U6B-+)*%
X195580000Y-139700000D03*
%TO.N,Net-(U6B--)*%
X195580000Y-142240000D03*
X195580000Y-144780000D03*
%TO.N,Net-(U6C--)*%
X203200000Y-144780000D03*
X203200000Y-142240000D03*
%TO.N,Net-(U6C-+)*%
X203200000Y-139700000D03*
%TO.N,-15V_O*%
X203200000Y-137160000D03*
%TO.N,Net-(U6D-+)*%
X203200000Y-134620000D03*
%TO.N,Net-(U6D--)*%
X203200000Y-132080000D03*
X203200000Y-129540000D03*
%TD*%
D10*
%TO.N,Net-(SW3-A)*%
%TO.C,SW3*%
X111760000Y-144780000D03*
D11*
%TO.N,Net-(SW3-B)*%
X111760000Y-142240000D03*
%TD*%
D10*
%TO.N,Net-(SW1-A)*%
%TO.C,SW1*%
X111760000Y-129540000D03*
D11*
%TO.N,Net-(SW1-B)*%
X111760000Y-132080000D03*
%TD*%
D10*
%TO.N,Net-(R12-Pad1)*%
%TO.C,RV3*%
X134620000Y-134620000D03*
D11*
%TO.N,Net-(U5A-+)*%
X134620000Y-132080000D03*
%TO.N,Net-(R8-Pad2)*%
X134620000Y-129540000D03*
%TD*%
D10*
%TO.N,Net-(J10-Pin_1)*%
%TO.C,J10*%
X107950000Y-60960000D03*
D11*
%TO.N,GND_O*%
X107950000Y-58420000D03*
%TD*%
D10*
%TO.N,Net-(J26-Pin_1)*%
%TO.C,J26*%
X115570000Y-53340000D03*
D11*
%TO.N,GND_O*%
X115570000Y-50800000D03*
%TD*%
D10*
%TO.N,Net-(U14C-+)*%
%TO.C,RV15*%
X176530000Y-110490000D03*
D11*
X176530000Y-113030000D03*
%TO.N,Net-(R99-Pad2)*%
X176530000Y-115570000D03*
%TO.N,Net-(R100-Pad2)*%
X180340000Y-115570000D03*
%TO.N,Net-(U14C-+)*%
X180340000Y-113030000D03*
D10*
X180340000Y-110490000D03*
%TD*%
%TO.N,Net-(J5-Pin_1)*%
%TO.C,J5*%
X100330000Y-142240000D03*
D11*
%TO.N,Net-(J5-Pin_2)*%
X100330000Y-144780000D03*
%TD*%
D10*
%TO.N,Net-(SW9-A)*%
%TO.C,RV21*%
X130810000Y-71120000D03*
D11*
%TO.N,Net-(SW9-B)*%
X130810000Y-73660000D03*
X130810000Y-76200000D03*
%TD*%
D10*
%TO.N,Net-(J13-Pin_1)*%
%TO.C,J13*%
X100330000Y-129540000D03*
D11*
%TO.N,Net-(J13-Pin_2)*%
X100330000Y-132080000D03*
%TD*%
D10*
%TO.N,Net-(R37-Pad1)*%
%TO.C,RV7*%
X134620000Y-139700000D03*
D11*
%TO.N,Net-(U5B-+)*%
X134620000Y-142240000D03*
%TO.N,Net-(R31-Pad2)*%
X134620000Y-144780000D03*
%TD*%
D10*
%TO.N,Net-(J32-Pin_1)*%
%TO.C,J32*%
X123190000Y-60960000D03*
D11*
%TO.N,Net-(J32-Pin_2)*%
X123190000Y-58420000D03*
%TD*%
D10*
%TO.N,Net-(SW9-A)*%
%TO.C,SW9*%
X134620000Y-71120000D03*
D11*
%TO.N,Net-(SW9-B)*%
X134620000Y-73660000D03*
%TD*%
D12*
%TO.N,Net-(U3A--)*%
%TO.C,U3*%
X195580000Y-43180000D03*
D13*
X195580000Y-45720000D03*
%TO.N,Net-(U3A-+)*%
X195580000Y-48260000D03*
%TO.N,+15V_O*%
X195580000Y-50800000D03*
%TO.N,Net-(U3B-+)*%
X195580000Y-53340000D03*
%TO.N,Net-(U3B--)*%
X195580000Y-55880000D03*
X195580000Y-58420000D03*
%TO.N,Net-(U3C--)*%
X203200000Y-58420000D03*
X203200000Y-55880000D03*
%TO.N,Net-(U3B-+)*%
X203200000Y-53340000D03*
%TO.N,-15V_O*%
X203200000Y-50800000D03*
%TO.N,Net-(U3A-+)*%
X203200000Y-48260000D03*
%TO.N,Net-(U3D--)*%
X203200000Y-45720000D03*
X203200000Y-43180000D03*
%TD*%
D10*
%TO.N,Net-(SW1-A)*%
%TO.C,RV1*%
X107950000Y-129540000D03*
D11*
%TO.N,Net-(SW1-B)*%
X107950000Y-132080000D03*
X107950000Y-134620000D03*
%TD*%
D10*
%TO.N,Net-(SW3-A)*%
%TO.C,RV5*%
X107950000Y-144780000D03*
D11*
%TO.N,Net-(SW3-B)*%
X107950000Y-142240000D03*
X107950000Y-139700000D03*
%TD*%
D12*
%TO.N,Net-(R115-Pad1)*%
%TO.C,U22*%
X138430000Y-43180000D03*
D13*
%TO.N,Net-(U22A--)*%
X138430000Y-45720000D03*
%TO.N,Net-(U22A-+)*%
X138430000Y-48260000D03*
%TO.N,+15V_O*%
X138430000Y-50800000D03*
%TO.N,Net-(U22B-+)*%
X138430000Y-53340000D03*
%TO.N,Net-(U22B--)*%
X138430000Y-55880000D03*
%TO.N,Net-(R132-Pad1)*%
X138430000Y-58420000D03*
%TO.N,Net-(SW10-A)*%
X146050000Y-58420000D03*
%TO.N,Net-(SW10-B)*%
X146050000Y-55880000D03*
%TO.N,Net-(U21A-+)*%
X146050000Y-53340000D03*
%TO.N,-15V_O*%
X146050000Y-50800000D03*
%TO.N,Net-(U21A-+)*%
X146050000Y-48260000D03*
%TO.N,Net-(SW7-B)*%
X146050000Y-45720000D03*
%TO.N,Net-(SW7-A)*%
X146050000Y-43180000D03*
%TD*%
D10*
%TO.N,Net-(SW6-A)*%
%TO.C,SW6*%
X107950000Y-71120000D03*
D11*
%TO.N,Net-(SW6-B)*%
X107950000Y-73660000D03*
%TD*%
D10*
%TO.N,Net-(SW10-A)*%
%TO.C,RV22*%
X153670000Y-58420000D03*
D11*
%TO.N,Net-(SW10-B)*%
X153670000Y-55880000D03*
X153670000Y-53340000D03*
%TD*%
D16*
%TO.N,N/C*%
%TO.C,H5*%
X88900000Y-148590000D03*
%TD*%
D10*
%TO.N,Net-(SW5-A)*%
%TO.C,SW5*%
X111760000Y-115570000D03*
D11*
%TO.N,Net-(SW5-B)*%
X111760000Y-113030000D03*
%TD*%
D10*
%TO.N,Net-(SW8-A)*%
%TO.C,SW8*%
X107950000Y-86360000D03*
D11*
%TO.N,Net-(SW8-B)*%
X107950000Y-83820000D03*
%TD*%
D16*
%TO.N,N/C*%
%TO.C,H2*%
X88900000Y-41910000D03*
%TD*%
D10*
%TO.N,Net-(R116-Pad2)*%
%TO.C,RV19*%
X149860000Y-71120000D03*
D11*
X149860000Y-73660000D03*
%TO.N,Net-(R118-Pad1)*%
X149860000Y-76200000D03*
%TO.N,GND_O*%
X153670000Y-76200000D03*
%TO.N,Net-(R117-Pad2)*%
X153670000Y-73660000D03*
D10*
X153670000Y-71120000D03*
%TD*%
D12*
%TO.N,Net-(R63-Pad2)*%
%TO.C,U7*%
X138370000Y-100270000D03*
D13*
%TO.N,Net-(U7A--)*%
X138370000Y-102810000D03*
%TO.N,Net-(U7A-+)*%
X138370000Y-105350000D03*
%TO.N,+15V_O*%
X138370000Y-107890000D03*
%TO.N,Net-(U7B-+)*%
X138370000Y-110430000D03*
%TO.N,Net-(U7B--)*%
X138370000Y-112970000D03*
%TO.N,Net-(R90-Pad2)*%
X138370000Y-115510000D03*
%TO.N,Net-(R154-Pad2)*%
X145990000Y-115510000D03*
%TO.N,Net-(U7C--)*%
X145990000Y-112970000D03*
%TO.N,Net-(U7C-+)*%
X145990000Y-110430000D03*
%TO.N,-15V_O*%
X145990000Y-107890000D03*
%TO.N,Net-(U7D-+)*%
X145990000Y-105350000D03*
%TO.N,Net-(U7D--)*%
X145990000Y-102810000D03*
%TO.N,Net-(R152-Pad2)*%
X145990000Y-100270000D03*
%TD*%
D12*
%TO.N,Net-(U14A--)*%
%TO.C,U14*%
X165100000Y-100330000D03*
D13*
X165100000Y-102870000D03*
%TO.N,Net-(U14A-+)*%
X165100000Y-105410000D03*
%TO.N,+15V_O*%
X165100000Y-107950000D03*
%TO.N,Net-(U14B-+)*%
X165100000Y-110490000D03*
%TO.N,Net-(U14B--)*%
X165100000Y-113030000D03*
X165100000Y-115570000D03*
%TO.N,Net-(R84-Pad2)*%
X172720000Y-115570000D03*
%TO.N,Net-(U14C--)*%
X172720000Y-113030000D03*
%TO.N,Net-(U14C-+)*%
X172720000Y-110490000D03*
%TO.N,-15V_O*%
X172720000Y-107950000D03*
%TO.N,Net-(U14D-+)*%
X172720000Y-105410000D03*
%TO.N,Net-(U14D--)*%
X172720000Y-102870000D03*
%TO.N,Net-(R55-Pad2)*%
X172720000Y-100330000D03*
%TD*%
D12*
%TO.N,Net-(SW4-A)*%
%TO.C,U10*%
X115570000Y-100330000D03*
D13*
%TO.N,Net-(SW4-B)*%
X115570000Y-102870000D03*
%TO.N,Net-(U10A-+)*%
X115570000Y-105410000D03*
%TO.N,+15V_O*%
X115570000Y-107950000D03*
%TO.N,Net-(U10A-+)*%
X115570000Y-110490000D03*
%TO.N,Net-(SW5-B)*%
X115570000Y-113030000D03*
%TO.N,Net-(SW5-A)*%
X115570000Y-115570000D03*
%TO.N,Net-(R79-Pad2)*%
X123190000Y-115570000D03*
%TO.N,Net-(U10C--)*%
X123190000Y-113030000D03*
%TO.N,Net-(U10C-+)*%
X123190000Y-110490000D03*
%TO.N,-15V_O*%
X123190000Y-107950000D03*
%TO.N,Net-(U10D-+)*%
X123190000Y-105410000D03*
%TO.N,Net-(U10D--)*%
X123190000Y-102870000D03*
%TO.N,Net-(R49-Pad2)*%
X123190000Y-100330000D03*
%TD*%
D10*
%TO.N,Net-(SW10-A)*%
%TO.C,SW10*%
X149860000Y-58420000D03*
D11*
%TO.N,Net-(SW10-B)*%
X149860000Y-55880000D03*
%TD*%
D16*
%TO.N,N/C*%
%TO.C,H8*%
X223520000Y-41910000D03*
%TD*%
D17*
%TO.N,GND_O*%
X130810000Y-78740000D03*
X128270000Y-50800000D03*
X186055000Y-102870000D03*
X129540000Y-139700000D03*
X198247000Y-77216000D03*
X198374000Y-114046000D03*
X169850000Y-135560000D03*
X120142000Y-68072000D03*
X141224000Y-72644000D03*
X111125000Y-50800000D03*
X186055000Y-139700000D03*
X200406000Y-49784000D03*
X105156000Y-152908000D03*
X99060000Y-107950000D03*
X215900000Y-50800000D03*
X128000000Y-46736000D03*
X159385000Y-50800000D03*
X171450000Y-121920000D03*
X200330000Y-109525000D03*
X109728000Y-78740000D03*
X152654000Y-153162000D03*
X186055000Y-113030000D03*
X175260000Y-86360000D03*
X186055000Y-100330000D03*
X117475000Y-63500000D03*
X167910000Y-131080000D03*
X159258000Y-137160000D03*
X130810000Y-104140000D03*
X102108000Y-78740000D03*
X150114000Y-122555000D03*
X102108000Y-63500000D03*
X182245000Y-83820000D03*
X198272400Y-85394800D03*
X105156000Y-133350000D03*
X105140000Y-67564000D03*
X182245000Y-78740000D03*
X198374000Y-57404000D03*
X122174000Y-93980000D03*
X126365000Y-121920000D03*
X169926000Y-77216000D03*
X167850000Y-143466000D03*
X169850000Y-140640000D03*
X198292500Y-135590500D03*
X143180000Y-106680000D03*
X130810000Y-81280000D03*
X129540000Y-78740000D03*
X200367500Y-138849500D03*
X189230000Y-137160000D03*
X141202500Y-82804000D03*
X126000000Y-153400000D03*
X153035000Y-107950000D03*
X186055000Y-137160000D03*
X167872500Y-109855000D03*
X124190000Y-51647600D03*
X217170000Y-127000000D03*
X109728000Y-63500000D03*
X200330000Y-106477000D03*
X178435000Y-137160000D03*
X217170000Y-124490000D03*
X200406000Y-131191000D03*
X179705000Y-78740000D03*
X153035000Y-106680000D03*
X126000000Y-96955000D03*
X189230000Y-78740000D03*
X180086000Y-50800000D03*
X177800000Y-93345000D03*
X216535000Y-107950000D03*
X198292500Y-143083500D03*
X167910000Y-72390000D03*
X102235000Y-76200000D03*
X200367500Y-80251700D03*
X207987500Y-139700000D03*
X156845000Y-50800000D03*
X120380000Y-57420000D03*
X178562000Y-53340000D03*
X200406000Y-72644000D03*
X188722000Y-107950000D03*
X110722500Y-105007500D03*
X186055000Y-115570000D03*
X129032000Y-110490000D03*
X103124000Y-135382000D03*
X105140000Y-46720000D03*
X198374000Y-44196000D03*
X105156000Y-87630000D03*
X125095000Y-63500000D03*
X106172000Y-53340000D03*
X216535000Y-90805000D03*
X128037500Y-135770000D03*
X198330000Y-101937000D03*
X110490000Y-121920000D03*
X152400000Y-66040000D03*
X153035000Y-109220000D03*
X152400000Y-83820000D03*
X158517500Y-141245500D03*
X214630000Y-102870000D03*
X128016000Y-57150000D03*
X159385000Y-45720000D03*
X128270000Y-51435000D03*
X141202500Y-139065000D03*
X120396000Y-54102000D03*
X129540000Y-81280000D03*
X216535000Y-110490000D03*
X110722500Y-139065000D03*
X171450000Y-60960000D03*
X120380000Y-46720000D03*
X141224000Y-79756000D03*
%TO.N,Net-(U6D--)*%
X224155000Y-119380000D03*
%TO.N,Net-(R62-Pad1)*%
X121285000Y-122555000D03*
X130810000Y-106680000D03*
X130810000Y-115570000D03*
%TO.N,Net-(U6C--)*%
X224790000Y-132080000D03*
%TO.N,Net-(U12C--)*%
X224155000Y-115570000D03*
%TO.N,Net-(U16D--)*%
X193548000Y-71120000D03*
%TO.N,Net-(U2D--)*%
X183515000Y-122555000D03*
%TO.N,Net-(U13C--)*%
X114935000Y-63500000D03*
%TO.N,Net-(U12D--)*%
X204470000Y-88900000D03*
%TO.N,Net-(U13D--)*%
X121920000Y-63500000D03*
%TO.N,Net-(U2C--)*%
X182880000Y-153670000D03*
%TO.N,Net-(R66-Pad1)*%
X132080000Y-110490000D03*
X132080000Y-100330000D03*
%TO.N,Net-(R111-Pad2)*%
X140165099Y-70061099D03*
X140970000Y-93345000D03*
%TO.N,Net-(U21A-+)*%
X142240000Y-66040000D03*
%TO.N,Net-(U16B--)*%
X202565000Y-88900000D03*
%TO.N,Net-(U3D--)*%
X108585000Y-34925000D03*
%TO.N,Net-(U3C--)*%
X116205000Y-36195000D03*
%TO.N,Net-(U20A-+)*%
X128270000Y-64478000D03*
%TO.N,Net-(Z263-Pad2)*%
X156845000Y-121920000D03*
X158750000Y-114935000D03*
%TO.N,Net-(R117-Pad2)*%
X151765000Y-81280000D03*
%TD*%
D18*
%TO.N,+9V_O*%
X210820000Y-139700000D02*
X213360000Y-139700000D01*
%TO.N,9V_GND_O*%
X213360000Y-134620000D02*
X210820000Y-134620000D01*
X210820000Y-137160000D02*
X213360000Y-137160000D01*
X210820000Y-137160000D02*
X210820000Y-134620000D01*
X213360000Y-134620000D02*
X213360000Y-137160000D01*
%TD*%
%TA.AperFunction,Conductor*%
%TO.N,GND_O*%
G36*
X200810677Y-41294685D02*
G01*
X200831319Y-41311319D01*
X201258681Y-41738681D01*
X201292166Y-41800004D01*
X201295000Y-41826362D01*
X201295000Y-60960000D01*
X208415000Y-60960000D01*
X208915000Y-60960000D01*
X208915000Y-49446362D01*
X208934685Y-49379323D01*
X208951319Y-49358681D01*
X209378681Y-48931319D01*
X209440004Y-48897834D01*
X209466362Y-48895000D01*
X215983638Y-48895000D01*
X216050677Y-48914685D01*
X216071319Y-48931319D01*
X216498681Y-49358681D01*
X216532166Y-49420004D01*
X216535000Y-49446362D01*
X216535000Y-68663638D01*
X216515315Y-68730677D01*
X216498681Y-68751319D01*
X216071319Y-69178681D01*
X216009996Y-69212166D01*
X215983638Y-69215000D01*
X201295000Y-69215000D01*
X201295000Y-77553638D01*
X201275315Y-77620677D01*
X201258681Y-77641319D01*
X200831319Y-78068681D01*
X200769996Y-78102166D01*
X200743638Y-78105000D01*
X198036362Y-78105000D01*
X197969323Y-78085315D01*
X197948681Y-78068681D01*
X197521319Y-77641319D01*
X197487834Y-77579996D01*
X197485000Y-77553638D01*
X197485000Y-69850000D01*
X196985000Y-69850000D01*
X196763159Y-69850000D01*
X196724156Y-69843706D01*
X196682801Y-69830002D01*
X196682798Y-69830001D01*
X196682797Y-69830001D01*
X196682793Y-69830000D01*
X196682790Y-69830000D01*
X196580010Y-69819500D01*
X194579998Y-69819500D01*
X194579981Y-69819501D01*
X194477203Y-69830000D01*
X194445151Y-69840621D01*
X194435843Y-69843706D01*
X194396840Y-69850000D01*
X193040000Y-69850000D01*
X193040000Y-70373849D01*
X193020315Y-70440888D01*
X193003681Y-70461530D01*
X192887376Y-70577834D01*
X192887373Y-70577837D01*
X192794295Y-70717139D01*
X192730184Y-70871917D01*
X192730182Y-70871925D01*
X192697500Y-71036228D01*
X192697500Y-71203771D01*
X192730182Y-71368074D01*
X192730184Y-71368082D01*
X192794295Y-71522860D01*
X192887373Y-71662162D01*
X193003681Y-71778470D01*
X193037166Y-71839793D01*
X193040000Y-71866151D01*
X193040000Y-87630000D01*
X194875325Y-87630000D01*
X194894722Y-87631526D01*
X195077648Y-87660500D01*
X195077649Y-87660500D01*
X196082351Y-87660500D01*
X196082352Y-87660500D01*
X196265277Y-87631526D01*
X196284675Y-87630000D01*
X197485000Y-87630000D01*
X197485000Y-79926362D01*
X197504685Y-79859323D01*
X197521319Y-79838681D01*
X197948681Y-79411319D01*
X198010004Y-79377834D01*
X198036362Y-79375000D01*
X200743638Y-79375000D01*
X200810677Y-79394685D01*
X200831319Y-79411319D01*
X201258681Y-79838681D01*
X201292166Y-79900004D01*
X201295000Y-79926362D01*
X201295000Y-89535000D01*
X201795000Y-89535000D01*
X201947244Y-89535000D01*
X202014283Y-89554685D01*
X202018058Y-89557432D01*
X202022837Y-89560625D01*
X202022838Y-89560626D01*
X202162137Y-89653703D01*
X202316918Y-89717816D01*
X202481228Y-89750499D01*
X202481232Y-89750500D01*
X202481233Y-89750500D01*
X202648768Y-89750500D01*
X202648769Y-89750499D01*
X202813082Y-89717816D01*
X202967863Y-89653703D01*
X203107162Y-89560626D01*
X203107161Y-89560626D01*
X203112227Y-89557242D01*
X203113500Y-89559147D01*
X203168413Y-89535832D01*
X203182756Y-89535000D01*
X203852244Y-89535000D01*
X203919283Y-89554685D01*
X203923058Y-89557432D01*
X203927837Y-89560625D01*
X203927838Y-89560626D01*
X204067137Y-89653703D01*
X204221918Y-89717816D01*
X204386228Y-89750499D01*
X204386232Y-89750500D01*
X204386233Y-89750500D01*
X204553768Y-89750500D01*
X204553769Y-89750499D01*
X204718082Y-89717816D01*
X204872863Y-89653703D01*
X205012162Y-89560626D01*
X205012161Y-89560626D01*
X205017227Y-89557242D01*
X205018500Y-89559147D01*
X205073413Y-89535832D01*
X205087756Y-89535000D01*
X216035000Y-89535000D01*
X217035000Y-89535000D01*
X222968638Y-89535000D01*
X223035677Y-89554685D01*
X223056319Y-89571319D01*
X223483681Y-89998681D01*
X223517166Y-90060004D01*
X223520000Y-90086362D01*
X223520000Y-114952244D01*
X223500315Y-115019283D01*
X223497567Y-115023058D01*
X223401295Y-115167139D01*
X223337184Y-115321917D01*
X223337182Y-115321925D01*
X223304500Y-115486228D01*
X223304500Y-115653771D01*
X223337182Y-115818074D01*
X223337184Y-115818082D01*
X223401295Y-115972860D01*
X223497758Y-116117227D01*
X223495846Y-116118504D01*
X223519163Y-116173376D01*
X223520000Y-116187755D01*
X223520000Y-118762244D01*
X223500315Y-118829283D01*
X223497567Y-118833058D01*
X223401295Y-118977139D01*
X223337184Y-119131917D01*
X223337182Y-119131925D01*
X223304500Y-119296228D01*
X223304500Y-119463771D01*
X223337182Y-119628074D01*
X223337184Y-119628082D01*
X223401295Y-119782860D01*
X223497758Y-119927227D01*
X223495846Y-119928504D01*
X223519163Y-119983376D01*
X223520000Y-119997755D01*
X223520000Y-132798638D01*
X223500315Y-132865677D01*
X223483681Y-132886319D01*
X223056319Y-133313681D01*
X222994996Y-133347166D01*
X222968638Y-133350000D01*
X213841291Y-133350000D01*
X213802972Y-133343931D01*
X213676243Y-133302754D01*
X213565538Y-133285220D01*
X213466287Y-133269500D01*
X213253713Y-133269500D01*
X213154462Y-133285220D01*
X213043756Y-133302754D01*
X212917028Y-133343931D01*
X212878709Y-133350000D01*
X211985389Y-133350000D01*
X211918350Y-133330315D01*
X211912790Y-133326455D01*
X211912327Y-133326202D01*
X211777482Y-133275908D01*
X211777483Y-133275908D01*
X211717883Y-133269501D01*
X211717881Y-133269500D01*
X211717873Y-133269500D01*
X211717864Y-133269500D01*
X209922129Y-133269500D01*
X209922123Y-133269501D01*
X209862516Y-133275908D01*
X209727672Y-133326202D01*
X209719891Y-133330452D01*
X209719066Y-133328942D01*
X209663457Y-133349684D01*
X209654611Y-133350000D01*
X209550000Y-133350000D01*
X209550000Y-133454610D01*
X209530315Y-133521649D01*
X209526454Y-133527209D01*
X209526202Y-133527671D01*
X209475908Y-133662517D01*
X209469501Y-133722116D01*
X209469500Y-133722135D01*
X209469500Y-135517870D01*
X209469501Y-135517876D01*
X209475908Y-135577483D01*
X209526202Y-135712327D01*
X209530452Y-135720109D01*
X209528942Y-135720933D01*
X209549684Y-135776543D01*
X209550000Y-135785389D01*
X209550000Y-136678709D01*
X209543931Y-136717027D01*
X209502754Y-136843757D01*
X209469500Y-137053713D01*
X209469500Y-137266287D01*
X209476531Y-137310677D01*
X209502753Y-137476239D01*
X209543931Y-137602971D01*
X209550000Y-137641289D01*
X209550000Y-139218709D01*
X209543931Y-139257028D01*
X209502754Y-139383756D01*
X209469500Y-139593713D01*
X209469500Y-139806286D01*
X209502753Y-140016239D01*
X209543931Y-140142971D01*
X209550000Y-140181289D01*
X209550000Y-141758709D01*
X209543931Y-141797028D01*
X209502754Y-141923756D01*
X209469500Y-142133713D01*
X209469500Y-142346286D01*
X209502753Y-142556239D01*
X209543931Y-142682971D01*
X209550000Y-142721289D01*
X209550000Y-143510000D01*
X210338709Y-143510000D01*
X210377027Y-143516068D01*
X210503757Y-143557246D01*
X210713713Y-143590500D01*
X210713714Y-143590500D01*
X210926286Y-143590500D01*
X210926287Y-143590500D01*
X211136243Y-143557246D01*
X211262972Y-143516068D01*
X211301291Y-143510000D01*
X212878709Y-143510000D01*
X212917027Y-143516068D01*
X213043757Y-143557246D01*
X213253713Y-143590500D01*
X213253714Y-143590500D01*
X213466286Y-143590500D01*
X213466287Y-143590500D01*
X213676243Y-143557246D01*
X213802972Y-143516068D01*
X213805302Y-143515699D01*
X213806356Y-143515023D01*
X213841291Y-143510000D01*
X214078638Y-143510000D01*
X214145677Y-143529685D01*
X214166319Y-143546319D01*
X214593681Y-143973681D01*
X214627166Y-144035004D01*
X214630000Y-144061362D01*
X214630000Y-148038638D01*
X214610315Y-148105677D01*
X214593681Y-148126319D01*
X214166319Y-148553681D01*
X214139391Y-148568384D01*
X214113573Y-148584977D01*
X214107372Y-148585868D01*
X214104996Y-148587166D01*
X214078638Y-148590000D01*
X213841291Y-148590000D01*
X213802972Y-148583931D01*
X213676243Y-148542754D01*
X213466287Y-148509500D01*
X213253713Y-148509500D01*
X213148735Y-148526127D01*
X213043756Y-148542754D01*
X212917028Y-148583931D01*
X212878709Y-148590000D01*
X211301291Y-148590000D01*
X211262972Y-148583931D01*
X211136243Y-148542754D01*
X210926287Y-148509500D01*
X210713713Y-148509500D01*
X210608735Y-148526127D01*
X210503756Y-148542754D01*
X210377028Y-148583931D01*
X210338709Y-148590000D01*
X208280000Y-148590000D01*
X208280000Y-153753638D01*
X208260315Y-153820677D01*
X208243681Y-153841319D01*
X207816319Y-154268681D01*
X207754996Y-154302166D01*
X207728638Y-154305000D01*
X184701362Y-154305000D01*
X184634323Y-154285315D01*
X184613681Y-154268681D01*
X184186319Y-153841319D01*
X184152834Y-153779996D01*
X184150000Y-153753638D01*
X184150000Y-153035000D01*
X183650000Y-153035000D01*
X183497756Y-153035000D01*
X183430717Y-153015315D01*
X183426941Y-153012567D01*
X183282860Y-152916295D01*
X183128082Y-152852184D01*
X183128074Y-152852182D01*
X182963771Y-152819500D01*
X182963767Y-152819500D01*
X182796233Y-152819500D01*
X182796228Y-152819500D01*
X182631925Y-152852182D01*
X182631917Y-152852184D01*
X182477139Y-152916295D01*
X182332773Y-153012758D01*
X182331499Y-153010852D01*
X182276587Y-153034168D01*
X182262244Y-153035000D01*
X154305000Y-153035000D01*
X154305000Y-153753638D01*
X154285315Y-153820677D01*
X154268681Y-153841319D01*
X153841319Y-154268681D01*
X153779996Y-154302166D01*
X153753638Y-154305000D01*
X102786362Y-154305000D01*
X102719323Y-154285315D01*
X102698681Y-154268681D01*
X102271319Y-153841319D01*
X102237834Y-153779996D01*
X102235000Y-153753638D01*
X102235000Y-135171362D01*
X102254685Y-135104323D01*
X102271319Y-135083681D01*
X102698681Y-134656319D01*
X102760004Y-134622834D01*
X102786362Y-134620000D01*
X104223638Y-134620000D01*
X104290677Y-134639685D01*
X104311319Y-134656319D01*
X104738681Y-135083681D01*
X104772166Y-135145004D01*
X104775000Y-135171362D01*
X104775000Y-135890000D01*
X107145325Y-135890000D01*
X107164722Y-135891526D01*
X107347648Y-135920500D01*
X107347649Y-135920500D01*
X108552351Y-135920500D01*
X108552352Y-135920500D01*
X108735277Y-135891526D01*
X108754675Y-135890000D01*
X111208638Y-135890000D01*
X111275677Y-135909685D01*
X111296319Y-135926319D01*
X111723681Y-136353681D01*
X111757166Y-136415004D01*
X111760000Y-136441362D01*
X111760000Y-139148638D01*
X111740315Y-139215677D01*
X111723681Y-139236319D01*
X111296319Y-139663681D01*
X111234996Y-139697166D01*
X111208638Y-139700000D01*
X110406362Y-139700000D01*
X110339323Y-139680315D01*
X110318681Y-139663681D01*
X109891319Y-139236319D01*
X109857834Y-139174996D01*
X109855000Y-139148638D01*
X109855000Y-138430000D01*
X109355000Y-138430000D01*
X108754675Y-138430000D01*
X108735277Y-138428473D01*
X108727025Y-138427166D01*
X108552352Y-138399500D01*
X107347648Y-138399500D01*
X107172975Y-138427166D01*
X107164723Y-138428473D01*
X107145325Y-138430000D01*
X106045000Y-138430000D01*
X106045000Y-146685000D01*
X124595000Y-146685000D01*
X125095000Y-146685000D01*
X125095000Y-138981362D01*
X125114685Y-138914323D01*
X125131319Y-138893681D01*
X125558681Y-138466319D01*
X125620004Y-138432834D01*
X125646362Y-138430000D01*
X131528638Y-138430000D01*
X131595677Y-138449685D01*
X131616319Y-138466319D01*
X132043681Y-138893681D01*
X132077166Y-138955004D01*
X132080000Y-138981362D01*
X132080000Y-146685000D01*
X139835000Y-146685000D01*
X140335000Y-146685000D01*
X140335000Y-138981362D01*
X140354685Y-138914323D01*
X140371319Y-138893681D01*
X140798681Y-138466319D01*
X140860004Y-138432834D01*
X140886362Y-138430000D01*
X143593638Y-138430000D01*
X143660677Y-138449685D01*
X143681319Y-138466319D01*
X144108681Y-138893681D01*
X144142166Y-138955004D01*
X144145000Y-138981362D01*
X144145000Y-147320000D01*
X155075000Y-147320000D01*
X155575000Y-147320000D01*
X155575000Y-140886362D01*
X155594685Y-140819323D01*
X155611319Y-140798681D01*
X156038681Y-140371319D01*
X156100004Y-140337834D01*
X156126362Y-140335000D01*
X162008638Y-140335000D01*
X162075677Y-140354685D01*
X162096319Y-140371319D01*
X162523681Y-140798681D01*
X162557166Y-140860004D01*
X162560000Y-140886362D01*
X162560000Y-146685000D01*
X166505000Y-146685000D01*
X167005000Y-146685000D01*
X167005000Y-140886362D01*
X167024685Y-140819323D01*
X167041319Y-140798681D01*
X167468681Y-140371319D01*
X167530004Y-140337834D01*
X167556362Y-140335000D01*
X170263638Y-140335000D01*
X170330677Y-140354685D01*
X170351319Y-140371319D01*
X170778681Y-140798681D01*
X170812166Y-140860004D01*
X170815000Y-140886362D01*
X170815000Y-146685000D01*
X174760000Y-146685000D01*
X175260000Y-146685000D01*
X175260000Y-139616362D01*
X175279685Y-139549323D01*
X175296319Y-139528681D01*
X175723681Y-139101319D01*
X175785004Y-139067834D01*
X175811362Y-139065000D01*
X193123638Y-139065000D01*
X193190677Y-139084685D01*
X193211319Y-139101319D01*
X193638681Y-139528681D01*
X193672166Y-139590004D01*
X193675000Y-139616362D01*
X193675000Y-146050000D01*
X194875325Y-146050000D01*
X194894722Y-146051526D01*
X195077648Y-146080500D01*
X195077649Y-146080500D01*
X196082351Y-146080500D01*
X196082352Y-146080500D01*
X196265277Y-146051526D01*
X196284675Y-146050000D01*
X197485000Y-146050000D01*
X197485000Y-138981362D01*
X197504685Y-138914323D01*
X197521319Y-138893681D01*
X197948681Y-138466319D01*
X198010004Y-138432834D01*
X198036362Y-138430000D01*
X200743638Y-138430000D01*
X200810677Y-138449685D01*
X200831319Y-138466319D01*
X201258681Y-138893681D01*
X201292166Y-138955004D01*
X201295000Y-138981362D01*
X201295000Y-146050000D01*
X202495325Y-146050000D01*
X202514722Y-146051526D01*
X202697648Y-146080500D01*
X202697649Y-146080500D01*
X203702351Y-146080500D01*
X203702352Y-146080500D01*
X203885277Y-146051526D01*
X203904675Y-146050000D01*
X205105000Y-146050000D01*
X205105000Y-128270000D01*
X204605000Y-128270000D01*
X203904675Y-128270000D01*
X203885277Y-128268473D01*
X203855180Y-128263706D01*
X203702352Y-128239500D01*
X202697648Y-128239500D01*
X202544820Y-128263706D01*
X202514723Y-128268473D01*
X202495325Y-128270000D01*
X201295000Y-128270000D01*
X201295000Y-135973638D01*
X201275315Y-136040677D01*
X201258681Y-136061319D01*
X200831319Y-136488681D01*
X200769996Y-136522166D01*
X200743638Y-136525000D01*
X198036362Y-136525000D01*
X197969323Y-136505315D01*
X197948681Y-136488681D01*
X197521319Y-136061319D01*
X197487834Y-135999996D01*
X197485000Y-135973638D01*
X197485000Y-128270000D01*
X196985000Y-128270000D01*
X196763159Y-128270000D01*
X196724156Y-128263706D01*
X196682801Y-128250002D01*
X196682798Y-128250001D01*
X196682797Y-128250001D01*
X196682793Y-128250000D01*
X196682790Y-128250000D01*
X196580010Y-128239500D01*
X194579998Y-128239500D01*
X194579981Y-128239501D01*
X194477203Y-128250000D01*
X194445151Y-128260621D01*
X194435843Y-128263706D01*
X194396840Y-128270000D01*
X193675000Y-128270000D01*
X193675000Y-137243638D01*
X193655315Y-137310677D01*
X193638681Y-137331319D01*
X193211319Y-137758681D01*
X193149996Y-137792166D01*
X193123638Y-137795000D01*
X175811362Y-137795000D01*
X175744323Y-137775315D01*
X175723681Y-137758681D01*
X175296319Y-137331319D01*
X175262834Y-137269996D01*
X175260000Y-137243638D01*
X175260000Y-127635000D01*
X174760000Y-127635000D01*
X171315000Y-127635000D01*
X170815000Y-127635000D01*
X170815000Y-135973638D01*
X170795315Y-136040677D01*
X170778681Y-136061319D01*
X170351319Y-136488681D01*
X170289996Y-136522166D01*
X170263638Y-136525000D01*
X167556362Y-136525000D01*
X167489323Y-136505315D01*
X167468681Y-136488681D01*
X167041319Y-136061319D01*
X167007834Y-135999996D01*
X167005000Y-135973638D01*
X167005000Y-128270000D01*
X166505000Y-128270000D01*
X166283159Y-128270000D01*
X166244156Y-128263706D01*
X166202801Y-128250002D01*
X166202798Y-128250001D01*
X166202797Y-128250001D01*
X166202793Y-128250000D01*
X166202790Y-128250000D01*
X166100010Y-128239500D01*
X164099998Y-128239500D01*
X164099981Y-128239501D01*
X163997203Y-128250000D01*
X163965151Y-128260621D01*
X163955843Y-128263706D01*
X163916840Y-128270000D01*
X162560000Y-128270000D01*
X162560000Y-137878638D01*
X162540315Y-137945677D01*
X162523681Y-137966319D01*
X162096319Y-138393681D01*
X162034996Y-138427166D01*
X162008638Y-138430000D01*
X156126362Y-138430000D01*
X156059323Y-138410315D01*
X156038681Y-138393681D01*
X155611319Y-137966319D01*
X155577834Y-137904996D01*
X155575000Y-137878638D01*
X155575000Y-128270000D01*
X155075000Y-128270000D01*
X154474675Y-128270000D01*
X154455277Y-128268473D01*
X154425180Y-128263706D01*
X154272352Y-128239500D01*
X153067648Y-128239500D01*
X152914820Y-128263706D01*
X152884723Y-128268473D01*
X152865325Y-128270000D01*
X150664675Y-128270000D01*
X150645277Y-128268473D01*
X150615180Y-128263706D01*
X150462352Y-128239500D01*
X149257648Y-128239500D01*
X149104820Y-128263706D01*
X149074723Y-128268473D01*
X149055325Y-128270000D01*
X146754675Y-128270000D01*
X146735277Y-128268473D01*
X146705180Y-128263706D01*
X146552352Y-128239500D01*
X145547648Y-128239500D01*
X145394820Y-128263706D01*
X145364723Y-128268473D01*
X145345325Y-128270000D01*
X139613159Y-128270000D01*
X139574156Y-128263706D01*
X139532801Y-128250002D01*
X139532798Y-128250001D01*
X139532797Y-128250001D01*
X139532793Y-128250000D01*
X139532790Y-128250000D01*
X139430010Y-128239500D01*
X137429998Y-128239500D01*
X137429981Y-128239501D01*
X137327203Y-128250000D01*
X137295151Y-128260621D01*
X137285843Y-128263706D01*
X137246840Y-128270000D01*
X135424675Y-128270000D01*
X135405277Y-128268473D01*
X135375180Y-128263706D01*
X135222352Y-128239500D01*
X134017648Y-128239500D01*
X133864820Y-128263706D01*
X133834723Y-128268473D01*
X133815325Y-128270000D01*
X132715000Y-128270000D01*
X132715000Y-135973638D01*
X132695315Y-136040677D01*
X132678681Y-136061319D01*
X132251319Y-136488681D01*
X132189996Y-136522166D01*
X132163638Y-136525000D01*
X125646362Y-136525000D01*
X125579323Y-136505315D01*
X125558681Y-136488681D01*
X125131319Y-136061319D01*
X125097834Y-135999996D01*
X125095000Y-135973638D01*
X125095000Y-124376362D01*
X125114685Y-124309323D01*
X125131319Y-124288681D01*
X125558681Y-123861319D01*
X125620004Y-123827834D01*
X125646362Y-123825000D01*
X146050000Y-123825000D01*
X147584008Y-122290991D01*
X147624230Y-122264115D01*
X148432212Y-121929438D01*
X148479665Y-121920000D01*
X155050335Y-121920000D01*
X155097787Y-121929438D01*
X155905767Y-122264114D01*
X155945994Y-122290994D01*
X157480000Y-123825000D01*
X184285000Y-123825000D01*
X184785000Y-123825000D01*
X184785000Y-121920000D01*
X184132756Y-121920000D01*
X184065717Y-121900315D01*
X184061941Y-121897567D01*
X183917860Y-121801295D01*
X183763082Y-121737184D01*
X183763074Y-121737182D01*
X183598771Y-121704500D01*
X183598767Y-121704500D01*
X183431233Y-121704500D01*
X183431228Y-121704500D01*
X183266925Y-121737182D01*
X183266917Y-121737184D01*
X183112139Y-121801295D01*
X182967773Y-121897758D01*
X182966499Y-121895852D01*
X182911587Y-121919168D01*
X182897244Y-121920000D01*
X176530000Y-121920000D01*
X176082786Y-122143607D01*
X175720128Y-122324935D01*
X175693163Y-122334709D01*
X174774051Y-122551683D01*
X174745562Y-122555000D01*
X170815000Y-122555000D01*
X159909665Y-122555000D01*
X159862212Y-122545561D01*
X159054233Y-122210885D01*
X159014005Y-122184005D01*
X157480000Y-120650000D01*
X156980000Y-120650000D01*
X147185000Y-120650000D01*
X146685000Y-120650000D01*
X146684999Y-120650000D01*
X146331447Y-121003553D01*
X145150994Y-122184005D01*
X145110766Y-122210885D01*
X144302788Y-122545561D01*
X144255335Y-122555000D01*
X125463862Y-122555000D01*
X125396823Y-122535315D01*
X125376181Y-122518681D01*
X125131319Y-122273819D01*
X125097834Y-122212496D01*
X125095000Y-122186138D01*
X125095000Y-121920000D01*
X124777500Y-121920000D01*
X121902756Y-121920000D01*
X121835717Y-121900315D01*
X121831941Y-121897567D01*
X121687860Y-121801295D01*
X121533082Y-121737184D01*
X121533074Y-121737182D01*
X121368771Y-121704500D01*
X121368767Y-121704500D01*
X121201233Y-121704500D01*
X121201228Y-121704500D01*
X121036925Y-121737182D01*
X121036917Y-121737184D01*
X120882139Y-121801295D01*
X120737773Y-121897758D01*
X120736499Y-121895852D01*
X120681587Y-121919168D01*
X120667244Y-121920000D01*
X116205000Y-121920000D01*
X116205000Y-127083638D01*
X116185315Y-127150677D01*
X116168681Y-127171319D01*
X115741319Y-127598681D01*
X115679996Y-127632166D01*
X115653638Y-127635000D01*
X106045000Y-127635000D01*
X106045000Y-133433638D01*
X106025315Y-133500677D01*
X106008681Y-133521319D01*
X105581319Y-133948681D01*
X105519996Y-133982166D01*
X105493638Y-133985000D01*
X102786362Y-133985000D01*
X102719323Y-133965315D01*
X102698681Y-133948681D01*
X102271319Y-133521319D01*
X102237834Y-133459996D01*
X102235000Y-133433638D01*
X102235000Y-111125000D01*
X101735000Y-111125000D01*
X97706362Y-111125000D01*
X97639323Y-111105315D01*
X97618681Y-111088681D01*
X97191319Y-110661319D01*
X97157834Y-110599996D01*
X97155000Y-110573638D01*
X97155000Y-107231362D01*
X97174685Y-107164323D01*
X97191319Y-107143681D01*
X97618681Y-106716319D01*
X97680004Y-106682834D01*
X97706362Y-106680000D01*
X107145325Y-106680000D01*
X107164722Y-106681526D01*
X107347648Y-106710500D01*
X107347649Y-106710500D01*
X108552351Y-106710500D01*
X108552352Y-106710500D01*
X108735277Y-106681526D01*
X108754675Y-106680000D01*
X109855000Y-106680000D01*
X109855000Y-104691362D01*
X109874685Y-104624323D01*
X109891319Y-104603681D01*
X110318681Y-104176319D01*
X110380004Y-104142834D01*
X110406362Y-104140000D01*
X110955325Y-104140000D01*
X110974722Y-104141526D01*
X111157648Y-104170500D01*
X111157649Y-104170500D01*
X111874138Y-104170500D01*
X111941177Y-104190185D01*
X111961819Y-104206819D01*
X112358681Y-104603681D01*
X112392166Y-104665004D01*
X112395000Y-104691362D01*
X112395000Y-108668638D01*
X112375315Y-108735677D01*
X112358681Y-108756319D01*
X111931319Y-109183681D01*
X111869996Y-109217166D01*
X111843638Y-109220000D01*
X108754675Y-109220000D01*
X108735277Y-109218473D01*
X108727025Y-109217166D01*
X108552352Y-109189500D01*
X107347648Y-109189500D01*
X107172975Y-109217166D01*
X107164723Y-109218473D01*
X107145325Y-109220000D01*
X106045000Y-109220000D01*
X106045000Y-117475000D01*
X125230000Y-117475000D01*
X125730000Y-117475000D01*
X125730000Y-109136362D01*
X125749685Y-109069323D01*
X125766319Y-109048681D01*
X126193681Y-108621319D01*
X126255004Y-108587834D01*
X126281362Y-108585000D01*
X129623638Y-108585000D01*
X129690677Y-108604685D01*
X129711319Y-108621319D01*
X130138681Y-109048681D01*
X130172166Y-109110004D01*
X130175000Y-109136362D01*
X130175000Y-114952244D01*
X130155315Y-115019283D01*
X130152567Y-115023058D01*
X130056295Y-115167139D01*
X129992184Y-115321917D01*
X129992182Y-115321925D01*
X129959500Y-115486228D01*
X129959500Y-115653771D01*
X129992182Y-115818074D01*
X129992184Y-115818082D01*
X130056295Y-115972860D01*
X130152758Y-116117227D01*
X130150846Y-116118504D01*
X130174163Y-116173376D01*
X130175000Y-116187755D01*
X130175000Y-116840000D01*
X139835000Y-116840000D01*
X140335000Y-116840000D01*
X140335000Y-105961362D01*
X140354685Y-105894323D01*
X140371319Y-105873681D01*
X140798681Y-105446319D01*
X140860004Y-105412834D01*
X140886362Y-105410000D01*
X143593638Y-105410000D01*
X143660677Y-105429685D01*
X143681319Y-105446319D01*
X144108681Y-105873681D01*
X144142166Y-105935004D01*
X144145000Y-105961362D01*
X144145000Y-116840000D01*
X149995000Y-116840000D01*
X150495000Y-116840000D01*
X150495000Y-105961362D01*
X150514685Y-105894323D01*
X150531319Y-105873681D01*
X150958681Y-105446319D01*
X151020004Y-105412834D01*
X151046362Y-105410000D01*
X157563638Y-105410000D01*
X157630677Y-105429685D01*
X157651319Y-105446319D01*
X158078681Y-105873681D01*
X158112166Y-105935004D01*
X158115000Y-105961362D01*
X158115000Y-114317244D01*
X158095315Y-114384283D01*
X158092567Y-114388058D01*
X157996295Y-114532139D01*
X157932184Y-114686917D01*
X157932182Y-114686925D01*
X157899500Y-114851228D01*
X157899500Y-115018771D01*
X157932182Y-115183074D01*
X157932184Y-115183082D01*
X157996295Y-115337860D01*
X158092758Y-115482227D01*
X158090846Y-115483504D01*
X158114163Y-115538376D01*
X158115000Y-115552755D01*
X158115000Y-115570000D01*
X160020000Y-117475000D01*
X166505000Y-117475000D01*
X167005000Y-117475000D01*
X167005000Y-109771362D01*
X167024685Y-109704323D01*
X167041319Y-109683681D01*
X167468681Y-109256319D01*
X167530004Y-109222834D01*
X167556362Y-109220000D01*
X170263638Y-109220000D01*
X170330677Y-109239685D01*
X170351319Y-109256319D01*
X170778681Y-109683681D01*
X170812166Y-109745004D01*
X170815000Y-109771362D01*
X170815000Y-117475000D01*
X184285000Y-117475000D01*
X184785000Y-117475000D01*
X184785000Y-107231362D01*
X184804685Y-107164323D01*
X184821319Y-107143681D01*
X185248681Y-106716319D01*
X185310004Y-106682834D01*
X185336362Y-106680000D01*
X189948638Y-106680000D01*
X190015677Y-106699685D01*
X190036319Y-106716319D01*
X190463681Y-107143681D01*
X190497166Y-107205004D01*
X190500000Y-107231362D01*
X190500000Y-117475000D01*
X196985000Y-117475000D01*
X197485000Y-117475000D01*
X197485000Y-109136362D01*
X197504685Y-109069323D01*
X197521319Y-109048681D01*
X197948681Y-108621319D01*
X198010004Y-108587834D01*
X198036362Y-108585000D01*
X200743638Y-108585000D01*
X200810677Y-108604685D01*
X200831319Y-108621319D01*
X201258681Y-109048681D01*
X201292166Y-109110004D01*
X201295000Y-109136362D01*
X201295000Y-117475000D01*
X207145000Y-117475000D01*
X207645000Y-117475000D01*
X207645000Y-103505000D01*
X207645000Y-99060000D01*
X203844675Y-99060000D01*
X203825277Y-99058473D01*
X203795180Y-99053706D01*
X203642352Y-99029500D01*
X202637648Y-99029500D01*
X202484820Y-99053706D01*
X202454723Y-99058473D01*
X202435325Y-99060000D01*
X201295000Y-99060000D01*
X201295000Y-106763638D01*
X201275315Y-106830677D01*
X201258681Y-106851319D01*
X200831319Y-107278681D01*
X200769996Y-107312166D01*
X200743638Y-107315000D01*
X198036362Y-107315000D01*
X197969323Y-107295315D01*
X197948681Y-107278681D01*
X197521319Y-106851319D01*
X197487834Y-106789996D01*
X197485000Y-106763638D01*
X197485000Y-99060000D01*
X196985000Y-99060000D01*
X196703159Y-99060000D01*
X196664156Y-99053706D01*
X196622801Y-99040002D01*
X196622798Y-99040001D01*
X196622797Y-99040001D01*
X196622793Y-99040000D01*
X196622790Y-99040000D01*
X196520010Y-99029500D01*
X194519998Y-99029500D01*
X194519981Y-99029501D01*
X194417203Y-99040000D01*
X194385151Y-99050621D01*
X194375843Y-99053706D01*
X194336840Y-99060000D01*
X187960000Y-99060000D01*
X187960000Y-102953638D01*
X187940315Y-103020677D01*
X187923681Y-103041319D01*
X187496319Y-103468681D01*
X187434996Y-103502166D01*
X187408638Y-103505000D01*
X182796362Y-103505000D01*
X182729323Y-103485315D01*
X182708681Y-103468681D01*
X182281319Y-103041319D01*
X182247834Y-102979996D01*
X182245000Y-102953638D01*
X182245000Y-97155000D01*
X181745000Y-97155000D01*
X175760000Y-97155000D01*
X175260000Y-97155000D01*
X175260000Y-97873638D01*
X175240315Y-97940677D01*
X175223681Y-97961319D01*
X174796319Y-98388681D01*
X174734996Y-98422166D01*
X174708638Y-98425000D01*
X131445000Y-98425000D01*
X131445000Y-99712244D01*
X131425315Y-99779283D01*
X131422567Y-99783058D01*
X131326295Y-99927139D01*
X131262184Y-100081917D01*
X131262182Y-100081925D01*
X131229500Y-100246228D01*
X131229500Y-100413771D01*
X131262182Y-100578074D01*
X131262184Y-100578082D01*
X131326295Y-100732860D01*
X131422758Y-100877227D01*
X131420846Y-100878504D01*
X131444163Y-100933376D01*
X131445000Y-100947755D01*
X131445000Y-104223638D01*
X131425315Y-104290677D01*
X131408681Y-104311319D01*
X130981319Y-104738681D01*
X130919996Y-104772166D01*
X130893638Y-104775000D01*
X125646362Y-104775000D01*
X125579323Y-104755315D01*
X125558681Y-104738681D01*
X125131319Y-104311319D01*
X125097834Y-104249996D01*
X125095000Y-104223638D01*
X125095000Y-95723678D01*
X125104439Y-95676225D01*
X125403062Y-94955283D01*
X125429938Y-94915061D01*
X126030061Y-94314938D01*
X126070283Y-94288062D01*
X126791225Y-93989438D01*
X126838678Y-93980000D01*
X140352244Y-93980000D01*
X140419283Y-93999685D01*
X140423058Y-94002432D01*
X140427837Y-94005625D01*
X140427838Y-94005626D01*
X140567137Y-94098703D01*
X140721918Y-94162816D01*
X140886228Y-94195499D01*
X140886232Y-94195500D01*
X140886233Y-94195500D01*
X141053768Y-94195500D01*
X141053769Y-94195499D01*
X141218082Y-94162816D01*
X141372863Y-94098703D01*
X141512162Y-94005626D01*
X141512161Y-94005626D01*
X141517227Y-94002242D01*
X141518500Y-94004147D01*
X141573413Y-93980832D01*
X141587756Y-93980000D01*
X142240000Y-93980000D01*
X143139008Y-93080991D01*
X143179230Y-93054115D01*
X143987212Y-92719438D01*
X144034665Y-92710000D01*
X162559999Y-92710000D01*
X162560000Y-92710000D01*
X164789167Y-90035000D01*
X165397240Y-89305312D01*
X165439900Y-89272405D01*
X166210005Y-88911706D01*
X166262600Y-88900000D01*
X174625000Y-88900000D01*
X174625000Y-69850000D01*
X174125000Y-69850000D01*
X173424675Y-69850000D01*
X173405277Y-69848473D01*
X173375180Y-69843706D01*
X173222352Y-69819500D01*
X172217648Y-69819500D01*
X172064820Y-69843706D01*
X172034723Y-69848473D01*
X172015325Y-69850000D01*
X170815000Y-69850000D01*
X170815000Y-77553638D01*
X170795315Y-77620677D01*
X170778681Y-77641319D01*
X170351319Y-78068681D01*
X170289996Y-78102166D01*
X170263638Y-78105000D01*
X167556362Y-78105000D01*
X167489323Y-78085315D01*
X167468681Y-78068681D01*
X167041319Y-77641319D01*
X167007834Y-77579996D01*
X167005000Y-77553638D01*
X167005000Y-69215000D01*
X166505000Y-69215000D01*
X163060000Y-69215000D01*
X162560000Y-69215000D01*
X162560000Y-59690000D01*
X157480000Y-59690000D01*
X156210000Y-59690000D01*
X156210000Y-54610000D01*
X156210000Y-52070000D01*
X156210000Y-50165000D01*
X156210000Y-45636362D01*
X156229685Y-45569323D01*
X156246319Y-45548681D01*
X156673681Y-45121319D01*
X156735004Y-45087834D01*
X156761362Y-45085000D01*
X162643638Y-45085000D01*
X162710677Y-45104685D01*
X162731319Y-45121319D01*
X163158681Y-45548681D01*
X163192166Y-45610004D01*
X163195000Y-45636362D01*
X163195000Y-52070000D01*
X163195000Y-54610000D01*
X163195000Y-60325000D01*
X175395000Y-60325000D01*
X175895000Y-60325000D01*
X175895000Y-50081362D01*
X175914685Y-50014323D01*
X175931319Y-49993681D01*
X176358681Y-49566319D01*
X176420004Y-49532834D01*
X176446362Y-49530000D01*
X188043638Y-49530000D01*
X188110677Y-49549685D01*
X188131319Y-49566319D01*
X188558681Y-49993681D01*
X188592166Y-50055004D01*
X188595000Y-50081362D01*
X188595000Y-60960000D01*
X196985000Y-60960000D01*
X197485000Y-60960000D01*
X197485000Y-41826362D01*
X197504685Y-41759323D01*
X197521319Y-41738681D01*
X197948681Y-41311319D01*
X198010004Y-41277834D01*
X198036362Y-41275000D01*
X200743638Y-41275000D01*
X200810677Y-41294685D01*
G37*
%TD.AperFunction*%
%TD*%
%TA.AperFunction,Conductor*%
%TO.N,GND_O*%
G36*
X120800677Y-56534685D02*
G01*
X120821319Y-56551319D01*
X121248681Y-56978681D01*
X121282166Y-57040004D01*
X121285000Y-57066362D01*
X121285000Y-62882244D01*
X121265315Y-62949283D01*
X121262567Y-62953058D01*
X121166295Y-63097139D01*
X121102184Y-63251917D01*
X121102182Y-63251925D01*
X121069500Y-63416228D01*
X121069500Y-63583771D01*
X121100822Y-63741240D01*
X121094595Y-63810832D01*
X121066887Y-63853112D01*
X120944103Y-63975896D01*
X120821317Y-64098682D01*
X120759997Y-64132166D01*
X120733638Y-64135000D01*
X117391362Y-64135000D01*
X117324323Y-64115315D01*
X117303681Y-64098681D01*
X116876319Y-63671319D01*
X116842834Y-63609996D01*
X116840000Y-63583638D01*
X116840000Y-63233862D01*
X116859685Y-63166823D01*
X116876319Y-63146181D01*
X117121181Y-62901319D01*
X117182504Y-62867834D01*
X117208862Y-62865000D01*
X117475000Y-62865000D01*
X117475000Y-59690000D01*
X117064446Y-59690000D01*
X117021112Y-59682181D01*
X116977491Y-59665911D01*
X116977480Y-59665908D01*
X116917883Y-59659501D01*
X116917881Y-59659500D01*
X116917873Y-59659500D01*
X116917864Y-59659500D01*
X114222129Y-59659500D01*
X114222123Y-59659501D01*
X114162518Y-59665908D01*
X114137164Y-59675365D01*
X114118885Y-59682182D01*
X114075554Y-59690000D01*
X113665000Y-59690000D01*
X113665000Y-63583638D01*
X113645315Y-63650677D01*
X113628681Y-63671319D01*
X113201319Y-64098681D01*
X113139996Y-64132166D01*
X113113638Y-64135000D01*
X109771362Y-64135000D01*
X109704323Y-64115315D01*
X109683681Y-64098681D01*
X109256319Y-63671319D01*
X109222834Y-63609996D01*
X109220000Y-63583638D01*
X109220000Y-62380255D01*
X109239685Y-62313216D01*
X109292489Y-62267461D01*
X109330747Y-62256965D01*
X109357483Y-62254091D01*
X109492328Y-62203797D01*
X109492327Y-62203797D01*
X109492331Y-62203796D01*
X109607546Y-62117546D01*
X109693796Y-62002331D01*
X109744091Y-61867483D01*
X109750500Y-61807873D01*
X109750499Y-60112128D01*
X109744091Y-60052517D01*
X109693796Y-59917669D01*
X109693795Y-59917668D01*
X109693793Y-59917664D01*
X109607547Y-59802455D01*
X109607544Y-59802452D01*
X109492335Y-59716206D01*
X109492328Y-59716202D01*
X109357482Y-59665908D01*
X109357483Y-59665908D01*
X109297883Y-59659501D01*
X109297881Y-59659500D01*
X109297873Y-59659500D01*
X109297864Y-59659500D01*
X106602129Y-59659500D01*
X106602123Y-59659501D01*
X106542518Y-59665908D01*
X106517164Y-59675365D01*
X106498885Y-59682182D01*
X106455554Y-59690000D01*
X106045000Y-59690000D01*
X106045000Y-56515000D01*
X113665000Y-56515000D01*
X120733638Y-56515000D01*
X120800677Y-56534685D01*
G37*
%TD.AperFunction*%
%TD*%
%TA.AperFunction,Conductor*%
%TO.N,GND_O*%
G36*
X109370677Y-41929685D02*
G01*
X109391319Y-41946319D01*
X109818681Y-42373681D01*
X109852166Y-42435004D01*
X109855000Y-42461362D01*
X109855000Y-43898637D01*
X109835315Y-43965676D01*
X109818681Y-43986318D01*
X109418942Y-44386056D01*
X109357619Y-44419541D01*
X109318009Y-44421664D01*
X109297873Y-44419500D01*
X109297867Y-44419500D01*
X106602129Y-44419500D01*
X106602123Y-44419501D01*
X106542518Y-44425908D01*
X106517164Y-44435365D01*
X106498885Y-44442182D01*
X106455554Y-44450000D01*
X106045000Y-44450000D01*
X106045000Y-47625000D01*
X116975000Y-47625000D01*
X117475000Y-47625000D01*
X117475000Y-44450000D01*
X117064446Y-44450000D01*
X117021112Y-44442181D01*
X116977491Y-44425911D01*
X116977480Y-44425908D01*
X116917883Y-44419501D01*
X116917881Y-44419500D01*
X116917873Y-44419500D01*
X116917864Y-44419500D01*
X114222129Y-44419500D01*
X114222116Y-44419501D01*
X114201987Y-44421665D01*
X114133228Y-44409257D01*
X114101056Y-44386056D01*
X113701319Y-43986319D01*
X113667834Y-43924996D01*
X113665000Y-43898638D01*
X113665000Y-42461362D01*
X113684685Y-42394323D01*
X113701319Y-42373681D01*
X114128681Y-41946319D01*
X114190004Y-41912834D01*
X114216362Y-41910000D01*
X124543638Y-41910000D01*
X124610677Y-41929685D01*
X124631319Y-41946319D01*
X125058681Y-42373681D01*
X125092166Y-42435004D01*
X125095000Y-42461362D01*
X125095000Y-43898637D01*
X125075315Y-43965676D01*
X125058681Y-43986318D01*
X124658942Y-44386056D01*
X124597619Y-44419541D01*
X124558009Y-44421664D01*
X124537873Y-44419500D01*
X124537867Y-44419500D01*
X121842129Y-44419500D01*
X121842123Y-44419501D01*
X121782518Y-44425908D01*
X121757164Y-44435365D01*
X121738885Y-44442182D01*
X121695554Y-44450000D01*
X121285000Y-44450000D01*
X121285000Y-47625000D01*
X126500000Y-47625000D01*
X127000000Y-47625000D01*
X127000000Y-46271362D01*
X127019685Y-46204323D01*
X127036319Y-46183681D01*
X127463681Y-45756319D01*
X127525004Y-45722834D01*
X127551362Y-45720000D01*
X128988638Y-45720000D01*
X129055677Y-45739685D01*
X129076319Y-45756319D01*
X129503681Y-46183681D01*
X129537166Y-46245004D01*
X129540000Y-46271362D01*
X129540000Y-47625000D01*
X135338638Y-47625000D01*
X135405677Y-47644685D01*
X135426319Y-47661319D01*
X135853681Y-48088681D01*
X135887166Y-48150004D01*
X135890000Y-48176362D01*
X135890000Y-59690000D01*
X137725325Y-59690000D01*
X137744722Y-59691526D01*
X137927648Y-59720500D01*
X137927649Y-59720500D01*
X138932351Y-59720500D01*
X138932352Y-59720500D01*
X139115277Y-59691526D01*
X139134675Y-59690000D01*
X145345325Y-59690000D01*
X145364722Y-59691526D01*
X145547648Y-59720500D01*
X145547649Y-59720500D01*
X146552351Y-59720500D01*
X146552352Y-59720500D01*
X146735277Y-59691526D01*
X146754675Y-59690000D01*
X148365554Y-59690000D01*
X148408888Y-59697819D01*
X148452508Y-59714088D01*
X148452511Y-59714088D01*
X148452517Y-59714091D01*
X148512127Y-59720500D01*
X151207872Y-59720499D01*
X151267483Y-59714091D01*
X151311114Y-59697817D01*
X151354446Y-59690000D01*
X152175554Y-59690000D01*
X152218888Y-59697819D01*
X152262508Y-59714088D01*
X152262511Y-59714088D01*
X152262517Y-59714091D01*
X152322127Y-59720500D01*
X155017872Y-59720499D01*
X155077483Y-59714091D01*
X155121114Y-59697817D01*
X155164446Y-59690000D01*
X162560000Y-59690000D01*
X162560000Y-69215000D01*
X162560000Y-88379877D01*
X162553637Y-88419089D01*
X162266363Y-89280910D01*
X162247926Y-89316098D01*
X160972563Y-91016582D01*
X160928818Y-91053091D01*
X160181181Y-91426909D01*
X160125728Y-91440000D01*
X126364999Y-91440000D01*
X123507500Y-94297500D01*
X122889941Y-94915058D01*
X122849713Y-94941938D01*
X122128775Y-95240561D01*
X122081322Y-95250000D01*
X102786362Y-95250000D01*
X102719323Y-95230315D01*
X102698681Y-95213681D01*
X102271319Y-94786319D01*
X102237834Y-94724996D01*
X102235000Y-94698638D01*
X102235000Y-81915000D01*
X101735000Y-81915000D01*
X101516362Y-81915000D01*
X101449323Y-81895315D01*
X101428681Y-81878681D01*
X101001319Y-81451319D01*
X100967834Y-81389996D01*
X100965000Y-81363638D01*
X100965000Y-78021362D01*
X100984685Y-77954323D01*
X101001319Y-77933681D01*
X101428681Y-77506319D01*
X101490004Y-77472834D01*
X101516362Y-77470000D01*
X109938638Y-77470000D01*
X110005677Y-77489685D01*
X110026319Y-77506319D01*
X110453681Y-77933681D01*
X110487166Y-77995004D01*
X110490000Y-78021362D01*
X110490000Y-81363638D01*
X110470315Y-81430677D01*
X110453681Y-81451319D01*
X110026319Y-81878681D01*
X109964996Y-81912166D01*
X109938638Y-81915000D01*
X106045000Y-81915000D01*
X106045000Y-87630000D01*
X106455554Y-87630000D01*
X106498888Y-87637819D01*
X106542508Y-87654088D01*
X106542511Y-87654088D01*
X106542517Y-87654091D01*
X106602127Y-87660500D01*
X109297872Y-87660499D01*
X109357483Y-87654091D01*
X109401114Y-87637817D01*
X109444446Y-87630000D01*
X114865325Y-87630000D01*
X114884722Y-87631526D01*
X115067648Y-87660500D01*
X115067649Y-87660500D01*
X116072351Y-87660500D01*
X116072352Y-87660500D01*
X116255277Y-87631526D01*
X116274675Y-87630000D01*
X122485325Y-87630000D01*
X122504722Y-87631526D01*
X122687648Y-87660500D01*
X122687649Y-87660500D01*
X123692351Y-87660500D01*
X123692352Y-87660500D01*
X123875277Y-87631526D01*
X123894675Y-87630000D01*
X125095000Y-87630000D01*
X125095000Y-69850000D01*
X124595000Y-69850000D01*
X123894675Y-69850000D01*
X123875277Y-69848473D01*
X123835558Y-69842182D01*
X123692352Y-69819500D01*
X122687648Y-69819500D01*
X122544442Y-69842182D01*
X122504723Y-69848473D01*
X122485325Y-69850000D01*
X116753159Y-69850000D01*
X116714156Y-69843706D01*
X116672801Y-69830002D01*
X116672798Y-69830001D01*
X116672797Y-69830001D01*
X116672793Y-69830000D01*
X116672790Y-69830000D01*
X116570010Y-69819500D01*
X114569998Y-69819500D01*
X114569981Y-69819501D01*
X114467203Y-69830000D01*
X114435151Y-69840621D01*
X114425843Y-69843706D01*
X114386840Y-69850000D01*
X109444446Y-69850000D01*
X109401112Y-69842181D01*
X109357491Y-69825911D01*
X109357480Y-69825908D01*
X109297883Y-69819501D01*
X109297881Y-69819500D01*
X109297873Y-69819500D01*
X109297864Y-69819500D01*
X106602129Y-69819500D01*
X106602123Y-69819501D01*
X106542518Y-69825908D01*
X106517164Y-69835365D01*
X106498885Y-69842182D01*
X106455554Y-69850000D01*
X106045000Y-69850000D01*
X106045000Y-76283638D01*
X106025315Y-76350677D01*
X106008681Y-76371319D01*
X105581319Y-76798681D01*
X105519996Y-76832166D01*
X105493638Y-76835000D01*
X102151362Y-76835000D01*
X102084323Y-76815315D01*
X102063681Y-76798681D01*
X101636319Y-76371319D01*
X101602834Y-76309996D01*
X101600000Y-76283638D01*
X101600000Y-75080255D01*
X101619685Y-75013216D01*
X101672489Y-74967461D01*
X101710747Y-74956965D01*
X101737483Y-74954091D01*
X101872328Y-74903797D01*
X101872327Y-74903797D01*
X101872331Y-74903796D01*
X101987546Y-74817546D01*
X102073796Y-74702331D01*
X102124091Y-74567483D01*
X102130500Y-74507873D01*
X102130499Y-72812128D01*
X102124091Y-72752517D01*
X102073796Y-72617669D01*
X102073795Y-72617668D01*
X102073793Y-72617664D01*
X101987547Y-72502455D01*
X101987544Y-72502452D01*
X101872335Y-72416206D01*
X101872328Y-72416202D01*
X101737482Y-72365908D01*
X101737483Y-72365908D01*
X101710745Y-72363034D01*
X101708625Y-72362156D01*
X101706353Y-72362483D01*
X101676495Y-72348847D01*
X101646193Y-72336296D01*
X101644884Y-72334411D01*
X101642797Y-72333458D01*
X101625062Y-72305861D01*
X101606345Y-72278904D01*
X101605875Y-72276006D01*
X101605023Y-72274680D01*
X101600000Y-72239745D01*
X101600000Y-72231249D01*
X101619685Y-72164210D01*
X101651113Y-72130932D01*
X101677219Y-72111966D01*
X101821966Y-71967219D01*
X101821968Y-71967215D01*
X101821971Y-71967213D01*
X101874732Y-71894590D01*
X101942287Y-71801610D01*
X102035220Y-71619219D01*
X102098477Y-71424534D01*
X102130500Y-71222352D01*
X102130500Y-71017648D01*
X102113703Y-70911599D01*
X102098477Y-70815465D01*
X102035218Y-70620776D01*
X101983865Y-70519991D01*
X101942287Y-70438390D01*
X101926894Y-70417203D01*
X101821971Y-70272786D01*
X101677220Y-70128035D01*
X101651114Y-70109068D01*
X101608449Y-70053737D01*
X101600000Y-70008750D01*
X101600000Y-66591362D01*
X101619685Y-66524323D01*
X101636319Y-66503681D01*
X102063681Y-66076319D01*
X102125004Y-66042834D01*
X102151362Y-66040000D01*
X128353638Y-66040000D01*
X128420677Y-66059685D01*
X128441319Y-66076319D01*
X128868681Y-66503681D01*
X128902166Y-66565004D01*
X128905000Y-66591362D01*
X128905000Y-77470000D01*
X130005325Y-77470000D01*
X130024722Y-77471526D01*
X130207648Y-77500500D01*
X130207649Y-77500500D01*
X131412351Y-77500500D01*
X131412352Y-77500500D01*
X131595277Y-77471526D01*
X131614675Y-77470000D01*
X135973638Y-77470000D01*
X136040677Y-77489685D01*
X136061319Y-77506319D01*
X136488681Y-77933681D01*
X136522166Y-77995004D01*
X136525000Y-78021362D01*
X136525000Y-87630000D01*
X137725325Y-87630000D01*
X137744722Y-87631526D01*
X137927648Y-87660500D01*
X137927649Y-87660500D01*
X138932351Y-87660500D01*
X138932352Y-87660500D01*
X139115277Y-87631526D01*
X139134675Y-87630000D01*
X140335000Y-87630000D01*
X140335000Y-72306362D01*
X140354685Y-72239323D01*
X140371319Y-72218681D01*
X140798681Y-71791319D01*
X140860004Y-71757834D01*
X140886362Y-71755000D01*
X143593638Y-71755000D01*
X143660677Y-71774685D01*
X143681319Y-71791319D01*
X144108681Y-72218681D01*
X144142166Y-72280004D01*
X144145000Y-72306362D01*
X144145000Y-87630000D01*
X145345325Y-87630000D01*
X145364722Y-87631526D01*
X145547648Y-87660500D01*
X145547649Y-87660500D01*
X146552351Y-87660500D01*
X146552352Y-87660500D01*
X146735277Y-87631526D01*
X146754675Y-87630000D01*
X151765000Y-87630000D01*
X151765000Y-83101362D01*
X151784685Y-83034323D01*
X151801319Y-83013681D01*
X152228681Y-82586319D01*
X152290004Y-82552834D01*
X152316362Y-82550000D01*
X153035000Y-82550000D01*
X153035000Y-75481362D01*
X153054685Y-75414323D01*
X153071319Y-75393681D01*
X153468181Y-74996819D01*
X153529504Y-74963334D01*
X153555862Y-74960500D01*
X154272351Y-74960500D01*
X154272352Y-74960500D01*
X154455277Y-74931526D01*
X154474675Y-74930000D01*
X155575000Y-74930000D01*
X155575000Y-69850000D01*
X155164446Y-69850000D01*
X155121112Y-69842181D01*
X155077491Y-69825911D01*
X155077480Y-69825908D01*
X155017883Y-69819501D01*
X155017881Y-69819500D01*
X155017873Y-69819500D01*
X155017864Y-69819500D01*
X152322129Y-69819500D01*
X152322123Y-69819501D01*
X152262518Y-69825908D01*
X152237164Y-69835365D01*
X152218885Y-69842182D01*
X152175554Y-69850000D01*
X151354446Y-69850000D01*
X151311112Y-69842181D01*
X151267491Y-69825911D01*
X151267480Y-69825908D01*
X151207883Y-69819501D01*
X151207881Y-69819500D01*
X151207873Y-69819500D01*
X151207864Y-69819500D01*
X148512129Y-69819500D01*
X148512123Y-69819501D01*
X148452518Y-69825908D01*
X148427164Y-69835365D01*
X148408885Y-69842182D01*
X148365554Y-69850000D01*
X146754675Y-69850000D01*
X146735277Y-69848473D01*
X146695558Y-69842182D01*
X146552352Y-69819500D01*
X145547648Y-69819500D01*
X145404442Y-69842182D01*
X145364723Y-69848473D01*
X145345325Y-69850000D01*
X143426362Y-69850000D01*
X143359323Y-69830315D01*
X143338681Y-69813681D01*
X142911319Y-69386319D01*
X142877834Y-69324996D01*
X142875000Y-69298638D01*
X142875000Y-66657755D01*
X142894685Y-66590716D01*
X142897433Y-66586939D01*
X142900622Y-66582165D01*
X142900626Y-66582162D01*
X142993703Y-66442863D01*
X143057816Y-66288082D01*
X143090500Y-66123767D01*
X143090500Y-65956233D01*
X143057816Y-65791918D01*
X142993703Y-65637137D01*
X142900626Y-65497838D01*
X142897242Y-65492773D01*
X142899147Y-65491499D01*
X142875832Y-65436587D01*
X142875000Y-65422244D01*
X142875000Y-64770000D01*
X142375000Y-64770000D01*
X130726362Y-64770000D01*
X130659323Y-64750315D01*
X130638681Y-64733681D01*
X130211319Y-64306319D01*
X130177834Y-64244996D01*
X130175000Y-64218638D01*
X130175000Y-63500000D01*
X129675000Y-63500000D01*
X127952500Y-63500000D01*
X127635000Y-63500000D01*
X127635000Y-63766138D01*
X127615315Y-63833177D01*
X127598681Y-63853819D01*
X127353819Y-64098681D01*
X127292496Y-64132166D01*
X127266138Y-64135000D01*
X125011362Y-64135000D01*
X124944323Y-64115315D01*
X124923681Y-64098681D01*
X124496319Y-63671319D01*
X124462834Y-63609996D01*
X124460000Y-63583638D01*
X124460000Y-63233862D01*
X124479685Y-63166823D01*
X124496319Y-63146181D01*
X124741181Y-62901319D01*
X124802504Y-62867834D01*
X124828862Y-62865000D01*
X125095000Y-62865000D01*
X125095000Y-55245000D01*
X124595000Y-55245000D01*
X118026362Y-55245000D01*
X117959323Y-55225315D01*
X117938681Y-55208681D01*
X117511319Y-54781319D01*
X117477834Y-54719996D01*
X117475000Y-54693638D01*
X117475000Y-52070000D01*
X117064446Y-52070000D01*
X117021112Y-52062181D01*
X116977491Y-52045911D01*
X116977480Y-52045908D01*
X116917883Y-52039501D01*
X116917881Y-52039500D01*
X116917873Y-52039500D01*
X116917864Y-52039500D01*
X114222129Y-52039500D01*
X114222123Y-52039501D01*
X114162518Y-52045908D01*
X114137164Y-52055365D01*
X114118885Y-52062182D01*
X114075554Y-52070000D01*
X113665000Y-52070000D01*
X113665000Y-56515000D01*
X106045000Y-56515000D01*
X106045000Y-59690000D01*
X106045000Y-63583638D01*
X106025315Y-63650677D01*
X106008681Y-63671319D01*
X105581319Y-64098681D01*
X105519996Y-64132166D01*
X105493638Y-64135000D01*
X101516362Y-64135000D01*
X101449323Y-64115315D01*
X101428681Y-64098681D01*
X101001319Y-63671319D01*
X100967834Y-63609996D01*
X100965000Y-63583638D01*
X100965000Y-62781361D01*
X100984685Y-62714322D01*
X101001314Y-62693685D01*
X101398183Y-62296816D01*
X101459504Y-62263333D01*
X101485861Y-62260499D01*
X101677872Y-62260499D01*
X101737483Y-62254091D01*
X101781114Y-62237817D01*
X101824446Y-62230000D01*
X102235000Y-62230000D01*
X102235000Y-59690000D01*
X101824446Y-59690000D01*
X101781112Y-59682181D01*
X101737491Y-59665911D01*
X101737480Y-59665908D01*
X101677883Y-59659501D01*
X101677881Y-59659500D01*
X101677873Y-59659500D01*
X101677865Y-59659500D01*
X99580862Y-59659500D01*
X99513823Y-59639815D01*
X99493181Y-59623181D01*
X99096319Y-59226319D01*
X99062834Y-59164996D01*
X99060000Y-59138638D01*
X99060000Y-57701362D01*
X99079685Y-57634323D01*
X99096319Y-57613681D01*
X99523681Y-57186319D01*
X99585004Y-57152834D01*
X99611362Y-57150000D01*
X102235000Y-57150000D01*
X102235000Y-52070000D01*
X101824446Y-52070000D01*
X101781112Y-52062181D01*
X101737491Y-52045911D01*
X101737480Y-52045908D01*
X101677883Y-52039501D01*
X101677881Y-52039500D01*
X101677873Y-52039500D01*
X101677865Y-52039500D01*
X99580862Y-52039500D01*
X99513823Y-52019815D01*
X99493181Y-52003181D01*
X99096319Y-51606319D01*
X99062834Y-51544996D01*
X99060000Y-51518638D01*
X99060000Y-48176362D01*
X99079685Y-48109323D01*
X99096319Y-48088681D01*
X99523681Y-47661319D01*
X99585004Y-47627834D01*
X99611362Y-47625000D01*
X102235000Y-47625000D01*
X102235000Y-44450000D01*
X101824446Y-44450000D01*
X101781112Y-44442181D01*
X101737491Y-44425911D01*
X101737480Y-44425908D01*
X101677883Y-44419501D01*
X101677881Y-44419500D01*
X101677873Y-44419500D01*
X101677865Y-44419500D01*
X99580862Y-44419500D01*
X99513823Y-44399815D01*
X99493181Y-44383181D01*
X99096319Y-43986319D01*
X99062834Y-43924996D01*
X99060000Y-43898638D01*
X99060000Y-42461362D01*
X99079685Y-42394323D01*
X99096319Y-42373681D01*
X99523681Y-41946319D01*
X99585004Y-41912834D01*
X99611362Y-41910000D01*
X109303638Y-41910000D01*
X109370677Y-41929685D01*
G37*
%TD.AperFunction*%
%TD*%
M02*
