%TF.GenerationSoftware,KiCad,Pcbnew,9.0.8*%
%TF.CreationDate,2026-03-16T22:11:26+01:00*%
%TF.ProjectId,Output,4f757470-7574-42e6-9b69-6361645f7063,1*%
%TF.SameCoordinates,Original*%
%TF.FileFunction,Soldermask,Bot*%
%TF.FilePolarity,Negative*%
%FSLAX46Y46*%
G04 Gerber Fmt 4.6, Leading zero omitted, Abs format (unit mm)*
G04 Created by KiCad (PCBNEW 9.0.8) date 2026-03-16 22:11:26*
%MOMM*%
%LPD*%
G01*
G04 APERTURE LIST*
G04 Aperture macros list*
%AMRoundRect*
0 Rectangle with rounded corners*
0 $1 Rounding radius*
0 $2 $3 $4 $5 $6 $7 $8 $9 X,Y pos of 4 corners*
0 Add a 4 corners polygon primitive as box body*
4,1,4,$2,$3,$4,$5,$6,$7,$8,$9,$2,$3,0*
0 Add four circle primitives for the rounded corners*
1,1,$1+$1,$2,$3*
1,1,$1+$1,$4,$5*
1,1,$1+$1,$6,$7*
1,1,$1+$1,$8,$9*
0 Add four rect primitives between the rounded corners*
20,1,$1+$1,$2,$3,$4,$5,0*
20,1,$1+$1,$4,$5,$6,$7,0*
20,1,$1+$1,$6,$7,$8,$9,0*
20,1,$1+$1,$8,$9,$2,$3,0*%
G04 Aperture macros list end*
%ADD10R,2.600000X1.600000*%
%ADD11O,2.600000X1.600000*%
%ADD12RoundRect,0.250000X-0.950000X-0.550000X0.950000X-0.550000X0.950000X0.550000X-0.950000X0.550000X0*%
%ADD13O,2.400000X1.600000*%
%ADD14R,1.700000X1.700000*%
%ADD15C,1.700000*%
%ADD16C,6.400000*%
%ADD17RoundRect,0.250000X-0.350000X-0.450000X0.350000X-0.450000X0.350000X0.450000X-0.350000X0.450000X0*%
%ADD18RoundRect,0.250000X-0.337500X-0.475000X0.337500X-0.475000X0.337500X0.475000X-0.337500X0.475000X0*%
%ADD19RoundRect,0.250000X0.337500X0.475000X-0.337500X0.475000X-0.337500X-0.475000X0.337500X-0.475000X0*%
%ADD20RoundRect,0.250000X0.350000X0.450000X-0.350000X0.450000X-0.350000X-0.450000X0.350000X-0.450000X0*%
G04 APERTURE END LIST*
D10*
%TO.C,RV12*%
X161290000Y-104140000D03*
D11*
X161290000Y-101600000D03*
X161290000Y-99060000D03*
%TD*%
D10*
%TO.C,J6*%
X100330000Y-44450000D03*
D11*
X100330000Y-41910000D03*
%TD*%
D10*
%TO.C,RV8*%
X107950000Y-99060000D03*
D11*
X107950000Y-101600000D03*
X107950000Y-104140000D03*
%TD*%
D10*
%TO.C,J19*%
X123190000Y-44450000D03*
D11*
X123190000Y-41910000D03*
%TD*%
D10*
%TO.C,RV14*%
X107950000Y-114300000D03*
D11*
X107950000Y-111760000D03*
X107950000Y-109220000D03*
%TD*%
D12*
%TO.C,U16*%
X195580000Y-69850000D03*
D13*
X195580000Y-72390000D03*
X195580000Y-74930000D03*
X195580000Y-77470000D03*
X195580000Y-80010000D03*
X195580000Y-82550000D03*
X195580000Y-85090000D03*
X203200000Y-85090000D03*
X203200000Y-82550000D03*
X203200000Y-80010000D03*
X203200000Y-77470000D03*
X203200000Y-74930000D03*
X203200000Y-72390000D03*
X203200000Y-69850000D03*
%TD*%
D12*
%TO.C,U1*%
X115570000Y-128270000D03*
D13*
X115570000Y-130810000D03*
X115570000Y-133350000D03*
X115570000Y-135890000D03*
X115570000Y-138430000D03*
X115570000Y-140970000D03*
X115570000Y-143510000D03*
X123190000Y-143510000D03*
X123190000Y-140970000D03*
X123190000Y-138430000D03*
X123190000Y-135890000D03*
X123190000Y-133350000D03*
X123190000Y-130810000D03*
X123190000Y-128270000D03*
%TD*%
D10*
%TO.C,RV6*%
X149860000Y-138430000D03*
D11*
X149860000Y-140970000D03*
X149860000Y-143510000D03*
X153670000Y-143510000D03*
X153670000Y-140970000D03*
D10*
X153670000Y-138430000D03*
%TD*%
D12*
%TO.C,U12*%
X195520000Y-99060000D03*
D13*
X195520000Y-101600000D03*
X195520000Y-104140000D03*
X195520000Y-106680000D03*
X195520000Y-109220000D03*
X195520000Y-111760000D03*
X195520000Y-114300000D03*
X203140000Y-114300000D03*
X203140000Y-111760000D03*
X203140000Y-109220000D03*
X203140000Y-106680000D03*
X203140000Y-104140000D03*
X203140000Y-101600000D03*
X203140000Y-99060000D03*
%TD*%
D12*
%TO.C,U21*%
X138430000Y-69850000D03*
D13*
X138430000Y-72390000D03*
X138430000Y-74930000D03*
X138430000Y-77470000D03*
X138430000Y-80010000D03*
X138430000Y-82550000D03*
X138430000Y-85090000D03*
X146050000Y-85090000D03*
X146050000Y-82550000D03*
X146050000Y-80010000D03*
X146050000Y-77470000D03*
X146050000Y-74930000D03*
X146050000Y-72390000D03*
X146050000Y-69850000D03*
%TD*%
D10*
%TO.C,RV20*%
X153670000Y-41910000D03*
D11*
X153670000Y-44450000D03*
X153670000Y-46990000D03*
%TD*%
D10*
%TO.C,J18*%
X100330000Y-52070000D03*
D11*
X100330000Y-49530000D03*
%TD*%
D10*
%TO.C,RV10*%
X176530000Y-104140000D03*
D11*
X176530000Y-101600000D03*
X176530000Y-99060000D03*
X180340000Y-99060000D03*
X180340000Y-101600000D03*
D10*
X180340000Y-104140000D03*
%TD*%
D12*
%TO.C,U20*%
X165100000Y-41910000D03*
D13*
X165100000Y-44450000D03*
X165100000Y-46990000D03*
X165100000Y-49530000D03*
X165100000Y-52070000D03*
X165100000Y-54610000D03*
X165100000Y-57150000D03*
X172720000Y-57150000D03*
X172720000Y-54610000D03*
X172720000Y-52070000D03*
X172720000Y-49530000D03*
X172720000Y-46990000D03*
X172720000Y-44450000D03*
X172720000Y-41910000D03*
%TD*%
D12*
%TO.C,U5*%
X138430000Y-128270000D03*
D13*
X138430000Y-130810000D03*
X138430000Y-133350000D03*
X138430000Y-135890000D03*
X138430000Y-138430000D03*
X138430000Y-140970000D03*
X138430000Y-143510000D03*
X146050000Y-143510000D03*
X146050000Y-140970000D03*
X146050000Y-138430000D03*
X146050000Y-135890000D03*
X146050000Y-133350000D03*
X146050000Y-130810000D03*
X146050000Y-128270000D03*
%TD*%
D10*
%TO.C,RV2*%
X149860000Y-133350000D03*
D11*
X149860000Y-130810000D03*
X149860000Y-128270000D03*
X153670000Y-128270000D03*
X153670000Y-130810000D03*
D10*
X153670000Y-133350000D03*
%TD*%
%TO.C,J24*%
X100330000Y-111760000D03*
D11*
X100330000Y-114300000D03*
%TD*%
D12*
%TO.C,U13*%
X165100000Y-69850000D03*
D13*
X165100000Y-72390000D03*
X165100000Y-74930000D03*
X165100000Y-77470000D03*
X165100000Y-80010000D03*
X165100000Y-82550000D03*
X165100000Y-85090000D03*
X172720000Y-85090000D03*
X172720000Y-82550000D03*
X172720000Y-80010000D03*
X172720000Y-77470000D03*
X172720000Y-74930000D03*
X172720000Y-72390000D03*
X172720000Y-69850000D03*
%TD*%
D10*
%TO.C,J21*%
X115570000Y-44450000D03*
D11*
X115570000Y-41910000D03*
%TD*%
D10*
%TO.C,J15*%
X100330000Y-82550000D03*
D11*
X100330000Y-85090000D03*
%TD*%
D10*
%TO.C,J25*%
X100330000Y-59690000D03*
D11*
X100330000Y-57150000D03*
%TD*%
D10*
%TO.C,J29*%
X100330000Y-72390000D03*
D11*
X100330000Y-69850000D03*
%TD*%
D14*
%TO.C,J31*%
X210820000Y-133350000D03*
D15*
X213360000Y-133350000D03*
X210820000Y-135890000D03*
X213360000Y-135890000D03*
X210820000Y-138430000D03*
X213360000Y-138430000D03*
X210820000Y-140970000D03*
X213360000Y-140970000D03*
X210820000Y-143510000D03*
X213360000Y-143510000D03*
X210820000Y-146050000D03*
X213360000Y-146050000D03*
X210820000Y-148590000D03*
X213360000Y-148590000D03*
%TD*%
D10*
%TO.C,RV16*%
X161290000Y-109220000D03*
D11*
X161290000Y-111760000D03*
X161290000Y-114300000D03*
%TD*%
D16*
%TO.C,H4*%
X223520000Y-147320000D03*
%TD*%
D10*
%TO.C,J11*%
X115570000Y-59690000D03*
D11*
X115570000Y-57150000D03*
%TD*%
D10*
%TO.C,SW7*%
X149860000Y-41910000D03*
D11*
X149860000Y-44450000D03*
%TD*%
D12*
%TO.C,U2*%
X165100000Y-128270000D03*
D13*
X165100000Y-130810000D03*
X165100000Y-133350000D03*
X165100000Y-135890000D03*
X165100000Y-138430000D03*
X165100000Y-140970000D03*
X165100000Y-143510000D03*
X172720000Y-143510000D03*
X172720000Y-140970000D03*
X172720000Y-138430000D03*
X172720000Y-135890000D03*
X172720000Y-133350000D03*
X172720000Y-130810000D03*
X172720000Y-128270000D03*
%TD*%
D10*
%TO.C,J1*%
X107950000Y-44450000D03*
D11*
X107950000Y-41910000D03*
%TD*%
D12*
%TO.C,U18*%
X115570000Y-69850000D03*
D13*
X115570000Y-72390000D03*
X115570000Y-74930000D03*
X115570000Y-77470000D03*
X115570000Y-80010000D03*
X115570000Y-82550000D03*
X115570000Y-85090000D03*
X123190000Y-85090000D03*
X123190000Y-82550000D03*
X123190000Y-80010000D03*
X123190000Y-77470000D03*
X123190000Y-74930000D03*
X123190000Y-72390000D03*
X123190000Y-69850000D03*
%TD*%
D10*
%TO.C,SW4*%
X111760000Y-99060000D03*
D11*
X111760000Y-101600000D03*
%TD*%
D12*
%TO.C,U6*%
X195580000Y-128270000D03*
D13*
X195580000Y-130810000D03*
X195580000Y-133350000D03*
X195580000Y-135890000D03*
X195580000Y-138430000D03*
X195580000Y-140970000D03*
X195580000Y-143510000D03*
X203200000Y-143510000D03*
X203200000Y-140970000D03*
X203200000Y-138430000D03*
X203200000Y-135890000D03*
X203200000Y-133350000D03*
X203200000Y-130810000D03*
X203200000Y-128270000D03*
%TD*%
D10*
%TO.C,SW3*%
X111760000Y-143510000D03*
D11*
X111760000Y-140970000D03*
%TD*%
D10*
%TO.C,SW1*%
X111760000Y-128270000D03*
D11*
X111760000Y-130810000D03*
%TD*%
D10*
%TO.C,RV3*%
X134620000Y-133350000D03*
D11*
X134620000Y-130810000D03*
X134620000Y-128270000D03*
%TD*%
D10*
%TO.C,J10*%
X107950000Y-59690000D03*
D11*
X107950000Y-57150000D03*
%TD*%
D10*
%TO.C,J26*%
X115570000Y-52070000D03*
D11*
X115570000Y-49530000D03*
%TD*%
D10*
%TO.C,RV15*%
X176530000Y-109220000D03*
D11*
X176530000Y-111760000D03*
X176530000Y-114300000D03*
X180340000Y-114300000D03*
X180340000Y-111760000D03*
D10*
X180340000Y-109220000D03*
%TD*%
%TO.C,J5*%
X100330000Y-140970000D03*
D11*
X100330000Y-143510000D03*
%TD*%
D10*
%TO.C,RV21*%
X130810000Y-69850000D03*
D11*
X130810000Y-72390000D03*
X130810000Y-74930000D03*
%TD*%
D10*
%TO.C,J13*%
X100330000Y-128270000D03*
D11*
X100330000Y-130810000D03*
%TD*%
D10*
%TO.C,RV7*%
X134620000Y-138430000D03*
D11*
X134620000Y-140970000D03*
X134620000Y-143510000D03*
%TD*%
D10*
%TO.C,J32*%
X123190000Y-59690000D03*
D11*
X123190000Y-57150000D03*
%TD*%
D10*
%TO.C,SW9*%
X134620000Y-69850000D03*
D11*
X134620000Y-72390000D03*
%TD*%
D12*
%TO.C,U3*%
X195580000Y-41910000D03*
D13*
X195580000Y-44450000D03*
X195580000Y-46990000D03*
X195580000Y-49530000D03*
X195580000Y-52070000D03*
X195580000Y-54610000D03*
X195580000Y-57150000D03*
X203200000Y-57150000D03*
X203200000Y-54610000D03*
X203200000Y-52070000D03*
X203200000Y-49530000D03*
X203200000Y-46990000D03*
X203200000Y-44450000D03*
X203200000Y-41910000D03*
%TD*%
D10*
%TO.C,RV1*%
X107950000Y-128270000D03*
D11*
X107950000Y-130810000D03*
X107950000Y-133350000D03*
%TD*%
D10*
%TO.C,RV5*%
X107950000Y-143510000D03*
D11*
X107950000Y-140970000D03*
X107950000Y-138430000D03*
%TD*%
D12*
%TO.C,U22*%
X138430000Y-41910000D03*
D13*
X138430000Y-44450000D03*
X138430000Y-46990000D03*
X138430000Y-49530000D03*
X138430000Y-52070000D03*
X138430000Y-54610000D03*
X138430000Y-57150000D03*
X146050000Y-57150000D03*
X146050000Y-54610000D03*
X146050000Y-52070000D03*
X146050000Y-49530000D03*
X146050000Y-46990000D03*
X146050000Y-44450000D03*
X146050000Y-41910000D03*
%TD*%
D10*
%TO.C,SW6*%
X107950000Y-69850000D03*
D11*
X107950000Y-72390000D03*
%TD*%
D10*
%TO.C,RV22*%
X153670000Y-57150000D03*
D11*
X153670000Y-54610000D03*
X153670000Y-52070000D03*
%TD*%
D16*
%TO.C,H5*%
X88900000Y-147320000D03*
%TD*%
D10*
%TO.C,SW5*%
X111760000Y-114300000D03*
D11*
X111760000Y-111760000D03*
%TD*%
D10*
%TO.C,SW8*%
X107950000Y-85090000D03*
D11*
X107950000Y-82550000D03*
%TD*%
D16*
%TO.C,H2*%
X88900000Y-40640000D03*
%TD*%
D10*
%TO.C,RV19*%
X149860000Y-69850000D03*
D11*
X149860000Y-72390000D03*
X149860000Y-74930000D03*
X153670000Y-74930000D03*
X153670000Y-72390000D03*
D10*
X153670000Y-69850000D03*
%TD*%
D12*
%TO.C,U7*%
X138370000Y-99000000D03*
D13*
X138370000Y-101540000D03*
X138370000Y-104080000D03*
X138370000Y-106620000D03*
X138370000Y-109160000D03*
X138370000Y-111700000D03*
X138370000Y-114240000D03*
X145990000Y-114240000D03*
X145990000Y-111700000D03*
X145990000Y-109160000D03*
X145990000Y-106620000D03*
X145990000Y-104080000D03*
X145990000Y-101540000D03*
X145990000Y-99000000D03*
%TD*%
D12*
%TO.C,U14*%
X165100000Y-99060000D03*
D13*
X165100000Y-101600000D03*
X165100000Y-104140000D03*
X165100000Y-106680000D03*
X165100000Y-109220000D03*
X165100000Y-111760000D03*
X165100000Y-114300000D03*
X172720000Y-114300000D03*
X172720000Y-111760000D03*
X172720000Y-109220000D03*
X172720000Y-106680000D03*
X172720000Y-104140000D03*
X172720000Y-101600000D03*
X172720000Y-99060000D03*
%TD*%
D12*
%TO.C,U10*%
X115570000Y-99060000D03*
D13*
X115570000Y-101600000D03*
X115570000Y-104140000D03*
X115570000Y-106680000D03*
X115570000Y-109220000D03*
X115570000Y-111760000D03*
X115570000Y-114300000D03*
X123190000Y-114300000D03*
X123190000Y-111760000D03*
X123190000Y-109220000D03*
X123190000Y-106680000D03*
X123190000Y-104140000D03*
X123190000Y-101600000D03*
X123190000Y-99060000D03*
%TD*%
D10*
%TO.C,SW10*%
X149860000Y-57150000D03*
D11*
X149860000Y-54610000D03*
%TD*%
D16*
%TO.C,H8*%
X223520000Y-40640000D03*
%TD*%
D17*
%TO.C,R116*%
X156480000Y-80010000D03*
X158480000Y-80010000D03*
%TD*%
D18*
%TO.C,C45*%
X198292500Y-74930000D03*
X200367500Y-74930000D03*
%TD*%
D19*
%TO.C,C21*%
X208047500Y-143510000D03*
X205972500Y-143510000D03*
%TD*%
D17*
%TO.C,Z231*%
X126000000Y-59690000D03*
X128000000Y-59690000D03*
%TD*%
D18*
%TO.C,C12*%
X156442500Y-130810000D03*
X158517500Y-130810000D03*
%TD*%
D20*
%TO.C,R43*%
X208010000Y-140970000D03*
X206010000Y-140970000D03*
%TD*%
D17*
%TO.C,R27*%
X122190000Y-148590000D03*
X124190000Y-148590000D03*
%TD*%
%TO.C,Z147*%
X103140000Y-130810000D03*
X105140000Y-130810000D03*
%TD*%
D20*
%TO.C,Z102*%
X188960000Y-80010000D03*
X186960000Y-80010000D03*
%TD*%
%TO.C,Z108*%
X188960000Y-82550000D03*
X186960000Y-82550000D03*
%TD*%
D17*
%TO.C,R132*%
X137430000Y-59690000D03*
X139430000Y-59690000D03*
%TD*%
%TO.C,Z34*%
X209760000Y-123220000D03*
X211760000Y-123220000D03*
%TD*%
%TO.C,R131*%
X141240000Y-57150000D03*
X143240000Y-57150000D03*
%TD*%
%TO.C,Z185*%
X106950000Y-49530000D03*
X108950000Y-49530000D03*
%TD*%
D20*
%TO.C,Z46*%
X105140000Y-41910000D03*
X103140000Y-41910000D03*
%TD*%
D17*
%TO.C,Z115*%
X126000000Y-114300000D03*
X128000000Y-114300000D03*
%TD*%
D20*
%TO.C,R94*%
X211760000Y-72390000D03*
X209760000Y-72390000D03*
%TD*%
%TO.C,R72*%
X162290000Y-82550000D03*
X160290000Y-82550000D03*
%TD*%
D17*
%TO.C,R89*%
X133620000Y-114300000D03*
X135620000Y-114300000D03*
%TD*%
%TO.C,Z130*%
X167910000Y-73660000D03*
X169910000Y-73660000D03*
%TD*%
D20*
%TO.C,R84*%
X169910000Y-114300000D03*
X167910000Y-114300000D03*
%TD*%
%TO.C,R108*%
X124190000Y-67310000D03*
X122190000Y-67310000D03*
%TD*%
%TO.C,Z92*%
X150800000Y-99060000D03*
X148800000Y-99060000D03*
%TD*%
%TO.C,Z121*%
X128000000Y-116840000D03*
X126000000Y-116840000D03*
%TD*%
%TO.C,Z123*%
X150800000Y-114300000D03*
X148800000Y-114300000D03*
%TD*%
D19*
%TO.C,C38*%
X192687500Y-114300000D03*
X190612500Y-114300000D03*
%TD*%
D17*
%TO.C,Z164*%
X141240000Y-85090000D03*
X143240000Y-85090000D03*
%TD*%
D18*
%TO.C,C82*%
X167872500Y-106675000D03*
X169947500Y-106675000D03*
%TD*%
D17*
%TO.C,Z70*%
X198390000Y-44450000D03*
X200390000Y-44450000D03*
%TD*%
D18*
%TO.C,C22*%
X156442500Y-140970000D03*
X158517500Y-140970000D03*
%TD*%
D17*
%TO.C,Z111*%
X167910000Y-85090000D03*
X169910000Y-85090000D03*
%TD*%
%TO.C,Z141*%
X103140000Y-125730000D03*
X105140000Y-125730000D03*
%TD*%
%TO.C,R49*%
X118380000Y-96520000D03*
X120380000Y-96520000D03*
%TD*%
%TO.C,Z200*%
X118380000Y-44450000D03*
X120380000Y-44450000D03*
%TD*%
%TO.C,Z44*%
X103140000Y-140970000D03*
X105140000Y-140970000D03*
%TD*%
D18*
%TO.C,C109*%
X141202500Y-77470000D03*
X143277500Y-77470000D03*
%TD*%
D20*
%TO.C,Z274*%
X162290000Y-44450000D03*
X160290000Y-44450000D03*
%TD*%
D17*
%TO.C,Z25*%
X209820000Y-120680000D03*
X211820000Y-120680000D03*
%TD*%
D18*
%TO.C,C50*%
X156442500Y-82550000D03*
X158517500Y-82550000D03*
%TD*%
D20*
%TO.C,Z216*%
X105140000Y-106680000D03*
X103140000Y-106680000D03*
%TD*%
%TO.C,Z128*%
X211760000Y-114300000D03*
X209760000Y-114300000D03*
%TD*%
%TO.C,R63*%
X143180000Y-99060000D03*
X141180000Y-99060000D03*
%TD*%
D17*
%TO.C,Z83*%
X126000000Y-101600000D03*
X128000000Y-101600000D03*
%TD*%
D20*
%TO.C,R118*%
X150860000Y-85090000D03*
X148860000Y-85090000D03*
%TD*%
D17*
%TO.C,Z148*%
X103140000Y-128270000D03*
X105140000Y-128270000D03*
%TD*%
%TO.C,R60*%
X198330000Y-101600000D03*
X200330000Y-101600000D03*
%TD*%
D19*
%TO.C,C42*%
X207987500Y-72390000D03*
X205912500Y-72390000D03*
%TD*%
D20*
%TO.C,R6*%
X177530000Y-130810000D03*
X175530000Y-130810000D03*
%TD*%
%TO.C,R61*%
X128000000Y-104140000D03*
X126000000Y-104140000D03*
%TD*%
%TO.C,R157*%
X169910000Y-54610000D03*
X167910000Y-54610000D03*
%TD*%
D17*
%TO.C,R38*%
X118380000Y-138430000D03*
X120380000Y-138430000D03*
%TD*%
%TO.C,Z205*%
X103140000Y-109220000D03*
X105140000Y-109220000D03*
%TD*%
D20*
%TO.C,R23*%
X158480000Y-128270000D03*
X156480000Y-128270000D03*
%TD*%
D17*
%TO.C,Z221*%
X122190000Y-49530000D03*
X124190000Y-49530000D03*
%TD*%
%TO.C,R54*%
X133560000Y-101600000D03*
X135560000Y-101600000D03*
%TD*%
%TO.C,Z29*%
X183150000Y-133350000D03*
X185150000Y-133350000D03*
%TD*%
%TO.C,Z159*%
X103140000Y-85090000D03*
X105140000Y-85090000D03*
%TD*%
%TO.C,R114*%
X141240000Y-41910000D03*
X143240000Y-41910000D03*
%TD*%
D19*
%TO.C,C72*%
X207987500Y-77470000D03*
X205912500Y-77470000D03*
%TD*%
%TO.C,C8*%
X177567500Y-133350000D03*
X175492500Y-133350000D03*
%TD*%
D20*
%TO.C,Z37*%
X200390000Y-57150000D03*
X198390000Y-57150000D03*
%TD*%
D17*
%TO.C,Z43*%
X103140000Y-143510000D03*
X105140000Y-143510000D03*
%TD*%
D18*
%TO.C,C14*%
X198292500Y-133350000D03*
X200367500Y-133350000D03*
%TD*%
D17*
%TO.C,Z223*%
X103140000Y-69850000D03*
X105140000Y-69850000D03*
%TD*%
D20*
%TO.C,Z103*%
X211760000Y-96520000D03*
X209760000Y-96520000D03*
%TD*%
D17*
%TO.C,Z222*%
X118380000Y-52070000D03*
X120380000Y-52070000D03*
%TD*%
%TO.C,R92*%
X133560000Y-109220000D03*
X135560000Y-109220000D03*
%TD*%
D18*
%TO.C,C28*%
X205912500Y-99060000D03*
X207987500Y-99060000D03*
%TD*%
D17*
%TO.C,R62*%
X133620000Y-104140000D03*
X135620000Y-104140000D03*
%TD*%
D20*
%TO.C,Z199*%
X120380000Y-39370000D03*
X118380000Y-39370000D03*
%TD*%
D18*
%TO.C,C99*%
X133582500Y-77470000D03*
X135657500Y-77470000D03*
%TD*%
D19*
%TO.C,C23*%
X200367500Y-138430000D03*
X198292500Y-138430000D03*
%TD*%
D17*
%TO.C,R137*%
X141240000Y-54610000D03*
X143240000Y-54610000D03*
%TD*%
%TO.C,R87*%
X198330000Y-111760000D03*
X200330000Y-111760000D03*
%TD*%
%TO.C,Z89*%
X110760000Y-57150000D03*
X112760000Y-57150000D03*
%TD*%
D20*
%TO.C,Z187*%
X128000000Y-39370000D03*
X126000000Y-39370000D03*
%TD*%
%TO.C,Z209*%
X120380000Y-49530000D03*
X118380000Y-49530000D03*
%TD*%
D19*
%TO.C,C13*%
X200367500Y-130810000D03*
X198292500Y-130810000D03*
%TD*%
D18*
%TO.C,C27*%
X190672500Y-104140000D03*
X192747500Y-104140000D03*
%TD*%
D17*
%TO.C,Z195*%
X126000000Y-85090000D03*
X128000000Y-85090000D03*
%TD*%
%TO.C,R56*%
X118380000Y-104140000D03*
X120380000Y-104140000D03*
%TD*%
D20*
%TO.C,R74*%
X185150000Y-99060000D03*
X183150000Y-99060000D03*
%TD*%
%TO.C,Z235*%
X128000000Y-62230000D03*
X126000000Y-62230000D03*
%TD*%
%TO.C,R88*%
X128000000Y-109220000D03*
X126000000Y-109220000D03*
%TD*%
D17*
%TO.C,Z129*%
X209760000Y-111760000D03*
X211760000Y-111760000D03*
%TD*%
D20*
%TO.C,R90*%
X143180000Y-114300000D03*
X141180000Y-114300000D03*
%TD*%
%TO.C,Z149*%
X105140000Y-123190000D03*
X103140000Y-123190000D03*
%TD*%
D19*
%TO.C,C104*%
X128037500Y-135890000D03*
X125962500Y-135890000D03*
%TD*%
D20*
%TO.C,Z127*%
X188960000Y-74930000D03*
X186960000Y-74930000D03*
%TD*%
D17*
%TO.C,Z104*%
X209820000Y-99060000D03*
X211820000Y-99060000D03*
%TD*%
%TO.C,Z172*%
X175530000Y-52070000D03*
X177530000Y-52070000D03*
%TD*%
D18*
%TO.C,C44*%
X183112500Y-111760000D03*
X185187500Y-111760000D03*
%TD*%
D17*
%TO.C,Z186*%
X103140000Y-52070000D03*
X105140000Y-52070000D03*
%TD*%
D20*
%TO.C,R107*%
X120380000Y-69850000D03*
X118380000Y-69850000D03*
%TD*%
%TO.C,Z217*%
X105140000Y-72390000D03*
X103140000Y-72390000D03*
%TD*%
%TO.C,Z52*%
X105140000Y-39370000D03*
X103140000Y-39370000D03*
%TD*%
D17*
%TO.C,R122*%
X141240000Y-44450000D03*
X143240000Y-44450000D03*
%TD*%
D20*
%TO.C,R20*%
X207950000Y-133350000D03*
X205950000Y-133350000D03*
%TD*%
D19*
%TO.C,C96*%
X200427500Y-49525000D03*
X198352500Y-49525000D03*
%TD*%
D20*
%TO.C,Z91*%
X181340000Y-93980000D03*
X179340000Y-93980000D03*
%TD*%
%TO.C,R21*%
X192770000Y-54610000D03*
X190770000Y-54610000D03*
%TD*%
%TO.C,R113*%
X120380000Y-74930000D03*
X118380000Y-74930000D03*
%TD*%
D18*
%TO.C,C74*%
X110722500Y-77470000D03*
X112797500Y-77470000D03*
%TD*%
D17*
%TO.C,R48*%
X118380000Y-99060000D03*
X120380000Y-99060000D03*
%TD*%
D18*
%TO.C,C78*%
X160252500Y-135890000D03*
X162327500Y-135890000D03*
%TD*%
D17*
%TO.C,Z124*%
X148800000Y-111760000D03*
X150800000Y-111760000D03*
%TD*%
D18*
%TO.C,C7*%
X175492500Y-128270000D03*
X177567500Y-128270000D03*
%TD*%
D20*
%TO.C,R69*%
X207950000Y-80010000D03*
X205950000Y-80010000D03*
%TD*%
D17*
%TO.C,R5*%
X160290000Y-130810000D03*
X162290000Y-130810000D03*
%TD*%
D19*
%TO.C,C35*%
X200367500Y-80010000D03*
X198292500Y-80010000D03*
%TD*%
D18*
%TO.C,C95*%
X110722500Y-106680000D03*
X112797500Y-106680000D03*
%TD*%
D20*
%TO.C,R100*%
X185150000Y-114300000D03*
X183150000Y-114300000D03*
%TD*%
%TO.C,R59*%
X200330000Y-104140000D03*
X198330000Y-104140000D03*
%TD*%
D19*
%TO.C,C79*%
X128037500Y-77470000D03*
X125962500Y-77470000D03*
%TD*%
D17*
%TO.C,Z117*%
X179340000Y-116840000D03*
X181340000Y-116840000D03*
%TD*%
D20*
%TO.C,Z81*%
X112760000Y-59690000D03*
X110760000Y-59690000D03*
%TD*%
D17*
%TO.C,Z30*%
X198390000Y-54610000D03*
X200390000Y-54610000D03*
%TD*%
%TO.C,Z215*%
X103140000Y-111760000D03*
X105140000Y-111760000D03*
%TD*%
D20*
%TO.C,Z122*%
X181340000Y-119380000D03*
X179340000Y-119380000D03*
%TD*%
D18*
%TO.C,C43*%
X190672500Y-72390000D03*
X192747500Y-72390000D03*
%TD*%
D19*
%TO.C,C41*%
X207927500Y-109220000D03*
X205852500Y-109220000D03*
%TD*%
D18*
%TO.C,C66*%
X190672500Y-135890000D03*
X192747500Y-135890000D03*
%TD*%
D19*
%TO.C,C70*%
X207987500Y-135890000D03*
X205912500Y-135890000D03*
%TD*%
D18*
%TO.C,C24*%
X198292500Y-140970000D03*
X200367500Y-140970000D03*
%TD*%
D17*
%TO.C,R41*%
X190710000Y-138430000D03*
X192710000Y-138430000D03*
%TD*%
D20*
%TO.C,Z45*%
X105140000Y-135890000D03*
X103140000Y-135890000D03*
%TD*%
%TO.C,R123*%
X135620000Y-46990000D03*
X133620000Y-46990000D03*
%TD*%
%TO.C,R44*%
X192770000Y-44450000D03*
X190770000Y-44450000D03*
%TD*%
D17*
%TO.C,R40*%
X186900000Y-140970000D03*
X188900000Y-140970000D03*
%TD*%
D19*
%TO.C,C71*%
X207987500Y-106680000D03*
X205912500Y-106680000D03*
%TD*%
%TO.C,C108*%
X177567500Y-49530000D03*
X175492500Y-49530000D03*
%TD*%
%TO.C,C105*%
X128037500Y-106680000D03*
X125962500Y-106680000D03*
%TD*%
D17*
%TO.C,Z234*%
X126000000Y-57150000D03*
X128000000Y-57150000D03*
%TD*%
%TO.C,R18*%
X190710000Y-133350000D03*
X192710000Y-133350000D03*
%TD*%
%TO.C,Z4*%
X156480000Y-125730000D03*
X158480000Y-125730000D03*
%TD*%
D18*
%TO.C,C10*%
X190672500Y-130810000D03*
X192747500Y-130810000D03*
%TD*%
D19*
%TO.C,C26*%
X192747500Y-99060000D03*
X190672500Y-99060000D03*
%TD*%
%TO.C,C106*%
X208047500Y-49530000D03*
X205972500Y-49530000D03*
%TD*%
D20*
%TO.C,R139*%
X135620000Y-52070000D03*
X133620000Y-52070000D03*
%TD*%
D17*
%TO.C,Z31*%
X190770000Y-57150000D03*
X192770000Y-57150000D03*
%TD*%
D20*
%TO.C,R10*%
X169850000Y-133350000D03*
X167850000Y-133350000D03*
%TD*%
%TO.C,R47*%
X158480000Y-143510000D03*
X156480000Y-143510000D03*
%TD*%
%TO.C,Z28*%
X185090000Y-130810000D03*
X183090000Y-130810000D03*
%TD*%
%TO.C,R125*%
X120380000Y-90170000D03*
X118380000Y-90170000D03*
%TD*%
%TO.C,R130*%
X147050000Y-67310000D03*
X145050000Y-67310000D03*
%TD*%
%TO.C,R68*%
X211760000Y-80010000D03*
X209760000Y-80010000D03*
%TD*%
D18*
%TO.C,C18*%
X175432500Y-143510000D03*
X177507500Y-143510000D03*
%TD*%
D17*
%TO.C,R1*%
X118380000Y-128270000D03*
X120380000Y-128270000D03*
%TD*%
%TO.C,R11*%
X167910000Y-130810000D03*
X169910000Y-130810000D03*
%TD*%
%TO.C,R17*%
X186900000Y-133350000D03*
X188900000Y-133350000D03*
%TD*%
D20*
%TO.C,Z56*%
X154670000Y-148590000D03*
X152670000Y-148590000D03*
%TD*%
%TO.C,R96*%
X192710000Y-69850000D03*
X190710000Y-69850000D03*
%TD*%
%TO.C,R127*%
X112760000Y-82550000D03*
X110760000Y-82550000D03*
%TD*%
%TO.C,Z161*%
X105140000Y-77470000D03*
X103140000Y-77470000D03*
%TD*%
D17*
%TO.C,R133*%
X126000000Y-80010000D03*
X128000000Y-80010000D03*
%TD*%
%TO.C,Z96*%
X148800000Y-104140000D03*
X150800000Y-104140000D03*
%TD*%
%TO.C,Z116*%
X126000000Y-111760000D03*
X128000000Y-111760000D03*
%TD*%
D19*
%TO.C,C83*%
X177567500Y-135890000D03*
X175492500Y-135890000D03*
%TD*%
D20*
%TO.C,R31*%
X143240000Y-143510000D03*
X141240000Y-143510000D03*
%TD*%
D19*
%TO.C,C73*%
X177567500Y-77470000D03*
X175492500Y-77470000D03*
%TD*%
D17*
%TO.C,Z82*%
X126000000Y-99060000D03*
X128000000Y-99060000D03*
%TD*%
%TO.C,Z272*%
X160290000Y-41910000D03*
X162290000Y-41910000D03*
%TD*%
D20*
%TO.C,Z133*%
X185150000Y-77470000D03*
X183150000Y-77470000D03*
%TD*%
%TO.C,Z168*%
X147050000Y-62865000D03*
X145050000Y-62865000D03*
%TD*%
D19*
%TO.C,C30*%
X207987500Y-82550000D03*
X205912500Y-82550000D03*
%TD*%
D17*
%TO.C,Z110*%
X209760000Y-101600000D03*
X211760000Y-101600000D03*
%TD*%
D19*
%TO.C,C5*%
X162327500Y-128270000D03*
X160252500Y-128270000D03*
%TD*%
D17*
%TO.C,Z107*%
X141180000Y-104140000D03*
X143180000Y-104140000D03*
%TD*%
D19*
%TO.C,C29*%
X207987500Y-104140000D03*
X205912500Y-104140000D03*
%TD*%
D17*
%TO.C,R81*%
X190650000Y-111760000D03*
X192650000Y-111760000D03*
%TD*%
D18*
%TO.C,C75*%
X133522500Y-106680000D03*
X135597500Y-106680000D03*
%TD*%
D20*
%TO.C,R34*%
X169850000Y-138430000D03*
X167850000Y-138430000D03*
%TD*%
%TO.C,R128*%
X120380000Y-80010000D03*
X118380000Y-80010000D03*
%TD*%
%TO.C,R70*%
X192710000Y-85090000D03*
X190710000Y-85090000D03*
%TD*%
D18*
%TO.C,C77*%
X160252500Y-106680000D03*
X162327500Y-106680000D03*
%TD*%
D17*
%TO.C,Z188*%
X126000000Y-44450000D03*
X128000000Y-44450000D03*
%TD*%
D20*
%TO.C,Z183*%
X105140000Y-49530000D03*
X103140000Y-49530000D03*
%TD*%
D18*
%TO.C,C32*%
X183112500Y-101600000D03*
X185187500Y-101600000D03*
%TD*%
D17*
%TO.C,Z3*%
X152670000Y-125730000D03*
X154670000Y-125730000D03*
%TD*%
%TO.C,Z39*%
X103140000Y-138430000D03*
X105140000Y-138430000D03*
%TD*%
%TO.C,Z47*%
X152670000Y-146050000D03*
X154670000Y-146050000D03*
%TD*%
D18*
%TO.C,C98*%
X160252500Y-49530000D03*
X162327500Y-49530000D03*
%TD*%
%TO.C,C76*%
X133582500Y-135890000D03*
X135657500Y-135890000D03*
%TD*%
D17*
%TO.C,R42*%
X206010000Y-146050000D03*
X208010000Y-146050000D03*
%TD*%
D20*
%TO.C,R14*%
X128000000Y-133350000D03*
X126000000Y-133350000D03*
%TD*%
D17*
%TO.C,R2*%
X122190000Y-123190000D03*
X124190000Y-123190000D03*
%TD*%
D18*
%TO.C,C40*%
X205852500Y-114300000D03*
X207927500Y-114300000D03*
%TD*%
D20*
%TO.C,Z88*%
X112760000Y-62230000D03*
X110760000Y-62230000D03*
%TD*%
D18*
%TO.C,C68*%
X190672500Y-77470000D03*
X192747500Y-77470000D03*
%TD*%
D17*
%TO.C,Z101*%
X186960000Y-85090000D03*
X188960000Y-85090000D03*
%TD*%
%TO.C,R78*%
X118380000Y-114300000D03*
X120380000Y-114300000D03*
%TD*%
D20*
%TO.C,Z182*%
X135620000Y-80010000D03*
X133620000Y-80010000D03*
%TD*%
D17*
%TO.C,R64*%
X167910000Y-101600000D03*
X169910000Y-101600000D03*
%TD*%
D20*
%TO.C,R29*%
X177470000Y-140970000D03*
X175470000Y-140970000D03*
%TD*%
D17*
%TO.C,Z160*%
X103140000Y-82550000D03*
X105140000Y-82550000D03*
%TD*%
%TO.C,Z84*%
X179340000Y-96520000D03*
X181340000Y-96520000D03*
%TD*%
D20*
%TO.C,Z13*%
X154670000Y-123190000D03*
X152670000Y-123190000D03*
%TD*%
D17*
%TO.C,Z85*%
X183150000Y-96520000D03*
X185150000Y-96520000D03*
%TD*%
D20*
%TO.C,Z198*%
X128000000Y-92710000D03*
X126000000Y-92710000D03*
%TD*%
D17*
%TO.C,R35*%
X167850000Y-140970000D03*
X169850000Y-140970000D03*
%TD*%
D20*
%TO.C,R86*%
X200330000Y-109220000D03*
X198330000Y-109220000D03*
%TD*%
D17*
%TO.C,Z233*%
X103140000Y-67310000D03*
X105140000Y-67310000D03*
%TD*%
%TO.C,Z118*%
X183150000Y-116840000D03*
X185150000Y-116840000D03*
%TD*%
D20*
%TO.C,Z167*%
X150860000Y-65405000D03*
X148860000Y-65405000D03*
%TD*%
%TO.C,R39*%
X128000000Y-138430000D03*
X126000000Y-138430000D03*
%TD*%
D17*
%TO.C,R79*%
X122190000Y-119380000D03*
X124190000Y-119380000D03*
%TD*%
D19*
%TO.C,C16*%
X162267500Y-143510000D03*
X160192500Y-143510000D03*
%TD*%
D17*
%TO.C,Z126*%
X186960000Y-72390000D03*
X188960000Y-72390000D03*
%TD*%
D20*
%TO.C,Z114*%
X120380000Y-59690000D03*
X118380000Y-59690000D03*
%TD*%
D19*
%TO.C,C46*%
X200367500Y-72390000D03*
X198292500Y-72390000D03*
%TD*%
D20*
%TO.C,Z7*%
X112760000Y-39370000D03*
X110760000Y-39370000D03*
%TD*%
%TO.C,Z218*%
X105140000Y-74930000D03*
X103140000Y-74930000D03*
%TD*%
D17*
%TO.C,Z214*%
X103140000Y-114300000D03*
X105140000Y-114300000D03*
%TD*%
%TO.C,Z53*%
X103140000Y-44450000D03*
X105140000Y-44450000D03*
%TD*%
D20*
%TO.C,R95*%
X207950000Y-74930000D03*
X205950000Y-74930000D03*
%TD*%
D18*
%TO.C,C39*%
X190612500Y-109220000D03*
X192687500Y-109220000D03*
%TD*%
D20*
%TO.C,Z68*%
X185090000Y-143510000D03*
X183090000Y-143510000D03*
%TD*%
D19*
%TO.C,C11*%
X207987500Y-130810000D03*
X205912500Y-130810000D03*
%TD*%
D17*
%TO.C,Z69*%
X183090000Y-140970000D03*
X185090000Y-140970000D03*
%TD*%
D20*
%TO.C,R109*%
X177530000Y-57150000D03*
X175530000Y-57150000D03*
%TD*%
%TO.C,Z170*%
X143240000Y-82550000D03*
X141240000Y-82550000D03*
%TD*%
D17*
%TO.C,Z48*%
X156480000Y-146050000D03*
X158480000Y-146050000D03*
%TD*%
D20*
%TO.C,R120*%
X131810000Y-82550000D03*
X129810000Y-82550000D03*
%TD*%
%TO.C,Z197*%
X120380000Y-41910000D03*
X118380000Y-41910000D03*
%TD*%
D17*
%TO.C,Z74*%
X209760000Y-125730000D03*
X211760000Y-125730000D03*
%TD*%
%TO.C,R28*%
X160230000Y-140970000D03*
X162230000Y-140970000D03*
%TD*%
%TO.C,R119*%
X126000000Y-74930000D03*
X128000000Y-74930000D03*
%TD*%
D20*
%TO.C,R124*%
X120380000Y-85090000D03*
X118380000Y-85090000D03*
%TD*%
D17*
%TO.C,Z138*%
X209760000Y-109220000D03*
X211760000Y-109220000D03*
%TD*%
D18*
%TO.C,C17*%
X160192500Y-138430000D03*
X162267500Y-138430000D03*
%TD*%
D19*
%TO.C,C69*%
X169947500Y-77465000D03*
X167872500Y-77465000D03*
%TD*%
D17*
%TO.C,Z8*%
X110760000Y-44450000D03*
X112760000Y-44450000D03*
%TD*%
%TO.C,Z77*%
X183090000Y-138430000D03*
X185090000Y-138430000D03*
%TD*%
%TO.C,Z71*%
X190770000Y-41910000D03*
X192770000Y-41910000D03*
%TD*%
D20*
%TO.C,R138*%
X143240000Y-72390000D03*
X141240000Y-72390000D03*
%TD*%
D17*
%TO.C,Z93*%
X148800000Y-101600000D03*
X150800000Y-101600000D03*
%TD*%
D20*
%TO.C,R111*%
X131810000Y-85090000D03*
X129810000Y-85090000D03*
%TD*%
D17*
%TO.C,R13*%
X118380000Y-133350000D03*
X120380000Y-133350000D03*
%TD*%
%TO.C,R26*%
X118380000Y-143510000D03*
X120380000Y-143510000D03*
%TD*%
%TO.C,Z36*%
X183090000Y-135890000D03*
X185090000Y-135890000D03*
%TD*%
%TO.C,R71*%
X190710000Y-80010000D03*
X192710000Y-80010000D03*
%TD*%
D18*
%TO.C,C31*%
X190672500Y-82550000D03*
X192747500Y-82550000D03*
%TD*%
D20*
%TO.C,R110*%
X112760000Y-72390000D03*
X110760000Y-72390000D03*
%TD*%
D19*
%TO.C,C80*%
X150837500Y-106680000D03*
X148762500Y-106680000D03*
%TD*%
D17*
%TO.C,Z196*%
X126000000Y-82550000D03*
X128000000Y-82550000D03*
%TD*%
%TO.C,R156*%
X160290000Y-54610000D03*
X162290000Y-54610000D03*
%TD*%
D20*
%TO.C,R129*%
X143240000Y-69850000D03*
X141240000Y-69850000D03*
%TD*%
D19*
%TO.C,C19*%
X177507500Y-138430000D03*
X175432500Y-138430000D03*
%TD*%
D20*
%TO.C,Z65*%
X211760000Y-130810000D03*
X209760000Y-130810000D03*
%TD*%
%TO.C,Z166*%
X169910000Y-59690000D03*
X167910000Y-59690000D03*
%TD*%
D17*
%TO.C,R121*%
X148860000Y-82550000D03*
X150860000Y-82550000D03*
%TD*%
D18*
%TO.C,C67*%
X190672500Y-106680000D03*
X192747500Y-106680000D03*
%TD*%
D17*
%TO.C,Z220*%
X103140000Y-57150000D03*
X105140000Y-57150000D03*
%TD*%
D20*
%TO.C,R112*%
X135620000Y-85090000D03*
X133620000Y-85090000D03*
%TD*%
D17*
%TO.C,Z165*%
X156480000Y-85090000D03*
X158480000Y-85090000D03*
%TD*%
D20*
%TO.C,R55*%
X169910000Y-99060000D03*
X167910000Y-99060000D03*
%TD*%
D18*
%TO.C,C34*%
X198292500Y-82550000D03*
X200367500Y-82550000D03*
%TD*%
D17*
%TO.C,Z153*%
X103140000Y-80010000D03*
X105140000Y-80010000D03*
%TD*%
%TO.C,Z66*%
X209760000Y-128270000D03*
X211760000Y-128270000D03*
%TD*%
%TO.C,Z236*%
X126000000Y-54610000D03*
X128000000Y-54610000D03*
%TD*%
%TO.C,R66*%
X133560000Y-99060000D03*
X135560000Y-99060000D03*
%TD*%
D20*
%TO.C,Z1*%
X112760000Y-41910000D03*
X110760000Y-41910000D03*
%TD*%
D17*
%TO.C,Z105*%
X167910000Y-82550000D03*
X169910000Y-82550000D03*
%TD*%
D20*
%TO.C,Z271*%
X162290000Y-52070000D03*
X160290000Y-52070000D03*
%TD*%
%TO.C,Z184*%
X128000000Y-41910000D03*
X126000000Y-41910000D03*
%TD*%
D19*
%TO.C,C107*%
X150897500Y-49530000D03*
X148822500Y-49530000D03*
%TD*%
D20*
%TO.C,Z78*%
X200390000Y-41910000D03*
X198390000Y-41910000D03*
%TD*%
%TO.C,R8*%
X143240000Y-128270000D03*
X141240000Y-128270000D03*
%TD*%
D18*
%TO.C,C51*%
X148822500Y-77470000D03*
X150897500Y-77470000D03*
%TD*%
D20*
%TO.C,R51*%
X207950000Y-101600000D03*
X205950000Y-101600000D03*
%TD*%
D17*
%TO.C,Z131*%
X160290000Y-69850000D03*
X162290000Y-69850000D03*
%TD*%
%TO.C,R91*%
X167910000Y-111760000D03*
X169910000Y-111760000D03*
%TD*%
%TO.C,Z173*%
X167910000Y-62230000D03*
X169910000Y-62230000D03*
%TD*%
D20*
%TO.C,Z119*%
X120380000Y-62230000D03*
X118380000Y-62230000D03*
%TD*%
D17*
%TO.C,Z120*%
X118380000Y-57150000D03*
X120380000Y-57150000D03*
%TD*%
%TO.C,Z174*%
X167910000Y-57150000D03*
X169910000Y-57150000D03*
%TD*%
D18*
%TO.C,C97*%
X133582500Y-49530000D03*
X135657500Y-49530000D03*
%TD*%
D20*
%TO.C,R98*%
X162290000Y-72390000D03*
X160290000Y-72390000D03*
%TD*%
D17*
%TO.C,Z162*%
X126000000Y-69850000D03*
X128000000Y-69850000D03*
%TD*%
D20*
%TO.C,Z139*%
X169910000Y-69850000D03*
X167910000Y-69850000D03*
%TD*%
D17*
%TO.C,Z171*%
X148860000Y-62865000D03*
X150860000Y-62865000D03*
%TD*%
%TO.C,Z132*%
X141180000Y-109220000D03*
X143180000Y-109220000D03*
%TD*%
D18*
%TO.C,C81*%
X141202500Y-135885000D03*
X143277500Y-135885000D03*
%TD*%
D17*
%TO.C,R85*%
X118450000Y-109220000D03*
X120450000Y-109220000D03*
%TD*%
D20*
%TO.C,Z208*%
X105140000Y-59690000D03*
X103140000Y-59690000D03*
%TD*%
D18*
%TO.C,C94*%
X110722500Y-135890000D03*
X112797500Y-135890000D03*
%TD*%
%TO.C,C20*%
X190672500Y-140970000D03*
X192747500Y-140970000D03*
%TD*%
D20*
%TO.C,Z90*%
X128000000Y-96520000D03*
X126000000Y-96520000D03*
%TD*%
D17*
%TO.C,Z125*%
X148800000Y-109220000D03*
X150800000Y-109220000D03*
%TD*%
%TO.C,Z106*%
X160290000Y-85090000D03*
X162290000Y-85090000D03*
%TD*%
%TO.C,R19*%
X205950000Y-128270000D03*
X207950000Y-128270000D03*
%TD*%
%TO.C,R115*%
X137430000Y-39370000D03*
X139430000Y-39370000D03*
%TD*%
%TO.C,R83*%
X133560000Y-111760000D03*
X135560000Y-111760000D03*
%TD*%
D20*
%TO.C,Z219*%
X105140000Y-62230000D03*
X103140000Y-62230000D03*
%TD*%
D17*
%TO.C,Z163*%
X133620000Y-67310000D03*
X135620000Y-67310000D03*
%TD*%
%TO.C,R117*%
X148860000Y-80010000D03*
X150860000Y-80010000D03*
%TD*%
D20*
%TO.C,R136*%
X143240000Y-74930000D03*
X141240000Y-74930000D03*
%TD*%
%TO.C,Z169*%
X128000000Y-67310000D03*
X126000000Y-67310000D03*
%TD*%
%TO.C,Z24*%
X211820000Y-118140000D03*
X209820000Y-118140000D03*
%TD*%
%TO.C,R82*%
X207890000Y-111760000D03*
X205890000Y-111760000D03*
%TD*%
D17*
%TO.C,Z273*%
X160290000Y-46990000D03*
X162290000Y-46990000D03*
%TD*%
%TO.C,R50*%
X190710000Y-101600000D03*
X192710000Y-101600000D03*
%TD*%
%TO.C,R97*%
X190710000Y-74930000D03*
X192710000Y-74930000D03*
%TD*%
D18*
%TO.C,C6*%
X160252500Y-133350000D03*
X162327500Y-133350000D03*
%TD*%
M02*
