%TF.GenerationSoftware,KiCad,Pcbnew,9.0.8*%
%TF.CreationDate,2026-03-16T22:11:24+01:00*%
%TF.ProjectId,Output,4f757470-7574-42e6-9b69-6361645f7063,1*%
%TF.SameCoordinates,Original*%
%TF.FileFunction,Copper,L1,Top*%
%TF.FilePolarity,Positive*%
%FSLAX46Y46*%
G04 Gerber Fmt 4.6, Leading zero omitted, Abs format (unit mm)*
G04 Created by KiCad (PCBNEW 9.0.8) date 2026-03-16 22:11:24*
%MOMM*%
%LPD*%
G01*
G04 APERTURE LIST*
G04 Aperture macros list*
%AMRoundRect*
0 Rectangle with rounded corners*
0 $1 Rounding radius*
0 $2 $3 $4 $5 $6 $7 $8 $9 X,Y pos of 4 corners*
0 Add a 4 corners polygon primitive as box body*
4,1,4,$2,$3,$4,$5,$6,$7,$8,$9,$2,$3,0*
0 Add four circle primitives for the rounded corners*
1,1,$1+$1,$2,$3*
1,1,$1+$1,$4,$5*
1,1,$1+$1,$6,$7*
1,1,$1+$1,$8,$9*
0 Add four rect primitives between the rounded corners*
20,1,$1+$1,$2,$3,$4,$5,0*
20,1,$1+$1,$4,$5,$6,$7,0*
20,1,$1+$1,$6,$7,$8,$9,0*
20,1,$1+$1,$8,$9,$2,$3,0*%
G04 Aperture macros list end*
%TA.AperFunction,ComponentPad*%
%ADD10R,2.600000X1.600000*%
%TD*%
%TA.AperFunction,ComponentPad*%
%ADD11O,2.600000X1.600000*%
%TD*%
%TA.AperFunction,SMDPad,CuDef*%
%ADD12RoundRect,0.250000X-0.350000X-0.450000X0.350000X-0.450000X0.350000X0.450000X-0.350000X0.450000X0*%
%TD*%
%TA.AperFunction,SMDPad,CuDef*%
%ADD13RoundRect,0.250000X0.350000X0.450000X-0.350000X0.450000X-0.350000X-0.450000X0.350000X-0.450000X0*%
%TD*%
%TA.AperFunction,ComponentPad*%
%ADD14RoundRect,0.250000X-0.950000X-0.550000X0.950000X-0.550000X0.950000X0.550000X-0.950000X0.550000X0*%
%TD*%
%TA.AperFunction,ComponentPad*%
%ADD15O,2.400000X1.600000*%
%TD*%
%TA.AperFunction,SMDPad,CuDef*%
%ADD16RoundRect,0.250000X0.412500X1.100000X-0.412500X1.100000X-0.412500X-1.100000X0.412500X-1.100000X0*%
%TD*%
%TA.AperFunction,ComponentPad*%
%ADD17R,1.700000X1.700000*%
%TD*%
%TA.AperFunction,ComponentPad*%
%ADD18C,1.700000*%
%TD*%
%TA.AperFunction,ComponentPad*%
%ADD19C,6.400000*%
%TD*%
%TA.AperFunction,SMDPad,CuDef*%
%ADD20RoundRect,0.250000X0.337500X0.475000X-0.337500X0.475000X-0.337500X-0.475000X0.337500X-0.475000X0*%
%TD*%
%TA.AperFunction,ViaPad*%
%ADD21C,0.700000*%
%TD*%
%TA.AperFunction,Conductor*%
%ADD22C,0.600000*%
%TD*%
%TA.AperFunction,Conductor*%
%ADD23C,1.000000*%
%TD*%
%TA.AperFunction,Conductor*%
%ADD24C,1.600000*%
%TD*%
G04 APERTURE END LIST*
D10*
%TO.P,RV12,1,1*%
%TO.N,Net-(R64-Pad1)*%
X161290000Y-104140000D03*
D11*
%TO.P,RV12,2,2*%
%TO.N,Net-(U14A-+)*%
X161290000Y-101600000D03*
%TO.P,RV12,3,3*%
%TO.N,Net-(R55-Pad2)*%
X161290000Y-99060000D03*
%TD*%
D12*
%TO.P,Z60,1*%
%TO.N,Net-(R27-Pad2)*%
X126000000Y-143510000D03*
%TO.P,Z60,2*%
%TO.N,Net-(Z60-Pad2)*%
X128000000Y-143510000D03*
%TD*%
D10*
%TO.P,J6,1,Pin_1*%
%TO.N,Net-(J6-Pin_1)*%
X100330000Y-44450000D03*
D11*
%TO.P,J6,2,Pin_2*%
%TO.N,GND_O*%
X100330000Y-41910000D03*
%TD*%
D10*
%TO.P,RV8,1,1*%
%TO.N,Net-(SW4-A)*%
X107950000Y-99060000D03*
D11*
%TO.P,RV8,2,2*%
%TO.N,Net-(SW4-B)*%
X107950000Y-101600000D03*
%TO.P,RV8,3,3*%
X107950000Y-104140000D03*
%TD*%
D13*
%TO.P,Z268,1*%
%TO.N,Net-(Z267-Pad2)*%
X154670000Y-114300000D03*
%TO.P,Z268,2*%
%TO.N,Net-(R37-Pad1)*%
X152670000Y-114300000D03*
%TD*%
D10*
%TO.P,J19,1,Pin_1*%
%TO.N,Net-(J19-Pin_1)*%
X123190000Y-44450000D03*
D11*
%TO.P,J19,2,Pin_2*%
%TO.N,GND_O*%
X123190000Y-41910000D03*
%TD*%
D10*
%TO.P,RV14,1,1*%
%TO.N,Net-(SW5-A)*%
X107950000Y-114300000D03*
D11*
%TO.P,RV14,2,2*%
%TO.N,Net-(SW5-B)*%
X107950000Y-111760000D03*
%TO.P,RV14,3,3*%
X107950000Y-109220000D03*
%TD*%
D14*
%TO.P,U16,1*%
%TO.N,Net-(U16A--)*%
X195580000Y-69850000D03*
D15*
%TO.P,U16,2,-*%
X195580000Y-72390000D03*
%TO.P,U16,3,+*%
%TO.N,Net-(U16A-+)*%
X195580000Y-74930000D03*
%TO.P,U16,4,V+*%
%TO.N,+15V_O*%
X195580000Y-77470000D03*
%TO.P,U16,5,+*%
%TO.N,Net-(U16B-+)*%
X195580000Y-80010000D03*
%TO.P,U16,6,-*%
%TO.N,Net-(U16B--)*%
X195580000Y-82550000D03*
%TO.P,U16,7*%
X195580000Y-85090000D03*
%TO.P,U16,8*%
%TO.N,Net-(U16C--)*%
X203200000Y-85090000D03*
%TO.P,U16,9,-*%
X203200000Y-82550000D03*
%TO.P,U16,10,+*%
%TO.N,Net-(U16C-+)*%
X203200000Y-80010000D03*
%TO.P,U16,11,V-*%
%TO.N,-15V_O*%
X203200000Y-77470000D03*
%TO.P,U16,12,+*%
%TO.N,Net-(U16D-+)*%
X203200000Y-74930000D03*
%TO.P,U16,13,-*%
%TO.N,Net-(U16D--)*%
X203200000Y-72390000D03*
%TO.P,U16,14*%
X203200000Y-69850000D03*
%TD*%
D12*
%TO.P,R12,1*%
%TO.N,Net-(R12-Pad1)*%
X152670000Y-123190000D03*
%TO.P,R12,2*%
%TO.N,Net-(U5D--)*%
X154670000Y-123190000D03*
%TD*%
D14*
%TO.P,U1,1*%
%TO.N,Net-(SW1-A)*%
X115570000Y-128270000D03*
D15*
%TO.P,U1,2,-*%
%TO.N,Net-(SW1-B)*%
X115570000Y-130810000D03*
%TO.P,U1,3,+*%
%TO.N,Net-(U10A-+)*%
X115570000Y-133350000D03*
%TO.P,U1,4,V+*%
%TO.N,+15V_O*%
X115570000Y-135890000D03*
%TO.P,U1,5,+*%
%TO.N,Net-(U10A-+)*%
X115570000Y-138430000D03*
%TO.P,U1,6,-*%
%TO.N,Net-(SW3-B)*%
X115570000Y-140970000D03*
%TO.P,U1,7*%
%TO.N,Net-(SW3-A)*%
X115570000Y-143510000D03*
%TO.P,U1,8*%
%TO.N,Net-(R27-Pad2)*%
X123190000Y-143510000D03*
%TO.P,U1,9,-*%
%TO.N,Net-(U1C--)*%
X123190000Y-140970000D03*
%TO.P,U1,10,+*%
%TO.N,Net-(U1C-+)*%
X123190000Y-138430000D03*
%TO.P,U1,11,V-*%
%TO.N,-15V_O*%
X123190000Y-135890000D03*
%TO.P,U1,12,+*%
%TO.N,Net-(U1D-+)*%
X123190000Y-133350000D03*
%TO.P,U1,13,-*%
%TO.N,Net-(U1D--)*%
X123190000Y-130810000D03*
%TO.P,U1,14*%
%TO.N,Net-(R2-Pad2)*%
X123190000Y-128270000D03*
%TD*%
D12*
%TO.P,R152,1*%
%TO.N,Net-(U7D--)*%
X148860000Y-101600000D03*
%TO.P,R152,2*%
%TO.N,Net-(R152-Pad2)*%
X150860000Y-101600000D03*
%TD*%
D10*
%TO.P,RV6,1,1*%
%TO.N,Net-(U5C-+)*%
X149860000Y-138430000D03*
D11*
%TO.P,RV6,2,2*%
X149860000Y-140970000D03*
%TO.P,RV6,3,3*%
%TO.N,Net-(R46-Pad2)*%
X149860000Y-143510000D03*
%TO.P,RV6,4,4*%
%TO.N,Net-(R47-Pad2)*%
X153670000Y-143510000D03*
%TO.P,RV6,5,5*%
%TO.N,Net-(U5C-+)*%
X153670000Y-140970000D03*
D10*
%TO.P,RV6,6,6*%
X153670000Y-138430000D03*
%TD*%
D14*
%TO.P,U12,1*%
%TO.N,Net-(U12A--)*%
X195520000Y-99060000D03*
D15*
%TO.P,U12,2,-*%
X195520000Y-101600000D03*
%TO.P,U12,3,+*%
%TO.N,Net-(U12A-+)*%
X195520000Y-104140000D03*
%TO.P,U12,4,V+*%
%TO.N,+15V_O*%
X195520000Y-106680000D03*
%TO.P,U12,5,+*%
%TO.N,Net-(U12B-+)*%
X195520000Y-109220000D03*
%TO.P,U12,6,-*%
%TO.N,Net-(U12B--)*%
X195520000Y-111760000D03*
%TO.P,U12,7*%
X195520000Y-114300000D03*
%TO.P,U12,8*%
%TO.N,Net-(U12C--)*%
X203140000Y-114300000D03*
%TO.P,U12,9,-*%
X203140000Y-111760000D03*
%TO.P,U12,10,+*%
%TO.N,Net-(U12C-+)*%
X203140000Y-109220000D03*
%TO.P,U12,11,V-*%
%TO.N,-15V_O*%
X203140000Y-106680000D03*
%TO.P,U12,12,+*%
%TO.N,Net-(U12D-+)*%
X203140000Y-104140000D03*
%TO.P,U12,13,-*%
%TO.N,Net-(U12D--)*%
X203140000Y-101600000D03*
%TO.P,U12,14*%
X203140000Y-99060000D03*
%TD*%
D14*
%TO.P,U21,1*%
%TO.N,Net-(SW9-A)*%
X138430000Y-69850000D03*
D15*
%TO.P,U21,2,-*%
%TO.N,Net-(SW9-B)*%
X138430000Y-72390000D03*
%TO.P,U21,3,+*%
%TO.N,Net-(U21A-+)*%
X138430000Y-74930000D03*
%TO.P,U21,4,V+*%
%TO.N,+15V_O*%
X138430000Y-77470000D03*
%TO.P,U21,5,+*%
%TO.N,Net-(U21B-+)*%
X138430000Y-80010000D03*
%TO.P,U21,6,-*%
%TO.N,Net-(U21B--)*%
X138430000Y-82550000D03*
%TO.P,U21,7*%
%TO.N,Net-(R112-Pad1)*%
X138430000Y-85090000D03*
%TO.P,U21,8*%
%TO.N,Net-(R118-Pad1)*%
X146050000Y-85090000D03*
%TO.P,U21,9,-*%
%TO.N,Net-(U21C--)*%
X146050000Y-82550000D03*
%TO.P,U21,10,+*%
%TO.N,Net-(U21C-+)*%
X146050000Y-80010000D03*
%TO.P,U21,11,V-*%
%TO.N,-15V_O*%
X146050000Y-77470000D03*
%TO.P,U21,12,+*%
%TO.N,Net-(U21D-+)*%
X146050000Y-74930000D03*
%TO.P,U21,13,-*%
%TO.N,Net-(U21D--)*%
X146050000Y-72390000D03*
%TO.P,U21,14*%
%TO.N,Net-(R130-Pad1)*%
X146050000Y-69850000D03*
%TD*%
D12*
%TO.P,Z270,1*%
%TO.N,Net-(U7C-+)*%
X148860000Y-109220000D03*
%TO.P,Z270,2*%
%TO.N,GND_O*%
X150860000Y-109220000D03*
%TD*%
D10*
%TO.P,RV20,1,1*%
%TO.N,Net-(SW7-A)*%
X153670000Y-41910000D03*
D11*
%TO.P,RV20,2,2*%
%TO.N,Net-(SW7-B)*%
X153670000Y-44450000D03*
%TO.P,RV20,3,3*%
X153670000Y-46990000D03*
%TD*%
D16*
%TO.P,C4,1*%
%TO.N,Net-(C4-Pad1)*%
X219367500Y-143510000D03*
%TO.P,C4,2*%
%TO.N,GND_O*%
X216242500Y-143510000D03*
%TD*%
D10*
%TO.P,J18,1,Pin_1*%
%TO.N,Net-(J18-Pin_1)*%
X100330000Y-52070000D03*
D11*
%TO.P,J18,2,Pin_2*%
%TO.N,GND_O*%
X100330000Y-49530000D03*
%TD*%
D10*
%TO.P,RV10,1,1*%
%TO.N,Net-(U14D-+)*%
X176530000Y-104140000D03*
D11*
%TO.P,RV10,2,2*%
X176530000Y-101600000D03*
%TO.P,RV10,3,3*%
%TO.N,Net-(R73-Pad2)*%
X176530000Y-99060000D03*
%TO.P,RV10,4,4*%
%TO.N,Net-(R74-Pad2)*%
X180340000Y-99060000D03*
%TO.P,RV10,5,5*%
%TO.N,Net-(U14D-+)*%
X180340000Y-101600000D03*
D10*
%TO.P,RV10,6,6*%
X180340000Y-104140000D03*
%TD*%
D13*
%TO.P,Z20,1*%
%TO.N,Net-(Z17-Pad2)*%
X128000000Y-130810000D03*
%TO.P,Z20,2*%
%TO.N,GND_O*%
X126000000Y-130810000D03*
%TD*%
D14*
%TO.P,U20,1*%
%TO.N,Net-(U20A--)*%
X165100000Y-41910000D03*
D15*
%TO.P,U20,2,-*%
X165100000Y-44450000D03*
%TO.P,U20,3,+*%
%TO.N,Net-(U20A-+)*%
X165100000Y-46990000D03*
%TO.P,U20,4,V+*%
%TO.N,+15V_O*%
X165100000Y-49530000D03*
%TO.P,U20,5,+*%
%TO.N,Net-(U20B-+)*%
X165100000Y-52070000D03*
%TO.P,U20,6,-*%
%TO.N,Net-(U20B--)*%
X165100000Y-54610000D03*
%TO.P,U20,7*%
%TO.N,Net-(R156-Pad1)*%
X165100000Y-57150000D03*
%TO.P,U20,8*%
%TO.N,Net-(R109-Pad2)*%
X172720000Y-57150000D03*
%TO.P,U20,9,-*%
%TO.N,Net-(U20C--)*%
X172720000Y-54610000D03*
%TO.P,U20,10,+*%
%TO.N,Net-(U20C-+)*%
X172720000Y-52070000D03*
%TO.P,U20,11,V-*%
%TO.N,-15V_O*%
X172720000Y-49530000D03*
%TO.P,U20,12,+*%
%TO.N,Net-(U20A-+)*%
X172720000Y-46990000D03*
%TO.P,U20,13,-*%
%TO.N,Net-(U20D--)*%
X172720000Y-44450000D03*
%TO.P,U20,14*%
X172720000Y-41910000D03*
%TD*%
D14*
%TO.P,U5,1*%
%TO.N,Net-(U5A--)*%
X138430000Y-128270000D03*
D15*
%TO.P,U5,2,-*%
X138430000Y-130810000D03*
%TO.P,U5,3,+*%
%TO.N,Net-(U5A-+)*%
X138430000Y-133350000D03*
%TO.P,U5,4,V+*%
%TO.N,+15V_O*%
X138430000Y-135890000D03*
%TO.P,U5,5,+*%
%TO.N,Net-(U5B-+)*%
X138430000Y-138430000D03*
%TO.P,U5,6,-*%
%TO.N,Net-(U5B--)*%
X138430000Y-140970000D03*
%TO.P,U5,7*%
X138430000Y-143510000D03*
%TO.P,U5,8*%
%TO.N,Net-(R31-Pad2)*%
X146050000Y-143510000D03*
%TO.P,U5,9,-*%
%TO.N,Net-(U5C--)*%
X146050000Y-140970000D03*
%TO.P,U5,10,+*%
%TO.N,Net-(U5C-+)*%
X146050000Y-138430000D03*
%TO.P,U5,11,V-*%
%TO.N,-15V_O*%
X146050000Y-135890000D03*
%TO.P,U5,12,+*%
%TO.N,Net-(U5D-+)*%
X146050000Y-133350000D03*
%TO.P,U5,13,-*%
%TO.N,Net-(U5D--)*%
X146050000Y-130810000D03*
%TO.P,U5,14*%
%TO.N,Net-(R8-Pad2)*%
X146050000Y-128270000D03*
%TD*%
D10*
%TO.P,RV2,1,1*%
%TO.N,Net-(U5D-+)*%
X149860000Y-133350000D03*
D11*
%TO.P,RV2,2,2*%
X149860000Y-130810000D03*
%TO.P,RV2,3,3*%
%TO.N,Net-(R22-Pad2)*%
X149860000Y-128270000D03*
%TO.P,RV2,4,4*%
%TO.N,Net-(R23-Pad2)*%
X153670000Y-128270000D03*
%TO.P,RV2,5,5*%
%TO.N,Net-(U5D-+)*%
X153670000Y-130810000D03*
D10*
%TO.P,RV2,6,6*%
X153670000Y-133350000D03*
%TD*%
%TO.P,J24,1,Pin_1*%
%TO.N,Net-(J24-Pin_1)*%
X100330000Y-111760000D03*
D11*
%TO.P,J24,2,Pin_2*%
%TO.N,Net-(J24-Pin_2)*%
X100330000Y-114300000D03*
%TD*%
D14*
%TO.P,U13,1*%
%TO.N,Net-(U13A--)*%
X165100000Y-69850000D03*
D15*
%TO.P,U13,2,-*%
X165100000Y-72390000D03*
%TO.P,U13,3,+*%
%TO.N,Net-(U13A-+)*%
X165100000Y-74930000D03*
%TO.P,U13,4,V+*%
%TO.N,+15V_O*%
X165100000Y-77470000D03*
%TO.P,U13,5,+*%
%TO.N,Net-(U13B-+)*%
X165100000Y-80010000D03*
%TO.P,U13,6,-*%
%TO.N,Net-(U13B--)*%
X165100000Y-82550000D03*
%TO.P,U13,7*%
X165100000Y-85090000D03*
%TO.P,U13,8*%
%TO.N,Net-(U13C--)*%
X172720000Y-85090000D03*
%TO.P,U13,9,-*%
X172720000Y-82550000D03*
%TO.P,U13,10,+*%
%TO.N,Net-(U13B-+)*%
X172720000Y-80010000D03*
%TO.P,U13,11,V-*%
%TO.N,-15V_O*%
X172720000Y-77470000D03*
%TO.P,U13,12,+*%
%TO.N,Net-(U13A-+)*%
X172720000Y-74930000D03*
%TO.P,U13,13,-*%
%TO.N,Net-(U13D--)*%
X172720000Y-72390000D03*
%TO.P,U13,14*%
X172720000Y-69850000D03*
%TD*%
D10*
%TO.P,J21,1,Pin_1*%
%TO.N,Net-(J21-Pin_1)*%
X115570000Y-44450000D03*
D11*
%TO.P,J21,2,Pin_2*%
%TO.N,GND_O*%
X115570000Y-41910000D03*
%TD*%
D10*
%TO.P,J15,1,Pin_1*%
%TO.N,Net-(J15-Pin_1)*%
X100330000Y-82550000D03*
D11*
%TO.P,J15,2,Pin_2*%
%TO.N,Net-(J15-Pin_2)*%
X100330000Y-85090000D03*
%TD*%
D10*
%TO.P,J25,1,Pin_1*%
%TO.N,Net-(J25-Pin_1)*%
X100330000Y-59690000D03*
D11*
%TO.P,J25,2,Pin_2*%
%TO.N,GND_O*%
X100330000Y-57150000D03*
%TD*%
D10*
%TO.P,J29,1,Pin_1*%
%TO.N,Net-(J29-Pin_1)*%
X100330000Y-72390000D03*
D11*
%TO.P,J29,2,Pin_2*%
%TO.N,Net-(J29-Pin_2)*%
X100330000Y-69850000D03*
%TD*%
D17*
%TO.P,J31,1,Pin_1*%
%TO.N,9V_GND_O*%
X210820000Y-133350000D03*
D18*
%TO.P,J31,2,Pin_2*%
X213360000Y-133350000D03*
%TO.P,J31,3,Pin_3*%
X210820000Y-135890000D03*
%TO.P,J31,4,Pin_4*%
X213360000Y-135890000D03*
%TO.P,J31,5,Pin_5*%
%TO.N,+9V_O*%
X210820000Y-138430000D03*
%TO.P,J31,6,Pin_6*%
X213360000Y-138430000D03*
%TO.P,J31,7,Pin_7*%
%TO.N,-15V_O*%
X210820000Y-140970000D03*
%TO.P,J31,8,Pin_8*%
X213360000Y-140970000D03*
%TO.P,J31,9,Pin_9*%
%TO.N,GND_O*%
X210820000Y-143510000D03*
%TO.P,J31,10,Pin_10*%
X213360000Y-143510000D03*
%TO.P,J31,11,Pin_11*%
X210820000Y-146050000D03*
%TO.P,J31,12,Pin_12*%
X213360000Y-146050000D03*
%TO.P,J31,13,Pin_13*%
%TO.N,+15V_O*%
X210820000Y-148590000D03*
%TO.P,J31,14,Pin_14*%
X213360000Y-148590000D03*
%TD*%
D10*
%TO.P,RV16,1,1*%
%TO.N,Net-(R91-Pad1)*%
X161290000Y-109220000D03*
D11*
%TO.P,RV16,2,2*%
%TO.N,Net-(U14B-+)*%
X161290000Y-111760000D03*
%TO.P,RV16,3,3*%
%TO.N,Net-(R84-Pad2)*%
X161290000Y-114300000D03*
%TD*%
D19*
%TO.P,H4,1,1*%
%TO.N,Net-(C4-Pad1)*%
X223520000Y-147320000D03*
%TD*%
D10*
%TO.P,J11,1,Pin_1*%
%TO.N,Net-(J11-Pin_1)*%
X115570000Y-59690000D03*
D11*
%TO.P,J11,2,Pin_2*%
%TO.N,GND_O*%
X115570000Y-57150000D03*
%TD*%
D10*
%TO.P,SW7,1,A*%
%TO.N,Net-(SW7-A)*%
X149860000Y-41910000D03*
D11*
%TO.P,SW7,2,B*%
%TO.N,Net-(SW7-B)*%
X149860000Y-44450000D03*
%TD*%
D12*
%TO.P,Z266,1*%
%TO.N,Net-(U7D-+)*%
X148860000Y-104140000D03*
%TO.P,Z266,2*%
%TO.N,GND_O*%
X150860000Y-104140000D03*
%TD*%
D14*
%TO.P,U2,1*%
%TO.N,Net-(U2A--)*%
X165100000Y-128270000D03*
D15*
%TO.P,U2,2,-*%
X165100000Y-130810000D03*
%TO.P,U2,3,+*%
%TO.N,Net-(U2A-+)*%
X165100000Y-133350000D03*
%TO.P,U2,4,V+*%
%TO.N,+15V_O*%
X165100000Y-135890000D03*
%TO.P,U2,5,+*%
%TO.N,Net-(U2B-+)*%
X165100000Y-138430000D03*
%TO.P,U2,6,-*%
%TO.N,Net-(U2B--)*%
X165100000Y-140970000D03*
%TO.P,U2,7*%
X165100000Y-143510000D03*
%TO.P,U2,8*%
%TO.N,Net-(U2C--)*%
X172720000Y-143510000D03*
%TO.P,U2,9,-*%
X172720000Y-140970000D03*
%TO.P,U2,10,+*%
%TO.N,Net-(U2C-+)*%
X172720000Y-138430000D03*
%TO.P,U2,11,V-*%
%TO.N,-15V_O*%
X172720000Y-135890000D03*
%TO.P,U2,12,+*%
%TO.N,Net-(U2D-+)*%
X172720000Y-133350000D03*
%TO.P,U2,13,-*%
%TO.N,Net-(U2D--)*%
X172720000Y-130810000D03*
%TO.P,U2,14*%
X172720000Y-128270000D03*
%TD*%
D10*
%TO.P,J1,1,Pin_1*%
%TO.N,Net-(J1-Pin_1)*%
X107950000Y-44450000D03*
D11*
%TO.P,J1,2,Pin_2*%
%TO.N,GND_O*%
X107950000Y-41910000D03*
%TD*%
D14*
%TO.P,U18,1*%
%TO.N,Net-(SW6-A)*%
X115570000Y-69850000D03*
D15*
%TO.P,U18,2,-*%
%TO.N,Net-(SW6-B)*%
X115570000Y-72390000D03*
%TO.P,U18,3,+*%
%TO.N,Net-(U10A-+)*%
X115570000Y-74930000D03*
%TO.P,U18,4,V+*%
%TO.N,+15V_O*%
X115570000Y-77470000D03*
%TO.P,U18,5,+*%
%TO.N,Net-(U18B-+)*%
X115570000Y-80010000D03*
%TO.P,U18,6,-*%
%TO.N,Net-(SW8-B)*%
X115570000Y-82550000D03*
%TO.P,U18,7*%
%TO.N,Net-(SW8-A)*%
X115570000Y-85090000D03*
%TO.P,U18,8*%
%TO.N,Net-(R125-Pad1)*%
X123190000Y-85090000D03*
%TO.P,U18,9,-*%
%TO.N,Net-(U18C--)*%
X123190000Y-82550000D03*
%TO.P,U18,10,+*%
%TO.N,Net-(U18C-+)*%
X123190000Y-80010000D03*
%TO.P,U18,11,V-*%
%TO.N,-15V_O*%
X123190000Y-77470000D03*
%TO.P,U18,12,+*%
%TO.N,Net-(U18D-+)*%
X123190000Y-74930000D03*
%TO.P,U18,13,-*%
%TO.N,Net-(U18D--)*%
X123190000Y-72390000D03*
%TO.P,U18,14*%
%TO.N,Net-(R108-Pad1)*%
X123190000Y-69850000D03*
%TD*%
D10*
%TO.P,SW4,1,A*%
%TO.N,Net-(SW4-A)*%
X111760000Y-99060000D03*
D11*
%TO.P,SW4,2,B*%
%TO.N,Net-(SW4-B)*%
X111760000Y-101600000D03*
%TD*%
D14*
%TO.P,U6,1*%
%TO.N,Net-(U6A--)*%
X195580000Y-128270000D03*
D15*
%TO.P,U6,2,-*%
X195580000Y-130810000D03*
%TO.P,U6,3,+*%
%TO.N,Net-(U6A-+)*%
X195580000Y-133350000D03*
%TO.P,U6,4,V+*%
%TO.N,+15V_O*%
X195580000Y-135890000D03*
%TO.P,U6,5,+*%
%TO.N,Net-(U6B-+)*%
X195580000Y-138430000D03*
%TO.P,U6,6,-*%
%TO.N,Net-(U6B--)*%
X195580000Y-140970000D03*
%TO.P,U6,7*%
X195580000Y-143510000D03*
%TO.P,U6,8*%
%TO.N,Net-(U6C--)*%
X203200000Y-143510000D03*
%TO.P,U6,9,-*%
X203200000Y-140970000D03*
%TO.P,U6,10,+*%
%TO.N,Net-(U6C-+)*%
X203200000Y-138430000D03*
%TO.P,U6,11,V-*%
%TO.N,-15V_O*%
X203200000Y-135890000D03*
%TO.P,U6,12,+*%
%TO.N,Net-(U6D-+)*%
X203200000Y-133350000D03*
%TO.P,U6,13,-*%
%TO.N,Net-(U6D--)*%
X203200000Y-130810000D03*
%TO.P,U6,14*%
X203200000Y-128270000D03*
%TD*%
D10*
%TO.P,SW3,1,A*%
%TO.N,Net-(SW3-A)*%
X111760000Y-143510000D03*
D11*
%TO.P,SW3,2,B*%
%TO.N,Net-(SW3-B)*%
X111760000Y-140970000D03*
%TD*%
D12*
%TO.P,R46,1*%
%TO.N,Net-(C25-Pad1)*%
X145685000Y-148590000D03*
%TO.P,R46,2*%
%TO.N,Net-(R46-Pad2)*%
X147685000Y-148590000D03*
%TD*%
D13*
%TO.P,Z264,1*%
%TO.N,Net-(Z263-Pad2)*%
X154670000Y-120650000D03*
%TO.P,Z264,2*%
%TO.N,Net-(R12-Pad1)*%
X152670000Y-120650000D03*
%TD*%
D10*
%TO.P,SW1,1,A*%
%TO.N,Net-(SW1-A)*%
X111760000Y-128270000D03*
D11*
%TO.P,SW1,2,B*%
%TO.N,Net-(SW1-B)*%
X111760000Y-130810000D03*
%TD*%
D10*
%TO.P,RV3,1,1*%
%TO.N,Net-(R12-Pad1)*%
X134620000Y-133350000D03*
D11*
%TO.P,RV3,2,2*%
%TO.N,Net-(U5A-+)*%
X134620000Y-130810000D03*
%TO.P,RV3,3,3*%
%TO.N,Net-(R8-Pad2)*%
X134620000Y-128270000D03*
%TD*%
D10*
%TO.P,J10,1,Pin_1*%
%TO.N,Net-(J10-Pin_1)*%
X107950000Y-59690000D03*
D11*
%TO.P,J10,2,Pin_2*%
%TO.N,GND_O*%
X107950000Y-57150000D03*
%TD*%
D10*
%TO.P,J26,1,Pin_1*%
%TO.N,Net-(J26-Pin_1)*%
X115570000Y-52070000D03*
D11*
%TO.P,J26,2,Pin_2*%
%TO.N,GND_O*%
X115570000Y-49530000D03*
%TD*%
D10*
%TO.P,RV15,1,1*%
%TO.N,Net-(U14C-+)*%
X176530000Y-109220000D03*
D11*
%TO.P,RV15,2,2*%
X176530000Y-111760000D03*
%TO.P,RV15,3,3*%
%TO.N,Net-(R99-Pad2)*%
X176530000Y-114300000D03*
%TO.P,RV15,4,4*%
%TO.N,Net-(R100-Pad2)*%
X180340000Y-114300000D03*
%TO.P,RV15,5,5*%
%TO.N,Net-(U14C-+)*%
X180340000Y-111760000D03*
D10*
%TO.P,RV15,6,6*%
X180340000Y-109220000D03*
%TD*%
%TO.P,J5,1,Pin_1*%
%TO.N,Net-(J5-Pin_1)*%
X100330000Y-140970000D03*
D11*
%TO.P,J5,2,Pin_2*%
%TO.N,Net-(J5-Pin_2)*%
X100330000Y-143510000D03*
%TD*%
D10*
%TO.P,RV21,1,1*%
%TO.N,Net-(SW9-A)*%
X130810000Y-69850000D03*
D11*
%TO.P,RV21,2,2*%
%TO.N,Net-(SW9-B)*%
X130810000Y-72390000D03*
%TO.P,RV21,3,3*%
X130810000Y-74930000D03*
%TD*%
D20*
%TO.P,C36,1*%
%TO.N,Net-(C36-Pad1)*%
X169917500Y-95885000D03*
%TO.P,C36,2*%
%TO.N,Net-(U14A--)*%
X167842500Y-95885000D03*
%TD*%
D12*
%TO.P,Z17,1*%
%TO.N,Net-(R2-Pad2)*%
X126000000Y-128270000D03*
%TO.P,Z17,2*%
%TO.N,Net-(Z17-Pad2)*%
X128000000Y-128270000D03*
%TD*%
D10*
%TO.P,J13,1,Pin_1*%
%TO.N,Net-(J13-Pin_1)*%
X100330000Y-128270000D03*
D11*
%TO.P,J13,2,Pin_2*%
%TO.N,Net-(J13-Pin_2)*%
X100330000Y-130810000D03*
%TD*%
D10*
%TO.P,RV7,1,1*%
%TO.N,Net-(R37-Pad1)*%
X134620000Y-138430000D03*
D11*
%TO.P,RV7,2,2*%
%TO.N,Net-(U5B-+)*%
X134620000Y-140970000D03*
%TO.P,RV7,3,3*%
%TO.N,Net-(R31-Pad2)*%
X134620000Y-143510000D03*
%TD*%
D10*
%TO.P,J32,1,Pin_1*%
%TO.N,Net-(J32-Pin_1)*%
X123190000Y-59690000D03*
D11*
%TO.P,J32,2,Pin_2*%
%TO.N,Net-(J32-Pin_2)*%
X123190000Y-57150000D03*
%TD*%
D10*
%TO.P,SW9,1,A*%
%TO.N,Net-(SW9-A)*%
X134620000Y-69850000D03*
D11*
%TO.P,SW9,2,B*%
%TO.N,Net-(SW9-B)*%
X134620000Y-72390000D03*
%TD*%
D14*
%TO.P,U3,1*%
%TO.N,Net-(U3A--)*%
X195580000Y-41910000D03*
D15*
%TO.P,U3,2,-*%
X195580000Y-44450000D03*
%TO.P,U3,3,+*%
%TO.N,Net-(U3A-+)*%
X195580000Y-46990000D03*
%TO.P,U3,4,V+*%
%TO.N,+15V_O*%
X195580000Y-49530000D03*
%TO.P,U3,5,+*%
%TO.N,Net-(U3B-+)*%
X195580000Y-52070000D03*
%TO.P,U3,6,-*%
%TO.N,Net-(U3B--)*%
X195580000Y-54610000D03*
%TO.P,U3,7*%
X195580000Y-57150000D03*
%TO.P,U3,8*%
%TO.N,Net-(U3C--)*%
X203200000Y-57150000D03*
%TO.P,U3,9,-*%
X203200000Y-54610000D03*
%TO.P,U3,10,+*%
%TO.N,Net-(U3B-+)*%
X203200000Y-52070000D03*
%TO.P,U3,11,V-*%
%TO.N,-15V_O*%
X203200000Y-49530000D03*
%TO.P,U3,12,+*%
%TO.N,Net-(U3A-+)*%
X203200000Y-46990000D03*
%TO.P,U3,13,-*%
%TO.N,Net-(U3D--)*%
X203200000Y-44450000D03*
%TO.P,U3,14*%
X203200000Y-41910000D03*
%TD*%
D13*
%TO.P,Z61,1*%
%TO.N,Net-(Z60-Pad2)*%
X128000000Y-138430000D03*
%TO.P,Z61,2*%
%TO.N,Net-(R155-Pad1)*%
X126000000Y-138430000D03*
%TD*%
D12*
%TO.P,R154,1*%
%TO.N,Net-(U7C--)*%
X148860000Y-111760000D03*
%TO.P,R154,2*%
%TO.N,Net-(R154-Pad2)*%
X150860000Y-111760000D03*
%TD*%
D10*
%TO.P,RV1,1,1*%
%TO.N,Net-(SW1-A)*%
X107950000Y-128270000D03*
D11*
%TO.P,RV1,2,2*%
%TO.N,Net-(SW1-B)*%
X107950000Y-130810000D03*
%TO.P,RV1,3,3*%
X107950000Y-133350000D03*
%TD*%
D12*
%TO.P,R155,1*%
%TO.N,Net-(R155-Pad1)*%
X126000000Y-135890000D03*
%TO.P,R155,2*%
%TO.N,Net-(U7C--)*%
X128000000Y-135890000D03*
%TD*%
D10*
%TO.P,RV5,1,1*%
%TO.N,Net-(SW3-A)*%
X107950000Y-143510000D03*
D11*
%TO.P,RV5,2,2*%
%TO.N,Net-(SW3-B)*%
X107950000Y-140970000D03*
%TO.P,RV5,3,3*%
X107950000Y-138430000D03*
%TD*%
D13*
%TO.P,Z64,1*%
%TO.N,Net-(Z60-Pad2)*%
X128000000Y-146050000D03*
%TO.P,Z64,2*%
%TO.N,GND_O*%
X126000000Y-146050000D03*
%TD*%
D12*
%TO.P,R153,1*%
%TO.N,Net-(R153-Pad1)*%
X126000000Y-123190000D03*
%TO.P,R153,2*%
%TO.N,Net-(U7D--)*%
X128000000Y-123190000D03*
%TD*%
D13*
%TO.P,Z265,1*%
%TO.N,Net-(Z263-Pad2)*%
X154670000Y-104140000D03*
%TO.P,Z265,2*%
%TO.N,GND_O*%
X152670000Y-104140000D03*
%TD*%
D20*
%TO.P,C15,1*%
%TO.N,Net-(C15-Pad1)*%
X143277500Y-125095000D03*
%TO.P,C15,2*%
%TO.N,Net-(U5A--)*%
X141202500Y-125095000D03*
%TD*%
D14*
%TO.P,U22,1*%
%TO.N,Net-(R115-Pad1)*%
X138430000Y-41910000D03*
D15*
%TO.P,U22,2,-*%
%TO.N,Net-(U22A--)*%
X138430000Y-44450000D03*
%TO.P,U22,3,+*%
%TO.N,Net-(U22A-+)*%
X138430000Y-46990000D03*
%TO.P,U22,4,V+*%
%TO.N,+15V_O*%
X138430000Y-49530000D03*
%TO.P,U22,5,+*%
%TO.N,Net-(U22B-+)*%
X138430000Y-52070000D03*
%TO.P,U22,6,-*%
%TO.N,Net-(U22B--)*%
X138430000Y-54610000D03*
%TO.P,U22,7*%
%TO.N,Net-(R132-Pad1)*%
X138430000Y-57150000D03*
%TO.P,U22,8*%
%TO.N,Net-(SW10-A)*%
X146050000Y-57150000D03*
%TO.P,U22,9,-*%
%TO.N,Net-(SW10-B)*%
X146050000Y-54610000D03*
%TO.P,U22,10,+*%
%TO.N,Net-(U21A-+)*%
X146050000Y-52070000D03*
%TO.P,U22,11,V-*%
%TO.N,-15V_O*%
X146050000Y-49530000D03*
%TO.P,U22,12,+*%
%TO.N,Net-(U21A-+)*%
X146050000Y-46990000D03*
%TO.P,U22,13,-*%
%TO.N,Net-(SW7-B)*%
X146050000Y-44450000D03*
%TO.P,U22,14*%
%TO.N,Net-(SW7-A)*%
X146050000Y-41910000D03*
%TD*%
D10*
%TO.P,SW6,1,A*%
%TO.N,Net-(SW6-A)*%
X107950000Y-69850000D03*
D11*
%TO.P,SW6,2,B*%
%TO.N,Net-(SW6-B)*%
X107950000Y-72390000D03*
%TD*%
D10*
%TO.P,RV22,1,1*%
%TO.N,Net-(SW10-A)*%
X153670000Y-57150000D03*
D11*
%TO.P,RV22,2,2*%
%TO.N,Net-(SW10-B)*%
X153670000Y-54610000D03*
%TO.P,RV22,3,3*%
X153670000Y-52070000D03*
%TD*%
D19*
%TO.P,H5,1*%
%TO.N,N/C*%
X88900000Y-147320000D03*
%TD*%
D10*
%TO.P,SW5,1,A*%
%TO.N,Net-(SW5-A)*%
X111760000Y-114300000D03*
D11*
%TO.P,SW5,2,B*%
%TO.N,Net-(SW5-B)*%
X111760000Y-111760000D03*
%TD*%
D10*
%TO.P,SW8,1,A*%
%TO.N,Net-(SW8-A)*%
X107950000Y-85090000D03*
D11*
%TO.P,SW8,2,B*%
%TO.N,Net-(SW8-B)*%
X107950000Y-82550000D03*
%TD*%
D12*
%TO.P,R22,1*%
%TO.N,Net-(C15-Pad1)*%
X145685000Y-125095000D03*
%TO.P,R22,2*%
%TO.N,Net-(R22-Pad2)*%
X147685000Y-125095000D03*
%TD*%
%TO.P,Z263,1*%
%TO.N,Net-(R152-Pad2)*%
X152670000Y-101600000D03*
%TO.P,Z263,2*%
%TO.N,Net-(Z263-Pad2)*%
X154670000Y-101600000D03*
%TD*%
D20*
%TO.P,C25,1*%
%TO.N,Net-(C25-Pad1)*%
X143277500Y-148590000D03*
%TO.P,C25,2*%
%TO.N,Net-(U5B--)*%
X141202500Y-148590000D03*
%TD*%
D12*
%TO.P,R37,1*%
%TO.N,Net-(R37-Pad1)*%
X152670000Y-116840000D03*
%TO.P,R37,2*%
%TO.N,Net-(U5C--)*%
X154670000Y-116840000D03*
%TD*%
%TO.P,R73,1*%
%TO.N,Net-(C36-Pad1)*%
X172355000Y-95885000D03*
%TO.P,R73,2*%
%TO.N,Net-(R73-Pad2)*%
X174355000Y-95885000D03*
%TD*%
D19*
%TO.P,H2,1*%
%TO.N,N/C*%
X88900000Y-40640000D03*
%TD*%
D10*
%TO.P,RV19,1,1*%
%TO.N,Net-(R116-Pad2)*%
X149860000Y-69850000D03*
D11*
%TO.P,RV19,2,2*%
X149860000Y-72390000D03*
%TO.P,RV19,3,3*%
%TO.N,Net-(R118-Pad1)*%
X149860000Y-74930000D03*
%TO.P,RV19,4,4*%
%TO.N,GND_O*%
X153670000Y-74930000D03*
%TO.P,RV19,5,5*%
%TO.N,Net-(R117-Pad2)*%
X153670000Y-72390000D03*
D10*
%TO.P,RV19,6,6*%
X153670000Y-69850000D03*
%TD*%
D14*
%TO.P,U7,1*%
%TO.N,Net-(R63-Pad2)*%
X138370000Y-99000000D03*
D15*
%TO.P,U7,2,-*%
%TO.N,Net-(U7A--)*%
X138370000Y-101540000D03*
%TO.P,U7,3,+*%
%TO.N,Net-(U7A-+)*%
X138370000Y-104080000D03*
%TO.P,U7,4,V+*%
%TO.N,+15V_O*%
X138370000Y-106620000D03*
%TO.P,U7,5,+*%
%TO.N,Net-(U7B-+)*%
X138370000Y-109160000D03*
%TO.P,U7,6,-*%
%TO.N,Net-(U7B--)*%
X138370000Y-111700000D03*
%TO.P,U7,7*%
%TO.N,Net-(R90-Pad2)*%
X138370000Y-114240000D03*
%TO.P,U7,8*%
%TO.N,Net-(R154-Pad2)*%
X145990000Y-114240000D03*
%TO.P,U7,9,-*%
%TO.N,Net-(U7C--)*%
X145990000Y-111700000D03*
%TO.P,U7,10,+*%
%TO.N,Net-(U7C-+)*%
X145990000Y-109160000D03*
%TO.P,U7,11,V-*%
%TO.N,-15V_O*%
X145990000Y-106620000D03*
%TO.P,U7,12,+*%
%TO.N,Net-(U7D-+)*%
X145990000Y-104080000D03*
%TO.P,U7,13,-*%
%TO.N,Net-(U7D--)*%
X145990000Y-101540000D03*
%TO.P,U7,14*%
%TO.N,Net-(R152-Pad2)*%
X145990000Y-99000000D03*
%TD*%
D12*
%TO.P,R99,1*%
%TO.N,Net-(C47-Pad1)*%
X172355000Y-118745000D03*
%TO.P,R99,2*%
%TO.N,Net-(R99-Pad2)*%
X174355000Y-118745000D03*
%TD*%
D14*
%TO.P,U14,1*%
%TO.N,Net-(U14A--)*%
X165100000Y-99060000D03*
D15*
%TO.P,U14,2,-*%
X165100000Y-101600000D03*
%TO.P,U14,3,+*%
%TO.N,Net-(U14A-+)*%
X165100000Y-104140000D03*
%TO.P,U14,4,V+*%
%TO.N,+15V_O*%
X165100000Y-106680000D03*
%TO.P,U14,5,+*%
%TO.N,Net-(U14B-+)*%
X165100000Y-109220000D03*
%TO.P,U14,6,-*%
%TO.N,Net-(U14B--)*%
X165100000Y-111760000D03*
%TO.P,U14,7*%
X165100000Y-114300000D03*
%TO.P,U14,8*%
%TO.N,Net-(R84-Pad2)*%
X172720000Y-114300000D03*
%TO.P,U14,9,-*%
%TO.N,Net-(U14C--)*%
X172720000Y-111760000D03*
%TO.P,U14,10,+*%
%TO.N,Net-(U14C-+)*%
X172720000Y-109220000D03*
%TO.P,U14,11,V-*%
%TO.N,-15V_O*%
X172720000Y-106680000D03*
%TO.P,U14,12,+*%
%TO.N,Net-(U14D-+)*%
X172720000Y-104140000D03*
%TO.P,U14,13,-*%
%TO.N,Net-(U14D--)*%
X172720000Y-101600000D03*
%TO.P,U14,14*%
%TO.N,Net-(R55-Pad2)*%
X172720000Y-99060000D03*
%TD*%
D14*
%TO.P,U10,1*%
%TO.N,Net-(SW4-A)*%
X115570000Y-99060000D03*
D15*
%TO.P,U10,2,-*%
%TO.N,Net-(SW4-B)*%
X115570000Y-101600000D03*
%TO.P,U10,3,+*%
%TO.N,Net-(U10A-+)*%
X115570000Y-104140000D03*
%TO.P,U10,4,V+*%
%TO.N,+15V_O*%
X115570000Y-106680000D03*
%TO.P,U10,5,+*%
%TO.N,Net-(U10A-+)*%
X115570000Y-109220000D03*
%TO.P,U10,6,-*%
%TO.N,Net-(SW5-B)*%
X115570000Y-111760000D03*
%TO.P,U10,7*%
%TO.N,Net-(SW5-A)*%
X115570000Y-114300000D03*
%TO.P,U10,8*%
%TO.N,Net-(R79-Pad2)*%
X123190000Y-114300000D03*
%TO.P,U10,9,-*%
%TO.N,Net-(U10C--)*%
X123190000Y-111760000D03*
%TO.P,U10,10,+*%
%TO.N,Net-(U10C-+)*%
X123190000Y-109220000D03*
%TO.P,U10,11,V-*%
%TO.N,-15V_O*%
X123190000Y-106680000D03*
%TO.P,U10,12,+*%
%TO.N,Net-(U10D-+)*%
X123190000Y-104140000D03*
%TO.P,U10,13,-*%
%TO.N,Net-(U10D--)*%
X123190000Y-101600000D03*
%TO.P,U10,14*%
%TO.N,Net-(R49-Pad2)*%
X123190000Y-99060000D03*
%TD*%
D10*
%TO.P,SW10,1,A*%
%TO.N,Net-(SW10-A)*%
X149860000Y-57150000D03*
D11*
%TO.P,SW10,2,B*%
%TO.N,Net-(SW10-B)*%
X149860000Y-54610000D03*
%TD*%
D19*
%TO.P,H8,1*%
%TO.N,N/C*%
X223520000Y-40640000D03*
%TD*%
D12*
%TO.P,Z267,1*%
%TO.N,Net-(R154-Pad2)*%
X152670000Y-111760000D03*
%TO.P,Z267,2*%
%TO.N,Net-(Z267-Pad2)*%
X154670000Y-111760000D03*
%TD*%
D13*
%TO.P,Z18,1*%
%TO.N,Net-(Z17-Pad2)*%
X128000000Y-125730000D03*
%TO.P,Z18,2*%
%TO.N,Net-(R153-Pad1)*%
X126000000Y-125730000D03*
%TD*%
%TO.P,Z269,1*%
%TO.N,Net-(Z267-Pad2)*%
X154670000Y-109220000D03*
%TO.P,Z269,2*%
%TO.N,GND_O*%
X152670000Y-109220000D03*
%TD*%
D20*
%TO.P,C47,1*%
%TO.N,Net-(C47-Pad1)*%
X169947500Y-118745000D03*
%TO.P,C47,2*%
%TO.N,Net-(U14B--)*%
X167872500Y-118745000D03*
%TD*%
D21*
%TO.N,GND_O*%
X130810000Y-77470000D03*
X128270000Y-49530000D03*
X186055000Y-101600000D03*
X129540000Y-138430000D03*
X198247000Y-75946000D03*
X198374000Y-112776000D03*
X169850000Y-134290000D03*
X120142000Y-66802000D03*
X141224000Y-71374000D03*
X111125000Y-49530000D03*
X186055000Y-138430000D03*
X200406000Y-48514000D03*
X105156000Y-151638000D03*
X99060000Y-106680000D03*
X215900000Y-49530000D03*
X128000000Y-45466000D03*
X159385000Y-49530000D03*
X171450000Y-120650000D03*
X200330000Y-108255000D03*
X109728000Y-77470000D03*
X152654000Y-151892000D03*
X186055000Y-111760000D03*
X175260000Y-85090000D03*
X186055000Y-99060000D03*
X117475000Y-62230000D03*
X167910000Y-129810000D03*
X159258000Y-135890000D03*
X130810000Y-102870000D03*
X102108000Y-77470000D03*
X150114000Y-121285000D03*
X102108000Y-62230000D03*
X182245000Y-82550000D03*
X198272400Y-84124800D03*
X105156000Y-132080000D03*
X105140000Y-66294000D03*
X182245000Y-77470000D03*
X198374000Y-56134000D03*
X122174000Y-92710000D03*
X126365000Y-120650000D03*
X169926000Y-75946000D03*
X167850000Y-142196000D03*
X169850000Y-139370000D03*
X198292500Y-134320500D03*
X143180000Y-105410000D03*
X130810000Y-80010000D03*
X129540000Y-77470000D03*
X200367500Y-137579500D03*
X189230000Y-135890000D03*
X141202500Y-81534000D03*
X126000000Y-152130000D03*
X153035000Y-106680000D03*
X186055000Y-135890000D03*
X167872500Y-108585000D03*
X124190000Y-50377600D03*
X217170000Y-125730000D03*
X109728000Y-62230000D03*
X200330000Y-105207000D03*
X178435000Y-135890000D03*
X217170000Y-123220000D03*
X200406000Y-129921000D03*
X179705000Y-77470000D03*
X153035000Y-105410000D03*
X126000000Y-95685000D03*
X189230000Y-77470000D03*
X180086000Y-49530000D03*
X177800000Y-92075000D03*
X216535000Y-106680000D03*
X198292500Y-141813500D03*
X167910000Y-71120000D03*
X102235000Y-74930000D03*
X200367500Y-78981700D03*
X207987500Y-138430000D03*
X156845000Y-49530000D03*
X120380000Y-56150000D03*
X178562000Y-52070000D03*
X200406000Y-71374000D03*
X188722000Y-106680000D03*
X110722500Y-103737500D03*
X186055000Y-114300000D03*
X129032000Y-109220000D03*
X103124000Y-134112000D03*
X105140000Y-45450000D03*
X198374000Y-42926000D03*
X105156000Y-86360000D03*
X125095000Y-62230000D03*
X106172000Y-52070000D03*
X216535000Y-89535000D03*
X128037500Y-134500000D03*
X198330000Y-100667000D03*
X110490000Y-120650000D03*
X152400000Y-64770000D03*
X153035000Y-107950000D03*
X152400000Y-82550000D03*
X158517500Y-139975500D03*
X214630000Y-101600000D03*
X128016000Y-55880000D03*
X159385000Y-44450000D03*
X128270000Y-50165000D03*
X141202500Y-137795000D03*
X120396000Y-52832000D03*
X129540000Y-80010000D03*
X216535000Y-109220000D03*
X110722500Y-137795000D03*
X171450000Y-59690000D03*
X120380000Y-45450000D03*
X141224000Y-78486000D03*
%TO.N,Net-(U6D--)*%
X224155000Y-118110000D03*
%TO.N,Net-(R62-Pad1)*%
X121285000Y-121285000D03*
X130810000Y-105410000D03*
X130810000Y-114300000D03*
%TO.N,Net-(U6C--)*%
X224790000Y-130810000D03*
%TO.N,Net-(U12C--)*%
X224155000Y-114300000D03*
%TO.N,Net-(U16D--)*%
X193548000Y-69850000D03*
%TO.N,Net-(U2D--)*%
X183515000Y-121285000D03*
%TO.N,Net-(U13C--)*%
X114935000Y-62230000D03*
%TO.N,Net-(U12D--)*%
X204470000Y-87630000D03*
%TO.N,Net-(U13D--)*%
X121920000Y-62230000D03*
%TO.N,Net-(U2C--)*%
X182880000Y-152400000D03*
%TO.N,Net-(R66-Pad1)*%
X132080000Y-109220000D03*
X132080000Y-99060000D03*
%TO.N,Net-(R111-Pad2)*%
X140165099Y-68791099D03*
X140970000Y-92075000D03*
%TO.N,Net-(U21A-+)*%
X142240000Y-64770000D03*
%TO.N,Net-(U16B--)*%
X202565000Y-87630000D03*
%TO.N,Net-(U3D--)*%
X108585000Y-33655000D03*
%TO.N,Net-(U3C--)*%
X116205000Y-34925000D03*
%TO.N,Net-(U20A-+)*%
X128270000Y-63208000D03*
%TO.N,Net-(Z263-Pad2)*%
X156845000Y-120650000D03*
X158750000Y-113665000D03*
%TO.N,Net-(R117-Pad2)*%
X151765000Y-80010000D03*
%TD*%
D22*
%TO.N,GND_O*%
X126000000Y-132462500D02*
X126000000Y-130810000D01*
D23*
X126000000Y-152130000D02*
X126000000Y-146050000D01*
D22*
X128037500Y-134500000D02*
X126000000Y-132462500D01*
%TO.N,Net-(U6D--)*%
X204470000Y-118110000D02*
X203200000Y-119380000D01*
X203200000Y-119380000D02*
X203200000Y-128270000D01*
X224155000Y-118110000D02*
X204470000Y-118110000D01*
D23*
%TO.N,Net-(SW5-A)*%
X115570000Y-114300000D02*
X111760000Y-114300000D01*
X111760000Y-114300000D02*
X107950000Y-114300000D01*
%TO.N,Net-(SW5-B)*%
X111760000Y-111760000D02*
X107950000Y-111760000D01*
X111760000Y-111760000D02*
X115570000Y-111760000D01*
X107950000Y-111760000D02*
X107950000Y-109220000D01*
D22*
%TO.N,Net-(SW6-A)*%
X107950000Y-69850000D02*
X115570000Y-69850000D01*
%TO.N,Net-(SW6-B)*%
X107950000Y-72390000D02*
X115570000Y-72390000D01*
D23*
%TO.N,Net-(U5A--)*%
X138430000Y-130810000D02*
X138430000Y-128270000D01*
D22*
X139700000Y-125095000D02*
X138430000Y-126365000D01*
X138430000Y-126365000D02*
X138430000Y-128270000D01*
X141202500Y-125095000D02*
X139700000Y-125095000D01*
%TO.N,Net-(R62-Pad1)*%
X123825000Y-121285000D02*
X121285000Y-121285000D01*
X130810000Y-114300000D02*
X130810000Y-105410000D01*
X130810000Y-114300000D02*
X123825000Y-121285000D01*
%TO.N,Net-(C15-Pad1)*%
X145685000Y-125095000D02*
X143277500Y-125095000D01*
D24*
%TO.N,Net-(U10A-+)*%
X114300000Y-133350000D02*
X115570000Y-133350000D01*
D22*
X113030000Y-107950000D02*
X114300000Y-109220000D01*
X113030000Y-137160000D02*
X113030000Y-134620000D01*
X115570000Y-74930000D02*
X118110000Y-74930000D01*
X113030000Y-105410000D02*
X114300000Y-104140000D01*
D24*
X115570000Y-109220000D02*
X114300000Y-109220000D01*
D22*
X118110000Y-104140000D02*
X115570000Y-104140000D01*
D24*
X114300000Y-104140000D02*
X115570000Y-104140000D01*
D22*
X117475000Y-133350000D02*
X115570000Y-133350000D01*
X119380000Y-110490000D02*
X119380000Y-131445000D01*
X119380000Y-76200000D02*
X119380000Y-102870000D01*
X119380000Y-102870000D02*
X118110000Y-104140000D01*
X119380000Y-131445000D02*
X117475000Y-133350000D01*
X118110000Y-109220000D02*
X119380000Y-110490000D01*
X114300000Y-138430000D02*
X113030000Y-137160000D01*
X118110000Y-74930000D02*
X119380000Y-76200000D01*
D24*
X115570000Y-138430000D02*
X114300000Y-138430000D01*
D22*
X113030000Y-107950000D02*
X113030000Y-105410000D01*
X113030000Y-134620000D02*
X114300000Y-133350000D01*
X115570000Y-109220000D02*
X118110000Y-109220000D01*
%TO.N,Net-(U6C--)*%
X224790000Y-130810000D02*
X208280000Y-130810000D01*
X207010000Y-142240000D02*
X205740000Y-143510000D01*
X207010000Y-132080000D02*
X207010000Y-142240000D01*
X205740000Y-143510000D02*
X203200000Y-143510000D01*
X208280000Y-130810000D02*
X207010000Y-132080000D01*
%TO.N,Net-(U12C--)*%
X203140000Y-114300000D02*
X224155000Y-114300000D01*
%TO.N,Net-(C25-Pad1)*%
X145685000Y-148590000D02*
X143277500Y-148590000D01*
%TO.N,Net-(U5B--)*%
X138430000Y-147320000D02*
X138430000Y-143510000D01*
D23*
X138430000Y-143510000D02*
X138430000Y-140970000D01*
D22*
X139700000Y-148590000D02*
X138430000Y-147320000D01*
X141202500Y-148590000D02*
X139700000Y-148590000D01*
%TO.N,Net-(C36-Pad1)*%
X172355000Y-95885000D02*
X169917500Y-95885000D01*
%TO.N,Net-(U14A--)*%
X166370000Y-95885000D02*
X165100000Y-97155000D01*
X165100000Y-97155000D02*
X165100000Y-99060000D01*
X165100000Y-101600000D02*
X165100000Y-99060000D01*
X167842500Y-95885000D02*
X166370000Y-95885000D01*
%TO.N,Net-(C47-Pad1)*%
X172355000Y-118745000D02*
X169947500Y-118745000D01*
D23*
%TO.N,Net-(SW1-A)*%
X115570000Y-128270000D02*
X111760000Y-128270000D01*
X111760000Y-128270000D02*
X107950000Y-128270000D01*
%TO.N,Net-(U16D--)*%
X203200000Y-72390000D02*
X203200000Y-69850000D01*
D22*
X193548000Y-69850000D02*
X193548000Y-68707000D01*
X194945000Y-67310000D02*
X201930000Y-67310000D01*
X193548000Y-68707000D02*
X194945000Y-67310000D01*
X203200000Y-68580000D02*
X203200000Y-69850000D01*
X201930000Y-67310000D02*
X203200000Y-68580000D01*
%TO.N,Net-(R2-Pad2)*%
X126000000Y-128270000D02*
X123190000Y-128270000D01*
%TO.N,Net-(U2D--)*%
X183515000Y-121285000D02*
X177800000Y-121285000D01*
X172720000Y-126365000D02*
X172720000Y-128270000D01*
X177800000Y-121285000D02*
X172720000Y-126365000D01*
%TO.N,Net-(U5D--)*%
X147955000Y-132080000D02*
X147955000Y-134620000D01*
X156845000Y-127000000D02*
X154670000Y-124825000D01*
X155575000Y-135255000D02*
X156845000Y-133985000D01*
X147955000Y-134620000D02*
X148590000Y-135255000D01*
X154670000Y-124825000D02*
X154670000Y-123190000D01*
X146685000Y-130810000D02*
X147955000Y-132080000D01*
X146050000Y-130810000D02*
X146685000Y-130810000D01*
X148590000Y-135255000D02*
X155575000Y-135255000D01*
X156845000Y-133985000D02*
X156845000Y-127000000D01*
%TO.N,Net-(R12-Pad1)*%
X134620000Y-133350000D02*
X132715000Y-133350000D01*
X132715000Y-133350000D02*
X132080000Y-132715000D01*
X132080000Y-124460000D02*
X133350000Y-123190000D01*
X133350000Y-123190000D02*
X152670000Y-123190000D01*
X132080000Y-132715000D02*
X132080000Y-124460000D01*
X152670000Y-120650000D02*
X152670000Y-123190000D01*
D23*
%TO.N,Net-(SW1-B)*%
X115570000Y-130810000D02*
X111760000Y-130810000D01*
X107950000Y-133350000D02*
X107950000Y-130810000D01*
X111760000Y-130810000D02*
X107950000Y-130810000D01*
D22*
%TO.N,Net-(U13C--)*%
X162560000Y-87630000D02*
X161290000Y-86360000D01*
X117602000Y-65532000D02*
X133604000Y-65532000D01*
X171450000Y-87630000D02*
X162560000Y-87630000D01*
D23*
X172720000Y-85090000D02*
X172720000Y-82550000D01*
D22*
X133604000Y-65532000D02*
X135890000Y-63246000D01*
X160020000Y-63246000D02*
X158750000Y-63246000D01*
X114935000Y-62865000D02*
X117602000Y-65532000D01*
X114935000Y-62230000D02*
X114935000Y-62865000D01*
X172720000Y-86360000D02*
X171450000Y-87630000D01*
X161290000Y-64516000D02*
X160020000Y-63246000D01*
X135890000Y-63246000D02*
X158750000Y-63246000D01*
X161290000Y-86360000D02*
X161290000Y-64516000D01*
X172720000Y-85090000D02*
X172720000Y-86360000D01*
D23*
%TO.N,Net-(SW7-B)*%
X146050000Y-44450000D02*
X149860000Y-44450000D01*
X153670000Y-44450000D02*
X153670000Y-46990000D01*
X149860000Y-44450000D02*
X153670000Y-44450000D01*
%TO.N,Net-(SW7-A)*%
X146050000Y-41910000D02*
X149860000Y-41910000D01*
X149860000Y-41910000D02*
X153670000Y-41910000D01*
D22*
%TO.N,Net-(SW8-A)*%
X115570000Y-85090000D02*
X107950000Y-85090000D01*
%TO.N,Net-(SW8-B)*%
X107950000Y-82550000D02*
X115570000Y-82550000D01*
%TO.N,Net-(R22-Pad2)*%
X149860000Y-125730000D02*
X149225000Y-125095000D01*
X149860000Y-128270000D02*
X149860000Y-125730000D01*
X149225000Y-125095000D02*
X147685000Y-125095000D01*
D23*
%TO.N,Net-(SW3-A)*%
X111760000Y-143510000D02*
X107950000Y-143510000D01*
X115570000Y-143510000D02*
X111760000Y-143510000D01*
%TO.N,Net-(SW3-B)*%
X111760000Y-140970000D02*
X107950000Y-140970000D01*
X107950000Y-140970000D02*
X107950000Y-138430000D01*
X111760000Y-140970000D02*
X115570000Y-140970000D01*
%TO.N,Net-(SW4-A)*%
X115570000Y-99060000D02*
X111760000Y-99060000D01*
X111760000Y-99060000D02*
X107950000Y-99060000D01*
D22*
%TO.N,Net-(R27-Pad2)*%
X126000000Y-143510000D02*
X123190000Y-143510000D01*
D23*
%TO.N,Net-(SW4-B)*%
X111760000Y-101600000D02*
X107950000Y-101600000D01*
X115570000Y-101600000D02*
X111760000Y-101600000D01*
X107950000Y-104140000D02*
X107950000Y-101600000D01*
D22*
%TO.N,Net-(U12D--)*%
X203140000Y-92770000D02*
X203140000Y-99060000D01*
X204470000Y-91440000D02*
X203140000Y-92770000D01*
X204470000Y-87630000D02*
X204470000Y-91440000D01*
%TO.N,Net-(U13D--)*%
X133350000Y-61722000D02*
X169672000Y-61722000D01*
D23*
X172720000Y-69850000D02*
X172720000Y-72390000D01*
D22*
X130937000Y-64135000D02*
X133350000Y-61722000D01*
X172720000Y-64770000D02*
X172720000Y-69850000D01*
X121920000Y-62230000D02*
X123825000Y-64135000D01*
X123825000Y-64135000D02*
X130937000Y-64135000D01*
X169672000Y-61722000D02*
X172720000Y-64770000D01*
%TO.N,Net-(U2C--)*%
X172720000Y-145415000D02*
X172720000Y-143570000D01*
X182880000Y-152400000D02*
X179705000Y-152400000D01*
X179705000Y-152400000D02*
X172720000Y-145415000D01*
X172720000Y-143570000D02*
X172660000Y-143510000D01*
%TO.N,Net-(U5C--)*%
X148590000Y-136525000D02*
X156210000Y-136525000D01*
X146685000Y-140970000D02*
X147955000Y-139700000D01*
X156210000Y-136525000D02*
X158115000Y-134620000D01*
X146050000Y-140970000D02*
X146685000Y-140970000D01*
X156210000Y-116840000D02*
X158115000Y-118745000D01*
X147955000Y-139700000D02*
X147955000Y-137160000D01*
X147955000Y-137160000D02*
X148590000Y-136525000D01*
X154670000Y-116840000D02*
X156210000Y-116840000D01*
X158115000Y-134620000D02*
X158115000Y-118745000D01*
%TO.N,Net-(R37-Pad1)*%
X152670000Y-116840000D02*
X144145000Y-116840000D01*
X130810000Y-136525000D02*
X130810000Y-123825000D01*
X132715000Y-138430000D02*
X130810000Y-136525000D01*
X132715000Y-121920000D02*
X139065000Y-121920000D01*
X152670000Y-116840000D02*
X152670000Y-114300000D01*
X139065000Y-121920000D02*
X144145000Y-116840000D01*
X134620000Y-138430000D02*
X132715000Y-138430000D01*
X130810000Y-123825000D02*
X132715000Y-121920000D01*
D23*
%TO.N,Net-(U13A--)*%
X165100000Y-69850000D02*
X165100000Y-72390000D01*
D22*
%TO.N,Net-(R46-Pad2)*%
X149860000Y-147320000D02*
X149860000Y-143510000D01*
X148590000Y-148590000D02*
X149860000Y-147320000D01*
X147685000Y-148590000D02*
X148590000Y-148590000D01*
%TO.N,Net-(R73-Pad2)*%
X176530000Y-97155000D02*
X175260000Y-95885000D01*
X176530000Y-99060000D02*
X176530000Y-97155000D01*
X175260000Y-95885000D02*
X174355000Y-95885000D01*
D23*
%TO.N,Net-(SW10-A)*%
X153670000Y-57150000D02*
X149860000Y-57150000D01*
X146050000Y-57150000D02*
X149860000Y-57150000D01*
D22*
%TO.N,Net-(U14B--)*%
X165100000Y-117475000D02*
X165100000Y-114300000D01*
X165100000Y-114300000D02*
X165100000Y-111760000D01*
X167872500Y-118745000D02*
X166370000Y-118745000D01*
X166370000Y-118745000D02*
X165100000Y-117475000D01*
D23*
%TO.N,Net-(SW10-B)*%
X153670000Y-54610000D02*
X153670000Y-52070000D01*
X149860000Y-54610000D02*
X146050000Y-54610000D01*
X149860000Y-54610000D02*
X153670000Y-54610000D01*
D22*
%TO.N,Net-(U14B-+)*%
X161290000Y-111760000D02*
X161925000Y-111760000D01*
X164465000Y-109220000D02*
X165100000Y-109220000D01*
X161925000Y-111760000D02*
X164465000Y-109220000D01*
%TO.N,Net-(R66-Pad1)*%
X132080000Y-109220000D02*
X132080000Y-99060000D01*
%TO.N,Net-(R99-Pad2)*%
X174355000Y-118745000D02*
X175260000Y-118745000D01*
X175260000Y-118745000D02*
X176530000Y-117475000D01*
X176530000Y-117475000D02*
X176530000Y-114300000D01*
D23*
%TO.N,Net-(U13B--)*%
X165100000Y-85090000D02*
X165100000Y-82550000D01*
D22*
%TO.N,Net-(R111-Pad2)*%
X142240000Y-70866000D02*
X142240000Y-90805000D01*
X142240000Y-90805000D02*
X140970000Y-92075000D01*
X140165099Y-68791099D02*
X142240000Y-70866000D01*
D23*
%TO.N,Net-(R116-Pad2)*%
X149860000Y-72390000D02*
X149860000Y-69850000D01*
D22*
%TO.N,Net-(R118-Pad1)*%
X149860000Y-74930000D02*
X149860000Y-83185000D01*
X149860000Y-83185000D02*
X147955000Y-85090000D01*
X147955000Y-85090000D02*
X146050000Y-85090000D01*
%TO.N,Net-(U21A-+)*%
X138684000Y-64770000D02*
X136652000Y-66802000D01*
X136652000Y-66802000D02*
X136652000Y-73152000D01*
X142240000Y-64770000D02*
X138684000Y-64770000D01*
X136652000Y-73152000D02*
X138430000Y-74930000D01*
%TO.N,Net-(U16B--)*%
X200025000Y-85090000D02*
X195580000Y-85090000D01*
D23*
X195580000Y-85090000D02*
X195580000Y-82550000D01*
D22*
X202565000Y-87630000D02*
X200025000Y-85090000D01*
%TO.N,Net-(U5A-+)*%
X137795000Y-133350000D02*
X135255000Y-130810000D01*
X138430000Y-133350000D02*
X137795000Y-133350000D01*
X135255000Y-130810000D02*
X134620000Y-130810000D01*
%TO.N,Net-(U5B-+)*%
X137795000Y-138430000D02*
X138430000Y-138430000D01*
X135255000Y-140970000D02*
X137795000Y-138430000D01*
X134620000Y-140970000D02*
X135255000Y-140970000D01*
%TO.N,Net-(U3D--)*%
X198755000Y-33655000D02*
X203200000Y-38100000D01*
X203200000Y-38100000D02*
X203200000Y-41910000D01*
X108585000Y-33655000D02*
X198755000Y-33655000D01*
%TO.N,Net-(U3C--)*%
X194945000Y-34925000D02*
X199390000Y-39370000D01*
X199390000Y-52070000D02*
X201930000Y-54610000D01*
X116205000Y-34925000D02*
X194945000Y-34925000D01*
X201930000Y-54610000D02*
X203200000Y-54610000D01*
X199390000Y-39370000D02*
X199390000Y-52070000D01*
%TO.N,Net-(U13A-+)*%
X172720000Y-74930000D02*
X165100000Y-74930000D01*
%TO.N,Net-(U14A-+)*%
X165100000Y-104140000D02*
X164465000Y-104140000D01*
X161925000Y-101600000D02*
X161290000Y-101600000D01*
X164465000Y-104140000D02*
X161925000Y-101600000D01*
%TO.N,Net-(U7D--)*%
X130175000Y-119380000D02*
X137795000Y-119380000D01*
X148860000Y-101600000D02*
X146050000Y-101600000D01*
X128000000Y-123190000D02*
X128000000Y-121555000D01*
X128000000Y-121555000D02*
X130175000Y-119380000D01*
X142935000Y-101540000D02*
X145990000Y-101540000D01*
X137795000Y-119380000D02*
X140970000Y-116205000D01*
X140970000Y-116205000D02*
X140970000Y-103505000D01*
X146050000Y-101600000D02*
X145990000Y-101540000D01*
X140970000Y-103505000D02*
X142935000Y-101540000D01*
%TO.N,Net-(U20A-+)*%
X165862000Y-60198000D02*
X167640000Y-58420000D01*
X167640000Y-48260000D02*
X166370000Y-46990000D01*
X167640000Y-58420000D02*
X167640000Y-48260000D01*
D24*
X166370000Y-46990000D02*
X165100000Y-46990000D01*
D22*
X128270000Y-63208000D02*
X128308000Y-63208000D01*
X128308000Y-63208000D02*
X131318000Y-60198000D01*
X131318000Y-60198000D02*
X165862000Y-60198000D01*
X172720000Y-46990000D02*
X165100000Y-46990000D01*
%TO.N,Net-(U7C--)*%
X142875000Y-113030000D02*
X144205000Y-111700000D01*
X146050000Y-111760000D02*
X145990000Y-111700000D01*
X128905000Y-135890000D02*
X129540000Y-135255000D01*
X138430000Y-120650000D02*
X142875000Y-116205000D01*
X131445000Y-120650000D02*
X138430000Y-120650000D01*
X148860000Y-111760000D02*
X146050000Y-111760000D01*
X142875000Y-116205000D02*
X142875000Y-113030000D01*
X128000000Y-135890000D02*
X128905000Y-135890000D01*
X144205000Y-111700000D02*
X145990000Y-111700000D01*
X129540000Y-135255000D02*
X129540000Y-122555000D01*
X129540000Y-122555000D02*
X131445000Y-120650000D01*
%TO.N,Net-(Z17-Pad2)*%
X128000000Y-130810000D02*
X128000000Y-128270000D01*
X128000000Y-128270000D02*
X128000000Y-125730000D01*
%TO.N,Net-(Z60-Pad2)*%
X128000000Y-138430000D02*
X128000000Y-143510000D01*
X128000000Y-146050000D02*
X128000000Y-143510000D01*
%TO.N,Net-(R152-Pad2)*%
X152670000Y-101600000D02*
X150860000Y-101600000D01*
X149800000Y-99000000D02*
X150860000Y-100060000D01*
X145990000Y-99000000D02*
X149800000Y-99000000D01*
X146050000Y-99060000D02*
X145990000Y-99000000D01*
X150860000Y-100060000D02*
X150860000Y-101600000D01*
%TO.N,Net-(R153-Pad1)*%
X126000000Y-125730000D02*
X126000000Y-123190000D01*
%TO.N,Net-(R154-Pad2)*%
X152670000Y-111760000D02*
X150860000Y-111760000D01*
X150860000Y-112665000D02*
X150860000Y-111760000D01*
X145990000Y-114240000D02*
X149285000Y-114240000D01*
X149285000Y-114240000D02*
X150860000Y-112665000D01*
%TO.N,Net-(R155-Pad1)*%
X126000000Y-138430000D02*
X126000000Y-135890000D01*
%TO.N,Net-(U7D-+)*%
X148860000Y-104140000D02*
X146050000Y-104140000D01*
X146050000Y-104140000D02*
X145990000Y-104080000D01*
%TO.N,Net-(U7C-+)*%
X145990000Y-109160000D02*
X148800000Y-109160000D01*
X148800000Y-109160000D02*
X148860000Y-109220000D01*
%TO.N,Net-(Z263-Pad2)*%
X154670000Y-120650000D02*
X156845000Y-120650000D01*
X154670000Y-104140000D02*
X154670000Y-101600000D01*
X156845000Y-104140000D02*
X154670000Y-104140000D01*
X158750000Y-106045000D02*
X156845000Y-104140000D01*
X158750000Y-113665000D02*
X158750000Y-106045000D01*
%TO.N,Net-(Z267-Pad2)*%
X154670000Y-114300000D02*
X154670000Y-111760000D01*
X154670000Y-111760000D02*
X154670000Y-109220000D01*
%TO.N,Net-(R117-Pad2)*%
X153035000Y-72390000D02*
X153670000Y-72390000D01*
D23*
X153670000Y-72390000D02*
X153670000Y-69850000D01*
D22*
X151765000Y-80010000D02*
X151765000Y-73660000D01*
X151765000Y-73660000D02*
X153035000Y-72390000D01*
%TD*%
%TA.AperFunction,Conductor*%
%TO.N,Net-(C4-Pad1)*%
G36*
X225587963Y-141624685D02*
G01*
X225608605Y-141641319D01*
X226035967Y-142068681D01*
X226069452Y-142130004D01*
X226072286Y-142156362D01*
X226072286Y-149308638D01*
X226052601Y-149375677D01*
X226035967Y-149396319D01*
X225608605Y-149823681D01*
X225547282Y-149857166D01*
X225520924Y-149860000D01*
X221531503Y-149860000D01*
X221464464Y-149840315D01*
X221443652Y-149823511D01*
X221018282Y-149396492D01*
X220984916Y-149335105D01*
X220982134Y-149308501D01*
X220990351Y-147184996D01*
X220992286Y-146685018D01*
X220992286Y-145415000D01*
X220492286Y-145415000D01*
X219003648Y-145415000D01*
X218936609Y-145395315D01*
X218915967Y-145378681D01*
X218488605Y-144951319D01*
X218455120Y-144889996D01*
X218452286Y-144863638D01*
X218452286Y-142156362D01*
X218471971Y-142089323D01*
X218488605Y-142068681D01*
X218915967Y-141641319D01*
X218977290Y-141607834D01*
X219003648Y-141605000D01*
X225520924Y-141605000D01*
X225587963Y-141624685D01*
G37*
%TD.AperFunction*%
%TD*%
%TA.AperFunction,Conductor*%
%TO.N,Net-(U14C-+)*%
G36*
X180617677Y-108731685D02*
G01*
X180638319Y-108748319D01*
X181065681Y-109175681D01*
X181099166Y-109237004D01*
X181102000Y-109263362D01*
X181102000Y-111462638D01*
X181082315Y-111529677D01*
X181065681Y-111550319D01*
X180638319Y-111977681D01*
X180576996Y-112011166D01*
X180550638Y-112014000D01*
X176573362Y-112014000D01*
X176506323Y-111994315D01*
X176485681Y-111977681D01*
X176058319Y-111550319D01*
X176024834Y-111488996D01*
X176022000Y-111462638D01*
X176022000Y-109728000D01*
X175522000Y-109728000D01*
X174033362Y-109728000D01*
X173966323Y-109708315D01*
X173945681Y-109691681D01*
X173561681Y-109307681D01*
X173528196Y-109246358D01*
X173533180Y-109176666D01*
X173561681Y-109132319D01*
X173945681Y-108748319D01*
X174007004Y-108714834D01*
X174033362Y-108712000D01*
X180550638Y-108712000D01*
X180617677Y-108731685D01*
G37*
%TD.AperFunction*%
%TD*%
%TA.AperFunction,Conductor*%
%TO.N,GND_O*%
G36*
X216050677Y-142259685D02*
G01*
X216071319Y-142276319D01*
X216498681Y-142703681D01*
X216532166Y-142765004D01*
X216535000Y-142791362D01*
X216535000Y-144228638D01*
X216515315Y-144295677D01*
X216498681Y-144316319D01*
X216071319Y-144743681D01*
X216044391Y-144758384D01*
X216018573Y-144774977D01*
X216012372Y-144775868D01*
X216009996Y-144777166D01*
X215983638Y-144780000D01*
X215779438Y-144780000D01*
X215750949Y-144776683D01*
X214831836Y-144559709D01*
X214804871Y-144549935D01*
X214442214Y-144368607D01*
X213995000Y-144145000D01*
X213276362Y-144145000D01*
X213209323Y-144125315D01*
X213188681Y-144108681D01*
X212761319Y-143681319D01*
X212746615Y-143654391D01*
X212730023Y-143628573D01*
X212729131Y-143622372D01*
X212727834Y-143619996D01*
X212725000Y-143593638D01*
X212725000Y-143426362D01*
X212744685Y-143359323D01*
X212761319Y-143338681D01*
X213188681Y-142911319D01*
X213250004Y-142877834D01*
X213276362Y-142875000D01*
X213995000Y-142875000D01*
X214804874Y-142470062D01*
X214831837Y-142460290D01*
X215750949Y-142243317D01*
X215779438Y-142240000D01*
X215983638Y-142240000D01*
X216050677Y-142259685D01*
G37*
%TD.AperFunction*%
%TD*%
%TA.AperFunction,Conductor*%
%TO.N,Net-(U14D-+)*%
G36*
X180490677Y-101365685D02*
G01*
X180511319Y-101382319D01*
X180938681Y-101809681D01*
X180972166Y-101871004D01*
X180975000Y-101897362D01*
X180975000Y-104096638D01*
X180955315Y-104163677D01*
X180938681Y-104184319D01*
X180511319Y-104611681D01*
X180449996Y-104645166D01*
X180423638Y-104648000D01*
X173906362Y-104648000D01*
X173839323Y-104628315D01*
X173818681Y-104611681D01*
X173434681Y-104227681D01*
X173401196Y-104166358D01*
X173406180Y-104096666D01*
X173434681Y-104052319D01*
X173818681Y-103668319D01*
X173880004Y-103634834D01*
X173906362Y-103632000D01*
X175895000Y-103632000D01*
X175895000Y-101897362D01*
X175914685Y-101830323D01*
X175931319Y-101809681D01*
X176358681Y-101382319D01*
X176420004Y-101348834D01*
X176446362Y-101346000D01*
X180423638Y-101346000D01*
X180490677Y-101365685D01*
G37*
%TD.AperFunction*%
%TD*%
%TA.AperFunction,Conductor*%
%TO.N,GND_O*%
G36*
X152562009Y-103524685D02*
G01*
X152567474Y-103528406D01*
X153160639Y-103955935D01*
X153203515Y-104011103D01*
X153205772Y-104017317D01*
X153508725Y-104926175D01*
X153513487Y-104945524D01*
X153668399Y-105900134D01*
X153670000Y-105919997D01*
X153670000Y-107440002D01*
X153668399Y-107459865D01*
X153513487Y-108414475D01*
X153508725Y-108433824D01*
X153205772Y-109342682D01*
X153165898Y-109400057D01*
X153160639Y-109404064D01*
X152567474Y-109831594D01*
X152501579Y-109854824D01*
X152494970Y-109855000D01*
X151046362Y-109855000D01*
X150979323Y-109835315D01*
X150958681Y-109818681D01*
X150531319Y-109391319D01*
X150497834Y-109329996D01*
X150495000Y-109303638D01*
X150495000Y-104056362D01*
X150514685Y-103989323D01*
X150531319Y-103968681D01*
X150958681Y-103541319D01*
X151020004Y-103507834D01*
X151046362Y-103505000D01*
X152494970Y-103505000D01*
X152562009Y-103524685D01*
G37*
%TD.AperFunction*%
%TD*%
M02*
