M48
; DRILL file {KiCad 9.0.8} date 2026-03-16T22:11:45+0100
; FORMAT={-:-/ absolute / metric / decimal}
; #@! TF.CreationDate,2026-03-16T22:11:45+01:00
; #@! TF.GenerationSoftware,Kicad,Pcbnew,9.0.8
; #@! TF.FileFunction,Plated,1,4,PTH
FMAT,2
METRIC
; #@! TA.AperFunction,Plated,PTH,ViaDrill
T1C0.300
; #@! TA.AperFunction,Plated,PTH,ComponentDrill
T2C0.800
; #@! TA.AperFunction,Plated,PTH,ComponentDrill
T3C1.000
; #@! TA.AperFunction,Plated,PTH,ComponentDrill
T4C3.200
%
G90
G05
T1
X99.06Y-106.68
X102.108Y-62.23
X102.108Y-77.47
X102.235Y-74.93
X103.124Y-134.112
X105.14Y-45.45
X105.14Y-66.294
X105.156Y-86.36
X105.156Y-132.08
X105.156Y-151.638
X106.172Y-52.07
X108.585Y-33.655
X109.728Y-62.23
X109.728Y-77.47
X110.49Y-120.65
X110.722Y-103.737
X110.722Y-137.795
X111.125Y-49.53
X114.935Y-62.23
X116.205Y-34.925
X117.475Y-62.23
X120.142Y-66.802
X120.38Y-45.45
X120.38Y-56.15
X120.396Y-52.832
X121.285Y-121.285
X121.92Y-62.23
X122.174Y-92.71
X124.19Y-50.378
X125.095Y-62.23
X126.0Y-95.685
X126.0Y-152.13
X126.365Y-120.65
X128.0Y-45.466
X128.016Y-55.88
X128.037Y-134.5
X128.27Y-49.53
X128.27Y-50.165
X128.27Y-63.208
X129.032Y-109.22
X129.54Y-77.47
X129.54Y-80.01
X129.54Y-138.43
X130.81Y-77.47
X130.81Y-80.01
X130.81Y-102.87
X130.81Y-105.41
X130.81Y-114.3
X132.08Y-99.06
X132.08Y-109.22
X140.165Y-68.791
X140.97Y-92.075
X141.202Y-81.534
X141.202Y-137.795
X141.224Y-71.374
X141.224Y-78.486
X142.24Y-64.77
X143.18Y-105.41
X150.114Y-121.285
X151.765Y-80.01
X152.4Y-64.77
X152.4Y-82.55
X152.654Y-151.892
X153.035Y-105.41
X153.035Y-106.68
X153.035Y-107.95
X156.845Y-49.53
X156.845Y-120.65
X158.517Y-139.975
X158.75Y-113.665
X159.258Y-135.89
X159.385Y-44.45
X159.385Y-49.53
X167.85Y-142.196
X167.873Y-108.585
X167.91Y-71.12
X167.91Y-129.81
X169.85Y-134.29
X169.85Y-139.37
X169.926Y-75.946
X171.45Y-59.69
X171.45Y-120.65
X175.26Y-85.09
X177.8Y-92.075
X178.435Y-135.89
X178.562Y-52.07
X179.705Y-77.47
X180.086Y-49.53
X182.245Y-77.47
X182.245Y-82.55
X182.88Y-152.4
X183.515Y-121.285
X186.055Y-99.06
X186.055Y-101.6
X186.055Y-111.76
X186.055Y-114.3
X186.055Y-135.89
X186.055Y-138.43
X188.722Y-106.68
X189.23Y-77.47
X189.23Y-135.89
X193.548Y-69.85
X198.247Y-75.946
X198.272Y-84.125
X198.292Y-134.32
X198.292Y-141.814
X198.33Y-100.667
X198.374Y-42.926
X198.374Y-56.134
X198.374Y-112.776
X200.33Y-105.207
X200.33Y-108.255
X200.367Y-78.982
X200.367Y-137.579
X200.406Y-48.514
X200.406Y-71.374
X200.406Y-129.921
X202.565Y-87.63
X204.47Y-87.63
X207.987Y-138.43
X214.63Y-101.6
X215.9Y-49.53
X216.535Y-89.535
X216.535Y-106.68
X216.535Y-109.22
X217.17Y-123.22
X217.17Y-125.73
X224.155Y-114.3
X224.155Y-118.11
X224.79Y-130.81
T2
X115.57Y-69.85
X115.57Y-72.39
X115.57Y-74.93
X115.57Y-77.47
X115.57Y-80.01
X115.57Y-82.55
X115.57Y-85.09
X115.57Y-99.06
X115.57Y-101.6
X115.57Y-104.14
X115.57Y-106.68
X115.57Y-109.22
X115.57Y-111.76
X115.57Y-114.3
X115.57Y-128.27
X115.57Y-130.81
X115.57Y-133.35
X115.57Y-135.89
X115.57Y-138.43
X115.57Y-140.97
X115.57Y-143.51
X123.19Y-69.85
X123.19Y-72.39
X123.19Y-74.93
X123.19Y-77.47
X123.19Y-80.01
X123.19Y-82.55
X123.19Y-85.09
X123.19Y-99.06
X123.19Y-101.6
X123.19Y-104.14
X123.19Y-106.68
X123.19Y-109.22
X123.19Y-111.76
X123.19Y-114.3
X123.19Y-128.27
X123.19Y-130.81
X123.19Y-133.35
X123.19Y-135.89
X123.19Y-138.43
X123.19Y-140.97
X123.19Y-143.51
X138.37Y-99.0
X138.37Y-101.54
X138.37Y-104.08
X138.37Y-106.62
X138.37Y-109.16
X138.37Y-111.7
X138.37Y-114.24
X138.43Y-41.91
X138.43Y-44.45
X138.43Y-46.99
X138.43Y-49.53
X138.43Y-52.07
X138.43Y-54.61
X138.43Y-57.15
X138.43Y-69.85
X138.43Y-72.39
X138.43Y-74.93
X138.43Y-77.47
X138.43Y-80.01
X138.43Y-82.55
X138.43Y-85.09
X138.43Y-128.27
X138.43Y-130.81
X138.43Y-133.35
X138.43Y-135.89
X138.43Y-138.43
X138.43Y-140.97
X138.43Y-143.51
X145.99Y-99.0
X145.99Y-101.54
X145.99Y-104.08
X145.99Y-106.62
X145.99Y-109.16
X145.99Y-111.7
X145.99Y-114.24
X146.05Y-41.91
X146.05Y-44.45
X146.05Y-46.99
X146.05Y-49.53
X146.05Y-52.07
X146.05Y-54.61
X146.05Y-57.15
X146.05Y-69.85
X146.05Y-72.39
X146.05Y-74.93
X146.05Y-77.47
X146.05Y-80.01
X146.05Y-82.55
X146.05Y-85.09
X146.05Y-128.27
X146.05Y-130.81
X146.05Y-133.35
X146.05Y-135.89
X146.05Y-138.43
X146.05Y-140.97
X146.05Y-143.51
X165.1Y-41.91
X165.1Y-44.45
X165.1Y-46.99
X165.1Y-49.53
X165.1Y-52.07
X165.1Y-54.61
X165.1Y-57.15
X165.1Y-69.85
X165.1Y-72.39
X165.1Y-74.93
X165.1Y-77.47
X165.1Y-80.01
X165.1Y-82.55
X165.1Y-85.09
X165.1Y-99.06
X165.1Y-101.6
X165.1Y-104.14
X165.1Y-106.68
X165.1Y-109.22
X165.1Y-111.76
X165.1Y-114.3
X165.1Y-128.27
X165.1Y-130.81
X165.1Y-133.35
X165.1Y-135.89
X165.1Y-138.43
X165.1Y-140.97
X165.1Y-143.51
X172.72Y-41.91
X172.72Y-44.45
X172.72Y-46.99
X172.72Y-49.53
X172.72Y-52.07
X172.72Y-54.61
X172.72Y-57.15
X172.72Y-69.85
X172.72Y-72.39
X172.72Y-74.93
X172.72Y-77.47
X172.72Y-80.01
X172.72Y-82.55
X172.72Y-85.09
X172.72Y-99.06
X172.72Y-101.6
X172.72Y-104.14
X172.72Y-106.68
X172.72Y-109.22
X172.72Y-111.76
X172.72Y-114.3
X172.72Y-128.27
X172.72Y-130.81
X172.72Y-133.35
X172.72Y-135.89
X172.72Y-138.43
X172.72Y-140.97
X172.72Y-143.51
X195.52Y-99.06
X195.52Y-101.6
X195.52Y-104.14
X195.52Y-106.68
X195.52Y-109.22
X195.52Y-111.76
X195.52Y-114.3
X195.58Y-41.91
X195.58Y-44.45
X195.58Y-46.99
X195.58Y-49.53
X195.58Y-52.07
X195.58Y-54.61
X195.58Y-57.15
X195.58Y-69.85
X195.58Y-72.39
X195.58Y-74.93
X195.58Y-77.47
X195.58Y-80.01
X195.58Y-82.55
X195.58Y-85.09
X195.58Y-128.27
X195.58Y-130.81
X195.58Y-133.35
X195.58Y-135.89
X195.58Y-138.43
X195.58Y-140.97
X195.58Y-143.51
X203.14Y-99.06
X203.14Y-101.6
X203.14Y-104.14
X203.14Y-106.68
X203.14Y-109.22
X203.14Y-111.76
X203.14Y-114.3
X203.2Y-41.91
X203.2Y-44.45
X203.2Y-46.99
X203.2Y-49.53
X203.2Y-52.07
X203.2Y-54.61
X203.2Y-57.15
X203.2Y-69.85
X203.2Y-72.39
X203.2Y-74.93
X203.2Y-77.47
X203.2Y-80.01
X203.2Y-82.55
X203.2Y-85.09
X203.2Y-128.27
X203.2Y-130.81
X203.2Y-133.35
X203.2Y-135.89
X203.2Y-138.43
X203.2Y-140.97
X203.2Y-143.51
T3
X100.33Y-41.91
X100.33Y-44.45
X100.33Y-49.53
X100.33Y-52.07
X100.33Y-57.15
X100.33Y-59.69
X100.33Y-69.85
X100.33Y-72.39
X100.33Y-82.55
X100.33Y-85.09
X100.33Y-111.76
X100.33Y-114.3
X100.33Y-128.27
X100.33Y-130.81
X100.33Y-140.97
X100.33Y-143.51
X107.95Y-41.91
X107.95Y-44.45
X107.95Y-57.15
X107.95Y-59.69
X107.95Y-69.85
X107.95Y-72.39
X107.95Y-82.55
X107.95Y-85.09
X107.95Y-99.06
X107.95Y-101.6
X107.95Y-104.14
X107.95Y-109.22
X107.95Y-111.76
X107.95Y-114.3
X107.95Y-128.27
X107.95Y-130.81
X107.95Y-133.35
X107.95Y-138.43
X107.95Y-140.97
X107.95Y-143.51
X111.76Y-99.06
X111.76Y-101.6
X111.76Y-111.76
X111.76Y-114.3
X111.76Y-128.27
X111.76Y-130.81
X111.76Y-140.97
X111.76Y-143.51
X115.57Y-41.91
X115.57Y-44.45
X115.57Y-49.53
X115.57Y-52.07
X115.57Y-57.15
X115.57Y-59.69
X123.19Y-41.91
X123.19Y-44.45
X123.19Y-57.15
X123.19Y-59.69
X130.81Y-69.85
X130.81Y-72.39
X130.81Y-74.93
X134.62Y-69.85
X134.62Y-72.39
X134.62Y-128.27
X134.62Y-130.81
X134.62Y-133.35
X134.62Y-138.43
X134.62Y-140.97
X134.62Y-143.51
X149.86Y-41.91
X149.86Y-44.45
X149.86Y-54.61
X149.86Y-57.15
X149.86Y-69.85
X149.86Y-72.39
X149.86Y-74.93
X149.86Y-128.27
X149.86Y-130.81
X149.86Y-133.35
X149.86Y-138.43
X149.86Y-140.97
X149.86Y-143.51
X153.67Y-41.91
X153.67Y-44.45
X153.67Y-46.99
X153.67Y-52.07
X153.67Y-54.61
X153.67Y-57.15
X153.67Y-69.85
X153.67Y-72.39
X153.67Y-74.93
X153.67Y-128.27
X153.67Y-130.81
X153.67Y-133.35
X153.67Y-138.43
X153.67Y-140.97
X153.67Y-143.51
X161.29Y-99.06
X161.29Y-101.6
X161.29Y-104.14
X161.29Y-109.22
X161.29Y-111.76
X161.29Y-114.3
X176.53Y-99.06
X176.53Y-101.6
X176.53Y-104.14
X176.53Y-109.22
X176.53Y-111.76
X176.53Y-114.3
X180.34Y-99.06
X180.34Y-101.6
X180.34Y-104.14
X180.34Y-109.22
X180.34Y-111.76
X180.34Y-114.3
X210.82Y-133.35
X210.82Y-135.89
X210.82Y-138.43
X210.82Y-140.97
X210.82Y-143.51
X210.82Y-146.05
X210.82Y-148.59
X213.36Y-133.35
X213.36Y-135.89
X213.36Y-138.43
X213.36Y-140.97
X213.36Y-143.51
X213.36Y-146.05
X213.36Y-148.59
T4
X88.9Y-40.64
X88.9Y-147.32
X223.52Y-40.64
X223.52Y-147.32
M30
