%TF.GenerationSoftware,KiCad,Pcbnew,9.0.8*%
%TF.CreationDate,2026-03-16T22:11:25+01:00*%
%TF.ProjectId,Output,4f757470-7574-42e6-9b69-6361645f7063,1*%
%TF.SameCoordinates,Original*%
%TF.FileFunction,Copper,L3,Inr*%
%TF.FilePolarity,Positive*%
%FSLAX46Y46*%
G04 Gerber Fmt 4.6, Leading zero omitted, Abs format (unit mm)*
G04 Created by KiCad (PCBNEW 9.0.8) date 2026-03-16 22:11:25*
%MOMM*%
%LPD*%
G01*
G04 APERTURE LIST*
G04 Aperture macros list*
%AMRoundRect*
0 Rectangle with rounded corners*
0 $1 Rounding radius*
0 $2 $3 $4 $5 $6 $7 $8 $9 X,Y pos of 4 corners*
0 Add a 4 corners polygon primitive as box body*
4,1,4,$2,$3,$4,$5,$6,$7,$8,$9,$2,$3,0*
0 Add four circle primitives for the rounded corners*
1,1,$1+$1,$2,$3*
1,1,$1+$1,$4,$5*
1,1,$1+$1,$6,$7*
1,1,$1+$1,$8,$9*
0 Add four rect primitives between the rounded corners*
20,1,$1+$1,$2,$3,$4,$5,0*
20,1,$1+$1,$4,$5,$6,$7,0*
20,1,$1+$1,$6,$7,$8,$9,0*
20,1,$1+$1,$8,$9,$2,$3,0*%
G04 Aperture macros list end*
%TA.AperFunction,ComponentPad*%
%ADD10R,2.600000X1.600000*%
%TD*%
%TA.AperFunction,ComponentPad*%
%ADD11O,2.600000X1.600000*%
%TD*%
%TA.AperFunction,ComponentPad*%
%ADD12RoundRect,0.250000X-0.950000X-0.550000X0.950000X-0.550000X0.950000X0.550000X-0.950000X0.550000X0*%
%TD*%
%TA.AperFunction,ComponentPad*%
%ADD13O,2.400000X1.600000*%
%TD*%
%TA.AperFunction,ComponentPad*%
%ADD14R,1.700000X1.700000*%
%TD*%
%TA.AperFunction,ComponentPad*%
%ADD15C,1.700000*%
%TD*%
%TA.AperFunction,ComponentPad*%
%ADD16C,6.400000*%
%TD*%
%TA.AperFunction,ViaPad*%
%ADD17C,0.700000*%
%TD*%
G04 APERTURE END LIST*
D10*
%TO.N,Net-(R64-Pad1)*%
%TO.C,RV12*%
X161290000Y-104140000D03*
D11*
%TO.N,Net-(U14A-+)*%
X161290000Y-101600000D03*
%TO.N,Net-(R55-Pad2)*%
X161290000Y-99060000D03*
%TD*%
D10*
%TO.N,Net-(J6-Pin_1)*%
%TO.C,J6*%
X100330000Y-44450000D03*
D11*
%TO.N,GND_O*%
X100330000Y-41910000D03*
%TD*%
D10*
%TO.N,Net-(SW4-A)*%
%TO.C,RV8*%
X107950000Y-99060000D03*
D11*
%TO.N,Net-(SW4-B)*%
X107950000Y-101600000D03*
X107950000Y-104140000D03*
%TD*%
D10*
%TO.N,Net-(J19-Pin_1)*%
%TO.C,J19*%
X123190000Y-44450000D03*
D11*
%TO.N,GND_O*%
X123190000Y-41910000D03*
%TD*%
D10*
%TO.N,Net-(SW5-A)*%
%TO.C,RV14*%
X107950000Y-114300000D03*
D11*
%TO.N,Net-(SW5-B)*%
X107950000Y-111760000D03*
X107950000Y-109220000D03*
%TD*%
D12*
%TO.N,Net-(U16A--)*%
%TO.C,U16*%
X195580000Y-69850000D03*
D13*
X195580000Y-72390000D03*
%TO.N,Net-(U16A-+)*%
X195580000Y-74930000D03*
%TO.N,+15V_O*%
X195580000Y-77470000D03*
%TO.N,Net-(U16B-+)*%
X195580000Y-80010000D03*
%TO.N,Net-(U16B--)*%
X195580000Y-82550000D03*
X195580000Y-85090000D03*
%TO.N,Net-(U16C--)*%
X203200000Y-85090000D03*
X203200000Y-82550000D03*
%TO.N,Net-(U16C-+)*%
X203200000Y-80010000D03*
%TO.N,-15V_O*%
X203200000Y-77470000D03*
%TO.N,Net-(U16D-+)*%
X203200000Y-74930000D03*
%TO.N,Net-(U16D--)*%
X203200000Y-72390000D03*
X203200000Y-69850000D03*
%TD*%
D12*
%TO.N,Net-(SW1-A)*%
%TO.C,U1*%
X115570000Y-128270000D03*
D13*
%TO.N,Net-(SW1-B)*%
X115570000Y-130810000D03*
%TO.N,Net-(U10A-+)*%
X115570000Y-133350000D03*
%TO.N,+15V_O*%
X115570000Y-135890000D03*
%TO.N,Net-(U10A-+)*%
X115570000Y-138430000D03*
%TO.N,Net-(SW3-B)*%
X115570000Y-140970000D03*
%TO.N,Net-(SW3-A)*%
X115570000Y-143510000D03*
%TO.N,Net-(R27-Pad2)*%
X123190000Y-143510000D03*
%TO.N,Net-(U1C--)*%
X123190000Y-140970000D03*
%TO.N,Net-(U1C-+)*%
X123190000Y-138430000D03*
%TO.N,-15V_O*%
X123190000Y-135890000D03*
%TO.N,Net-(U1D-+)*%
X123190000Y-133350000D03*
%TO.N,Net-(U1D--)*%
X123190000Y-130810000D03*
%TO.N,Net-(R2-Pad2)*%
X123190000Y-128270000D03*
%TD*%
D10*
%TO.N,Net-(U5C-+)*%
%TO.C,RV6*%
X149860000Y-138430000D03*
D11*
X149860000Y-140970000D03*
%TO.N,Net-(R46-Pad2)*%
X149860000Y-143510000D03*
%TO.N,Net-(R47-Pad2)*%
X153670000Y-143510000D03*
%TO.N,Net-(U5C-+)*%
X153670000Y-140970000D03*
D10*
X153670000Y-138430000D03*
%TD*%
D12*
%TO.N,Net-(U12A--)*%
%TO.C,U12*%
X195520000Y-99060000D03*
D13*
X195520000Y-101600000D03*
%TO.N,Net-(U12A-+)*%
X195520000Y-104140000D03*
%TO.N,+15V_O*%
X195520000Y-106680000D03*
%TO.N,Net-(U12B-+)*%
X195520000Y-109220000D03*
%TO.N,Net-(U12B--)*%
X195520000Y-111760000D03*
X195520000Y-114300000D03*
%TO.N,Net-(U12C--)*%
X203140000Y-114300000D03*
X203140000Y-111760000D03*
%TO.N,Net-(U12C-+)*%
X203140000Y-109220000D03*
%TO.N,-15V_O*%
X203140000Y-106680000D03*
%TO.N,Net-(U12D-+)*%
X203140000Y-104140000D03*
%TO.N,Net-(U12D--)*%
X203140000Y-101600000D03*
X203140000Y-99060000D03*
%TD*%
D12*
%TO.N,Net-(SW9-A)*%
%TO.C,U21*%
X138430000Y-69850000D03*
D13*
%TO.N,Net-(SW9-B)*%
X138430000Y-72390000D03*
%TO.N,Net-(U21A-+)*%
X138430000Y-74930000D03*
%TO.N,+15V_O*%
X138430000Y-77470000D03*
%TO.N,Net-(U21B-+)*%
X138430000Y-80010000D03*
%TO.N,Net-(U21B--)*%
X138430000Y-82550000D03*
%TO.N,Net-(R112-Pad1)*%
X138430000Y-85090000D03*
%TO.N,Net-(R118-Pad1)*%
X146050000Y-85090000D03*
%TO.N,Net-(U21C--)*%
X146050000Y-82550000D03*
%TO.N,Net-(U21C-+)*%
X146050000Y-80010000D03*
%TO.N,-15V_O*%
X146050000Y-77470000D03*
%TO.N,Net-(U21D-+)*%
X146050000Y-74930000D03*
%TO.N,Net-(U21D--)*%
X146050000Y-72390000D03*
%TO.N,Net-(R130-Pad1)*%
X146050000Y-69850000D03*
%TD*%
D10*
%TO.N,Net-(SW7-A)*%
%TO.C,RV20*%
X153670000Y-41910000D03*
D11*
%TO.N,Net-(SW7-B)*%
X153670000Y-44450000D03*
X153670000Y-46990000D03*
%TD*%
D10*
%TO.N,Net-(J18-Pin_1)*%
%TO.C,J18*%
X100330000Y-52070000D03*
D11*
%TO.N,GND_O*%
X100330000Y-49530000D03*
%TD*%
D10*
%TO.N,Net-(U14D-+)*%
%TO.C,RV10*%
X176530000Y-104140000D03*
D11*
X176530000Y-101600000D03*
%TO.N,Net-(R73-Pad2)*%
X176530000Y-99060000D03*
%TO.N,Net-(R74-Pad2)*%
X180340000Y-99060000D03*
%TO.N,Net-(U14D-+)*%
X180340000Y-101600000D03*
D10*
X180340000Y-104140000D03*
%TD*%
D12*
%TO.N,Net-(U20A--)*%
%TO.C,U20*%
X165100000Y-41910000D03*
D13*
X165100000Y-44450000D03*
%TO.N,Net-(U20A-+)*%
X165100000Y-46990000D03*
%TO.N,+15V_O*%
X165100000Y-49530000D03*
%TO.N,Net-(U20B-+)*%
X165100000Y-52070000D03*
%TO.N,Net-(U20B--)*%
X165100000Y-54610000D03*
%TO.N,Net-(R156-Pad1)*%
X165100000Y-57150000D03*
%TO.N,Net-(R109-Pad2)*%
X172720000Y-57150000D03*
%TO.N,Net-(U20C--)*%
X172720000Y-54610000D03*
%TO.N,Net-(U20C-+)*%
X172720000Y-52070000D03*
%TO.N,-15V_O*%
X172720000Y-49530000D03*
%TO.N,Net-(U20A-+)*%
X172720000Y-46990000D03*
%TO.N,Net-(U20D--)*%
X172720000Y-44450000D03*
X172720000Y-41910000D03*
%TD*%
D12*
%TO.N,Net-(U5A--)*%
%TO.C,U5*%
X138430000Y-128270000D03*
D13*
X138430000Y-130810000D03*
%TO.N,Net-(U5A-+)*%
X138430000Y-133350000D03*
%TO.N,+15V_O*%
X138430000Y-135890000D03*
%TO.N,Net-(U5B-+)*%
X138430000Y-138430000D03*
%TO.N,Net-(U5B--)*%
X138430000Y-140970000D03*
X138430000Y-143510000D03*
%TO.N,Net-(R31-Pad2)*%
X146050000Y-143510000D03*
%TO.N,Net-(U5C--)*%
X146050000Y-140970000D03*
%TO.N,Net-(U5C-+)*%
X146050000Y-138430000D03*
%TO.N,-15V_O*%
X146050000Y-135890000D03*
%TO.N,Net-(U5D-+)*%
X146050000Y-133350000D03*
%TO.N,Net-(U5D--)*%
X146050000Y-130810000D03*
%TO.N,Net-(R8-Pad2)*%
X146050000Y-128270000D03*
%TD*%
D10*
%TO.N,Net-(U5D-+)*%
%TO.C,RV2*%
X149860000Y-133350000D03*
D11*
X149860000Y-130810000D03*
%TO.N,Net-(R22-Pad2)*%
X149860000Y-128270000D03*
%TO.N,Net-(R23-Pad2)*%
X153670000Y-128270000D03*
%TO.N,Net-(U5D-+)*%
X153670000Y-130810000D03*
D10*
X153670000Y-133350000D03*
%TD*%
%TO.N,Net-(J24-Pin_1)*%
%TO.C,J24*%
X100330000Y-111760000D03*
D11*
%TO.N,Net-(J24-Pin_2)*%
X100330000Y-114300000D03*
%TD*%
D12*
%TO.N,Net-(U13A--)*%
%TO.C,U13*%
X165100000Y-69850000D03*
D13*
X165100000Y-72390000D03*
%TO.N,Net-(U13A-+)*%
X165100000Y-74930000D03*
%TO.N,+15V_O*%
X165100000Y-77470000D03*
%TO.N,Net-(U13B-+)*%
X165100000Y-80010000D03*
%TO.N,Net-(U13B--)*%
X165100000Y-82550000D03*
X165100000Y-85090000D03*
%TO.N,Net-(U13C--)*%
X172720000Y-85090000D03*
X172720000Y-82550000D03*
%TO.N,Net-(U13B-+)*%
X172720000Y-80010000D03*
%TO.N,-15V_O*%
X172720000Y-77470000D03*
%TO.N,Net-(U13A-+)*%
X172720000Y-74930000D03*
%TO.N,Net-(U13D--)*%
X172720000Y-72390000D03*
X172720000Y-69850000D03*
%TD*%
D10*
%TO.N,Net-(J21-Pin_1)*%
%TO.C,J21*%
X115570000Y-44450000D03*
D11*
%TO.N,GND_O*%
X115570000Y-41910000D03*
%TD*%
D10*
%TO.N,Net-(J15-Pin_1)*%
%TO.C,J15*%
X100330000Y-82550000D03*
D11*
%TO.N,Net-(J15-Pin_2)*%
X100330000Y-85090000D03*
%TD*%
D10*
%TO.N,Net-(J25-Pin_1)*%
%TO.C,J25*%
X100330000Y-59690000D03*
D11*
%TO.N,GND_O*%
X100330000Y-57150000D03*
%TD*%
D10*
%TO.N,Net-(J29-Pin_1)*%
%TO.C,J29*%
X100330000Y-72390000D03*
D11*
%TO.N,Net-(J29-Pin_2)*%
X100330000Y-69850000D03*
%TD*%
D14*
%TO.N,9V_GND_O*%
%TO.C,J31*%
X210820000Y-133350000D03*
D15*
X213360000Y-133350000D03*
X210820000Y-135890000D03*
X213360000Y-135890000D03*
%TO.N,+9V_O*%
X210820000Y-138430000D03*
X213360000Y-138430000D03*
%TO.N,-15V_O*%
X210820000Y-140970000D03*
X213360000Y-140970000D03*
%TO.N,GND_O*%
X210820000Y-143510000D03*
X213360000Y-143510000D03*
X210820000Y-146050000D03*
X213360000Y-146050000D03*
%TO.N,+15V_O*%
X210820000Y-148590000D03*
X213360000Y-148590000D03*
%TD*%
D10*
%TO.N,Net-(R91-Pad1)*%
%TO.C,RV16*%
X161290000Y-109220000D03*
D11*
%TO.N,Net-(U14B-+)*%
X161290000Y-111760000D03*
%TO.N,Net-(R84-Pad2)*%
X161290000Y-114300000D03*
%TD*%
D16*
%TO.N,Net-(C4-Pad1)*%
%TO.C,H4*%
X223520000Y-147320000D03*
%TD*%
D10*
%TO.N,Net-(J11-Pin_1)*%
%TO.C,J11*%
X115570000Y-59690000D03*
D11*
%TO.N,GND_O*%
X115570000Y-57150000D03*
%TD*%
D10*
%TO.N,Net-(SW7-A)*%
%TO.C,SW7*%
X149860000Y-41910000D03*
D11*
%TO.N,Net-(SW7-B)*%
X149860000Y-44450000D03*
%TD*%
D12*
%TO.N,Net-(U2A--)*%
%TO.C,U2*%
X165100000Y-128270000D03*
D13*
X165100000Y-130810000D03*
%TO.N,Net-(U2A-+)*%
X165100000Y-133350000D03*
%TO.N,+15V_O*%
X165100000Y-135890000D03*
%TO.N,Net-(U2B-+)*%
X165100000Y-138430000D03*
%TO.N,Net-(U2B--)*%
X165100000Y-140970000D03*
X165100000Y-143510000D03*
%TO.N,Net-(U2C--)*%
X172720000Y-143510000D03*
X172720000Y-140970000D03*
%TO.N,Net-(U2C-+)*%
X172720000Y-138430000D03*
%TO.N,-15V_O*%
X172720000Y-135890000D03*
%TO.N,Net-(U2D-+)*%
X172720000Y-133350000D03*
%TO.N,Net-(U2D--)*%
X172720000Y-130810000D03*
X172720000Y-128270000D03*
%TD*%
D10*
%TO.N,Net-(J1-Pin_1)*%
%TO.C,J1*%
X107950000Y-44450000D03*
D11*
%TO.N,GND_O*%
X107950000Y-41910000D03*
%TD*%
D12*
%TO.N,Net-(SW6-A)*%
%TO.C,U18*%
X115570000Y-69850000D03*
D13*
%TO.N,Net-(SW6-B)*%
X115570000Y-72390000D03*
%TO.N,Net-(U10A-+)*%
X115570000Y-74930000D03*
%TO.N,+15V_O*%
X115570000Y-77470000D03*
%TO.N,Net-(U18B-+)*%
X115570000Y-80010000D03*
%TO.N,Net-(SW8-B)*%
X115570000Y-82550000D03*
%TO.N,Net-(SW8-A)*%
X115570000Y-85090000D03*
%TO.N,Net-(R125-Pad1)*%
X123190000Y-85090000D03*
%TO.N,Net-(U18C--)*%
X123190000Y-82550000D03*
%TO.N,Net-(U18C-+)*%
X123190000Y-80010000D03*
%TO.N,-15V_O*%
X123190000Y-77470000D03*
%TO.N,Net-(U18D-+)*%
X123190000Y-74930000D03*
%TO.N,Net-(U18D--)*%
X123190000Y-72390000D03*
%TO.N,Net-(R108-Pad1)*%
X123190000Y-69850000D03*
%TD*%
D10*
%TO.N,Net-(SW4-A)*%
%TO.C,SW4*%
X111760000Y-99060000D03*
D11*
%TO.N,Net-(SW4-B)*%
X111760000Y-101600000D03*
%TD*%
D12*
%TO.N,Net-(U6A--)*%
%TO.C,U6*%
X195580000Y-128270000D03*
D13*
X195580000Y-130810000D03*
%TO.N,Net-(U6A-+)*%
X195580000Y-133350000D03*
%TO.N,+15V_O*%
X195580000Y-135890000D03*
%TO.N,Net-(U6B-+)*%
X195580000Y-138430000D03*
%TO.N,Net-(U6B--)*%
X195580000Y-140970000D03*
X195580000Y-143510000D03*
%TO.N,Net-(U6C--)*%
X203200000Y-143510000D03*
X203200000Y-140970000D03*
%TO.N,Net-(U6C-+)*%
X203200000Y-138430000D03*
%TO.N,-15V_O*%
X203200000Y-135890000D03*
%TO.N,Net-(U6D-+)*%
X203200000Y-133350000D03*
%TO.N,Net-(U6D--)*%
X203200000Y-130810000D03*
X203200000Y-128270000D03*
%TD*%
D10*
%TO.N,Net-(SW3-A)*%
%TO.C,SW3*%
X111760000Y-143510000D03*
D11*
%TO.N,Net-(SW3-B)*%
X111760000Y-140970000D03*
%TD*%
D10*
%TO.N,Net-(SW1-A)*%
%TO.C,SW1*%
X111760000Y-128270000D03*
D11*
%TO.N,Net-(SW1-B)*%
X111760000Y-130810000D03*
%TD*%
D10*
%TO.N,Net-(R12-Pad1)*%
%TO.C,RV3*%
X134620000Y-133350000D03*
D11*
%TO.N,Net-(U5A-+)*%
X134620000Y-130810000D03*
%TO.N,Net-(R8-Pad2)*%
X134620000Y-128270000D03*
%TD*%
D10*
%TO.N,Net-(J10-Pin_1)*%
%TO.C,J10*%
X107950000Y-59690000D03*
D11*
%TO.N,GND_O*%
X107950000Y-57150000D03*
%TD*%
D10*
%TO.N,Net-(J26-Pin_1)*%
%TO.C,J26*%
X115570000Y-52070000D03*
D11*
%TO.N,GND_O*%
X115570000Y-49530000D03*
%TD*%
D10*
%TO.N,Net-(U14C-+)*%
%TO.C,RV15*%
X176530000Y-109220000D03*
D11*
X176530000Y-111760000D03*
%TO.N,Net-(R99-Pad2)*%
X176530000Y-114300000D03*
%TO.N,Net-(R100-Pad2)*%
X180340000Y-114300000D03*
%TO.N,Net-(U14C-+)*%
X180340000Y-111760000D03*
D10*
X180340000Y-109220000D03*
%TD*%
%TO.N,Net-(J5-Pin_1)*%
%TO.C,J5*%
X100330000Y-140970000D03*
D11*
%TO.N,Net-(J5-Pin_2)*%
X100330000Y-143510000D03*
%TD*%
D10*
%TO.N,Net-(SW9-A)*%
%TO.C,RV21*%
X130810000Y-69850000D03*
D11*
%TO.N,Net-(SW9-B)*%
X130810000Y-72390000D03*
X130810000Y-74930000D03*
%TD*%
D10*
%TO.N,Net-(J13-Pin_1)*%
%TO.C,J13*%
X100330000Y-128270000D03*
D11*
%TO.N,Net-(J13-Pin_2)*%
X100330000Y-130810000D03*
%TD*%
D10*
%TO.N,Net-(R37-Pad1)*%
%TO.C,RV7*%
X134620000Y-138430000D03*
D11*
%TO.N,Net-(U5B-+)*%
X134620000Y-140970000D03*
%TO.N,Net-(R31-Pad2)*%
X134620000Y-143510000D03*
%TD*%
D10*
%TO.N,Net-(J32-Pin_1)*%
%TO.C,J32*%
X123190000Y-59690000D03*
D11*
%TO.N,Net-(J32-Pin_2)*%
X123190000Y-57150000D03*
%TD*%
D10*
%TO.N,Net-(SW9-A)*%
%TO.C,SW9*%
X134620000Y-69850000D03*
D11*
%TO.N,Net-(SW9-B)*%
X134620000Y-72390000D03*
%TD*%
D12*
%TO.N,Net-(U3A--)*%
%TO.C,U3*%
X195580000Y-41910000D03*
D13*
X195580000Y-44450000D03*
%TO.N,Net-(U3A-+)*%
X195580000Y-46990000D03*
%TO.N,+15V_O*%
X195580000Y-49530000D03*
%TO.N,Net-(U3B-+)*%
X195580000Y-52070000D03*
%TO.N,Net-(U3B--)*%
X195580000Y-54610000D03*
X195580000Y-57150000D03*
%TO.N,Net-(U3C--)*%
X203200000Y-57150000D03*
X203200000Y-54610000D03*
%TO.N,Net-(U3B-+)*%
X203200000Y-52070000D03*
%TO.N,-15V_O*%
X203200000Y-49530000D03*
%TO.N,Net-(U3A-+)*%
X203200000Y-46990000D03*
%TO.N,Net-(U3D--)*%
X203200000Y-44450000D03*
X203200000Y-41910000D03*
%TD*%
D10*
%TO.N,Net-(SW1-A)*%
%TO.C,RV1*%
X107950000Y-128270000D03*
D11*
%TO.N,Net-(SW1-B)*%
X107950000Y-130810000D03*
X107950000Y-133350000D03*
%TD*%
D10*
%TO.N,Net-(SW3-A)*%
%TO.C,RV5*%
X107950000Y-143510000D03*
D11*
%TO.N,Net-(SW3-B)*%
X107950000Y-140970000D03*
X107950000Y-138430000D03*
%TD*%
D12*
%TO.N,Net-(R115-Pad1)*%
%TO.C,U22*%
X138430000Y-41910000D03*
D13*
%TO.N,Net-(U22A--)*%
X138430000Y-44450000D03*
%TO.N,Net-(U22A-+)*%
X138430000Y-46990000D03*
%TO.N,+15V_O*%
X138430000Y-49530000D03*
%TO.N,Net-(U22B-+)*%
X138430000Y-52070000D03*
%TO.N,Net-(U22B--)*%
X138430000Y-54610000D03*
%TO.N,Net-(R132-Pad1)*%
X138430000Y-57150000D03*
%TO.N,Net-(SW10-A)*%
X146050000Y-57150000D03*
%TO.N,Net-(SW10-B)*%
X146050000Y-54610000D03*
%TO.N,Net-(U21A-+)*%
X146050000Y-52070000D03*
%TO.N,-15V_O*%
X146050000Y-49530000D03*
%TO.N,Net-(U21A-+)*%
X146050000Y-46990000D03*
%TO.N,Net-(SW7-B)*%
X146050000Y-44450000D03*
%TO.N,Net-(SW7-A)*%
X146050000Y-41910000D03*
%TD*%
D10*
%TO.N,Net-(SW6-A)*%
%TO.C,SW6*%
X107950000Y-69850000D03*
D11*
%TO.N,Net-(SW6-B)*%
X107950000Y-72390000D03*
%TD*%
D10*
%TO.N,Net-(SW10-A)*%
%TO.C,RV22*%
X153670000Y-57150000D03*
D11*
%TO.N,Net-(SW10-B)*%
X153670000Y-54610000D03*
X153670000Y-52070000D03*
%TD*%
D16*
%TO.N,N/C*%
%TO.C,H5*%
X88900000Y-147320000D03*
%TD*%
D10*
%TO.N,Net-(SW5-A)*%
%TO.C,SW5*%
X111760000Y-114300000D03*
D11*
%TO.N,Net-(SW5-B)*%
X111760000Y-111760000D03*
%TD*%
D10*
%TO.N,Net-(SW8-A)*%
%TO.C,SW8*%
X107950000Y-85090000D03*
D11*
%TO.N,Net-(SW8-B)*%
X107950000Y-82550000D03*
%TD*%
D16*
%TO.N,N/C*%
%TO.C,H2*%
X88900000Y-40640000D03*
%TD*%
D10*
%TO.N,Net-(R116-Pad2)*%
%TO.C,RV19*%
X149860000Y-69850000D03*
D11*
X149860000Y-72390000D03*
%TO.N,Net-(R118-Pad1)*%
X149860000Y-74930000D03*
%TO.N,GND_O*%
X153670000Y-74930000D03*
%TO.N,Net-(R117-Pad2)*%
X153670000Y-72390000D03*
D10*
X153670000Y-69850000D03*
%TD*%
D12*
%TO.N,Net-(R63-Pad2)*%
%TO.C,U7*%
X138370000Y-99000000D03*
D13*
%TO.N,Net-(U7A--)*%
X138370000Y-101540000D03*
%TO.N,Net-(U7A-+)*%
X138370000Y-104080000D03*
%TO.N,+15V_O*%
X138370000Y-106620000D03*
%TO.N,Net-(U7B-+)*%
X138370000Y-109160000D03*
%TO.N,Net-(U7B--)*%
X138370000Y-111700000D03*
%TO.N,Net-(R90-Pad2)*%
X138370000Y-114240000D03*
%TO.N,Net-(R154-Pad2)*%
X145990000Y-114240000D03*
%TO.N,Net-(U7C--)*%
X145990000Y-111700000D03*
%TO.N,Net-(U7C-+)*%
X145990000Y-109160000D03*
%TO.N,-15V_O*%
X145990000Y-106620000D03*
%TO.N,Net-(U7D-+)*%
X145990000Y-104080000D03*
%TO.N,Net-(U7D--)*%
X145990000Y-101540000D03*
%TO.N,Net-(R152-Pad2)*%
X145990000Y-99000000D03*
%TD*%
D12*
%TO.N,Net-(U14A--)*%
%TO.C,U14*%
X165100000Y-99060000D03*
D13*
X165100000Y-101600000D03*
%TO.N,Net-(U14A-+)*%
X165100000Y-104140000D03*
%TO.N,+15V_O*%
X165100000Y-106680000D03*
%TO.N,Net-(U14B-+)*%
X165100000Y-109220000D03*
%TO.N,Net-(U14B--)*%
X165100000Y-111760000D03*
X165100000Y-114300000D03*
%TO.N,Net-(R84-Pad2)*%
X172720000Y-114300000D03*
%TO.N,Net-(U14C--)*%
X172720000Y-111760000D03*
%TO.N,Net-(U14C-+)*%
X172720000Y-109220000D03*
%TO.N,-15V_O*%
X172720000Y-106680000D03*
%TO.N,Net-(U14D-+)*%
X172720000Y-104140000D03*
%TO.N,Net-(U14D--)*%
X172720000Y-101600000D03*
%TO.N,Net-(R55-Pad2)*%
X172720000Y-99060000D03*
%TD*%
D12*
%TO.N,Net-(SW4-A)*%
%TO.C,U10*%
X115570000Y-99060000D03*
D13*
%TO.N,Net-(SW4-B)*%
X115570000Y-101600000D03*
%TO.N,Net-(U10A-+)*%
X115570000Y-104140000D03*
%TO.N,+15V_O*%
X115570000Y-106680000D03*
%TO.N,Net-(U10A-+)*%
X115570000Y-109220000D03*
%TO.N,Net-(SW5-B)*%
X115570000Y-111760000D03*
%TO.N,Net-(SW5-A)*%
X115570000Y-114300000D03*
%TO.N,Net-(R79-Pad2)*%
X123190000Y-114300000D03*
%TO.N,Net-(U10C--)*%
X123190000Y-111760000D03*
%TO.N,Net-(U10C-+)*%
X123190000Y-109220000D03*
%TO.N,-15V_O*%
X123190000Y-106680000D03*
%TO.N,Net-(U10D-+)*%
X123190000Y-104140000D03*
%TO.N,Net-(U10D--)*%
X123190000Y-101600000D03*
%TO.N,Net-(R49-Pad2)*%
X123190000Y-99060000D03*
%TD*%
D10*
%TO.N,Net-(SW10-A)*%
%TO.C,SW10*%
X149860000Y-57150000D03*
D11*
%TO.N,Net-(SW10-B)*%
X149860000Y-54610000D03*
%TD*%
D16*
%TO.N,N/C*%
%TO.C,H8*%
X223520000Y-40640000D03*
%TD*%
D17*
%TO.N,GND_O*%
X130810000Y-77470000D03*
X128270000Y-49530000D03*
X186055000Y-101600000D03*
X129540000Y-138430000D03*
X198247000Y-75946000D03*
X198374000Y-112776000D03*
X169850000Y-134290000D03*
X120142000Y-66802000D03*
X141224000Y-71374000D03*
X111125000Y-49530000D03*
X186055000Y-138430000D03*
X200406000Y-48514000D03*
X105156000Y-151638000D03*
X99060000Y-106680000D03*
X215900000Y-49530000D03*
X128000000Y-45466000D03*
X159385000Y-49530000D03*
X171450000Y-120650000D03*
X200330000Y-108255000D03*
X109728000Y-77470000D03*
X152654000Y-151892000D03*
X186055000Y-111760000D03*
X175260000Y-85090000D03*
X186055000Y-99060000D03*
X117475000Y-62230000D03*
X167910000Y-129810000D03*
X159258000Y-135890000D03*
X130810000Y-102870000D03*
X102108000Y-77470000D03*
X150114000Y-121285000D03*
X102108000Y-62230000D03*
X182245000Y-82550000D03*
X198272400Y-84124800D03*
X105156000Y-132080000D03*
X105140000Y-66294000D03*
X182245000Y-77470000D03*
X198374000Y-56134000D03*
X122174000Y-92710000D03*
X126365000Y-120650000D03*
X169926000Y-75946000D03*
X167850000Y-142196000D03*
X169850000Y-139370000D03*
X198292500Y-134320500D03*
X143180000Y-105410000D03*
X130810000Y-80010000D03*
X129540000Y-77470000D03*
X200367500Y-137579500D03*
X189230000Y-135890000D03*
X141202500Y-81534000D03*
X126000000Y-152130000D03*
X153035000Y-106680000D03*
X186055000Y-135890000D03*
X167872500Y-108585000D03*
X124190000Y-50377600D03*
X217170000Y-125730000D03*
X109728000Y-62230000D03*
X200330000Y-105207000D03*
X178435000Y-135890000D03*
X217170000Y-123220000D03*
X200406000Y-129921000D03*
X179705000Y-77470000D03*
X153035000Y-105410000D03*
X126000000Y-95685000D03*
X189230000Y-77470000D03*
X180086000Y-49530000D03*
X177800000Y-92075000D03*
X216535000Y-106680000D03*
X198292500Y-141813500D03*
X167910000Y-71120000D03*
X102235000Y-74930000D03*
X200367500Y-78981700D03*
X207987500Y-138430000D03*
X156845000Y-49530000D03*
X120380000Y-56150000D03*
X178562000Y-52070000D03*
X200406000Y-71374000D03*
X188722000Y-106680000D03*
X110722500Y-103737500D03*
X186055000Y-114300000D03*
X129032000Y-109220000D03*
X103124000Y-134112000D03*
X105140000Y-45450000D03*
X198374000Y-42926000D03*
X105156000Y-86360000D03*
X125095000Y-62230000D03*
X106172000Y-52070000D03*
X216535000Y-89535000D03*
X128037500Y-134500000D03*
X198330000Y-100667000D03*
X110490000Y-120650000D03*
X152400000Y-64770000D03*
X153035000Y-107950000D03*
X152400000Y-82550000D03*
X158517500Y-139975500D03*
X214630000Y-101600000D03*
X128016000Y-55880000D03*
X159385000Y-44450000D03*
X128270000Y-50165000D03*
X141202500Y-137795000D03*
X120396000Y-52832000D03*
X129540000Y-80010000D03*
X216535000Y-109220000D03*
X110722500Y-137795000D03*
X171450000Y-59690000D03*
X120380000Y-45450000D03*
X141224000Y-78486000D03*
%TO.N,Net-(U6D--)*%
X224155000Y-118110000D03*
%TO.N,Net-(R62-Pad1)*%
X121285000Y-121285000D03*
X130810000Y-105410000D03*
X130810000Y-114300000D03*
%TO.N,Net-(U6C--)*%
X224790000Y-130810000D03*
%TO.N,Net-(U12C--)*%
X224155000Y-114300000D03*
%TO.N,Net-(U16D--)*%
X193548000Y-69850000D03*
%TO.N,Net-(U2D--)*%
X183515000Y-121285000D03*
%TO.N,Net-(U13C--)*%
X114935000Y-62230000D03*
%TO.N,Net-(U12D--)*%
X204470000Y-87630000D03*
%TO.N,Net-(U13D--)*%
X121920000Y-62230000D03*
%TO.N,Net-(U2C--)*%
X182880000Y-152400000D03*
%TO.N,Net-(R66-Pad1)*%
X132080000Y-109220000D03*
X132080000Y-99060000D03*
%TO.N,Net-(R111-Pad2)*%
X140165099Y-68791099D03*
X140970000Y-92075000D03*
%TO.N,Net-(U21A-+)*%
X142240000Y-64770000D03*
%TO.N,Net-(U16B--)*%
X202565000Y-87630000D03*
%TO.N,Net-(U3D--)*%
X108585000Y-33655000D03*
%TO.N,Net-(U3C--)*%
X116205000Y-34925000D03*
%TO.N,Net-(U20A-+)*%
X128270000Y-63208000D03*
%TO.N,Net-(Z263-Pad2)*%
X156845000Y-120650000D03*
X158750000Y-113665000D03*
%TO.N,Net-(R117-Pad2)*%
X151765000Y-80010000D03*
%TD*%
%TA.AperFunction,Conductor*%
%TO.N,-15V_O*%
G36*
X214145677Y-35579685D02*
G01*
X214166319Y-35596319D01*
X214593681Y-36023681D01*
X214627166Y-36085004D01*
X214630000Y-36111362D01*
X214630000Y-100631073D01*
X214610315Y-100698112D01*
X214557511Y-100743867D01*
X214530191Y-100752690D01*
X214381925Y-100782182D01*
X214381917Y-100782184D01*
X214227139Y-100846295D01*
X214087837Y-100939373D01*
X213969373Y-101057837D01*
X213876295Y-101197139D01*
X213812184Y-101351917D01*
X213812182Y-101351925D01*
X213779500Y-101516228D01*
X213779500Y-101683771D01*
X213812182Y-101848074D01*
X213812184Y-101848082D01*
X213876295Y-102002860D01*
X213969373Y-102142162D01*
X214087837Y-102260626D01*
X214180494Y-102322537D01*
X214227137Y-102353703D01*
X214381918Y-102417816D01*
X214530194Y-102447309D01*
X214592102Y-102479693D01*
X214626676Y-102540409D01*
X214630000Y-102568926D01*
X214630000Y-127000000D01*
X220428638Y-127000000D01*
X220495677Y-127019685D01*
X220516319Y-127036319D01*
X220943681Y-127463681D01*
X220977166Y-127525004D01*
X220980000Y-127551362D01*
X220980000Y-141688638D01*
X220960315Y-141755677D01*
X220943681Y-141776319D01*
X220516319Y-142203681D01*
X220454996Y-142237166D01*
X220428638Y-142240000D01*
X213841291Y-142240000D01*
X213802972Y-142233931D01*
X213676243Y-142192754D01*
X213565538Y-142175220D01*
X213466287Y-142159500D01*
X213253713Y-142159500D01*
X213154462Y-142175220D01*
X213043756Y-142192754D01*
X212917028Y-142233931D01*
X212878709Y-142240000D01*
X211301291Y-142240000D01*
X211262972Y-142233931D01*
X211136243Y-142192754D01*
X211025538Y-142175220D01*
X210926287Y-142159500D01*
X210713713Y-142159500D01*
X210614462Y-142175220D01*
X210503756Y-142192754D01*
X210377028Y-142233931D01*
X210374697Y-142234300D01*
X210373644Y-142234977D01*
X210338709Y-142240000D01*
X210101362Y-142240000D01*
X210034323Y-142220315D01*
X210013681Y-142203681D01*
X209586319Y-141776319D01*
X209552834Y-141714996D01*
X209550000Y-141688638D01*
X209550000Y-140251362D01*
X209569685Y-140184323D01*
X209586319Y-140163681D01*
X210013681Y-139736319D01*
X210040608Y-139721615D01*
X210066427Y-139705023D01*
X210072627Y-139704131D01*
X210075004Y-139702834D01*
X210101362Y-139700000D01*
X210338709Y-139700000D01*
X210377027Y-139706068D01*
X210503757Y-139747246D01*
X210713713Y-139780500D01*
X210713714Y-139780500D01*
X210926286Y-139780500D01*
X210926287Y-139780500D01*
X211136243Y-139747246D01*
X211262972Y-139706068D01*
X211301291Y-139700000D01*
X212878709Y-139700000D01*
X212917027Y-139706068D01*
X213043757Y-139747246D01*
X213253713Y-139780500D01*
X213253714Y-139780500D01*
X213466286Y-139780500D01*
X213466287Y-139780500D01*
X213676243Y-139747246D01*
X213802972Y-139706068D01*
X213841291Y-139700000D01*
X214630000Y-139700000D01*
X214630000Y-138911289D01*
X214636069Y-138872971D01*
X214649101Y-138832863D01*
X214677246Y-138746243D01*
X214710500Y-138536287D01*
X214710500Y-138323713D01*
X214677246Y-138113757D01*
X214636068Y-137987027D01*
X214630000Y-137948709D01*
X214630000Y-136371289D01*
X214636069Y-136332971D01*
X214649102Y-136292860D01*
X214677246Y-136206243D01*
X214710500Y-135996287D01*
X214710500Y-135783713D01*
X214677246Y-135573757D01*
X214636068Y-135447027D01*
X214630000Y-135408709D01*
X214630000Y-133831289D01*
X214636069Y-133792971D01*
X214677246Y-133666243D01*
X214710500Y-133456287D01*
X214710500Y-133243713D01*
X214677246Y-133033757D01*
X214636068Y-132907027D01*
X214630000Y-132868709D01*
X214630000Y-132080000D01*
X214130000Y-132080000D01*
X213841291Y-132080000D01*
X213802972Y-132073931D01*
X213676243Y-132032754D01*
X213565538Y-132015220D01*
X213466287Y-131999500D01*
X213253713Y-131999500D01*
X213154462Y-132015220D01*
X213043756Y-132032754D01*
X212917028Y-132073931D01*
X212878709Y-132080000D01*
X211985389Y-132080000D01*
X211918350Y-132060315D01*
X211912790Y-132056455D01*
X211912327Y-132056202D01*
X211777482Y-132005908D01*
X211777483Y-132005908D01*
X211717883Y-131999501D01*
X211717881Y-131999500D01*
X211717873Y-131999500D01*
X211717864Y-131999500D01*
X209922129Y-131999500D01*
X209922123Y-131999501D01*
X209862516Y-132005908D01*
X209727672Y-132056202D01*
X209719891Y-132060452D01*
X209719066Y-132058942D01*
X209663457Y-132079684D01*
X209654611Y-132080000D01*
X208915000Y-132080000D01*
X208915000Y-136608638D01*
X208895315Y-136675677D01*
X208878681Y-136696319D01*
X208451319Y-137123681D01*
X208389996Y-137157166D01*
X208363638Y-137160000D01*
X203904675Y-137160000D01*
X203885277Y-137158473D01*
X203868830Y-137155868D01*
X203702352Y-137129500D01*
X202697648Y-137129500D01*
X202531170Y-137155868D01*
X202514723Y-137158473D01*
X202495325Y-137160000D01*
X202481362Y-137160000D01*
X202414323Y-137140315D01*
X202393681Y-137123681D01*
X201966319Y-136696319D01*
X201932834Y-136634996D01*
X201930000Y-136608638D01*
X201930000Y-135171362D01*
X201949685Y-135104323D01*
X201966319Y-135083681D01*
X202393681Y-134656319D01*
X202420608Y-134641615D01*
X202446427Y-134625023D01*
X202452627Y-134624131D01*
X202455004Y-134622834D01*
X202481362Y-134620000D01*
X202495325Y-134620000D01*
X202514722Y-134621526D01*
X202697648Y-134650500D01*
X202697649Y-134650500D01*
X203702351Y-134650500D01*
X203702352Y-134650500D01*
X203885277Y-134621526D01*
X203904675Y-134620000D01*
X205740000Y-134620000D01*
X205740000Y-125730000D01*
X205240000Y-125730000D01*
X178300000Y-125730000D01*
X177800000Y-125730000D01*
X177800000Y-135272244D01*
X177780315Y-135339283D01*
X177777567Y-135343058D01*
X177681295Y-135487139D01*
X177617184Y-135641917D01*
X177617182Y-135641925D01*
X177584500Y-135806228D01*
X177584500Y-135973771D01*
X177617182Y-136138074D01*
X177617184Y-136138082D01*
X177681295Y-136292860D01*
X177777758Y-136437227D01*
X177775846Y-136438504D01*
X177781550Y-136451927D01*
X177794977Y-136472820D01*
X177797303Y-136488999D01*
X177799163Y-136493376D01*
X177800000Y-136507755D01*
X177800000Y-136608638D01*
X177780315Y-136675677D01*
X177763681Y-136696319D01*
X177336319Y-137123681D01*
X177274996Y-137157166D01*
X177248638Y-137160000D01*
X173424675Y-137160000D01*
X173405277Y-137158473D01*
X173388830Y-137155868D01*
X173222352Y-137129500D01*
X172605862Y-137129500D01*
X172538823Y-137109815D01*
X172518181Y-137093181D01*
X172121319Y-136696319D01*
X172087834Y-136634996D01*
X172085000Y-136608638D01*
X172085000Y-135171362D01*
X172104685Y-135104323D01*
X172121319Y-135083681D01*
X172518181Y-134686819D01*
X172579504Y-134653334D01*
X172605862Y-134650500D01*
X173222351Y-134650500D01*
X173222352Y-134650500D01*
X173405277Y-134621526D01*
X173424675Y-134620000D01*
X174498000Y-134620000D01*
X174498000Y-125730000D01*
X173998000Y-125730000D01*
X144645000Y-125730000D01*
X144145000Y-125730000D01*
X144145000Y-134620000D01*
X145345325Y-134620000D01*
X145364722Y-134621526D01*
X145547648Y-134650500D01*
X145547649Y-134650500D01*
X146552351Y-134650500D01*
X146552352Y-134650500D01*
X146735277Y-134621526D01*
X146754675Y-134620000D01*
X146768638Y-134620000D01*
X146835677Y-134639685D01*
X146856319Y-134656319D01*
X147283681Y-135083681D01*
X147317166Y-135145004D01*
X147320000Y-135171362D01*
X147320000Y-136608638D01*
X147300315Y-136675677D01*
X147283681Y-136696319D01*
X146856319Y-137123681D01*
X146829391Y-137138384D01*
X146803573Y-137154977D01*
X146797372Y-137155868D01*
X146794996Y-137157166D01*
X146768638Y-137160000D01*
X146754675Y-137160000D01*
X146735277Y-137158473D01*
X146718830Y-137155868D01*
X146552352Y-137129500D01*
X145547648Y-137129500D01*
X145381170Y-137155868D01*
X145364723Y-137158473D01*
X145345325Y-137160000D01*
X141820256Y-137160000D01*
X141753217Y-137140315D01*
X141749441Y-137137567D01*
X141605360Y-137041295D01*
X141450582Y-136977184D01*
X141450574Y-136977182D01*
X141283503Y-136943949D01*
X141221592Y-136911564D01*
X141220013Y-136910013D01*
X141006319Y-136696319D01*
X140972834Y-136634996D01*
X140970000Y-136608638D01*
X140970000Y-125730000D01*
X140470000Y-125730000D01*
X121658000Y-125730000D01*
X121158000Y-125730000D01*
X121158000Y-134620000D01*
X122485325Y-134620000D01*
X122504722Y-134621526D01*
X122687648Y-134650500D01*
X122687649Y-134650500D01*
X123692351Y-134650500D01*
X123692352Y-134650500D01*
X123875277Y-134621526D01*
X123894675Y-134620000D01*
X123908638Y-134620000D01*
X123975677Y-134639685D01*
X123996319Y-134656319D01*
X124423681Y-135083681D01*
X124457166Y-135145004D01*
X124460000Y-135171362D01*
X124460000Y-136608638D01*
X124440315Y-136675677D01*
X124423681Y-136696319D01*
X123996319Y-137123681D01*
X123969391Y-137138384D01*
X123943573Y-137154977D01*
X123937372Y-137155868D01*
X123934996Y-137157166D01*
X123908638Y-137160000D01*
X123894675Y-137160000D01*
X123875277Y-137158473D01*
X123858830Y-137155868D01*
X123692352Y-137129500D01*
X122687648Y-137129500D01*
X122521170Y-137155868D01*
X122504723Y-137158473D01*
X122485325Y-137160000D01*
X118661362Y-137160000D01*
X118594323Y-137140315D01*
X118573681Y-137123681D01*
X118146319Y-136696319D01*
X118112834Y-136634996D01*
X118110000Y-136608638D01*
X118110000Y-122471362D01*
X118129685Y-122404323D01*
X118146319Y-122383681D01*
X118573681Y-121956319D01*
X118635004Y-121922834D01*
X118661362Y-121920000D01*
X120667244Y-121920000D01*
X120734283Y-121939685D01*
X120738058Y-121942432D01*
X120742837Y-121945625D01*
X120742838Y-121945626D01*
X120882137Y-122038703D01*
X121036918Y-122102816D01*
X121201228Y-122135499D01*
X121201232Y-122135500D01*
X121201233Y-122135500D01*
X121368768Y-122135500D01*
X121368769Y-122135499D01*
X121533082Y-122102816D01*
X121687863Y-122038703D01*
X121827162Y-121945626D01*
X121827161Y-121945626D01*
X121832227Y-121942242D01*
X121833500Y-121944147D01*
X121888413Y-121920832D01*
X121902756Y-121920000D01*
X149496244Y-121920000D01*
X149563283Y-121939685D01*
X149567058Y-121942432D01*
X149571837Y-121945625D01*
X149571838Y-121945626D01*
X149711137Y-122038703D01*
X149865918Y-122102816D01*
X150030228Y-122135499D01*
X150030232Y-122135500D01*
X150030233Y-122135500D01*
X150197768Y-122135500D01*
X150197769Y-122135499D01*
X150362082Y-122102816D01*
X150516863Y-122038703D01*
X150656162Y-121945626D01*
X150656161Y-121945626D01*
X150661227Y-121942242D01*
X150662500Y-121944147D01*
X150717413Y-121920832D01*
X150731756Y-121920000D01*
X182897244Y-121920000D01*
X182964283Y-121939685D01*
X182968058Y-121942432D01*
X182972837Y-121945625D01*
X182972838Y-121945626D01*
X183112137Y-122038703D01*
X183266918Y-122102816D01*
X183431228Y-122135499D01*
X183431232Y-122135500D01*
X183431233Y-122135500D01*
X183598768Y-122135500D01*
X183598769Y-122135499D01*
X183763082Y-122102816D01*
X183917863Y-122038703D01*
X184057162Y-121945626D01*
X184057161Y-121945626D01*
X184062227Y-121942242D01*
X184063500Y-121944147D01*
X184118413Y-121920832D01*
X184132756Y-121920000D01*
X205740000Y-121920000D01*
X205740000Y-107950000D01*
X205240000Y-107950000D01*
X203844675Y-107950000D01*
X203825277Y-107948473D01*
X203808830Y-107945868D01*
X203642352Y-107919500D01*
X202637648Y-107919500D01*
X202597184Y-107925909D01*
X202494465Y-107942178D01*
X202425171Y-107933223D01*
X202387386Y-107907386D01*
X201966319Y-107486319D01*
X201932834Y-107424996D01*
X201930000Y-107398638D01*
X201930000Y-105961362D01*
X201949685Y-105894323D01*
X201966319Y-105873681D01*
X202069956Y-105770044D01*
X202387388Y-105452611D01*
X202448709Y-105419128D01*
X202494461Y-105417821D01*
X202637648Y-105440500D01*
X202637650Y-105440500D01*
X203642351Y-105440500D01*
X203642352Y-105440500D01*
X203825277Y-105411526D01*
X203844675Y-105410000D01*
X205740000Y-105410000D01*
X205740000Y-96520000D01*
X205240000Y-96520000D01*
X170680000Y-96520000D01*
X170180000Y-96520000D01*
X170180000Y-105410000D01*
X172015325Y-105410000D01*
X172034722Y-105411526D01*
X172217648Y-105440500D01*
X172217649Y-105440500D01*
X173222351Y-105440500D01*
X173222352Y-105440500D01*
X173405277Y-105411526D01*
X173424675Y-105410000D01*
X173438638Y-105410000D01*
X173505677Y-105429685D01*
X173526319Y-105446319D01*
X173953681Y-105873681D01*
X173987166Y-105935004D01*
X173990000Y-105961362D01*
X173990000Y-107398638D01*
X173970315Y-107465677D01*
X173953681Y-107486319D01*
X173526319Y-107913681D01*
X173499391Y-107928384D01*
X173473573Y-107944977D01*
X173467372Y-107945868D01*
X173464996Y-107947166D01*
X173438638Y-107950000D01*
X173424675Y-107950000D01*
X173405277Y-107948473D01*
X173388830Y-107945868D01*
X173222352Y-107919500D01*
X172217648Y-107919500D01*
X172051170Y-107945868D01*
X172034723Y-107948473D01*
X172015325Y-107950000D01*
X168490256Y-107950000D01*
X168423217Y-107930315D01*
X168419441Y-107927567D01*
X168275360Y-107831295D01*
X168120582Y-107767184D01*
X168120574Y-107767182D01*
X167953503Y-107733949D01*
X167891592Y-107701564D01*
X167890013Y-107700013D01*
X167676319Y-107486319D01*
X167642834Y-107424996D01*
X167640000Y-107398638D01*
X167640000Y-96520000D01*
X167140000Y-96520000D01*
X152900000Y-96520000D01*
X152400000Y-96520000D01*
X152400000Y-104792244D01*
X152380315Y-104859283D01*
X152377567Y-104863058D01*
X152281295Y-105007139D01*
X152217184Y-105161917D01*
X152217182Y-105161925D01*
X152184500Y-105326228D01*
X152184500Y-105493771D01*
X152217182Y-105658074D01*
X152217184Y-105658082D01*
X152281295Y-105812860D01*
X152377758Y-105957227D01*
X152375846Y-105958504D01*
X152381550Y-105971927D01*
X152394977Y-105992820D01*
X152397303Y-106008999D01*
X152399163Y-106013376D01*
X152400000Y-106027755D01*
X152400000Y-106062244D01*
X152380315Y-106129283D01*
X152377567Y-106133058D01*
X152281295Y-106277139D01*
X152217184Y-106431917D01*
X152217182Y-106431925D01*
X152184500Y-106596228D01*
X152184500Y-106763771D01*
X152217182Y-106928074D01*
X152217184Y-106928082D01*
X152281295Y-107082860D01*
X152377758Y-107227227D01*
X152375846Y-107228504D01*
X152381550Y-107241927D01*
X152394977Y-107262820D01*
X152397303Y-107278999D01*
X152399163Y-107283376D01*
X152400000Y-107297755D01*
X152400000Y-107332244D01*
X152380315Y-107399283D01*
X152377567Y-107403058D01*
X152281297Y-107547136D01*
X152275484Y-107561170D01*
X152248607Y-107601392D01*
X152149987Y-107700013D01*
X151936317Y-107913682D01*
X151874996Y-107947166D01*
X151848638Y-107950000D01*
X146894148Y-107950000D01*
X146855830Y-107943931D01*
X146694536Y-107891523D01*
X146559746Y-107870174D01*
X146492352Y-107859500D01*
X145487648Y-107859500D01*
X145292667Y-107890381D01*
X145223374Y-107881426D01*
X145185589Y-107855589D01*
X144816319Y-107486319D01*
X144782834Y-107424996D01*
X144780000Y-107398638D01*
X144780000Y-105961362D01*
X144799685Y-105894323D01*
X144816319Y-105873681D01*
X145243681Y-105446319D01*
X145305004Y-105412834D01*
X145331362Y-105410000D01*
X148590000Y-105410000D01*
X148590000Y-96520000D01*
X148090000Y-96520000D01*
X130548000Y-96520000D01*
X130048000Y-96520000D01*
X130048000Y-102462501D01*
X130038561Y-102509954D01*
X129992184Y-102621917D01*
X129992182Y-102621925D01*
X129959500Y-102786228D01*
X129959500Y-102953771D01*
X129992182Y-103118074D01*
X129992184Y-103118082D01*
X130038561Y-103230044D01*
X130048000Y-103277497D01*
X130048000Y-105002501D01*
X130038561Y-105049954D01*
X129992184Y-105161917D01*
X129992182Y-105161925D01*
X129959500Y-105326228D01*
X129959500Y-105493771D01*
X129992182Y-105658074D01*
X129992184Y-105658082D01*
X130038561Y-105770044D01*
X130048000Y-105817497D01*
X130048000Y-107398638D01*
X130028315Y-107465677D01*
X130011681Y-107486319D01*
X129584319Y-107913681D01*
X129522996Y-107947166D01*
X129496638Y-107950000D01*
X123894675Y-107950000D01*
X123875277Y-107948473D01*
X123858830Y-107945868D01*
X123692352Y-107919500D01*
X122687648Y-107919500D01*
X122521170Y-107945868D01*
X122504723Y-107948473D01*
X122485325Y-107950000D01*
X122471362Y-107950000D01*
X122404323Y-107930315D01*
X122383681Y-107913681D01*
X121956319Y-107486319D01*
X121922834Y-107424996D01*
X121920000Y-107398638D01*
X121920000Y-105961362D01*
X121939685Y-105894323D01*
X121956319Y-105873681D01*
X122383681Y-105446319D01*
X122410608Y-105431615D01*
X122436427Y-105415023D01*
X122442627Y-105414131D01*
X122445004Y-105412834D01*
X122471362Y-105410000D01*
X122485325Y-105410000D01*
X122504722Y-105411526D01*
X122687648Y-105440500D01*
X122687649Y-105440500D01*
X123692351Y-105440500D01*
X123692352Y-105440500D01*
X123875277Y-105411526D01*
X123894675Y-105410000D01*
X126238000Y-105410000D01*
X126238000Y-96589846D01*
X126257685Y-96522807D01*
X126310489Y-96477052D01*
X126314547Y-96475285D01*
X126402863Y-96438703D01*
X126542162Y-96345626D01*
X126660626Y-96227162D01*
X126753703Y-96087863D01*
X126817816Y-95933082D01*
X126850500Y-95768767D01*
X126850500Y-95601233D01*
X126817816Y-95436918D01*
X126753703Y-95282137D01*
X126722537Y-95235494D01*
X126660626Y-95142837D01*
X126542162Y-95024373D01*
X126402862Y-94931296D01*
X126314546Y-94894714D01*
X126260143Y-94850872D01*
X126238079Y-94784578D01*
X126238000Y-94780153D01*
X126238000Y-93261362D01*
X126257685Y-93194323D01*
X126274319Y-93173681D01*
X126701681Y-92746319D01*
X126763004Y-92712834D01*
X126789362Y-92710000D01*
X140352244Y-92710000D01*
X140419283Y-92729685D01*
X140423058Y-92732432D01*
X140427837Y-92735625D01*
X140427838Y-92735626D01*
X140567137Y-92828703D01*
X140721918Y-92892816D01*
X140886228Y-92925499D01*
X140886232Y-92925500D01*
X140886233Y-92925500D01*
X141053768Y-92925500D01*
X141053769Y-92925499D01*
X141218082Y-92892816D01*
X141372863Y-92828703D01*
X141512162Y-92735626D01*
X141512161Y-92735626D01*
X141517227Y-92732242D01*
X141518500Y-92734147D01*
X141573413Y-92710832D01*
X141587756Y-92710000D01*
X177182244Y-92710000D01*
X177249283Y-92729685D01*
X177253058Y-92732432D01*
X177257837Y-92735625D01*
X177257838Y-92735626D01*
X177397137Y-92828703D01*
X177551918Y-92892816D01*
X177716228Y-92925499D01*
X177716232Y-92925500D01*
X177716233Y-92925500D01*
X177883768Y-92925500D01*
X177883769Y-92925499D01*
X178048082Y-92892816D01*
X178202863Y-92828703D01*
X178342162Y-92735626D01*
X178342161Y-92735626D01*
X178347227Y-92732242D01*
X178348500Y-92734147D01*
X178403413Y-92710832D01*
X178417756Y-92710000D01*
X205740000Y-92710000D01*
X205740000Y-78740000D01*
X205240000Y-78740000D01*
X203904675Y-78740000D01*
X203885277Y-78738473D01*
X203857554Y-78734082D01*
X203702352Y-78709500D01*
X202697648Y-78709500D01*
X202542446Y-78734082D01*
X202514723Y-78738473D01*
X202495325Y-78740000D01*
X202481362Y-78740000D01*
X202414323Y-78720315D01*
X202393681Y-78703681D01*
X201966319Y-78276319D01*
X201932834Y-78214996D01*
X201930000Y-78188638D01*
X201930000Y-76751362D01*
X201949685Y-76684323D01*
X201966319Y-76663681D01*
X202393681Y-76236319D01*
X202420608Y-76221615D01*
X202446427Y-76205023D01*
X202452627Y-76204131D01*
X202455004Y-76202834D01*
X202481362Y-76200000D01*
X202495325Y-76200000D01*
X202514722Y-76201526D01*
X202697648Y-76230500D01*
X202697649Y-76230500D01*
X203702351Y-76230500D01*
X203702352Y-76230500D01*
X203885277Y-76201526D01*
X203904675Y-76200000D01*
X205740000Y-76200000D01*
X205740000Y-68580000D01*
X205240000Y-68580000D01*
X203904675Y-68580000D01*
X203885277Y-68578473D01*
X203845558Y-68572182D01*
X203702352Y-68549500D01*
X202697648Y-68549500D01*
X202554442Y-68572182D01*
X202514723Y-68578473D01*
X202495325Y-68580000D01*
X196763159Y-68580000D01*
X196724156Y-68573706D01*
X196682801Y-68560002D01*
X196682798Y-68560001D01*
X196682797Y-68560001D01*
X196682793Y-68560000D01*
X196682790Y-68560000D01*
X196580010Y-68549500D01*
X194579998Y-68549500D01*
X194579981Y-68549501D01*
X194477203Y-68560000D01*
X194445151Y-68570621D01*
X194435843Y-68573706D01*
X194396840Y-68580000D01*
X179070000Y-68580000D01*
X179070000Y-76852244D01*
X179050315Y-76919283D01*
X179047567Y-76923058D01*
X178951295Y-77067139D01*
X178887184Y-77221917D01*
X178887182Y-77221925D01*
X178854500Y-77386228D01*
X178854500Y-77553771D01*
X178887182Y-77718074D01*
X178887184Y-77718082D01*
X178951295Y-77872860D01*
X179047758Y-78017227D01*
X179045846Y-78018504D01*
X179051550Y-78031927D01*
X179064977Y-78052820D01*
X179067303Y-78068999D01*
X179069163Y-78073376D01*
X179070000Y-78087755D01*
X179070000Y-78188638D01*
X179050315Y-78255677D01*
X179033681Y-78276319D01*
X178606319Y-78703681D01*
X178544996Y-78737166D01*
X178518638Y-78740000D01*
X173424675Y-78740000D01*
X173405277Y-78738473D01*
X173377554Y-78734082D01*
X173222352Y-78709500D01*
X172217648Y-78709500D01*
X172062446Y-78734082D01*
X172034723Y-78738473D01*
X172015325Y-78740000D01*
X172001362Y-78740000D01*
X171934323Y-78720315D01*
X171913681Y-78703681D01*
X171486319Y-78276319D01*
X171452834Y-78214996D01*
X171450000Y-78188638D01*
X171450000Y-76751362D01*
X171469685Y-76684323D01*
X171486319Y-76663681D01*
X171913681Y-76236319D01*
X171940608Y-76221615D01*
X171966427Y-76205023D01*
X171972627Y-76204131D01*
X171975004Y-76202834D01*
X172001362Y-76200000D01*
X172015325Y-76200000D01*
X172034722Y-76201526D01*
X172217648Y-76230500D01*
X172217649Y-76230500D01*
X173222351Y-76230500D01*
X173222352Y-76230500D01*
X173405277Y-76201526D01*
X173424675Y-76200000D01*
X175260000Y-76200000D01*
X175260000Y-68580000D01*
X174760000Y-68580000D01*
X173424675Y-68580000D01*
X173405277Y-68578473D01*
X173365558Y-68572182D01*
X173222352Y-68549500D01*
X172217648Y-68549500D01*
X172074442Y-68572182D01*
X172034723Y-68578473D01*
X172015325Y-68580000D01*
X166283159Y-68580000D01*
X166244156Y-68573706D01*
X166202801Y-68560002D01*
X166202798Y-68560001D01*
X166202797Y-68560001D01*
X166202793Y-68560000D01*
X166202790Y-68560000D01*
X166100010Y-68549500D01*
X164099998Y-68549500D01*
X164099981Y-68549501D01*
X163997203Y-68560000D01*
X163965151Y-68570621D01*
X163955843Y-68573706D01*
X163916840Y-68580000D01*
X160020000Y-68580000D01*
X160020000Y-78188638D01*
X160000315Y-78255677D01*
X159983681Y-78276319D01*
X159556319Y-78703681D01*
X159494996Y-78737166D01*
X159468638Y-78740000D01*
X146754675Y-78740000D01*
X146735277Y-78738473D01*
X146707554Y-78734082D01*
X146552352Y-78709500D01*
X145547648Y-78709500D01*
X145392446Y-78734082D01*
X145364723Y-78738473D01*
X145345325Y-78740000D01*
X145331362Y-78740000D01*
X145264323Y-78720315D01*
X145243681Y-78703681D01*
X144816319Y-78276319D01*
X144782834Y-78214996D01*
X144780000Y-78188638D01*
X144780000Y-76751362D01*
X144799685Y-76684323D01*
X144816319Y-76663681D01*
X145243681Y-76236319D01*
X145270608Y-76221615D01*
X145296427Y-76205023D01*
X145302627Y-76204131D01*
X145305004Y-76202834D01*
X145331362Y-76200000D01*
X145345325Y-76200000D01*
X145364722Y-76201526D01*
X145547648Y-76230500D01*
X145547649Y-76230500D01*
X146552351Y-76230500D01*
X146552352Y-76230500D01*
X146735277Y-76201526D01*
X146754675Y-76200000D01*
X149055325Y-76200000D01*
X149074722Y-76201526D01*
X149257648Y-76230500D01*
X149257649Y-76230500D01*
X150462351Y-76230500D01*
X150462352Y-76230500D01*
X150645277Y-76201526D01*
X150664675Y-76200000D01*
X152865325Y-76200000D01*
X152884722Y-76201526D01*
X153067648Y-76230500D01*
X153067649Y-76230500D01*
X154272351Y-76230500D01*
X154272352Y-76230500D01*
X154455277Y-76201526D01*
X154474675Y-76200000D01*
X156210000Y-76200000D01*
X156210000Y-68580000D01*
X155710000Y-68580000D01*
X155164446Y-68580000D01*
X155121112Y-68572181D01*
X155077491Y-68555911D01*
X155077480Y-68555908D01*
X155017883Y-68549501D01*
X155017881Y-68549500D01*
X155017873Y-68549500D01*
X155017864Y-68549500D01*
X152322129Y-68549500D01*
X152322123Y-68549501D01*
X152262518Y-68555908D01*
X152237164Y-68565365D01*
X152218885Y-68572182D01*
X152175554Y-68580000D01*
X151354446Y-68580000D01*
X151311112Y-68572181D01*
X151267491Y-68555911D01*
X151267480Y-68555908D01*
X151207883Y-68549501D01*
X151207881Y-68549500D01*
X151207873Y-68549500D01*
X151207864Y-68549500D01*
X148512129Y-68549500D01*
X148512123Y-68549501D01*
X148452518Y-68555908D01*
X148427164Y-68565365D01*
X148408885Y-68572182D01*
X148365554Y-68580000D01*
X146754675Y-68580000D01*
X146735277Y-68578473D01*
X146695558Y-68572182D01*
X146552352Y-68549500D01*
X145547648Y-68549500D01*
X145404442Y-68572182D01*
X145364723Y-68578473D01*
X145345325Y-68580000D01*
X141081088Y-68580000D01*
X141014049Y-68560315D01*
X140968294Y-68507511D01*
X140966527Y-68503453D01*
X140918803Y-68388238D01*
X140825725Y-68248936D01*
X140707261Y-68130472D01*
X140567959Y-68037394D01*
X140413181Y-67973283D01*
X140413173Y-67973281D01*
X140248870Y-67940599D01*
X140248866Y-67940599D01*
X140081332Y-67940599D01*
X140081327Y-67940599D01*
X139917024Y-67973281D01*
X139917016Y-67973283D01*
X139762238Y-68037394D01*
X139622936Y-68130472D01*
X139504472Y-68248936D01*
X139411395Y-68388236D01*
X139376304Y-68472954D01*
X139332462Y-68527357D01*
X139266168Y-68549421D01*
X139261743Y-68549500D01*
X137429998Y-68549500D01*
X137429981Y-68549501D01*
X137327203Y-68560000D01*
X137295151Y-68570621D01*
X137285843Y-68573706D01*
X137246840Y-68580000D01*
X136114446Y-68580000D01*
X136071112Y-68572181D01*
X136027491Y-68555911D01*
X136027480Y-68555908D01*
X135967883Y-68549501D01*
X135967881Y-68549500D01*
X135967873Y-68549500D01*
X135967864Y-68549500D01*
X133272129Y-68549500D01*
X133272123Y-68549501D01*
X133212518Y-68555908D01*
X133187164Y-68565365D01*
X133168885Y-68572182D01*
X133125554Y-68580000D01*
X132304446Y-68580000D01*
X132261112Y-68572181D01*
X132217491Y-68555911D01*
X132217480Y-68555908D01*
X132157883Y-68549501D01*
X132157881Y-68549500D01*
X132157873Y-68549500D01*
X132157864Y-68549500D01*
X129462129Y-68549500D01*
X129462123Y-68549501D01*
X129402518Y-68555908D01*
X129377164Y-68565365D01*
X129358885Y-68572182D01*
X129315554Y-68580000D01*
X128270000Y-68580000D01*
X128270000Y-78188638D01*
X128250315Y-78255677D01*
X128233681Y-78276319D01*
X127806319Y-78703681D01*
X127744996Y-78737166D01*
X127718638Y-78740000D01*
X123894675Y-78740000D01*
X123875277Y-78738473D01*
X123847554Y-78734082D01*
X123692352Y-78709500D01*
X122687648Y-78709500D01*
X122532446Y-78734082D01*
X122504723Y-78738473D01*
X122485325Y-78740000D01*
X122471362Y-78740000D01*
X122404323Y-78720315D01*
X122383681Y-78703681D01*
X121956319Y-78276319D01*
X121922834Y-78214996D01*
X121920000Y-78188638D01*
X121920000Y-76751362D01*
X121939685Y-76684323D01*
X121956319Y-76663681D01*
X122383681Y-76236319D01*
X122410608Y-76221615D01*
X122436427Y-76205023D01*
X122442627Y-76204131D01*
X122445004Y-76202834D01*
X122471362Y-76200000D01*
X122485325Y-76200000D01*
X122504722Y-76201526D01*
X122687648Y-76230500D01*
X122687649Y-76230500D01*
X123692351Y-76230500D01*
X123692352Y-76230500D01*
X123875277Y-76201526D01*
X123894675Y-76200000D01*
X125730000Y-76200000D01*
X125730000Y-65956362D01*
X125749685Y-65889323D01*
X125766319Y-65868681D01*
X126193681Y-65441319D01*
X126255004Y-65407834D01*
X126281362Y-65405000D01*
X141622244Y-65405000D01*
X141689283Y-65424685D01*
X141693058Y-65427432D01*
X141697837Y-65430625D01*
X141697838Y-65430626D01*
X141837137Y-65523703D01*
X141991918Y-65587816D01*
X142156228Y-65620499D01*
X142156232Y-65620500D01*
X142156233Y-65620500D01*
X142323768Y-65620500D01*
X142323769Y-65620499D01*
X142488082Y-65587816D01*
X142642863Y-65523703D01*
X142782162Y-65430626D01*
X142782161Y-65430626D01*
X142787227Y-65427242D01*
X142788500Y-65429147D01*
X142843413Y-65405832D01*
X142857756Y-65405000D01*
X151782244Y-65405000D01*
X151849283Y-65424685D01*
X151853058Y-65427432D01*
X151857837Y-65430625D01*
X151857838Y-65430626D01*
X151997137Y-65523703D01*
X152151918Y-65587816D01*
X152316228Y-65620499D01*
X152316232Y-65620500D01*
X152316233Y-65620500D01*
X152483768Y-65620500D01*
X152483769Y-65620499D01*
X152648082Y-65587816D01*
X152802863Y-65523703D01*
X152942162Y-65430626D01*
X152942161Y-65430626D01*
X152947227Y-65427242D01*
X152948500Y-65429147D01*
X153003413Y-65405832D01*
X153017756Y-65405000D01*
X205740000Y-65405000D01*
X205740000Y-50800000D01*
X205240000Y-50800000D01*
X203904675Y-50800000D01*
X203885277Y-50798473D01*
X203868830Y-50795868D01*
X203702352Y-50769500D01*
X202697648Y-50769500D01*
X202531170Y-50795868D01*
X202514723Y-50798473D01*
X202495325Y-50800000D01*
X202481362Y-50800000D01*
X202414323Y-50780315D01*
X202393681Y-50763681D01*
X201966319Y-50336319D01*
X201932834Y-50274996D01*
X201930000Y-50248638D01*
X201930000Y-48811362D01*
X201949685Y-48744323D01*
X201966319Y-48723681D01*
X202393681Y-48296319D01*
X202420608Y-48281615D01*
X202446427Y-48265023D01*
X202452627Y-48264131D01*
X202455004Y-48262834D01*
X202481362Y-48260000D01*
X202495325Y-48260000D01*
X202514722Y-48261526D01*
X202697648Y-48290500D01*
X202697649Y-48290500D01*
X203702351Y-48290500D01*
X203702352Y-48290500D01*
X203885277Y-48261526D01*
X203904675Y-48260000D01*
X205740000Y-48260000D01*
X205740000Y-39370000D01*
X205240000Y-39370000D01*
X179570000Y-39370000D01*
X179070000Y-39370000D01*
X179070000Y-50248638D01*
X179050315Y-50315677D01*
X179033681Y-50336319D01*
X178606319Y-50763681D01*
X178544996Y-50797166D01*
X178518638Y-50800000D01*
X173424675Y-50800000D01*
X173405277Y-50798473D01*
X173388830Y-50795868D01*
X173222352Y-50769500D01*
X172217648Y-50769500D01*
X172051170Y-50795868D01*
X172034723Y-50798473D01*
X172015325Y-50800000D01*
X172001362Y-50800000D01*
X171934323Y-50780315D01*
X171913681Y-50763681D01*
X171486319Y-50336319D01*
X171452834Y-50274996D01*
X171450000Y-50248638D01*
X171450000Y-48811362D01*
X171469685Y-48744323D01*
X171486319Y-48723681D01*
X171913681Y-48296319D01*
X171940608Y-48281615D01*
X171966427Y-48265023D01*
X171972627Y-48264131D01*
X171975004Y-48262834D01*
X172001362Y-48260000D01*
X172015325Y-48260000D01*
X172034722Y-48261526D01*
X172217648Y-48290500D01*
X172217649Y-48290500D01*
X173222351Y-48290500D01*
X173222352Y-48290500D01*
X173405277Y-48261526D01*
X173424675Y-48260000D01*
X175260000Y-48260000D01*
X175260000Y-39370000D01*
X174760000Y-39370000D01*
X144772000Y-39370000D01*
X144272000Y-39370000D01*
X144272000Y-48260000D01*
X145345325Y-48260000D01*
X145364722Y-48261526D01*
X145547648Y-48290500D01*
X145547649Y-48290500D01*
X146552351Y-48290500D01*
X146552352Y-48290500D01*
X146735277Y-48261526D01*
X146754675Y-48260000D01*
X146768638Y-48260000D01*
X146835677Y-48279685D01*
X146856319Y-48296319D01*
X147283681Y-48723681D01*
X147317166Y-48785004D01*
X147320000Y-48811362D01*
X147320000Y-50248638D01*
X147300315Y-50315677D01*
X147283681Y-50336319D01*
X146856319Y-50763681D01*
X146829391Y-50778384D01*
X146803573Y-50794977D01*
X146797372Y-50795868D01*
X146794996Y-50797166D01*
X146768638Y-50800000D01*
X146754675Y-50800000D01*
X146735277Y-50798473D01*
X146718830Y-50795868D01*
X146552352Y-50769500D01*
X145547648Y-50769500D01*
X145381170Y-50795868D01*
X145364723Y-50798473D01*
X145345325Y-50800000D01*
X141521362Y-50800000D01*
X141454323Y-50780315D01*
X141433681Y-50763681D01*
X141006319Y-50336319D01*
X140972834Y-50274996D01*
X140970000Y-50248638D01*
X140970000Y-36111362D01*
X140989685Y-36044323D01*
X141006319Y-36023681D01*
X141433681Y-35596319D01*
X141495004Y-35562834D01*
X141521362Y-35560000D01*
X214078638Y-35560000D01*
X214145677Y-35579685D01*
G37*
%TD.AperFunction*%
%TD*%
%TA.AperFunction,Conductor*%
%TO.N,+15V_O*%
G36*
X115654283Y-35579685D02*
G01*
X115658058Y-35582432D01*
X115662837Y-35585625D01*
X115662838Y-35585626D01*
X115802137Y-35678703D01*
X115956918Y-35742816D01*
X116121228Y-35775499D01*
X116121232Y-35775500D01*
X116121233Y-35775500D01*
X116288768Y-35775500D01*
X116288769Y-35775499D01*
X116453082Y-35742816D01*
X116607863Y-35678703D01*
X116747162Y-35585626D01*
X116747161Y-35585626D01*
X116752227Y-35582242D01*
X116753500Y-35584147D01*
X116808413Y-35560832D01*
X116822756Y-35560000D01*
X135973638Y-35560000D01*
X136040677Y-35579685D01*
X136061319Y-35596319D01*
X136488681Y-36023681D01*
X136522166Y-36085004D01*
X136525000Y-36111362D01*
X136525000Y-48260000D01*
X137725325Y-48260000D01*
X137744722Y-48261526D01*
X137927648Y-48290500D01*
X137927649Y-48290500D01*
X138932351Y-48290500D01*
X138932352Y-48290500D01*
X139115277Y-48261526D01*
X139134675Y-48260000D01*
X139148638Y-48260000D01*
X139215677Y-48279685D01*
X139236319Y-48296319D01*
X139663681Y-48723681D01*
X139697166Y-48785004D01*
X139700000Y-48811362D01*
X139700000Y-50248638D01*
X139680315Y-50315677D01*
X139663681Y-50336319D01*
X139236319Y-50763681D01*
X139209391Y-50778384D01*
X139183573Y-50794977D01*
X139177372Y-50795868D01*
X139174996Y-50797166D01*
X139148638Y-50800000D01*
X139134675Y-50800000D01*
X139115277Y-50798473D01*
X139098830Y-50795868D01*
X138932352Y-50769500D01*
X137927648Y-50769500D01*
X137761170Y-50795868D01*
X137744723Y-50798473D01*
X137725325Y-50800000D01*
X136525000Y-50800000D01*
X136525000Y-59055000D01*
X158885000Y-59055000D01*
X159385000Y-59055000D01*
X159385000Y-50498926D01*
X159404685Y-50431887D01*
X159457489Y-50386132D01*
X159484800Y-50377310D01*
X159633082Y-50347816D01*
X159787863Y-50283703D01*
X159927162Y-50190626D01*
X160045626Y-50072162D01*
X160138703Y-49932863D01*
X160202816Y-49778082D01*
X160235500Y-49613767D01*
X160235500Y-49446233D01*
X160202816Y-49281918D01*
X160138703Y-49127137D01*
X160074320Y-49030781D01*
X160045626Y-48987837D01*
X159927162Y-48869373D01*
X159787860Y-48776295D01*
X159662924Y-48724545D01*
X159608521Y-48680704D01*
X159586456Y-48614410D01*
X159603735Y-48546710D01*
X159622692Y-48522307D01*
X159848681Y-48296319D01*
X159910004Y-48262834D01*
X159936362Y-48260000D01*
X164395325Y-48260000D01*
X164414722Y-48261526D01*
X164597648Y-48290500D01*
X164597649Y-48290500D01*
X165214138Y-48290500D01*
X165281177Y-48310185D01*
X165301819Y-48326819D01*
X165698681Y-48723681D01*
X165732166Y-48785004D01*
X165735000Y-48811362D01*
X165735000Y-50248638D01*
X165715315Y-50315677D01*
X165698681Y-50336319D01*
X165301819Y-50733181D01*
X165240496Y-50766666D01*
X165214138Y-50769500D01*
X164597648Y-50769500D01*
X164431170Y-50795868D01*
X164414723Y-50798473D01*
X164395325Y-50800000D01*
X163195000Y-50800000D01*
X163195000Y-60325000D01*
X170832244Y-60325000D01*
X170899283Y-60344685D01*
X170903058Y-60347432D01*
X170907837Y-60350625D01*
X170907838Y-60350626D01*
X171047137Y-60443703D01*
X171201918Y-60507816D01*
X171353021Y-60537872D01*
X171366228Y-60540499D01*
X171366232Y-60540500D01*
X171366233Y-60540500D01*
X171533768Y-60540500D01*
X171533769Y-60540499D01*
X171698082Y-60507816D01*
X171852863Y-60443703D01*
X171992162Y-60350626D01*
X171992161Y-60350626D01*
X171997227Y-60347242D01*
X171998500Y-60349147D01*
X172053413Y-60325832D01*
X172067756Y-60325000D01*
X189230000Y-60325000D01*
X189230000Y-48811362D01*
X189249685Y-48744323D01*
X189266319Y-48723681D01*
X189693681Y-48296319D01*
X189755004Y-48262834D01*
X189781362Y-48260000D01*
X194875325Y-48260000D01*
X194894722Y-48261526D01*
X195077648Y-48290500D01*
X195077649Y-48290500D01*
X195694138Y-48290500D01*
X195761177Y-48310185D01*
X195781819Y-48326819D01*
X196178681Y-48723681D01*
X196212166Y-48785004D01*
X196215000Y-48811362D01*
X196215000Y-50248638D01*
X196195315Y-50315677D01*
X196178681Y-50336319D01*
X195781819Y-50733181D01*
X195720496Y-50766666D01*
X195694138Y-50769500D01*
X195077648Y-50769500D01*
X194911170Y-50795868D01*
X194894723Y-50798473D01*
X194875325Y-50800000D01*
X193040000Y-50800000D01*
X193040000Y-63583638D01*
X193020315Y-63650677D01*
X193003681Y-63671319D01*
X192576319Y-64098681D01*
X192514996Y-64132166D01*
X192488638Y-64135000D01*
X153017756Y-64135000D01*
X152950717Y-64115315D01*
X152946941Y-64112567D01*
X152802860Y-64016295D01*
X152648082Y-63952184D01*
X152648074Y-63952182D01*
X152483771Y-63919500D01*
X152483767Y-63919500D01*
X152316233Y-63919500D01*
X152316228Y-63919500D01*
X152151925Y-63952182D01*
X152151917Y-63952184D01*
X151997139Y-64016295D01*
X151852773Y-64112758D01*
X151851499Y-64110852D01*
X151796587Y-64134168D01*
X151782244Y-64135000D01*
X142857756Y-64135000D01*
X142790717Y-64115315D01*
X142786941Y-64112567D01*
X142642860Y-64016295D01*
X142488082Y-63952184D01*
X142488074Y-63952182D01*
X142323771Y-63919500D01*
X142323767Y-63919500D01*
X142156233Y-63919500D01*
X142156228Y-63919500D01*
X141991925Y-63952182D01*
X141991917Y-63952184D01*
X141837139Y-64016295D01*
X141692773Y-64112758D01*
X141691499Y-64110852D01*
X141636587Y-64134168D01*
X141622244Y-64135000D01*
X130091362Y-64135000D01*
X130024323Y-64115315D01*
X130003681Y-64098681D01*
X129576319Y-63671319D01*
X129542834Y-63609996D01*
X129540000Y-63583638D01*
X129540000Y-40640000D01*
X129040000Y-40640000D01*
X123994675Y-40640000D01*
X123975277Y-40638473D01*
X123792352Y-40609500D01*
X122587648Y-40609500D01*
X122404723Y-40638473D01*
X122385325Y-40640000D01*
X116374675Y-40640000D01*
X116355277Y-40638473D01*
X116172352Y-40609500D01*
X114967648Y-40609500D01*
X114784723Y-40638473D01*
X114765325Y-40640000D01*
X108754675Y-40640000D01*
X108735277Y-40638473D01*
X108552352Y-40609500D01*
X107347648Y-40609500D01*
X107164723Y-40638473D01*
X107145325Y-40640000D01*
X101134675Y-40640000D01*
X101115277Y-40638473D01*
X100932352Y-40609500D01*
X99727648Y-40609500D01*
X99544723Y-40638473D01*
X99525325Y-40640000D01*
X98425000Y-40640000D01*
X98425000Y-64135000D01*
X98425000Y-87249000D01*
X109990000Y-87249000D01*
X110490000Y-87249000D01*
X110490000Y-77877497D01*
X110499439Y-77830044D01*
X110545816Y-77718082D01*
X110578500Y-77553767D01*
X110578500Y-77386233D01*
X110545816Y-77221918D01*
X110499439Y-77109954D01*
X110490000Y-77062501D01*
X110490000Y-76751362D01*
X110509685Y-76684323D01*
X110526319Y-76663681D01*
X110953681Y-76236319D01*
X111015004Y-76202834D01*
X111041362Y-76200000D01*
X114865325Y-76200000D01*
X114884722Y-76201526D01*
X115067648Y-76230500D01*
X115067649Y-76230500D01*
X115684138Y-76230500D01*
X115751177Y-76250185D01*
X115771819Y-76266819D01*
X116168681Y-76663681D01*
X116202166Y-76725004D01*
X116205000Y-76751362D01*
X116205000Y-78188638D01*
X116185315Y-78255677D01*
X116168681Y-78276319D01*
X115771819Y-78673181D01*
X115710496Y-78706666D01*
X115684138Y-78709500D01*
X115067648Y-78709500D01*
X114912446Y-78734082D01*
X114884723Y-78738473D01*
X114865325Y-78740000D01*
X113665000Y-78740000D01*
X113665000Y-86995000D01*
X130945000Y-86995000D01*
X131445000Y-86995000D01*
X131445000Y-80627755D01*
X131464685Y-80560716D01*
X131467433Y-80556939D01*
X131470622Y-80552165D01*
X131470626Y-80552162D01*
X131563703Y-80412863D01*
X131627816Y-80258082D01*
X131660500Y-80093767D01*
X131660500Y-79926233D01*
X131627816Y-79761918D01*
X131563703Y-79607137D01*
X131470626Y-79467838D01*
X131467242Y-79462773D01*
X131469147Y-79461499D01*
X131445832Y-79406587D01*
X131445000Y-79392244D01*
X131445000Y-78087755D01*
X131464685Y-78020716D01*
X131467433Y-78016939D01*
X131470622Y-78012165D01*
X131470626Y-78012162D01*
X131563703Y-77872863D01*
X131627816Y-77718082D01*
X131660500Y-77553767D01*
X131660500Y-77386233D01*
X131627816Y-77221918D01*
X131563703Y-77067137D01*
X131470626Y-76927838D01*
X131467242Y-76922773D01*
X131469147Y-76921499D01*
X131463440Y-76908056D01*
X131450023Y-76887179D01*
X131447692Y-76870967D01*
X131445832Y-76866587D01*
X131445000Y-76852244D01*
X131445000Y-76751362D01*
X131464685Y-76684323D01*
X131481319Y-76663681D01*
X131908681Y-76236319D01*
X131970004Y-76202834D01*
X131996362Y-76200000D01*
X137725325Y-76200000D01*
X137744722Y-76201526D01*
X137927648Y-76230500D01*
X137927649Y-76230500D01*
X138544138Y-76230500D01*
X138611177Y-76250185D01*
X138631819Y-76266819D01*
X139028681Y-76663681D01*
X139062166Y-76725004D01*
X139065000Y-76751362D01*
X139065000Y-78188638D01*
X139045315Y-78255677D01*
X139028681Y-78276319D01*
X138631819Y-78673181D01*
X138570496Y-78706666D01*
X138544138Y-78709500D01*
X137927648Y-78709500D01*
X137772446Y-78734082D01*
X137744723Y-78738473D01*
X137725325Y-78740000D01*
X135890000Y-78740000D01*
X135890000Y-86995000D01*
X167140000Y-86995000D01*
X167640000Y-86995000D01*
X167640000Y-78740000D01*
X165804675Y-78740000D01*
X165785277Y-78738473D01*
X165757554Y-78734082D01*
X165602352Y-78709500D01*
X164597648Y-78709500D01*
X164442446Y-78734082D01*
X164414723Y-78738473D01*
X164395325Y-78740000D01*
X164381362Y-78740000D01*
X164314323Y-78720315D01*
X164293681Y-78703681D01*
X163866319Y-78276319D01*
X163832834Y-78214996D01*
X163830000Y-78188638D01*
X163830000Y-76751362D01*
X163849685Y-76684323D01*
X163866319Y-76663681D01*
X164293681Y-76236319D01*
X164320608Y-76221615D01*
X164346427Y-76205023D01*
X164352627Y-76204131D01*
X164355004Y-76202834D01*
X164381362Y-76200000D01*
X164395325Y-76200000D01*
X164414722Y-76201526D01*
X164597648Y-76230500D01*
X164597649Y-76230500D01*
X165602351Y-76230500D01*
X165602352Y-76230500D01*
X165785277Y-76201526D01*
X165804675Y-76200000D01*
X169027781Y-76200000D01*
X169094820Y-76219685D01*
X169140575Y-76272489D01*
X169142342Y-76276547D01*
X169172295Y-76348860D01*
X169265373Y-76488162D01*
X169383837Y-76606626D01*
X169452020Y-76652184D01*
X169523137Y-76699703D01*
X169677918Y-76763816D01*
X169801461Y-76788390D01*
X169842228Y-76796499D01*
X169842232Y-76796500D01*
X169842233Y-76796500D01*
X170009768Y-76796500D01*
X170009769Y-76796499D01*
X170174082Y-76763816D01*
X170328863Y-76699703D01*
X170468162Y-76606626D01*
X170507212Y-76567576D01*
X170515158Y-76563236D01*
X170520584Y-76555989D01*
X170545342Y-76546754D01*
X170568535Y-76534090D01*
X170577565Y-76534735D01*
X170586048Y-76531572D01*
X170611869Y-76537189D01*
X170638226Y-76539074D01*
X170647279Y-76544892D01*
X170654321Y-76546424D01*
X170682575Y-76567575D01*
X170778681Y-76663681D01*
X170812166Y-76725004D01*
X170815000Y-76751362D01*
X170815000Y-78740000D01*
X170815000Y-86995000D01*
X189238000Y-86995000D01*
X189738000Y-86995000D01*
X189738000Y-78216151D01*
X189757685Y-78149112D01*
X189774319Y-78128470D01*
X189890623Y-78012165D01*
X189890626Y-78012162D01*
X189983703Y-77872863D01*
X190047816Y-77718082D01*
X190080500Y-77553767D01*
X190080500Y-77386233D01*
X190047816Y-77221918D01*
X189983703Y-77067137D01*
X189919320Y-76970781D01*
X189890626Y-76927837D01*
X189788075Y-76825286D01*
X189754590Y-76763963D01*
X189759574Y-76694271D01*
X189788073Y-76649926D01*
X190201681Y-76236319D01*
X190263004Y-76202834D01*
X190289362Y-76200000D01*
X194875325Y-76200000D01*
X194894722Y-76201526D01*
X195077648Y-76230500D01*
X195077649Y-76230500D01*
X195694138Y-76230500D01*
X195761177Y-76250185D01*
X195781819Y-76266819D01*
X196178681Y-76663681D01*
X196212166Y-76725004D01*
X196215000Y-76751362D01*
X196215000Y-78188638D01*
X196195315Y-78255677D01*
X196178681Y-78276319D01*
X195781819Y-78673181D01*
X195720496Y-78706666D01*
X195694138Y-78709500D01*
X195077648Y-78709500D01*
X194922446Y-78734082D01*
X194894723Y-78738473D01*
X194875325Y-78740000D01*
X193675000Y-78740000D01*
X193675000Y-90888638D01*
X193655315Y-90955677D01*
X193638681Y-90976319D01*
X193211319Y-91403681D01*
X193149996Y-91437166D01*
X193123638Y-91440000D01*
X178417756Y-91440000D01*
X178350717Y-91420315D01*
X178346941Y-91417567D01*
X178202860Y-91321295D01*
X178048082Y-91257184D01*
X178048074Y-91257182D01*
X177883771Y-91224500D01*
X177883767Y-91224500D01*
X177716233Y-91224500D01*
X177716228Y-91224500D01*
X177551925Y-91257182D01*
X177551917Y-91257184D01*
X177397139Y-91321295D01*
X177252773Y-91417758D01*
X177251499Y-91415852D01*
X177196587Y-91439168D01*
X177182244Y-91440000D01*
X141587756Y-91440000D01*
X141520717Y-91420315D01*
X141516941Y-91417567D01*
X141372860Y-91321295D01*
X141218082Y-91257184D01*
X141218074Y-91257182D01*
X141053771Y-91224500D01*
X141053767Y-91224500D01*
X140886233Y-91224500D01*
X140886228Y-91224500D01*
X140721925Y-91257182D01*
X140721917Y-91257184D01*
X140567139Y-91321295D01*
X140422773Y-91417758D01*
X140421499Y-91415852D01*
X140366587Y-91439168D01*
X140352244Y-91440000D01*
X98425000Y-91440000D01*
X98425000Y-106062244D01*
X98405315Y-106129283D01*
X98402567Y-106133058D01*
X98306295Y-106277139D01*
X98242184Y-106431917D01*
X98242182Y-106431925D01*
X98209500Y-106596228D01*
X98209500Y-106763771D01*
X98242182Y-106928074D01*
X98242184Y-106928082D01*
X98306295Y-107082860D01*
X98402758Y-107227227D01*
X98400846Y-107228504D01*
X98424163Y-107283376D01*
X98425000Y-107297755D01*
X98425000Y-116205000D01*
X102370000Y-116205000D01*
X102870000Y-116205000D01*
X102870000Y-105961362D01*
X102889685Y-105894323D01*
X102906319Y-105873681D01*
X103333681Y-105446319D01*
X103395004Y-105412834D01*
X103421362Y-105410000D01*
X107145325Y-105410000D01*
X107164722Y-105411526D01*
X107347648Y-105440500D01*
X107347649Y-105440500D01*
X108552351Y-105440500D01*
X108552352Y-105440500D01*
X108735277Y-105411526D01*
X108754675Y-105410000D01*
X114865325Y-105410000D01*
X114884722Y-105411526D01*
X115067648Y-105440500D01*
X115067649Y-105440500D01*
X115684138Y-105440500D01*
X115751177Y-105460185D01*
X115771819Y-105476819D01*
X116168681Y-105873681D01*
X116202166Y-105935004D01*
X116205000Y-105961362D01*
X116205000Y-107398638D01*
X116185315Y-107465677D01*
X116168681Y-107486319D01*
X115771819Y-107883181D01*
X115710496Y-107916666D01*
X115684138Y-107919500D01*
X115067648Y-107919500D01*
X114884723Y-107948473D01*
X114865325Y-107950000D01*
X108754675Y-107950000D01*
X108735277Y-107948473D01*
X108552352Y-107919500D01*
X107347648Y-107919500D01*
X107164723Y-107948473D01*
X107145325Y-107950000D01*
X106045000Y-107950000D01*
X106045000Y-116205000D01*
X132215000Y-116205000D01*
X132715000Y-116205000D01*
X132715000Y-109837755D01*
X132734685Y-109770716D01*
X132737433Y-109766939D01*
X132740622Y-109762165D01*
X132740626Y-109762162D01*
X132833703Y-109622863D01*
X132897816Y-109468082D01*
X132930500Y-109303767D01*
X132930500Y-109136233D01*
X132897816Y-108971918D01*
X132833703Y-108817137D01*
X132740626Y-108677838D01*
X132737242Y-108672773D01*
X132739147Y-108671499D01*
X132715832Y-108616587D01*
X132715000Y-108602244D01*
X132715000Y-105961362D01*
X132734685Y-105894323D01*
X132751319Y-105873681D01*
X133178681Y-105446319D01*
X133240004Y-105412834D01*
X133266362Y-105410000D01*
X137878638Y-105410000D01*
X137945677Y-105429685D01*
X137966319Y-105446319D01*
X138393681Y-105873681D01*
X138427166Y-105935004D01*
X138430000Y-105961362D01*
X138430000Y-107398638D01*
X138410315Y-107465677D01*
X138393681Y-107486319D01*
X138056819Y-107823181D01*
X137995496Y-107856666D01*
X137969138Y-107859500D01*
X137867648Y-107859500D01*
X137800254Y-107870174D01*
X137665464Y-107891523D01*
X137665461Y-107891523D01*
X137504170Y-107943931D01*
X137465852Y-107950000D01*
X136525000Y-107950000D01*
X136525000Y-116205000D01*
X153805000Y-116205000D01*
X154305000Y-116205000D01*
X154305000Y-105961362D01*
X154324685Y-105894323D01*
X154341319Y-105873681D01*
X154768681Y-105446319D01*
X154830004Y-105412834D01*
X154856362Y-105410000D01*
X159795554Y-105410000D01*
X159838888Y-105417819D01*
X159882508Y-105434088D01*
X159882511Y-105434088D01*
X159882517Y-105434091D01*
X159942127Y-105440500D01*
X162637872Y-105440499D01*
X162697483Y-105434091D01*
X162741114Y-105417817D01*
X162784446Y-105410000D01*
X164395325Y-105410000D01*
X164414722Y-105411526D01*
X164596889Y-105440379D01*
X164660023Y-105470308D01*
X164665171Y-105475171D01*
X165063681Y-105873681D01*
X165097166Y-105935004D01*
X165100000Y-105961362D01*
X165100000Y-107398638D01*
X165080315Y-107465677D01*
X165063681Y-107486319D01*
X164665171Y-107884828D01*
X164646491Y-107895027D01*
X164630607Y-107909194D01*
X164607416Y-107916364D01*
X164603848Y-107918313D01*
X164596888Y-107919620D01*
X164414723Y-107948473D01*
X164395325Y-107950000D01*
X162784446Y-107950000D01*
X162741112Y-107942181D01*
X162697491Y-107925911D01*
X162697480Y-107925908D01*
X162637883Y-107919501D01*
X162637881Y-107919500D01*
X162637873Y-107919500D01*
X162637864Y-107919500D01*
X159942129Y-107919500D01*
X159942123Y-107919501D01*
X159882518Y-107925908D01*
X159857164Y-107935365D01*
X159838885Y-107942182D01*
X159795554Y-107950000D01*
X158115000Y-107950000D01*
X158115000Y-113047244D01*
X158095315Y-113114283D01*
X158092567Y-113118058D01*
X157996295Y-113262139D01*
X157932184Y-113416917D01*
X157932182Y-113416925D01*
X157899500Y-113581228D01*
X157899500Y-113748771D01*
X157932182Y-113913074D01*
X157932184Y-113913082D01*
X157996295Y-114067860D01*
X158092758Y-114212227D01*
X158090846Y-114213504D01*
X158114163Y-114268376D01*
X158115000Y-114282755D01*
X158115000Y-116205000D01*
X189365000Y-116205000D01*
X189865000Y-116205000D01*
X189865000Y-105961362D01*
X189884685Y-105894323D01*
X189901319Y-105873681D01*
X190328681Y-105446319D01*
X190390004Y-105412834D01*
X190416362Y-105410000D01*
X194815325Y-105410000D01*
X194834722Y-105411526D01*
X195017648Y-105440500D01*
X195017649Y-105440500D01*
X195694138Y-105440500D01*
X195761177Y-105460185D01*
X195781819Y-105476819D01*
X196178681Y-105873681D01*
X196212166Y-105935004D01*
X196215000Y-105961362D01*
X196215000Y-107398638D01*
X196195315Y-107465677D01*
X196178681Y-107486319D01*
X195781819Y-107883181D01*
X195720496Y-107916666D01*
X195694138Y-107919500D01*
X195017648Y-107919500D01*
X194834723Y-107948473D01*
X194815325Y-107950000D01*
X193675000Y-107950000D01*
X193675000Y-119463638D01*
X193655315Y-119530677D01*
X193638681Y-119551319D01*
X193211319Y-119978681D01*
X193149996Y-120012166D01*
X193123638Y-120015000D01*
X172067756Y-120015000D01*
X172000717Y-119995315D01*
X171996941Y-119992567D01*
X171852860Y-119896295D01*
X171698082Y-119832184D01*
X171698074Y-119832182D01*
X171533771Y-119799500D01*
X171533767Y-119799500D01*
X171366233Y-119799500D01*
X171366228Y-119799500D01*
X171201925Y-119832182D01*
X171201917Y-119832184D01*
X171047139Y-119896295D01*
X170902773Y-119992758D01*
X170901499Y-119990852D01*
X170846587Y-120014168D01*
X170832244Y-120015000D01*
X157462756Y-120015000D01*
X157395717Y-119995315D01*
X157391941Y-119992567D01*
X157247860Y-119896295D01*
X157093082Y-119832184D01*
X157093074Y-119832182D01*
X156928771Y-119799500D01*
X156928767Y-119799500D01*
X156761233Y-119799500D01*
X156761228Y-119799500D01*
X156596925Y-119832182D01*
X156596917Y-119832184D01*
X156442139Y-119896295D01*
X156297773Y-119992758D01*
X156296499Y-119990852D01*
X156241587Y-120014168D01*
X156227244Y-120015000D01*
X126982756Y-120015000D01*
X126915717Y-119995315D01*
X126911941Y-119992567D01*
X126767860Y-119896295D01*
X126613082Y-119832184D01*
X126613074Y-119832182D01*
X126448771Y-119799500D01*
X126448767Y-119799500D01*
X126281233Y-119799500D01*
X126281228Y-119799500D01*
X126116925Y-119832182D01*
X126116917Y-119832184D01*
X125962139Y-119896295D01*
X125817773Y-119992758D01*
X125816499Y-119990852D01*
X125761587Y-120014168D01*
X125747244Y-120015000D01*
X111107756Y-120015000D01*
X111040717Y-119995315D01*
X111036941Y-119992567D01*
X110892860Y-119896295D01*
X110738082Y-119832184D01*
X110738074Y-119832182D01*
X110573771Y-119799500D01*
X110573767Y-119799500D01*
X110406233Y-119799500D01*
X110406228Y-119799500D01*
X110241925Y-119832182D01*
X110241917Y-119832184D01*
X110087139Y-119896295D01*
X109942773Y-119992758D01*
X109941499Y-119990852D01*
X109886587Y-120014168D01*
X109872244Y-120015000D01*
X98425000Y-120015000D01*
X98425000Y-145415000D01*
X101735000Y-145415000D01*
X102235000Y-145415000D01*
X102235000Y-135171361D01*
X102254685Y-135104322D01*
X102271314Y-135083685D01*
X102510204Y-134844795D01*
X102571523Y-134811313D01*
X102641214Y-134816297D01*
X102666769Y-134829375D01*
X102721137Y-134865703D01*
X102875918Y-134929816D01*
X103040228Y-134962499D01*
X103040232Y-134962500D01*
X103040233Y-134962500D01*
X103207768Y-134962500D01*
X103207769Y-134962499D01*
X103372082Y-134929816D01*
X103526863Y-134865703D01*
X103666162Y-134772626D01*
X103718978Y-134719810D01*
X103782470Y-134656319D01*
X103843793Y-134622834D01*
X103870151Y-134620000D01*
X107145325Y-134620000D01*
X107164722Y-134621526D01*
X107347648Y-134650500D01*
X107347649Y-134650500D01*
X108552351Y-134650500D01*
X108552352Y-134650500D01*
X108735277Y-134621526D01*
X108754675Y-134620000D01*
X114865325Y-134620000D01*
X114884722Y-134621526D01*
X115067648Y-134650500D01*
X115067649Y-134650500D01*
X116072351Y-134650500D01*
X116072352Y-134650500D01*
X116255277Y-134621526D01*
X116274675Y-134620000D01*
X116288638Y-134620000D01*
X116355677Y-134639685D01*
X116376319Y-134656319D01*
X116803681Y-135083681D01*
X116837166Y-135145004D01*
X116840000Y-135171362D01*
X116840000Y-136608638D01*
X116820315Y-136675677D01*
X116803681Y-136696319D01*
X116376319Y-137123681D01*
X116349391Y-137138384D01*
X116323573Y-137154977D01*
X116317372Y-137155868D01*
X116314996Y-137157166D01*
X116288638Y-137160000D01*
X116274675Y-137160000D01*
X116255277Y-137158473D01*
X116238830Y-137155868D01*
X116072352Y-137129500D01*
X115067648Y-137129500D01*
X114901170Y-137155868D01*
X114884723Y-137158473D01*
X114865325Y-137160000D01*
X111340256Y-137160000D01*
X111273217Y-137140315D01*
X111269441Y-137137567D01*
X111125360Y-137041295D01*
X110970582Y-136977184D01*
X110970574Y-136977182D01*
X110806271Y-136944500D01*
X110806267Y-136944500D01*
X110638733Y-136944500D01*
X110638728Y-136944500D01*
X110474425Y-136977182D01*
X110474417Y-136977184D01*
X110319639Y-137041295D01*
X110175273Y-137137758D01*
X110173999Y-137135852D01*
X110119087Y-137159168D01*
X110104744Y-137160000D01*
X108754675Y-137160000D01*
X108735277Y-137158473D01*
X108718830Y-137155868D01*
X108552352Y-137129500D01*
X107347648Y-137129500D01*
X107181170Y-137155868D01*
X107164723Y-137158473D01*
X107145325Y-137160000D01*
X105410000Y-137160000D01*
X105410000Y-145415000D01*
X124595000Y-145415000D01*
X125095000Y-145415000D01*
X125095000Y-135171362D01*
X125114685Y-135104323D01*
X125131319Y-135083681D01*
X125558681Y-134656319D01*
X125620004Y-134622834D01*
X125646362Y-134620000D01*
X127092443Y-134620000D01*
X127159482Y-134639685D01*
X127205237Y-134692489D01*
X127214059Y-134719805D01*
X127217072Y-134734949D01*
X127219684Y-134748082D01*
X127283795Y-134902860D01*
X127376873Y-135042162D01*
X127495337Y-135160626D01*
X127587994Y-135222537D01*
X127634637Y-135253703D01*
X127789418Y-135317816D01*
X127940350Y-135347838D01*
X127953728Y-135350499D01*
X127953732Y-135350500D01*
X127953733Y-135350500D01*
X128121268Y-135350500D01*
X128121269Y-135350499D01*
X128285582Y-135317816D01*
X128440363Y-135253703D01*
X128579662Y-135160626D01*
X128698126Y-135042162D01*
X128791203Y-134902863D01*
X128855316Y-134748082D01*
X128860939Y-134719808D01*
X128893324Y-134657899D01*
X128954039Y-134623324D01*
X128982557Y-134620000D01*
X133125554Y-134620000D01*
X133168888Y-134627819D01*
X133212508Y-134644088D01*
X133212511Y-134644088D01*
X133212517Y-134644091D01*
X133272127Y-134650500D01*
X135967872Y-134650499D01*
X136027483Y-134644091D01*
X136071114Y-134627817D01*
X136114446Y-134620000D01*
X137725325Y-134620000D01*
X137744722Y-134621526D01*
X137927648Y-134650500D01*
X137927649Y-134650500D01*
X138544138Y-134650500D01*
X138611177Y-134670185D01*
X138631819Y-134686819D01*
X139028681Y-135083681D01*
X139062166Y-135145004D01*
X139065000Y-135171362D01*
X139065000Y-136608638D01*
X139045315Y-136675677D01*
X139028681Y-136696319D01*
X138631819Y-137093181D01*
X138570496Y-137126666D01*
X138544138Y-137129500D01*
X137927648Y-137129500D01*
X137761170Y-137155868D01*
X137744723Y-137158473D01*
X137725325Y-137160000D01*
X136114446Y-137160000D01*
X136071112Y-137152181D01*
X136027491Y-137135911D01*
X136027480Y-137135908D01*
X135967883Y-137129501D01*
X135967881Y-137129500D01*
X135967873Y-137129500D01*
X135967864Y-137129500D01*
X133272129Y-137129500D01*
X133272123Y-137129501D01*
X133212518Y-137135908D01*
X133187164Y-137145365D01*
X133168885Y-137152182D01*
X133125554Y-137160000D01*
X130174999Y-137160000D01*
X129780510Y-137554488D01*
X129719187Y-137587973D01*
X129668640Y-137588425D01*
X129623767Y-137579500D01*
X129456233Y-137579500D01*
X129456228Y-137579500D01*
X129291925Y-137612182D01*
X129291917Y-137612184D01*
X129137139Y-137676295D01*
X128997837Y-137769373D01*
X128879373Y-137887837D01*
X128786295Y-138027139D01*
X128722184Y-138181917D01*
X128722182Y-138181925D01*
X128689500Y-138346228D01*
X128689500Y-138513771D01*
X128722182Y-138678074D01*
X128722184Y-138678082D01*
X128786295Y-138832860D01*
X128882758Y-138977227D01*
X128880846Y-138978504D01*
X128904163Y-139033376D01*
X128905000Y-139047755D01*
X128905000Y-145415000D01*
X150495000Y-145415000D01*
X151765000Y-145415000D01*
X159520000Y-145415000D01*
X160020000Y-145415000D01*
X160020000Y-136297497D01*
X160029439Y-136250044D01*
X160075816Y-136138082D01*
X160108500Y-135973767D01*
X160108500Y-135806233D01*
X160075816Y-135641918D01*
X160029439Y-135529954D01*
X160020000Y-135482501D01*
X160020000Y-135171362D01*
X160039685Y-135104323D01*
X160056319Y-135083681D01*
X160483681Y-134656319D01*
X160545004Y-134622834D01*
X160571362Y-134620000D01*
X164395325Y-134620000D01*
X164414722Y-134621526D01*
X164597648Y-134650500D01*
X164597649Y-134650500D01*
X165214138Y-134650500D01*
X165281177Y-134670185D01*
X165301819Y-134686819D01*
X165698681Y-135083681D01*
X165732166Y-135145004D01*
X165735000Y-135171362D01*
X165735000Y-136608638D01*
X165715315Y-136675677D01*
X165698681Y-136696319D01*
X165301819Y-137093181D01*
X165240496Y-137126666D01*
X165214138Y-137129500D01*
X164597648Y-137129500D01*
X164431170Y-137155868D01*
X164414723Y-137158473D01*
X164395325Y-137160000D01*
X163195000Y-137160000D01*
X163195000Y-145415000D01*
X189365000Y-145415000D01*
X189865000Y-145415000D01*
X189865000Y-136507755D01*
X189884685Y-136440716D01*
X189887433Y-136436939D01*
X189890622Y-136432165D01*
X189890626Y-136432162D01*
X189983703Y-136292863D01*
X190047816Y-136138082D01*
X190080500Y-135973767D01*
X190080500Y-135806233D01*
X190047816Y-135641918D01*
X189983703Y-135487137D01*
X189919320Y-135390781D01*
X189887242Y-135342773D01*
X189889147Y-135341499D01*
X189883440Y-135328056D01*
X189870023Y-135307179D01*
X189867692Y-135290967D01*
X189865832Y-135286587D01*
X189865000Y-135272244D01*
X189865000Y-135171362D01*
X189884685Y-135104323D01*
X189884686Y-135104322D01*
X189901319Y-135083681D01*
X190328681Y-134656319D01*
X190390004Y-134622834D01*
X190416362Y-134620000D01*
X194875325Y-134620000D01*
X194894722Y-134621526D01*
X195077648Y-134650500D01*
X195077649Y-134650500D01*
X195694138Y-134650500D01*
X195761177Y-134670185D01*
X195781819Y-134686819D01*
X196178681Y-135083681D01*
X196212166Y-135145004D01*
X196215000Y-135171362D01*
X196215000Y-136608638D01*
X196195315Y-136675677D01*
X196178681Y-136696319D01*
X195781819Y-137093181D01*
X195720496Y-137126666D01*
X195694138Y-137129500D01*
X195077648Y-137129500D01*
X194911170Y-137155868D01*
X194894723Y-137158473D01*
X194875325Y-137160000D01*
X193675000Y-137160000D01*
X193675000Y-147320000D01*
X210338709Y-147320000D01*
X210377027Y-147326068D01*
X210503757Y-147367246D01*
X210713713Y-147400500D01*
X210713714Y-147400500D01*
X210926286Y-147400500D01*
X210926287Y-147400500D01*
X211136243Y-147367246D01*
X211262972Y-147326068D01*
X211301291Y-147320000D01*
X212878709Y-147320000D01*
X212917027Y-147326068D01*
X213043757Y-147367246D01*
X213253713Y-147400500D01*
X213253714Y-147400500D01*
X213466286Y-147400500D01*
X213466287Y-147400500D01*
X213676243Y-147367246D01*
X213802972Y-147326068D01*
X213805302Y-147325699D01*
X213806356Y-147325023D01*
X213841291Y-147320000D01*
X214078638Y-147320000D01*
X214145677Y-147339685D01*
X214166319Y-147356319D01*
X214593681Y-147783681D01*
X214627166Y-147845004D01*
X214630000Y-147871362D01*
X214630000Y-150578638D01*
X214610315Y-150645677D01*
X214593681Y-150666319D01*
X214166319Y-151093681D01*
X214104996Y-151127166D01*
X214078638Y-151130000D01*
X209550000Y-151130000D01*
X208280000Y-151130000D01*
X153061497Y-151130000D01*
X153014045Y-151120561D01*
X152902082Y-151074184D01*
X152902074Y-151074182D01*
X152737771Y-151041500D01*
X152737767Y-151041500D01*
X152570233Y-151041500D01*
X152570228Y-151041500D01*
X152405925Y-151074182D01*
X152405917Y-151074184D01*
X152353641Y-151095838D01*
X152293954Y-151120561D01*
X152246503Y-151130000D01*
X105902151Y-151130000D01*
X105835112Y-151110315D01*
X105814470Y-151093681D01*
X105698162Y-150977373D01*
X105558860Y-150884295D01*
X105404082Y-150820184D01*
X105404074Y-150820182D01*
X105239771Y-150787500D01*
X105239767Y-150787500D01*
X105072233Y-150787500D01*
X105072228Y-150787500D01*
X104907925Y-150820182D01*
X104907917Y-150820184D01*
X104753139Y-150884295D01*
X104613837Y-150977373D01*
X104613834Y-150977376D01*
X104497530Y-151093681D01*
X104436207Y-151127166D01*
X104409849Y-151130000D01*
X94531362Y-151130000D01*
X94464323Y-151110315D01*
X94443681Y-151093681D01*
X94016319Y-150666319D01*
X93982834Y-150604996D01*
X93980000Y-150578638D01*
X93980000Y-144145000D01*
X91440000Y-141605000D01*
X90940000Y-141605000D01*
X88816362Y-141605000D01*
X88749323Y-141585315D01*
X88728681Y-141568681D01*
X88301319Y-141141319D01*
X88267834Y-141079996D01*
X88265000Y-141053638D01*
X88265000Y-46906362D01*
X88284685Y-46839323D01*
X88301319Y-46818681D01*
X88728681Y-46391319D01*
X88790004Y-46357834D01*
X88816362Y-46355000D01*
X91440000Y-46355000D01*
X93980000Y-43815000D01*
X93980000Y-36111362D01*
X93999685Y-36044323D01*
X94016319Y-36023681D01*
X94443681Y-35596319D01*
X94505004Y-35562834D01*
X94531362Y-35560000D01*
X115587244Y-35560000D01*
X115654283Y-35579685D01*
G37*
%TD.AperFunction*%
%TD*%
M02*
