%TF.GenerationSoftware,KiCad,Pcbnew,9.0.8*%
%TF.CreationDate,2026-03-16T22:11:25+01:00*%
%TF.ProjectId,Output,4f757470-7574-42e6-9b69-6361645f7063,1*%
%TF.SameCoordinates,Original*%
%TF.FileFunction,Copper,L2,Inr*%
%TF.FilePolarity,Positive*%
%FSLAX46Y46*%
G04 Gerber Fmt 4.6, Leading zero omitted, Abs format (unit mm)*
G04 Created by KiCad (PCBNEW 9.0.8) date 2026-03-16 22:11:25*
%MOMM*%
%LPD*%
G01*
G04 APERTURE LIST*
G04 Aperture macros list*
%AMRoundRect*
0 Rectangle with rounded corners*
0 $1 Rounding radius*
0 $2 $3 $4 $5 $6 $7 $8 $9 X,Y pos of 4 corners*
0 Add a 4 corners polygon primitive as box body*
4,1,4,$2,$3,$4,$5,$6,$7,$8,$9,$2,$3,0*
0 Add four circle primitives for the rounded corners*
1,1,$1+$1,$2,$3*
1,1,$1+$1,$4,$5*
1,1,$1+$1,$6,$7*
1,1,$1+$1,$8,$9*
0 Add four rect primitives between the rounded corners*
20,1,$1+$1,$2,$3,$4,$5,0*
20,1,$1+$1,$4,$5,$6,$7,0*
20,1,$1+$1,$6,$7,$8,$9,0*
20,1,$1+$1,$8,$9,$2,$3,0*%
G04 Aperture macros list end*
%TA.AperFunction,ComponentPad*%
%ADD10R,2.600000X1.600000*%
%TD*%
%TA.AperFunction,ComponentPad*%
%ADD11O,2.600000X1.600000*%
%TD*%
%TA.AperFunction,ComponentPad*%
%ADD12RoundRect,0.250000X-0.950000X-0.550000X0.950000X-0.550000X0.950000X0.550000X-0.950000X0.550000X0*%
%TD*%
%TA.AperFunction,ComponentPad*%
%ADD13O,2.400000X1.600000*%
%TD*%
%TA.AperFunction,ComponentPad*%
%ADD14R,1.700000X1.700000*%
%TD*%
%TA.AperFunction,ComponentPad*%
%ADD15C,1.700000*%
%TD*%
%TA.AperFunction,ComponentPad*%
%ADD16C,6.400000*%
%TD*%
%TA.AperFunction,ViaPad*%
%ADD17C,0.700000*%
%TD*%
%TA.AperFunction,Conductor*%
%ADD18C,0.600000*%
%TD*%
G04 APERTURE END LIST*
D10*
%TO.N,Net-(R64-Pad1)*%
%TO.C,RV12*%
X161290000Y-104140000D03*
D11*
%TO.N,Net-(U14A-+)*%
X161290000Y-101600000D03*
%TO.N,Net-(R55-Pad2)*%
X161290000Y-99060000D03*
%TD*%
D10*
%TO.N,Net-(J6-Pin_1)*%
%TO.C,J6*%
X100330000Y-44450000D03*
D11*
%TO.N,GND_O*%
X100330000Y-41910000D03*
%TD*%
D10*
%TO.N,Net-(SW4-A)*%
%TO.C,RV8*%
X107950000Y-99060000D03*
D11*
%TO.N,Net-(SW4-B)*%
X107950000Y-101600000D03*
X107950000Y-104140000D03*
%TD*%
D10*
%TO.N,Net-(J19-Pin_1)*%
%TO.C,J19*%
X123190000Y-44450000D03*
D11*
%TO.N,GND_O*%
X123190000Y-41910000D03*
%TD*%
D10*
%TO.N,Net-(SW5-A)*%
%TO.C,RV14*%
X107950000Y-114300000D03*
D11*
%TO.N,Net-(SW5-B)*%
X107950000Y-111760000D03*
X107950000Y-109220000D03*
%TD*%
D12*
%TO.N,Net-(U16A--)*%
%TO.C,U16*%
X195580000Y-69850000D03*
D13*
X195580000Y-72390000D03*
%TO.N,Net-(U16A-+)*%
X195580000Y-74930000D03*
%TO.N,+15V_O*%
X195580000Y-77470000D03*
%TO.N,Net-(U16B-+)*%
X195580000Y-80010000D03*
%TO.N,Net-(U16B--)*%
X195580000Y-82550000D03*
X195580000Y-85090000D03*
%TO.N,Net-(U16C--)*%
X203200000Y-85090000D03*
X203200000Y-82550000D03*
%TO.N,Net-(U16C-+)*%
X203200000Y-80010000D03*
%TO.N,-15V_O*%
X203200000Y-77470000D03*
%TO.N,Net-(U16D-+)*%
X203200000Y-74930000D03*
%TO.N,Net-(U16D--)*%
X203200000Y-72390000D03*
X203200000Y-69850000D03*
%TD*%
D12*
%TO.N,Net-(SW1-A)*%
%TO.C,U1*%
X115570000Y-128270000D03*
D13*
%TO.N,Net-(SW1-B)*%
X115570000Y-130810000D03*
%TO.N,Net-(U10A-+)*%
X115570000Y-133350000D03*
%TO.N,+15V_O*%
X115570000Y-135890000D03*
%TO.N,Net-(U10A-+)*%
X115570000Y-138430000D03*
%TO.N,Net-(SW3-B)*%
X115570000Y-140970000D03*
%TO.N,Net-(SW3-A)*%
X115570000Y-143510000D03*
%TO.N,Net-(R27-Pad2)*%
X123190000Y-143510000D03*
%TO.N,Net-(U1C--)*%
X123190000Y-140970000D03*
%TO.N,Net-(U1C-+)*%
X123190000Y-138430000D03*
%TO.N,-15V_O*%
X123190000Y-135890000D03*
%TO.N,Net-(U1D-+)*%
X123190000Y-133350000D03*
%TO.N,Net-(U1D--)*%
X123190000Y-130810000D03*
%TO.N,Net-(R2-Pad2)*%
X123190000Y-128270000D03*
%TD*%
D10*
%TO.N,Net-(U5C-+)*%
%TO.C,RV6*%
X149860000Y-138430000D03*
D11*
X149860000Y-140970000D03*
%TO.N,Net-(R46-Pad2)*%
X149860000Y-143510000D03*
%TO.N,Net-(R47-Pad2)*%
X153670000Y-143510000D03*
%TO.N,Net-(U5C-+)*%
X153670000Y-140970000D03*
D10*
X153670000Y-138430000D03*
%TD*%
D12*
%TO.N,Net-(U12A--)*%
%TO.C,U12*%
X195520000Y-99060000D03*
D13*
X195520000Y-101600000D03*
%TO.N,Net-(U12A-+)*%
X195520000Y-104140000D03*
%TO.N,+15V_O*%
X195520000Y-106680000D03*
%TO.N,Net-(U12B-+)*%
X195520000Y-109220000D03*
%TO.N,Net-(U12B--)*%
X195520000Y-111760000D03*
X195520000Y-114300000D03*
%TO.N,Net-(U12C--)*%
X203140000Y-114300000D03*
X203140000Y-111760000D03*
%TO.N,Net-(U12C-+)*%
X203140000Y-109220000D03*
%TO.N,-15V_O*%
X203140000Y-106680000D03*
%TO.N,Net-(U12D-+)*%
X203140000Y-104140000D03*
%TO.N,Net-(U12D--)*%
X203140000Y-101600000D03*
X203140000Y-99060000D03*
%TD*%
D12*
%TO.N,Net-(SW9-A)*%
%TO.C,U21*%
X138430000Y-69850000D03*
D13*
%TO.N,Net-(SW9-B)*%
X138430000Y-72390000D03*
%TO.N,Net-(U21A-+)*%
X138430000Y-74930000D03*
%TO.N,+15V_O*%
X138430000Y-77470000D03*
%TO.N,Net-(U21B-+)*%
X138430000Y-80010000D03*
%TO.N,Net-(U21B--)*%
X138430000Y-82550000D03*
%TO.N,Net-(R112-Pad1)*%
X138430000Y-85090000D03*
%TO.N,Net-(R118-Pad1)*%
X146050000Y-85090000D03*
%TO.N,Net-(U21C--)*%
X146050000Y-82550000D03*
%TO.N,Net-(U21C-+)*%
X146050000Y-80010000D03*
%TO.N,-15V_O*%
X146050000Y-77470000D03*
%TO.N,Net-(U21D-+)*%
X146050000Y-74930000D03*
%TO.N,Net-(U21D--)*%
X146050000Y-72390000D03*
%TO.N,Net-(R130-Pad1)*%
X146050000Y-69850000D03*
%TD*%
D10*
%TO.N,Net-(SW7-A)*%
%TO.C,RV20*%
X153670000Y-41910000D03*
D11*
%TO.N,Net-(SW7-B)*%
X153670000Y-44450000D03*
X153670000Y-46990000D03*
%TD*%
D10*
%TO.N,Net-(J18-Pin_1)*%
%TO.C,J18*%
X100330000Y-52070000D03*
D11*
%TO.N,GND_O*%
X100330000Y-49530000D03*
%TD*%
D10*
%TO.N,Net-(U14D-+)*%
%TO.C,RV10*%
X176530000Y-104140000D03*
D11*
X176530000Y-101600000D03*
%TO.N,Net-(R73-Pad2)*%
X176530000Y-99060000D03*
%TO.N,Net-(R74-Pad2)*%
X180340000Y-99060000D03*
%TO.N,Net-(U14D-+)*%
X180340000Y-101600000D03*
D10*
X180340000Y-104140000D03*
%TD*%
D12*
%TO.N,Net-(U20A--)*%
%TO.C,U20*%
X165100000Y-41910000D03*
D13*
X165100000Y-44450000D03*
%TO.N,Net-(U20A-+)*%
X165100000Y-46990000D03*
%TO.N,+15V_O*%
X165100000Y-49530000D03*
%TO.N,Net-(U20B-+)*%
X165100000Y-52070000D03*
%TO.N,Net-(U20B--)*%
X165100000Y-54610000D03*
%TO.N,Net-(R156-Pad1)*%
X165100000Y-57150000D03*
%TO.N,Net-(R109-Pad2)*%
X172720000Y-57150000D03*
%TO.N,Net-(U20C--)*%
X172720000Y-54610000D03*
%TO.N,Net-(U20C-+)*%
X172720000Y-52070000D03*
%TO.N,-15V_O*%
X172720000Y-49530000D03*
%TO.N,Net-(U20A-+)*%
X172720000Y-46990000D03*
%TO.N,Net-(U20D--)*%
X172720000Y-44450000D03*
X172720000Y-41910000D03*
%TD*%
D12*
%TO.N,Net-(U5A--)*%
%TO.C,U5*%
X138430000Y-128270000D03*
D13*
X138430000Y-130810000D03*
%TO.N,Net-(U5A-+)*%
X138430000Y-133350000D03*
%TO.N,+15V_O*%
X138430000Y-135890000D03*
%TO.N,Net-(U5B-+)*%
X138430000Y-138430000D03*
%TO.N,Net-(U5B--)*%
X138430000Y-140970000D03*
X138430000Y-143510000D03*
%TO.N,Net-(R31-Pad2)*%
X146050000Y-143510000D03*
%TO.N,Net-(U5C--)*%
X146050000Y-140970000D03*
%TO.N,Net-(U5C-+)*%
X146050000Y-138430000D03*
%TO.N,-15V_O*%
X146050000Y-135890000D03*
%TO.N,Net-(U5D-+)*%
X146050000Y-133350000D03*
%TO.N,Net-(U5D--)*%
X146050000Y-130810000D03*
%TO.N,Net-(R8-Pad2)*%
X146050000Y-128270000D03*
%TD*%
D10*
%TO.N,Net-(U5D-+)*%
%TO.C,RV2*%
X149860000Y-133350000D03*
D11*
X149860000Y-130810000D03*
%TO.N,Net-(R22-Pad2)*%
X149860000Y-128270000D03*
%TO.N,Net-(R23-Pad2)*%
X153670000Y-128270000D03*
%TO.N,Net-(U5D-+)*%
X153670000Y-130810000D03*
D10*
X153670000Y-133350000D03*
%TD*%
%TO.N,Net-(J24-Pin_1)*%
%TO.C,J24*%
X100330000Y-111760000D03*
D11*
%TO.N,Net-(J24-Pin_2)*%
X100330000Y-114300000D03*
%TD*%
D12*
%TO.N,Net-(U13A--)*%
%TO.C,U13*%
X165100000Y-69850000D03*
D13*
X165100000Y-72390000D03*
%TO.N,Net-(U13A-+)*%
X165100000Y-74930000D03*
%TO.N,+15V_O*%
X165100000Y-77470000D03*
%TO.N,Net-(U13B-+)*%
X165100000Y-80010000D03*
%TO.N,Net-(U13B--)*%
X165100000Y-82550000D03*
X165100000Y-85090000D03*
%TO.N,Net-(U13C--)*%
X172720000Y-85090000D03*
X172720000Y-82550000D03*
%TO.N,Net-(U13B-+)*%
X172720000Y-80010000D03*
%TO.N,-15V_O*%
X172720000Y-77470000D03*
%TO.N,Net-(U13A-+)*%
X172720000Y-74930000D03*
%TO.N,Net-(U13D--)*%
X172720000Y-72390000D03*
X172720000Y-69850000D03*
%TD*%
D10*
%TO.N,Net-(J21-Pin_1)*%
%TO.C,J21*%
X115570000Y-44450000D03*
D11*
%TO.N,GND_O*%
X115570000Y-41910000D03*
%TD*%
D10*
%TO.N,Net-(J15-Pin_1)*%
%TO.C,J15*%
X100330000Y-82550000D03*
D11*
%TO.N,Net-(J15-Pin_2)*%
X100330000Y-85090000D03*
%TD*%
D10*
%TO.N,Net-(J25-Pin_1)*%
%TO.C,J25*%
X100330000Y-59690000D03*
D11*
%TO.N,GND_O*%
X100330000Y-57150000D03*
%TD*%
D10*
%TO.N,Net-(J29-Pin_1)*%
%TO.C,J29*%
X100330000Y-72390000D03*
D11*
%TO.N,Net-(J29-Pin_2)*%
X100330000Y-69850000D03*
%TD*%
D14*
%TO.N,9V_GND_O*%
%TO.C,J31*%
X210820000Y-133350000D03*
D15*
X213360000Y-133350000D03*
X210820000Y-135890000D03*
X213360000Y-135890000D03*
%TO.N,+9V_O*%
X210820000Y-138430000D03*
X213360000Y-138430000D03*
%TO.N,-15V_O*%
X210820000Y-140970000D03*
X213360000Y-140970000D03*
%TO.N,GND_O*%
X210820000Y-143510000D03*
X213360000Y-143510000D03*
X210820000Y-146050000D03*
X213360000Y-146050000D03*
%TO.N,+15V_O*%
X210820000Y-148590000D03*
X213360000Y-148590000D03*
%TD*%
D10*
%TO.N,Net-(R91-Pad1)*%
%TO.C,RV16*%
X161290000Y-109220000D03*
D11*
%TO.N,Net-(U14B-+)*%
X161290000Y-111760000D03*
%TO.N,Net-(R84-Pad2)*%
X161290000Y-114300000D03*
%TD*%
D16*
%TO.N,Net-(C4-Pad1)*%
%TO.C,H4*%
X223520000Y-147320000D03*
%TD*%
D10*
%TO.N,Net-(J11-Pin_1)*%
%TO.C,J11*%
X115570000Y-59690000D03*
D11*
%TO.N,GND_O*%
X115570000Y-57150000D03*
%TD*%
D10*
%TO.N,Net-(SW7-A)*%
%TO.C,SW7*%
X149860000Y-41910000D03*
D11*
%TO.N,Net-(SW7-B)*%
X149860000Y-44450000D03*
%TD*%
D12*
%TO.N,Net-(U2A--)*%
%TO.C,U2*%
X165100000Y-128270000D03*
D13*
X165100000Y-130810000D03*
%TO.N,Net-(U2A-+)*%
X165100000Y-133350000D03*
%TO.N,+15V_O*%
X165100000Y-135890000D03*
%TO.N,Net-(U2B-+)*%
X165100000Y-138430000D03*
%TO.N,Net-(U2B--)*%
X165100000Y-140970000D03*
X165100000Y-143510000D03*
%TO.N,Net-(U2C--)*%
X172720000Y-143510000D03*
X172720000Y-140970000D03*
%TO.N,Net-(U2C-+)*%
X172720000Y-138430000D03*
%TO.N,-15V_O*%
X172720000Y-135890000D03*
%TO.N,Net-(U2D-+)*%
X172720000Y-133350000D03*
%TO.N,Net-(U2D--)*%
X172720000Y-130810000D03*
X172720000Y-128270000D03*
%TD*%
D10*
%TO.N,Net-(J1-Pin_1)*%
%TO.C,J1*%
X107950000Y-44450000D03*
D11*
%TO.N,GND_O*%
X107950000Y-41910000D03*
%TD*%
D12*
%TO.N,Net-(SW6-A)*%
%TO.C,U18*%
X115570000Y-69850000D03*
D13*
%TO.N,Net-(SW6-B)*%
X115570000Y-72390000D03*
%TO.N,Net-(U10A-+)*%
X115570000Y-74930000D03*
%TO.N,+15V_O*%
X115570000Y-77470000D03*
%TO.N,Net-(U18B-+)*%
X115570000Y-80010000D03*
%TO.N,Net-(SW8-B)*%
X115570000Y-82550000D03*
%TO.N,Net-(SW8-A)*%
X115570000Y-85090000D03*
%TO.N,Net-(R125-Pad1)*%
X123190000Y-85090000D03*
%TO.N,Net-(U18C--)*%
X123190000Y-82550000D03*
%TO.N,Net-(U18C-+)*%
X123190000Y-80010000D03*
%TO.N,-15V_O*%
X123190000Y-77470000D03*
%TO.N,Net-(U18D-+)*%
X123190000Y-74930000D03*
%TO.N,Net-(U18D--)*%
X123190000Y-72390000D03*
%TO.N,Net-(R108-Pad1)*%
X123190000Y-69850000D03*
%TD*%
D10*
%TO.N,Net-(SW4-A)*%
%TO.C,SW4*%
X111760000Y-99060000D03*
D11*
%TO.N,Net-(SW4-B)*%
X111760000Y-101600000D03*
%TD*%
D12*
%TO.N,Net-(U6A--)*%
%TO.C,U6*%
X195580000Y-128270000D03*
D13*
X195580000Y-130810000D03*
%TO.N,Net-(U6A-+)*%
X195580000Y-133350000D03*
%TO.N,+15V_O*%
X195580000Y-135890000D03*
%TO.N,Net-(U6B-+)*%
X195580000Y-138430000D03*
%TO.N,Net-(U6B--)*%
X195580000Y-140970000D03*
X195580000Y-143510000D03*
%TO.N,Net-(U6C--)*%
X203200000Y-143510000D03*
X203200000Y-140970000D03*
%TO.N,Net-(U6C-+)*%
X203200000Y-138430000D03*
%TO.N,-15V_O*%
X203200000Y-135890000D03*
%TO.N,Net-(U6D-+)*%
X203200000Y-133350000D03*
%TO.N,Net-(U6D--)*%
X203200000Y-130810000D03*
X203200000Y-128270000D03*
%TD*%
D10*
%TO.N,Net-(SW3-A)*%
%TO.C,SW3*%
X111760000Y-143510000D03*
D11*
%TO.N,Net-(SW3-B)*%
X111760000Y-140970000D03*
%TD*%
D10*
%TO.N,Net-(SW1-A)*%
%TO.C,SW1*%
X111760000Y-128270000D03*
D11*
%TO.N,Net-(SW1-B)*%
X111760000Y-130810000D03*
%TD*%
D10*
%TO.N,Net-(R12-Pad1)*%
%TO.C,RV3*%
X134620000Y-133350000D03*
D11*
%TO.N,Net-(U5A-+)*%
X134620000Y-130810000D03*
%TO.N,Net-(R8-Pad2)*%
X134620000Y-128270000D03*
%TD*%
D10*
%TO.N,Net-(J10-Pin_1)*%
%TO.C,J10*%
X107950000Y-59690000D03*
D11*
%TO.N,GND_O*%
X107950000Y-57150000D03*
%TD*%
D10*
%TO.N,Net-(J26-Pin_1)*%
%TO.C,J26*%
X115570000Y-52070000D03*
D11*
%TO.N,GND_O*%
X115570000Y-49530000D03*
%TD*%
D10*
%TO.N,Net-(U14C-+)*%
%TO.C,RV15*%
X176530000Y-109220000D03*
D11*
X176530000Y-111760000D03*
%TO.N,Net-(R99-Pad2)*%
X176530000Y-114300000D03*
%TO.N,Net-(R100-Pad2)*%
X180340000Y-114300000D03*
%TO.N,Net-(U14C-+)*%
X180340000Y-111760000D03*
D10*
X180340000Y-109220000D03*
%TD*%
%TO.N,Net-(J5-Pin_1)*%
%TO.C,J5*%
X100330000Y-140970000D03*
D11*
%TO.N,Net-(J5-Pin_2)*%
X100330000Y-143510000D03*
%TD*%
D10*
%TO.N,Net-(SW9-A)*%
%TO.C,RV21*%
X130810000Y-69850000D03*
D11*
%TO.N,Net-(SW9-B)*%
X130810000Y-72390000D03*
X130810000Y-74930000D03*
%TD*%
D10*
%TO.N,Net-(J13-Pin_1)*%
%TO.C,J13*%
X100330000Y-128270000D03*
D11*
%TO.N,Net-(J13-Pin_2)*%
X100330000Y-130810000D03*
%TD*%
D10*
%TO.N,Net-(R37-Pad1)*%
%TO.C,RV7*%
X134620000Y-138430000D03*
D11*
%TO.N,Net-(U5B-+)*%
X134620000Y-140970000D03*
%TO.N,Net-(R31-Pad2)*%
X134620000Y-143510000D03*
%TD*%
D10*
%TO.N,Net-(J32-Pin_1)*%
%TO.C,J32*%
X123190000Y-59690000D03*
D11*
%TO.N,Net-(J32-Pin_2)*%
X123190000Y-57150000D03*
%TD*%
D10*
%TO.N,Net-(SW9-A)*%
%TO.C,SW9*%
X134620000Y-69850000D03*
D11*
%TO.N,Net-(SW9-B)*%
X134620000Y-72390000D03*
%TD*%
D12*
%TO.N,Net-(U3A--)*%
%TO.C,U3*%
X195580000Y-41910000D03*
D13*
X195580000Y-44450000D03*
%TO.N,Net-(U3A-+)*%
X195580000Y-46990000D03*
%TO.N,+15V_O*%
X195580000Y-49530000D03*
%TO.N,Net-(U3B-+)*%
X195580000Y-52070000D03*
%TO.N,Net-(U3B--)*%
X195580000Y-54610000D03*
X195580000Y-57150000D03*
%TO.N,Net-(U3C--)*%
X203200000Y-57150000D03*
X203200000Y-54610000D03*
%TO.N,Net-(U3B-+)*%
X203200000Y-52070000D03*
%TO.N,-15V_O*%
X203200000Y-49530000D03*
%TO.N,Net-(U3A-+)*%
X203200000Y-46990000D03*
%TO.N,Net-(U3D--)*%
X203200000Y-44450000D03*
X203200000Y-41910000D03*
%TD*%
D10*
%TO.N,Net-(SW1-A)*%
%TO.C,RV1*%
X107950000Y-128270000D03*
D11*
%TO.N,Net-(SW1-B)*%
X107950000Y-130810000D03*
X107950000Y-133350000D03*
%TD*%
D10*
%TO.N,Net-(SW3-A)*%
%TO.C,RV5*%
X107950000Y-143510000D03*
D11*
%TO.N,Net-(SW3-B)*%
X107950000Y-140970000D03*
X107950000Y-138430000D03*
%TD*%
D12*
%TO.N,Net-(R115-Pad1)*%
%TO.C,U22*%
X138430000Y-41910000D03*
D13*
%TO.N,Net-(U22A--)*%
X138430000Y-44450000D03*
%TO.N,Net-(U22A-+)*%
X138430000Y-46990000D03*
%TO.N,+15V_O*%
X138430000Y-49530000D03*
%TO.N,Net-(U22B-+)*%
X138430000Y-52070000D03*
%TO.N,Net-(U22B--)*%
X138430000Y-54610000D03*
%TO.N,Net-(R132-Pad1)*%
X138430000Y-57150000D03*
%TO.N,Net-(SW10-A)*%
X146050000Y-57150000D03*
%TO.N,Net-(SW10-B)*%
X146050000Y-54610000D03*
%TO.N,Net-(U21A-+)*%
X146050000Y-52070000D03*
%TO.N,-15V_O*%
X146050000Y-49530000D03*
%TO.N,Net-(U21A-+)*%
X146050000Y-46990000D03*
%TO.N,Net-(SW7-B)*%
X146050000Y-44450000D03*
%TO.N,Net-(SW7-A)*%
X146050000Y-41910000D03*
%TD*%
D10*
%TO.N,Net-(SW6-A)*%
%TO.C,SW6*%
X107950000Y-69850000D03*
D11*
%TO.N,Net-(SW6-B)*%
X107950000Y-72390000D03*
%TD*%
D10*
%TO.N,Net-(SW10-A)*%
%TO.C,RV22*%
X153670000Y-57150000D03*
D11*
%TO.N,Net-(SW10-B)*%
X153670000Y-54610000D03*
X153670000Y-52070000D03*
%TD*%
D16*
%TO.N,N/C*%
%TO.C,H5*%
X88900000Y-147320000D03*
%TD*%
D10*
%TO.N,Net-(SW5-A)*%
%TO.C,SW5*%
X111760000Y-114300000D03*
D11*
%TO.N,Net-(SW5-B)*%
X111760000Y-111760000D03*
%TD*%
D10*
%TO.N,Net-(SW8-A)*%
%TO.C,SW8*%
X107950000Y-85090000D03*
D11*
%TO.N,Net-(SW8-B)*%
X107950000Y-82550000D03*
%TD*%
D16*
%TO.N,N/C*%
%TO.C,H2*%
X88900000Y-40640000D03*
%TD*%
D10*
%TO.N,Net-(R116-Pad2)*%
%TO.C,RV19*%
X149860000Y-69850000D03*
D11*
X149860000Y-72390000D03*
%TO.N,Net-(R118-Pad1)*%
X149860000Y-74930000D03*
%TO.N,GND_O*%
X153670000Y-74930000D03*
%TO.N,Net-(R117-Pad2)*%
X153670000Y-72390000D03*
D10*
X153670000Y-69850000D03*
%TD*%
D12*
%TO.N,Net-(R63-Pad2)*%
%TO.C,U7*%
X138370000Y-99000000D03*
D13*
%TO.N,Net-(U7A--)*%
X138370000Y-101540000D03*
%TO.N,Net-(U7A-+)*%
X138370000Y-104080000D03*
%TO.N,+15V_O*%
X138370000Y-106620000D03*
%TO.N,Net-(U7B-+)*%
X138370000Y-109160000D03*
%TO.N,Net-(U7B--)*%
X138370000Y-111700000D03*
%TO.N,Net-(R90-Pad2)*%
X138370000Y-114240000D03*
%TO.N,Net-(R154-Pad2)*%
X145990000Y-114240000D03*
%TO.N,Net-(U7C--)*%
X145990000Y-111700000D03*
%TO.N,Net-(U7C-+)*%
X145990000Y-109160000D03*
%TO.N,-15V_O*%
X145990000Y-106620000D03*
%TO.N,Net-(U7D-+)*%
X145990000Y-104080000D03*
%TO.N,Net-(U7D--)*%
X145990000Y-101540000D03*
%TO.N,Net-(R152-Pad2)*%
X145990000Y-99000000D03*
%TD*%
D12*
%TO.N,Net-(U14A--)*%
%TO.C,U14*%
X165100000Y-99060000D03*
D13*
X165100000Y-101600000D03*
%TO.N,Net-(U14A-+)*%
X165100000Y-104140000D03*
%TO.N,+15V_O*%
X165100000Y-106680000D03*
%TO.N,Net-(U14B-+)*%
X165100000Y-109220000D03*
%TO.N,Net-(U14B--)*%
X165100000Y-111760000D03*
X165100000Y-114300000D03*
%TO.N,Net-(R84-Pad2)*%
X172720000Y-114300000D03*
%TO.N,Net-(U14C--)*%
X172720000Y-111760000D03*
%TO.N,Net-(U14C-+)*%
X172720000Y-109220000D03*
%TO.N,-15V_O*%
X172720000Y-106680000D03*
%TO.N,Net-(U14D-+)*%
X172720000Y-104140000D03*
%TO.N,Net-(U14D--)*%
X172720000Y-101600000D03*
%TO.N,Net-(R55-Pad2)*%
X172720000Y-99060000D03*
%TD*%
D12*
%TO.N,Net-(SW4-A)*%
%TO.C,U10*%
X115570000Y-99060000D03*
D13*
%TO.N,Net-(SW4-B)*%
X115570000Y-101600000D03*
%TO.N,Net-(U10A-+)*%
X115570000Y-104140000D03*
%TO.N,+15V_O*%
X115570000Y-106680000D03*
%TO.N,Net-(U10A-+)*%
X115570000Y-109220000D03*
%TO.N,Net-(SW5-B)*%
X115570000Y-111760000D03*
%TO.N,Net-(SW5-A)*%
X115570000Y-114300000D03*
%TO.N,Net-(R79-Pad2)*%
X123190000Y-114300000D03*
%TO.N,Net-(U10C--)*%
X123190000Y-111760000D03*
%TO.N,Net-(U10C-+)*%
X123190000Y-109220000D03*
%TO.N,-15V_O*%
X123190000Y-106680000D03*
%TO.N,Net-(U10D-+)*%
X123190000Y-104140000D03*
%TO.N,Net-(U10D--)*%
X123190000Y-101600000D03*
%TO.N,Net-(R49-Pad2)*%
X123190000Y-99060000D03*
%TD*%
D10*
%TO.N,Net-(SW10-A)*%
%TO.C,SW10*%
X149860000Y-57150000D03*
D11*
%TO.N,Net-(SW10-B)*%
X149860000Y-54610000D03*
%TD*%
D16*
%TO.N,N/C*%
%TO.C,H8*%
X223520000Y-40640000D03*
%TD*%
D17*
%TO.N,GND_O*%
X130810000Y-77470000D03*
X128270000Y-49530000D03*
X186055000Y-101600000D03*
X129540000Y-138430000D03*
X198247000Y-75946000D03*
X198374000Y-112776000D03*
X169850000Y-134290000D03*
X120142000Y-66802000D03*
X141224000Y-71374000D03*
X111125000Y-49530000D03*
X186055000Y-138430000D03*
X200406000Y-48514000D03*
X105156000Y-151638000D03*
X99060000Y-106680000D03*
X215900000Y-49530000D03*
X128000000Y-45466000D03*
X159385000Y-49530000D03*
X171450000Y-120650000D03*
X200330000Y-108255000D03*
X109728000Y-77470000D03*
X152654000Y-151892000D03*
X186055000Y-111760000D03*
X175260000Y-85090000D03*
X186055000Y-99060000D03*
X117475000Y-62230000D03*
X167910000Y-129810000D03*
X159258000Y-135890000D03*
X130810000Y-102870000D03*
X102108000Y-77470000D03*
X150114000Y-121285000D03*
X102108000Y-62230000D03*
X182245000Y-82550000D03*
X198272400Y-84124800D03*
X105156000Y-132080000D03*
X105140000Y-66294000D03*
X182245000Y-77470000D03*
X198374000Y-56134000D03*
X122174000Y-92710000D03*
X126365000Y-120650000D03*
X169926000Y-75946000D03*
X167850000Y-142196000D03*
X169850000Y-139370000D03*
X198292500Y-134320500D03*
X143180000Y-105410000D03*
X130810000Y-80010000D03*
X129540000Y-77470000D03*
X200367500Y-137579500D03*
X189230000Y-135890000D03*
X141202500Y-81534000D03*
X126000000Y-152130000D03*
X153035000Y-106680000D03*
X186055000Y-135890000D03*
X167872500Y-108585000D03*
X124190000Y-50377600D03*
X217170000Y-125730000D03*
X109728000Y-62230000D03*
X200330000Y-105207000D03*
X178435000Y-135890000D03*
X217170000Y-123220000D03*
X200406000Y-129921000D03*
X179705000Y-77470000D03*
X153035000Y-105410000D03*
X126000000Y-95685000D03*
X189230000Y-77470000D03*
X180086000Y-49530000D03*
X177800000Y-92075000D03*
X216535000Y-106680000D03*
X198292500Y-141813500D03*
X167910000Y-71120000D03*
X102235000Y-74930000D03*
X200367500Y-78981700D03*
X207987500Y-138430000D03*
X156845000Y-49530000D03*
X120380000Y-56150000D03*
X178562000Y-52070000D03*
X200406000Y-71374000D03*
X188722000Y-106680000D03*
X110722500Y-103737500D03*
X186055000Y-114300000D03*
X129032000Y-109220000D03*
X103124000Y-134112000D03*
X105140000Y-45450000D03*
X198374000Y-42926000D03*
X105156000Y-86360000D03*
X125095000Y-62230000D03*
X106172000Y-52070000D03*
X216535000Y-89535000D03*
X128037500Y-134500000D03*
X198330000Y-100667000D03*
X110490000Y-120650000D03*
X152400000Y-64770000D03*
X153035000Y-107950000D03*
X152400000Y-82550000D03*
X158517500Y-139975500D03*
X214630000Y-101600000D03*
X128016000Y-55880000D03*
X159385000Y-44450000D03*
X128270000Y-50165000D03*
X141202500Y-137795000D03*
X120396000Y-52832000D03*
X129540000Y-80010000D03*
X216535000Y-109220000D03*
X110722500Y-137795000D03*
X171450000Y-59690000D03*
X120380000Y-45450000D03*
X141224000Y-78486000D03*
%TO.N,Net-(U6D--)*%
X224155000Y-118110000D03*
%TO.N,Net-(R62-Pad1)*%
X121285000Y-121285000D03*
X130810000Y-105410000D03*
X130810000Y-114300000D03*
%TO.N,Net-(U6C--)*%
X224790000Y-130810000D03*
%TO.N,Net-(U12C--)*%
X224155000Y-114300000D03*
%TO.N,Net-(U16D--)*%
X193548000Y-69850000D03*
%TO.N,Net-(U2D--)*%
X183515000Y-121285000D03*
%TO.N,Net-(U13C--)*%
X114935000Y-62230000D03*
%TO.N,Net-(U12D--)*%
X204470000Y-87630000D03*
%TO.N,Net-(U13D--)*%
X121920000Y-62230000D03*
%TO.N,Net-(U2C--)*%
X182880000Y-152400000D03*
%TO.N,Net-(R66-Pad1)*%
X132080000Y-109220000D03*
X132080000Y-99060000D03*
%TO.N,Net-(R111-Pad2)*%
X140165099Y-68791099D03*
X140970000Y-92075000D03*
%TO.N,Net-(U21A-+)*%
X142240000Y-64770000D03*
%TO.N,Net-(U16B--)*%
X202565000Y-87630000D03*
%TO.N,Net-(U3D--)*%
X108585000Y-33655000D03*
%TO.N,Net-(U3C--)*%
X116205000Y-34925000D03*
%TO.N,Net-(U20A-+)*%
X128270000Y-63208000D03*
%TO.N,Net-(Z263-Pad2)*%
X156845000Y-120650000D03*
X158750000Y-113665000D03*
%TO.N,Net-(R117-Pad2)*%
X151765000Y-80010000D03*
%TD*%
D18*
%TO.N,+9V_O*%
X210820000Y-138430000D02*
X213360000Y-138430000D01*
%TO.N,9V_GND_O*%
X213360000Y-133350000D02*
X210820000Y-133350000D01*
X210820000Y-135890000D02*
X213360000Y-135890000D01*
X210820000Y-135890000D02*
X210820000Y-133350000D01*
X213360000Y-133350000D02*
X213360000Y-135890000D01*
%TD*%
%TA.AperFunction,Conductor*%
%TO.N,GND_O*%
G36*
X200810677Y-40024685D02*
G01*
X200831319Y-40041319D01*
X201258681Y-40468681D01*
X201292166Y-40530004D01*
X201295000Y-40556362D01*
X201295000Y-59690000D01*
X208415000Y-59690000D01*
X208915000Y-59690000D01*
X208915000Y-48176362D01*
X208934685Y-48109323D01*
X208951319Y-48088681D01*
X209378681Y-47661319D01*
X209440004Y-47627834D01*
X209466362Y-47625000D01*
X215983638Y-47625000D01*
X216050677Y-47644685D01*
X216071319Y-47661319D01*
X216498681Y-48088681D01*
X216532166Y-48150004D01*
X216535000Y-48176362D01*
X216535000Y-67393638D01*
X216515315Y-67460677D01*
X216498681Y-67481319D01*
X216071319Y-67908681D01*
X216009996Y-67942166D01*
X215983638Y-67945000D01*
X201295000Y-67945000D01*
X201295000Y-76283638D01*
X201275315Y-76350677D01*
X201258681Y-76371319D01*
X200831319Y-76798681D01*
X200769996Y-76832166D01*
X200743638Y-76835000D01*
X198036362Y-76835000D01*
X197969323Y-76815315D01*
X197948681Y-76798681D01*
X197521319Y-76371319D01*
X197487834Y-76309996D01*
X197485000Y-76283638D01*
X197485000Y-68580000D01*
X196985000Y-68580000D01*
X196763159Y-68580000D01*
X196724156Y-68573706D01*
X196682801Y-68560002D01*
X196682798Y-68560001D01*
X196682797Y-68560001D01*
X196682793Y-68560000D01*
X196682790Y-68560000D01*
X196580010Y-68549500D01*
X194579998Y-68549500D01*
X194579981Y-68549501D01*
X194477203Y-68560000D01*
X194445151Y-68570621D01*
X194435843Y-68573706D01*
X194396840Y-68580000D01*
X193040000Y-68580000D01*
X193040000Y-69103849D01*
X193020315Y-69170888D01*
X193003681Y-69191530D01*
X192887376Y-69307834D01*
X192887373Y-69307837D01*
X192794295Y-69447139D01*
X192730184Y-69601917D01*
X192730182Y-69601925D01*
X192697500Y-69766228D01*
X192697500Y-69933771D01*
X192730182Y-70098074D01*
X192730184Y-70098082D01*
X192794295Y-70252860D01*
X192887373Y-70392162D01*
X193003681Y-70508470D01*
X193037166Y-70569793D01*
X193040000Y-70596151D01*
X193040000Y-86360000D01*
X194875325Y-86360000D01*
X194894722Y-86361526D01*
X195077648Y-86390500D01*
X195077649Y-86390500D01*
X196082351Y-86390500D01*
X196082352Y-86390500D01*
X196265277Y-86361526D01*
X196284675Y-86360000D01*
X197485000Y-86360000D01*
X197485000Y-78656362D01*
X197504685Y-78589323D01*
X197521319Y-78568681D01*
X197948681Y-78141319D01*
X198010004Y-78107834D01*
X198036362Y-78105000D01*
X200743638Y-78105000D01*
X200810677Y-78124685D01*
X200831319Y-78141319D01*
X201258681Y-78568681D01*
X201292166Y-78630004D01*
X201295000Y-78656362D01*
X201295000Y-88265000D01*
X201795000Y-88265000D01*
X201947244Y-88265000D01*
X202014283Y-88284685D01*
X202018058Y-88287432D01*
X202022837Y-88290625D01*
X202022838Y-88290626D01*
X202162137Y-88383703D01*
X202316918Y-88447816D01*
X202481228Y-88480499D01*
X202481232Y-88480500D01*
X202481233Y-88480500D01*
X202648768Y-88480500D01*
X202648769Y-88480499D01*
X202813082Y-88447816D01*
X202967863Y-88383703D01*
X203107162Y-88290626D01*
X203107161Y-88290626D01*
X203112227Y-88287242D01*
X203113500Y-88289147D01*
X203168413Y-88265832D01*
X203182756Y-88265000D01*
X203852244Y-88265000D01*
X203919283Y-88284685D01*
X203923058Y-88287432D01*
X203927837Y-88290625D01*
X203927838Y-88290626D01*
X204067137Y-88383703D01*
X204221918Y-88447816D01*
X204386228Y-88480499D01*
X204386232Y-88480500D01*
X204386233Y-88480500D01*
X204553768Y-88480500D01*
X204553769Y-88480499D01*
X204718082Y-88447816D01*
X204872863Y-88383703D01*
X205012162Y-88290626D01*
X205012161Y-88290626D01*
X205017227Y-88287242D01*
X205018500Y-88289147D01*
X205073413Y-88265832D01*
X205087756Y-88265000D01*
X216035000Y-88265000D01*
X217035000Y-88265000D01*
X222968638Y-88265000D01*
X223035677Y-88284685D01*
X223056319Y-88301319D01*
X223483681Y-88728681D01*
X223517166Y-88790004D01*
X223520000Y-88816362D01*
X223520000Y-113682244D01*
X223500315Y-113749283D01*
X223497567Y-113753058D01*
X223401295Y-113897139D01*
X223337184Y-114051917D01*
X223337182Y-114051925D01*
X223304500Y-114216228D01*
X223304500Y-114383771D01*
X223337182Y-114548074D01*
X223337184Y-114548082D01*
X223401295Y-114702860D01*
X223497758Y-114847227D01*
X223495846Y-114848504D01*
X223519163Y-114903376D01*
X223520000Y-114917755D01*
X223520000Y-117492244D01*
X223500315Y-117559283D01*
X223497567Y-117563058D01*
X223401295Y-117707139D01*
X223337184Y-117861917D01*
X223337182Y-117861925D01*
X223304500Y-118026228D01*
X223304500Y-118193771D01*
X223337182Y-118358074D01*
X223337184Y-118358082D01*
X223401295Y-118512860D01*
X223497758Y-118657227D01*
X223495846Y-118658504D01*
X223519163Y-118713376D01*
X223520000Y-118727755D01*
X223520000Y-131528638D01*
X223500315Y-131595677D01*
X223483681Y-131616319D01*
X223056319Y-132043681D01*
X222994996Y-132077166D01*
X222968638Y-132080000D01*
X213841291Y-132080000D01*
X213802972Y-132073931D01*
X213676243Y-132032754D01*
X213565538Y-132015220D01*
X213466287Y-131999500D01*
X213253713Y-131999500D01*
X213154462Y-132015220D01*
X213043756Y-132032754D01*
X212917028Y-132073931D01*
X212878709Y-132080000D01*
X211985389Y-132080000D01*
X211918350Y-132060315D01*
X211912790Y-132056455D01*
X211912327Y-132056202D01*
X211777482Y-132005908D01*
X211777483Y-132005908D01*
X211717883Y-131999501D01*
X211717881Y-131999500D01*
X211717873Y-131999500D01*
X211717864Y-131999500D01*
X209922129Y-131999500D01*
X209922123Y-131999501D01*
X209862516Y-132005908D01*
X209727672Y-132056202D01*
X209719891Y-132060452D01*
X209719066Y-132058942D01*
X209663457Y-132079684D01*
X209654611Y-132080000D01*
X209550000Y-132080000D01*
X209550000Y-132184610D01*
X209530315Y-132251649D01*
X209526454Y-132257209D01*
X209526202Y-132257671D01*
X209475908Y-132392517D01*
X209469501Y-132452116D01*
X209469500Y-132452135D01*
X209469500Y-134247870D01*
X209469501Y-134247876D01*
X209475908Y-134307483D01*
X209526202Y-134442327D01*
X209530452Y-134450109D01*
X209528942Y-134450933D01*
X209549684Y-134506543D01*
X209550000Y-134515389D01*
X209550000Y-135408709D01*
X209543931Y-135447027D01*
X209502754Y-135573757D01*
X209469500Y-135783713D01*
X209469500Y-135996287D01*
X209476531Y-136040677D01*
X209502753Y-136206239D01*
X209543931Y-136332971D01*
X209550000Y-136371289D01*
X209550000Y-137948709D01*
X209543931Y-137987028D01*
X209502754Y-138113756D01*
X209469500Y-138323713D01*
X209469500Y-138536286D01*
X209502753Y-138746239D01*
X209543931Y-138872971D01*
X209550000Y-138911289D01*
X209550000Y-140488709D01*
X209543931Y-140527028D01*
X209502754Y-140653756D01*
X209469500Y-140863713D01*
X209469500Y-141076286D01*
X209502753Y-141286239D01*
X209543931Y-141412971D01*
X209550000Y-141451289D01*
X209550000Y-142240000D01*
X210338709Y-142240000D01*
X210377027Y-142246068D01*
X210503757Y-142287246D01*
X210713713Y-142320500D01*
X210713714Y-142320500D01*
X210926286Y-142320500D01*
X210926287Y-142320500D01*
X211136243Y-142287246D01*
X211262972Y-142246068D01*
X211301291Y-142240000D01*
X212878709Y-142240000D01*
X212917027Y-142246068D01*
X213043757Y-142287246D01*
X213253713Y-142320500D01*
X213253714Y-142320500D01*
X213466286Y-142320500D01*
X213466287Y-142320500D01*
X213676243Y-142287246D01*
X213802972Y-142246068D01*
X213805302Y-142245699D01*
X213806356Y-142245023D01*
X213841291Y-142240000D01*
X214078638Y-142240000D01*
X214145677Y-142259685D01*
X214166319Y-142276319D01*
X214593681Y-142703681D01*
X214627166Y-142765004D01*
X214630000Y-142791362D01*
X214630000Y-146768638D01*
X214610315Y-146835677D01*
X214593681Y-146856319D01*
X214166319Y-147283681D01*
X214139391Y-147298384D01*
X214113573Y-147314977D01*
X214107372Y-147315868D01*
X214104996Y-147317166D01*
X214078638Y-147320000D01*
X213841291Y-147320000D01*
X213802972Y-147313931D01*
X213676243Y-147272754D01*
X213466287Y-147239500D01*
X213253713Y-147239500D01*
X213148735Y-147256127D01*
X213043756Y-147272754D01*
X212917028Y-147313931D01*
X212878709Y-147320000D01*
X211301291Y-147320000D01*
X211262972Y-147313931D01*
X211136243Y-147272754D01*
X210926287Y-147239500D01*
X210713713Y-147239500D01*
X210608735Y-147256127D01*
X210503756Y-147272754D01*
X210377028Y-147313931D01*
X210338709Y-147320000D01*
X208280000Y-147320000D01*
X208280000Y-152483638D01*
X208260315Y-152550677D01*
X208243681Y-152571319D01*
X207816319Y-152998681D01*
X207754996Y-153032166D01*
X207728638Y-153035000D01*
X184701362Y-153035000D01*
X184634323Y-153015315D01*
X184613681Y-152998681D01*
X184186319Y-152571319D01*
X184152834Y-152509996D01*
X184150000Y-152483638D01*
X184150000Y-151765000D01*
X183650000Y-151765000D01*
X183497756Y-151765000D01*
X183430717Y-151745315D01*
X183426941Y-151742567D01*
X183282860Y-151646295D01*
X183128082Y-151582184D01*
X183128074Y-151582182D01*
X182963771Y-151549500D01*
X182963767Y-151549500D01*
X182796233Y-151549500D01*
X182796228Y-151549500D01*
X182631925Y-151582182D01*
X182631917Y-151582184D01*
X182477139Y-151646295D01*
X182332773Y-151742758D01*
X182331499Y-151740852D01*
X182276587Y-151764168D01*
X182262244Y-151765000D01*
X154305000Y-151765000D01*
X154305000Y-152483638D01*
X154285315Y-152550677D01*
X154268681Y-152571319D01*
X153841319Y-152998681D01*
X153779996Y-153032166D01*
X153753638Y-153035000D01*
X102786362Y-153035000D01*
X102719323Y-153015315D01*
X102698681Y-152998681D01*
X102271319Y-152571319D01*
X102237834Y-152509996D01*
X102235000Y-152483638D01*
X102235000Y-133901362D01*
X102254685Y-133834323D01*
X102271319Y-133813681D01*
X102698681Y-133386319D01*
X102760004Y-133352834D01*
X102786362Y-133350000D01*
X104223638Y-133350000D01*
X104290677Y-133369685D01*
X104311319Y-133386319D01*
X104738681Y-133813681D01*
X104772166Y-133875004D01*
X104775000Y-133901362D01*
X104775000Y-134620000D01*
X107145325Y-134620000D01*
X107164722Y-134621526D01*
X107347648Y-134650500D01*
X107347649Y-134650500D01*
X108552351Y-134650500D01*
X108552352Y-134650500D01*
X108735277Y-134621526D01*
X108754675Y-134620000D01*
X111208638Y-134620000D01*
X111275677Y-134639685D01*
X111296319Y-134656319D01*
X111723681Y-135083681D01*
X111757166Y-135145004D01*
X111760000Y-135171362D01*
X111760000Y-137878638D01*
X111740315Y-137945677D01*
X111723681Y-137966319D01*
X111296319Y-138393681D01*
X111234996Y-138427166D01*
X111208638Y-138430000D01*
X110406362Y-138430000D01*
X110339323Y-138410315D01*
X110318681Y-138393681D01*
X109891319Y-137966319D01*
X109857834Y-137904996D01*
X109855000Y-137878638D01*
X109855000Y-137160000D01*
X109355000Y-137160000D01*
X108754675Y-137160000D01*
X108735277Y-137158473D01*
X108727025Y-137157166D01*
X108552352Y-137129500D01*
X107347648Y-137129500D01*
X107172975Y-137157166D01*
X107164723Y-137158473D01*
X107145325Y-137160000D01*
X106045000Y-137160000D01*
X106045000Y-145415000D01*
X124595000Y-145415000D01*
X125095000Y-145415000D01*
X125095000Y-137711362D01*
X125114685Y-137644323D01*
X125131319Y-137623681D01*
X125558681Y-137196319D01*
X125620004Y-137162834D01*
X125646362Y-137160000D01*
X131528638Y-137160000D01*
X131595677Y-137179685D01*
X131616319Y-137196319D01*
X132043681Y-137623681D01*
X132077166Y-137685004D01*
X132080000Y-137711362D01*
X132080000Y-145415000D01*
X139835000Y-145415000D01*
X140335000Y-145415000D01*
X140335000Y-137711362D01*
X140354685Y-137644323D01*
X140371319Y-137623681D01*
X140798681Y-137196319D01*
X140860004Y-137162834D01*
X140886362Y-137160000D01*
X143593638Y-137160000D01*
X143660677Y-137179685D01*
X143681319Y-137196319D01*
X144108681Y-137623681D01*
X144142166Y-137685004D01*
X144145000Y-137711362D01*
X144145000Y-146050000D01*
X155075000Y-146050000D01*
X155575000Y-146050000D01*
X155575000Y-139616362D01*
X155594685Y-139549323D01*
X155611319Y-139528681D01*
X156038681Y-139101319D01*
X156100004Y-139067834D01*
X156126362Y-139065000D01*
X162008638Y-139065000D01*
X162075677Y-139084685D01*
X162096319Y-139101319D01*
X162523681Y-139528681D01*
X162557166Y-139590004D01*
X162560000Y-139616362D01*
X162560000Y-145415000D01*
X166505000Y-145415000D01*
X167005000Y-145415000D01*
X167005000Y-139616362D01*
X167024685Y-139549323D01*
X167041319Y-139528681D01*
X167468681Y-139101319D01*
X167530004Y-139067834D01*
X167556362Y-139065000D01*
X170263638Y-139065000D01*
X170330677Y-139084685D01*
X170351319Y-139101319D01*
X170778681Y-139528681D01*
X170812166Y-139590004D01*
X170815000Y-139616362D01*
X170815000Y-145415000D01*
X174760000Y-145415000D01*
X175260000Y-145415000D01*
X175260000Y-138346362D01*
X175279685Y-138279323D01*
X175296319Y-138258681D01*
X175723681Y-137831319D01*
X175785004Y-137797834D01*
X175811362Y-137795000D01*
X193123638Y-137795000D01*
X193190677Y-137814685D01*
X193211319Y-137831319D01*
X193638681Y-138258681D01*
X193672166Y-138320004D01*
X193675000Y-138346362D01*
X193675000Y-144780000D01*
X194875325Y-144780000D01*
X194894722Y-144781526D01*
X195077648Y-144810500D01*
X195077649Y-144810500D01*
X196082351Y-144810500D01*
X196082352Y-144810500D01*
X196265277Y-144781526D01*
X196284675Y-144780000D01*
X197485000Y-144780000D01*
X197485000Y-137711362D01*
X197504685Y-137644323D01*
X197521319Y-137623681D01*
X197948681Y-137196319D01*
X198010004Y-137162834D01*
X198036362Y-137160000D01*
X200743638Y-137160000D01*
X200810677Y-137179685D01*
X200831319Y-137196319D01*
X201258681Y-137623681D01*
X201292166Y-137685004D01*
X201295000Y-137711362D01*
X201295000Y-144780000D01*
X202495325Y-144780000D01*
X202514722Y-144781526D01*
X202697648Y-144810500D01*
X202697649Y-144810500D01*
X203702351Y-144810500D01*
X203702352Y-144810500D01*
X203885277Y-144781526D01*
X203904675Y-144780000D01*
X205105000Y-144780000D01*
X205105000Y-127000000D01*
X204605000Y-127000000D01*
X203904675Y-127000000D01*
X203885277Y-126998473D01*
X203855180Y-126993706D01*
X203702352Y-126969500D01*
X202697648Y-126969500D01*
X202544820Y-126993706D01*
X202514723Y-126998473D01*
X202495325Y-127000000D01*
X201295000Y-127000000D01*
X201295000Y-134703638D01*
X201275315Y-134770677D01*
X201258681Y-134791319D01*
X200831319Y-135218681D01*
X200769996Y-135252166D01*
X200743638Y-135255000D01*
X198036362Y-135255000D01*
X197969323Y-135235315D01*
X197948681Y-135218681D01*
X197521319Y-134791319D01*
X197487834Y-134729996D01*
X197485000Y-134703638D01*
X197485000Y-127000000D01*
X196985000Y-127000000D01*
X196763159Y-127000000D01*
X196724156Y-126993706D01*
X196682801Y-126980002D01*
X196682798Y-126980001D01*
X196682797Y-126980001D01*
X196682793Y-126980000D01*
X196682790Y-126980000D01*
X196580010Y-126969500D01*
X194579998Y-126969500D01*
X194579981Y-126969501D01*
X194477203Y-126980000D01*
X194445151Y-126990621D01*
X194435843Y-126993706D01*
X194396840Y-127000000D01*
X193675000Y-127000000D01*
X193675000Y-135973638D01*
X193655315Y-136040677D01*
X193638681Y-136061319D01*
X193211319Y-136488681D01*
X193149996Y-136522166D01*
X193123638Y-136525000D01*
X175811362Y-136525000D01*
X175744323Y-136505315D01*
X175723681Y-136488681D01*
X175296319Y-136061319D01*
X175262834Y-135999996D01*
X175260000Y-135973638D01*
X175260000Y-126365000D01*
X174760000Y-126365000D01*
X171315000Y-126365000D01*
X170815000Y-126365000D01*
X170815000Y-134703638D01*
X170795315Y-134770677D01*
X170778681Y-134791319D01*
X170351319Y-135218681D01*
X170289996Y-135252166D01*
X170263638Y-135255000D01*
X167556362Y-135255000D01*
X167489323Y-135235315D01*
X167468681Y-135218681D01*
X167041319Y-134791319D01*
X167007834Y-134729996D01*
X167005000Y-134703638D01*
X167005000Y-127000000D01*
X166505000Y-127000000D01*
X166283159Y-127000000D01*
X166244156Y-126993706D01*
X166202801Y-126980002D01*
X166202798Y-126980001D01*
X166202797Y-126980001D01*
X166202793Y-126980000D01*
X166202790Y-126980000D01*
X166100010Y-126969500D01*
X164099998Y-126969500D01*
X164099981Y-126969501D01*
X163997203Y-126980000D01*
X163965151Y-126990621D01*
X163955843Y-126993706D01*
X163916840Y-127000000D01*
X162560000Y-127000000D01*
X162560000Y-136608638D01*
X162540315Y-136675677D01*
X162523681Y-136696319D01*
X162096319Y-137123681D01*
X162034996Y-137157166D01*
X162008638Y-137160000D01*
X156126362Y-137160000D01*
X156059323Y-137140315D01*
X156038681Y-137123681D01*
X155611319Y-136696319D01*
X155577834Y-136634996D01*
X155575000Y-136608638D01*
X155575000Y-127000000D01*
X155075000Y-127000000D01*
X154474675Y-127000000D01*
X154455277Y-126998473D01*
X154425180Y-126993706D01*
X154272352Y-126969500D01*
X153067648Y-126969500D01*
X152914820Y-126993706D01*
X152884723Y-126998473D01*
X152865325Y-127000000D01*
X150664675Y-127000000D01*
X150645277Y-126998473D01*
X150615180Y-126993706D01*
X150462352Y-126969500D01*
X149257648Y-126969500D01*
X149104820Y-126993706D01*
X149074723Y-126998473D01*
X149055325Y-127000000D01*
X146754675Y-127000000D01*
X146735277Y-126998473D01*
X146705180Y-126993706D01*
X146552352Y-126969500D01*
X145547648Y-126969500D01*
X145394820Y-126993706D01*
X145364723Y-126998473D01*
X145345325Y-127000000D01*
X139613159Y-127000000D01*
X139574156Y-126993706D01*
X139532801Y-126980002D01*
X139532798Y-126980001D01*
X139532797Y-126980001D01*
X139532793Y-126980000D01*
X139532790Y-126980000D01*
X139430010Y-126969500D01*
X137429998Y-126969500D01*
X137429981Y-126969501D01*
X137327203Y-126980000D01*
X137295151Y-126990621D01*
X137285843Y-126993706D01*
X137246840Y-127000000D01*
X135424675Y-127000000D01*
X135405277Y-126998473D01*
X135375180Y-126993706D01*
X135222352Y-126969500D01*
X134017648Y-126969500D01*
X133864820Y-126993706D01*
X133834723Y-126998473D01*
X133815325Y-127000000D01*
X132715000Y-127000000D01*
X132715000Y-134703638D01*
X132695315Y-134770677D01*
X132678681Y-134791319D01*
X132251319Y-135218681D01*
X132189996Y-135252166D01*
X132163638Y-135255000D01*
X125646362Y-135255000D01*
X125579323Y-135235315D01*
X125558681Y-135218681D01*
X125131319Y-134791319D01*
X125097834Y-134729996D01*
X125095000Y-134703638D01*
X125095000Y-123106362D01*
X125114685Y-123039323D01*
X125131319Y-123018681D01*
X125558681Y-122591319D01*
X125620004Y-122557834D01*
X125646362Y-122555000D01*
X146050000Y-122555000D01*
X147584008Y-121020991D01*
X147624230Y-120994115D01*
X148432212Y-120659438D01*
X148479665Y-120650000D01*
X155050335Y-120650000D01*
X155097787Y-120659438D01*
X155905767Y-120994114D01*
X155945994Y-121020994D01*
X157480000Y-122555000D01*
X184285000Y-122555000D01*
X184785000Y-122555000D01*
X184785000Y-120650000D01*
X184132756Y-120650000D01*
X184065717Y-120630315D01*
X184061941Y-120627567D01*
X183917860Y-120531295D01*
X183763082Y-120467184D01*
X183763074Y-120467182D01*
X183598771Y-120434500D01*
X183598767Y-120434500D01*
X183431233Y-120434500D01*
X183431228Y-120434500D01*
X183266925Y-120467182D01*
X183266917Y-120467184D01*
X183112139Y-120531295D01*
X182967773Y-120627758D01*
X182966499Y-120625852D01*
X182911587Y-120649168D01*
X182897244Y-120650000D01*
X176530000Y-120650000D01*
X176082786Y-120873607D01*
X175720128Y-121054935D01*
X175693163Y-121064709D01*
X174774051Y-121281683D01*
X174745562Y-121285000D01*
X170815000Y-121285000D01*
X159909665Y-121285000D01*
X159862212Y-121275561D01*
X159054233Y-120940885D01*
X159014005Y-120914005D01*
X157480000Y-119380000D01*
X156980000Y-119380000D01*
X147185000Y-119380000D01*
X146685000Y-119380000D01*
X146684999Y-119380000D01*
X146331447Y-119733553D01*
X145150994Y-120914005D01*
X145110766Y-120940885D01*
X144302788Y-121275561D01*
X144255335Y-121285000D01*
X125463862Y-121285000D01*
X125396823Y-121265315D01*
X125376181Y-121248681D01*
X125131319Y-121003819D01*
X125097834Y-120942496D01*
X125095000Y-120916138D01*
X125095000Y-120650000D01*
X124777500Y-120650000D01*
X121902756Y-120650000D01*
X121835717Y-120630315D01*
X121831941Y-120627567D01*
X121687860Y-120531295D01*
X121533082Y-120467184D01*
X121533074Y-120467182D01*
X121368771Y-120434500D01*
X121368767Y-120434500D01*
X121201233Y-120434500D01*
X121201228Y-120434500D01*
X121036925Y-120467182D01*
X121036917Y-120467184D01*
X120882139Y-120531295D01*
X120737773Y-120627758D01*
X120736499Y-120625852D01*
X120681587Y-120649168D01*
X120667244Y-120650000D01*
X116205000Y-120650000D01*
X116205000Y-125813638D01*
X116185315Y-125880677D01*
X116168681Y-125901319D01*
X115741319Y-126328681D01*
X115679996Y-126362166D01*
X115653638Y-126365000D01*
X106045000Y-126365000D01*
X106045000Y-132163638D01*
X106025315Y-132230677D01*
X106008681Y-132251319D01*
X105581319Y-132678681D01*
X105519996Y-132712166D01*
X105493638Y-132715000D01*
X102786362Y-132715000D01*
X102719323Y-132695315D01*
X102698681Y-132678681D01*
X102271319Y-132251319D01*
X102237834Y-132189996D01*
X102235000Y-132163638D01*
X102235000Y-109855000D01*
X101735000Y-109855000D01*
X97706362Y-109855000D01*
X97639323Y-109835315D01*
X97618681Y-109818681D01*
X97191319Y-109391319D01*
X97157834Y-109329996D01*
X97155000Y-109303638D01*
X97155000Y-105961362D01*
X97174685Y-105894323D01*
X97191319Y-105873681D01*
X97618681Y-105446319D01*
X97680004Y-105412834D01*
X97706362Y-105410000D01*
X107145325Y-105410000D01*
X107164722Y-105411526D01*
X107347648Y-105440500D01*
X107347649Y-105440500D01*
X108552351Y-105440500D01*
X108552352Y-105440500D01*
X108735277Y-105411526D01*
X108754675Y-105410000D01*
X109855000Y-105410000D01*
X109855000Y-103421362D01*
X109874685Y-103354323D01*
X109891319Y-103333681D01*
X110318681Y-102906319D01*
X110380004Y-102872834D01*
X110406362Y-102870000D01*
X110955325Y-102870000D01*
X110974722Y-102871526D01*
X111157648Y-102900500D01*
X111157649Y-102900500D01*
X111874138Y-102900500D01*
X111941177Y-102920185D01*
X111961819Y-102936819D01*
X112358681Y-103333681D01*
X112392166Y-103395004D01*
X112395000Y-103421362D01*
X112395000Y-107398638D01*
X112375315Y-107465677D01*
X112358681Y-107486319D01*
X111931319Y-107913681D01*
X111869996Y-107947166D01*
X111843638Y-107950000D01*
X108754675Y-107950000D01*
X108735277Y-107948473D01*
X108727025Y-107947166D01*
X108552352Y-107919500D01*
X107347648Y-107919500D01*
X107172975Y-107947166D01*
X107164723Y-107948473D01*
X107145325Y-107950000D01*
X106045000Y-107950000D01*
X106045000Y-116205000D01*
X125230000Y-116205000D01*
X125730000Y-116205000D01*
X125730000Y-107866362D01*
X125749685Y-107799323D01*
X125766319Y-107778681D01*
X126193681Y-107351319D01*
X126255004Y-107317834D01*
X126281362Y-107315000D01*
X129623638Y-107315000D01*
X129690677Y-107334685D01*
X129711319Y-107351319D01*
X130138681Y-107778681D01*
X130172166Y-107840004D01*
X130175000Y-107866362D01*
X130175000Y-113682244D01*
X130155315Y-113749283D01*
X130152567Y-113753058D01*
X130056295Y-113897139D01*
X129992184Y-114051917D01*
X129992182Y-114051925D01*
X129959500Y-114216228D01*
X129959500Y-114383771D01*
X129992182Y-114548074D01*
X129992184Y-114548082D01*
X130056295Y-114702860D01*
X130152758Y-114847227D01*
X130150846Y-114848504D01*
X130174163Y-114903376D01*
X130175000Y-114917755D01*
X130175000Y-115570000D01*
X139835000Y-115570000D01*
X140335000Y-115570000D01*
X140335000Y-104691362D01*
X140354685Y-104624323D01*
X140371319Y-104603681D01*
X140798681Y-104176319D01*
X140860004Y-104142834D01*
X140886362Y-104140000D01*
X143593638Y-104140000D01*
X143660677Y-104159685D01*
X143681319Y-104176319D01*
X144108681Y-104603681D01*
X144142166Y-104665004D01*
X144145000Y-104691362D01*
X144145000Y-115570000D01*
X149995000Y-115570000D01*
X150495000Y-115570000D01*
X150495000Y-104691362D01*
X150514685Y-104624323D01*
X150531319Y-104603681D01*
X150958681Y-104176319D01*
X151020004Y-104142834D01*
X151046362Y-104140000D01*
X157563638Y-104140000D01*
X157630677Y-104159685D01*
X157651319Y-104176319D01*
X158078681Y-104603681D01*
X158112166Y-104665004D01*
X158115000Y-104691362D01*
X158115000Y-113047244D01*
X158095315Y-113114283D01*
X158092567Y-113118058D01*
X157996295Y-113262139D01*
X157932184Y-113416917D01*
X157932182Y-113416925D01*
X157899500Y-113581228D01*
X157899500Y-113748771D01*
X157932182Y-113913074D01*
X157932184Y-113913082D01*
X157996295Y-114067860D01*
X158092758Y-114212227D01*
X158090846Y-114213504D01*
X158114163Y-114268376D01*
X158115000Y-114282755D01*
X158115000Y-114300000D01*
X160020000Y-116205000D01*
X166505000Y-116205000D01*
X167005000Y-116205000D01*
X167005000Y-108501362D01*
X167024685Y-108434323D01*
X167041319Y-108413681D01*
X167468681Y-107986319D01*
X167530004Y-107952834D01*
X167556362Y-107950000D01*
X170263638Y-107950000D01*
X170330677Y-107969685D01*
X170351319Y-107986319D01*
X170778681Y-108413681D01*
X170812166Y-108475004D01*
X170815000Y-108501362D01*
X170815000Y-116205000D01*
X184285000Y-116205000D01*
X184785000Y-116205000D01*
X184785000Y-105961362D01*
X184804685Y-105894323D01*
X184821319Y-105873681D01*
X185248681Y-105446319D01*
X185310004Y-105412834D01*
X185336362Y-105410000D01*
X189948638Y-105410000D01*
X190015677Y-105429685D01*
X190036319Y-105446319D01*
X190463681Y-105873681D01*
X190497166Y-105935004D01*
X190500000Y-105961362D01*
X190500000Y-116205000D01*
X196985000Y-116205000D01*
X197485000Y-116205000D01*
X197485000Y-107866362D01*
X197504685Y-107799323D01*
X197521319Y-107778681D01*
X197948681Y-107351319D01*
X198010004Y-107317834D01*
X198036362Y-107315000D01*
X200743638Y-107315000D01*
X200810677Y-107334685D01*
X200831319Y-107351319D01*
X201258681Y-107778681D01*
X201292166Y-107840004D01*
X201295000Y-107866362D01*
X201295000Y-116205000D01*
X207145000Y-116205000D01*
X207645000Y-116205000D01*
X207645000Y-102235000D01*
X207645000Y-97790000D01*
X203844675Y-97790000D01*
X203825277Y-97788473D01*
X203795180Y-97783706D01*
X203642352Y-97759500D01*
X202637648Y-97759500D01*
X202484820Y-97783706D01*
X202454723Y-97788473D01*
X202435325Y-97790000D01*
X201295000Y-97790000D01*
X201295000Y-105493638D01*
X201275315Y-105560677D01*
X201258681Y-105581319D01*
X200831319Y-106008681D01*
X200769996Y-106042166D01*
X200743638Y-106045000D01*
X198036362Y-106045000D01*
X197969323Y-106025315D01*
X197948681Y-106008681D01*
X197521319Y-105581319D01*
X197487834Y-105519996D01*
X197485000Y-105493638D01*
X197485000Y-97790000D01*
X196985000Y-97790000D01*
X196703159Y-97790000D01*
X196664156Y-97783706D01*
X196622801Y-97770002D01*
X196622798Y-97770001D01*
X196622797Y-97770001D01*
X196622793Y-97770000D01*
X196622790Y-97770000D01*
X196520010Y-97759500D01*
X194519998Y-97759500D01*
X194519981Y-97759501D01*
X194417203Y-97770000D01*
X194385151Y-97780621D01*
X194375843Y-97783706D01*
X194336840Y-97790000D01*
X187960000Y-97790000D01*
X187960000Y-101683638D01*
X187940315Y-101750677D01*
X187923681Y-101771319D01*
X187496319Y-102198681D01*
X187434996Y-102232166D01*
X187408638Y-102235000D01*
X182796362Y-102235000D01*
X182729323Y-102215315D01*
X182708681Y-102198681D01*
X182281319Y-101771319D01*
X182247834Y-101709996D01*
X182245000Y-101683638D01*
X182245000Y-95885000D01*
X181745000Y-95885000D01*
X175760000Y-95885000D01*
X175260000Y-95885000D01*
X175260000Y-96603638D01*
X175240315Y-96670677D01*
X175223681Y-96691319D01*
X174796319Y-97118681D01*
X174734996Y-97152166D01*
X174708638Y-97155000D01*
X131445000Y-97155000D01*
X131445000Y-98442244D01*
X131425315Y-98509283D01*
X131422567Y-98513058D01*
X131326295Y-98657139D01*
X131262184Y-98811917D01*
X131262182Y-98811925D01*
X131229500Y-98976228D01*
X131229500Y-99143771D01*
X131262182Y-99308074D01*
X131262184Y-99308082D01*
X131326295Y-99462860D01*
X131422758Y-99607227D01*
X131420846Y-99608504D01*
X131444163Y-99663376D01*
X131445000Y-99677755D01*
X131445000Y-102953638D01*
X131425315Y-103020677D01*
X131408681Y-103041319D01*
X130981319Y-103468681D01*
X130919996Y-103502166D01*
X130893638Y-103505000D01*
X125646362Y-103505000D01*
X125579323Y-103485315D01*
X125558681Y-103468681D01*
X125131319Y-103041319D01*
X125097834Y-102979996D01*
X125095000Y-102953638D01*
X125095000Y-94453678D01*
X125104439Y-94406225D01*
X125403062Y-93685283D01*
X125429938Y-93645061D01*
X126030061Y-93044938D01*
X126070283Y-93018062D01*
X126791225Y-92719438D01*
X126838678Y-92710000D01*
X140352244Y-92710000D01*
X140419283Y-92729685D01*
X140423058Y-92732432D01*
X140427837Y-92735625D01*
X140427838Y-92735626D01*
X140567137Y-92828703D01*
X140721918Y-92892816D01*
X140886228Y-92925499D01*
X140886232Y-92925500D01*
X140886233Y-92925500D01*
X141053768Y-92925500D01*
X141053769Y-92925499D01*
X141218082Y-92892816D01*
X141372863Y-92828703D01*
X141512162Y-92735626D01*
X141512161Y-92735626D01*
X141517227Y-92732242D01*
X141518500Y-92734147D01*
X141573413Y-92710832D01*
X141587756Y-92710000D01*
X142240000Y-92710000D01*
X143139008Y-91810991D01*
X143179230Y-91784115D01*
X143987212Y-91449438D01*
X144034665Y-91440000D01*
X162559999Y-91440000D01*
X162560000Y-91440000D01*
X164789167Y-88765000D01*
X165397240Y-88035312D01*
X165439900Y-88002405D01*
X166210005Y-87641706D01*
X166262600Y-87630000D01*
X174625000Y-87630000D01*
X174625000Y-68580000D01*
X174125000Y-68580000D01*
X173424675Y-68580000D01*
X173405277Y-68578473D01*
X173375180Y-68573706D01*
X173222352Y-68549500D01*
X172217648Y-68549500D01*
X172064820Y-68573706D01*
X172034723Y-68578473D01*
X172015325Y-68580000D01*
X170815000Y-68580000D01*
X170815000Y-76283638D01*
X170795315Y-76350677D01*
X170778681Y-76371319D01*
X170351319Y-76798681D01*
X170289996Y-76832166D01*
X170263638Y-76835000D01*
X167556362Y-76835000D01*
X167489323Y-76815315D01*
X167468681Y-76798681D01*
X167041319Y-76371319D01*
X167007834Y-76309996D01*
X167005000Y-76283638D01*
X167005000Y-67945000D01*
X166505000Y-67945000D01*
X163060000Y-67945000D01*
X162560000Y-67945000D01*
X162560000Y-58420000D01*
X157480000Y-58420000D01*
X156210000Y-58420000D01*
X156210000Y-53340000D01*
X156210000Y-50800000D01*
X156210000Y-48895000D01*
X156210000Y-44366362D01*
X156229685Y-44299323D01*
X156246319Y-44278681D01*
X156673681Y-43851319D01*
X156735004Y-43817834D01*
X156761362Y-43815000D01*
X162643638Y-43815000D01*
X162710677Y-43834685D01*
X162731319Y-43851319D01*
X163158681Y-44278681D01*
X163192166Y-44340004D01*
X163195000Y-44366362D01*
X163195000Y-50800000D01*
X163195000Y-53340000D01*
X163195000Y-59055000D01*
X175395000Y-59055000D01*
X175895000Y-59055000D01*
X175895000Y-48811362D01*
X175914685Y-48744323D01*
X175931319Y-48723681D01*
X176358681Y-48296319D01*
X176420004Y-48262834D01*
X176446362Y-48260000D01*
X188043638Y-48260000D01*
X188110677Y-48279685D01*
X188131319Y-48296319D01*
X188558681Y-48723681D01*
X188592166Y-48785004D01*
X188595000Y-48811362D01*
X188595000Y-59690000D01*
X196985000Y-59690000D01*
X197485000Y-59690000D01*
X197485000Y-40556362D01*
X197504685Y-40489323D01*
X197521319Y-40468681D01*
X197948681Y-40041319D01*
X198010004Y-40007834D01*
X198036362Y-40005000D01*
X200743638Y-40005000D01*
X200810677Y-40024685D01*
G37*
%TD.AperFunction*%
%TD*%
%TA.AperFunction,Conductor*%
%TO.N,GND_O*%
G36*
X120800677Y-55264685D02*
G01*
X120821319Y-55281319D01*
X121248681Y-55708681D01*
X121282166Y-55770004D01*
X121285000Y-55796362D01*
X121285000Y-61612244D01*
X121265315Y-61679283D01*
X121262567Y-61683058D01*
X121166295Y-61827139D01*
X121102184Y-61981917D01*
X121102182Y-61981925D01*
X121069500Y-62146228D01*
X121069500Y-62313771D01*
X121100822Y-62471240D01*
X121094595Y-62540832D01*
X121066887Y-62583112D01*
X120944103Y-62705896D01*
X120821317Y-62828682D01*
X120759997Y-62862166D01*
X120733638Y-62865000D01*
X117391362Y-62865000D01*
X117324323Y-62845315D01*
X117303681Y-62828681D01*
X116876319Y-62401319D01*
X116842834Y-62339996D01*
X116840000Y-62313638D01*
X116840000Y-61963862D01*
X116859685Y-61896823D01*
X116876319Y-61876181D01*
X117121181Y-61631319D01*
X117182504Y-61597834D01*
X117208862Y-61595000D01*
X117475000Y-61595000D01*
X117475000Y-58420000D01*
X117064446Y-58420000D01*
X117021112Y-58412181D01*
X116977491Y-58395911D01*
X116977480Y-58395908D01*
X116917883Y-58389501D01*
X116917881Y-58389500D01*
X116917873Y-58389500D01*
X116917864Y-58389500D01*
X114222129Y-58389500D01*
X114222123Y-58389501D01*
X114162518Y-58395908D01*
X114137164Y-58405365D01*
X114118885Y-58412182D01*
X114075554Y-58420000D01*
X113665000Y-58420000D01*
X113665000Y-62313638D01*
X113645315Y-62380677D01*
X113628681Y-62401319D01*
X113201319Y-62828681D01*
X113139996Y-62862166D01*
X113113638Y-62865000D01*
X109771362Y-62865000D01*
X109704323Y-62845315D01*
X109683681Y-62828681D01*
X109256319Y-62401319D01*
X109222834Y-62339996D01*
X109220000Y-62313638D01*
X109220000Y-61110255D01*
X109239685Y-61043216D01*
X109292489Y-60997461D01*
X109330747Y-60986965D01*
X109357483Y-60984091D01*
X109492328Y-60933797D01*
X109492327Y-60933797D01*
X109492331Y-60933796D01*
X109607546Y-60847546D01*
X109693796Y-60732331D01*
X109744091Y-60597483D01*
X109750500Y-60537873D01*
X109750499Y-58842128D01*
X109744091Y-58782517D01*
X109693796Y-58647669D01*
X109693795Y-58647668D01*
X109693793Y-58647664D01*
X109607547Y-58532455D01*
X109607544Y-58532452D01*
X109492335Y-58446206D01*
X109492328Y-58446202D01*
X109357482Y-58395908D01*
X109357483Y-58395908D01*
X109297883Y-58389501D01*
X109297881Y-58389500D01*
X109297873Y-58389500D01*
X109297864Y-58389500D01*
X106602129Y-58389500D01*
X106602123Y-58389501D01*
X106542518Y-58395908D01*
X106517164Y-58405365D01*
X106498885Y-58412182D01*
X106455554Y-58420000D01*
X106045000Y-58420000D01*
X106045000Y-55245000D01*
X113665000Y-55245000D01*
X120733638Y-55245000D01*
X120800677Y-55264685D01*
G37*
%TD.AperFunction*%
%TD*%
%TA.AperFunction,Conductor*%
%TO.N,GND_O*%
G36*
X109370677Y-40659685D02*
G01*
X109391319Y-40676319D01*
X109818681Y-41103681D01*
X109852166Y-41165004D01*
X109855000Y-41191362D01*
X109855000Y-42628637D01*
X109835315Y-42695676D01*
X109818681Y-42716318D01*
X109418942Y-43116056D01*
X109357619Y-43149541D01*
X109318009Y-43151664D01*
X109297873Y-43149500D01*
X109297867Y-43149500D01*
X106602129Y-43149500D01*
X106602123Y-43149501D01*
X106542518Y-43155908D01*
X106517164Y-43165365D01*
X106498885Y-43172182D01*
X106455554Y-43180000D01*
X106045000Y-43180000D01*
X106045000Y-46355000D01*
X116975000Y-46355000D01*
X117475000Y-46355000D01*
X117475000Y-43180000D01*
X117064446Y-43180000D01*
X117021112Y-43172181D01*
X116977491Y-43155911D01*
X116977480Y-43155908D01*
X116917883Y-43149501D01*
X116917881Y-43149500D01*
X116917873Y-43149500D01*
X116917864Y-43149500D01*
X114222129Y-43149500D01*
X114222116Y-43149501D01*
X114201987Y-43151665D01*
X114133228Y-43139257D01*
X114101056Y-43116056D01*
X113701319Y-42716319D01*
X113667834Y-42654996D01*
X113665000Y-42628638D01*
X113665000Y-41191362D01*
X113684685Y-41124323D01*
X113701319Y-41103681D01*
X114128681Y-40676319D01*
X114190004Y-40642834D01*
X114216362Y-40640000D01*
X124543638Y-40640000D01*
X124610677Y-40659685D01*
X124631319Y-40676319D01*
X125058681Y-41103681D01*
X125092166Y-41165004D01*
X125095000Y-41191362D01*
X125095000Y-42628637D01*
X125075315Y-42695676D01*
X125058681Y-42716318D01*
X124658942Y-43116056D01*
X124597619Y-43149541D01*
X124558009Y-43151664D01*
X124537873Y-43149500D01*
X124537867Y-43149500D01*
X121842129Y-43149500D01*
X121842123Y-43149501D01*
X121782518Y-43155908D01*
X121757164Y-43165365D01*
X121738885Y-43172182D01*
X121695554Y-43180000D01*
X121285000Y-43180000D01*
X121285000Y-46355000D01*
X126500000Y-46355000D01*
X127000000Y-46355000D01*
X127000000Y-45001362D01*
X127019685Y-44934323D01*
X127036319Y-44913681D01*
X127463681Y-44486319D01*
X127525004Y-44452834D01*
X127551362Y-44450000D01*
X128988638Y-44450000D01*
X129055677Y-44469685D01*
X129076319Y-44486319D01*
X129503681Y-44913681D01*
X129537166Y-44975004D01*
X129540000Y-45001362D01*
X129540000Y-46355000D01*
X135338638Y-46355000D01*
X135405677Y-46374685D01*
X135426319Y-46391319D01*
X135853681Y-46818681D01*
X135887166Y-46880004D01*
X135890000Y-46906362D01*
X135890000Y-58420000D01*
X137725325Y-58420000D01*
X137744722Y-58421526D01*
X137927648Y-58450500D01*
X137927649Y-58450500D01*
X138932351Y-58450500D01*
X138932352Y-58450500D01*
X139115277Y-58421526D01*
X139134675Y-58420000D01*
X145345325Y-58420000D01*
X145364722Y-58421526D01*
X145547648Y-58450500D01*
X145547649Y-58450500D01*
X146552351Y-58450500D01*
X146552352Y-58450500D01*
X146735277Y-58421526D01*
X146754675Y-58420000D01*
X148365554Y-58420000D01*
X148408888Y-58427819D01*
X148452508Y-58444088D01*
X148452511Y-58444088D01*
X148452517Y-58444091D01*
X148512127Y-58450500D01*
X151207872Y-58450499D01*
X151267483Y-58444091D01*
X151311114Y-58427817D01*
X151354446Y-58420000D01*
X152175554Y-58420000D01*
X152218888Y-58427819D01*
X152262508Y-58444088D01*
X152262511Y-58444088D01*
X152262517Y-58444091D01*
X152322127Y-58450500D01*
X155017872Y-58450499D01*
X155077483Y-58444091D01*
X155121114Y-58427817D01*
X155164446Y-58420000D01*
X162560000Y-58420000D01*
X162560000Y-67945000D01*
X162560000Y-87109877D01*
X162553637Y-87149089D01*
X162266363Y-88010910D01*
X162247926Y-88046098D01*
X160972563Y-89746582D01*
X160928818Y-89783091D01*
X160181181Y-90156909D01*
X160125728Y-90170000D01*
X126364999Y-90170000D01*
X123507500Y-93027500D01*
X122889941Y-93645058D01*
X122849713Y-93671938D01*
X122128775Y-93970561D01*
X122081322Y-93980000D01*
X102786362Y-93980000D01*
X102719323Y-93960315D01*
X102698681Y-93943681D01*
X102271319Y-93516319D01*
X102237834Y-93454996D01*
X102235000Y-93428638D01*
X102235000Y-80645000D01*
X101735000Y-80645000D01*
X101516362Y-80645000D01*
X101449323Y-80625315D01*
X101428681Y-80608681D01*
X101001319Y-80181319D01*
X100967834Y-80119996D01*
X100965000Y-80093638D01*
X100965000Y-76751362D01*
X100984685Y-76684323D01*
X101001319Y-76663681D01*
X101428681Y-76236319D01*
X101490004Y-76202834D01*
X101516362Y-76200000D01*
X109938638Y-76200000D01*
X110005677Y-76219685D01*
X110026319Y-76236319D01*
X110453681Y-76663681D01*
X110487166Y-76725004D01*
X110490000Y-76751362D01*
X110490000Y-80093638D01*
X110470315Y-80160677D01*
X110453681Y-80181319D01*
X110026319Y-80608681D01*
X109964996Y-80642166D01*
X109938638Y-80645000D01*
X106045000Y-80645000D01*
X106045000Y-86360000D01*
X106455554Y-86360000D01*
X106498888Y-86367819D01*
X106542508Y-86384088D01*
X106542511Y-86384088D01*
X106542517Y-86384091D01*
X106602127Y-86390500D01*
X109297872Y-86390499D01*
X109357483Y-86384091D01*
X109401114Y-86367817D01*
X109444446Y-86360000D01*
X114865325Y-86360000D01*
X114884722Y-86361526D01*
X115067648Y-86390500D01*
X115067649Y-86390500D01*
X116072351Y-86390500D01*
X116072352Y-86390500D01*
X116255277Y-86361526D01*
X116274675Y-86360000D01*
X122485325Y-86360000D01*
X122504722Y-86361526D01*
X122687648Y-86390500D01*
X122687649Y-86390500D01*
X123692351Y-86390500D01*
X123692352Y-86390500D01*
X123875277Y-86361526D01*
X123894675Y-86360000D01*
X125095000Y-86360000D01*
X125095000Y-68580000D01*
X124595000Y-68580000D01*
X123894675Y-68580000D01*
X123875277Y-68578473D01*
X123835558Y-68572182D01*
X123692352Y-68549500D01*
X122687648Y-68549500D01*
X122544442Y-68572182D01*
X122504723Y-68578473D01*
X122485325Y-68580000D01*
X116753159Y-68580000D01*
X116714156Y-68573706D01*
X116672801Y-68560002D01*
X116672798Y-68560001D01*
X116672797Y-68560001D01*
X116672793Y-68560000D01*
X116672790Y-68560000D01*
X116570010Y-68549500D01*
X114569998Y-68549500D01*
X114569981Y-68549501D01*
X114467203Y-68560000D01*
X114435151Y-68570621D01*
X114425843Y-68573706D01*
X114386840Y-68580000D01*
X109444446Y-68580000D01*
X109401112Y-68572181D01*
X109357491Y-68555911D01*
X109357480Y-68555908D01*
X109297883Y-68549501D01*
X109297881Y-68549500D01*
X109297873Y-68549500D01*
X109297864Y-68549500D01*
X106602129Y-68549500D01*
X106602123Y-68549501D01*
X106542518Y-68555908D01*
X106517164Y-68565365D01*
X106498885Y-68572182D01*
X106455554Y-68580000D01*
X106045000Y-68580000D01*
X106045000Y-75013638D01*
X106025315Y-75080677D01*
X106008681Y-75101319D01*
X105581319Y-75528681D01*
X105519996Y-75562166D01*
X105493638Y-75565000D01*
X102151362Y-75565000D01*
X102084323Y-75545315D01*
X102063681Y-75528681D01*
X101636319Y-75101319D01*
X101602834Y-75039996D01*
X101600000Y-75013638D01*
X101600000Y-73810255D01*
X101619685Y-73743216D01*
X101672489Y-73697461D01*
X101710747Y-73686965D01*
X101737483Y-73684091D01*
X101872328Y-73633797D01*
X101872327Y-73633797D01*
X101872331Y-73633796D01*
X101987546Y-73547546D01*
X102073796Y-73432331D01*
X102124091Y-73297483D01*
X102130500Y-73237873D01*
X102130499Y-71542128D01*
X102124091Y-71482517D01*
X102073796Y-71347669D01*
X102073795Y-71347668D01*
X102073793Y-71347664D01*
X101987547Y-71232455D01*
X101987544Y-71232452D01*
X101872335Y-71146206D01*
X101872328Y-71146202D01*
X101737482Y-71095908D01*
X101737483Y-71095908D01*
X101710745Y-71093034D01*
X101708625Y-71092156D01*
X101706353Y-71092483D01*
X101676495Y-71078847D01*
X101646193Y-71066296D01*
X101644884Y-71064411D01*
X101642797Y-71063458D01*
X101625062Y-71035861D01*
X101606345Y-71008904D01*
X101605875Y-71006006D01*
X101605023Y-71004680D01*
X101600000Y-70969745D01*
X101600000Y-70961249D01*
X101619685Y-70894210D01*
X101651113Y-70860932D01*
X101677219Y-70841966D01*
X101821966Y-70697219D01*
X101821968Y-70697215D01*
X101821971Y-70697213D01*
X101874732Y-70624590D01*
X101942287Y-70531610D01*
X102035220Y-70349219D01*
X102098477Y-70154534D01*
X102130500Y-69952352D01*
X102130500Y-69747648D01*
X102113703Y-69641599D01*
X102098477Y-69545465D01*
X102035218Y-69350776D01*
X101983865Y-69249991D01*
X101942287Y-69168390D01*
X101926894Y-69147203D01*
X101821971Y-69002786D01*
X101677220Y-68858035D01*
X101651114Y-68839068D01*
X101608449Y-68783737D01*
X101600000Y-68738750D01*
X101600000Y-65321362D01*
X101619685Y-65254323D01*
X101636319Y-65233681D01*
X102063681Y-64806319D01*
X102125004Y-64772834D01*
X102151362Y-64770000D01*
X128353638Y-64770000D01*
X128420677Y-64789685D01*
X128441319Y-64806319D01*
X128868681Y-65233681D01*
X128902166Y-65295004D01*
X128905000Y-65321362D01*
X128905000Y-76200000D01*
X130005325Y-76200000D01*
X130024722Y-76201526D01*
X130207648Y-76230500D01*
X130207649Y-76230500D01*
X131412351Y-76230500D01*
X131412352Y-76230500D01*
X131595277Y-76201526D01*
X131614675Y-76200000D01*
X135973638Y-76200000D01*
X136040677Y-76219685D01*
X136061319Y-76236319D01*
X136488681Y-76663681D01*
X136522166Y-76725004D01*
X136525000Y-76751362D01*
X136525000Y-86360000D01*
X137725325Y-86360000D01*
X137744722Y-86361526D01*
X137927648Y-86390500D01*
X137927649Y-86390500D01*
X138932351Y-86390500D01*
X138932352Y-86390500D01*
X139115277Y-86361526D01*
X139134675Y-86360000D01*
X140335000Y-86360000D01*
X140335000Y-71036362D01*
X140354685Y-70969323D01*
X140371319Y-70948681D01*
X140798681Y-70521319D01*
X140860004Y-70487834D01*
X140886362Y-70485000D01*
X143593638Y-70485000D01*
X143660677Y-70504685D01*
X143681319Y-70521319D01*
X144108681Y-70948681D01*
X144142166Y-71010004D01*
X144145000Y-71036362D01*
X144145000Y-86360000D01*
X145345325Y-86360000D01*
X145364722Y-86361526D01*
X145547648Y-86390500D01*
X145547649Y-86390500D01*
X146552351Y-86390500D01*
X146552352Y-86390500D01*
X146735277Y-86361526D01*
X146754675Y-86360000D01*
X151765000Y-86360000D01*
X151765000Y-81831362D01*
X151784685Y-81764323D01*
X151801319Y-81743681D01*
X152228681Y-81316319D01*
X152290004Y-81282834D01*
X152316362Y-81280000D01*
X153035000Y-81280000D01*
X153035000Y-74211362D01*
X153054685Y-74144323D01*
X153071319Y-74123681D01*
X153468181Y-73726819D01*
X153529504Y-73693334D01*
X153555862Y-73690500D01*
X154272351Y-73690500D01*
X154272352Y-73690500D01*
X154455277Y-73661526D01*
X154474675Y-73660000D01*
X155575000Y-73660000D01*
X155575000Y-68580000D01*
X155164446Y-68580000D01*
X155121112Y-68572181D01*
X155077491Y-68555911D01*
X155077480Y-68555908D01*
X155017883Y-68549501D01*
X155017881Y-68549500D01*
X155017873Y-68549500D01*
X155017864Y-68549500D01*
X152322129Y-68549500D01*
X152322123Y-68549501D01*
X152262518Y-68555908D01*
X152237164Y-68565365D01*
X152218885Y-68572182D01*
X152175554Y-68580000D01*
X151354446Y-68580000D01*
X151311112Y-68572181D01*
X151267491Y-68555911D01*
X151267480Y-68555908D01*
X151207883Y-68549501D01*
X151207881Y-68549500D01*
X151207873Y-68549500D01*
X151207864Y-68549500D01*
X148512129Y-68549500D01*
X148512123Y-68549501D01*
X148452518Y-68555908D01*
X148427164Y-68565365D01*
X148408885Y-68572182D01*
X148365554Y-68580000D01*
X146754675Y-68580000D01*
X146735277Y-68578473D01*
X146695558Y-68572182D01*
X146552352Y-68549500D01*
X145547648Y-68549500D01*
X145404442Y-68572182D01*
X145364723Y-68578473D01*
X145345325Y-68580000D01*
X143426362Y-68580000D01*
X143359323Y-68560315D01*
X143338681Y-68543681D01*
X142911319Y-68116319D01*
X142877834Y-68054996D01*
X142875000Y-68028638D01*
X142875000Y-65387755D01*
X142894685Y-65320716D01*
X142897433Y-65316939D01*
X142900622Y-65312165D01*
X142900626Y-65312162D01*
X142993703Y-65172863D01*
X143057816Y-65018082D01*
X143090500Y-64853767D01*
X143090500Y-64686233D01*
X143057816Y-64521918D01*
X142993703Y-64367137D01*
X142900626Y-64227838D01*
X142897242Y-64222773D01*
X142899147Y-64221499D01*
X142875832Y-64166587D01*
X142875000Y-64152244D01*
X142875000Y-63500000D01*
X142375000Y-63500000D01*
X130726362Y-63500000D01*
X130659323Y-63480315D01*
X130638681Y-63463681D01*
X130211319Y-63036319D01*
X130177834Y-62974996D01*
X130175000Y-62948638D01*
X130175000Y-62230000D01*
X129675000Y-62230000D01*
X127952500Y-62230000D01*
X127635000Y-62230000D01*
X127635000Y-62496138D01*
X127615315Y-62563177D01*
X127598681Y-62583819D01*
X127353819Y-62828681D01*
X127292496Y-62862166D01*
X127266138Y-62865000D01*
X125011362Y-62865000D01*
X124944323Y-62845315D01*
X124923681Y-62828681D01*
X124496319Y-62401319D01*
X124462834Y-62339996D01*
X124460000Y-62313638D01*
X124460000Y-61963862D01*
X124479685Y-61896823D01*
X124496319Y-61876181D01*
X124741181Y-61631319D01*
X124802504Y-61597834D01*
X124828862Y-61595000D01*
X125095000Y-61595000D01*
X125095000Y-53975000D01*
X124595000Y-53975000D01*
X118026362Y-53975000D01*
X117959323Y-53955315D01*
X117938681Y-53938681D01*
X117511319Y-53511319D01*
X117477834Y-53449996D01*
X117475000Y-53423638D01*
X117475000Y-50800000D01*
X117064446Y-50800000D01*
X117021112Y-50792181D01*
X116977491Y-50775911D01*
X116977480Y-50775908D01*
X116917883Y-50769501D01*
X116917881Y-50769500D01*
X116917873Y-50769500D01*
X116917864Y-50769500D01*
X114222129Y-50769500D01*
X114222123Y-50769501D01*
X114162518Y-50775908D01*
X114137164Y-50785365D01*
X114118885Y-50792182D01*
X114075554Y-50800000D01*
X113665000Y-50800000D01*
X113665000Y-55245000D01*
X106045000Y-55245000D01*
X106045000Y-58420000D01*
X106045000Y-62313638D01*
X106025315Y-62380677D01*
X106008681Y-62401319D01*
X105581319Y-62828681D01*
X105519996Y-62862166D01*
X105493638Y-62865000D01*
X101516362Y-62865000D01*
X101449323Y-62845315D01*
X101428681Y-62828681D01*
X101001319Y-62401319D01*
X100967834Y-62339996D01*
X100965000Y-62313638D01*
X100965000Y-61511361D01*
X100984685Y-61444322D01*
X101001314Y-61423685D01*
X101398183Y-61026816D01*
X101459504Y-60993333D01*
X101485861Y-60990499D01*
X101677872Y-60990499D01*
X101737483Y-60984091D01*
X101781114Y-60967817D01*
X101824446Y-60960000D01*
X102235000Y-60960000D01*
X102235000Y-58420000D01*
X101824446Y-58420000D01*
X101781112Y-58412181D01*
X101737491Y-58395911D01*
X101737480Y-58395908D01*
X101677883Y-58389501D01*
X101677881Y-58389500D01*
X101677873Y-58389500D01*
X101677865Y-58389500D01*
X99580862Y-58389500D01*
X99513823Y-58369815D01*
X99493181Y-58353181D01*
X99096319Y-57956319D01*
X99062834Y-57894996D01*
X99060000Y-57868638D01*
X99060000Y-56431362D01*
X99079685Y-56364323D01*
X99096319Y-56343681D01*
X99523681Y-55916319D01*
X99585004Y-55882834D01*
X99611362Y-55880000D01*
X102235000Y-55880000D01*
X102235000Y-50800000D01*
X101824446Y-50800000D01*
X101781112Y-50792181D01*
X101737491Y-50775911D01*
X101737480Y-50775908D01*
X101677883Y-50769501D01*
X101677881Y-50769500D01*
X101677873Y-50769500D01*
X101677865Y-50769500D01*
X99580862Y-50769500D01*
X99513823Y-50749815D01*
X99493181Y-50733181D01*
X99096319Y-50336319D01*
X99062834Y-50274996D01*
X99060000Y-50248638D01*
X99060000Y-46906362D01*
X99079685Y-46839323D01*
X99096319Y-46818681D01*
X99523681Y-46391319D01*
X99585004Y-46357834D01*
X99611362Y-46355000D01*
X102235000Y-46355000D01*
X102235000Y-43180000D01*
X101824446Y-43180000D01*
X101781112Y-43172181D01*
X101737491Y-43155911D01*
X101737480Y-43155908D01*
X101677883Y-43149501D01*
X101677881Y-43149500D01*
X101677873Y-43149500D01*
X101677865Y-43149500D01*
X99580862Y-43149500D01*
X99513823Y-43129815D01*
X99493181Y-43113181D01*
X99096319Y-42716319D01*
X99062834Y-42654996D01*
X99060000Y-42628638D01*
X99060000Y-41191362D01*
X99079685Y-41124323D01*
X99096319Y-41103681D01*
X99523681Y-40676319D01*
X99585004Y-40642834D01*
X99611362Y-40640000D01*
X109303638Y-40640000D01*
X109370677Y-40659685D01*
G37*
%TD.AperFunction*%
%TD*%
M02*
