%TF.GenerationSoftware,KiCad,Pcbnew,9.0.8*%
%TF.CreationDate,2026-03-16T22:11:25+01:00*%
%TF.ProjectId,Output,4f757470-7574-42e6-9b69-6361645f7063,1*%
%TF.SameCoordinates,Original*%
%TF.FileFunction,Legend,Top*%
%TF.FilePolarity,Positive*%
%FSLAX46Y46*%
G04 Gerber Fmt 4.6, Leading zero omitted, Abs format (unit mm)*
G04 Created by KiCad (PCBNEW 9.0.8) date 2026-03-16 22:11:25*
%MOMM*%
%LPD*%
G01*
G04 APERTURE LIST*
%ADD10C,0.200000*%
%ADD11C,0.125000*%
%ADD12C,0.300000*%
%ADD13C,0.150000*%
%ADD14C,0.120000*%
G04 APERTURE END LIST*
D10*
X157162500Y-113347500D02*
X157162500Y-113982500D01*
X157162500Y-113982500D02*
X156527500Y-114617500D01*
X157162500Y-120332500D02*
X157162500Y-120967500D01*
X157162500Y-120967500D02*
X156527500Y-121602500D01*
D11*
X156266759Y-73519685D02*
X155809616Y-73519685D01*
X156038188Y-73519685D02*
X156038188Y-72719685D01*
X156038188Y-72719685D02*
X155961997Y-72833970D01*
X155961997Y-72833970D02*
X155885807Y-72910161D01*
X155885807Y-72910161D02*
X155809616Y-72948256D01*
X156952474Y-72719685D02*
X156800093Y-72719685D01*
X156800093Y-72719685D02*
X156723902Y-72757780D01*
X156723902Y-72757780D02*
X156685807Y-72795875D01*
X156685807Y-72795875D02*
X156609617Y-72910161D01*
X156609617Y-72910161D02*
X156571521Y-73062542D01*
X156571521Y-73062542D02*
X156571521Y-73367304D01*
X156571521Y-73367304D02*
X156609617Y-73443494D01*
X156609617Y-73443494D02*
X156647712Y-73481590D01*
X156647712Y-73481590D02*
X156723902Y-73519685D01*
X156723902Y-73519685D02*
X156876283Y-73519685D01*
X156876283Y-73519685D02*
X156952474Y-73481590D01*
X156952474Y-73481590D02*
X156990569Y-73443494D01*
X156990569Y-73443494D02*
X157028664Y-73367304D01*
X157028664Y-73367304D02*
X157028664Y-73176828D01*
X157028664Y-73176828D02*
X156990569Y-73100637D01*
X156990569Y-73100637D02*
X156952474Y-73062542D01*
X156952474Y-73062542D02*
X156876283Y-73024447D01*
X156876283Y-73024447D02*
X156723902Y-73024447D01*
X156723902Y-73024447D02*
X156647712Y-73062542D01*
X156647712Y-73062542D02*
X156609617Y-73100637D01*
X156609617Y-73100637D02*
X156571521Y-73176828D01*
X155809616Y-74083830D02*
X155847712Y-74045735D01*
X155847712Y-74045735D02*
X155923902Y-74007640D01*
X155923902Y-74007640D02*
X156114378Y-74007640D01*
X156114378Y-74007640D02*
X156190569Y-74045735D01*
X156190569Y-74045735D02*
X156228664Y-74083830D01*
X156228664Y-74083830D02*
X156266759Y-74160021D01*
X156266759Y-74160021D02*
X156266759Y-74236211D01*
X156266759Y-74236211D02*
X156228664Y-74350497D01*
X156228664Y-74350497D02*
X155771521Y-74807640D01*
X155771521Y-74807640D02*
X156266759Y-74807640D01*
X156990569Y-74007640D02*
X156609617Y-74007640D01*
X156609617Y-74007640D02*
X156571521Y-74388592D01*
X156571521Y-74388592D02*
X156609617Y-74350497D01*
X156609617Y-74350497D02*
X156685807Y-74312402D01*
X156685807Y-74312402D02*
X156876283Y-74312402D01*
X156876283Y-74312402D02*
X156952474Y-74350497D01*
X156952474Y-74350497D02*
X156990569Y-74388592D01*
X156990569Y-74388592D02*
X157028664Y-74464783D01*
X157028664Y-74464783D02*
X157028664Y-74655259D01*
X157028664Y-74655259D02*
X156990569Y-74731449D01*
X156990569Y-74731449D02*
X156952474Y-74769545D01*
X156952474Y-74769545D02*
X156876283Y-74807640D01*
X156876283Y-74807640D02*
X156685807Y-74807640D01*
X156685807Y-74807640D02*
X156609617Y-74769545D01*
X156609617Y-74769545D02*
X156571521Y-74731449D01*
X155771521Y-75295595D02*
X156266759Y-75295595D01*
X156266759Y-75295595D02*
X156000093Y-75600357D01*
X156000093Y-75600357D02*
X156114378Y-75600357D01*
X156114378Y-75600357D02*
X156190569Y-75638452D01*
X156190569Y-75638452D02*
X156228664Y-75676547D01*
X156228664Y-75676547D02*
X156266759Y-75752738D01*
X156266759Y-75752738D02*
X156266759Y-75943214D01*
X156266759Y-75943214D02*
X156228664Y-76019404D01*
X156228664Y-76019404D02*
X156190569Y-76057500D01*
X156190569Y-76057500D02*
X156114378Y-76095595D01*
X156114378Y-76095595D02*
X155885807Y-76095595D01*
X155885807Y-76095595D02*
X155809616Y-76057500D01*
X155809616Y-76057500D02*
X155771521Y-76019404D01*
X156952474Y-75562261D02*
X156952474Y-76095595D01*
X156761998Y-75257500D02*
X156571521Y-75828928D01*
X156571521Y-75828928D02*
X157066760Y-75828928D01*
X155771521Y-131139685D02*
X156266759Y-131139685D01*
X156266759Y-131139685D02*
X156000093Y-131444447D01*
X156000093Y-131444447D02*
X156114378Y-131444447D01*
X156114378Y-131444447D02*
X156190569Y-131482542D01*
X156190569Y-131482542D02*
X156228664Y-131520637D01*
X156228664Y-131520637D02*
X156266759Y-131596828D01*
X156266759Y-131596828D02*
X156266759Y-131787304D01*
X156266759Y-131787304D02*
X156228664Y-131863494D01*
X156228664Y-131863494D02*
X156190569Y-131901590D01*
X156190569Y-131901590D02*
X156114378Y-131939685D01*
X156114378Y-131939685D02*
X155885807Y-131939685D01*
X155885807Y-131939685D02*
X155809616Y-131901590D01*
X155809616Y-131901590D02*
X155771521Y-131863494D01*
X156952474Y-131406351D02*
X156952474Y-131939685D01*
X156761998Y-131101590D02*
X156571521Y-131673018D01*
X156571521Y-131673018D02*
X157066760Y-131673018D01*
X155809616Y-132503830D02*
X155847712Y-132465735D01*
X155847712Y-132465735D02*
X155923902Y-132427640D01*
X155923902Y-132427640D02*
X156114378Y-132427640D01*
X156114378Y-132427640D02*
X156190569Y-132465735D01*
X156190569Y-132465735D02*
X156228664Y-132503830D01*
X156228664Y-132503830D02*
X156266759Y-132580021D01*
X156266759Y-132580021D02*
X156266759Y-132656211D01*
X156266759Y-132656211D02*
X156228664Y-132770497D01*
X156228664Y-132770497D02*
X155771521Y-133227640D01*
X155771521Y-133227640D02*
X156266759Y-133227640D01*
X156990569Y-132427640D02*
X156609617Y-132427640D01*
X156609617Y-132427640D02*
X156571521Y-132808592D01*
X156571521Y-132808592D02*
X156609617Y-132770497D01*
X156609617Y-132770497D02*
X156685807Y-132732402D01*
X156685807Y-132732402D02*
X156876283Y-132732402D01*
X156876283Y-132732402D02*
X156952474Y-132770497D01*
X156952474Y-132770497D02*
X156990569Y-132808592D01*
X156990569Y-132808592D02*
X157028664Y-132884783D01*
X157028664Y-132884783D02*
X157028664Y-133075259D01*
X157028664Y-133075259D02*
X156990569Y-133151449D01*
X156990569Y-133151449D02*
X156952474Y-133189545D01*
X156952474Y-133189545D02*
X156876283Y-133227640D01*
X156876283Y-133227640D02*
X156685807Y-133227640D01*
X156685807Y-133227640D02*
X156609617Y-133189545D01*
X156609617Y-133189545D02*
X156571521Y-133151449D01*
X156266759Y-134515595D02*
X155809616Y-134515595D01*
X156038188Y-134515595D02*
X156038188Y-133715595D01*
X156038188Y-133715595D02*
X155961997Y-133829880D01*
X155961997Y-133829880D02*
X155885807Y-133906071D01*
X155885807Y-133906071D02*
X155809616Y-133944166D01*
X156952474Y-133715595D02*
X156800093Y-133715595D01*
X156800093Y-133715595D02*
X156723902Y-133753690D01*
X156723902Y-133753690D02*
X156685807Y-133791785D01*
X156685807Y-133791785D02*
X156609617Y-133906071D01*
X156609617Y-133906071D02*
X156571521Y-134058452D01*
X156571521Y-134058452D02*
X156571521Y-134363214D01*
X156571521Y-134363214D02*
X156609617Y-134439404D01*
X156609617Y-134439404D02*
X156647712Y-134477500D01*
X156647712Y-134477500D02*
X156723902Y-134515595D01*
X156723902Y-134515595D02*
X156876283Y-134515595D01*
X156876283Y-134515595D02*
X156952474Y-134477500D01*
X156952474Y-134477500D02*
X156990569Y-134439404D01*
X156990569Y-134439404D02*
X157028664Y-134363214D01*
X157028664Y-134363214D02*
X157028664Y-134172738D01*
X157028664Y-134172738D02*
X156990569Y-134096547D01*
X156990569Y-134096547D02*
X156952474Y-134058452D01*
X156952474Y-134058452D02*
X156876283Y-134020357D01*
X156876283Y-134020357D02*
X156723902Y-134020357D01*
X156723902Y-134020357D02*
X156647712Y-134058452D01*
X156647712Y-134058452D02*
X156609617Y-134096547D01*
X156609617Y-134096547D02*
X156571521Y-134172738D01*
X156266759Y-142099685D02*
X155809616Y-142099685D01*
X156038188Y-142099685D02*
X156038188Y-141299685D01*
X156038188Y-141299685D02*
X155961997Y-141413970D01*
X155961997Y-141413970D02*
X155885807Y-141490161D01*
X155885807Y-141490161D02*
X155809616Y-141528256D01*
X156952474Y-141299685D02*
X156800093Y-141299685D01*
X156800093Y-141299685D02*
X156723902Y-141337780D01*
X156723902Y-141337780D02*
X156685807Y-141375875D01*
X156685807Y-141375875D02*
X156609617Y-141490161D01*
X156609617Y-141490161D02*
X156571521Y-141642542D01*
X156571521Y-141642542D02*
X156571521Y-141947304D01*
X156571521Y-141947304D02*
X156609617Y-142023494D01*
X156609617Y-142023494D02*
X156647712Y-142061590D01*
X156647712Y-142061590D02*
X156723902Y-142099685D01*
X156723902Y-142099685D02*
X156876283Y-142099685D01*
X156876283Y-142099685D02*
X156952474Y-142061590D01*
X156952474Y-142061590D02*
X156990569Y-142023494D01*
X156990569Y-142023494D02*
X157028664Y-141947304D01*
X157028664Y-141947304D02*
X157028664Y-141756828D01*
X157028664Y-141756828D02*
X156990569Y-141680637D01*
X156990569Y-141680637D02*
X156952474Y-141642542D01*
X156952474Y-141642542D02*
X156876283Y-141604447D01*
X156876283Y-141604447D02*
X156723902Y-141604447D01*
X156723902Y-141604447D02*
X156647712Y-141642542D01*
X156647712Y-141642542D02*
X156609617Y-141680637D01*
X156609617Y-141680637D02*
X156571521Y-141756828D01*
X155809616Y-142663830D02*
X155847712Y-142625735D01*
X155847712Y-142625735D02*
X155923902Y-142587640D01*
X155923902Y-142587640D02*
X156114378Y-142587640D01*
X156114378Y-142587640D02*
X156190569Y-142625735D01*
X156190569Y-142625735D02*
X156228664Y-142663830D01*
X156228664Y-142663830D02*
X156266759Y-142740021D01*
X156266759Y-142740021D02*
X156266759Y-142816211D01*
X156266759Y-142816211D02*
X156228664Y-142930497D01*
X156228664Y-142930497D02*
X155771521Y-143387640D01*
X155771521Y-143387640D02*
X156266759Y-143387640D01*
X156990569Y-142587640D02*
X156609617Y-142587640D01*
X156609617Y-142587640D02*
X156571521Y-142968592D01*
X156571521Y-142968592D02*
X156609617Y-142930497D01*
X156609617Y-142930497D02*
X156685807Y-142892402D01*
X156685807Y-142892402D02*
X156876283Y-142892402D01*
X156876283Y-142892402D02*
X156952474Y-142930497D01*
X156952474Y-142930497D02*
X156990569Y-142968592D01*
X156990569Y-142968592D02*
X157028664Y-143044783D01*
X157028664Y-143044783D02*
X157028664Y-143235259D01*
X157028664Y-143235259D02*
X156990569Y-143311449D01*
X156990569Y-143311449D02*
X156952474Y-143349545D01*
X156952474Y-143349545D02*
X156876283Y-143387640D01*
X156876283Y-143387640D02*
X156685807Y-143387640D01*
X156685807Y-143387640D02*
X156609617Y-143349545D01*
X156609617Y-143349545D02*
X156571521Y-143311449D01*
X155771521Y-143875595D02*
X156266759Y-143875595D01*
X156266759Y-143875595D02*
X156000093Y-144180357D01*
X156000093Y-144180357D02*
X156114378Y-144180357D01*
X156114378Y-144180357D02*
X156190569Y-144218452D01*
X156190569Y-144218452D02*
X156228664Y-144256547D01*
X156228664Y-144256547D02*
X156266759Y-144332738D01*
X156266759Y-144332738D02*
X156266759Y-144523214D01*
X156266759Y-144523214D02*
X156228664Y-144599404D01*
X156228664Y-144599404D02*
X156190569Y-144637500D01*
X156190569Y-144637500D02*
X156114378Y-144675595D01*
X156114378Y-144675595D02*
X155885807Y-144675595D01*
X155885807Y-144675595D02*
X155809616Y-144637500D01*
X155809616Y-144637500D02*
X155771521Y-144599404D01*
X156952474Y-144142261D02*
X156952474Y-144675595D01*
X156761998Y-143837500D02*
X156571521Y-144408928D01*
X156571521Y-144408928D02*
X157066760Y-144408928D01*
X182441521Y-101929685D02*
X182936759Y-101929685D01*
X182936759Y-101929685D02*
X182670093Y-102234447D01*
X182670093Y-102234447D02*
X182784378Y-102234447D01*
X182784378Y-102234447D02*
X182860569Y-102272542D01*
X182860569Y-102272542D02*
X182898664Y-102310637D01*
X182898664Y-102310637D02*
X182936759Y-102386828D01*
X182936759Y-102386828D02*
X182936759Y-102577304D01*
X182936759Y-102577304D02*
X182898664Y-102653494D01*
X182898664Y-102653494D02*
X182860569Y-102691590D01*
X182860569Y-102691590D02*
X182784378Y-102729685D01*
X182784378Y-102729685D02*
X182555807Y-102729685D01*
X182555807Y-102729685D02*
X182479616Y-102691590D01*
X182479616Y-102691590D02*
X182441521Y-102653494D01*
X183622474Y-102196351D02*
X183622474Y-102729685D01*
X183431998Y-101891590D02*
X183241521Y-102463018D01*
X183241521Y-102463018D02*
X183736760Y-102463018D01*
X182479616Y-103293830D02*
X182517712Y-103255735D01*
X182517712Y-103255735D02*
X182593902Y-103217640D01*
X182593902Y-103217640D02*
X182784378Y-103217640D01*
X182784378Y-103217640D02*
X182860569Y-103255735D01*
X182860569Y-103255735D02*
X182898664Y-103293830D01*
X182898664Y-103293830D02*
X182936759Y-103370021D01*
X182936759Y-103370021D02*
X182936759Y-103446211D01*
X182936759Y-103446211D02*
X182898664Y-103560497D01*
X182898664Y-103560497D02*
X182441521Y-104017640D01*
X182441521Y-104017640D02*
X182936759Y-104017640D01*
X183660569Y-103217640D02*
X183279617Y-103217640D01*
X183279617Y-103217640D02*
X183241521Y-103598592D01*
X183241521Y-103598592D02*
X183279617Y-103560497D01*
X183279617Y-103560497D02*
X183355807Y-103522402D01*
X183355807Y-103522402D02*
X183546283Y-103522402D01*
X183546283Y-103522402D02*
X183622474Y-103560497D01*
X183622474Y-103560497D02*
X183660569Y-103598592D01*
X183660569Y-103598592D02*
X183698664Y-103674783D01*
X183698664Y-103674783D02*
X183698664Y-103865259D01*
X183698664Y-103865259D02*
X183660569Y-103941449D01*
X183660569Y-103941449D02*
X183622474Y-103979545D01*
X183622474Y-103979545D02*
X183546283Y-104017640D01*
X183546283Y-104017640D02*
X183355807Y-104017640D01*
X183355807Y-104017640D02*
X183279617Y-103979545D01*
X183279617Y-103979545D02*
X183241521Y-103941449D01*
X182936759Y-105305595D02*
X182479616Y-105305595D01*
X182708188Y-105305595D02*
X182708188Y-104505595D01*
X182708188Y-104505595D02*
X182631997Y-104619880D01*
X182631997Y-104619880D02*
X182555807Y-104696071D01*
X182555807Y-104696071D02*
X182479616Y-104734166D01*
X183622474Y-104505595D02*
X183470093Y-104505595D01*
X183470093Y-104505595D02*
X183393902Y-104543690D01*
X183393902Y-104543690D02*
X183355807Y-104581785D01*
X183355807Y-104581785D02*
X183279617Y-104696071D01*
X183279617Y-104696071D02*
X183241521Y-104848452D01*
X183241521Y-104848452D02*
X183241521Y-105153214D01*
X183241521Y-105153214D02*
X183279617Y-105229404D01*
X183279617Y-105229404D02*
X183317712Y-105267500D01*
X183317712Y-105267500D02*
X183393902Y-105305595D01*
X183393902Y-105305595D02*
X183546283Y-105305595D01*
X183546283Y-105305595D02*
X183622474Y-105267500D01*
X183622474Y-105267500D02*
X183660569Y-105229404D01*
X183660569Y-105229404D02*
X183698664Y-105153214D01*
X183698664Y-105153214D02*
X183698664Y-104962738D01*
X183698664Y-104962738D02*
X183660569Y-104886547D01*
X183660569Y-104886547D02*
X183622474Y-104848452D01*
X183622474Y-104848452D02*
X183546283Y-104810357D01*
X183546283Y-104810357D02*
X183393902Y-104810357D01*
X183393902Y-104810357D02*
X183317712Y-104848452D01*
X183317712Y-104848452D02*
X183279617Y-104886547D01*
X183279617Y-104886547D02*
X183241521Y-104962738D01*
X182936759Y-112889685D02*
X182479616Y-112889685D01*
X182708188Y-112889685D02*
X182708188Y-112089685D01*
X182708188Y-112089685D02*
X182631997Y-112203970D01*
X182631997Y-112203970D02*
X182555807Y-112280161D01*
X182555807Y-112280161D02*
X182479616Y-112318256D01*
X183622474Y-112089685D02*
X183470093Y-112089685D01*
X183470093Y-112089685D02*
X183393902Y-112127780D01*
X183393902Y-112127780D02*
X183355807Y-112165875D01*
X183355807Y-112165875D02*
X183279617Y-112280161D01*
X183279617Y-112280161D02*
X183241521Y-112432542D01*
X183241521Y-112432542D02*
X183241521Y-112737304D01*
X183241521Y-112737304D02*
X183279617Y-112813494D01*
X183279617Y-112813494D02*
X183317712Y-112851590D01*
X183317712Y-112851590D02*
X183393902Y-112889685D01*
X183393902Y-112889685D02*
X183546283Y-112889685D01*
X183546283Y-112889685D02*
X183622474Y-112851590D01*
X183622474Y-112851590D02*
X183660569Y-112813494D01*
X183660569Y-112813494D02*
X183698664Y-112737304D01*
X183698664Y-112737304D02*
X183698664Y-112546828D01*
X183698664Y-112546828D02*
X183660569Y-112470637D01*
X183660569Y-112470637D02*
X183622474Y-112432542D01*
X183622474Y-112432542D02*
X183546283Y-112394447D01*
X183546283Y-112394447D02*
X183393902Y-112394447D01*
X183393902Y-112394447D02*
X183317712Y-112432542D01*
X183317712Y-112432542D02*
X183279617Y-112470637D01*
X183279617Y-112470637D02*
X183241521Y-112546828D01*
X182479616Y-113453830D02*
X182517712Y-113415735D01*
X182517712Y-113415735D02*
X182593902Y-113377640D01*
X182593902Y-113377640D02*
X182784378Y-113377640D01*
X182784378Y-113377640D02*
X182860569Y-113415735D01*
X182860569Y-113415735D02*
X182898664Y-113453830D01*
X182898664Y-113453830D02*
X182936759Y-113530021D01*
X182936759Y-113530021D02*
X182936759Y-113606211D01*
X182936759Y-113606211D02*
X182898664Y-113720497D01*
X182898664Y-113720497D02*
X182441521Y-114177640D01*
X182441521Y-114177640D02*
X182936759Y-114177640D01*
X183660569Y-113377640D02*
X183279617Y-113377640D01*
X183279617Y-113377640D02*
X183241521Y-113758592D01*
X183241521Y-113758592D02*
X183279617Y-113720497D01*
X183279617Y-113720497D02*
X183355807Y-113682402D01*
X183355807Y-113682402D02*
X183546283Y-113682402D01*
X183546283Y-113682402D02*
X183622474Y-113720497D01*
X183622474Y-113720497D02*
X183660569Y-113758592D01*
X183660569Y-113758592D02*
X183698664Y-113834783D01*
X183698664Y-113834783D02*
X183698664Y-114025259D01*
X183698664Y-114025259D02*
X183660569Y-114101449D01*
X183660569Y-114101449D02*
X183622474Y-114139545D01*
X183622474Y-114139545D02*
X183546283Y-114177640D01*
X183546283Y-114177640D02*
X183355807Y-114177640D01*
X183355807Y-114177640D02*
X183279617Y-114139545D01*
X183279617Y-114139545D02*
X183241521Y-114101449D01*
X182441521Y-114665595D02*
X182936759Y-114665595D01*
X182936759Y-114665595D02*
X182670093Y-114970357D01*
X182670093Y-114970357D02*
X182784378Y-114970357D01*
X182784378Y-114970357D02*
X182860569Y-115008452D01*
X182860569Y-115008452D02*
X182898664Y-115046547D01*
X182898664Y-115046547D02*
X182936759Y-115122738D01*
X182936759Y-115122738D02*
X182936759Y-115313214D01*
X182936759Y-115313214D02*
X182898664Y-115389404D01*
X182898664Y-115389404D02*
X182860569Y-115427500D01*
X182860569Y-115427500D02*
X182784378Y-115465595D01*
X182784378Y-115465595D02*
X182555807Y-115465595D01*
X182555807Y-115465595D02*
X182479616Y-115427500D01*
X182479616Y-115427500D02*
X182441521Y-115389404D01*
X183622474Y-114932261D02*
X183622474Y-115465595D01*
X183431998Y-114627500D02*
X183241521Y-115198928D01*
X183241521Y-115198928D02*
X183736760Y-115198928D01*
D12*
X98979510Y-61887971D02*
X99050939Y-61959400D01*
X99050939Y-61959400D02*
X98979510Y-62030828D01*
X98979510Y-62030828D02*
X98908082Y-61959400D01*
X98908082Y-61959400D02*
X98979510Y-61887971D01*
X98979510Y-61887971D02*
X98979510Y-62030828D01*
X98979510Y-74587971D02*
X99050939Y-74659400D01*
X99050939Y-74659400D02*
X98979510Y-74730828D01*
X98979510Y-74730828D02*
X98908082Y-74659400D01*
X98908082Y-74659400D02*
X98979510Y-74587971D01*
X98979510Y-74587971D02*
X98979510Y-74730828D01*
X98979510Y-79667971D02*
X99050939Y-79739400D01*
X99050939Y-79739400D02*
X98979510Y-79810828D01*
X98979510Y-79810828D02*
X98908082Y-79739400D01*
X98908082Y-79739400D02*
X98979510Y-79667971D01*
X98979510Y-79667971D02*
X98979510Y-79810828D01*
X98979510Y-108877971D02*
X99050939Y-108949400D01*
X99050939Y-108949400D02*
X98979510Y-109020828D01*
X98979510Y-109020828D02*
X98908082Y-108949400D01*
X98908082Y-108949400D02*
X98979510Y-108877971D01*
X98979510Y-108877971D02*
X98979510Y-109020828D01*
X98979510Y-125387971D02*
X99050939Y-125459400D01*
X99050939Y-125459400D02*
X98979510Y-125530828D01*
X98979510Y-125530828D02*
X98908082Y-125459400D01*
X98908082Y-125459400D02*
X98979510Y-125387971D01*
X98979510Y-125387971D02*
X98979510Y-125530828D01*
X98979510Y-138087971D02*
X99050939Y-138159400D01*
X99050939Y-138159400D02*
X98979510Y-138230828D01*
X98979510Y-138230828D02*
X98908082Y-138159400D01*
X98908082Y-138159400D02*
X98979510Y-138087971D01*
X98979510Y-138087971D02*
X98979510Y-138230828D01*
X99106510Y-46393971D02*
X99177939Y-46465400D01*
X99177939Y-46465400D02*
X99106510Y-46536828D01*
X99106510Y-46536828D02*
X99035082Y-46465400D01*
X99035082Y-46465400D02*
X99106510Y-46393971D01*
X99106510Y-46393971D02*
X99106510Y-46536828D01*
X99106510Y-54013971D02*
X99177939Y-54085400D01*
X99177939Y-54085400D02*
X99106510Y-54156828D01*
X99106510Y-54156828D02*
X99035082Y-54085400D01*
X99035082Y-54085400D02*
X99106510Y-54013971D01*
X99106510Y-54013971D02*
X99106510Y-54156828D01*
X105964510Y-66967971D02*
X106035939Y-67039400D01*
X106035939Y-67039400D02*
X105964510Y-67110828D01*
X105964510Y-67110828D02*
X105893082Y-67039400D01*
X105893082Y-67039400D02*
X105964510Y-66967971D01*
X105964510Y-66967971D02*
X105964510Y-67110828D01*
X105964510Y-96177971D02*
X106035939Y-96249400D01*
X106035939Y-96249400D02*
X105964510Y-96320828D01*
X105964510Y-96320828D02*
X105893082Y-96249400D01*
X105893082Y-96249400D02*
X105964510Y-96177971D01*
X105964510Y-96177971D02*
X105964510Y-96320828D01*
X105964510Y-125387971D02*
X106035939Y-125459400D01*
X106035939Y-125459400D02*
X105964510Y-125530828D01*
X105964510Y-125530828D02*
X105893082Y-125459400D01*
X105893082Y-125459400D02*
X105964510Y-125387971D01*
X105964510Y-125387971D02*
X105964510Y-125530828D01*
X106599510Y-46647971D02*
X106670939Y-46719400D01*
X106670939Y-46719400D02*
X106599510Y-46790828D01*
X106599510Y-46790828D02*
X106528082Y-46719400D01*
X106528082Y-46719400D02*
X106599510Y-46647971D01*
X106599510Y-46647971D02*
X106599510Y-46790828D01*
X106599510Y-61887971D02*
X106670939Y-61959400D01*
X106670939Y-61959400D02*
X106599510Y-62030828D01*
X106599510Y-62030828D02*
X106528082Y-61959400D01*
X106528082Y-61959400D02*
X106599510Y-61887971D01*
X106599510Y-61887971D02*
X106599510Y-62030828D01*
X107234510Y-87287971D02*
X107305939Y-87359400D01*
X107305939Y-87359400D02*
X107234510Y-87430828D01*
X107234510Y-87430828D02*
X107163082Y-87359400D01*
X107163082Y-87359400D02*
X107234510Y-87287971D01*
X107234510Y-87287971D02*
X107234510Y-87430828D01*
X107234510Y-116497971D02*
X107305939Y-116569400D01*
X107305939Y-116569400D02*
X107234510Y-116640828D01*
X107234510Y-116640828D02*
X107163082Y-116569400D01*
X107163082Y-116569400D02*
X107234510Y-116497971D01*
X107234510Y-116497971D02*
X107234510Y-116640828D01*
X107234510Y-145707971D02*
X107305939Y-145779400D01*
X107305939Y-145779400D02*
X107234510Y-145850828D01*
X107234510Y-145850828D02*
X107163082Y-145779400D01*
X107163082Y-145779400D02*
X107234510Y-145707971D01*
X107234510Y-145707971D02*
X107234510Y-145850828D01*
X109774510Y-96177971D02*
X109845939Y-96249400D01*
X109845939Y-96249400D02*
X109774510Y-96320828D01*
X109774510Y-96320828D02*
X109703082Y-96249400D01*
X109703082Y-96249400D02*
X109774510Y-96177971D01*
X109774510Y-96177971D02*
X109774510Y-96320828D01*
X109774510Y-125387971D02*
X109845939Y-125459400D01*
X109845939Y-125459400D02*
X109774510Y-125530828D01*
X109774510Y-125530828D02*
X109703082Y-125459400D01*
X109703082Y-125459400D02*
X109774510Y-125387971D01*
X109774510Y-125387971D02*
X109774510Y-125530828D01*
X111044510Y-116497971D02*
X111115939Y-116569400D01*
X111115939Y-116569400D02*
X111044510Y-116640828D01*
X111044510Y-116640828D02*
X110973082Y-116569400D01*
X110973082Y-116569400D02*
X111044510Y-116497971D01*
X111044510Y-116497971D02*
X111044510Y-116640828D01*
X111044510Y-145707971D02*
X111115939Y-145779400D01*
X111115939Y-145779400D02*
X111044510Y-145850828D01*
X111044510Y-145850828D02*
X110973082Y-145779400D01*
X110973082Y-145779400D02*
X111044510Y-145707971D01*
X111044510Y-145707971D02*
X111044510Y-145850828D01*
X113838510Y-66967971D02*
X113909939Y-67039400D01*
X113909939Y-67039400D02*
X113838510Y-67110828D01*
X113838510Y-67110828D02*
X113767082Y-67039400D01*
X113767082Y-67039400D02*
X113838510Y-66967971D01*
X113838510Y-66967971D02*
X113838510Y-67110828D01*
X113838510Y-96177971D02*
X113909939Y-96249400D01*
X113909939Y-96249400D02*
X113838510Y-96320828D01*
X113838510Y-96320828D02*
X113767082Y-96249400D01*
X113767082Y-96249400D02*
X113838510Y-96177971D01*
X113838510Y-96177971D02*
X113838510Y-96320828D01*
X114219510Y-61887971D02*
X114290939Y-61959400D01*
X114290939Y-61959400D02*
X114219510Y-62030828D01*
X114219510Y-62030828D02*
X114148082Y-61959400D01*
X114148082Y-61959400D02*
X114219510Y-61887971D01*
X114219510Y-61887971D02*
X114219510Y-62030828D01*
X114219510Y-125387971D02*
X114290939Y-125459400D01*
X114290939Y-125459400D02*
X114219510Y-125530828D01*
X114219510Y-125530828D02*
X114148082Y-125459400D01*
X114148082Y-125459400D02*
X114219510Y-125387971D01*
X114219510Y-125387971D02*
X114219510Y-125530828D01*
X114346510Y-46393971D02*
X114417939Y-46465400D01*
X114417939Y-46465400D02*
X114346510Y-46536828D01*
X114346510Y-46536828D02*
X114275082Y-46465400D01*
X114275082Y-46465400D02*
X114346510Y-46393971D01*
X114346510Y-46393971D02*
X114346510Y-46536828D01*
X114346510Y-54013971D02*
X114417939Y-54085400D01*
X114417939Y-54085400D02*
X114346510Y-54156828D01*
X114346510Y-54156828D02*
X114275082Y-54085400D01*
X114275082Y-54085400D02*
X114346510Y-54013971D01*
X114346510Y-54013971D02*
X114346510Y-54156828D01*
X121839510Y-46647971D02*
X121910939Y-46719400D01*
X121910939Y-46719400D02*
X121839510Y-46790828D01*
X121839510Y-46790828D02*
X121768082Y-46719400D01*
X121768082Y-46719400D02*
X121839510Y-46647971D01*
X121839510Y-46647971D02*
X121839510Y-46790828D01*
X121839510Y-61887971D02*
X121910939Y-61959400D01*
X121910939Y-61959400D02*
X121839510Y-62030828D01*
X121839510Y-62030828D02*
X121768082Y-61959400D01*
X121768082Y-61959400D02*
X121839510Y-61887971D01*
X121839510Y-61887971D02*
X121839510Y-62030828D01*
X128824510Y-65951971D02*
X128895939Y-66023400D01*
X128895939Y-66023400D02*
X128824510Y-66094828D01*
X128824510Y-66094828D02*
X128753082Y-66023400D01*
X128753082Y-66023400D02*
X128824510Y-65951971D01*
X128824510Y-65951971D02*
X128824510Y-66094828D01*
X131999510Y-133642971D02*
X132070939Y-133714400D01*
X132070939Y-133714400D02*
X131999510Y-133785828D01*
X131999510Y-133785828D02*
X131928082Y-133714400D01*
X131928082Y-133714400D02*
X131999510Y-133642971D01*
X131999510Y-133642971D02*
X131999510Y-133785828D01*
X131999510Y-135547971D02*
X132070939Y-135619400D01*
X132070939Y-135619400D02*
X131999510Y-135690828D01*
X131999510Y-135690828D02*
X131928082Y-135619400D01*
X131928082Y-135619400D02*
X131999510Y-135547971D01*
X131999510Y-135547971D02*
X131999510Y-135690828D01*
X132888510Y-65951971D02*
X132959939Y-66023400D01*
X132959939Y-66023400D02*
X132888510Y-66094828D01*
X132888510Y-66094828D02*
X132817082Y-66023400D01*
X132817082Y-66023400D02*
X132888510Y-65951971D01*
X132888510Y-65951971D02*
X132888510Y-66094828D01*
X136444510Y-65951971D02*
X136515939Y-66023400D01*
X136515939Y-66023400D02*
X136444510Y-66094828D01*
X136444510Y-66094828D02*
X136373082Y-66023400D01*
X136373082Y-66023400D02*
X136444510Y-65951971D01*
X136444510Y-65951971D02*
X136444510Y-66094828D01*
X136698510Y-39281971D02*
X136769939Y-39353400D01*
X136769939Y-39353400D02*
X136698510Y-39424828D01*
X136698510Y-39424828D02*
X136627082Y-39353400D01*
X136627082Y-39353400D02*
X136698510Y-39281971D01*
X136698510Y-39281971D02*
X136698510Y-39424828D01*
X137019510Y-96177971D02*
X137090939Y-96249400D01*
X137090939Y-96249400D02*
X137019510Y-96320828D01*
X137019510Y-96320828D02*
X136948082Y-96249400D01*
X136948082Y-96249400D02*
X137019510Y-96177971D01*
X137019510Y-96177971D02*
X137019510Y-96320828D01*
X137714510Y-125387971D02*
X137785939Y-125459400D01*
X137785939Y-125459400D02*
X137714510Y-125530828D01*
X137714510Y-125530828D02*
X137643082Y-125459400D01*
X137643082Y-125459400D02*
X137714510Y-125387971D01*
X137714510Y-125387971D02*
X137714510Y-125530828D01*
X147874510Y-37757971D02*
X147945939Y-37829400D01*
X147945939Y-37829400D02*
X147874510Y-37900828D01*
X147874510Y-37900828D02*
X147803082Y-37829400D01*
X147803082Y-37829400D02*
X147874510Y-37757971D01*
X147874510Y-37757971D02*
X147874510Y-37900828D01*
X151430510Y-59093971D02*
X151501939Y-59165400D01*
X151501939Y-59165400D02*
X151430510Y-59236828D01*
X151430510Y-59236828D02*
X151359082Y-59165400D01*
X151359082Y-59165400D02*
X151430510Y-59093971D01*
X151430510Y-59093971D02*
X151430510Y-59236828D01*
X151938510Y-37757971D02*
X152009939Y-37829400D01*
X152009939Y-37829400D02*
X151938510Y-37900828D01*
X151938510Y-37900828D02*
X151867082Y-37829400D01*
X151867082Y-37829400D02*
X151938510Y-37757971D01*
X151938510Y-37757971D02*
X151938510Y-37900828D01*
X155494510Y-59093971D02*
X155565939Y-59165400D01*
X155565939Y-59165400D02*
X155494510Y-59236828D01*
X155494510Y-59236828D02*
X155423082Y-59165400D01*
X155423082Y-59165400D02*
X155494510Y-59093971D01*
X155494510Y-59093971D02*
X155494510Y-59236828D01*
X159304510Y-104432971D02*
X159375939Y-104504400D01*
X159375939Y-104504400D02*
X159304510Y-104575828D01*
X159304510Y-104575828D02*
X159233082Y-104504400D01*
X159233082Y-104504400D02*
X159304510Y-104432971D01*
X159304510Y-104432971D02*
X159304510Y-104575828D01*
X159304510Y-106337971D02*
X159375939Y-106409400D01*
X159375939Y-106409400D02*
X159304510Y-106480828D01*
X159304510Y-106480828D02*
X159233082Y-106409400D01*
X159233082Y-106409400D02*
X159304510Y-106337971D01*
X159304510Y-106337971D02*
X159304510Y-106480828D01*
X163114510Y-38773971D02*
X163185939Y-38845400D01*
X163185939Y-38845400D02*
X163114510Y-38916828D01*
X163114510Y-38916828D02*
X163043082Y-38845400D01*
X163043082Y-38845400D02*
X163114510Y-38773971D01*
X163114510Y-38773971D02*
X163114510Y-38916828D01*
X163368510Y-67221971D02*
X163439939Y-67293400D01*
X163439939Y-67293400D02*
X163368510Y-67364828D01*
X163368510Y-67364828D02*
X163297082Y-67293400D01*
X163297082Y-67293400D02*
X163368510Y-67221971D01*
X163368510Y-67221971D02*
X163368510Y-67364828D01*
X163749510Y-95542971D02*
X163820939Y-95614400D01*
X163820939Y-95614400D02*
X163749510Y-95685828D01*
X163749510Y-95685828D02*
X163678082Y-95614400D01*
X163678082Y-95614400D02*
X163749510Y-95542971D01*
X163749510Y-95542971D02*
X163749510Y-95685828D01*
X193594510Y-38773971D02*
X193665939Y-38845400D01*
X193665939Y-38845400D02*
X193594510Y-38916828D01*
X193594510Y-38916828D02*
X193523082Y-38845400D01*
X193523082Y-38845400D02*
X193594510Y-38773971D01*
X193594510Y-38773971D02*
X193594510Y-38916828D01*
X193788510Y-67221971D02*
X193859939Y-67293400D01*
X193859939Y-67293400D02*
X193788510Y-67364828D01*
X193788510Y-67364828D02*
X193717082Y-67293400D01*
X193717082Y-67293400D02*
X193788510Y-67221971D01*
X193788510Y-67221971D02*
X193788510Y-67364828D01*
X193695489Y-126072028D02*
X193624060Y-126000600D01*
X193624060Y-126000600D02*
X193695489Y-125929171D01*
X193695489Y-125929171D02*
X193766917Y-126000600D01*
X193766917Y-126000600D02*
X193695489Y-126072028D01*
X193695489Y-126072028D02*
X193695489Y-125929171D01*
X209249489Y-130390028D02*
X209178060Y-130318600D01*
X209178060Y-130318600D02*
X209249489Y-130247171D01*
X209249489Y-130247171D02*
X209320917Y-130318600D01*
X209320917Y-130318600D02*
X209249489Y-130390028D01*
X209249489Y-130390028D02*
X209249489Y-130247171D01*
X163350028Y-126030510D02*
X163278600Y-126101939D01*
X163278600Y-126101939D02*
X163207171Y-126030510D01*
X163207171Y-126030510D02*
X163278600Y-125959082D01*
X163278600Y-125959082D02*
X163350028Y-126030510D01*
X163350028Y-126030510D02*
X163207171Y-126030510D01*
X193770028Y-96820510D02*
X193698600Y-96891939D01*
X193698600Y-96891939D02*
X193627171Y-96820510D01*
X193627171Y-96820510D02*
X193698600Y-96749082D01*
X193698600Y-96749082D02*
X193770028Y-96820510D01*
X193770028Y-96820510D02*
X193627171Y-96820510D01*
D13*
X160102321Y-96989819D02*
X159768988Y-96513628D01*
X159530893Y-96989819D02*
X159530893Y-95989819D01*
X159530893Y-95989819D02*
X159911845Y-95989819D01*
X159911845Y-95989819D02*
X160007083Y-96037438D01*
X160007083Y-96037438D02*
X160054702Y-96085057D01*
X160054702Y-96085057D02*
X160102321Y-96180295D01*
X160102321Y-96180295D02*
X160102321Y-96323152D01*
X160102321Y-96323152D02*
X160054702Y-96418390D01*
X160054702Y-96418390D02*
X160007083Y-96466009D01*
X160007083Y-96466009D02*
X159911845Y-96513628D01*
X159911845Y-96513628D02*
X159530893Y-96513628D01*
X160388036Y-95989819D02*
X160721369Y-96989819D01*
X160721369Y-96989819D02*
X161054702Y-95989819D01*
X161911845Y-96989819D02*
X161340417Y-96989819D01*
X161626131Y-96989819D02*
X161626131Y-95989819D01*
X161626131Y-95989819D02*
X161530893Y-96132676D01*
X161530893Y-96132676D02*
X161435655Y-96227914D01*
X161435655Y-96227914D02*
X161340417Y-96275533D01*
X162292798Y-96085057D02*
X162340417Y-96037438D01*
X162340417Y-96037438D02*
X162435655Y-95989819D01*
X162435655Y-95989819D02*
X162673750Y-95989819D01*
X162673750Y-95989819D02*
X162768988Y-96037438D01*
X162768988Y-96037438D02*
X162816607Y-96085057D01*
X162816607Y-96085057D02*
X162864226Y-96180295D01*
X162864226Y-96180295D02*
X162864226Y-96275533D01*
X162864226Y-96275533D02*
X162816607Y-96418390D01*
X162816607Y-96418390D02*
X162245179Y-96989819D01*
X162245179Y-96989819D02*
X162864226Y-96989819D01*
X125714286Y-139789819D02*
X126380952Y-139789819D01*
X126380952Y-139789819D02*
X125714286Y-140789819D01*
X125714286Y-140789819D02*
X126380952Y-140789819D01*
X127190476Y-139789819D02*
X127000000Y-139789819D01*
X127000000Y-139789819D02*
X126904762Y-139837438D01*
X126904762Y-139837438D02*
X126857143Y-139885057D01*
X126857143Y-139885057D02*
X126761905Y-140027914D01*
X126761905Y-140027914D02*
X126714286Y-140218390D01*
X126714286Y-140218390D02*
X126714286Y-140599342D01*
X126714286Y-140599342D02*
X126761905Y-140694580D01*
X126761905Y-140694580D02*
X126809524Y-140742200D01*
X126809524Y-140742200D02*
X126904762Y-140789819D01*
X126904762Y-140789819D02*
X127095238Y-140789819D01*
X127095238Y-140789819D02*
X127190476Y-140742200D01*
X127190476Y-140742200D02*
X127238095Y-140694580D01*
X127238095Y-140694580D02*
X127285714Y-140599342D01*
X127285714Y-140599342D02*
X127285714Y-140361247D01*
X127285714Y-140361247D02*
X127238095Y-140266009D01*
X127238095Y-140266009D02*
X127190476Y-140218390D01*
X127190476Y-140218390D02*
X127095238Y-140170771D01*
X127095238Y-140170771D02*
X126904762Y-140170771D01*
X126904762Y-140170771D02*
X126809524Y-140218390D01*
X126809524Y-140218390D02*
X126761905Y-140266009D01*
X126761905Y-140266009D02*
X126714286Y-140361247D01*
X127904762Y-139789819D02*
X128000000Y-139789819D01*
X128000000Y-139789819D02*
X128095238Y-139837438D01*
X128095238Y-139837438D02*
X128142857Y-139885057D01*
X128142857Y-139885057D02*
X128190476Y-139980295D01*
X128190476Y-139980295D02*
X128238095Y-140170771D01*
X128238095Y-140170771D02*
X128238095Y-140408866D01*
X128238095Y-140408866D02*
X128190476Y-140599342D01*
X128190476Y-140599342D02*
X128142857Y-140694580D01*
X128142857Y-140694580D02*
X128095238Y-140742200D01*
X128095238Y-140742200D02*
X128000000Y-140789819D01*
X128000000Y-140789819D02*
X127904762Y-140789819D01*
X127904762Y-140789819D02*
X127809524Y-140742200D01*
X127809524Y-140742200D02*
X127761905Y-140694580D01*
X127761905Y-140694580D02*
X127714286Y-140599342D01*
X127714286Y-140599342D02*
X127666667Y-140408866D01*
X127666667Y-140408866D02*
X127666667Y-140170771D01*
X127666667Y-140170771D02*
X127714286Y-139980295D01*
X127714286Y-139980295D02*
X127761905Y-139885057D01*
X127761905Y-139885057D02*
X127809524Y-139837438D01*
X127809524Y-139837438D02*
X127904762Y-139789819D01*
X99996666Y-38824819D02*
X99996666Y-39539104D01*
X99996666Y-39539104D02*
X99949047Y-39681961D01*
X99949047Y-39681961D02*
X99853809Y-39777200D01*
X99853809Y-39777200D02*
X99710952Y-39824819D01*
X99710952Y-39824819D02*
X99615714Y-39824819D01*
X100901428Y-38824819D02*
X100710952Y-38824819D01*
X100710952Y-38824819D02*
X100615714Y-38872438D01*
X100615714Y-38872438D02*
X100568095Y-38920057D01*
X100568095Y-38920057D02*
X100472857Y-39062914D01*
X100472857Y-39062914D02*
X100425238Y-39253390D01*
X100425238Y-39253390D02*
X100425238Y-39634342D01*
X100425238Y-39634342D02*
X100472857Y-39729580D01*
X100472857Y-39729580D02*
X100520476Y-39777200D01*
X100520476Y-39777200D02*
X100615714Y-39824819D01*
X100615714Y-39824819D02*
X100806190Y-39824819D01*
X100806190Y-39824819D02*
X100901428Y-39777200D01*
X100901428Y-39777200D02*
X100949047Y-39729580D01*
X100949047Y-39729580D02*
X100996666Y-39634342D01*
X100996666Y-39634342D02*
X100996666Y-39396247D01*
X100996666Y-39396247D02*
X100949047Y-39301009D01*
X100949047Y-39301009D02*
X100901428Y-39253390D01*
X100901428Y-39253390D02*
X100806190Y-39205771D01*
X100806190Y-39205771D02*
X100615714Y-39205771D01*
X100615714Y-39205771D02*
X100520476Y-39253390D01*
X100520476Y-39253390D02*
X100472857Y-39301009D01*
X100472857Y-39301009D02*
X100425238Y-39396247D01*
X107354761Y-96974819D02*
X107021428Y-96498628D01*
X106783333Y-96974819D02*
X106783333Y-95974819D01*
X106783333Y-95974819D02*
X107164285Y-95974819D01*
X107164285Y-95974819D02*
X107259523Y-96022438D01*
X107259523Y-96022438D02*
X107307142Y-96070057D01*
X107307142Y-96070057D02*
X107354761Y-96165295D01*
X107354761Y-96165295D02*
X107354761Y-96308152D01*
X107354761Y-96308152D02*
X107307142Y-96403390D01*
X107307142Y-96403390D02*
X107259523Y-96451009D01*
X107259523Y-96451009D02*
X107164285Y-96498628D01*
X107164285Y-96498628D02*
X106783333Y-96498628D01*
X107640476Y-95974819D02*
X107973809Y-96974819D01*
X107973809Y-96974819D02*
X108307142Y-95974819D01*
X108783333Y-96403390D02*
X108688095Y-96355771D01*
X108688095Y-96355771D02*
X108640476Y-96308152D01*
X108640476Y-96308152D02*
X108592857Y-96212914D01*
X108592857Y-96212914D02*
X108592857Y-96165295D01*
X108592857Y-96165295D02*
X108640476Y-96070057D01*
X108640476Y-96070057D02*
X108688095Y-96022438D01*
X108688095Y-96022438D02*
X108783333Y-95974819D01*
X108783333Y-95974819D02*
X108973809Y-95974819D01*
X108973809Y-95974819D02*
X109069047Y-96022438D01*
X109069047Y-96022438D02*
X109116666Y-96070057D01*
X109116666Y-96070057D02*
X109164285Y-96165295D01*
X109164285Y-96165295D02*
X109164285Y-96212914D01*
X109164285Y-96212914D02*
X109116666Y-96308152D01*
X109116666Y-96308152D02*
X109069047Y-96355771D01*
X109069047Y-96355771D02*
X108973809Y-96403390D01*
X108973809Y-96403390D02*
X108783333Y-96403390D01*
X108783333Y-96403390D02*
X108688095Y-96451009D01*
X108688095Y-96451009D02*
X108640476Y-96498628D01*
X108640476Y-96498628D02*
X108592857Y-96593866D01*
X108592857Y-96593866D02*
X108592857Y-96784342D01*
X108592857Y-96784342D02*
X108640476Y-96879580D01*
X108640476Y-96879580D02*
X108688095Y-96927200D01*
X108688095Y-96927200D02*
X108783333Y-96974819D01*
X108783333Y-96974819D02*
X108973809Y-96974819D01*
X108973809Y-96974819D02*
X109069047Y-96927200D01*
X109069047Y-96927200D02*
X109116666Y-96879580D01*
X109116666Y-96879580D02*
X109164285Y-96784342D01*
X109164285Y-96784342D02*
X109164285Y-96593866D01*
X109164285Y-96593866D02*
X109116666Y-96498628D01*
X109116666Y-96498628D02*
X109069047Y-96451009D01*
X109069047Y-96451009D02*
X108973809Y-96403390D01*
X155718095Y-110579819D02*
X156384761Y-110579819D01*
X156384761Y-110579819D02*
X155718095Y-111579819D01*
X155718095Y-111579819D02*
X156384761Y-111579819D01*
X156718095Y-110675057D02*
X156765714Y-110627438D01*
X156765714Y-110627438D02*
X156860952Y-110579819D01*
X156860952Y-110579819D02*
X157099047Y-110579819D01*
X157099047Y-110579819D02*
X157194285Y-110627438D01*
X157194285Y-110627438D02*
X157241904Y-110675057D01*
X157241904Y-110675057D02*
X157289523Y-110770295D01*
X157289523Y-110770295D02*
X157289523Y-110865533D01*
X157289523Y-110865533D02*
X157241904Y-111008390D01*
X157241904Y-111008390D02*
X156670476Y-111579819D01*
X156670476Y-111579819D02*
X157289523Y-111579819D01*
X158146666Y-110579819D02*
X157956190Y-110579819D01*
X157956190Y-110579819D02*
X157860952Y-110627438D01*
X157860952Y-110627438D02*
X157813333Y-110675057D01*
X157813333Y-110675057D02*
X157718095Y-110817914D01*
X157718095Y-110817914D02*
X157670476Y-111008390D01*
X157670476Y-111008390D02*
X157670476Y-111389342D01*
X157670476Y-111389342D02*
X157718095Y-111484580D01*
X157718095Y-111484580D02*
X157765714Y-111532200D01*
X157765714Y-111532200D02*
X157860952Y-111579819D01*
X157860952Y-111579819D02*
X158051428Y-111579819D01*
X158051428Y-111579819D02*
X158146666Y-111532200D01*
X158146666Y-111532200D02*
X158194285Y-111484580D01*
X158194285Y-111484580D02*
X158241904Y-111389342D01*
X158241904Y-111389342D02*
X158241904Y-111151247D01*
X158241904Y-111151247D02*
X158194285Y-111056009D01*
X158194285Y-111056009D02*
X158146666Y-111008390D01*
X158146666Y-111008390D02*
X158051428Y-110960771D01*
X158051428Y-110960771D02*
X157860952Y-110960771D01*
X157860952Y-110960771D02*
X157765714Y-111008390D01*
X157765714Y-111008390D02*
X157718095Y-111056009D01*
X157718095Y-111056009D02*
X157670476Y-111151247D01*
X158813333Y-111008390D02*
X158718095Y-110960771D01*
X158718095Y-110960771D02*
X158670476Y-110913152D01*
X158670476Y-110913152D02*
X158622857Y-110817914D01*
X158622857Y-110817914D02*
X158622857Y-110770295D01*
X158622857Y-110770295D02*
X158670476Y-110675057D01*
X158670476Y-110675057D02*
X158718095Y-110627438D01*
X158718095Y-110627438D02*
X158813333Y-110579819D01*
X158813333Y-110579819D02*
X159003809Y-110579819D01*
X159003809Y-110579819D02*
X159099047Y-110627438D01*
X159099047Y-110627438D02*
X159146666Y-110675057D01*
X159146666Y-110675057D02*
X159194285Y-110770295D01*
X159194285Y-110770295D02*
X159194285Y-110817914D01*
X159194285Y-110817914D02*
X159146666Y-110913152D01*
X159146666Y-110913152D02*
X159099047Y-110960771D01*
X159099047Y-110960771D02*
X159003809Y-111008390D01*
X159003809Y-111008390D02*
X158813333Y-111008390D01*
X158813333Y-111008390D02*
X158718095Y-111056009D01*
X158718095Y-111056009D02*
X158670476Y-111103628D01*
X158670476Y-111103628D02*
X158622857Y-111198866D01*
X158622857Y-111198866D02*
X158622857Y-111389342D01*
X158622857Y-111389342D02*
X158670476Y-111484580D01*
X158670476Y-111484580D02*
X158718095Y-111532200D01*
X158718095Y-111532200D02*
X158813333Y-111579819D01*
X158813333Y-111579819D02*
X159003809Y-111579819D01*
X159003809Y-111579819D02*
X159099047Y-111532200D01*
X159099047Y-111532200D02*
X159146666Y-111484580D01*
X159146666Y-111484580D02*
X159194285Y-111389342D01*
X159194285Y-111389342D02*
X159194285Y-111198866D01*
X159194285Y-111198866D02*
X159146666Y-111103628D01*
X159146666Y-111103628D02*
X159099047Y-111056009D01*
X159099047Y-111056009D02*
X159003809Y-111008390D01*
X122380476Y-38824819D02*
X122380476Y-39539104D01*
X122380476Y-39539104D02*
X122332857Y-39681961D01*
X122332857Y-39681961D02*
X122237619Y-39777200D01*
X122237619Y-39777200D02*
X122094762Y-39824819D01*
X122094762Y-39824819D02*
X121999524Y-39824819D01*
X123380476Y-39824819D02*
X122809048Y-39824819D01*
X123094762Y-39824819D02*
X123094762Y-38824819D01*
X123094762Y-38824819D02*
X122999524Y-38967676D01*
X122999524Y-38967676D02*
X122904286Y-39062914D01*
X122904286Y-39062914D02*
X122809048Y-39110533D01*
X123856667Y-39824819D02*
X124047143Y-39824819D01*
X124047143Y-39824819D02*
X124142381Y-39777200D01*
X124142381Y-39777200D02*
X124190000Y-39729580D01*
X124190000Y-39729580D02*
X124285238Y-39586723D01*
X124285238Y-39586723D02*
X124332857Y-39396247D01*
X124332857Y-39396247D02*
X124332857Y-39015295D01*
X124332857Y-39015295D02*
X124285238Y-38920057D01*
X124285238Y-38920057D02*
X124237619Y-38872438D01*
X124237619Y-38872438D02*
X124142381Y-38824819D01*
X124142381Y-38824819D02*
X123951905Y-38824819D01*
X123951905Y-38824819D02*
X123856667Y-38872438D01*
X123856667Y-38872438D02*
X123809048Y-38920057D01*
X123809048Y-38920057D02*
X123761429Y-39015295D01*
X123761429Y-39015295D02*
X123761429Y-39253390D01*
X123761429Y-39253390D02*
X123809048Y-39348628D01*
X123809048Y-39348628D02*
X123856667Y-39396247D01*
X123856667Y-39396247D02*
X123951905Y-39443866D01*
X123951905Y-39443866D02*
X124142381Y-39443866D01*
X124142381Y-39443866D02*
X124237619Y-39396247D01*
X124237619Y-39396247D02*
X124285238Y-39348628D01*
X124285238Y-39348628D02*
X124332857Y-39253390D01*
X106878571Y-107134819D02*
X106545238Y-106658628D01*
X106307143Y-107134819D02*
X106307143Y-106134819D01*
X106307143Y-106134819D02*
X106688095Y-106134819D01*
X106688095Y-106134819D02*
X106783333Y-106182438D01*
X106783333Y-106182438D02*
X106830952Y-106230057D01*
X106830952Y-106230057D02*
X106878571Y-106325295D01*
X106878571Y-106325295D02*
X106878571Y-106468152D01*
X106878571Y-106468152D02*
X106830952Y-106563390D01*
X106830952Y-106563390D02*
X106783333Y-106611009D01*
X106783333Y-106611009D02*
X106688095Y-106658628D01*
X106688095Y-106658628D02*
X106307143Y-106658628D01*
X107164286Y-106134819D02*
X107497619Y-107134819D01*
X107497619Y-107134819D02*
X107830952Y-106134819D01*
X108688095Y-107134819D02*
X108116667Y-107134819D01*
X108402381Y-107134819D02*
X108402381Y-106134819D01*
X108402381Y-106134819D02*
X108307143Y-106277676D01*
X108307143Y-106277676D02*
X108211905Y-106372914D01*
X108211905Y-106372914D02*
X108116667Y-106420533D01*
X109545238Y-106468152D02*
X109545238Y-107134819D01*
X109307143Y-106087200D02*
X109069048Y-106801485D01*
X109069048Y-106801485D02*
X109688095Y-106801485D01*
X194341905Y-66764819D02*
X194341905Y-67574342D01*
X194341905Y-67574342D02*
X194389524Y-67669580D01*
X194389524Y-67669580D02*
X194437143Y-67717200D01*
X194437143Y-67717200D02*
X194532381Y-67764819D01*
X194532381Y-67764819D02*
X194722857Y-67764819D01*
X194722857Y-67764819D02*
X194818095Y-67717200D01*
X194818095Y-67717200D02*
X194865714Y-67669580D01*
X194865714Y-67669580D02*
X194913333Y-67574342D01*
X194913333Y-67574342D02*
X194913333Y-66764819D01*
X195913333Y-67764819D02*
X195341905Y-67764819D01*
X195627619Y-67764819D02*
X195627619Y-66764819D01*
X195627619Y-66764819D02*
X195532381Y-66907676D01*
X195532381Y-66907676D02*
X195437143Y-67002914D01*
X195437143Y-67002914D02*
X195341905Y-67050533D01*
X196770476Y-66764819D02*
X196580000Y-66764819D01*
X196580000Y-66764819D02*
X196484762Y-66812438D01*
X196484762Y-66812438D02*
X196437143Y-66860057D01*
X196437143Y-66860057D02*
X196341905Y-67002914D01*
X196341905Y-67002914D02*
X196294286Y-67193390D01*
X196294286Y-67193390D02*
X196294286Y-67574342D01*
X196294286Y-67574342D02*
X196341905Y-67669580D01*
X196341905Y-67669580D02*
X196389524Y-67717200D01*
X196389524Y-67717200D02*
X196484762Y-67764819D01*
X196484762Y-67764819D02*
X196675238Y-67764819D01*
X196675238Y-67764819D02*
X196770476Y-67717200D01*
X196770476Y-67717200D02*
X196818095Y-67669580D01*
X196818095Y-67669580D02*
X196865714Y-67574342D01*
X196865714Y-67574342D02*
X196865714Y-67336247D01*
X196865714Y-67336247D02*
X196818095Y-67241009D01*
X196818095Y-67241009D02*
X196770476Y-67193390D01*
X196770476Y-67193390D02*
X196675238Y-67145771D01*
X196675238Y-67145771D02*
X196484762Y-67145771D01*
X196484762Y-67145771D02*
X196389524Y-67193390D01*
X196389524Y-67193390D02*
X196341905Y-67241009D01*
X196341905Y-67241009D02*
X196294286Y-67336247D01*
X156837142Y-119834819D02*
X156503809Y-119358628D01*
X156265714Y-119834819D02*
X156265714Y-118834819D01*
X156265714Y-118834819D02*
X156646666Y-118834819D01*
X156646666Y-118834819D02*
X156741904Y-118882438D01*
X156741904Y-118882438D02*
X156789523Y-118930057D01*
X156789523Y-118930057D02*
X156837142Y-119025295D01*
X156837142Y-119025295D02*
X156837142Y-119168152D01*
X156837142Y-119168152D02*
X156789523Y-119263390D01*
X156789523Y-119263390D02*
X156741904Y-119311009D01*
X156741904Y-119311009D02*
X156646666Y-119358628D01*
X156646666Y-119358628D02*
X156265714Y-119358628D01*
X157789523Y-119834819D02*
X157218095Y-119834819D01*
X157503809Y-119834819D02*
X157503809Y-118834819D01*
X157503809Y-118834819D02*
X157408571Y-118977676D01*
X157408571Y-118977676D02*
X157313333Y-119072914D01*
X157313333Y-119072914D02*
X157218095Y-119120533D01*
X158170476Y-118930057D02*
X158218095Y-118882438D01*
X158218095Y-118882438D02*
X158313333Y-118834819D01*
X158313333Y-118834819D02*
X158551428Y-118834819D01*
X158551428Y-118834819D02*
X158646666Y-118882438D01*
X158646666Y-118882438D02*
X158694285Y-118930057D01*
X158694285Y-118930057D02*
X158741904Y-119025295D01*
X158741904Y-119025295D02*
X158741904Y-119120533D01*
X158741904Y-119120533D02*
X158694285Y-119263390D01*
X158694285Y-119263390D02*
X158122857Y-119834819D01*
X158122857Y-119834819D02*
X158741904Y-119834819D01*
X114808095Y-125184819D02*
X114808095Y-125994342D01*
X114808095Y-125994342D02*
X114855714Y-126089580D01*
X114855714Y-126089580D02*
X114903333Y-126137200D01*
X114903333Y-126137200D02*
X114998571Y-126184819D01*
X114998571Y-126184819D02*
X115189047Y-126184819D01*
X115189047Y-126184819D02*
X115284285Y-126137200D01*
X115284285Y-126137200D02*
X115331904Y-126089580D01*
X115331904Y-126089580D02*
X115379523Y-125994342D01*
X115379523Y-125994342D02*
X115379523Y-125184819D01*
X116379523Y-126184819D02*
X115808095Y-126184819D01*
X116093809Y-126184819D02*
X116093809Y-125184819D01*
X116093809Y-125184819D02*
X115998571Y-125327676D01*
X115998571Y-125327676D02*
X115903333Y-125422914D01*
X115903333Y-125422914D02*
X115808095Y-125470533D01*
X148740952Y-98879819D02*
X148407619Y-98403628D01*
X148169524Y-98879819D02*
X148169524Y-97879819D01*
X148169524Y-97879819D02*
X148550476Y-97879819D01*
X148550476Y-97879819D02*
X148645714Y-97927438D01*
X148645714Y-97927438D02*
X148693333Y-97975057D01*
X148693333Y-97975057D02*
X148740952Y-98070295D01*
X148740952Y-98070295D02*
X148740952Y-98213152D01*
X148740952Y-98213152D02*
X148693333Y-98308390D01*
X148693333Y-98308390D02*
X148645714Y-98356009D01*
X148645714Y-98356009D02*
X148550476Y-98403628D01*
X148550476Y-98403628D02*
X148169524Y-98403628D01*
X149693333Y-98879819D02*
X149121905Y-98879819D01*
X149407619Y-98879819D02*
X149407619Y-97879819D01*
X149407619Y-97879819D02*
X149312381Y-98022676D01*
X149312381Y-98022676D02*
X149217143Y-98117914D01*
X149217143Y-98117914D02*
X149121905Y-98165533D01*
X150598095Y-97879819D02*
X150121905Y-97879819D01*
X150121905Y-97879819D02*
X150074286Y-98356009D01*
X150074286Y-98356009D02*
X150121905Y-98308390D01*
X150121905Y-98308390D02*
X150217143Y-98260771D01*
X150217143Y-98260771D02*
X150455238Y-98260771D01*
X150455238Y-98260771D02*
X150550476Y-98308390D01*
X150550476Y-98308390D02*
X150598095Y-98356009D01*
X150598095Y-98356009D02*
X150645714Y-98451247D01*
X150645714Y-98451247D02*
X150645714Y-98689342D01*
X150645714Y-98689342D02*
X150598095Y-98784580D01*
X150598095Y-98784580D02*
X150550476Y-98832200D01*
X150550476Y-98832200D02*
X150455238Y-98879819D01*
X150455238Y-98879819D02*
X150217143Y-98879819D01*
X150217143Y-98879819D02*
X150121905Y-98832200D01*
X150121905Y-98832200D02*
X150074286Y-98784580D01*
X151026667Y-97975057D02*
X151074286Y-97927438D01*
X151074286Y-97927438D02*
X151169524Y-97879819D01*
X151169524Y-97879819D02*
X151407619Y-97879819D01*
X151407619Y-97879819D02*
X151502857Y-97927438D01*
X151502857Y-97927438D02*
X151550476Y-97975057D01*
X151550476Y-97975057D02*
X151598095Y-98070295D01*
X151598095Y-98070295D02*
X151598095Y-98165533D01*
X151598095Y-98165533D02*
X151550476Y-98308390D01*
X151550476Y-98308390D02*
X150979048Y-98879819D01*
X150979048Y-98879819D02*
X151598095Y-98879819D01*
X151169761Y-136344819D02*
X150836428Y-135868628D01*
X150598333Y-136344819D02*
X150598333Y-135344819D01*
X150598333Y-135344819D02*
X150979285Y-135344819D01*
X150979285Y-135344819D02*
X151074523Y-135392438D01*
X151074523Y-135392438D02*
X151122142Y-135440057D01*
X151122142Y-135440057D02*
X151169761Y-135535295D01*
X151169761Y-135535295D02*
X151169761Y-135678152D01*
X151169761Y-135678152D02*
X151122142Y-135773390D01*
X151122142Y-135773390D02*
X151074523Y-135821009D01*
X151074523Y-135821009D02*
X150979285Y-135868628D01*
X150979285Y-135868628D02*
X150598333Y-135868628D01*
X151455476Y-135344819D02*
X151788809Y-136344819D01*
X151788809Y-136344819D02*
X152122142Y-135344819D01*
X152884047Y-135344819D02*
X152693571Y-135344819D01*
X152693571Y-135344819D02*
X152598333Y-135392438D01*
X152598333Y-135392438D02*
X152550714Y-135440057D01*
X152550714Y-135440057D02*
X152455476Y-135582914D01*
X152455476Y-135582914D02*
X152407857Y-135773390D01*
X152407857Y-135773390D02*
X152407857Y-136154342D01*
X152407857Y-136154342D02*
X152455476Y-136249580D01*
X152455476Y-136249580D02*
X152503095Y-136297200D01*
X152503095Y-136297200D02*
X152598333Y-136344819D01*
X152598333Y-136344819D02*
X152788809Y-136344819D01*
X152788809Y-136344819D02*
X152884047Y-136297200D01*
X152884047Y-136297200D02*
X152931666Y-136249580D01*
X152931666Y-136249580D02*
X152979285Y-136154342D01*
X152979285Y-136154342D02*
X152979285Y-135916247D01*
X152979285Y-135916247D02*
X152931666Y-135821009D01*
X152931666Y-135821009D02*
X152884047Y-135773390D01*
X152884047Y-135773390D02*
X152788809Y-135725771D01*
X152788809Y-135725771D02*
X152598333Y-135725771D01*
X152598333Y-135725771D02*
X152503095Y-135773390D01*
X152503095Y-135773390D02*
X152455476Y-135821009D01*
X152455476Y-135821009D02*
X152407857Y-135916247D01*
X194281905Y-96184819D02*
X194281905Y-96994342D01*
X194281905Y-96994342D02*
X194329524Y-97089580D01*
X194329524Y-97089580D02*
X194377143Y-97137200D01*
X194377143Y-97137200D02*
X194472381Y-97184819D01*
X194472381Y-97184819D02*
X194662857Y-97184819D01*
X194662857Y-97184819D02*
X194758095Y-97137200D01*
X194758095Y-97137200D02*
X194805714Y-97089580D01*
X194805714Y-97089580D02*
X194853333Y-96994342D01*
X194853333Y-96994342D02*
X194853333Y-96184819D01*
X195853333Y-97184819D02*
X195281905Y-97184819D01*
X195567619Y-97184819D02*
X195567619Y-96184819D01*
X195567619Y-96184819D02*
X195472381Y-96327676D01*
X195472381Y-96327676D02*
X195377143Y-96422914D01*
X195377143Y-96422914D02*
X195281905Y-96470533D01*
X196234286Y-96280057D02*
X196281905Y-96232438D01*
X196281905Y-96232438D02*
X196377143Y-96184819D01*
X196377143Y-96184819D02*
X196615238Y-96184819D01*
X196615238Y-96184819D02*
X196710476Y-96232438D01*
X196710476Y-96232438D02*
X196758095Y-96280057D01*
X196758095Y-96280057D02*
X196805714Y-96375295D01*
X196805714Y-96375295D02*
X196805714Y-96470533D01*
X196805714Y-96470533D02*
X196758095Y-96613390D01*
X196758095Y-96613390D02*
X196186667Y-97184819D01*
X196186667Y-97184819D02*
X196805714Y-97184819D01*
X137191905Y-66764819D02*
X137191905Y-67574342D01*
X137191905Y-67574342D02*
X137239524Y-67669580D01*
X137239524Y-67669580D02*
X137287143Y-67717200D01*
X137287143Y-67717200D02*
X137382381Y-67764819D01*
X137382381Y-67764819D02*
X137572857Y-67764819D01*
X137572857Y-67764819D02*
X137668095Y-67717200D01*
X137668095Y-67717200D02*
X137715714Y-67669580D01*
X137715714Y-67669580D02*
X137763333Y-67574342D01*
X137763333Y-67574342D02*
X137763333Y-66764819D01*
X138191905Y-66860057D02*
X138239524Y-66812438D01*
X138239524Y-66812438D02*
X138334762Y-66764819D01*
X138334762Y-66764819D02*
X138572857Y-66764819D01*
X138572857Y-66764819D02*
X138668095Y-66812438D01*
X138668095Y-66812438D02*
X138715714Y-66860057D01*
X138715714Y-66860057D02*
X138763333Y-66955295D01*
X138763333Y-66955295D02*
X138763333Y-67050533D01*
X138763333Y-67050533D02*
X138715714Y-67193390D01*
X138715714Y-67193390D02*
X138144286Y-67764819D01*
X138144286Y-67764819D02*
X138763333Y-67764819D01*
X139715714Y-67764819D02*
X139144286Y-67764819D01*
X139430000Y-67764819D02*
X139430000Y-66764819D01*
X139430000Y-66764819D02*
X139334762Y-66907676D01*
X139334762Y-66907676D02*
X139239524Y-67002914D01*
X139239524Y-67002914D02*
X139144286Y-67050533D01*
X148098095Y-105499819D02*
X148764761Y-105499819D01*
X148764761Y-105499819D02*
X148098095Y-106499819D01*
X148098095Y-106499819D02*
X148764761Y-106499819D01*
X149098095Y-105595057D02*
X149145714Y-105547438D01*
X149145714Y-105547438D02*
X149240952Y-105499819D01*
X149240952Y-105499819D02*
X149479047Y-105499819D01*
X149479047Y-105499819D02*
X149574285Y-105547438D01*
X149574285Y-105547438D02*
X149621904Y-105595057D01*
X149621904Y-105595057D02*
X149669523Y-105690295D01*
X149669523Y-105690295D02*
X149669523Y-105785533D01*
X149669523Y-105785533D02*
X149621904Y-105928390D01*
X149621904Y-105928390D02*
X149050476Y-106499819D01*
X149050476Y-106499819D02*
X149669523Y-106499819D01*
X150002857Y-105499819D02*
X150669523Y-105499819D01*
X150669523Y-105499819D02*
X150240952Y-106499819D01*
X151240952Y-105499819D02*
X151336190Y-105499819D01*
X151336190Y-105499819D02*
X151431428Y-105547438D01*
X151431428Y-105547438D02*
X151479047Y-105595057D01*
X151479047Y-105595057D02*
X151526666Y-105690295D01*
X151526666Y-105690295D02*
X151574285Y-105880771D01*
X151574285Y-105880771D02*
X151574285Y-106118866D01*
X151574285Y-106118866D02*
X151526666Y-106309342D01*
X151526666Y-106309342D02*
X151479047Y-106404580D01*
X151479047Y-106404580D02*
X151431428Y-106452200D01*
X151431428Y-106452200D02*
X151336190Y-106499819D01*
X151336190Y-106499819D02*
X151240952Y-106499819D01*
X151240952Y-106499819D02*
X151145714Y-106452200D01*
X151145714Y-106452200D02*
X151098095Y-106404580D01*
X151098095Y-106404580D02*
X151050476Y-106309342D01*
X151050476Y-106309342D02*
X151002857Y-106118866D01*
X151002857Y-106118866D02*
X151002857Y-105880771D01*
X151002857Y-105880771D02*
X151050476Y-105690295D01*
X151050476Y-105690295D02*
X151098095Y-105595057D01*
X151098095Y-105595057D02*
X151145714Y-105547438D01*
X151145714Y-105547438D02*
X151240952Y-105499819D01*
X152598571Y-39594819D02*
X152265238Y-39118628D01*
X152027143Y-39594819D02*
X152027143Y-38594819D01*
X152027143Y-38594819D02*
X152408095Y-38594819D01*
X152408095Y-38594819D02*
X152503333Y-38642438D01*
X152503333Y-38642438D02*
X152550952Y-38690057D01*
X152550952Y-38690057D02*
X152598571Y-38785295D01*
X152598571Y-38785295D02*
X152598571Y-38928152D01*
X152598571Y-38928152D02*
X152550952Y-39023390D01*
X152550952Y-39023390D02*
X152503333Y-39071009D01*
X152503333Y-39071009D02*
X152408095Y-39118628D01*
X152408095Y-39118628D02*
X152027143Y-39118628D01*
X152884286Y-38594819D02*
X153217619Y-39594819D01*
X153217619Y-39594819D02*
X153550952Y-38594819D01*
X153836667Y-38690057D02*
X153884286Y-38642438D01*
X153884286Y-38642438D02*
X153979524Y-38594819D01*
X153979524Y-38594819D02*
X154217619Y-38594819D01*
X154217619Y-38594819D02*
X154312857Y-38642438D01*
X154312857Y-38642438D02*
X154360476Y-38690057D01*
X154360476Y-38690057D02*
X154408095Y-38785295D01*
X154408095Y-38785295D02*
X154408095Y-38880533D01*
X154408095Y-38880533D02*
X154360476Y-39023390D01*
X154360476Y-39023390D02*
X153789048Y-39594819D01*
X153789048Y-39594819D02*
X154408095Y-39594819D01*
X155027143Y-38594819D02*
X155122381Y-38594819D01*
X155122381Y-38594819D02*
X155217619Y-38642438D01*
X155217619Y-38642438D02*
X155265238Y-38690057D01*
X155265238Y-38690057D02*
X155312857Y-38785295D01*
X155312857Y-38785295D02*
X155360476Y-38975771D01*
X155360476Y-38975771D02*
X155360476Y-39213866D01*
X155360476Y-39213866D02*
X155312857Y-39404342D01*
X155312857Y-39404342D02*
X155265238Y-39499580D01*
X155265238Y-39499580D02*
X155217619Y-39547200D01*
X155217619Y-39547200D02*
X155122381Y-39594819D01*
X155122381Y-39594819D02*
X155027143Y-39594819D01*
X155027143Y-39594819D02*
X154931905Y-39547200D01*
X154931905Y-39547200D02*
X154884286Y-39499580D01*
X154884286Y-39499580D02*
X154836667Y-39404342D01*
X154836667Y-39404342D02*
X154789048Y-39213866D01*
X154789048Y-39213866D02*
X154789048Y-38975771D01*
X154789048Y-38975771D02*
X154836667Y-38785295D01*
X154836667Y-38785295D02*
X154884286Y-38690057D01*
X154884286Y-38690057D02*
X154931905Y-38642438D01*
X154931905Y-38642438D02*
X155027143Y-38594819D01*
X217638333Y-141329580D02*
X217590714Y-141377200D01*
X217590714Y-141377200D02*
X217447857Y-141424819D01*
X217447857Y-141424819D02*
X217352619Y-141424819D01*
X217352619Y-141424819D02*
X217209762Y-141377200D01*
X217209762Y-141377200D02*
X217114524Y-141281961D01*
X217114524Y-141281961D02*
X217066905Y-141186723D01*
X217066905Y-141186723D02*
X217019286Y-140996247D01*
X217019286Y-140996247D02*
X217019286Y-140853390D01*
X217019286Y-140853390D02*
X217066905Y-140662914D01*
X217066905Y-140662914D02*
X217114524Y-140567676D01*
X217114524Y-140567676D02*
X217209762Y-140472438D01*
X217209762Y-140472438D02*
X217352619Y-140424819D01*
X217352619Y-140424819D02*
X217447857Y-140424819D01*
X217447857Y-140424819D02*
X217590714Y-140472438D01*
X217590714Y-140472438D02*
X217638333Y-140520057D01*
X218495476Y-140758152D02*
X218495476Y-141424819D01*
X218257381Y-140377200D02*
X218019286Y-141091485D01*
X218019286Y-141091485D02*
X218638333Y-141091485D01*
X99520476Y-46444819D02*
X99520476Y-47159104D01*
X99520476Y-47159104D02*
X99472857Y-47301961D01*
X99472857Y-47301961D02*
X99377619Y-47397200D01*
X99377619Y-47397200D02*
X99234762Y-47444819D01*
X99234762Y-47444819D02*
X99139524Y-47444819D01*
X100520476Y-47444819D02*
X99949048Y-47444819D01*
X100234762Y-47444819D02*
X100234762Y-46444819D01*
X100234762Y-46444819D02*
X100139524Y-46587676D01*
X100139524Y-46587676D02*
X100044286Y-46682914D01*
X100044286Y-46682914D02*
X99949048Y-46730533D01*
X101091905Y-46873390D02*
X100996667Y-46825771D01*
X100996667Y-46825771D02*
X100949048Y-46778152D01*
X100949048Y-46778152D02*
X100901429Y-46682914D01*
X100901429Y-46682914D02*
X100901429Y-46635295D01*
X100901429Y-46635295D02*
X100949048Y-46540057D01*
X100949048Y-46540057D02*
X100996667Y-46492438D01*
X100996667Y-46492438D02*
X101091905Y-46444819D01*
X101091905Y-46444819D02*
X101282381Y-46444819D01*
X101282381Y-46444819D02*
X101377619Y-46492438D01*
X101377619Y-46492438D02*
X101425238Y-46540057D01*
X101425238Y-46540057D02*
X101472857Y-46635295D01*
X101472857Y-46635295D02*
X101472857Y-46682914D01*
X101472857Y-46682914D02*
X101425238Y-46778152D01*
X101425238Y-46778152D02*
X101377619Y-46825771D01*
X101377619Y-46825771D02*
X101282381Y-46873390D01*
X101282381Y-46873390D02*
X101091905Y-46873390D01*
X101091905Y-46873390D02*
X100996667Y-46921009D01*
X100996667Y-46921009D02*
X100949048Y-46968628D01*
X100949048Y-46968628D02*
X100901429Y-47063866D01*
X100901429Y-47063866D02*
X100901429Y-47254342D01*
X100901429Y-47254342D02*
X100949048Y-47349580D01*
X100949048Y-47349580D02*
X100996667Y-47397200D01*
X100996667Y-47397200D02*
X101091905Y-47444819D01*
X101091905Y-47444819D02*
X101282381Y-47444819D01*
X101282381Y-47444819D02*
X101377619Y-47397200D01*
X101377619Y-47397200D02*
X101425238Y-47349580D01*
X101425238Y-47349580D02*
X101472857Y-47254342D01*
X101472857Y-47254342D02*
X101472857Y-47063866D01*
X101472857Y-47063866D02*
X101425238Y-46968628D01*
X101425238Y-46968628D02*
X101377619Y-46921009D01*
X101377619Y-46921009D02*
X101282381Y-46873390D01*
X177363571Y-96974819D02*
X177030238Y-96498628D01*
X176792143Y-96974819D02*
X176792143Y-95974819D01*
X176792143Y-95974819D02*
X177173095Y-95974819D01*
X177173095Y-95974819D02*
X177268333Y-96022438D01*
X177268333Y-96022438D02*
X177315952Y-96070057D01*
X177315952Y-96070057D02*
X177363571Y-96165295D01*
X177363571Y-96165295D02*
X177363571Y-96308152D01*
X177363571Y-96308152D02*
X177315952Y-96403390D01*
X177315952Y-96403390D02*
X177268333Y-96451009D01*
X177268333Y-96451009D02*
X177173095Y-96498628D01*
X177173095Y-96498628D02*
X176792143Y-96498628D01*
X177649286Y-95974819D02*
X177982619Y-96974819D01*
X177982619Y-96974819D02*
X178315952Y-95974819D01*
X179173095Y-96974819D02*
X178601667Y-96974819D01*
X178887381Y-96974819D02*
X178887381Y-95974819D01*
X178887381Y-95974819D02*
X178792143Y-96117676D01*
X178792143Y-96117676D02*
X178696905Y-96212914D01*
X178696905Y-96212914D02*
X178601667Y-96260533D01*
X179792143Y-95974819D02*
X179887381Y-95974819D01*
X179887381Y-95974819D02*
X179982619Y-96022438D01*
X179982619Y-96022438D02*
X180030238Y-96070057D01*
X180030238Y-96070057D02*
X180077857Y-96165295D01*
X180077857Y-96165295D02*
X180125476Y-96355771D01*
X180125476Y-96355771D02*
X180125476Y-96593866D01*
X180125476Y-96593866D02*
X180077857Y-96784342D01*
X180077857Y-96784342D02*
X180030238Y-96879580D01*
X180030238Y-96879580D02*
X179982619Y-96927200D01*
X179982619Y-96927200D02*
X179887381Y-96974819D01*
X179887381Y-96974819D02*
X179792143Y-96974819D01*
X179792143Y-96974819D02*
X179696905Y-96927200D01*
X179696905Y-96927200D02*
X179649286Y-96879580D01*
X179649286Y-96879580D02*
X179601667Y-96784342D01*
X179601667Y-96784342D02*
X179554048Y-96593866D01*
X179554048Y-96593866D02*
X179554048Y-96355771D01*
X179554048Y-96355771D02*
X179601667Y-96165295D01*
X179601667Y-96165295D02*
X179649286Y-96070057D01*
X179649286Y-96070057D02*
X179696905Y-96022438D01*
X179696905Y-96022438D02*
X179792143Y-95974819D01*
X125714286Y-120739819D02*
X126380952Y-120739819D01*
X126380952Y-120739819D02*
X125714286Y-121739819D01*
X125714286Y-121739819D02*
X126380952Y-121739819D01*
X126714286Y-120835057D02*
X126761905Y-120787438D01*
X126761905Y-120787438D02*
X126857143Y-120739819D01*
X126857143Y-120739819D02*
X127095238Y-120739819D01*
X127095238Y-120739819D02*
X127190476Y-120787438D01*
X127190476Y-120787438D02*
X127238095Y-120835057D01*
X127238095Y-120835057D02*
X127285714Y-120930295D01*
X127285714Y-120930295D02*
X127285714Y-121025533D01*
X127285714Y-121025533D02*
X127238095Y-121168390D01*
X127238095Y-121168390D02*
X126666667Y-121739819D01*
X126666667Y-121739819D02*
X127285714Y-121739819D01*
X127904762Y-120739819D02*
X128000000Y-120739819D01*
X128000000Y-120739819D02*
X128095238Y-120787438D01*
X128095238Y-120787438D02*
X128142857Y-120835057D01*
X128142857Y-120835057D02*
X128190476Y-120930295D01*
X128190476Y-120930295D02*
X128238095Y-121120771D01*
X128238095Y-121120771D02*
X128238095Y-121358866D01*
X128238095Y-121358866D02*
X128190476Y-121549342D01*
X128190476Y-121549342D02*
X128142857Y-121644580D01*
X128142857Y-121644580D02*
X128095238Y-121692200D01*
X128095238Y-121692200D02*
X128000000Y-121739819D01*
X128000000Y-121739819D02*
X127904762Y-121739819D01*
X127904762Y-121739819D02*
X127809524Y-121692200D01*
X127809524Y-121692200D02*
X127761905Y-121644580D01*
X127761905Y-121644580D02*
X127714286Y-121549342D01*
X127714286Y-121549342D02*
X127666667Y-121358866D01*
X127666667Y-121358866D02*
X127666667Y-121120771D01*
X127666667Y-121120771D02*
X127714286Y-120930295D01*
X127714286Y-120930295D02*
X127761905Y-120835057D01*
X127761905Y-120835057D02*
X127809524Y-120787438D01*
X127809524Y-120787438D02*
X127904762Y-120739819D01*
X163861905Y-38824819D02*
X163861905Y-39634342D01*
X163861905Y-39634342D02*
X163909524Y-39729580D01*
X163909524Y-39729580D02*
X163957143Y-39777200D01*
X163957143Y-39777200D02*
X164052381Y-39824819D01*
X164052381Y-39824819D02*
X164242857Y-39824819D01*
X164242857Y-39824819D02*
X164338095Y-39777200D01*
X164338095Y-39777200D02*
X164385714Y-39729580D01*
X164385714Y-39729580D02*
X164433333Y-39634342D01*
X164433333Y-39634342D02*
X164433333Y-38824819D01*
X164861905Y-38920057D02*
X164909524Y-38872438D01*
X164909524Y-38872438D02*
X165004762Y-38824819D01*
X165004762Y-38824819D02*
X165242857Y-38824819D01*
X165242857Y-38824819D02*
X165338095Y-38872438D01*
X165338095Y-38872438D02*
X165385714Y-38920057D01*
X165385714Y-38920057D02*
X165433333Y-39015295D01*
X165433333Y-39015295D02*
X165433333Y-39110533D01*
X165433333Y-39110533D02*
X165385714Y-39253390D01*
X165385714Y-39253390D02*
X164814286Y-39824819D01*
X164814286Y-39824819D02*
X165433333Y-39824819D01*
X166052381Y-38824819D02*
X166147619Y-38824819D01*
X166147619Y-38824819D02*
X166242857Y-38872438D01*
X166242857Y-38872438D02*
X166290476Y-38920057D01*
X166290476Y-38920057D02*
X166338095Y-39015295D01*
X166338095Y-39015295D02*
X166385714Y-39205771D01*
X166385714Y-39205771D02*
X166385714Y-39443866D01*
X166385714Y-39443866D02*
X166338095Y-39634342D01*
X166338095Y-39634342D02*
X166290476Y-39729580D01*
X166290476Y-39729580D02*
X166242857Y-39777200D01*
X166242857Y-39777200D02*
X166147619Y-39824819D01*
X166147619Y-39824819D02*
X166052381Y-39824819D01*
X166052381Y-39824819D02*
X165957143Y-39777200D01*
X165957143Y-39777200D02*
X165909524Y-39729580D01*
X165909524Y-39729580D02*
X165861905Y-39634342D01*
X165861905Y-39634342D02*
X165814286Y-39443866D01*
X165814286Y-39443866D02*
X165814286Y-39205771D01*
X165814286Y-39205771D02*
X165861905Y-39015295D01*
X165861905Y-39015295D02*
X165909524Y-38920057D01*
X165909524Y-38920057D02*
X165957143Y-38872438D01*
X165957143Y-38872438D02*
X166052381Y-38824819D01*
X138938095Y-125184819D02*
X138938095Y-125994342D01*
X138938095Y-125994342D02*
X138985714Y-126089580D01*
X138985714Y-126089580D02*
X139033333Y-126137200D01*
X139033333Y-126137200D02*
X139128571Y-126184819D01*
X139128571Y-126184819D02*
X139319047Y-126184819D01*
X139319047Y-126184819D02*
X139414285Y-126137200D01*
X139414285Y-126137200D02*
X139461904Y-126089580D01*
X139461904Y-126089580D02*
X139509523Y-125994342D01*
X139509523Y-125994342D02*
X139509523Y-125184819D01*
X140461904Y-125184819D02*
X139985714Y-125184819D01*
X139985714Y-125184819D02*
X139938095Y-125661009D01*
X139938095Y-125661009D02*
X139985714Y-125613390D01*
X139985714Y-125613390D02*
X140080952Y-125565771D01*
X140080952Y-125565771D02*
X140319047Y-125565771D01*
X140319047Y-125565771D02*
X140414285Y-125613390D01*
X140414285Y-125613390D02*
X140461904Y-125661009D01*
X140461904Y-125661009D02*
X140509523Y-125756247D01*
X140509523Y-125756247D02*
X140509523Y-125994342D01*
X140509523Y-125994342D02*
X140461904Y-126089580D01*
X140461904Y-126089580D02*
X140414285Y-126137200D01*
X140414285Y-126137200D02*
X140319047Y-126184819D01*
X140319047Y-126184819D02*
X140080952Y-126184819D01*
X140080952Y-126184819D02*
X139985714Y-126137200D01*
X139985714Y-126137200D02*
X139938095Y-126089580D01*
X151169761Y-126184819D02*
X150836428Y-125708628D01*
X150598333Y-126184819D02*
X150598333Y-125184819D01*
X150598333Y-125184819D02*
X150979285Y-125184819D01*
X150979285Y-125184819D02*
X151074523Y-125232438D01*
X151074523Y-125232438D02*
X151122142Y-125280057D01*
X151122142Y-125280057D02*
X151169761Y-125375295D01*
X151169761Y-125375295D02*
X151169761Y-125518152D01*
X151169761Y-125518152D02*
X151122142Y-125613390D01*
X151122142Y-125613390D02*
X151074523Y-125661009D01*
X151074523Y-125661009D02*
X150979285Y-125708628D01*
X150979285Y-125708628D02*
X150598333Y-125708628D01*
X151455476Y-125184819D02*
X151788809Y-126184819D01*
X151788809Y-126184819D02*
X152122142Y-125184819D01*
X152407857Y-125280057D02*
X152455476Y-125232438D01*
X152455476Y-125232438D02*
X152550714Y-125184819D01*
X152550714Y-125184819D02*
X152788809Y-125184819D01*
X152788809Y-125184819D02*
X152884047Y-125232438D01*
X152884047Y-125232438D02*
X152931666Y-125280057D01*
X152931666Y-125280057D02*
X152979285Y-125375295D01*
X152979285Y-125375295D02*
X152979285Y-125470533D01*
X152979285Y-125470533D02*
X152931666Y-125613390D01*
X152931666Y-125613390D02*
X152360238Y-126184819D01*
X152360238Y-126184819D02*
X152979285Y-126184819D01*
X99520476Y-108674819D02*
X99520476Y-109389104D01*
X99520476Y-109389104D02*
X99472857Y-109531961D01*
X99472857Y-109531961D02*
X99377619Y-109627200D01*
X99377619Y-109627200D02*
X99234762Y-109674819D01*
X99234762Y-109674819D02*
X99139524Y-109674819D01*
X99949048Y-108770057D02*
X99996667Y-108722438D01*
X99996667Y-108722438D02*
X100091905Y-108674819D01*
X100091905Y-108674819D02*
X100330000Y-108674819D01*
X100330000Y-108674819D02*
X100425238Y-108722438D01*
X100425238Y-108722438D02*
X100472857Y-108770057D01*
X100472857Y-108770057D02*
X100520476Y-108865295D01*
X100520476Y-108865295D02*
X100520476Y-108960533D01*
X100520476Y-108960533D02*
X100472857Y-109103390D01*
X100472857Y-109103390D02*
X99901429Y-109674819D01*
X99901429Y-109674819D02*
X100520476Y-109674819D01*
X101377619Y-109008152D02*
X101377619Y-109674819D01*
X101139524Y-108627200D02*
X100901429Y-109341485D01*
X100901429Y-109341485D02*
X101520476Y-109341485D01*
X163861905Y-66764819D02*
X163861905Y-67574342D01*
X163861905Y-67574342D02*
X163909524Y-67669580D01*
X163909524Y-67669580D02*
X163957143Y-67717200D01*
X163957143Y-67717200D02*
X164052381Y-67764819D01*
X164052381Y-67764819D02*
X164242857Y-67764819D01*
X164242857Y-67764819D02*
X164338095Y-67717200D01*
X164338095Y-67717200D02*
X164385714Y-67669580D01*
X164385714Y-67669580D02*
X164433333Y-67574342D01*
X164433333Y-67574342D02*
X164433333Y-66764819D01*
X165433333Y-67764819D02*
X164861905Y-67764819D01*
X165147619Y-67764819D02*
X165147619Y-66764819D01*
X165147619Y-66764819D02*
X165052381Y-66907676D01*
X165052381Y-66907676D02*
X164957143Y-67002914D01*
X164957143Y-67002914D02*
X164861905Y-67050533D01*
X165766667Y-66764819D02*
X166385714Y-66764819D01*
X166385714Y-66764819D02*
X166052381Y-67145771D01*
X166052381Y-67145771D02*
X166195238Y-67145771D01*
X166195238Y-67145771D02*
X166290476Y-67193390D01*
X166290476Y-67193390D02*
X166338095Y-67241009D01*
X166338095Y-67241009D02*
X166385714Y-67336247D01*
X166385714Y-67336247D02*
X166385714Y-67574342D01*
X166385714Y-67574342D02*
X166338095Y-67669580D01*
X166338095Y-67669580D02*
X166290476Y-67717200D01*
X166290476Y-67717200D02*
X166195238Y-67764819D01*
X166195238Y-67764819D02*
X165909524Y-67764819D01*
X165909524Y-67764819D02*
X165814286Y-67717200D01*
X165814286Y-67717200D02*
X165766667Y-67669580D01*
X114760476Y-38824819D02*
X114760476Y-39539104D01*
X114760476Y-39539104D02*
X114712857Y-39681961D01*
X114712857Y-39681961D02*
X114617619Y-39777200D01*
X114617619Y-39777200D02*
X114474762Y-39824819D01*
X114474762Y-39824819D02*
X114379524Y-39824819D01*
X115189048Y-38920057D02*
X115236667Y-38872438D01*
X115236667Y-38872438D02*
X115331905Y-38824819D01*
X115331905Y-38824819D02*
X115570000Y-38824819D01*
X115570000Y-38824819D02*
X115665238Y-38872438D01*
X115665238Y-38872438D02*
X115712857Y-38920057D01*
X115712857Y-38920057D02*
X115760476Y-39015295D01*
X115760476Y-39015295D02*
X115760476Y-39110533D01*
X115760476Y-39110533D02*
X115712857Y-39253390D01*
X115712857Y-39253390D02*
X115141429Y-39824819D01*
X115141429Y-39824819D02*
X115760476Y-39824819D01*
X116712857Y-39824819D02*
X116141429Y-39824819D01*
X116427143Y-39824819D02*
X116427143Y-38824819D01*
X116427143Y-38824819D02*
X116331905Y-38967676D01*
X116331905Y-38967676D02*
X116236667Y-39062914D01*
X116236667Y-39062914D02*
X116141429Y-39110533D01*
X99520476Y-79464819D02*
X99520476Y-80179104D01*
X99520476Y-80179104D02*
X99472857Y-80321961D01*
X99472857Y-80321961D02*
X99377619Y-80417200D01*
X99377619Y-80417200D02*
X99234762Y-80464819D01*
X99234762Y-80464819D02*
X99139524Y-80464819D01*
X100520476Y-80464819D02*
X99949048Y-80464819D01*
X100234762Y-80464819D02*
X100234762Y-79464819D01*
X100234762Y-79464819D02*
X100139524Y-79607676D01*
X100139524Y-79607676D02*
X100044286Y-79702914D01*
X100044286Y-79702914D02*
X99949048Y-79750533D01*
X101425238Y-79464819D02*
X100949048Y-79464819D01*
X100949048Y-79464819D02*
X100901429Y-79941009D01*
X100901429Y-79941009D02*
X100949048Y-79893390D01*
X100949048Y-79893390D02*
X101044286Y-79845771D01*
X101044286Y-79845771D02*
X101282381Y-79845771D01*
X101282381Y-79845771D02*
X101377619Y-79893390D01*
X101377619Y-79893390D02*
X101425238Y-79941009D01*
X101425238Y-79941009D02*
X101472857Y-80036247D01*
X101472857Y-80036247D02*
X101472857Y-80274342D01*
X101472857Y-80274342D02*
X101425238Y-80369580D01*
X101425238Y-80369580D02*
X101377619Y-80417200D01*
X101377619Y-80417200D02*
X101282381Y-80464819D01*
X101282381Y-80464819D02*
X101044286Y-80464819D01*
X101044286Y-80464819D02*
X100949048Y-80417200D01*
X100949048Y-80417200D02*
X100901429Y-80369580D01*
X99520476Y-54064819D02*
X99520476Y-54779104D01*
X99520476Y-54779104D02*
X99472857Y-54921961D01*
X99472857Y-54921961D02*
X99377619Y-55017200D01*
X99377619Y-55017200D02*
X99234762Y-55064819D01*
X99234762Y-55064819D02*
X99139524Y-55064819D01*
X99949048Y-54160057D02*
X99996667Y-54112438D01*
X99996667Y-54112438D02*
X100091905Y-54064819D01*
X100091905Y-54064819D02*
X100330000Y-54064819D01*
X100330000Y-54064819D02*
X100425238Y-54112438D01*
X100425238Y-54112438D02*
X100472857Y-54160057D01*
X100472857Y-54160057D02*
X100520476Y-54255295D01*
X100520476Y-54255295D02*
X100520476Y-54350533D01*
X100520476Y-54350533D02*
X100472857Y-54493390D01*
X100472857Y-54493390D02*
X99901429Y-55064819D01*
X99901429Y-55064819D02*
X100520476Y-55064819D01*
X101425238Y-54064819D02*
X100949048Y-54064819D01*
X100949048Y-54064819D02*
X100901429Y-54541009D01*
X100901429Y-54541009D02*
X100949048Y-54493390D01*
X100949048Y-54493390D02*
X101044286Y-54445771D01*
X101044286Y-54445771D02*
X101282381Y-54445771D01*
X101282381Y-54445771D02*
X101377619Y-54493390D01*
X101377619Y-54493390D02*
X101425238Y-54541009D01*
X101425238Y-54541009D02*
X101472857Y-54636247D01*
X101472857Y-54636247D02*
X101472857Y-54874342D01*
X101472857Y-54874342D02*
X101425238Y-54969580D01*
X101425238Y-54969580D02*
X101377619Y-55017200D01*
X101377619Y-55017200D02*
X101282381Y-55064819D01*
X101282381Y-55064819D02*
X101044286Y-55064819D01*
X101044286Y-55064819D02*
X100949048Y-55017200D01*
X100949048Y-55017200D02*
X100901429Y-54969580D01*
X99520476Y-66764819D02*
X99520476Y-67479104D01*
X99520476Y-67479104D02*
X99472857Y-67621961D01*
X99472857Y-67621961D02*
X99377619Y-67717200D01*
X99377619Y-67717200D02*
X99234762Y-67764819D01*
X99234762Y-67764819D02*
X99139524Y-67764819D01*
X99949048Y-66860057D02*
X99996667Y-66812438D01*
X99996667Y-66812438D02*
X100091905Y-66764819D01*
X100091905Y-66764819D02*
X100330000Y-66764819D01*
X100330000Y-66764819D02*
X100425238Y-66812438D01*
X100425238Y-66812438D02*
X100472857Y-66860057D01*
X100472857Y-66860057D02*
X100520476Y-66955295D01*
X100520476Y-66955295D02*
X100520476Y-67050533D01*
X100520476Y-67050533D02*
X100472857Y-67193390D01*
X100472857Y-67193390D02*
X99901429Y-67764819D01*
X99901429Y-67764819D02*
X100520476Y-67764819D01*
X100996667Y-67764819D02*
X101187143Y-67764819D01*
X101187143Y-67764819D02*
X101282381Y-67717200D01*
X101282381Y-67717200D02*
X101330000Y-67669580D01*
X101330000Y-67669580D02*
X101425238Y-67526723D01*
X101425238Y-67526723D02*
X101472857Y-67336247D01*
X101472857Y-67336247D02*
X101472857Y-66955295D01*
X101472857Y-66955295D02*
X101425238Y-66860057D01*
X101425238Y-66860057D02*
X101377619Y-66812438D01*
X101377619Y-66812438D02*
X101282381Y-66764819D01*
X101282381Y-66764819D02*
X101091905Y-66764819D01*
X101091905Y-66764819D02*
X100996667Y-66812438D01*
X100996667Y-66812438D02*
X100949048Y-66860057D01*
X100949048Y-66860057D02*
X100901429Y-66955295D01*
X100901429Y-66955295D02*
X100901429Y-67193390D01*
X100901429Y-67193390D02*
X100949048Y-67288628D01*
X100949048Y-67288628D02*
X100996667Y-67336247D01*
X100996667Y-67336247D02*
X101091905Y-67383866D01*
X101091905Y-67383866D02*
X101282381Y-67383866D01*
X101282381Y-67383866D02*
X101377619Y-67336247D01*
X101377619Y-67336247D02*
X101425238Y-67288628D01*
X101425238Y-67288628D02*
X101472857Y-67193390D01*
X211280476Y-130424819D02*
X211280476Y-131139104D01*
X211280476Y-131139104D02*
X211232857Y-131281961D01*
X211232857Y-131281961D02*
X211137619Y-131377200D01*
X211137619Y-131377200D02*
X210994762Y-131424819D01*
X210994762Y-131424819D02*
X210899524Y-131424819D01*
X211661429Y-130424819D02*
X212280476Y-130424819D01*
X212280476Y-130424819D02*
X211947143Y-130805771D01*
X211947143Y-130805771D02*
X212090000Y-130805771D01*
X212090000Y-130805771D02*
X212185238Y-130853390D01*
X212185238Y-130853390D02*
X212232857Y-130901009D01*
X212232857Y-130901009D02*
X212280476Y-130996247D01*
X212280476Y-130996247D02*
X212280476Y-131234342D01*
X212280476Y-131234342D02*
X212232857Y-131329580D01*
X212232857Y-131329580D02*
X212185238Y-131377200D01*
X212185238Y-131377200D02*
X212090000Y-131424819D01*
X212090000Y-131424819D02*
X211804286Y-131424819D01*
X211804286Y-131424819D02*
X211709048Y-131377200D01*
X211709048Y-131377200D02*
X211661429Y-131329580D01*
X213232857Y-131424819D02*
X212661429Y-131424819D01*
X212947143Y-131424819D02*
X212947143Y-130424819D01*
X212947143Y-130424819D02*
X212851905Y-130567676D01*
X212851905Y-130567676D02*
X212756667Y-130662914D01*
X212756667Y-130662914D02*
X212661429Y-130710533D01*
X160218571Y-107134819D02*
X159885238Y-106658628D01*
X159647143Y-107134819D02*
X159647143Y-106134819D01*
X159647143Y-106134819D02*
X160028095Y-106134819D01*
X160028095Y-106134819D02*
X160123333Y-106182438D01*
X160123333Y-106182438D02*
X160170952Y-106230057D01*
X160170952Y-106230057D02*
X160218571Y-106325295D01*
X160218571Y-106325295D02*
X160218571Y-106468152D01*
X160218571Y-106468152D02*
X160170952Y-106563390D01*
X160170952Y-106563390D02*
X160123333Y-106611009D01*
X160123333Y-106611009D02*
X160028095Y-106658628D01*
X160028095Y-106658628D02*
X159647143Y-106658628D01*
X160504286Y-106134819D02*
X160837619Y-107134819D01*
X160837619Y-107134819D02*
X161170952Y-106134819D01*
X162028095Y-107134819D02*
X161456667Y-107134819D01*
X161742381Y-107134819D02*
X161742381Y-106134819D01*
X161742381Y-106134819D02*
X161647143Y-106277676D01*
X161647143Y-106277676D02*
X161551905Y-106372914D01*
X161551905Y-106372914D02*
X161456667Y-106420533D01*
X162885238Y-106134819D02*
X162694762Y-106134819D01*
X162694762Y-106134819D02*
X162599524Y-106182438D01*
X162599524Y-106182438D02*
X162551905Y-106230057D01*
X162551905Y-106230057D02*
X162456667Y-106372914D01*
X162456667Y-106372914D02*
X162409048Y-106563390D01*
X162409048Y-106563390D02*
X162409048Y-106944342D01*
X162409048Y-106944342D02*
X162456667Y-107039580D01*
X162456667Y-107039580D02*
X162504286Y-107087200D01*
X162504286Y-107087200D02*
X162599524Y-107134819D01*
X162599524Y-107134819D02*
X162790000Y-107134819D01*
X162790000Y-107134819D02*
X162885238Y-107087200D01*
X162885238Y-107087200D02*
X162932857Y-107039580D01*
X162932857Y-107039580D02*
X162980476Y-106944342D01*
X162980476Y-106944342D02*
X162980476Y-106706247D01*
X162980476Y-106706247D02*
X162932857Y-106611009D01*
X162932857Y-106611009D02*
X162885238Y-106563390D01*
X162885238Y-106563390D02*
X162790000Y-106515771D01*
X162790000Y-106515771D02*
X162599524Y-106515771D01*
X162599524Y-106515771D02*
X162504286Y-106563390D01*
X162504286Y-106563390D02*
X162456667Y-106611009D01*
X162456667Y-106611009D02*
X162409048Y-106706247D01*
X222758095Y-143624819D02*
X222758095Y-142624819D01*
X222758095Y-143101009D02*
X223329523Y-143101009D01*
X223329523Y-143624819D02*
X223329523Y-142624819D01*
X224234285Y-142958152D02*
X224234285Y-143624819D01*
X223996190Y-142577200D02*
X223758095Y-143291485D01*
X223758095Y-143291485D02*
X224377142Y-143291485D01*
X114760476Y-54064819D02*
X114760476Y-54779104D01*
X114760476Y-54779104D02*
X114712857Y-54921961D01*
X114712857Y-54921961D02*
X114617619Y-55017200D01*
X114617619Y-55017200D02*
X114474762Y-55064819D01*
X114474762Y-55064819D02*
X114379524Y-55064819D01*
X115760476Y-55064819D02*
X115189048Y-55064819D01*
X115474762Y-55064819D02*
X115474762Y-54064819D01*
X115474762Y-54064819D02*
X115379524Y-54207676D01*
X115379524Y-54207676D02*
X115284286Y-54302914D01*
X115284286Y-54302914D02*
X115189048Y-54350533D01*
X116712857Y-55064819D02*
X116141429Y-55064819D01*
X116427143Y-55064819D02*
X116427143Y-54064819D01*
X116427143Y-54064819D02*
X116331905Y-54207676D01*
X116331905Y-54207676D02*
X116236667Y-54302914D01*
X116236667Y-54302914D02*
X116141429Y-54350533D01*
X148526667Y-39523200D02*
X148669524Y-39570819D01*
X148669524Y-39570819D02*
X148907619Y-39570819D01*
X148907619Y-39570819D02*
X149002857Y-39523200D01*
X149002857Y-39523200D02*
X149050476Y-39475580D01*
X149050476Y-39475580D02*
X149098095Y-39380342D01*
X149098095Y-39380342D02*
X149098095Y-39285104D01*
X149098095Y-39285104D02*
X149050476Y-39189866D01*
X149050476Y-39189866D02*
X149002857Y-39142247D01*
X149002857Y-39142247D02*
X148907619Y-39094628D01*
X148907619Y-39094628D02*
X148717143Y-39047009D01*
X148717143Y-39047009D02*
X148621905Y-38999390D01*
X148621905Y-38999390D02*
X148574286Y-38951771D01*
X148574286Y-38951771D02*
X148526667Y-38856533D01*
X148526667Y-38856533D02*
X148526667Y-38761295D01*
X148526667Y-38761295D02*
X148574286Y-38666057D01*
X148574286Y-38666057D02*
X148621905Y-38618438D01*
X148621905Y-38618438D02*
X148717143Y-38570819D01*
X148717143Y-38570819D02*
X148955238Y-38570819D01*
X148955238Y-38570819D02*
X149098095Y-38618438D01*
X149431429Y-38570819D02*
X149669524Y-39570819D01*
X149669524Y-39570819D02*
X149860000Y-38856533D01*
X149860000Y-38856533D02*
X150050476Y-39570819D01*
X150050476Y-39570819D02*
X150288572Y-38570819D01*
X150574286Y-38570819D02*
X151240952Y-38570819D01*
X151240952Y-38570819D02*
X150812381Y-39570819D01*
X148098095Y-99149819D02*
X148764761Y-99149819D01*
X148764761Y-99149819D02*
X148098095Y-100149819D01*
X148098095Y-100149819D02*
X148764761Y-100149819D01*
X149098095Y-99245057D02*
X149145714Y-99197438D01*
X149145714Y-99197438D02*
X149240952Y-99149819D01*
X149240952Y-99149819D02*
X149479047Y-99149819D01*
X149479047Y-99149819D02*
X149574285Y-99197438D01*
X149574285Y-99197438D02*
X149621904Y-99245057D01*
X149621904Y-99245057D02*
X149669523Y-99340295D01*
X149669523Y-99340295D02*
X149669523Y-99435533D01*
X149669523Y-99435533D02*
X149621904Y-99578390D01*
X149621904Y-99578390D02*
X149050476Y-100149819D01*
X149050476Y-100149819D02*
X149669523Y-100149819D01*
X150526666Y-99149819D02*
X150336190Y-99149819D01*
X150336190Y-99149819D02*
X150240952Y-99197438D01*
X150240952Y-99197438D02*
X150193333Y-99245057D01*
X150193333Y-99245057D02*
X150098095Y-99387914D01*
X150098095Y-99387914D02*
X150050476Y-99578390D01*
X150050476Y-99578390D02*
X150050476Y-99959342D01*
X150050476Y-99959342D02*
X150098095Y-100054580D01*
X150098095Y-100054580D02*
X150145714Y-100102200D01*
X150145714Y-100102200D02*
X150240952Y-100149819D01*
X150240952Y-100149819D02*
X150431428Y-100149819D01*
X150431428Y-100149819D02*
X150526666Y-100102200D01*
X150526666Y-100102200D02*
X150574285Y-100054580D01*
X150574285Y-100054580D02*
X150621904Y-99959342D01*
X150621904Y-99959342D02*
X150621904Y-99721247D01*
X150621904Y-99721247D02*
X150574285Y-99626009D01*
X150574285Y-99626009D02*
X150526666Y-99578390D01*
X150526666Y-99578390D02*
X150431428Y-99530771D01*
X150431428Y-99530771D02*
X150240952Y-99530771D01*
X150240952Y-99530771D02*
X150145714Y-99578390D01*
X150145714Y-99578390D02*
X150098095Y-99626009D01*
X150098095Y-99626009D02*
X150050476Y-99721247D01*
X151479047Y-99149819D02*
X151288571Y-99149819D01*
X151288571Y-99149819D02*
X151193333Y-99197438D01*
X151193333Y-99197438D02*
X151145714Y-99245057D01*
X151145714Y-99245057D02*
X151050476Y-99387914D01*
X151050476Y-99387914D02*
X151002857Y-99578390D01*
X151002857Y-99578390D02*
X151002857Y-99959342D01*
X151002857Y-99959342D02*
X151050476Y-100054580D01*
X151050476Y-100054580D02*
X151098095Y-100102200D01*
X151098095Y-100102200D02*
X151193333Y-100149819D01*
X151193333Y-100149819D02*
X151383809Y-100149819D01*
X151383809Y-100149819D02*
X151479047Y-100102200D01*
X151479047Y-100102200D02*
X151526666Y-100054580D01*
X151526666Y-100054580D02*
X151574285Y-99959342D01*
X151574285Y-99959342D02*
X151574285Y-99721247D01*
X151574285Y-99721247D02*
X151526666Y-99626009D01*
X151526666Y-99626009D02*
X151479047Y-99578390D01*
X151479047Y-99578390D02*
X151383809Y-99530771D01*
X151383809Y-99530771D02*
X151193333Y-99530771D01*
X151193333Y-99530771D02*
X151098095Y-99578390D01*
X151098095Y-99578390D02*
X151050476Y-99626009D01*
X151050476Y-99626009D02*
X151002857Y-99721247D01*
X164338095Y-125394819D02*
X164338095Y-126204342D01*
X164338095Y-126204342D02*
X164385714Y-126299580D01*
X164385714Y-126299580D02*
X164433333Y-126347200D01*
X164433333Y-126347200D02*
X164528571Y-126394819D01*
X164528571Y-126394819D02*
X164719047Y-126394819D01*
X164719047Y-126394819D02*
X164814285Y-126347200D01*
X164814285Y-126347200D02*
X164861904Y-126299580D01*
X164861904Y-126299580D02*
X164909523Y-126204342D01*
X164909523Y-126204342D02*
X164909523Y-125394819D01*
X165338095Y-125490057D02*
X165385714Y-125442438D01*
X165385714Y-125442438D02*
X165480952Y-125394819D01*
X165480952Y-125394819D02*
X165719047Y-125394819D01*
X165719047Y-125394819D02*
X165814285Y-125442438D01*
X165814285Y-125442438D02*
X165861904Y-125490057D01*
X165861904Y-125490057D02*
X165909523Y-125585295D01*
X165909523Y-125585295D02*
X165909523Y-125680533D01*
X165909523Y-125680533D02*
X165861904Y-125823390D01*
X165861904Y-125823390D02*
X165290476Y-126394819D01*
X165290476Y-126394819D02*
X165909523Y-126394819D01*
X107616666Y-38824819D02*
X107616666Y-39539104D01*
X107616666Y-39539104D02*
X107569047Y-39681961D01*
X107569047Y-39681961D02*
X107473809Y-39777200D01*
X107473809Y-39777200D02*
X107330952Y-39824819D01*
X107330952Y-39824819D02*
X107235714Y-39824819D01*
X108616666Y-39824819D02*
X108045238Y-39824819D01*
X108330952Y-39824819D02*
X108330952Y-38824819D01*
X108330952Y-38824819D02*
X108235714Y-38967676D01*
X108235714Y-38967676D02*
X108140476Y-39062914D01*
X108140476Y-39062914D02*
X108045238Y-39110533D01*
X114331905Y-66764819D02*
X114331905Y-67574342D01*
X114331905Y-67574342D02*
X114379524Y-67669580D01*
X114379524Y-67669580D02*
X114427143Y-67717200D01*
X114427143Y-67717200D02*
X114522381Y-67764819D01*
X114522381Y-67764819D02*
X114712857Y-67764819D01*
X114712857Y-67764819D02*
X114808095Y-67717200D01*
X114808095Y-67717200D02*
X114855714Y-67669580D01*
X114855714Y-67669580D02*
X114903333Y-67574342D01*
X114903333Y-67574342D02*
X114903333Y-66764819D01*
X115903333Y-67764819D02*
X115331905Y-67764819D01*
X115617619Y-67764819D02*
X115617619Y-66764819D01*
X115617619Y-66764819D02*
X115522381Y-66907676D01*
X115522381Y-66907676D02*
X115427143Y-67002914D01*
X115427143Y-67002914D02*
X115331905Y-67050533D01*
X116474762Y-67193390D02*
X116379524Y-67145771D01*
X116379524Y-67145771D02*
X116331905Y-67098152D01*
X116331905Y-67098152D02*
X116284286Y-67002914D01*
X116284286Y-67002914D02*
X116284286Y-66955295D01*
X116284286Y-66955295D02*
X116331905Y-66860057D01*
X116331905Y-66860057D02*
X116379524Y-66812438D01*
X116379524Y-66812438D02*
X116474762Y-66764819D01*
X116474762Y-66764819D02*
X116665238Y-66764819D01*
X116665238Y-66764819D02*
X116760476Y-66812438D01*
X116760476Y-66812438D02*
X116808095Y-66860057D01*
X116808095Y-66860057D02*
X116855714Y-66955295D01*
X116855714Y-66955295D02*
X116855714Y-67002914D01*
X116855714Y-67002914D02*
X116808095Y-67098152D01*
X116808095Y-67098152D02*
X116760476Y-67145771D01*
X116760476Y-67145771D02*
X116665238Y-67193390D01*
X116665238Y-67193390D02*
X116474762Y-67193390D01*
X116474762Y-67193390D02*
X116379524Y-67241009D01*
X116379524Y-67241009D02*
X116331905Y-67288628D01*
X116331905Y-67288628D02*
X116284286Y-67383866D01*
X116284286Y-67383866D02*
X116284286Y-67574342D01*
X116284286Y-67574342D02*
X116331905Y-67669580D01*
X116331905Y-67669580D02*
X116379524Y-67717200D01*
X116379524Y-67717200D02*
X116474762Y-67764819D01*
X116474762Y-67764819D02*
X116665238Y-67764819D01*
X116665238Y-67764819D02*
X116760476Y-67717200D01*
X116760476Y-67717200D02*
X116808095Y-67669580D01*
X116808095Y-67669580D02*
X116855714Y-67574342D01*
X116855714Y-67574342D02*
X116855714Y-67383866D01*
X116855714Y-67383866D02*
X116808095Y-67288628D01*
X116808095Y-67288628D02*
X116760476Y-67241009D01*
X116760476Y-67241009D02*
X116665238Y-67193390D01*
X110426667Y-96927200D02*
X110569524Y-96974819D01*
X110569524Y-96974819D02*
X110807619Y-96974819D01*
X110807619Y-96974819D02*
X110902857Y-96927200D01*
X110902857Y-96927200D02*
X110950476Y-96879580D01*
X110950476Y-96879580D02*
X110998095Y-96784342D01*
X110998095Y-96784342D02*
X110998095Y-96689104D01*
X110998095Y-96689104D02*
X110950476Y-96593866D01*
X110950476Y-96593866D02*
X110902857Y-96546247D01*
X110902857Y-96546247D02*
X110807619Y-96498628D01*
X110807619Y-96498628D02*
X110617143Y-96451009D01*
X110617143Y-96451009D02*
X110521905Y-96403390D01*
X110521905Y-96403390D02*
X110474286Y-96355771D01*
X110474286Y-96355771D02*
X110426667Y-96260533D01*
X110426667Y-96260533D02*
X110426667Y-96165295D01*
X110426667Y-96165295D02*
X110474286Y-96070057D01*
X110474286Y-96070057D02*
X110521905Y-96022438D01*
X110521905Y-96022438D02*
X110617143Y-95974819D01*
X110617143Y-95974819D02*
X110855238Y-95974819D01*
X110855238Y-95974819D02*
X110998095Y-96022438D01*
X111331429Y-95974819D02*
X111569524Y-96974819D01*
X111569524Y-96974819D02*
X111760000Y-96260533D01*
X111760000Y-96260533D02*
X111950476Y-96974819D01*
X111950476Y-96974819D02*
X112188572Y-95974819D01*
X112998095Y-96308152D02*
X112998095Y-96974819D01*
X112760000Y-95927200D02*
X112521905Y-96641485D01*
X112521905Y-96641485D02*
X113140952Y-96641485D01*
X194818095Y-125184819D02*
X194818095Y-125994342D01*
X194818095Y-125994342D02*
X194865714Y-126089580D01*
X194865714Y-126089580D02*
X194913333Y-126137200D01*
X194913333Y-126137200D02*
X195008571Y-126184819D01*
X195008571Y-126184819D02*
X195199047Y-126184819D01*
X195199047Y-126184819D02*
X195294285Y-126137200D01*
X195294285Y-126137200D02*
X195341904Y-126089580D01*
X195341904Y-126089580D02*
X195389523Y-125994342D01*
X195389523Y-125994342D02*
X195389523Y-125184819D01*
X196294285Y-125184819D02*
X196103809Y-125184819D01*
X196103809Y-125184819D02*
X196008571Y-125232438D01*
X196008571Y-125232438D02*
X195960952Y-125280057D01*
X195960952Y-125280057D02*
X195865714Y-125422914D01*
X195865714Y-125422914D02*
X195818095Y-125613390D01*
X195818095Y-125613390D02*
X195818095Y-125994342D01*
X195818095Y-125994342D02*
X195865714Y-126089580D01*
X195865714Y-126089580D02*
X195913333Y-126137200D01*
X195913333Y-126137200D02*
X196008571Y-126184819D01*
X196008571Y-126184819D02*
X196199047Y-126184819D01*
X196199047Y-126184819D02*
X196294285Y-126137200D01*
X196294285Y-126137200D02*
X196341904Y-126089580D01*
X196341904Y-126089580D02*
X196389523Y-125994342D01*
X196389523Y-125994342D02*
X196389523Y-125756247D01*
X196389523Y-125756247D02*
X196341904Y-125661009D01*
X196341904Y-125661009D02*
X196294285Y-125613390D01*
X196294285Y-125613390D02*
X196199047Y-125565771D01*
X196199047Y-125565771D02*
X196008571Y-125565771D01*
X196008571Y-125565771D02*
X195913333Y-125613390D01*
X195913333Y-125613390D02*
X195865714Y-125661009D01*
X195865714Y-125661009D02*
X195818095Y-125756247D01*
X111061667Y-138837200D02*
X111204524Y-138884819D01*
X111204524Y-138884819D02*
X111442619Y-138884819D01*
X111442619Y-138884819D02*
X111537857Y-138837200D01*
X111537857Y-138837200D02*
X111585476Y-138789580D01*
X111585476Y-138789580D02*
X111633095Y-138694342D01*
X111633095Y-138694342D02*
X111633095Y-138599104D01*
X111633095Y-138599104D02*
X111585476Y-138503866D01*
X111585476Y-138503866D02*
X111537857Y-138456247D01*
X111537857Y-138456247D02*
X111442619Y-138408628D01*
X111442619Y-138408628D02*
X111252143Y-138361009D01*
X111252143Y-138361009D02*
X111156905Y-138313390D01*
X111156905Y-138313390D02*
X111109286Y-138265771D01*
X111109286Y-138265771D02*
X111061667Y-138170533D01*
X111061667Y-138170533D02*
X111061667Y-138075295D01*
X111061667Y-138075295D02*
X111109286Y-137980057D01*
X111109286Y-137980057D02*
X111156905Y-137932438D01*
X111156905Y-137932438D02*
X111252143Y-137884819D01*
X111252143Y-137884819D02*
X111490238Y-137884819D01*
X111490238Y-137884819D02*
X111633095Y-137932438D01*
X111966429Y-137884819D02*
X112204524Y-138884819D01*
X112204524Y-138884819D02*
X112395000Y-138170533D01*
X112395000Y-138170533D02*
X112585476Y-138884819D01*
X112585476Y-138884819D02*
X112823572Y-137884819D01*
X113109286Y-137884819D02*
X113728333Y-137884819D01*
X113728333Y-137884819D02*
X113395000Y-138265771D01*
X113395000Y-138265771D02*
X113537857Y-138265771D01*
X113537857Y-138265771D02*
X113633095Y-138313390D01*
X113633095Y-138313390D02*
X113680714Y-138361009D01*
X113680714Y-138361009D02*
X113728333Y-138456247D01*
X113728333Y-138456247D02*
X113728333Y-138694342D01*
X113728333Y-138694342D02*
X113680714Y-138789580D01*
X113680714Y-138789580D02*
X113633095Y-138837200D01*
X113633095Y-138837200D02*
X113537857Y-138884819D01*
X113537857Y-138884819D02*
X113252143Y-138884819D01*
X113252143Y-138884819D02*
X113156905Y-138837200D01*
X113156905Y-138837200D02*
X113109286Y-138789580D01*
X146042142Y-147139819D02*
X145708809Y-146663628D01*
X145470714Y-147139819D02*
X145470714Y-146139819D01*
X145470714Y-146139819D02*
X145851666Y-146139819D01*
X145851666Y-146139819D02*
X145946904Y-146187438D01*
X145946904Y-146187438D02*
X145994523Y-146235057D01*
X145994523Y-146235057D02*
X146042142Y-146330295D01*
X146042142Y-146330295D02*
X146042142Y-146473152D01*
X146042142Y-146473152D02*
X145994523Y-146568390D01*
X145994523Y-146568390D02*
X145946904Y-146616009D01*
X145946904Y-146616009D02*
X145851666Y-146663628D01*
X145851666Y-146663628D02*
X145470714Y-146663628D01*
X146899285Y-146473152D02*
X146899285Y-147139819D01*
X146661190Y-146092200D02*
X146423095Y-146806485D01*
X146423095Y-146806485D02*
X147042142Y-146806485D01*
X147851666Y-146139819D02*
X147661190Y-146139819D01*
X147661190Y-146139819D02*
X147565952Y-146187438D01*
X147565952Y-146187438D02*
X147518333Y-146235057D01*
X147518333Y-146235057D02*
X147423095Y-146377914D01*
X147423095Y-146377914D02*
X147375476Y-146568390D01*
X147375476Y-146568390D02*
X147375476Y-146949342D01*
X147375476Y-146949342D02*
X147423095Y-147044580D01*
X147423095Y-147044580D02*
X147470714Y-147092200D01*
X147470714Y-147092200D02*
X147565952Y-147139819D01*
X147565952Y-147139819D02*
X147756428Y-147139819D01*
X147756428Y-147139819D02*
X147851666Y-147092200D01*
X147851666Y-147092200D02*
X147899285Y-147044580D01*
X147899285Y-147044580D02*
X147946904Y-146949342D01*
X147946904Y-146949342D02*
X147946904Y-146711247D01*
X147946904Y-146711247D02*
X147899285Y-146616009D01*
X147899285Y-146616009D02*
X147851666Y-146568390D01*
X147851666Y-146568390D02*
X147756428Y-146520771D01*
X147756428Y-146520771D02*
X147565952Y-146520771D01*
X147565952Y-146520771D02*
X147470714Y-146568390D01*
X147470714Y-146568390D02*
X147423095Y-146616009D01*
X147423095Y-146616009D02*
X147375476Y-146711247D01*
X155718095Y-117564819D02*
X156384761Y-117564819D01*
X156384761Y-117564819D02*
X155718095Y-118564819D01*
X155718095Y-118564819D02*
X156384761Y-118564819D01*
X156718095Y-117660057D02*
X156765714Y-117612438D01*
X156765714Y-117612438D02*
X156860952Y-117564819D01*
X156860952Y-117564819D02*
X157099047Y-117564819D01*
X157099047Y-117564819D02*
X157194285Y-117612438D01*
X157194285Y-117612438D02*
X157241904Y-117660057D01*
X157241904Y-117660057D02*
X157289523Y-117755295D01*
X157289523Y-117755295D02*
X157289523Y-117850533D01*
X157289523Y-117850533D02*
X157241904Y-117993390D01*
X157241904Y-117993390D02*
X156670476Y-118564819D01*
X156670476Y-118564819D02*
X157289523Y-118564819D01*
X158146666Y-117564819D02*
X157956190Y-117564819D01*
X157956190Y-117564819D02*
X157860952Y-117612438D01*
X157860952Y-117612438D02*
X157813333Y-117660057D01*
X157813333Y-117660057D02*
X157718095Y-117802914D01*
X157718095Y-117802914D02*
X157670476Y-117993390D01*
X157670476Y-117993390D02*
X157670476Y-118374342D01*
X157670476Y-118374342D02*
X157718095Y-118469580D01*
X157718095Y-118469580D02*
X157765714Y-118517200D01*
X157765714Y-118517200D02*
X157860952Y-118564819D01*
X157860952Y-118564819D02*
X158051428Y-118564819D01*
X158051428Y-118564819D02*
X158146666Y-118517200D01*
X158146666Y-118517200D02*
X158194285Y-118469580D01*
X158194285Y-118469580D02*
X158241904Y-118374342D01*
X158241904Y-118374342D02*
X158241904Y-118136247D01*
X158241904Y-118136247D02*
X158194285Y-118041009D01*
X158194285Y-118041009D02*
X158146666Y-117993390D01*
X158146666Y-117993390D02*
X158051428Y-117945771D01*
X158051428Y-117945771D02*
X157860952Y-117945771D01*
X157860952Y-117945771D02*
X157765714Y-117993390D01*
X157765714Y-117993390D02*
X157718095Y-118041009D01*
X157718095Y-118041009D02*
X157670476Y-118136247D01*
X159099047Y-117898152D02*
X159099047Y-118564819D01*
X158860952Y-117517200D02*
X158622857Y-118231485D01*
X158622857Y-118231485D02*
X159241904Y-118231485D01*
X110426667Y-126137200D02*
X110569524Y-126184819D01*
X110569524Y-126184819D02*
X110807619Y-126184819D01*
X110807619Y-126184819D02*
X110902857Y-126137200D01*
X110902857Y-126137200D02*
X110950476Y-126089580D01*
X110950476Y-126089580D02*
X110998095Y-125994342D01*
X110998095Y-125994342D02*
X110998095Y-125899104D01*
X110998095Y-125899104D02*
X110950476Y-125803866D01*
X110950476Y-125803866D02*
X110902857Y-125756247D01*
X110902857Y-125756247D02*
X110807619Y-125708628D01*
X110807619Y-125708628D02*
X110617143Y-125661009D01*
X110617143Y-125661009D02*
X110521905Y-125613390D01*
X110521905Y-125613390D02*
X110474286Y-125565771D01*
X110474286Y-125565771D02*
X110426667Y-125470533D01*
X110426667Y-125470533D02*
X110426667Y-125375295D01*
X110426667Y-125375295D02*
X110474286Y-125280057D01*
X110474286Y-125280057D02*
X110521905Y-125232438D01*
X110521905Y-125232438D02*
X110617143Y-125184819D01*
X110617143Y-125184819D02*
X110855238Y-125184819D01*
X110855238Y-125184819D02*
X110998095Y-125232438D01*
X111331429Y-125184819D02*
X111569524Y-126184819D01*
X111569524Y-126184819D02*
X111760000Y-125470533D01*
X111760000Y-125470533D02*
X111950476Y-126184819D01*
X111950476Y-126184819D02*
X112188572Y-125184819D01*
X113093333Y-126184819D02*
X112521905Y-126184819D01*
X112807619Y-126184819D02*
X112807619Y-125184819D01*
X112807619Y-125184819D02*
X112712381Y-125327676D01*
X112712381Y-125327676D02*
X112617143Y-125422914D01*
X112617143Y-125422914D02*
X112521905Y-125470533D01*
X134024761Y-126199819D02*
X133691428Y-125723628D01*
X133453333Y-126199819D02*
X133453333Y-125199819D01*
X133453333Y-125199819D02*
X133834285Y-125199819D01*
X133834285Y-125199819D02*
X133929523Y-125247438D01*
X133929523Y-125247438D02*
X133977142Y-125295057D01*
X133977142Y-125295057D02*
X134024761Y-125390295D01*
X134024761Y-125390295D02*
X134024761Y-125533152D01*
X134024761Y-125533152D02*
X133977142Y-125628390D01*
X133977142Y-125628390D02*
X133929523Y-125676009D01*
X133929523Y-125676009D02*
X133834285Y-125723628D01*
X133834285Y-125723628D02*
X133453333Y-125723628D01*
X134310476Y-125199819D02*
X134643809Y-126199819D01*
X134643809Y-126199819D02*
X134977142Y-125199819D01*
X135215238Y-125199819D02*
X135834285Y-125199819D01*
X135834285Y-125199819D02*
X135500952Y-125580771D01*
X135500952Y-125580771D02*
X135643809Y-125580771D01*
X135643809Y-125580771D02*
X135739047Y-125628390D01*
X135739047Y-125628390D02*
X135786666Y-125676009D01*
X135786666Y-125676009D02*
X135834285Y-125771247D01*
X135834285Y-125771247D02*
X135834285Y-126009342D01*
X135834285Y-126009342D02*
X135786666Y-126104580D01*
X135786666Y-126104580D02*
X135739047Y-126152200D01*
X135739047Y-126152200D02*
X135643809Y-126199819D01*
X135643809Y-126199819D02*
X135358095Y-126199819D01*
X135358095Y-126199819D02*
X135262857Y-126152200D01*
X135262857Y-126152200D02*
X135215238Y-126104580D01*
X107140476Y-54064819D02*
X107140476Y-54779104D01*
X107140476Y-54779104D02*
X107092857Y-54921961D01*
X107092857Y-54921961D02*
X106997619Y-55017200D01*
X106997619Y-55017200D02*
X106854762Y-55064819D01*
X106854762Y-55064819D02*
X106759524Y-55064819D01*
X108140476Y-55064819D02*
X107569048Y-55064819D01*
X107854762Y-55064819D02*
X107854762Y-54064819D01*
X107854762Y-54064819D02*
X107759524Y-54207676D01*
X107759524Y-54207676D02*
X107664286Y-54302914D01*
X107664286Y-54302914D02*
X107569048Y-54350533D01*
X108759524Y-54064819D02*
X108854762Y-54064819D01*
X108854762Y-54064819D02*
X108950000Y-54112438D01*
X108950000Y-54112438D02*
X108997619Y-54160057D01*
X108997619Y-54160057D02*
X109045238Y-54255295D01*
X109045238Y-54255295D02*
X109092857Y-54445771D01*
X109092857Y-54445771D02*
X109092857Y-54683866D01*
X109092857Y-54683866D02*
X109045238Y-54874342D01*
X109045238Y-54874342D02*
X108997619Y-54969580D01*
X108997619Y-54969580D02*
X108950000Y-55017200D01*
X108950000Y-55017200D02*
X108854762Y-55064819D01*
X108854762Y-55064819D02*
X108759524Y-55064819D01*
X108759524Y-55064819D02*
X108664286Y-55017200D01*
X108664286Y-55017200D02*
X108616667Y-54969580D01*
X108616667Y-54969580D02*
X108569048Y-54874342D01*
X108569048Y-54874342D02*
X108521429Y-54683866D01*
X108521429Y-54683866D02*
X108521429Y-54445771D01*
X108521429Y-54445771D02*
X108569048Y-54255295D01*
X108569048Y-54255295D02*
X108616667Y-54160057D01*
X108616667Y-54160057D02*
X108664286Y-54112438D01*
X108664286Y-54112438D02*
X108759524Y-54064819D01*
X114760476Y-46444819D02*
X114760476Y-47159104D01*
X114760476Y-47159104D02*
X114712857Y-47301961D01*
X114712857Y-47301961D02*
X114617619Y-47397200D01*
X114617619Y-47397200D02*
X114474762Y-47444819D01*
X114474762Y-47444819D02*
X114379524Y-47444819D01*
X115189048Y-46540057D02*
X115236667Y-46492438D01*
X115236667Y-46492438D02*
X115331905Y-46444819D01*
X115331905Y-46444819D02*
X115570000Y-46444819D01*
X115570000Y-46444819D02*
X115665238Y-46492438D01*
X115665238Y-46492438D02*
X115712857Y-46540057D01*
X115712857Y-46540057D02*
X115760476Y-46635295D01*
X115760476Y-46635295D02*
X115760476Y-46730533D01*
X115760476Y-46730533D02*
X115712857Y-46873390D01*
X115712857Y-46873390D02*
X115141429Y-47444819D01*
X115141429Y-47444819D02*
X115760476Y-47444819D01*
X116617619Y-46444819D02*
X116427143Y-46444819D01*
X116427143Y-46444819D02*
X116331905Y-46492438D01*
X116331905Y-46492438D02*
X116284286Y-46540057D01*
X116284286Y-46540057D02*
X116189048Y-46682914D01*
X116189048Y-46682914D02*
X116141429Y-46873390D01*
X116141429Y-46873390D02*
X116141429Y-47254342D01*
X116141429Y-47254342D02*
X116189048Y-47349580D01*
X116189048Y-47349580D02*
X116236667Y-47397200D01*
X116236667Y-47397200D02*
X116331905Y-47444819D01*
X116331905Y-47444819D02*
X116522381Y-47444819D01*
X116522381Y-47444819D02*
X116617619Y-47397200D01*
X116617619Y-47397200D02*
X116665238Y-47349580D01*
X116665238Y-47349580D02*
X116712857Y-47254342D01*
X116712857Y-47254342D02*
X116712857Y-47016247D01*
X116712857Y-47016247D02*
X116665238Y-46921009D01*
X116665238Y-46921009D02*
X116617619Y-46873390D01*
X116617619Y-46873390D02*
X116522381Y-46825771D01*
X116522381Y-46825771D02*
X116331905Y-46825771D01*
X116331905Y-46825771D02*
X116236667Y-46873390D01*
X116236667Y-46873390D02*
X116189048Y-46921009D01*
X116189048Y-46921009D02*
X116141429Y-47016247D01*
X177363571Y-107134819D02*
X177030238Y-106658628D01*
X176792143Y-107134819D02*
X176792143Y-106134819D01*
X176792143Y-106134819D02*
X177173095Y-106134819D01*
X177173095Y-106134819D02*
X177268333Y-106182438D01*
X177268333Y-106182438D02*
X177315952Y-106230057D01*
X177315952Y-106230057D02*
X177363571Y-106325295D01*
X177363571Y-106325295D02*
X177363571Y-106468152D01*
X177363571Y-106468152D02*
X177315952Y-106563390D01*
X177315952Y-106563390D02*
X177268333Y-106611009D01*
X177268333Y-106611009D02*
X177173095Y-106658628D01*
X177173095Y-106658628D02*
X176792143Y-106658628D01*
X177649286Y-106134819D02*
X177982619Y-107134819D01*
X177982619Y-107134819D02*
X178315952Y-106134819D01*
X179173095Y-107134819D02*
X178601667Y-107134819D01*
X178887381Y-107134819D02*
X178887381Y-106134819D01*
X178887381Y-106134819D02*
X178792143Y-106277676D01*
X178792143Y-106277676D02*
X178696905Y-106372914D01*
X178696905Y-106372914D02*
X178601667Y-106420533D01*
X180077857Y-106134819D02*
X179601667Y-106134819D01*
X179601667Y-106134819D02*
X179554048Y-106611009D01*
X179554048Y-106611009D02*
X179601667Y-106563390D01*
X179601667Y-106563390D02*
X179696905Y-106515771D01*
X179696905Y-106515771D02*
X179935000Y-106515771D01*
X179935000Y-106515771D02*
X180030238Y-106563390D01*
X180030238Y-106563390D02*
X180077857Y-106611009D01*
X180077857Y-106611009D02*
X180125476Y-106706247D01*
X180125476Y-106706247D02*
X180125476Y-106944342D01*
X180125476Y-106944342D02*
X180077857Y-107039580D01*
X180077857Y-107039580D02*
X180030238Y-107087200D01*
X180030238Y-107087200D02*
X179935000Y-107134819D01*
X179935000Y-107134819D02*
X179696905Y-107134819D01*
X179696905Y-107134819D02*
X179601667Y-107087200D01*
X179601667Y-107087200D02*
X179554048Y-107039580D01*
X99996666Y-137884819D02*
X99996666Y-138599104D01*
X99996666Y-138599104D02*
X99949047Y-138741961D01*
X99949047Y-138741961D02*
X99853809Y-138837200D01*
X99853809Y-138837200D02*
X99710952Y-138884819D01*
X99710952Y-138884819D02*
X99615714Y-138884819D01*
X100949047Y-137884819D02*
X100472857Y-137884819D01*
X100472857Y-137884819D02*
X100425238Y-138361009D01*
X100425238Y-138361009D02*
X100472857Y-138313390D01*
X100472857Y-138313390D02*
X100568095Y-138265771D01*
X100568095Y-138265771D02*
X100806190Y-138265771D01*
X100806190Y-138265771D02*
X100901428Y-138313390D01*
X100901428Y-138313390D02*
X100949047Y-138361009D01*
X100949047Y-138361009D02*
X100996666Y-138456247D01*
X100996666Y-138456247D02*
X100996666Y-138694342D01*
X100996666Y-138694342D02*
X100949047Y-138789580D01*
X100949047Y-138789580D02*
X100901428Y-138837200D01*
X100901428Y-138837200D02*
X100806190Y-138884819D01*
X100806190Y-138884819D02*
X100568095Y-138884819D01*
X100568095Y-138884819D02*
X100472857Y-138837200D01*
X100472857Y-138837200D02*
X100425238Y-138789580D01*
X129738571Y-67764819D02*
X129405238Y-67288628D01*
X129167143Y-67764819D02*
X129167143Y-66764819D01*
X129167143Y-66764819D02*
X129548095Y-66764819D01*
X129548095Y-66764819D02*
X129643333Y-66812438D01*
X129643333Y-66812438D02*
X129690952Y-66860057D01*
X129690952Y-66860057D02*
X129738571Y-66955295D01*
X129738571Y-66955295D02*
X129738571Y-67098152D01*
X129738571Y-67098152D02*
X129690952Y-67193390D01*
X129690952Y-67193390D02*
X129643333Y-67241009D01*
X129643333Y-67241009D02*
X129548095Y-67288628D01*
X129548095Y-67288628D02*
X129167143Y-67288628D01*
X130024286Y-66764819D02*
X130357619Y-67764819D01*
X130357619Y-67764819D02*
X130690952Y-66764819D01*
X130976667Y-66860057D02*
X131024286Y-66812438D01*
X131024286Y-66812438D02*
X131119524Y-66764819D01*
X131119524Y-66764819D02*
X131357619Y-66764819D01*
X131357619Y-66764819D02*
X131452857Y-66812438D01*
X131452857Y-66812438D02*
X131500476Y-66860057D01*
X131500476Y-66860057D02*
X131548095Y-66955295D01*
X131548095Y-66955295D02*
X131548095Y-67050533D01*
X131548095Y-67050533D02*
X131500476Y-67193390D01*
X131500476Y-67193390D02*
X130929048Y-67764819D01*
X130929048Y-67764819D02*
X131548095Y-67764819D01*
X132500476Y-67764819D02*
X131929048Y-67764819D01*
X132214762Y-67764819D02*
X132214762Y-66764819D01*
X132214762Y-66764819D02*
X132119524Y-66907676D01*
X132119524Y-66907676D02*
X132024286Y-67002914D01*
X132024286Y-67002914D02*
X131929048Y-67050533D01*
X168237142Y-94339580D02*
X168189523Y-94387200D01*
X168189523Y-94387200D02*
X168046666Y-94434819D01*
X168046666Y-94434819D02*
X167951428Y-94434819D01*
X167951428Y-94434819D02*
X167808571Y-94387200D01*
X167808571Y-94387200D02*
X167713333Y-94291961D01*
X167713333Y-94291961D02*
X167665714Y-94196723D01*
X167665714Y-94196723D02*
X167618095Y-94006247D01*
X167618095Y-94006247D02*
X167618095Y-93863390D01*
X167618095Y-93863390D02*
X167665714Y-93672914D01*
X167665714Y-93672914D02*
X167713333Y-93577676D01*
X167713333Y-93577676D02*
X167808571Y-93482438D01*
X167808571Y-93482438D02*
X167951428Y-93434819D01*
X167951428Y-93434819D02*
X168046666Y-93434819D01*
X168046666Y-93434819D02*
X168189523Y-93482438D01*
X168189523Y-93482438D02*
X168237142Y-93530057D01*
X168570476Y-93434819D02*
X169189523Y-93434819D01*
X169189523Y-93434819D02*
X168856190Y-93815771D01*
X168856190Y-93815771D02*
X168999047Y-93815771D01*
X168999047Y-93815771D02*
X169094285Y-93863390D01*
X169094285Y-93863390D02*
X169141904Y-93911009D01*
X169141904Y-93911009D02*
X169189523Y-94006247D01*
X169189523Y-94006247D02*
X169189523Y-94244342D01*
X169189523Y-94244342D02*
X169141904Y-94339580D01*
X169141904Y-94339580D02*
X169094285Y-94387200D01*
X169094285Y-94387200D02*
X168999047Y-94434819D01*
X168999047Y-94434819D02*
X168713333Y-94434819D01*
X168713333Y-94434819D02*
X168618095Y-94387200D01*
X168618095Y-94387200D02*
X168570476Y-94339580D01*
X170046666Y-93434819D02*
X169856190Y-93434819D01*
X169856190Y-93434819D02*
X169760952Y-93482438D01*
X169760952Y-93482438D02*
X169713333Y-93530057D01*
X169713333Y-93530057D02*
X169618095Y-93672914D01*
X169618095Y-93672914D02*
X169570476Y-93863390D01*
X169570476Y-93863390D02*
X169570476Y-94244342D01*
X169570476Y-94244342D02*
X169618095Y-94339580D01*
X169618095Y-94339580D02*
X169665714Y-94387200D01*
X169665714Y-94387200D02*
X169760952Y-94434819D01*
X169760952Y-94434819D02*
X169951428Y-94434819D01*
X169951428Y-94434819D02*
X170046666Y-94387200D01*
X170046666Y-94387200D02*
X170094285Y-94339580D01*
X170094285Y-94339580D02*
X170141904Y-94244342D01*
X170141904Y-94244342D02*
X170141904Y-94006247D01*
X170141904Y-94006247D02*
X170094285Y-93911009D01*
X170094285Y-93911009D02*
X170046666Y-93863390D01*
X170046666Y-93863390D02*
X169951428Y-93815771D01*
X169951428Y-93815771D02*
X169760952Y-93815771D01*
X169760952Y-93815771D02*
X169665714Y-93863390D01*
X169665714Y-93863390D02*
X169618095Y-93911009D01*
X169618095Y-93911009D02*
X169570476Y-94006247D01*
X125714286Y-119469819D02*
X126380952Y-119469819D01*
X126380952Y-119469819D02*
X125714286Y-120469819D01*
X125714286Y-120469819D02*
X126380952Y-120469819D01*
X127285714Y-120469819D02*
X126714286Y-120469819D01*
X127000000Y-120469819D02*
X127000000Y-119469819D01*
X127000000Y-119469819D02*
X126904762Y-119612676D01*
X126904762Y-119612676D02*
X126809524Y-119707914D01*
X126809524Y-119707914D02*
X126714286Y-119755533D01*
X127619048Y-119469819D02*
X128285714Y-119469819D01*
X128285714Y-119469819D02*
X127857143Y-120469819D01*
X99520476Y-125184819D02*
X99520476Y-125899104D01*
X99520476Y-125899104D02*
X99472857Y-126041961D01*
X99472857Y-126041961D02*
X99377619Y-126137200D01*
X99377619Y-126137200D02*
X99234762Y-126184819D01*
X99234762Y-126184819D02*
X99139524Y-126184819D01*
X100520476Y-126184819D02*
X99949048Y-126184819D01*
X100234762Y-126184819D02*
X100234762Y-125184819D01*
X100234762Y-125184819D02*
X100139524Y-125327676D01*
X100139524Y-125327676D02*
X100044286Y-125422914D01*
X100044286Y-125422914D02*
X99949048Y-125470533D01*
X100853810Y-125184819D02*
X101472857Y-125184819D01*
X101472857Y-125184819D02*
X101139524Y-125565771D01*
X101139524Y-125565771D02*
X101282381Y-125565771D01*
X101282381Y-125565771D02*
X101377619Y-125613390D01*
X101377619Y-125613390D02*
X101425238Y-125661009D01*
X101425238Y-125661009D02*
X101472857Y-125756247D01*
X101472857Y-125756247D02*
X101472857Y-125994342D01*
X101472857Y-125994342D02*
X101425238Y-126089580D01*
X101425238Y-126089580D02*
X101377619Y-126137200D01*
X101377619Y-126137200D02*
X101282381Y-126184819D01*
X101282381Y-126184819D02*
X100996667Y-126184819D01*
X100996667Y-126184819D02*
X100901429Y-126137200D01*
X100901429Y-126137200D02*
X100853810Y-126089580D01*
X134024761Y-136344819D02*
X133691428Y-135868628D01*
X133453333Y-136344819D02*
X133453333Y-135344819D01*
X133453333Y-135344819D02*
X133834285Y-135344819D01*
X133834285Y-135344819D02*
X133929523Y-135392438D01*
X133929523Y-135392438D02*
X133977142Y-135440057D01*
X133977142Y-135440057D02*
X134024761Y-135535295D01*
X134024761Y-135535295D02*
X134024761Y-135678152D01*
X134024761Y-135678152D02*
X133977142Y-135773390D01*
X133977142Y-135773390D02*
X133929523Y-135821009D01*
X133929523Y-135821009D02*
X133834285Y-135868628D01*
X133834285Y-135868628D02*
X133453333Y-135868628D01*
X134310476Y-135344819D02*
X134643809Y-136344819D01*
X134643809Y-136344819D02*
X134977142Y-135344819D01*
X135215238Y-135344819D02*
X135881904Y-135344819D01*
X135881904Y-135344819D02*
X135453333Y-136344819D01*
X122380476Y-54064819D02*
X122380476Y-54779104D01*
X122380476Y-54779104D02*
X122332857Y-54921961D01*
X122332857Y-54921961D02*
X122237619Y-55017200D01*
X122237619Y-55017200D02*
X122094762Y-55064819D01*
X122094762Y-55064819D02*
X121999524Y-55064819D01*
X122761429Y-54064819D02*
X123380476Y-54064819D01*
X123380476Y-54064819D02*
X123047143Y-54445771D01*
X123047143Y-54445771D02*
X123190000Y-54445771D01*
X123190000Y-54445771D02*
X123285238Y-54493390D01*
X123285238Y-54493390D02*
X123332857Y-54541009D01*
X123332857Y-54541009D02*
X123380476Y-54636247D01*
X123380476Y-54636247D02*
X123380476Y-54874342D01*
X123380476Y-54874342D02*
X123332857Y-54969580D01*
X123332857Y-54969580D02*
X123285238Y-55017200D01*
X123285238Y-55017200D02*
X123190000Y-55064819D01*
X123190000Y-55064819D02*
X122904286Y-55064819D01*
X122904286Y-55064819D02*
X122809048Y-55017200D01*
X122809048Y-55017200D02*
X122761429Y-54969580D01*
X123761429Y-54160057D02*
X123809048Y-54112438D01*
X123809048Y-54112438D02*
X123904286Y-54064819D01*
X123904286Y-54064819D02*
X124142381Y-54064819D01*
X124142381Y-54064819D02*
X124237619Y-54112438D01*
X124237619Y-54112438D02*
X124285238Y-54160057D01*
X124285238Y-54160057D02*
X124332857Y-54255295D01*
X124332857Y-54255295D02*
X124332857Y-54350533D01*
X124332857Y-54350533D02*
X124285238Y-54493390D01*
X124285238Y-54493390D02*
X123713810Y-55064819D01*
X123713810Y-55064819D02*
X124332857Y-55064819D01*
X133286667Y-67717200D02*
X133429524Y-67764819D01*
X133429524Y-67764819D02*
X133667619Y-67764819D01*
X133667619Y-67764819D02*
X133762857Y-67717200D01*
X133762857Y-67717200D02*
X133810476Y-67669580D01*
X133810476Y-67669580D02*
X133858095Y-67574342D01*
X133858095Y-67574342D02*
X133858095Y-67479104D01*
X133858095Y-67479104D02*
X133810476Y-67383866D01*
X133810476Y-67383866D02*
X133762857Y-67336247D01*
X133762857Y-67336247D02*
X133667619Y-67288628D01*
X133667619Y-67288628D02*
X133477143Y-67241009D01*
X133477143Y-67241009D02*
X133381905Y-67193390D01*
X133381905Y-67193390D02*
X133334286Y-67145771D01*
X133334286Y-67145771D02*
X133286667Y-67050533D01*
X133286667Y-67050533D02*
X133286667Y-66955295D01*
X133286667Y-66955295D02*
X133334286Y-66860057D01*
X133334286Y-66860057D02*
X133381905Y-66812438D01*
X133381905Y-66812438D02*
X133477143Y-66764819D01*
X133477143Y-66764819D02*
X133715238Y-66764819D01*
X133715238Y-66764819D02*
X133858095Y-66812438D01*
X134191429Y-66764819D02*
X134429524Y-67764819D01*
X134429524Y-67764819D02*
X134620000Y-67050533D01*
X134620000Y-67050533D02*
X134810476Y-67764819D01*
X134810476Y-67764819D02*
X135048572Y-66764819D01*
X135477143Y-67764819D02*
X135667619Y-67764819D01*
X135667619Y-67764819D02*
X135762857Y-67717200D01*
X135762857Y-67717200D02*
X135810476Y-67669580D01*
X135810476Y-67669580D02*
X135905714Y-67526723D01*
X135905714Y-67526723D02*
X135953333Y-67336247D01*
X135953333Y-67336247D02*
X135953333Y-66955295D01*
X135953333Y-66955295D02*
X135905714Y-66860057D01*
X135905714Y-66860057D02*
X135858095Y-66812438D01*
X135858095Y-66812438D02*
X135762857Y-66764819D01*
X135762857Y-66764819D02*
X135572381Y-66764819D01*
X135572381Y-66764819D02*
X135477143Y-66812438D01*
X135477143Y-66812438D02*
X135429524Y-66860057D01*
X135429524Y-66860057D02*
X135381905Y-66955295D01*
X135381905Y-66955295D02*
X135381905Y-67193390D01*
X135381905Y-67193390D02*
X135429524Y-67288628D01*
X135429524Y-67288628D02*
X135477143Y-67336247D01*
X135477143Y-67336247D02*
X135572381Y-67383866D01*
X135572381Y-67383866D02*
X135762857Y-67383866D01*
X135762857Y-67383866D02*
X135858095Y-67336247D01*
X135858095Y-67336247D02*
X135905714Y-67288628D01*
X135905714Y-67288628D02*
X135953333Y-67193390D01*
X194818095Y-38824819D02*
X194818095Y-39634342D01*
X194818095Y-39634342D02*
X194865714Y-39729580D01*
X194865714Y-39729580D02*
X194913333Y-39777200D01*
X194913333Y-39777200D02*
X195008571Y-39824819D01*
X195008571Y-39824819D02*
X195199047Y-39824819D01*
X195199047Y-39824819D02*
X195294285Y-39777200D01*
X195294285Y-39777200D02*
X195341904Y-39729580D01*
X195341904Y-39729580D02*
X195389523Y-39634342D01*
X195389523Y-39634342D02*
X195389523Y-38824819D01*
X195770476Y-38824819D02*
X196389523Y-38824819D01*
X196389523Y-38824819D02*
X196056190Y-39205771D01*
X196056190Y-39205771D02*
X196199047Y-39205771D01*
X196199047Y-39205771D02*
X196294285Y-39253390D01*
X196294285Y-39253390D02*
X196341904Y-39301009D01*
X196341904Y-39301009D02*
X196389523Y-39396247D01*
X196389523Y-39396247D02*
X196389523Y-39634342D01*
X196389523Y-39634342D02*
X196341904Y-39729580D01*
X196341904Y-39729580D02*
X196294285Y-39777200D01*
X196294285Y-39777200D02*
X196199047Y-39824819D01*
X196199047Y-39824819D02*
X195913333Y-39824819D01*
X195913333Y-39824819D02*
X195818095Y-39777200D01*
X195818095Y-39777200D02*
X195770476Y-39729580D01*
X125714286Y-133439819D02*
X126380952Y-133439819D01*
X126380952Y-133439819D02*
X125714286Y-134439819D01*
X125714286Y-134439819D02*
X126380952Y-134439819D01*
X127190476Y-133439819D02*
X127000000Y-133439819D01*
X127000000Y-133439819D02*
X126904762Y-133487438D01*
X126904762Y-133487438D02*
X126857143Y-133535057D01*
X126857143Y-133535057D02*
X126761905Y-133677914D01*
X126761905Y-133677914D02*
X126714286Y-133868390D01*
X126714286Y-133868390D02*
X126714286Y-134249342D01*
X126714286Y-134249342D02*
X126761905Y-134344580D01*
X126761905Y-134344580D02*
X126809524Y-134392200D01*
X126809524Y-134392200D02*
X126904762Y-134439819D01*
X126904762Y-134439819D02*
X127095238Y-134439819D01*
X127095238Y-134439819D02*
X127190476Y-134392200D01*
X127190476Y-134392200D02*
X127238095Y-134344580D01*
X127238095Y-134344580D02*
X127285714Y-134249342D01*
X127285714Y-134249342D02*
X127285714Y-134011247D01*
X127285714Y-134011247D02*
X127238095Y-133916009D01*
X127238095Y-133916009D02*
X127190476Y-133868390D01*
X127190476Y-133868390D02*
X127095238Y-133820771D01*
X127095238Y-133820771D02*
X126904762Y-133820771D01*
X126904762Y-133820771D02*
X126809524Y-133868390D01*
X126809524Y-133868390D02*
X126761905Y-133916009D01*
X126761905Y-133916009D02*
X126714286Y-134011247D01*
X128238095Y-134439819D02*
X127666667Y-134439819D01*
X127952381Y-134439819D02*
X127952381Y-133439819D01*
X127952381Y-133439819D02*
X127857143Y-133582676D01*
X127857143Y-133582676D02*
X127761905Y-133677914D01*
X127761905Y-133677914D02*
X127666667Y-133725533D01*
X148740952Y-107769819D02*
X148407619Y-107293628D01*
X148169524Y-107769819D02*
X148169524Y-106769819D01*
X148169524Y-106769819D02*
X148550476Y-106769819D01*
X148550476Y-106769819D02*
X148645714Y-106817438D01*
X148645714Y-106817438D02*
X148693333Y-106865057D01*
X148693333Y-106865057D02*
X148740952Y-106960295D01*
X148740952Y-106960295D02*
X148740952Y-107103152D01*
X148740952Y-107103152D02*
X148693333Y-107198390D01*
X148693333Y-107198390D02*
X148645714Y-107246009D01*
X148645714Y-107246009D02*
X148550476Y-107293628D01*
X148550476Y-107293628D02*
X148169524Y-107293628D01*
X149693333Y-107769819D02*
X149121905Y-107769819D01*
X149407619Y-107769819D02*
X149407619Y-106769819D01*
X149407619Y-106769819D02*
X149312381Y-106912676D01*
X149312381Y-106912676D02*
X149217143Y-107007914D01*
X149217143Y-107007914D02*
X149121905Y-107055533D01*
X150598095Y-106769819D02*
X150121905Y-106769819D01*
X150121905Y-106769819D02*
X150074286Y-107246009D01*
X150074286Y-107246009D02*
X150121905Y-107198390D01*
X150121905Y-107198390D02*
X150217143Y-107150771D01*
X150217143Y-107150771D02*
X150455238Y-107150771D01*
X150455238Y-107150771D02*
X150550476Y-107198390D01*
X150550476Y-107198390D02*
X150598095Y-107246009D01*
X150598095Y-107246009D02*
X150645714Y-107341247D01*
X150645714Y-107341247D02*
X150645714Y-107579342D01*
X150645714Y-107579342D02*
X150598095Y-107674580D01*
X150598095Y-107674580D02*
X150550476Y-107722200D01*
X150550476Y-107722200D02*
X150455238Y-107769819D01*
X150455238Y-107769819D02*
X150217143Y-107769819D01*
X150217143Y-107769819D02*
X150121905Y-107722200D01*
X150121905Y-107722200D02*
X150074286Y-107674580D01*
X151502857Y-107103152D02*
X151502857Y-107769819D01*
X151264762Y-106722200D02*
X151026667Y-107436485D01*
X151026667Y-107436485D02*
X151645714Y-107436485D01*
X107354761Y-126184819D02*
X107021428Y-125708628D01*
X106783333Y-126184819D02*
X106783333Y-125184819D01*
X106783333Y-125184819D02*
X107164285Y-125184819D01*
X107164285Y-125184819D02*
X107259523Y-125232438D01*
X107259523Y-125232438D02*
X107307142Y-125280057D01*
X107307142Y-125280057D02*
X107354761Y-125375295D01*
X107354761Y-125375295D02*
X107354761Y-125518152D01*
X107354761Y-125518152D02*
X107307142Y-125613390D01*
X107307142Y-125613390D02*
X107259523Y-125661009D01*
X107259523Y-125661009D02*
X107164285Y-125708628D01*
X107164285Y-125708628D02*
X106783333Y-125708628D01*
X107640476Y-125184819D02*
X107973809Y-126184819D01*
X107973809Y-126184819D02*
X108307142Y-125184819D01*
X109164285Y-126184819D02*
X108592857Y-126184819D01*
X108878571Y-126184819D02*
X108878571Y-125184819D01*
X108878571Y-125184819D02*
X108783333Y-125327676D01*
X108783333Y-125327676D02*
X108688095Y-125422914D01*
X108688095Y-125422914D02*
X108592857Y-125470533D01*
X125880952Y-133169819D02*
X125547619Y-132693628D01*
X125309524Y-133169819D02*
X125309524Y-132169819D01*
X125309524Y-132169819D02*
X125690476Y-132169819D01*
X125690476Y-132169819D02*
X125785714Y-132217438D01*
X125785714Y-132217438D02*
X125833333Y-132265057D01*
X125833333Y-132265057D02*
X125880952Y-132360295D01*
X125880952Y-132360295D02*
X125880952Y-132503152D01*
X125880952Y-132503152D02*
X125833333Y-132598390D01*
X125833333Y-132598390D02*
X125785714Y-132646009D01*
X125785714Y-132646009D02*
X125690476Y-132693628D01*
X125690476Y-132693628D02*
X125309524Y-132693628D01*
X126833333Y-133169819D02*
X126261905Y-133169819D01*
X126547619Y-133169819D02*
X126547619Y-132169819D01*
X126547619Y-132169819D02*
X126452381Y-132312676D01*
X126452381Y-132312676D02*
X126357143Y-132407914D01*
X126357143Y-132407914D02*
X126261905Y-132455533D01*
X127738095Y-132169819D02*
X127261905Y-132169819D01*
X127261905Y-132169819D02*
X127214286Y-132646009D01*
X127214286Y-132646009D02*
X127261905Y-132598390D01*
X127261905Y-132598390D02*
X127357143Y-132550771D01*
X127357143Y-132550771D02*
X127595238Y-132550771D01*
X127595238Y-132550771D02*
X127690476Y-132598390D01*
X127690476Y-132598390D02*
X127738095Y-132646009D01*
X127738095Y-132646009D02*
X127785714Y-132741247D01*
X127785714Y-132741247D02*
X127785714Y-132979342D01*
X127785714Y-132979342D02*
X127738095Y-133074580D01*
X127738095Y-133074580D02*
X127690476Y-133122200D01*
X127690476Y-133122200D02*
X127595238Y-133169819D01*
X127595238Y-133169819D02*
X127357143Y-133169819D01*
X127357143Y-133169819D02*
X127261905Y-133122200D01*
X127261905Y-133122200D02*
X127214286Y-133074580D01*
X128690476Y-132169819D02*
X128214286Y-132169819D01*
X128214286Y-132169819D02*
X128166667Y-132646009D01*
X128166667Y-132646009D02*
X128214286Y-132598390D01*
X128214286Y-132598390D02*
X128309524Y-132550771D01*
X128309524Y-132550771D02*
X128547619Y-132550771D01*
X128547619Y-132550771D02*
X128642857Y-132598390D01*
X128642857Y-132598390D02*
X128690476Y-132646009D01*
X128690476Y-132646009D02*
X128738095Y-132741247D01*
X128738095Y-132741247D02*
X128738095Y-132979342D01*
X128738095Y-132979342D02*
X128690476Y-133074580D01*
X128690476Y-133074580D02*
X128642857Y-133122200D01*
X128642857Y-133122200D02*
X128547619Y-133169819D01*
X128547619Y-133169819D02*
X128309524Y-133169819D01*
X128309524Y-133169819D02*
X128214286Y-133122200D01*
X128214286Y-133122200D02*
X128166667Y-133074580D01*
X107354761Y-136344819D02*
X107021428Y-135868628D01*
X106783333Y-136344819D02*
X106783333Y-135344819D01*
X106783333Y-135344819D02*
X107164285Y-135344819D01*
X107164285Y-135344819D02*
X107259523Y-135392438D01*
X107259523Y-135392438D02*
X107307142Y-135440057D01*
X107307142Y-135440057D02*
X107354761Y-135535295D01*
X107354761Y-135535295D02*
X107354761Y-135678152D01*
X107354761Y-135678152D02*
X107307142Y-135773390D01*
X107307142Y-135773390D02*
X107259523Y-135821009D01*
X107259523Y-135821009D02*
X107164285Y-135868628D01*
X107164285Y-135868628D02*
X106783333Y-135868628D01*
X107640476Y-135344819D02*
X107973809Y-136344819D01*
X107973809Y-136344819D02*
X108307142Y-135344819D01*
X109116666Y-135344819D02*
X108640476Y-135344819D01*
X108640476Y-135344819D02*
X108592857Y-135821009D01*
X108592857Y-135821009D02*
X108640476Y-135773390D01*
X108640476Y-135773390D02*
X108735714Y-135725771D01*
X108735714Y-135725771D02*
X108973809Y-135725771D01*
X108973809Y-135725771D02*
X109069047Y-135773390D01*
X109069047Y-135773390D02*
X109116666Y-135821009D01*
X109116666Y-135821009D02*
X109164285Y-135916247D01*
X109164285Y-135916247D02*
X109164285Y-136154342D01*
X109164285Y-136154342D02*
X109116666Y-136249580D01*
X109116666Y-136249580D02*
X109069047Y-136297200D01*
X109069047Y-136297200D02*
X108973809Y-136344819D01*
X108973809Y-136344819D02*
X108735714Y-136344819D01*
X108735714Y-136344819D02*
X108640476Y-136297200D01*
X108640476Y-136297200D02*
X108592857Y-136249580D01*
X125714286Y-141059819D02*
X126380952Y-141059819D01*
X126380952Y-141059819D02*
X125714286Y-142059819D01*
X125714286Y-142059819D02*
X126380952Y-142059819D01*
X127190476Y-141059819D02*
X127000000Y-141059819D01*
X127000000Y-141059819D02*
X126904762Y-141107438D01*
X126904762Y-141107438D02*
X126857143Y-141155057D01*
X126857143Y-141155057D02*
X126761905Y-141297914D01*
X126761905Y-141297914D02*
X126714286Y-141488390D01*
X126714286Y-141488390D02*
X126714286Y-141869342D01*
X126714286Y-141869342D02*
X126761905Y-141964580D01*
X126761905Y-141964580D02*
X126809524Y-142012200D01*
X126809524Y-142012200D02*
X126904762Y-142059819D01*
X126904762Y-142059819D02*
X127095238Y-142059819D01*
X127095238Y-142059819D02*
X127190476Y-142012200D01*
X127190476Y-142012200D02*
X127238095Y-141964580D01*
X127238095Y-141964580D02*
X127285714Y-141869342D01*
X127285714Y-141869342D02*
X127285714Y-141631247D01*
X127285714Y-141631247D02*
X127238095Y-141536009D01*
X127238095Y-141536009D02*
X127190476Y-141488390D01*
X127190476Y-141488390D02*
X127095238Y-141440771D01*
X127095238Y-141440771D02*
X126904762Y-141440771D01*
X126904762Y-141440771D02*
X126809524Y-141488390D01*
X126809524Y-141488390D02*
X126761905Y-141536009D01*
X126761905Y-141536009D02*
X126714286Y-141631247D01*
X128142857Y-141393152D02*
X128142857Y-142059819D01*
X127904762Y-141012200D02*
X127666667Y-141726485D01*
X127666667Y-141726485D02*
X128285714Y-141726485D01*
X125880952Y-117929819D02*
X125547619Y-117453628D01*
X125309524Y-117929819D02*
X125309524Y-116929819D01*
X125309524Y-116929819D02*
X125690476Y-116929819D01*
X125690476Y-116929819D02*
X125785714Y-116977438D01*
X125785714Y-116977438D02*
X125833333Y-117025057D01*
X125833333Y-117025057D02*
X125880952Y-117120295D01*
X125880952Y-117120295D02*
X125880952Y-117263152D01*
X125880952Y-117263152D02*
X125833333Y-117358390D01*
X125833333Y-117358390D02*
X125785714Y-117406009D01*
X125785714Y-117406009D02*
X125690476Y-117453628D01*
X125690476Y-117453628D02*
X125309524Y-117453628D01*
X126833333Y-117929819D02*
X126261905Y-117929819D01*
X126547619Y-117929819D02*
X126547619Y-116929819D01*
X126547619Y-116929819D02*
X126452381Y-117072676D01*
X126452381Y-117072676D02*
X126357143Y-117167914D01*
X126357143Y-117167914D02*
X126261905Y-117215533D01*
X127738095Y-116929819D02*
X127261905Y-116929819D01*
X127261905Y-116929819D02*
X127214286Y-117406009D01*
X127214286Y-117406009D02*
X127261905Y-117358390D01*
X127261905Y-117358390D02*
X127357143Y-117310771D01*
X127357143Y-117310771D02*
X127595238Y-117310771D01*
X127595238Y-117310771D02*
X127690476Y-117358390D01*
X127690476Y-117358390D02*
X127738095Y-117406009D01*
X127738095Y-117406009D02*
X127785714Y-117501247D01*
X127785714Y-117501247D02*
X127785714Y-117739342D01*
X127785714Y-117739342D02*
X127738095Y-117834580D01*
X127738095Y-117834580D02*
X127690476Y-117882200D01*
X127690476Y-117882200D02*
X127595238Y-117929819D01*
X127595238Y-117929819D02*
X127357143Y-117929819D01*
X127357143Y-117929819D02*
X127261905Y-117882200D01*
X127261905Y-117882200D02*
X127214286Y-117834580D01*
X128119048Y-116929819D02*
X128738095Y-116929819D01*
X128738095Y-116929819D02*
X128404762Y-117310771D01*
X128404762Y-117310771D02*
X128547619Y-117310771D01*
X128547619Y-117310771D02*
X128642857Y-117358390D01*
X128642857Y-117358390D02*
X128690476Y-117406009D01*
X128690476Y-117406009D02*
X128738095Y-117501247D01*
X128738095Y-117501247D02*
X128738095Y-117739342D01*
X128738095Y-117739342D02*
X128690476Y-117834580D01*
X128690476Y-117834580D02*
X128642857Y-117882200D01*
X128642857Y-117882200D02*
X128547619Y-117929819D01*
X128547619Y-117929819D02*
X128261905Y-117929819D01*
X128261905Y-117929819D02*
X128166667Y-117882200D01*
X128166667Y-117882200D02*
X128119048Y-117834580D01*
X151908095Y-99149819D02*
X152574761Y-99149819D01*
X152574761Y-99149819D02*
X151908095Y-100149819D01*
X151908095Y-100149819D02*
X152574761Y-100149819D01*
X152908095Y-99245057D02*
X152955714Y-99197438D01*
X152955714Y-99197438D02*
X153050952Y-99149819D01*
X153050952Y-99149819D02*
X153289047Y-99149819D01*
X153289047Y-99149819D02*
X153384285Y-99197438D01*
X153384285Y-99197438D02*
X153431904Y-99245057D01*
X153431904Y-99245057D02*
X153479523Y-99340295D01*
X153479523Y-99340295D02*
X153479523Y-99435533D01*
X153479523Y-99435533D02*
X153431904Y-99578390D01*
X153431904Y-99578390D02*
X152860476Y-100149819D01*
X152860476Y-100149819D02*
X153479523Y-100149819D01*
X154336666Y-99149819D02*
X154146190Y-99149819D01*
X154146190Y-99149819D02*
X154050952Y-99197438D01*
X154050952Y-99197438D02*
X154003333Y-99245057D01*
X154003333Y-99245057D02*
X153908095Y-99387914D01*
X153908095Y-99387914D02*
X153860476Y-99578390D01*
X153860476Y-99578390D02*
X153860476Y-99959342D01*
X153860476Y-99959342D02*
X153908095Y-100054580D01*
X153908095Y-100054580D02*
X153955714Y-100102200D01*
X153955714Y-100102200D02*
X154050952Y-100149819D01*
X154050952Y-100149819D02*
X154241428Y-100149819D01*
X154241428Y-100149819D02*
X154336666Y-100102200D01*
X154336666Y-100102200D02*
X154384285Y-100054580D01*
X154384285Y-100054580D02*
X154431904Y-99959342D01*
X154431904Y-99959342D02*
X154431904Y-99721247D01*
X154431904Y-99721247D02*
X154384285Y-99626009D01*
X154384285Y-99626009D02*
X154336666Y-99578390D01*
X154336666Y-99578390D02*
X154241428Y-99530771D01*
X154241428Y-99530771D02*
X154050952Y-99530771D01*
X154050952Y-99530771D02*
X153955714Y-99578390D01*
X153955714Y-99578390D02*
X153908095Y-99626009D01*
X153908095Y-99626009D02*
X153860476Y-99721247D01*
X155336666Y-99149819D02*
X154860476Y-99149819D01*
X154860476Y-99149819D02*
X154812857Y-99626009D01*
X154812857Y-99626009D02*
X154860476Y-99578390D01*
X154860476Y-99578390D02*
X154955714Y-99530771D01*
X154955714Y-99530771D02*
X155193809Y-99530771D01*
X155193809Y-99530771D02*
X155289047Y-99578390D01*
X155289047Y-99578390D02*
X155336666Y-99626009D01*
X155336666Y-99626009D02*
X155384285Y-99721247D01*
X155384285Y-99721247D02*
X155384285Y-99959342D01*
X155384285Y-99959342D02*
X155336666Y-100054580D01*
X155336666Y-100054580D02*
X155289047Y-100102200D01*
X155289047Y-100102200D02*
X155193809Y-100149819D01*
X155193809Y-100149819D02*
X154955714Y-100149819D01*
X154955714Y-100149819D02*
X154860476Y-100102200D01*
X154860476Y-100102200D02*
X154812857Y-100054580D01*
X141597142Y-123549580D02*
X141549523Y-123597200D01*
X141549523Y-123597200D02*
X141406666Y-123644819D01*
X141406666Y-123644819D02*
X141311428Y-123644819D01*
X141311428Y-123644819D02*
X141168571Y-123597200D01*
X141168571Y-123597200D02*
X141073333Y-123501961D01*
X141073333Y-123501961D02*
X141025714Y-123406723D01*
X141025714Y-123406723D02*
X140978095Y-123216247D01*
X140978095Y-123216247D02*
X140978095Y-123073390D01*
X140978095Y-123073390D02*
X141025714Y-122882914D01*
X141025714Y-122882914D02*
X141073333Y-122787676D01*
X141073333Y-122787676D02*
X141168571Y-122692438D01*
X141168571Y-122692438D02*
X141311428Y-122644819D01*
X141311428Y-122644819D02*
X141406666Y-122644819D01*
X141406666Y-122644819D02*
X141549523Y-122692438D01*
X141549523Y-122692438D02*
X141597142Y-122740057D01*
X142549523Y-123644819D02*
X141978095Y-123644819D01*
X142263809Y-123644819D02*
X142263809Y-122644819D01*
X142263809Y-122644819D02*
X142168571Y-122787676D01*
X142168571Y-122787676D02*
X142073333Y-122882914D01*
X142073333Y-122882914D02*
X141978095Y-122930533D01*
X143454285Y-122644819D02*
X142978095Y-122644819D01*
X142978095Y-122644819D02*
X142930476Y-123121009D01*
X142930476Y-123121009D02*
X142978095Y-123073390D01*
X142978095Y-123073390D02*
X143073333Y-123025771D01*
X143073333Y-123025771D02*
X143311428Y-123025771D01*
X143311428Y-123025771D02*
X143406666Y-123073390D01*
X143406666Y-123073390D02*
X143454285Y-123121009D01*
X143454285Y-123121009D02*
X143501904Y-123216247D01*
X143501904Y-123216247D02*
X143501904Y-123454342D01*
X143501904Y-123454342D02*
X143454285Y-123549580D01*
X143454285Y-123549580D02*
X143406666Y-123597200D01*
X143406666Y-123597200D02*
X143311428Y-123644819D01*
X143311428Y-123644819D02*
X143073333Y-123644819D01*
X143073333Y-123644819D02*
X142978095Y-123597200D01*
X142978095Y-123597200D02*
X142930476Y-123549580D01*
X137191905Y-38824819D02*
X137191905Y-39634342D01*
X137191905Y-39634342D02*
X137239524Y-39729580D01*
X137239524Y-39729580D02*
X137287143Y-39777200D01*
X137287143Y-39777200D02*
X137382381Y-39824819D01*
X137382381Y-39824819D02*
X137572857Y-39824819D01*
X137572857Y-39824819D02*
X137668095Y-39777200D01*
X137668095Y-39777200D02*
X137715714Y-39729580D01*
X137715714Y-39729580D02*
X137763333Y-39634342D01*
X137763333Y-39634342D02*
X137763333Y-38824819D01*
X138191905Y-38920057D02*
X138239524Y-38872438D01*
X138239524Y-38872438D02*
X138334762Y-38824819D01*
X138334762Y-38824819D02*
X138572857Y-38824819D01*
X138572857Y-38824819D02*
X138668095Y-38872438D01*
X138668095Y-38872438D02*
X138715714Y-38920057D01*
X138715714Y-38920057D02*
X138763333Y-39015295D01*
X138763333Y-39015295D02*
X138763333Y-39110533D01*
X138763333Y-39110533D02*
X138715714Y-39253390D01*
X138715714Y-39253390D02*
X138144286Y-39824819D01*
X138144286Y-39824819D02*
X138763333Y-39824819D01*
X139144286Y-38920057D02*
X139191905Y-38872438D01*
X139191905Y-38872438D02*
X139287143Y-38824819D01*
X139287143Y-38824819D02*
X139525238Y-38824819D01*
X139525238Y-38824819D02*
X139620476Y-38872438D01*
X139620476Y-38872438D02*
X139668095Y-38920057D01*
X139668095Y-38920057D02*
X139715714Y-39015295D01*
X139715714Y-39015295D02*
X139715714Y-39110533D01*
X139715714Y-39110533D02*
X139668095Y-39253390D01*
X139668095Y-39253390D02*
X139096667Y-39824819D01*
X139096667Y-39824819D02*
X139715714Y-39824819D01*
X106616667Y-67717200D02*
X106759524Y-67764819D01*
X106759524Y-67764819D02*
X106997619Y-67764819D01*
X106997619Y-67764819D02*
X107092857Y-67717200D01*
X107092857Y-67717200D02*
X107140476Y-67669580D01*
X107140476Y-67669580D02*
X107188095Y-67574342D01*
X107188095Y-67574342D02*
X107188095Y-67479104D01*
X107188095Y-67479104D02*
X107140476Y-67383866D01*
X107140476Y-67383866D02*
X107092857Y-67336247D01*
X107092857Y-67336247D02*
X106997619Y-67288628D01*
X106997619Y-67288628D02*
X106807143Y-67241009D01*
X106807143Y-67241009D02*
X106711905Y-67193390D01*
X106711905Y-67193390D02*
X106664286Y-67145771D01*
X106664286Y-67145771D02*
X106616667Y-67050533D01*
X106616667Y-67050533D02*
X106616667Y-66955295D01*
X106616667Y-66955295D02*
X106664286Y-66860057D01*
X106664286Y-66860057D02*
X106711905Y-66812438D01*
X106711905Y-66812438D02*
X106807143Y-66764819D01*
X106807143Y-66764819D02*
X107045238Y-66764819D01*
X107045238Y-66764819D02*
X107188095Y-66812438D01*
X107521429Y-66764819D02*
X107759524Y-67764819D01*
X107759524Y-67764819D02*
X107950000Y-67050533D01*
X107950000Y-67050533D02*
X108140476Y-67764819D01*
X108140476Y-67764819D02*
X108378572Y-66764819D01*
X109188095Y-66764819D02*
X108997619Y-66764819D01*
X108997619Y-66764819D02*
X108902381Y-66812438D01*
X108902381Y-66812438D02*
X108854762Y-66860057D01*
X108854762Y-66860057D02*
X108759524Y-67002914D01*
X108759524Y-67002914D02*
X108711905Y-67193390D01*
X108711905Y-67193390D02*
X108711905Y-67574342D01*
X108711905Y-67574342D02*
X108759524Y-67669580D01*
X108759524Y-67669580D02*
X108807143Y-67717200D01*
X108807143Y-67717200D02*
X108902381Y-67764819D01*
X108902381Y-67764819D02*
X109092857Y-67764819D01*
X109092857Y-67764819D02*
X109188095Y-67717200D01*
X109188095Y-67717200D02*
X109235714Y-67669580D01*
X109235714Y-67669580D02*
X109283333Y-67574342D01*
X109283333Y-67574342D02*
X109283333Y-67336247D01*
X109283333Y-67336247D02*
X109235714Y-67241009D01*
X109235714Y-67241009D02*
X109188095Y-67193390D01*
X109188095Y-67193390D02*
X109092857Y-67145771D01*
X109092857Y-67145771D02*
X108902381Y-67145771D01*
X108902381Y-67145771D02*
X108807143Y-67193390D01*
X108807143Y-67193390D02*
X108759524Y-67241009D01*
X108759524Y-67241009D02*
X108711905Y-67336247D01*
X152598571Y-49984819D02*
X152265238Y-49508628D01*
X152027143Y-49984819D02*
X152027143Y-48984819D01*
X152027143Y-48984819D02*
X152408095Y-48984819D01*
X152408095Y-48984819D02*
X152503333Y-49032438D01*
X152503333Y-49032438D02*
X152550952Y-49080057D01*
X152550952Y-49080057D02*
X152598571Y-49175295D01*
X152598571Y-49175295D02*
X152598571Y-49318152D01*
X152598571Y-49318152D02*
X152550952Y-49413390D01*
X152550952Y-49413390D02*
X152503333Y-49461009D01*
X152503333Y-49461009D02*
X152408095Y-49508628D01*
X152408095Y-49508628D02*
X152027143Y-49508628D01*
X152884286Y-48984819D02*
X153217619Y-49984819D01*
X153217619Y-49984819D02*
X153550952Y-48984819D01*
X153836667Y-49080057D02*
X153884286Y-49032438D01*
X153884286Y-49032438D02*
X153979524Y-48984819D01*
X153979524Y-48984819D02*
X154217619Y-48984819D01*
X154217619Y-48984819D02*
X154312857Y-49032438D01*
X154312857Y-49032438D02*
X154360476Y-49080057D01*
X154360476Y-49080057D02*
X154408095Y-49175295D01*
X154408095Y-49175295D02*
X154408095Y-49270533D01*
X154408095Y-49270533D02*
X154360476Y-49413390D01*
X154360476Y-49413390D02*
X153789048Y-49984819D01*
X153789048Y-49984819D02*
X154408095Y-49984819D01*
X154789048Y-49080057D02*
X154836667Y-49032438D01*
X154836667Y-49032438D02*
X154931905Y-48984819D01*
X154931905Y-48984819D02*
X155170000Y-48984819D01*
X155170000Y-48984819D02*
X155265238Y-49032438D01*
X155265238Y-49032438D02*
X155312857Y-49080057D01*
X155312857Y-49080057D02*
X155360476Y-49175295D01*
X155360476Y-49175295D02*
X155360476Y-49270533D01*
X155360476Y-49270533D02*
X155312857Y-49413390D01*
X155312857Y-49413390D02*
X154741429Y-49984819D01*
X154741429Y-49984819D02*
X155360476Y-49984819D01*
X88138095Y-143624819D02*
X88138095Y-142624819D01*
X88138095Y-143101009D02*
X88709523Y-143101009D01*
X88709523Y-143624819D02*
X88709523Y-142624819D01*
X89661904Y-142624819D02*
X89185714Y-142624819D01*
X89185714Y-142624819D02*
X89138095Y-143101009D01*
X89138095Y-143101009D02*
X89185714Y-143053390D01*
X89185714Y-143053390D02*
X89280952Y-143005771D01*
X89280952Y-143005771D02*
X89519047Y-143005771D01*
X89519047Y-143005771D02*
X89614285Y-143053390D01*
X89614285Y-143053390D02*
X89661904Y-143101009D01*
X89661904Y-143101009D02*
X89709523Y-143196247D01*
X89709523Y-143196247D02*
X89709523Y-143434342D01*
X89709523Y-143434342D02*
X89661904Y-143529580D01*
X89661904Y-143529580D02*
X89614285Y-143577200D01*
X89614285Y-143577200D02*
X89519047Y-143624819D01*
X89519047Y-143624819D02*
X89280952Y-143624819D01*
X89280952Y-143624819D02*
X89185714Y-143577200D01*
X89185714Y-143577200D02*
X89138095Y-143529580D01*
X110426667Y-109627200D02*
X110569524Y-109674819D01*
X110569524Y-109674819D02*
X110807619Y-109674819D01*
X110807619Y-109674819D02*
X110902857Y-109627200D01*
X110902857Y-109627200D02*
X110950476Y-109579580D01*
X110950476Y-109579580D02*
X110998095Y-109484342D01*
X110998095Y-109484342D02*
X110998095Y-109389104D01*
X110998095Y-109389104D02*
X110950476Y-109293866D01*
X110950476Y-109293866D02*
X110902857Y-109246247D01*
X110902857Y-109246247D02*
X110807619Y-109198628D01*
X110807619Y-109198628D02*
X110617143Y-109151009D01*
X110617143Y-109151009D02*
X110521905Y-109103390D01*
X110521905Y-109103390D02*
X110474286Y-109055771D01*
X110474286Y-109055771D02*
X110426667Y-108960533D01*
X110426667Y-108960533D02*
X110426667Y-108865295D01*
X110426667Y-108865295D02*
X110474286Y-108770057D01*
X110474286Y-108770057D02*
X110521905Y-108722438D01*
X110521905Y-108722438D02*
X110617143Y-108674819D01*
X110617143Y-108674819D02*
X110855238Y-108674819D01*
X110855238Y-108674819D02*
X110998095Y-108722438D01*
X111331429Y-108674819D02*
X111569524Y-109674819D01*
X111569524Y-109674819D02*
X111760000Y-108960533D01*
X111760000Y-108960533D02*
X111950476Y-109674819D01*
X111950476Y-109674819D02*
X112188572Y-108674819D01*
X113045714Y-108674819D02*
X112569524Y-108674819D01*
X112569524Y-108674819D02*
X112521905Y-109151009D01*
X112521905Y-109151009D02*
X112569524Y-109103390D01*
X112569524Y-109103390D02*
X112664762Y-109055771D01*
X112664762Y-109055771D02*
X112902857Y-109055771D01*
X112902857Y-109055771D02*
X112998095Y-109103390D01*
X112998095Y-109103390D02*
X113045714Y-109151009D01*
X113045714Y-109151009D02*
X113093333Y-109246247D01*
X113093333Y-109246247D02*
X113093333Y-109484342D01*
X113093333Y-109484342D02*
X113045714Y-109579580D01*
X113045714Y-109579580D02*
X112998095Y-109627200D01*
X112998095Y-109627200D02*
X112902857Y-109674819D01*
X112902857Y-109674819D02*
X112664762Y-109674819D01*
X112664762Y-109674819D02*
X112569524Y-109627200D01*
X112569524Y-109627200D02*
X112521905Y-109579580D01*
X106616667Y-80417200D02*
X106759524Y-80464819D01*
X106759524Y-80464819D02*
X106997619Y-80464819D01*
X106997619Y-80464819D02*
X107092857Y-80417200D01*
X107092857Y-80417200D02*
X107140476Y-80369580D01*
X107140476Y-80369580D02*
X107188095Y-80274342D01*
X107188095Y-80274342D02*
X107188095Y-80179104D01*
X107188095Y-80179104D02*
X107140476Y-80083866D01*
X107140476Y-80083866D02*
X107092857Y-80036247D01*
X107092857Y-80036247D02*
X106997619Y-79988628D01*
X106997619Y-79988628D02*
X106807143Y-79941009D01*
X106807143Y-79941009D02*
X106711905Y-79893390D01*
X106711905Y-79893390D02*
X106664286Y-79845771D01*
X106664286Y-79845771D02*
X106616667Y-79750533D01*
X106616667Y-79750533D02*
X106616667Y-79655295D01*
X106616667Y-79655295D02*
X106664286Y-79560057D01*
X106664286Y-79560057D02*
X106711905Y-79512438D01*
X106711905Y-79512438D02*
X106807143Y-79464819D01*
X106807143Y-79464819D02*
X107045238Y-79464819D01*
X107045238Y-79464819D02*
X107188095Y-79512438D01*
X107521429Y-79464819D02*
X107759524Y-80464819D01*
X107759524Y-80464819D02*
X107950000Y-79750533D01*
X107950000Y-79750533D02*
X108140476Y-80464819D01*
X108140476Y-80464819D02*
X108378572Y-79464819D01*
X108902381Y-79893390D02*
X108807143Y-79845771D01*
X108807143Y-79845771D02*
X108759524Y-79798152D01*
X108759524Y-79798152D02*
X108711905Y-79702914D01*
X108711905Y-79702914D02*
X108711905Y-79655295D01*
X108711905Y-79655295D02*
X108759524Y-79560057D01*
X108759524Y-79560057D02*
X108807143Y-79512438D01*
X108807143Y-79512438D02*
X108902381Y-79464819D01*
X108902381Y-79464819D02*
X109092857Y-79464819D01*
X109092857Y-79464819D02*
X109188095Y-79512438D01*
X109188095Y-79512438D02*
X109235714Y-79560057D01*
X109235714Y-79560057D02*
X109283333Y-79655295D01*
X109283333Y-79655295D02*
X109283333Y-79702914D01*
X109283333Y-79702914D02*
X109235714Y-79798152D01*
X109235714Y-79798152D02*
X109188095Y-79845771D01*
X109188095Y-79845771D02*
X109092857Y-79893390D01*
X109092857Y-79893390D02*
X108902381Y-79893390D01*
X108902381Y-79893390D02*
X108807143Y-79941009D01*
X108807143Y-79941009D02*
X108759524Y-79988628D01*
X108759524Y-79988628D02*
X108711905Y-80083866D01*
X108711905Y-80083866D02*
X108711905Y-80274342D01*
X108711905Y-80274342D02*
X108759524Y-80369580D01*
X108759524Y-80369580D02*
X108807143Y-80417200D01*
X108807143Y-80417200D02*
X108902381Y-80464819D01*
X108902381Y-80464819D02*
X109092857Y-80464819D01*
X109092857Y-80464819D02*
X109188095Y-80417200D01*
X109188095Y-80417200D02*
X109235714Y-80369580D01*
X109235714Y-80369580D02*
X109283333Y-80274342D01*
X109283333Y-80274342D02*
X109283333Y-80083866D01*
X109283333Y-80083866D02*
X109235714Y-79988628D01*
X109235714Y-79988628D02*
X109188095Y-79941009D01*
X109188095Y-79941009D02*
X109092857Y-79893390D01*
X146042142Y-123644819D02*
X145708809Y-123168628D01*
X145470714Y-123644819D02*
X145470714Y-122644819D01*
X145470714Y-122644819D02*
X145851666Y-122644819D01*
X145851666Y-122644819D02*
X145946904Y-122692438D01*
X145946904Y-122692438D02*
X145994523Y-122740057D01*
X145994523Y-122740057D02*
X146042142Y-122835295D01*
X146042142Y-122835295D02*
X146042142Y-122978152D01*
X146042142Y-122978152D02*
X145994523Y-123073390D01*
X145994523Y-123073390D02*
X145946904Y-123121009D01*
X145946904Y-123121009D02*
X145851666Y-123168628D01*
X145851666Y-123168628D02*
X145470714Y-123168628D01*
X146423095Y-122740057D02*
X146470714Y-122692438D01*
X146470714Y-122692438D02*
X146565952Y-122644819D01*
X146565952Y-122644819D02*
X146804047Y-122644819D01*
X146804047Y-122644819D02*
X146899285Y-122692438D01*
X146899285Y-122692438D02*
X146946904Y-122740057D01*
X146946904Y-122740057D02*
X146994523Y-122835295D01*
X146994523Y-122835295D02*
X146994523Y-122930533D01*
X146994523Y-122930533D02*
X146946904Y-123073390D01*
X146946904Y-123073390D02*
X146375476Y-123644819D01*
X146375476Y-123644819D02*
X146994523Y-123644819D01*
X147375476Y-122740057D02*
X147423095Y-122692438D01*
X147423095Y-122692438D02*
X147518333Y-122644819D01*
X147518333Y-122644819D02*
X147756428Y-122644819D01*
X147756428Y-122644819D02*
X147851666Y-122692438D01*
X147851666Y-122692438D02*
X147899285Y-122740057D01*
X147899285Y-122740057D02*
X147946904Y-122835295D01*
X147946904Y-122835295D02*
X147946904Y-122930533D01*
X147946904Y-122930533D02*
X147899285Y-123073390D01*
X147899285Y-123073390D02*
X147327857Y-123644819D01*
X147327857Y-123644819D02*
X147946904Y-123644819D01*
X151908095Y-97879819D02*
X152574761Y-97879819D01*
X152574761Y-97879819D02*
X151908095Y-98879819D01*
X151908095Y-98879819D02*
X152574761Y-98879819D01*
X152908095Y-97975057D02*
X152955714Y-97927438D01*
X152955714Y-97927438D02*
X153050952Y-97879819D01*
X153050952Y-97879819D02*
X153289047Y-97879819D01*
X153289047Y-97879819D02*
X153384285Y-97927438D01*
X153384285Y-97927438D02*
X153431904Y-97975057D01*
X153431904Y-97975057D02*
X153479523Y-98070295D01*
X153479523Y-98070295D02*
X153479523Y-98165533D01*
X153479523Y-98165533D02*
X153431904Y-98308390D01*
X153431904Y-98308390D02*
X152860476Y-98879819D01*
X152860476Y-98879819D02*
X153479523Y-98879819D01*
X154336666Y-97879819D02*
X154146190Y-97879819D01*
X154146190Y-97879819D02*
X154050952Y-97927438D01*
X154050952Y-97927438D02*
X154003333Y-97975057D01*
X154003333Y-97975057D02*
X153908095Y-98117914D01*
X153908095Y-98117914D02*
X153860476Y-98308390D01*
X153860476Y-98308390D02*
X153860476Y-98689342D01*
X153860476Y-98689342D02*
X153908095Y-98784580D01*
X153908095Y-98784580D02*
X153955714Y-98832200D01*
X153955714Y-98832200D02*
X154050952Y-98879819D01*
X154050952Y-98879819D02*
X154241428Y-98879819D01*
X154241428Y-98879819D02*
X154336666Y-98832200D01*
X154336666Y-98832200D02*
X154384285Y-98784580D01*
X154384285Y-98784580D02*
X154431904Y-98689342D01*
X154431904Y-98689342D02*
X154431904Y-98451247D01*
X154431904Y-98451247D02*
X154384285Y-98356009D01*
X154384285Y-98356009D02*
X154336666Y-98308390D01*
X154336666Y-98308390D02*
X154241428Y-98260771D01*
X154241428Y-98260771D02*
X154050952Y-98260771D01*
X154050952Y-98260771D02*
X153955714Y-98308390D01*
X153955714Y-98308390D02*
X153908095Y-98356009D01*
X153908095Y-98356009D02*
X153860476Y-98451247D01*
X154765238Y-97879819D02*
X155384285Y-97879819D01*
X155384285Y-97879819D02*
X155050952Y-98260771D01*
X155050952Y-98260771D02*
X155193809Y-98260771D01*
X155193809Y-98260771D02*
X155289047Y-98308390D01*
X155289047Y-98308390D02*
X155336666Y-98356009D01*
X155336666Y-98356009D02*
X155384285Y-98451247D01*
X155384285Y-98451247D02*
X155384285Y-98689342D01*
X155384285Y-98689342D02*
X155336666Y-98784580D01*
X155336666Y-98784580D02*
X155289047Y-98832200D01*
X155289047Y-98832200D02*
X155193809Y-98879819D01*
X155193809Y-98879819D02*
X154908095Y-98879819D01*
X154908095Y-98879819D02*
X154812857Y-98832200D01*
X154812857Y-98832200D02*
X154765238Y-98784580D01*
X141597142Y-147044580D02*
X141549523Y-147092200D01*
X141549523Y-147092200D02*
X141406666Y-147139819D01*
X141406666Y-147139819D02*
X141311428Y-147139819D01*
X141311428Y-147139819D02*
X141168571Y-147092200D01*
X141168571Y-147092200D02*
X141073333Y-146996961D01*
X141073333Y-146996961D02*
X141025714Y-146901723D01*
X141025714Y-146901723D02*
X140978095Y-146711247D01*
X140978095Y-146711247D02*
X140978095Y-146568390D01*
X140978095Y-146568390D02*
X141025714Y-146377914D01*
X141025714Y-146377914D02*
X141073333Y-146282676D01*
X141073333Y-146282676D02*
X141168571Y-146187438D01*
X141168571Y-146187438D02*
X141311428Y-146139819D01*
X141311428Y-146139819D02*
X141406666Y-146139819D01*
X141406666Y-146139819D02*
X141549523Y-146187438D01*
X141549523Y-146187438D02*
X141597142Y-146235057D01*
X141978095Y-146235057D02*
X142025714Y-146187438D01*
X142025714Y-146187438D02*
X142120952Y-146139819D01*
X142120952Y-146139819D02*
X142359047Y-146139819D01*
X142359047Y-146139819D02*
X142454285Y-146187438D01*
X142454285Y-146187438D02*
X142501904Y-146235057D01*
X142501904Y-146235057D02*
X142549523Y-146330295D01*
X142549523Y-146330295D02*
X142549523Y-146425533D01*
X142549523Y-146425533D02*
X142501904Y-146568390D01*
X142501904Y-146568390D02*
X141930476Y-147139819D01*
X141930476Y-147139819D02*
X142549523Y-147139819D01*
X143454285Y-146139819D02*
X142978095Y-146139819D01*
X142978095Y-146139819D02*
X142930476Y-146616009D01*
X142930476Y-146616009D02*
X142978095Y-146568390D01*
X142978095Y-146568390D02*
X143073333Y-146520771D01*
X143073333Y-146520771D02*
X143311428Y-146520771D01*
X143311428Y-146520771D02*
X143406666Y-146568390D01*
X143406666Y-146568390D02*
X143454285Y-146616009D01*
X143454285Y-146616009D02*
X143501904Y-146711247D01*
X143501904Y-146711247D02*
X143501904Y-146949342D01*
X143501904Y-146949342D02*
X143454285Y-147044580D01*
X143454285Y-147044580D02*
X143406666Y-147092200D01*
X143406666Y-147092200D02*
X143311428Y-147139819D01*
X143311428Y-147139819D02*
X143073333Y-147139819D01*
X143073333Y-147139819D02*
X142978095Y-147092200D01*
X142978095Y-147092200D02*
X142930476Y-147044580D01*
X156837142Y-112849819D02*
X156503809Y-112373628D01*
X156265714Y-112849819D02*
X156265714Y-111849819D01*
X156265714Y-111849819D02*
X156646666Y-111849819D01*
X156646666Y-111849819D02*
X156741904Y-111897438D01*
X156741904Y-111897438D02*
X156789523Y-111945057D01*
X156789523Y-111945057D02*
X156837142Y-112040295D01*
X156837142Y-112040295D02*
X156837142Y-112183152D01*
X156837142Y-112183152D02*
X156789523Y-112278390D01*
X156789523Y-112278390D02*
X156741904Y-112326009D01*
X156741904Y-112326009D02*
X156646666Y-112373628D01*
X156646666Y-112373628D02*
X156265714Y-112373628D01*
X157170476Y-111849819D02*
X157789523Y-111849819D01*
X157789523Y-111849819D02*
X157456190Y-112230771D01*
X157456190Y-112230771D02*
X157599047Y-112230771D01*
X157599047Y-112230771D02*
X157694285Y-112278390D01*
X157694285Y-112278390D02*
X157741904Y-112326009D01*
X157741904Y-112326009D02*
X157789523Y-112421247D01*
X157789523Y-112421247D02*
X157789523Y-112659342D01*
X157789523Y-112659342D02*
X157741904Y-112754580D01*
X157741904Y-112754580D02*
X157694285Y-112802200D01*
X157694285Y-112802200D02*
X157599047Y-112849819D01*
X157599047Y-112849819D02*
X157313333Y-112849819D01*
X157313333Y-112849819D02*
X157218095Y-112802200D01*
X157218095Y-112802200D02*
X157170476Y-112754580D01*
X158122857Y-111849819D02*
X158789523Y-111849819D01*
X158789523Y-111849819D02*
X158360952Y-112849819D01*
X172712142Y-94434819D02*
X172378809Y-93958628D01*
X172140714Y-94434819D02*
X172140714Y-93434819D01*
X172140714Y-93434819D02*
X172521666Y-93434819D01*
X172521666Y-93434819D02*
X172616904Y-93482438D01*
X172616904Y-93482438D02*
X172664523Y-93530057D01*
X172664523Y-93530057D02*
X172712142Y-93625295D01*
X172712142Y-93625295D02*
X172712142Y-93768152D01*
X172712142Y-93768152D02*
X172664523Y-93863390D01*
X172664523Y-93863390D02*
X172616904Y-93911009D01*
X172616904Y-93911009D02*
X172521666Y-93958628D01*
X172521666Y-93958628D02*
X172140714Y-93958628D01*
X173045476Y-93434819D02*
X173712142Y-93434819D01*
X173712142Y-93434819D02*
X173283571Y-94434819D01*
X173997857Y-93434819D02*
X174616904Y-93434819D01*
X174616904Y-93434819D02*
X174283571Y-93815771D01*
X174283571Y-93815771D02*
X174426428Y-93815771D01*
X174426428Y-93815771D02*
X174521666Y-93863390D01*
X174521666Y-93863390D02*
X174569285Y-93911009D01*
X174569285Y-93911009D02*
X174616904Y-94006247D01*
X174616904Y-94006247D02*
X174616904Y-94244342D01*
X174616904Y-94244342D02*
X174569285Y-94339580D01*
X174569285Y-94339580D02*
X174521666Y-94387200D01*
X174521666Y-94387200D02*
X174426428Y-94434819D01*
X174426428Y-94434819D02*
X174140714Y-94434819D01*
X174140714Y-94434819D02*
X174045476Y-94387200D01*
X174045476Y-94387200D02*
X173997857Y-94339580D01*
X88138095Y-36944819D02*
X88138095Y-35944819D01*
X88138095Y-36421009D02*
X88709523Y-36421009D01*
X88709523Y-36944819D02*
X88709523Y-35944819D01*
X89138095Y-36040057D02*
X89185714Y-35992438D01*
X89185714Y-35992438D02*
X89280952Y-35944819D01*
X89280952Y-35944819D02*
X89519047Y-35944819D01*
X89519047Y-35944819D02*
X89614285Y-35992438D01*
X89614285Y-35992438D02*
X89661904Y-36040057D01*
X89661904Y-36040057D02*
X89709523Y-36135295D01*
X89709523Y-36135295D02*
X89709523Y-36230533D01*
X89709523Y-36230533D02*
X89661904Y-36373390D01*
X89661904Y-36373390D02*
X89090476Y-36944819D01*
X89090476Y-36944819D02*
X89709523Y-36944819D01*
X150820571Y-67534819D02*
X150487238Y-67058628D01*
X150249143Y-67534819D02*
X150249143Y-66534819D01*
X150249143Y-66534819D02*
X150630095Y-66534819D01*
X150630095Y-66534819D02*
X150725333Y-66582438D01*
X150725333Y-66582438D02*
X150772952Y-66630057D01*
X150772952Y-66630057D02*
X150820571Y-66725295D01*
X150820571Y-66725295D02*
X150820571Y-66868152D01*
X150820571Y-66868152D02*
X150772952Y-66963390D01*
X150772952Y-66963390D02*
X150725333Y-67011009D01*
X150725333Y-67011009D02*
X150630095Y-67058628D01*
X150630095Y-67058628D02*
X150249143Y-67058628D01*
X151106286Y-66534819D02*
X151439619Y-67534819D01*
X151439619Y-67534819D02*
X151772952Y-66534819D01*
X152630095Y-67534819D02*
X152058667Y-67534819D01*
X152344381Y-67534819D02*
X152344381Y-66534819D01*
X152344381Y-66534819D02*
X152249143Y-66677676D01*
X152249143Y-66677676D02*
X152153905Y-66772914D01*
X152153905Y-66772914D02*
X152058667Y-66820533D01*
X153106286Y-67534819D02*
X153296762Y-67534819D01*
X153296762Y-67534819D02*
X153392000Y-67487200D01*
X153392000Y-67487200D02*
X153439619Y-67439580D01*
X153439619Y-67439580D02*
X153534857Y-67296723D01*
X153534857Y-67296723D02*
X153582476Y-67106247D01*
X153582476Y-67106247D02*
X153582476Y-66725295D01*
X153582476Y-66725295D02*
X153534857Y-66630057D01*
X153534857Y-66630057D02*
X153487238Y-66582438D01*
X153487238Y-66582438D02*
X153392000Y-66534819D01*
X153392000Y-66534819D02*
X153201524Y-66534819D01*
X153201524Y-66534819D02*
X153106286Y-66582438D01*
X153106286Y-66582438D02*
X153058667Y-66630057D01*
X153058667Y-66630057D02*
X153011048Y-66725295D01*
X153011048Y-66725295D02*
X153011048Y-66963390D01*
X153011048Y-66963390D02*
X153058667Y-67058628D01*
X153058667Y-67058628D02*
X153106286Y-67106247D01*
X153106286Y-67106247D02*
X153201524Y-67153866D01*
X153201524Y-67153866D02*
X153392000Y-67153866D01*
X153392000Y-67153866D02*
X153487238Y-67106247D01*
X153487238Y-67106247D02*
X153534857Y-67058628D01*
X153534857Y-67058628D02*
X153582476Y-66963390D01*
X138058095Y-95974819D02*
X138058095Y-96784342D01*
X138058095Y-96784342D02*
X138105714Y-96879580D01*
X138105714Y-96879580D02*
X138153333Y-96927200D01*
X138153333Y-96927200D02*
X138248571Y-96974819D01*
X138248571Y-96974819D02*
X138439047Y-96974819D01*
X138439047Y-96974819D02*
X138534285Y-96927200D01*
X138534285Y-96927200D02*
X138581904Y-96879580D01*
X138581904Y-96879580D02*
X138629523Y-96784342D01*
X138629523Y-96784342D02*
X138629523Y-95974819D01*
X139010476Y-95974819D02*
X139677142Y-95974819D01*
X139677142Y-95974819D02*
X139248571Y-96974819D01*
X172712142Y-117294819D02*
X172378809Y-116818628D01*
X172140714Y-117294819D02*
X172140714Y-116294819D01*
X172140714Y-116294819D02*
X172521666Y-116294819D01*
X172521666Y-116294819D02*
X172616904Y-116342438D01*
X172616904Y-116342438D02*
X172664523Y-116390057D01*
X172664523Y-116390057D02*
X172712142Y-116485295D01*
X172712142Y-116485295D02*
X172712142Y-116628152D01*
X172712142Y-116628152D02*
X172664523Y-116723390D01*
X172664523Y-116723390D02*
X172616904Y-116771009D01*
X172616904Y-116771009D02*
X172521666Y-116818628D01*
X172521666Y-116818628D02*
X172140714Y-116818628D01*
X173188333Y-117294819D02*
X173378809Y-117294819D01*
X173378809Y-117294819D02*
X173474047Y-117247200D01*
X173474047Y-117247200D02*
X173521666Y-117199580D01*
X173521666Y-117199580D02*
X173616904Y-117056723D01*
X173616904Y-117056723D02*
X173664523Y-116866247D01*
X173664523Y-116866247D02*
X173664523Y-116485295D01*
X173664523Y-116485295D02*
X173616904Y-116390057D01*
X173616904Y-116390057D02*
X173569285Y-116342438D01*
X173569285Y-116342438D02*
X173474047Y-116294819D01*
X173474047Y-116294819D02*
X173283571Y-116294819D01*
X173283571Y-116294819D02*
X173188333Y-116342438D01*
X173188333Y-116342438D02*
X173140714Y-116390057D01*
X173140714Y-116390057D02*
X173093095Y-116485295D01*
X173093095Y-116485295D02*
X173093095Y-116723390D01*
X173093095Y-116723390D02*
X173140714Y-116818628D01*
X173140714Y-116818628D02*
X173188333Y-116866247D01*
X173188333Y-116866247D02*
X173283571Y-116913866D01*
X173283571Y-116913866D02*
X173474047Y-116913866D01*
X173474047Y-116913866D02*
X173569285Y-116866247D01*
X173569285Y-116866247D02*
X173616904Y-116818628D01*
X173616904Y-116818628D02*
X173664523Y-116723390D01*
X174140714Y-117294819D02*
X174331190Y-117294819D01*
X174331190Y-117294819D02*
X174426428Y-117247200D01*
X174426428Y-117247200D02*
X174474047Y-117199580D01*
X174474047Y-117199580D02*
X174569285Y-117056723D01*
X174569285Y-117056723D02*
X174616904Y-116866247D01*
X174616904Y-116866247D02*
X174616904Y-116485295D01*
X174616904Y-116485295D02*
X174569285Y-116390057D01*
X174569285Y-116390057D02*
X174521666Y-116342438D01*
X174521666Y-116342438D02*
X174426428Y-116294819D01*
X174426428Y-116294819D02*
X174235952Y-116294819D01*
X174235952Y-116294819D02*
X174140714Y-116342438D01*
X174140714Y-116342438D02*
X174093095Y-116390057D01*
X174093095Y-116390057D02*
X174045476Y-116485295D01*
X174045476Y-116485295D02*
X174045476Y-116723390D01*
X174045476Y-116723390D02*
X174093095Y-116818628D01*
X174093095Y-116818628D02*
X174140714Y-116866247D01*
X174140714Y-116866247D02*
X174235952Y-116913866D01*
X174235952Y-116913866D02*
X174426428Y-116913866D01*
X174426428Y-116913866D02*
X174521666Y-116866247D01*
X174521666Y-116866247D02*
X174569285Y-116818628D01*
X174569285Y-116818628D02*
X174616904Y-116723390D01*
X163861905Y-95974819D02*
X163861905Y-96784342D01*
X163861905Y-96784342D02*
X163909524Y-96879580D01*
X163909524Y-96879580D02*
X163957143Y-96927200D01*
X163957143Y-96927200D02*
X164052381Y-96974819D01*
X164052381Y-96974819D02*
X164242857Y-96974819D01*
X164242857Y-96974819D02*
X164338095Y-96927200D01*
X164338095Y-96927200D02*
X164385714Y-96879580D01*
X164385714Y-96879580D02*
X164433333Y-96784342D01*
X164433333Y-96784342D02*
X164433333Y-95974819D01*
X165433333Y-96974819D02*
X164861905Y-96974819D01*
X165147619Y-96974819D02*
X165147619Y-95974819D01*
X165147619Y-95974819D02*
X165052381Y-96117676D01*
X165052381Y-96117676D02*
X164957143Y-96212914D01*
X164957143Y-96212914D02*
X164861905Y-96260533D01*
X166290476Y-96308152D02*
X166290476Y-96974819D01*
X166052381Y-95927200D02*
X165814286Y-96641485D01*
X165814286Y-96641485D02*
X166433333Y-96641485D01*
X114331905Y-95974819D02*
X114331905Y-96784342D01*
X114331905Y-96784342D02*
X114379524Y-96879580D01*
X114379524Y-96879580D02*
X114427143Y-96927200D01*
X114427143Y-96927200D02*
X114522381Y-96974819D01*
X114522381Y-96974819D02*
X114712857Y-96974819D01*
X114712857Y-96974819D02*
X114808095Y-96927200D01*
X114808095Y-96927200D02*
X114855714Y-96879580D01*
X114855714Y-96879580D02*
X114903333Y-96784342D01*
X114903333Y-96784342D02*
X114903333Y-95974819D01*
X115903333Y-96974819D02*
X115331905Y-96974819D01*
X115617619Y-96974819D02*
X115617619Y-95974819D01*
X115617619Y-95974819D02*
X115522381Y-96117676D01*
X115522381Y-96117676D02*
X115427143Y-96212914D01*
X115427143Y-96212914D02*
X115331905Y-96260533D01*
X116522381Y-95974819D02*
X116617619Y-95974819D01*
X116617619Y-95974819D02*
X116712857Y-96022438D01*
X116712857Y-96022438D02*
X116760476Y-96070057D01*
X116760476Y-96070057D02*
X116808095Y-96165295D01*
X116808095Y-96165295D02*
X116855714Y-96355771D01*
X116855714Y-96355771D02*
X116855714Y-96593866D01*
X116855714Y-96593866D02*
X116808095Y-96784342D01*
X116808095Y-96784342D02*
X116760476Y-96879580D01*
X116760476Y-96879580D02*
X116712857Y-96927200D01*
X116712857Y-96927200D02*
X116617619Y-96974819D01*
X116617619Y-96974819D02*
X116522381Y-96974819D01*
X116522381Y-96974819D02*
X116427143Y-96927200D01*
X116427143Y-96927200D02*
X116379524Y-96879580D01*
X116379524Y-96879580D02*
X116331905Y-96784342D01*
X116331905Y-96784342D02*
X116284286Y-96593866D01*
X116284286Y-96593866D02*
X116284286Y-96355771D01*
X116284286Y-96355771D02*
X116331905Y-96165295D01*
X116331905Y-96165295D02*
X116379524Y-96070057D01*
X116379524Y-96070057D02*
X116427143Y-96022438D01*
X116427143Y-96022438D02*
X116522381Y-95974819D01*
X148050476Y-52477200D02*
X148193333Y-52524819D01*
X148193333Y-52524819D02*
X148431428Y-52524819D01*
X148431428Y-52524819D02*
X148526666Y-52477200D01*
X148526666Y-52477200D02*
X148574285Y-52429580D01*
X148574285Y-52429580D02*
X148621904Y-52334342D01*
X148621904Y-52334342D02*
X148621904Y-52239104D01*
X148621904Y-52239104D02*
X148574285Y-52143866D01*
X148574285Y-52143866D02*
X148526666Y-52096247D01*
X148526666Y-52096247D02*
X148431428Y-52048628D01*
X148431428Y-52048628D02*
X148240952Y-52001009D01*
X148240952Y-52001009D02*
X148145714Y-51953390D01*
X148145714Y-51953390D02*
X148098095Y-51905771D01*
X148098095Y-51905771D02*
X148050476Y-51810533D01*
X148050476Y-51810533D02*
X148050476Y-51715295D01*
X148050476Y-51715295D02*
X148098095Y-51620057D01*
X148098095Y-51620057D02*
X148145714Y-51572438D01*
X148145714Y-51572438D02*
X148240952Y-51524819D01*
X148240952Y-51524819D02*
X148479047Y-51524819D01*
X148479047Y-51524819D02*
X148621904Y-51572438D01*
X148955238Y-51524819D02*
X149193333Y-52524819D01*
X149193333Y-52524819D02*
X149383809Y-51810533D01*
X149383809Y-51810533D02*
X149574285Y-52524819D01*
X149574285Y-52524819D02*
X149812381Y-51524819D01*
X150717142Y-52524819D02*
X150145714Y-52524819D01*
X150431428Y-52524819D02*
X150431428Y-51524819D01*
X150431428Y-51524819D02*
X150336190Y-51667676D01*
X150336190Y-51667676D02*
X150240952Y-51762914D01*
X150240952Y-51762914D02*
X150145714Y-51810533D01*
X151336190Y-51524819D02*
X151431428Y-51524819D01*
X151431428Y-51524819D02*
X151526666Y-51572438D01*
X151526666Y-51572438D02*
X151574285Y-51620057D01*
X151574285Y-51620057D02*
X151621904Y-51715295D01*
X151621904Y-51715295D02*
X151669523Y-51905771D01*
X151669523Y-51905771D02*
X151669523Y-52143866D01*
X151669523Y-52143866D02*
X151621904Y-52334342D01*
X151621904Y-52334342D02*
X151574285Y-52429580D01*
X151574285Y-52429580D02*
X151526666Y-52477200D01*
X151526666Y-52477200D02*
X151431428Y-52524819D01*
X151431428Y-52524819D02*
X151336190Y-52524819D01*
X151336190Y-52524819D02*
X151240952Y-52477200D01*
X151240952Y-52477200D02*
X151193333Y-52429580D01*
X151193333Y-52429580D02*
X151145714Y-52334342D01*
X151145714Y-52334342D02*
X151098095Y-52143866D01*
X151098095Y-52143866D02*
X151098095Y-51905771D01*
X151098095Y-51905771D02*
X151145714Y-51715295D01*
X151145714Y-51715295D02*
X151193333Y-51620057D01*
X151193333Y-51620057D02*
X151240952Y-51572438D01*
X151240952Y-51572438D02*
X151336190Y-51524819D01*
X222758095Y-36944819D02*
X222758095Y-35944819D01*
X222758095Y-36421009D02*
X223329523Y-36421009D01*
X223329523Y-36944819D02*
X223329523Y-35944819D01*
X223948571Y-36373390D02*
X223853333Y-36325771D01*
X223853333Y-36325771D02*
X223805714Y-36278152D01*
X223805714Y-36278152D02*
X223758095Y-36182914D01*
X223758095Y-36182914D02*
X223758095Y-36135295D01*
X223758095Y-36135295D02*
X223805714Y-36040057D01*
X223805714Y-36040057D02*
X223853333Y-35992438D01*
X223853333Y-35992438D02*
X223948571Y-35944819D01*
X223948571Y-35944819D02*
X224139047Y-35944819D01*
X224139047Y-35944819D02*
X224234285Y-35992438D01*
X224234285Y-35992438D02*
X224281904Y-36040057D01*
X224281904Y-36040057D02*
X224329523Y-36135295D01*
X224329523Y-36135295D02*
X224329523Y-36182914D01*
X224329523Y-36182914D02*
X224281904Y-36278152D01*
X224281904Y-36278152D02*
X224234285Y-36325771D01*
X224234285Y-36325771D02*
X224139047Y-36373390D01*
X224139047Y-36373390D02*
X223948571Y-36373390D01*
X223948571Y-36373390D02*
X223853333Y-36421009D01*
X223853333Y-36421009D02*
X223805714Y-36468628D01*
X223805714Y-36468628D02*
X223758095Y-36563866D01*
X223758095Y-36563866D02*
X223758095Y-36754342D01*
X223758095Y-36754342D02*
X223805714Y-36849580D01*
X223805714Y-36849580D02*
X223853333Y-36897200D01*
X223853333Y-36897200D02*
X223948571Y-36944819D01*
X223948571Y-36944819D02*
X224139047Y-36944819D01*
X224139047Y-36944819D02*
X224234285Y-36897200D01*
X224234285Y-36897200D02*
X224281904Y-36849580D01*
X224281904Y-36849580D02*
X224329523Y-36754342D01*
X224329523Y-36754342D02*
X224329523Y-36563866D01*
X224329523Y-36563866D02*
X224281904Y-36468628D01*
X224281904Y-36468628D02*
X224234285Y-36421009D01*
X224234285Y-36421009D02*
X224139047Y-36373390D01*
X155718095Y-109309819D02*
X156384761Y-109309819D01*
X156384761Y-109309819D02*
X155718095Y-110309819D01*
X155718095Y-110309819D02*
X156384761Y-110309819D01*
X156718095Y-109405057D02*
X156765714Y-109357438D01*
X156765714Y-109357438D02*
X156860952Y-109309819D01*
X156860952Y-109309819D02*
X157099047Y-109309819D01*
X157099047Y-109309819D02*
X157194285Y-109357438D01*
X157194285Y-109357438D02*
X157241904Y-109405057D01*
X157241904Y-109405057D02*
X157289523Y-109500295D01*
X157289523Y-109500295D02*
X157289523Y-109595533D01*
X157289523Y-109595533D02*
X157241904Y-109738390D01*
X157241904Y-109738390D02*
X156670476Y-110309819D01*
X156670476Y-110309819D02*
X157289523Y-110309819D01*
X158146666Y-109309819D02*
X157956190Y-109309819D01*
X157956190Y-109309819D02*
X157860952Y-109357438D01*
X157860952Y-109357438D02*
X157813333Y-109405057D01*
X157813333Y-109405057D02*
X157718095Y-109547914D01*
X157718095Y-109547914D02*
X157670476Y-109738390D01*
X157670476Y-109738390D02*
X157670476Y-110119342D01*
X157670476Y-110119342D02*
X157718095Y-110214580D01*
X157718095Y-110214580D02*
X157765714Y-110262200D01*
X157765714Y-110262200D02*
X157860952Y-110309819D01*
X157860952Y-110309819D02*
X158051428Y-110309819D01*
X158051428Y-110309819D02*
X158146666Y-110262200D01*
X158146666Y-110262200D02*
X158194285Y-110214580D01*
X158194285Y-110214580D02*
X158241904Y-110119342D01*
X158241904Y-110119342D02*
X158241904Y-109881247D01*
X158241904Y-109881247D02*
X158194285Y-109786009D01*
X158194285Y-109786009D02*
X158146666Y-109738390D01*
X158146666Y-109738390D02*
X158051428Y-109690771D01*
X158051428Y-109690771D02*
X157860952Y-109690771D01*
X157860952Y-109690771D02*
X157765714Y-109738390D01*
X157765714Y-109738390D02*
X157718095Y-109786009D01*
X157718095Y-109786009D02*
X157670476Y-109881247D01*
X158575238Y-109309819D02*
X159241904Y-109309819D01*
X159241904Y-109309819D02*
X158813333Y-110309819D01*
X125714286Y-118199819D02*
X126380952Y-118199819D01*
X126380952Y-118199819D02*
X125714286Y-119199819D01*
X125714286Y-119199819D02*
X126380952Y-119199819D01*
X127285714Y-119199819D02*
X126714286Y-119199819D01*
X127000000Y-119199819D02*
X127000000Y-118199819D01*
X127000000Y-118199819D02*
X126904762Y-118342676D01*
X126904762Y-118342676D02*
X126809524Y-118437914D01*
X126809524Y-118437914D02*
X126714286Y-118485533D01*
X127857143Y-118628390D02*
X127761905Y-118580771D01*
X127761905Y-118580771D02*
X127714286Y-118533152D01*
X127714286Y-118533152D02*
X127666667Y-118437914D01*
X127666667Y-118437914D02*
X127666667Y-118390295D01*
X127666667Y-118390295D02*
X127714286Y-118295057D01*
X127714286Y-118295057D02*
X127761905Y-118247438D01*
X127761905Y-118247438D02*
X127857143Y-118199819D01*
X127857143Y-118199819D02*
X128047619Y-118199819D01*
X128047619Y-118199819D02*
X128142857Y-118247438D01*
X128142857Y-118247438D02*
X128190476Y-118295057D01*
X128190476Y-118295057D02*
X128238095Y-118390295D01*
X128238095Y-118390295D02*
X128238095Y-118437914D01*
X128238095Y-118437914D02*
X128190476Y-118533152D01*
X128190476Y-118533152D02*
X128142857Y-118580771D01*
X128142857Y-118580771D02*
X128047619Y-118628390D01*
X128047619Y-118628390D02*
X127857143Y-118628390D01*
X127857143Y-118628390D02*
X127761905Y-118676009D01*
X127761905Y-118676009D02*
X127714286Y-118723628D01*
X127714286Y-118723628D02*
X127666667Y-118818866D01*
X127666667Y-118818866D02*
X127666667Y-119009342D01*
X127666667Y-119009342D02*
X127714286Y-119104580D01*
X127714286Y-119104580D02*
X127761905Y-119152200D01*
X127761905Y-119152200D02*
X127857143Y-119199819D01*
X127857143Y-119199819D02*
X128047619Y-119199819D01*
X128047619Y-119199819D02*
X128142857Y-119152200D01*
X128142857Y-119152200D02*
X128190476Y-119104580D01*
X128190476Y-119104580D02*
X128238095Y-119009342D01*
X128238095Y-119009342D02*
X128238095Y-118818866D01*
X128238095Y-118818866D02*
X128190476Y-118723628D01*
X128190476Y-118723628D02*
X128142857Y-118676009D01*
X128142857Y-118676009D02*
X128047619Y-118628390D01*
X155718095Y-108039819D02*
X156384761Y-108039819D01*
X156384761Y-108039819D02*
X155718095Y-109039819D01*
X155718095Y-109039819D02*
X156384761Y-109039819D01*
X156718095Y-108135057D02*
X156765714Y-108087438D01*
X156765714Y-108087438D02*
X156860952Y-108039819D01*
X156860952Y-108039819D02*
X157099047Y-108039819D01*
X157099047Y-108039819D02*
X157194285Y-108087438D01*
X157194285Y-108087438D02*
X157241904Y-108135057D01*
X157241904Y-108135057D02*
X157289523Y-108230295D01*
X157289523Y-108230295D02*
X157289523Y-108325533D01*
X157289523Y-108325533D02*
X157241904Y-108468390D01*
X157241904Y-108468390D02*
X156670476Y-109039819D01*
X156670476Y-109039819D02*
X157289523Y-109039819D01*
X158146666Y-108039819D02*
X157956190Y-108039819D01*
X157956190Y-108039819D02*
X157860952Y-108087438D01*
X157860952Y-108087438D02*
X157813333Y-108135057D01*
X157813333Y-108135057D02*
X157718095Y-108277914D01*
X157718095Y-108277914D02*
X157670476Y-108468390D01*
X157670476Y-108468390D02*
X157670476Y-108849342D01*
X157670476Y-108849342D02*
X157718095Y-108944580D01*
X157718095Y-108944580D02*
X157765714Y-108992200D01*
X157765714Y-108992200D02*
X157860952Y-109039819D01*
X157860952Y-109039819D02*
X158051428Y-109039819D01*
X158051428Y-109039819D02*
X158146666Y-108992200D01*
X158146666Y-108992200D02*
X158194285Y-108944580D01*
X158194285Y-108944580D02*
X158241904Y-108849342D01*
X158241904Y-108849342D02*
X158241904Y-108611247D01*
X158241904Y-108611247D02*
X158194285Y-108516009D01*
X158194285Y-108516009D02*
X158146666Y-108468390D01*
X158146666Y-108468390D02*
X158051428Y-108420771D01*
X158051428Y-108420771D02*
X157860952Y-108420771D01*
X157860952Y-108420771D02*
X157765714Y-108468390D01*
X157765714Y-108468390D02*
X157718095Y-108516009D01*
X157718095Y-108516009D02*
X157670476Y-108611247D01*
X158718095Y-109039819D02*
X158908571Y-109039819D01*
X158908571Y-109039819D02*
X159003809Y-108992200D01*
X159003809Y-108992200D02*
X159051428Y-108944580D01*
X159051428Y-108944580D02*
X159146666Y-108801723D01*
X159146666Y-108801723D02*
X159194285Y-108611247D01*
X159194285Y-108611247D02*
X159194285Y-108230295D01*
X159194285Y-108230295D02*
X159146666Y-108135057D01*
X159146666Y-108135057D02*
X159099047Y-108087438D01*
X159099047Y-108087438D02*
X159003809Y-108039819D01*
X159003809Y-108039819D02*
X158813333Y-108039819D01*
X158813333Y-108039819D02*
X158718095Y-108087438D01*
X158718095Y-108087438D02*
X158670476Y-108135057D01*
X158670476Y-108135057D02*
X158622857Y-108230295D01*
X158622857Y-108230295D02*
X158622857Y-108468390D01*
X158622857Y-108468390D02*
X158670476Y-108563628D01*
X158670476Y-108563628D02*
X158718095Y-108611247D01*
X158718095Y-108611247D02*
X158813333Y-108658866D01*
X158813333Y-108658866D02*
X159003809Y-108658866D01*
X159003809Y-108658866D02*
X159099047Y-108611247D01*
X159099047Y-108611247D02*
X159146666Y-108563628D01*
X159146666Y-108563628D02*
X159194285Y-108468390D01*
X168267142Y-117199580D02*
X168219523Y-117247200D01*
X168219523Y-117247200D02*
X168076666Y-117294819D01*
X168076666Y-117294819D02*
X167981428Y-117294819D01*
X167981428Y-117294819D02*
X167838571Y-117247200D01*
X167838571Y-117247200D02*
X167743333Y-117151961D01*
X167743333Y-117151961D02*
X167695714Y-117056723D01*
X167695714Y-117056723D02*
X167648095Y-116866247D01*
X167648095Y-116866247D02*
X167648095Y-116723390D01*
X167648095Y-116723390D02*
X167695714Y-116532914D01*
X167695714Y-116532914D02*
X167743333Y-116437676D01*
X167743333Y-116437676D02*
X167838571Y-116342438D01*
X167838571Y-116342438D02*
X167981428Y-116294819D01*
X167981428Y-116294819D02*
X168076666Y-116294819D01*
X168076666Y-116294819D02*
X168219523Y-116342438D01*
X168219523Y-116342438D02*
X168267142Y-116390057D01*
X169124285Y-116628152D02*
X169124285Y-117294819D01*
X168886190Y-116247200D02*
X168648095Y-116961485D01*
X168648095Y-116961485D02*
X169267142Y-116961485D01*
X169552857Y-116294819D02*
X170219523Y-116294819D01*
X170219523Y-116294819D02*
X169790952Y-117294819D01*
D14*
%TO.C,RV12*%
X159790000Y-102870000D02*
X159790000Y-97730000D01*
X159790000Y-105470000D02*
X159790000Y-104140000D01*
X161120000Y-105470000D02*
X159790000Y-105470000D01*
X162790000Y-97730000D02*
X159790000Y-97730000D01*
X162790000Y-102870000D02*
X159790000Y-102870000D01*
X162790000Y-102870000D02*
X162790000Y-97730000D01*
%TO.C,Z60*%
X126772936Y-142775000D02*
X127227064Y-142775000D01*
X126772936Y-144245000D02*
X127227064Y-144245000D01*
%TO.C,J6*%
X98830000Y-43180000D02*
X98830000Y-40580000D01*
X98830000Y-45780000D02*
X98830000Y-44450000D01*
X100160000Y-45780000D02*
X98830000Y-45780000D01*
X101830000Y-40580000D02*
X98830000Y-40580000D01*
X101830000Y-43180000D02*
X98830000Y-43180000D01*
X101830000Y-43180000D02*
X101830000Y-40580000D01*
%TO.C,RV8*%
X106450000Y-100330000D02*
X106450000Y-105470000D01*
X106450000Y-100330000D02*
X109450000Y-100330000D01*
X106450000Y-105470000D02*
X109450000Y-105470000D01*
X108120000Y-97730000D02*
X109450000Y-97730000D01*
X109450000Y-97730000D02*
X109450000Y-99060000D01*
X109450000Y-100330000D02*
X109450000Y-105470000D01*
%TO.C,Z268*%
X153897064Y-113565000D02*
X153442936Y-113565000D01*
X153897064Y-115035000D02*
X153442936Y-115035000D01*
%TO.C,J19*%
X121690000Y-43180000D02*
X121690000Y-40580000D01*
X121690000Y-45780000D02*
X121690000Y-44450000D01*
X123020000Y-45780000D02*
X121690000Y-45780000D01*
X124690000Y-40580000D02*
X121690000Y-40580000D01*
X124690000Y-43180000D02*
X121690000Y-43180000D01*
X124690000Y-43180000D02*
X124690000Y-40580000D01*
%TO.C,RV14*%
X106450000Y-113030000D02*
X106450000Y-107890000D01*
X106450000Y-115630000D02*
X106450000Y-114300000D01*
X107780000Y-115630000D02*
X106450000Y-115630000D01*
X109450000Y-107890000D02*
X106450000Y-107890000D01*
X109450000Y-113030000D02*
X106450000Y-113030000D01*
X109450000Y-113030000D02*
X109450000Y-107890000D01*
%TO.C,U16*%
X197140000Y-68520000D02*
X197140000Y-86420000D01*
X197140000Y-86420000D02*
X201640000Y-86420000D01*
X198390000Y-68520000D02*
X197140000Y-68520000D01*
X201640000Y-68520000D02*
X200390000Y-68520000D01*
X201640000Y-86420000D02*
X201640000Y-68520000D01*
X194140000Y-68460000D02*
X204640000Y-68460000D01*
X204640000Y-86480000D01*
X194140000Y-86480000D01*
X194140000Y-68460000D01*
X200390000Y-68520000D02*
G75*
G02*
X198390000Y-68520000I-1000000J0D01*
G01*
%TO.C,R12*%
X153442936Y-122455000D02*
X153897064Y-122455000D01*
X153442936Y-123925000D02*
X153897064Y-123925000D01*
%TO.C,U1*%
X117130000Y-126940000D02*
X117130000Y-144840000D01*
X117130000Y-144840000D02*
X121630000Y-144840000D01*
X118380000Y-126940000D02*
X117130000Y-126940000D01*
X121630000Y-126940000D02*
X120380000Y-126940000D01*
X121630000Y-144840000D02*
X121630000Y-126940000D01*
X114130000Y-126880000D02*
X124630000Y-126880000D01*
X124630000Y-144900000D01*
X114130000Y-144900000D01*
X114130000Y-126880000D01*
X120380000Y-126940000D02*
G75*
G02*
X118380000Y-126940000I-1000000J0D01*
G01*
%TO.C,R152*%
X149632936Y-100865000D02*
X150087064Y-100865000D01*
X149632936Y-102335000D02*
X150087064Y-102335000D01*
%TO.C,RV6*%
X148360000Y-139700000D02*
X148360000Y-144840000D01*
X148360000Y-139700000D02*
X151360000Y-139700000D01*
X148360000Y-144840000D02*
X151360000Y-144840000D01*
X150030000Y-137100000D02*
X151360000Y-137100000D01*
X151360000Y-137100000D02*
X151360000Y-138430000D01*
X151360000Y-139700000D02*
X151360000Y-144840000D01*
X152170000Y-139700000D02*
X152170000Y-144840000D01*
X152170000Y-139700000D02*
X155170000Y-139700000D01*
X152170000Y-144840000D02*
X155170000Y-144840000D01*
X153840000Y-137100000D02*
X155170000Y-137100000D01*
X155170000Y-137100000D02*
X155170000Y-138430000D01*
X155170000Y-139700000D02*
X155170000Y-144840000D01*
%TO.C,U12*%
X197080000Y-97730000D02*
X197080000Y-115630000D01*
X197080000Y-115630000D02*
X201580000Y-115630000D01*
X198330000Y-97730000D02*
X197080000Y-97730000D01*
X201580000Y-97730000D02*
X200330000Y-97730000D01*
X201580000Y-115630000D02*
X201580000Y-97730000D01*
X194080000Y-97670000D02*
X204580000Y-97670000D01*
X204580000Y-115690000D01*
X194080000Y-115690000D01*
X194080000Y-97670000D01*
X200330000Y-97730000D02*
G75*
G02*
X198330000Y-97730000I-1000000J0D01*
G01*
%TO.C,U21*%
X139990000Y-68520000D02*
X139990000Y-86420000D01*
X139990000Y-86420000D02*
X144490000Y-86420000D01*
X141240000Y-68520000D02*
X139990000Y-68520000D01*
X144490000Y-68520000D02*
X143240000Y-68520000D01*
X144490000Y-86420000D02*
X144490000Y-68520000D01*
X136990000Y-68460000D02*
X147490000Y-68460000D01*
X147490000Y-86480000D01*
X136990000Y-86480000D01*
X136990000Y-68460000D01*
X143240000Y-68520000D02*
G75*
G02*
X141240000Y-68520000I-1000000J0D01*
G01*
%TO.C,Z270*%
X149632936Y-108485000D02*
X150087064Y-108485000D01*
X149632936Y-109955000D02*
X150087064Y-109955000D01*
%TO.C,RV20*%
X152170000Y-43180000D02*
X152170000Y-48320000D01*
X152170000Y-43180000D02*
X155170000Y-43180000D01*
X152170000Y-48320000D02*
X155170000Y-48320000D01*
X153840000Y-40580000D02*
X155170000Y-40580000D01*
X155170000Y-40580000D02*
X155170000Y-41910000D01*
X155170000Y-43180000D02*
X155170000Y-48320000D01*
%TO.C,C4*%
X218516252Y-142150000D02*
X217093748Y-142150000D01*
X218516252Y-144870000D02*
X217093748Y-144870000D01*
%TO.C,J18*%
X98830000Y-50800000D02*
X98830000Y-48200000D01*
X98830000Y-53400000D02*
X98830000Y-52070000D01*
X100160000Y-53400000D02*
X98830000Y-53400000D01*
X101830000Y-48200000D02*
X98830000Y-48200000D01*
X101830000Y-50800000D02*
X98830000Y-50800000D01*
X101830000Y-50800000D02*
X101830000Y-48200000D01*
%TO.C,RV10*%
X175030000Y-102870000D02*
X175030000Y-97730000D01*
X175030000Y-105470000D02*
X175030000Y-104140000D01*
X176360000Y-105470000D02*
X175030000Y-105470000D01*
X178030000Y-97730000D02*
X175030000Y-97730000D01*
X178030000Y-102870000D02*
X175030000Y-102870000D01*
X178030000Y-102870000D02*
X178030000Y-97730000D01*
X178840000Y-102870000D02*
X178840000Y-97730000D01*
X178840000Y-105470000D02*
X178840000Y-104140000D01*
X180170000Y-105470000D02*
X178840000Y-105470000D01*
X181840000Y-97730000D02*
X178840000Y-97730000D01*
X181840000Y-102870000D02*
X178840000Y-102870000D01*
X181840000Y-102870000D02*
X181840000Y-97730000D01*
%TO.C,Z20*%
X127227064Y-130075000D02*
X126772936Y-130075000D01*
X127227064Y-131545000D02*
X126772936Y-131545000D01*
%TO.C,U20*%
X166660000Y-40580000D02*
X166660000Y-58480000D01*
X166660000Y-58480000D02*
X171160000Y-58480000D01*
X167910000Y-40580000D02*
X166660000Y-40580000D01*
X171160000Y-40580000D02*
X169910000Y-40580000D01*
X171160000Y-58480000D02*
X171160000Y-40580000D01*
X163660000Y-40520000D02*
X174160000Y-40520000D01*
X174160000Y-58540000D01*
X163660000Y-58540000D01*
X163660000Y-40520000D01*
X169910000Y-40580000D02*
G75*
G02*
X167910000Y-40580000I-1000000J0D01*
G01*
%TO.C,U5*%
X139990000Y-126940000D02*
X139990000Y-144840000D01*
X139990000Y-144840000D02*
X144490000Y-144840000D01*
X141240000Y-126940000D02*
X139990000Y-126940000D01*
X144490000Y-126940000D02*
X143240000Y-126940000D01*
X144490000Y-144840000D02*
X144490000Y-126940000D01*
X136990000Y-126880000D02*
X147490000Y-126880000D01*
X147490000Y-144900000D01*
X136990000Y-144900000D01*
X136990000Y-126880000D01*
X143240000Y-126940000D02*
G75*
G02*
X141240000Y-126940000I-1000000J0D01*
G01*
%TO.C,RV2*%
X148360000Y-132080000D02*
X148360000Y-126940000D01*
X148360000Y-134680000D02*
X148360000Y-133350000D01*
X149690000Y-134680000D02*
X148360000Y-134680000D01*
X151360000Y-126940000D02*
X148360000Y-126940000D01*
X151360000Y-132080000D02*
X148360000Y-132080000D01*
X151360000Y-132080000D02*
X151360000Y-126940000D01*
X152170000Y-132080000D02*
X152170000Y-126940000D01*
X152170000Y-134680000D02*
X152170000Y-133350000D01*
X153500000Y-134680000D02*
X152170000Y-134680000D01*
X155170000Y-126940000D02*
X152170000Y-126940000D01*
X155170000Y-132080000D02*
X152170000Y-132080000D01*
X155170000Y-132080000D02*
X155170000Y-126940000D01*
%TO.C,J24*%
X98830000Y-110380000D02*
X100210000Y-110380000D01*
X98830000Y-111760000D02*
X98830000Y-110380000D01*
X98830000Y-113030000D02*
X98830000Y-115680000D01*
X98830000Y-113030000D02*
X101830000Y-113030000D01*
X98830000Y-115680000D02*
X101830000Y-115680000D01*
X101830000Y-113030000D02*
X101830000Y-115680000D01*
%TO.C,U13*%
X166660000Y-68520000D02*
X166660000Y-86420000D01*
X166660000Y-86420000D02*
X171160000Y-86420000D01*
X167910000Y-68520000D02*
X166660000Y-68520000D01*
X171160000Y-68520000D02*
X169910000Y-68520000D01*
X171160000Y-86420000D02*
X171160000Y-68520000D01*
X163660000Y-68460000D02*
X174160000Y-68460000D01*
X174160000Y-86480000D01*
X163660000Y-86480000D01*
X163660000Y-68460000D01*
X169910000Y-68520000D02*
G75*
G02*
X167910000Y-68520000I-1000000J0D01*
G01*
%TO.C,J21*%
X114070000Y-43180000D02*
X114070000Y-40580000D01*
X114070000Y-45780000D02*
X114070000Y-44450000D01*
X115400000Y-45780000D02*
X114070000Y-45780000D01*
X117070000Y-40580000D02*
X114070000Y-40580000D01*
X117070000Y-43180000D02*
X114070000Y-43180000D01*
X117070000Y-43180000D02*
X117070000Y-40580000D01*
%TO.C,J15*%
X98830000Y-81170000D02*
X100210000Y-81170000D01*
X98830000Y-82550000D02*
X98830000Y-81170000D01*
X98830000Y-83820000D02*
X98830000Y-86470000D01*
X98830000Y-83820000D02*
X101830000Y-83820000D01*
X98830000Y-86470000D02*
X101830000Y-86470000D01*
X101830000Y-83820000D02*
X101830000Y-86470000D01*
%TO.C,J25*%
X98830000Y-58420000D02*
X98830000Y-55820000D01*
X98830000Y-61020000D02*
X98830000Y-59690000D01*
X100160000Y-61020000D02*
X98830000Y-61020000D01*
X101830000Y-55820000D02*
X98830000Y-55820000D01*
X101830000Y-58420000D02*
X98830000Y-58420000D01*
X101830000Y-58420000D02*
X101830000Y-55820000D01*
%TO.C,J29*%
X98830000Y-71120000D02*
X98830000Y-68520000D01*
X98830000Y-73720000D02*
X98830000Y-72390000D01*
X100160000Y-73720000D02*
X98830000Y-73720000D01*
X101830000Y-68520000D02*
X98830000Y-68520000D01*
X101830000Y-71120000D02*
X98830000Y-71120000D01*
X101830000Y-71120000D02*
X101830000Y-68520000D01*
%TO.C,J31*%
X209440000Y-131970000D02*
X210820000Y-131970000D01*
X209440000Y-133350000D02*
X209440000Y-131970000D01*
X209440000Y-134620000D02*
X209440000Y-149970000D01*
X209440000Y-134620000D02*
X212090000Y-134620000D01*
X209440000Y-149970000D02*
X214740000Y-149970000D01*
X212090000Y-131970000D02*
X214740000Y-131970000D01*
X212090000Y-134620000D02*
X212090000Y-131970000D01*
X214740000Y-131970000D02*
X214740000Y-149970000D01*
%TO.C,RV16*%
X159790000Y-110490000D02*
X159790000Y-115630000D01*
X159790000Y-110490000D02*
X162790000Y-110490000D01*
X159790000Y-115630000D02*
X162790000Y-115630000D01*
X161460000Y-107890000D02*
X162790000Y-107890000D01*
X162790000Y-107890000D02*
X162790000Y-109220000D01*
X162790000Y-110490000D02*
X162790000Y-115630000D01*
%TO.C,J11*%
X114070000Y-58420000D02*
X114070000Y-55820000D01*
X114070000Y-61020000D02*
X114070000Y-59690000D01*
X115400000Y-61020000D02*
X114070000Y-61020000D01*
X117070000Y-55820000D02*
X114070000Y-55820000D01*
X117070000Y-58420000D02*
X114070000Y-58420000D01*
X117070000Y-58420000D02*
X117070000Y-55820000D01*
%TO.C,SW7*%
X148360000Y-40530000D02*
X149740000Y-40530000D01*
X148360000Y-41910000D02*
X148360000Y-40530000D01*
X148360000Y-43180000D02*
X148360000Y-45830000D01*
X148360000Y-43180000D02*
X151360000Y-43180000D01*
X148360000Y-45830000D02*
X151360000Y-45830000D01*
X151360000Y-43180000D02*
X151360000Y-45830000D01*
%TO.C,Z266*%
X149632936Y-103405000D02*
X150087064Y-103405000D01*
X149632936Y-104875000D02*
X150087064Y-104875000D01*
%TO.C,U2*%
X166660000Y-126940000D02*
X166660000Y-144840000D01*
X166660000Y-144840000D02*
X171160000Y-144840000D01*
X167910000Y-126940000D02*
X166660000Y-126940000D01*
X171160000Y-126940000D02*
X169910000Y-126940000D01*
X171160000Y-144840000D02*
X171160000Y-126940000D01*
X163660000Y-126880000D02*
X174160000Y-126880000D01*
X174160000Y-144900000D01*
X163660000Y-144900000D01*
X163660000Y-126880000D01*
X169910000Y-126940000D02*
G75*
G02*
X167910000Y-126940000I-1000000J0D01*
G01*
%TO.C,J1*%
X106450000Y-43180000D02*
X106450000Y-40580000D01*
X106450000Y-45780000D02*
X106450000Y-44450000D01*
X107780000Y-45780000D02*
X106450000Y-45780000D01*
X109450000Y-40580000D02*
X106450000Y-40580000D01*
X109450000Y-43180000D02*
X106450000Y-43180000D01*
X109450000Y-43180000D02*
X109450000Y-40580000D01*
%TO.C,U18*%
X117130000Y-68520000D02*
X117130000Y-86420000D01*
X117130000Y-86420000D02*
X121630000Y-86420000D01*
X118380000Y-68520000D02*
X117130000Y-68520000D01*
X121630000Y-68520000D02*
X120380000Y-68520000D01*
X121630000Y-86420000D02*
X121630000Y-68520000D01*
X114130000Y-68460000D02*
X124630000Y-68460000D01*
X124630000Y-86480000D01*
X114130000Y-86480000D01*
X114130000Y-68460000D01*
X120380000Y-68520000D02*
G75*
G02*
X118380000Y-68520000I-1000000J0D01*
G01*
%TO.C,SW4*%
X110260000Y-97680000D02*
X111640000Y-97680000D01*
X110260000Y-99060000D02*
X110260000Y-97680000D01*
X110260000Y-100330000D02*
X110260000Y-102980000D01*
X110260000Y-100330000D02*
X113260000Y-100330000D01*
X110260000Y-102980000D02*
X113260000Y-102980000D01*
X113260000Y-100330000D02*
X113260000Y-102980000D01*
%TO.C,U6*%
X197140000Y-126940000D02*
X197140000Y-144840000D01*
X197140000Y-144840000D02*
X201640000Y-144840000D01*
X198390000Y-126940000D02*
X197140000Y-126940000D01*
X201640000Y-126940000D02*
X200390000Y-126940000D01*
X201640000Y-144840000D02*
X201640000Y-126940000D01*
X194140000Y-126880000D02*
X204640000Y-126880000D01*
X204640000Y-144900000D01*
X194140000Y-144900000D01*
X194140000Y-126880000D01*
X200390000Y-126940000D02*
G75*
G02*
X198390000Y-126940000I-1000000J0D01*
G01*
%TO.C,SW3*%
X110260000Y-142240000D02*
X110260000Y-139590000D01*
X113260000Y-139590000D02*
X110260000Y-139590000D01*
X113260000Y-142240000D02*
X110260000Y-142240000D01*
X113260000Y-142240000D02*
X113260000Y-139590000D01*
X113260000Y-143510000D02*
X113260000Y-144890000D01*
X113260000Y-144890000D02*
X111880000Y-144890000D01*
%TO.C,R46*%
X146457936Y-147855000D02*
X146912064Y-147855000D01*
X146457936Y-149325000D02*
X146912064Y-149325000D01*
%TO.C,Z264*%
X153897064Y-119915000D02*
X153442936Y-119915000D01*
X153897064Y-121385000D02*
X153442936Y-121385000D01*
%TO.C,SW1*%
X110260000Y-126890000D02*
X111640000Y-126890000D01*
X110260000Y-128270000D02*
X110260000Y-126890000D01*
X110260000Y-129540000D02*
X110260000Y-132190000D01*
X110260000Y-129540000D02*
X113260000Y-129540000D01*
X110260000Y-132190000D02*
X113260000Y-132190000D01*
X113260000Y-129540000D02*
X113260000Y-132190000D01*
%TO.C,RV3*%
X133120000Y-132080000D02*
X133120000Y-126940000D01*
X133120000Y-134680000D02*
X133120000Y-133350000D01*
X134450000Y-134680000D02*
X133120000Y-134680000D01*
X136120000Y-126940000D02*
X133120000Y-126940000D01*
X136120000Y-132080000D02*
X133120000Y-132080000D01*
X136120000Y-132080000D02*
X136120000Y-126940000D01*
%TO.C,J10*%
X106450000Y-58420000D02*
X106450000Y-55820000D01*
X106450000Y-61020000D02*
X106450000Y-59690000D01*
X107780000Y-61020000D02*
X106450000Y-61020000D01*
X109450000Y-55820000D02*
X106450000Y-55820000D01*
X109450000Y-58420000D02*
X106450000Y-58420000D01*
X109450000Y-58420000D02*
X109450000Y-55820000D01*
%TO.C,J26*%
X114070000Y-50800000D02*
X114070000Y-48200000D01*
X114070000Y-53400000D02*
X114070000Y-52070000D01*
X115400000Y-53400000D02*
X114070000Y-53400000D01*
X117070000Y-48200000D02*
X114070000Y-48200000D01*
X117070000Y-50800000D02*
X114070000Y-50800000D01*
X117070000Y-50800000D02*
X117070000Y-48200000D01*
%TO.C,RV15*%
X175030000Y-110490000D02*
X175030000Y-115630000D01*
X175030000Y-110490000D02*
X178030000Y-110490000D01*
X175030000Y-115630000D02*
X178030000Y-115630000D01*
X176700000Y-107890000D02*
X178030000Y-107890000D01*
X178030000Y-107890000D02*
X178030000Y-109220000D01*
X178030000Y-110490000D02*
X178030000Y-115630000D01*
X178840000Y-110490000D02*
X178840000Y-115630000D01*
X178840000Y-110490000D02*
X181840000Y-110490000D01*
X178840000Y-115630000D02*
X181840000Y-115630000D01*
X180510000Y-107890000D02*
X181840000Y-107890000D01*
X181840000Y-107890000D02*
X181840000Y-109220000D01*
X181840000Y-110490000D02*
X181840000Y-115630000D01*
%TO.C,J5*%
X98830000Y-139590000D02*
X100210000Y-139590000D01*
X98830000Y-140970000D02*
X98830000Y-139590000D01*
X98830000Y-142240000D02*
X98830000Y-144890000D01*
X98830000Y-142240000D02*
X101830000Y-142240000D01*
X98830000Y-144890000D02*
X101830000Y-144890000D01*
X101830000Y-142240000D02*
X101830000Y-144890000D01*
%TO.C,RV21*%
X129310000Y-71120000D02*
X129310000Y-76260000D01*
X129310000Y-71120000D02*
X132310000Y-71120000D01*
X129310000Y-76260000D02*
X132310000Y-76260000D01*
X130980000Y-68520000D02*
X132310000Y-68520000D01*
X132310000Y-68520000D02*
X132310000Y-69850000D01*
X132310000Y-71120000D02*
X132310000Y-76260000D01*
%TO.C,C36*%
X169141252Y-95150000D02*
X168618748Y-95150000D01*
X169141252Y-96620000D02*
X168618748Y-96620000D01*
%TO.C,Z17*%
X126772936Y-127535000D02*
X127227064Y-127535000D01*
X126772936Y-129005000D02*
X127227064Y-129005000D01*
%TO.C,J13*%
X98830000Y-126890000D02*
X100210000Y-126890000D01*
X98830000Y-128270000D02*
X98830000Y-126890000D01*
X98830000Y-129540000D02*
X98830000Y-132190000D01*
X98830000Y-129540000D02*
X101830000Y-129540000D01*
X98830000Y-132190000D02*
X101830000Y-132190000D01*
X101830000Y-129540000D02*
X101830000Y-132190000D01*
%TO.C,RV7*%
X133120000Y-139700000D02*
X133120000Y-144840000D01*
X133120000Y-139700000D02*
X136120000Y-139700000D01*
X133120000Y-144840000D02*
X136120000Y-144840000D01*
X134790000Y-137100000D02*
X136120000Y-137100000D01*
X136120000Y-137100000D02*
X136120000Y-138430000D01*
X136120000Y-139700000D02*
X136120000Y-144840000D01*
%TO.C,J32*%
X121690000Y-58420000D02*
X121690000Y-55820000D01*
X121690000Y-61020000D02*
X121690000Y-59690000D01*
X123020000Y-61020000D02*
X121690000Y-61020000D01*
X124690000Y-55820000D02*
X121690000Y-55820000D01*
X124690000Y-58420000D02*
X121690000Y-58420000D01*
X124690000Y-58420000D02*
X124690000Y-55820000D01*
%TO.C,SW9*%
X133120000Y-68470000D02*
X134500000Y-68470000D01*
X133120000Y-69850000D02*
X133120000Y-68470000D01*
X133120000Y-71120000D02*
X133120000Y-73770000D01*
X133120000Y-71120000D02*
X136120000Y-71120000D01*
X133120000Y-73770000D02*
X136120000Y-73770000D01*
X136120000Y-71120000D02*
X136120000Y-73770000D01*
%TO.C,U3*%
X197140000Y-40580000D02*
X197140000Y-58480000D01*
X197140000Y-58480000D02*
X201640000Y-58480000D01*
X198390000Y-40580000D02*
X197140000Y-40580000D01*
X201640000Y-40580000D02*
X200390000Y-40580000D01*
X201640000Y-58480000D02*
X201640000Y-40580000D01*
X194140000Y-40520000D02*
X204640000Y-40520000D01*
X204640000Y-58540000D01*
X194140000Y-58540000D01*
X194140000Y-40520000D01*
X200390000Y-40580000D02*
G75*
G02*
X198390000Y-40580000I-1000000J0D01*
G01*
%TO.C,Z61*%
X127227064Y-137695000D02*
X126772936Y-137695000D01*
X127227064Y-139165000D02*
X126772936Y-139165000D01*
%TO.C,R154*%
X149632936Y-111025000D02*
X150087064Y-111025000D01*
X149632936Y-112495000D02*
X150087064Y-112495000D01*
%TO.C,RV1*%
X106450000Y-129540000D02*
X106450000Y-134680000D01*
X106450000Y-129540000D02*
X109450000Y-129540000D01*
X106450000Y-134680000D02*
X109450000Y-134680000D01*
X108120000Y-126940000D02*
X109450000Y-126940000D01*
X109450000Y-126940000D02*
X109450000Y-128270000D01*
X109450000Y-129540000D02*
X109450000Y-134680000D01*
%TO.C,R155*%
X126772936Y-135155000D02*
X127227064Y-135155000D01*
X126772936Y-136625000D02*
X127227064Y-136625000D01*
%TO.C,RV5*%
X106450000Y-142240000D02*
X106450000Y-137100000D01*
X106450000Y-144840000D02*
X106450000Y-143510000D01*
X107780000Y-144840000D02*
X106450000Y-144840000D01*
X109450000Y-137100000D02*
X106450000Y-137100000D01*
X109450000Y-142240000D02*
X106450000Y-142240000D01*
X109450000Y-142240000D02*
X109450000Y-137100000D01*
%TO.C,Z64*%
X127227064Y-145315000D02*
X126772936Y-145315000D01*
X127227064Y-146785000D02*
X126772936Y-146785000D01*
%TO.C,R153*%
X126772936Y-122455000D02*
X127227064Y-122455000D01*
X126772936Y-123925000D02*
X127227064Y-123925000D01*
%TO.C,Z265*%
X153897064Y-103405000D02*
X153442936Y-103405000D01*
X153897064Y-104875000D02*
X153442936Y-104875000D01*
%TO.C,C15*%
X142501252Y-124360000D02*
X141978748Y-124360000D01*
X142501252Y-125830000D02*
X141978748Y-125830000D01*
%TO.C,U22*%
X139990000Y-40580000D02*
X139990000Y-58480000D01*
X139990000Y-58480000D02*
X144490000Y-58480000D01*
X141240000Y-40580000D02*
X139990000Y-40580000D01*
X144490000Y-40580000D02*
X143240000Y-40580000D01*
X144490000Y-58480000D02*
X144490000Y-40580000D01*
X136990000Y-40520000D02*
X147490000Y-40520000D01*
X147490000Y-58540000D01*
X136990000Y-58540000D01*
X136990000Y-40520000D01*
X143240000Y-40580000D02*
G75*
G02*
X141240000Y-40580000I-1000000J0D01*
G01*
%TO.C,SW6*%
X106450000Y-68470000D02*
X107830000Y-68470000D01*
X106450000Y-69850000D02*
X106450000Y-68470000D01*
X106450000Y-71120000D02*
X106450000Y-73770000D01*
X106450000Y-71120000D02*
X109450000Y-71120000D01*
X106450000Y-73770000D02*
X109450000Y-73770000D01*
X109450000Y-71120000D02*
X109450000Y-73770000D01*
%TO.C,RV22*%
X152170000Y-55880000D02*
X152170000Y-50740000D01*
X152170000Y-58480000D02*
X152170000Y-57150000D01*
X153500000Y-58480000D02*
X152170000Y-58480000D01*
X155170000Y-50740000D02*
X152170000Y-50740000D01*
X155170000Y-55880000D02*
X152170000Y-55880000D01*
X155170000Y-55880000D02*
X155170000Y-50740000D01*
%TO.C,SW5*%
X110260000Y-113030000D02*
X110260000Y-110380000D01*
X113260000Y-110380000D02*
X110260000Y-110380000D01*
X113260000Y-113030000D02*
X110260000Y-113030000D01*
X113260000Y-113030000D02*
X113260000Y-110380000D01*
X113260000Y-114300000D02*
X113260000Y-115680000D01*
X113260000Y-115680000D02*
X111880000Y-115680000D01*
%TO.C,SW8*%
X106450000Y-83820000D02*
X106450000Y-81170000D01*
X109450000Y-81170000D02*
X106450000Y-81170000D01*
X109450000Y-83820000D02*
X106450000Y-83820000D01*
X109450000Y-83820000D02*
X109450000Y-81170000D01*
X109450000Y-85090000D02*
X109450000Y-86470000D01*
X109450000Y-86470000D02*
X108070000Y-86470000D01*
%TO.C,R22*%
X146457936Y-124360000D02*
X146912064Y-124360000D01*
X146457936Y-125830000D02*
X146912064Y-125830000D01*
%TO.C,Z263*%
X153442936Y-100865000D02*
X153897064Y-100865000D01*
X153442936Y-102335000D02*
X153897064Y-102335000D01*
%TO.C,C25*%
X142501252Y-147855000D02*
X141978748Y-147855000D01*
X142501252Y-149325000D02*
X141978748Y-149325000D01*
%TO.C,R37*%
X153442936Y-116105000D02*
X153897064Y-116105000D01*
X153442936Y-117575000D02*
X153897064Y-117575000D01*
%TO.C,R73*%
X173127936Y-95150000D02*
X173582064Y-95150000D01*
X173127936Y-96620000D02*
X173582064Y-96620000D01*
%TO.C,RV19*%
X148360000Y-71120000D02*
X148360000Y-76260000D01*
X148360000Y-71120000D02*
X151360000Y-71120000D01*
X148360000Y-76260000D02*
X151360000Y-76260000D01*
X150030000Y-68520000D02*
X151360000Y-68520000D01*
X151360000Y-68520000D02*
X151360000Y-69850000D01*
X151360000Y-71120000D02*
X151360000Y-76260000D01*
X152170000Y-71120000D02*
X152170000Y-76260000D01*
X152170000Y-71120000D02*
X155170000Y-71120000D01*
X152170000Y-76260000D02*
X155170000Y-76260000D01*
X153840000Y-68520000D02*
X155170000Y-68520000D01*
X155170000Y-68520000D02*
X155170000Y-69850000D01*
X155170000Y-71120000D02*
X155170000Y-76260000D01*
%TO.C,U7*%
X139930000Y-97670000D02*
X139930000Y-115570000D01*
X139930000Y-115570000D02*
X144430000Y-115570000D01*
X141180000Y-97670000D02*
X139930000Y-97670000D01*
X144430000Y-97670000D02*
X143180000Y-97670000D01*
X144430000Y-115570000D02*
X144430000Y-97670000D01*
X136930000Y-97610000D02*
X147430000Y-97610000D01*
X147430000Y-115630000D01*
X136930000Y-115630000D01*
X136930000Y-97610000D01*
X143180000Y-97670000D02*
G75*
G02*
X141180000Y-97670000I-1000000J0D01*
G01*
%TO.C,R99*%
X173127936Y-118010000D02*
X173582064Y-118010000D01*
X173127936Y-119480000D02*
X173582064Y-119480000D01*
%TO.C,U14*%
X166660000Y-97730000D02*
X166660000Y-115630000D01*
X166660000Y-115630000D02*
X171160000Y-115630000D01*
X167910000Y-97730000D02*
X166660000Y-97730000D01*
X171160000Y-97730000D02*
X169910000Y-97730000D01*
X171160000Y-115630000D02*
X171160000Y-97730000D01*
X163660000Y-97670000D02*
X174160000Y-97670000D01*
X174160000Y-115690000D01*
X163660000Y-115690000D01*
X163660000Y-97670000D01*
X169910000Y-97730000D02*
G75*
G02*
X167910000Y-97730000I-1000000J0D01*
G01*
%TO.C,U10*%
X117130000Y-97730000D02*
X117130000Y-115630000D01*
X117130000Y-115630000D02*
X121630000Y-115630000D01*
X118380000Y-97730000D02*
X117130000Y-97730000D01*
X121630000Y-97730000D02*
X120380000Y-97730000D01*
X121630000Y-115630000D02*
X121630000Y-97730000D01*
X114130000Y-97670000D02*
X124630000Y-97670000D01*
X124630000Y-115690000D01*
X114130000Y-115690000D01*
X114130000Y-97670000D01*
X120380000Y-97730000D02*
G75*
G02*
X118380000Y-97730000I-1000000J0D01*
G01*
%TO.C,SW10*%
X148360000Y-55880000D02*
X148360000Y-53230000D01*
X151360000Y-53230000D02*
X148360000Y-53230000D01*
X151360000Y-55880000D02*
X148360000Y-55880000D01*
X151360000Y-55880000D02*
X151360000Y-53230000D01*
X151360000Y-57150000D02*
X151360000Y-58530000D01*
X151360000Y-58530000D02*
X149980000Y-58530000D01*
%TO.C,Z267*%
X153442936Y-111025000D02*
X153897064Y-111025000D01*
X153442936Y-112495000D02*
X153897064Y-112495000D01*
%TO.C,Z18*%
X127227064Y-124995000D02*
X126772936Y-124995000D01*
X127227064Y-126465000D02*
X126772936Y-126465000D01*
%TO.C,Z269*%
X153897064Y-108485000D02*
X153442936Y-108485000D01*
X153897064Y-109955000D02*
X153442936Y-109955000D01*
%TO.C,C47*%
X169171252Y-118010000D02*
X168648748Y-118010000D01*
X169171252Y-119480000D02*
X168648748Y-119480000D01*
%TD*%
M02*
