M48
;Layer_Color=9474304
;FILE_FORMAT=2:4
INCH,TZ
;TYPE=PLATED
T1F00S00C0.0354
T2F00S00C0.0359
T3F00S00C0.0394
T4F00S00C0.0402
%
T01
X1500Y1500
X25445Y2900
X31500Y2000
X58000Y1000
X40000Y14000
X34000Y12000
X27500Y5750
X1500Y28000
X57500
T02
X44000Y1500
Y2500
Y3500
Y4500
Y5500
X47000
Y4500
Y3500
Y2500
Y1500
Y6500
Y7500
X44000
Y6500
Y11000
Y12000
Y13000
Y14000
Y15000
Y16000
Y17000
X47000
Y16000
Y15000
Y14000
Y13000
Y12000
Y11000
Y20500
X44000
X30000Y17000
Y16000
Y15000
Y14000
Y13000
Y12000
Y11000
X27000
Y12000
Y13000
Y14000
Y15000
Y16000
Y17000
X17000
Y16000
Y15000
Y14000
Y13000
Y12000
Y11000
X14000
Y12000
Y13000
Y14000
Y15000
Y16000
Y17000
X44000Y21500
Y22500
Y23500
Y24500
Y25500
Y26500
X47000
Y25500
Y24500
Y23500
Y22500
Y21500
T03
X49000Y5500
X50000
X51000
Y10000
X50000
X49000
Y12500
X50000
X51000
Y15000
X50000
X49000
X42000
X41000
X40000
X38000
X37000
Y10000
X38000
X40000
X41000
X42000
Y12500
X41000
X40000
X36000Y10000
X34000
X33000
X32000
Y15000
X33000
X34000
X36000
X23000Y10000
X22000
X21000
X12000
X11000
X10000
X40000Y24500
X41000
X42000
T04
X26528Y2937
Y3937
X27528
X28528
X29528
X30528
X31528
X32528
Y2937
X31528
X30528
X29528
X28528
X27528
M30
