G04*
G04 #@! TF.GenerationSoftware,Altium Limited,Altium Designer,20.0.14 (345)*
G04*
G04 Layer_Color=16711935*
%FSLAX25Y25*%
%MOIN*%
G70*
G01*
G75*
%ADD10C,0.00591*%
%ADD12C,0.00787*%
%ADD13C,0.00500*%
%ADD51C,0.00394*%
D10*
X182091Y120158D02*
X182071Y121156D01*
X182013Y122153D01*
X181915Y123147D01*
X181779Y124136D01*
X181605Y125119D01*
X181392Y126095D01*
X181142Y127062D01*
X180853Y128018D01*
X180528Y128962D01*
X180166Y129893D01*
X179769Y130809D01*
X179335Y131709D01*
X178867Y132591D01*
X178365Y133454D01*
X177830Y134297D01*
X177262Y135118D01*
X176662Y135917D01*
X176032Y136692D01*
X175372Y137441D01*
X174683Y138164D01*
X173967Y138860D01*
X173224Y139527D01*
X172455Y140165D01*
X171663Y140772D01*
X170847Y141348D01*
X170009Y141892D01*
X169151Y142402D01*
X168273Y142879D01*
X167378Y143321D01*
X166466Y143728D01*
X165539Y144099D01*
X164598Y144433D01*
X163644Y144730D01*
X162680Y144991D01*
X161707Y145213D01*
X160725Y145397D01*
X159737Y145543D01*
X158744Y145649D01*
X157748Y145718D01*
X156750Y145747D01*
X155751Y145737D01*
X154754Y145688D01*
X153759Y145601D01*
X152768Y145475D01*
X151783Y145310D01*
X150806Y145106D01*
X149837Y144865D01*
X148878Y144587D01*
X147930Y144271D01*
X146996Y143918D01*
X146076Y143529D01*
X145172Y143104D01*
X144286Y142645D01*
X143418Y142151D01*
X142569Y141624D01*
X141743Y141064D01*
X140938Y140472D01*
X140157Y139850D01*
X139401Y139197D01*
X138672Y138516D01*
X137969Y137806D01*
X137294Y137070D01*
X136649Y136307D01*
X136034Y135521D01*
X135450Y134710D01*
X134899Y133878D01*
X134380Y133025D01*
X133895Y132152D01*
X133444Y131261D01*
X133028Y130353D01*
X132648Y129429D01*
X132305Y128492D01*
X131998Y127541D01*
X131728Y126580D01*
X131497Y125608D01*
X131303Y124629D01*
X131148Y123642D01*
X131031Y122650D01*
X130953Y121655D01*
X130914Y120657D01*
Y119658D01*
X130953Y118660D01*
X131031Y117665D01*
X131148Y116673D01*
X131303Y115687D01*
X131497Y114707D01*
X131728Y113735D01*
X131998Y112774D01*
X132305Y111823D01*
X132648Y110886D01*
X133028Y109962D01*
X133444Y109054D01*
X133894Y108163D01*
X134380Y107290D01*
X134898Y106437D01*
X135450Y105605D01*
X136034Y104795D01*
X136649Y104008D01*
X137294Y103245D01*
X137969Y102509D01*
X138671Y101799D01*
X139401Y101118D01*
X140157Y100465D01*
X140938Y99843D01*
X141742Y99251D01*
X142569Y98691D01*
X143418Y98164D01*
X144286Y97670D01*
X145172Y97211D01*
X146076Y96786D01*
X146996Y96397D01*
X147930Y96044D01*
X148878Y95728D01*
X149836Y95450D01*
X150805Y95209D01*
X151783Y95005D01*
X152768Y94841D01*
X153759Y94714D01*
X154753Y94627D01*
X155751Y94578D01*
X156750Y94568D01*
X157748Y94597D01*
X158744Y94665D01*
X159737Y94772D01*
X160725Y94918D01*
X161706Y95102D01*
X162680Y95324D01*
X163644Y95584D01*
X164597Y95882D01*
X165539Y96216D01*
X166466Y96587D01*
X167378Y96994D01*
X168273Y97436D01*
X169151Y97913D01*
X170009Y98423D01*
X170847Y98967D01*
X171663Y99543D01*
X172455Y100150D01*
X173224Y100788D01*
X173967Y101455D01*
X174683Y102151D01*
X175372Y102874D01*
X176032Y103623D01*
X176662Y104398D01*
X177262Y105197D01*
X177830Y106018D01*
X178365Y106861D01*
X178867Y107724D01*
X179335Y108606D01*
X179769Y109506D01*
X180166Y110422D01*
X180528Y111353D01*
X180853Y112297D01*
X181142Y113253D01*
X181392Y114220D01*
X181605Y115196D01*
X181779Y116179D01*
X181915Y117168D01*
X182013Y118162D01*
X182071Y119159D01*
X182091Y120157D01*
X127091Y120158D02*
X127071Y121156D01*
X127013Y122153D01*
X126915Y123147D01*
X126779Y124136D01*
X126605Y125119D01*
X126392Y126095D01*
X126142Y127062D01*
X125853Y128018D01*
X125528Y128962D01*
X125166Y129893D01*
X124768Y130809D01*
X124335Y131709D01*
X123867Y132591D01*
X123365Y133454D01*
X122830Y134297D01*
X122262Y135118D01*
X121662Y135917D01*
X121032Y136692D01*
X120372Y137441D01*
X119683Y138164D01*
X118967Y138860D01*
X118224Y139527D01*
X117455Y140165D01*
X116663Y140772D01*
X115847Y141348D01*
X115009Y141892D01*
X114151Y142402D01*
X113273Y142879D01*
X112378Y143321D01*
X111466Y143728D01*
X110539Y144099D01*
X109598Y144433D01*
X108644Y144730D01*
X107680Y144991D01*
X106707Y145213D01*
X105725Y145397D01*
X104737Y145543D01*
X103744Y145649D01*
X102748Y145718D01*
X101750Y145747D01*
X100751Y145737D01*
X99754Y145688D01*
X98759Y145601D01*
X97768Y145475D01*
X96783Y145310D01*
X95806Y145106D01*
X94836Y144865D01*
X93878Y144587D01*
X92930Y144271D01*
X91996Y143918D01*
X91076Y143529D01*
X90172Y143104D01*
X89286Y142645D01*
X88418Y142151D01*
X87569Y141624D01*
X86743Y141064D01*
X85938Y140472D01*
X85157Y139850D01*
X84401Y139197D01*
X83671Y138516D01*
X82969Y137806D01*
X82294Y137070D01*
X81649Y136307D01*
X81034Y135521D01*
X80450Y134710D01*
X79899Y133878D01*
X79380Y133025D01*
X78895Y132152D01*
X78444Y131261D01*
X78028Y130353D01*
X77648Y129429D01*
X77305Y128492D01*
X76998Y127541D01*
X76728Y126580D01*
X76497Y125608D01*
X76303Y124629D01*
X76148Y123642D01*
X76031Y122650D01*
X75953Y121655D01*
X75914Y120657D01*
Y119658D01*
X75953Y118660D01*
X76031Y117665D01*
X76148Y116673D01*
X76303Y115687D01*
X76497Y114707D01*
X76728Y113735D01*
X76998Y112774D01*
X77305Y111823D01*
X77648Y110886D01*
X78028Y109962D01*
X78444Y109054D01*
X78894Y108163D01*
X79380Y107290D01*
X79899Y106437D01*
X80450Y105605D01*
X81034Y104795D01*
X81649Y104008D01*
X82294Y103245D01*
X82969Y102509D01*
X83671Y101799D01*
X84401Y101118D01*
X85157Y100465D01*
X85938Y99843D01*
X86742Y99251D01*
X87569Y98691D01*
X88417Y98164D01*
X89285Y97670D01*
X90172Y97211D01*
X91076Y96786D01*
X91996Y96397D01*
X92930Y96044D01*
X93878Y95728D01*
X94836Y95450D01*
X95806Y95209D01*
X96783Y95005D01*
X97768Y94841D01*
X98759Y94714D01*
X99753Y94627D01*
X100751Y94578D01*
X101750Y94568D01*
X102748Y94597D01*
X103744Y94665D01*
X104737Y94772D01*
X105725Y94918D01*
X106707Y95102D01*
X107680Y95324D01*
X108644Y95584D01*
X109598Y95882D01*
X110538Y96216D01*
X111466Y96587D01*
X112378Y96994D01*
X113273Y97436D01*
X114151Y97913D01*
X115009Y98423D01*
X115847Y98967D01*
X116663Y99543D01*
X117455Y100150D01*
X118224Y100788D01*
X118967Y101455D01*
X119683Y102151D01*
X120372Y102874D01*
X121032Y103623D01*
X121662Y104398D01*
X122262Y105197D01*
X122830Y106018D01*
X123365Y106861D01*
X123867Y107724D01*
X124335Y108606D01*
X124768Y109506D01*
X125166Y110422D01*
X125528Y111353D01*
X125853Y112297D01*
X126142Y113253D01*
X126392Y114220D01*
X126605Y115196D01*
X126779Y116179D01*
X126915Y117168D01*
X127013Y118162D01*
X127071Y119159D01*
X127091Y120157D01*
X160260Y401614D02*
X160244Y402614D01*
X160198Y403614D01*
X160121Y404611D01*
X160014Y405606D01*
X159876Y406596D01*
X159707Y407582D01*
X159508Y408563D01*
X159279Y409537D01*
X159020Y410503D01*
X158731Y411461D01*
X158414Y412409D01*
X158066Y413347D01*
X157691Y414275D01*
X157287Y415190D01*
X156855Y416092D01*
X156395Y416980D01*
X155908Y417854D01*
X155395Y418713D01*
X154855Y419555D01*
X154290Y420380D01*
X153699Y421188D01*
X153084Y421977D01*
X152445Y422747D01*
X151783Y423496D01*
X151098Y424225D01*
X150390Y424932D01*
X149661Y425617D01*
X148912Y426280D01*
X148142Y426919D01*
X147353Y427534D01*
X146546Y428125D01*
X145721Y428690D01*
X144878Y429229D01*
X144020Y429743D01*
X143146Y430230D01*
X142257Y430689D01*
X141355Y431121D01*
X140440Y431526D01*
X139513Y431901D01*
X138575Y432248D01*
X137626Y432566D01*
X136668Y432855D01*
X135702Y433113D01*
X134728Y433343D01*
X133748Y433541D01*
X132762Y433710D01*
X131771Y433848D01*
X130776Y433956D01*
X129779Y434033D01*
X128780Y434079D01*
X127779Y434094D01*
X126779Y434079D01*
X125780Y434033D01*
X124783Y433956D01*
X123788Y433848D01*
X122797Y433710D01*
X121811Y433541D01*
X120831Y433343D01*
X119857Y433113D01*
X118891Y432855D01*
X117933Y432566D01*
X116984Y432248D01*
X116046Y431901D01*
X115119Y431526D01*
X114204Y431121D01*
X113302Y430689D01*
X112413Y430230D01*
X111539Y429743D01*
X110681Y429229D01*
X109838Y428690D01*
X109013Y428125D01*
X108206Y427534D01*
X107417Y426919D01*
X106647Y426280D01*
X105898Y425617D01*
X105169Y424932D01*
X104462Y424225D01*
X103776Y423496D01*
X103114Y422746D01*
X102475Y421977D01*
X101860Y421188D01*
X101269Y420380D01*
X100704Y419555D01*
X100164Y418713D01*
X99651Y417854D01*
X99164Y416980D01*
X98704Y416092D01*
X98272Y415190D01*
X97868Y414274D01*
X97492Y413347D01*
X97146Y412409D01*
X96828Y411461D01*
X96539Y410503D01*
X96280Y409537D01*
X96051Y408563D01*
X95852Y407582D01*
X95684Y406596D01*
X95545Y405606D01*
X95438Y404611D01*
X95361Y403614D01*
X95315Y402614D01*
X95299Y401614D01*
X95315Y400614D01*
X95361Y399615D01*
X95438Y398617D01*
X95545Y397623D01*
X95684Y396632D01*
X95852Y395646D01*
X96051Y394665D01*
X96280Y393692D01*
X96539Y392725D01*
X96828Y391768D01*
X97146Y390819D01*
X97493Y389881D01*
X97868Y388954D01*
X98272Y388038D01*
X98704Y387136D01*
X99164Y386248D01*
X99651Y385374D01*
X100164Y384515D01*
X100704Y383673D01*
X101269Y382848D01*
X101860Y382040D01*
X102475Y381251D01*
X103114Y380482D01*
X103776Y379732D01*
X104462Y379003D01*
X105169Y378296D01*
X105898Y377611D01*
X106647Y376948D01*
X107417Y376309D01*
X108206Y375694D01*
X109013Y375104D01*
X109839Y374538D01*
X110681Y373999D01*
X111540Y373485D01*
X112414Y372998D01*
X113302Y372539D01*
X114204Y372107D01*
X115119Y371703D01*
X116047Y371327D01*
X116985Y370980D01*
X117933Y370662D01*
X118891Y370374D01*
X119857Y370115D01*
X120831Y369886D01*
X121811Y369687D01*
X122798Y369518D01*
X123788Y369380D01*
X124783Y369272D01*
X125780Y369196D01*
X126779Y369149D01*
X127780Y369134D01*
X128780Y369149D01*
X129779Y369196D01*
X130777Y369272D01*
X131771Y369380D01*
X132762Y369518D01*
X133748Y369687D01*
X134728Y369886D01*
X135702Y370115D01*
X136668Y370374D01*
X137626Y370662D01*
X138575Y370980D01*
X139513Y371327D01*
X140440Y371703D01*
X141355Y372107D01*
X142257Y372539D01*
X143146Y372999D01*
X144020Y373485D01*
X144878Y373999D01*
X145721Y374539D01*
X146546Y375104D01*
X147353Y375694D01*
X148142Y376310D01*
X148912Y376949D01*
X149662Y377611D01*
X150390Y378296D01*
X151098Y379004D01*
X151783Y379732D01*
X152445Y380482D01*
X153085Y381252D01*
X153700Y382041D01*
X154290Y382848D01*
X154855Y383673D01*
X155395Y384516D01*
X155908Y385374D01*
X156395Y386248D01*
X156855Y387137D01*
X157287Y388039D01*
X157691Y388954D01*
X158067Y389881D01*
X158414Y390820D01*
X158731Y391768D01*
X159020Y392726D01*
X159279Y393692D01*
X159508Y394666D01*
X159707Y395646D01*
X159876Y396632D01*
X160014Y397623D01*
X160121Y398618D01*
X160198Y399615D01*
X160245Y400614D01*
X160260Y401614D01*
X160496Y481614D02*
X160481Y482614D01*
X160434Y483614D01*
X160357Y484611D01*
X160250Y485606D01*
X160112Y486596D01*
X159943Y487582D01*
X159744Y488563D01*
X159515Y489537D01*
X159256Y490503D01*
X158968Y491461D01*
X158650Y492409D01*
X158303Y493347D01*
X157927Y494275D01*
X157523Y495190D01*
X157091Y496092D01*
X156631Y496980D01*
X156144Y497854D01*
X155631Y498713D01*
X155091Y499555D01*
X154526Y500381D01*
X153936Y501188D01*
X153321Y501977D01*
X152682Y502746D01*
X152019Y503496D01*
X151334Y504225D01*
X150626Y504932D01*
X149898Y505617D01*
X149148Y506280D01*
X148378Y506919D01*
X147590Y507534D01*
X146782Y508124D01*
X145957Y508690D01*
X145114Y509230D01*
X144256Y509743D01*
X143382Y510230D01*
X142493Y510689D01*
X141591Y511121D01*
X140676Y511525D01*
X139749Y511901D01*
X138811Y512248D01*
X137862Y512566D01*
X136904Y512855D01*
X135938Y513113D01*
X134964Y513343D01*
X133984Y513541D01*
X132998Y513710D01*
X132007Y513848D01*
X131013Y513956D01*
X130015Y514033D01*
X129016Y514079D01*
X128016Y514094D01*
X127015Y514079D01*
X126016Y514033D01*
X125019Y513956D01*
X124024Y513848D01*
X123033Y513710D01*
X122047Y513541D01*
X121067Y513343D01*
X120093Y513113D01*
X119127Y512855D01*
X118169Y512566D01*
X117221Y512248D01*
X116282Y511901D01*
X115355Y511525D01*
X114440Y511121D01*
X113538Y510689D01*
X112650Y510230D01*
X111776Y509743D01*
X110917Y509230D01*
X110075Y508690D01*
X109249Y508124D01*
X108442Y507534D01*
X107653Y506919D01*
X106883Y506280D01*
X106134Y505617D01*
X105405Y504932D01*
X104698Y504225D01*
X104013Y503496D01*
X103350Y502746D01*
X102711Y501977D01*
X102096Y501188D01*
X101505Y500380D01*
X100940Y499555D01*
X100400Y498713D01*
X99887Y497854D01*
X99400Y496980D01*
X98940Y496092D01*
X98509Y495190D01*
X98104Y494274D01*
X97729Y493347D01*
X97382Y492409D01*
X97064Y491461D01*
X96775Y490503D01*
X96516Y489537D01*
X96287Y488563D01*
X96088Y487582D01*
X95920Y486596D01*
X95782Y485605D01*
X95674Y484611D01*
X95597Y483614D01*
X95551Y482614D01*
X95535Y481614D01*
X95551Y480614D01*
X95597Y479614D01*
X95674Y478617D01*
X95782Y477623D01*
X95920Y476632D01*
X96088Y475646D01*
X96287Y474665D01*
X96517Y473692D01*
X96775Y472725D01*
X97064Y471768D01*
X97382Y470819D01*
X97729Y469881D01*
X98105Y468954D01*
X98509Y468039D01*
X98941Y467136D01*
X99400Y466248D01*
X99887Y465374D01*
X100400Y464515D01*
X100940Y463673D01*
X101505Y462848D01*
X102096Y462040D01*
X102711Y461251D01*
X103350Y460482D01*
X104013Y459732D01*
X104698Y459003D01*
X105405Y458296D01*
X106134Y457611D01*
X106884Y456948D01*
X107653Y456309D01*
X108442Y455694D01*
X109250Y455104D01*
X110075Y454538D01*
X110917Y453999D01*
X111776Y453485D01*
X112650Y452998D01*
X113538Y452539D01*
X114441Y452107D01*
X115356Y451703D01*
X116283Y451327D01*
X117221Y450980D01*
X118169Y450662D01*
X119127Y450374D01*
X120094Y450115D01*
X121067Y449886D01*
X122048Y449687D01*
X123034Y449518D01*
X124024Y449380D01*
X125019Y449272D01*
X126016Y449195D01*
X127016Y449149D01*
X128016Y449134D01*
X129016Y449149D01*
X130016Y449195D01*
X131013Y449272D01*
X132007Y449380D01*
X132998Y449518D01*
X133984Y449687D01*
X134965Y449886D01*
X135938Y450115D01*
X136905Y450374D01*
X137863Y450662D01*
X138811Y450980D01*
X139749Y451327D01*
X140676Y451703D01*
X141592Y452107D01*
X142494Y452539D01*
X143382Y452999D01*
X144256Y453485D01*
X145115Y453999D01*
X145957Y454539D01*
X146782Y455104D01*
X147590Y455694D01*
X148379Y456310D01*
X149148Y456949D01*
X149898Y457611D01*
X150627Y458296D01*
X151334Y459004D01*
X152019Y459732D01*
X152682Y460482D01*
X153321Y461252D01*
X153936Y462041D01*
X154526Y462848D01*
X155092Y463673D01*
X155631Y464516D01*
X156145Y465374D01*
X156631Y466248D01*
X157091Y467137D01*
X157523Y468039D01*
X157927Y468954D01*
X158303Y469881D01*
X158650Y470820D01*
X158968Y471768D01*
X159256Y472726D01*
X159515Y473692D01*
X159744Y474666D01*
X159943Y475646D01*
X160112Y476632D01*
X160250Y477623D01*
X160357Y478618D01*
X160434Y479615D01*
X160481Y480614D01*
X160496Y481614D01*
X82760Y401614D02*
X82744Y402614D01*
X82698Y403614D01*
X82621Y404611D01*
X82514Y405606D01*
X82376Y406596D01*
X82207Y407582D01*
X82008Y408563D01*
X81779Y409537D01*
X81520Y410503D01*
X81231Y411461D01*
X80914Y412409D01*
X80567Y413347D01*
X80191Y414275D01*
X79787Y415190D01*
X79355Y416092D01*
X78895Y416980D01*
X78408Y417854D01*
X77895Y418713D01*
X77355Y419555D01*
X76790Y420380D01*
X76199Y421188D01*
X75584Y421977D01*
X74945Y422747D01*
X74283Y423496D01*
X73598Y424225D01*
X72890Y424932D01*
X72161Y425617D01*
X71412Y426280D01*
X70642Y426919D01*
X69853Y427534D01*
X69046Y428125D01*
X68221Y428690D01*
X67378Y429229D01*
X66520Y429743D01*
X65646Y430230D01*
X64757Y430689D01*
X63855Y431121D01*
X62940Y431526D01*
X62013Y431901D01*
X61075Y432248D01*
X60126Y432566D01*
X59168Y432855D01*
X58202Y433113D01*
X57228Y433343D01*
X56248Y433541D01*
X55262Y433710D01*
X54271Y433848D01*
X53276Y433956D01*
X52279Y434033D01*
X51280Y434079D01*
X50279Y434094D01*
X49279Y434079D01*
X48280Y434033D01*
X47283Y433956D01*
X46288Y433848D01*
X45297Y433710D01*
X44311Y433541D01*
X43331Y433343D01*
X42357Y433113D01*
X41391Y432855D01*
X40433Y432566D01*
X39485Y432248D01*
X38546Y431901D01*
X37619Y431526D01*
X36704Y431121D01*
X35802Y430689D01*
X34913Y430230D01*
X34039Y429743D01*
X33181Y429229D01*
X32339Y428690D01*
X31513Y428125D01*
X30706Y427534D01*
X29917Y426919D01*
X29147Y426280D01*
X28398Y425617D01*
X27669Y424932D01*
X26961Y424225D01*
X26276Y423496D01*
X25614Y422746D01*
X24975Y421977D01*
X24360Y421188D01*
X23769Y420380D01*
X23204Y419555D01*
X22664Y418713D01*
X22151Y417854D01*
X21664Y416980D01*
X21204Y416092D01*
X20772Y415190D01*
X20368Y414274D01*
X19993Y413347D01*
X19646Y412409D01*
X19328Y411461D01*
X19039Y410503D01*
X18780Y409537D01*
X18551Y408563D01*
X18352Y407582D01*
X18184Y406596D01*
X18045Y405606D01*
X17938Y404611D01*
X17861Y403614D01*
X17815Y402614D01*
X17799Y401614D01*
X17815Y400614D01*
X17861Y399615D01*
X17938Y398617D01*
X18045Y397623D01*
X18184Y396632D01*
X18352Y395646D01*
X18551Y394665D01*
X18780Y393692D01*
X19039Y392725D01*
X19328Y391768D01*
X19646Y390819D01*
X19993Y389881D01*
X20368Y388954D01*
X20772Y388038D01*
X21204Y387136D01*
X21664Y386248D01*
X22151Y385374D01*
X22664Y384515D01*
X23204Y383673D01*
X23769Y382848D01*
X24360Y382040D01*
X24975Y381251D01*
X25614Y380482D01*
X26276Y379732D01*
X26962Y379003D01*
X27669Y378296D01*
X28398Y377611D01*
X29147Y376948D01*
X29917Y376309D01*
X30706Y375694D01*
X31513Y375104D01*
X32339Y374538D01*
X33181Y373999D01*
X34040Y373485D01*
X34914Y372998D01*
X35802Y372539D01*
X36704Y372107D01*
X37619Y371703D01*
X38546Y371327D01*
X39485Y370980D01*
X40433Y370662D01*
X41391Y370374D01*
X42357Y370115D01*
X43331Y369886D01*
X44311Y369687D01*
X45298Y369518D01*
X46288Y369380D01*
X47283Y369272D01*
X48280Y369196D01*
X49279Y369149D01*
X50280Y369134D01*
X51280Y369149D01*
X52279Y369196D01*
X53277Y369272D01*
X54271Y369380D01*
X55262Y369518D01*
X56248Y369687D01*
X57228Y369886D01*
X58202Y370115D01*
X59168Y370374D01*
X60126Y370662D01*
X61075Y370980D01*
X62013Y371327D01*
X62940Y371703D01*
X63855Y372107D01*
X64758Y372539D01*
X65646Y372999D01*
X66520Y373485D01*
X67378Y373999D01*
X68221Y374539D01*
X69046Y375104D01*
X69854Y375694D01*
X70642Y376310D01*
X71412Y376949D01*
X72162Y377611D01*
X72890Y378296D01*
X73598Y379004D01*
X74283Y379732D01*
X74945Y380482D01*
X75585Y381252D01*
X76200Y382041D01*
X76790Y382848D01*
X77355Y383673D01*
X77895Y384516D01*
X78408Y385374D01*
X78895Y386248D01*
X79355Y387137D01*
X79787Y388039D01*
X80191Y388954D01*
X80567Y389881D01*
X80914Y390820D01*
X81231Y391768D01*
X81520Y392726D01*
X81779Y393692D01*
X82008Y394666D01*
X82207Y395646D01*
X82376Y396632D01*
X82514Y397623D01*
X82621Y398618D01*
X82698Y399615D01*
X82744Y400614D01*
X82760Y401614D01*
X82996Y481614D02*
X82981Y482614D01*
X82934Y483614D01*
X82858Y484611D01*
X82750Y485606D01*
X82612Y486596D01*
X82443Y487582D01*
X82244Y488563D01*
X82015Y489537D01*
X81756Y490503D01*
X81468Y491461D01*
X81150Y492409D01*
X80803Y493347D01*
X80427Y494275D01*
X80023Y495190D01*
X79591Y496092D01*
X79131Y496980D01*
X78645Y497854D01*
X78131Y498713D01*
X77591Y499555D01*
X77026Y500381D01*
X76436Y501188D01*
X75820Y501977D01*
X75182Y502746D01*
X74519Y503496D01*
X73834Y504225D01*
X73126Y504932D01*
X72398Y505617D01*
X71648Y506280D01*
X70878Y506919D01*
X70090Y507534D01*
X69282Y508124D01*
X68457Y508690D01*
X67614Y509230D01*
X66756Y509743D01*
X65882Y510230D01*
X64994Y510689D01*
X64091Y511121D01*
X63176Y511525D01*
X62249Y511901D01*
X61311Y512248D01*
X60362Y512566D01*
X59404Y512855D01*
X58438Y513113D01*
X57464Y513343D01*
X56484Y513541D01*
X55498Y513710D01*
X54507Y513848D01*
X53513Y513956D01*
X52515Y514033D01*
X51516Y514079D01*
X50516Y514094D01*
X49516Y514079D01*
X48516Y514033D01*
X47519Y513956D01*
X46524Y513848D01*
X45533Y513710D01*
X44548Y513541D01*
X43567Y513343D01*
X42593Y513113D01*
X41627Y512855D01*
X40669Y512566D01*
X39721Y512248D01*
X38783Y511901D01*
X37855Y511525D01*
X36940Y511121D01*
X36038Y510689D01*
X35149Y510230D01*
X34275Y509743D01*
X33417Y509230D01*
X32575Y508690D01*
X31749Y508124D01*
X30942Y507534D01*
X30153Y506919D01*
X29383Y506280D01*
X28634Y505617D01*
X27905Y504932D01*
X27198Y504225D01*
X26513Y503496D01*
X25850Y502746D01*
X25211Y501977D01*
X24596Y501188D01*
X24005Y500380D01*
X23440Y499555D01*
X22900Y498713D01*
X22387Y497854D01*
X21900Y496980D01*
X21441Y496092D01*
X21009Y495190D01*
X20604Y494274D01*
X20229Y493347D01*
X19882Y492409D01*
X19564Y491461D01*
X19275Y490503D01*
X19016Y489537D01*
X18787Y488563D01*
X18588Y487582D01*
X18420Y486596D01*
X18282Y485605D01*
X18174Y484611D01*
X18097Y483614D01*
X18051Y482614D01*
X18035Y481614D01*
X18051Y480614D01*
X18097Y479614D01*
X18174Y478617D01*
X18282Y477623D01*
X18420Y476632D01*
X18588Y475646D01*
X18787Y474665D01*
X19016Y473692D01*
X19275Y472725D01*
X19564Y471768D01*
X19882Y470819D01*
X20229Y469881D01*
X20605Y468954D01*
X21009Y468039D01*
X21441Y467136D01*
X21900Y466248D01*
X22387Y465374D01*
X22900Y464515D01*
X23440Y463673D01*
X24005Y462848D01*
X24596Y462040D01*
X25211Y461251D01*
X25850Y460482D01*
X26513Y459732D01*
X27198Y459003D01*
X27905Y458296D01*
X28634Y457611D01*
X29384Y456948D01*
X30153Y456309D01*
X30942Y455694D01*
X31750Y455104D01*
X32575Y454538D01*
X33417Y453999D01*
X34276Y453485D01*
X35150Y452998D01*
X36038Y452539D01*
X36940Y452107D01*
X37856Y451703D01*
X38783Y451327D01*
X39721Y450980D01*
X40670Y450662D01*
X41627Y450374D01*
X42594Y450115D01*
X43567Y449886D01*
X44548Y449687D01*
X45534Y449518D01*
X46525Y449380D01*
X47519Y449272D01*
X48516Y449195D01*
X49516Y449149D01*
X50516Y449134D01*
X51516Y449149D01*
X52516Y449195D01*
X53513Y449272D01*
X54507Y449380D01*
X55498Y449518D01*
X56484Y449687D01*
X57465Y449886D01*
X58438Y450115D01*
X59405Y450374D01*
X60362Y450662D01*
X61311Y450980D01*
X62249Y451327D01*
X63176Y451703D01*
X64091Y452107D01*
X64994Y452539D01*
X65882Y452999D01*
X66756Y453485D01*
X67615Y453999D01*
X68457Y454539D01*
X69282Y455104D01*
X70090Y455694D01*
X70879Y456310D01*
X71648Y456949D01*
X72398Y457611D01*
X73127Y458296D01*
X73834Y459004D01*
X74519Y459732D01*
X75182Y460482D01*
X75821Y461252D01*
X76436Y462041D01*
X77026Y462848D01*
X77592Y463673D01*
X78131Y464516D01*
X78645Y465374D01*
X79131Y466248D01*
X79591Y467137D01*
X80023Y468039D01*
X80427Y468954D01*
X80803Y469881D01*
X81150Y470820D01*
X81468Y471768D01*
X81756Y472726D01*
X82015Y473692D01*
X82244Y474666D01*
X82443Y475646D01*
X82612Y476632D01*
X82750Y477623D01*
X82858Y478618D01*
X82934Y479615D01*
X82981Y480614D01*
X82996Y481614D01*
D12*
X534527Y247244D02*
X533740D01*
X534527D01*
X436102D02*
X435315D01*
X436102D01*
X337677D02*
X336890D01*
X337677D01*
X21894Y117441D02*
X21106D01*
X21894D01*
Y87441D02*
X21106D01*
X21894D01*
X130752Y154764D02*
Y204764D01*
X16579D02*
X130752D01*
X16579Y154764D02*
Y204764D01*
Y154764D02*
X130752D01*
X36244Y140748D02*
X46756D01*
X36244Y99252D02*
Y140748D01*
Y99252D02*
X46756D01*
Y140748D01*
X211913Y220315D02*
Y259685D01*
X26087D02*
X211913D01*
X26087Y220315D02*
Y259685D01*
Y220315D02*
X211913D01*
X26087Y267815D02*
Y307185D01*
Y267815D02*
X211913D01*
Y307185D01*
X26087D02*
X211913D01*
Y317815D02*
Y357185D01*
X26087D02*
X211913D01*
X26087Y317815D02*
Y357185D01*
Y317815D02*
X211913D01*
D13*
X540433Y287992D02*
X544370D01*
Y302559D01*
X540433D02*
X544370D01*
X516811Y250276D02*
Y340276D01*
Y250276D02*
X540433D01*
Y287992D01*
Y302559D01*
Y340276D01*
X516811D02*
X540433D01*
X442008Y287992D02*
X445945D01*
Y302559D01*
X442008D02*
X445945D01*
X418386Y250276D02*
Y340276D01*
Y250276D02*
X442008D01*
Y287992D01*
Y302559D01*
Y340276D01*
X418386D02*
X442008D01*
X343583Y287992D02*
X347520D01*
Y302559D01*
X343583D02*
X347520D01*
X319961Y250276D02*
Y340276D01*
Y250276D02*
X343583D01*
Y287992D01*
Y302559D01*
Y340276D01*
X319961D02*
X343583D01*
X16500Y120000D02*
X26500D01*
X16500D02*
Y140000D01*
X26500D01*
Y120000D02*
Y140000D01*
X16500Y90000D02*
X26500D01*
X16500D02*
Y110000D01*
X26500D01*
Y90000D02*
Y110000D01*
D51*
X79843Y444134D02*
X85158D01*
X79843Y435866D02*
X85158D01*
Y444134D01*
X79843Y435866D02*
Y444134D01*
X92343D02*
X97658D01*
X92343Y435866D02*
X97658D01*
Y444134D01*
X92343Y435866D02*
Y444134D01*
X226343Y480866D02*
Y489134D01*
X231658Y480866D02*
Y489134D01*
X226343Y480866D02*
X231658D01*
X226343Y489134D02*
X231658D01*
X216342Y480866D02*
X221657D01*
X216342Y489134D02*
X221657D01*
X216342Y480866D02*
Y489134D01*
X221657Y480866D02*
Y489134D01*
X56776Y139685D02*
X66224D01*
Y114882D02*
Y139685D01*
X56776Y114882D02*
Y139685D01*
Y114882D02*
X66224D01*
X226343Y370866D02*
Y379134D01*
X231658Y370866D02*
Y379134D01*
X226343Y370866D02*
X231658D01*
X226343Y379134D02*
X231658D01*
X199158Y388366D02*
Y396634D01*
X193842Y388366D02*
Y396634D01*
X199158D01*
X193842Y388366D02*
X199158D01*
X193842Y368366D02*
Y376634D01*
X199158Y368366D02*
Y376634D01*
X193842Y368366D02*
X199158D01*
X193842Y376634D02*
X199158D01*
X172110Y364528D02*
Y405472D01*
Y405472D02*
X190220D01*
Y364528D02*
Y405472D01*
X172110Y364528D02*
X190220D01*
X185102D02*
Y405472D01*
X172110Y422027D02*
Y462972D01*
Y462972D02*
X190220D01*
Y422027D02*
Y462972D01*
X172110Y422027D02*
X190220D01*
X185102D02*
Y462972D01*
X172110Y479528D02*
Y520472D01*
Y520472D02*
X190220D01*
Y479528D02*
Y520472D01*
X172110Y479528D02*
X190220D01*
X185102D02*
Y520472D01*
M02*
