G04*
G04 #@! TF.GenerationSoftware,Altium Limited,Altium Designer,20.0.14 (345)*
G04*
G04 Layer_Physical_Order=2*
G04 Layer_Color=16776960*
%FSLAX25Y25*%
%MOIN*%
G70*
G01*
G75*
%ADD16C,0.05118*%
%ADD17R,0.05118X0.05118*%
%ADD18C,0.06102*%
%ADD19R,0.06102X0.06102*%
%ADD21C,0.07874*%
%ADD22R,0.07874X0.07874*%
%ADD25C,0.04724*%
%ADD26R,0.04724X0.04724*%
%ADD36C,0.02000*%
%ADD37C,0.01900*%
%ADD38C,0.01200*%
%ADD39C,0.05315*%
%ADD40R,0.05315X0.05315*%
%ADD41C,0.06024*%
%ADD42R,0.06024X0.06024*%
%ADD44O,0.07874X0.05937*%
%ADD45C,0.06693*%
%ADD46R,0.06693X0.06693*%
%ADD47C,0.05000*%
%ADD48C,0.05906*%
%ADD49R,0.05709X0.05709*%
G36*
X590551Y0D02*
X0D01*
X-0Y590551D01*
X590551D01*
X590551Y0D01*
D02*
G37*
%LPC*%
G36*
X580500Y586421D02*
Y583000D01*
X583921D01*
X583851Y583532D01*
X583453Y584493D01*
X582819Y585319D01*
X581993Y585953D01*
X581032Y586351D01*
X580500Y586421D01*
D02*
G37*
G36*
X579500D02*
X578968Y586351D01*
X578007Y585953D01*
X577181Y585319D01*
X576547Y584493D01*
X576149Y583532D01*
X576079Y583000D01*
X579500D01*
Y586421D01*
D02*
G37*
G36*
X8000D02*
Y583000D01*
X11421D01*
X11351Y583532D01*
X10953Y584493D01*
X10319Y585319D01*
X9493Y585953D01*
X8532Y586351D01*
X8000Y586421D01*
D02*
G37*
G36*
X7000D02*
X6468Y586351D01*
X5507Y585953D01*
X4681Y585319D01*
X4047Y584493D01*
X3649Y583532D01*
X3579Y583000D01*
X7000D01*
Y586421D01*
D02*
G37*
G36*
X583921Y582000D02*
X580500D01*
Y578579D01*
X581032Y578649D01*
X581993Y579047D01*
X582819Y579681D01*
X583453Y580507D01*
X583851Y581468D01*
X583921Y582000D01*
D02*
G37*
G36*
X579500D02*
X576079D01*
X576149Y581468D01*
X576547Y580507D01*
X577181Y579681D01*
X578007Y579047D01*
X578968Y578649D01*
X579500Y578579D01*
Y582000D01*
D02*
G37*
G36*
X11421D02*
X8000D01*
Y578579D01*
X8532Y578649D01*
X9493Y579047D01*
X10319Y579681D01*
X10953Y580507D01*
X11351Y581468D01*
X11421Y582000D01*
D02*
G37*
G36*
X7000D02*
X3579D01*
X3649Y581468D01*
X4047Y580507D01*
X4681Y579681D01*
X5507Y579047D01*
X6468Y578649D01*
X7000Y578579D01*
Y582000D01*
D02*
G37*
G36*
X183346Y514347D02*
X179500D01*
Y510500D01*
X183346D01*
Y514347D01*
D02*
G37*
G36*
X178500D02*
X174653D01*
Y510500D01*
X178500D01*
Y514347D01*
D02*
G37*
G36*
X183346Y509500D02*
X179500D01*
Y505653D01*
X183346D01*
Y509500D01*
D02*
G37*
G36*
X178500D02*
X174653D01*
Y505653D01*
X178500D01*
Y509500D01*
D02*
G37*
G36*
X204000Y522866D02*
X202942Y522726D01*
X201957Y522318D01*
X201111Y521669D01*
X200461Y520823D01*
X200053Y519837D01*
X199914Y518780D01*
X200053Y517722D01*
X200461Y516737D01*
X201111Y515890D01*
X201957Y515241D01*
X201961Y515239D01*
Y508345D01*
X195655Y502039D01*
X182860D01*
X182797Y502192D01*
X182100Y503100D01*
X181192Y503797D01*
X180135Y504235D01*
X179000Y504384D01*
X177865Y504235D01*
X176808Y503797D01*
X175900Y503100D01*
X175203Y502192D01*
X175140Y502039D01*
X152500D01*
X151720Y501884D01*
X151058Y501442D01*
X141338Y491721D01*
X140896Y491060D01*
X140740Y490279D01*
Y485665D01*
X138728D01*
Y477563D01*
X140740D01*
Y405665D01*
X138492D01*
Y397563D01*
X145526D01*
X145717Y397101D01*
X140655Y392039D01*
X55845D01*
X44828Y403056D01*
X44166Y403498D01*
X43386Y403653D01*
X39056D01*
X39055Y403657D01*
X38405Y404503D01*
X37559Y405153D01*
X36573Y405561D01*
X35516Y405700D01*
X34458Y405561D01*
X33473Y405153D01*
X32626Y404503D01*
X31977Y403657D01*
X31569Y402672D01*
X31430Y401614D01*
X31569Y400557D01*
X31977Y399571D01*
X32626Y398725D01*
X33473Y398076D01*
X33477Y398074D01*
Y347484D01*
X33632Y346704D01*
X34074Y346042D01*
X44058Y336058D01*
X44720Y335616D01*
X45500Y335461D01*
X45500Y335461D01*
X214996D01*
Y333449D01*
X223098D01*
Y341551D01*
X214996D01*
Y339539D01*
X46345D01*
X37555Y348329D01*
Y398074D01*
X37559Y398076D01*
X38405Y398725D01*
X39055Y399571D01*
X39056Y399575D01*
X42541D01*
X53558Y388558D01*
X54220Y388116D01*
X55000Y387961D01*
X141500D01*
X142280Y388116D01*
X142942Y388558D01*
X152942Y398558D01*
X152942Y398558D01*
X153384Y399220D01*
X153539Y400000D01*
X153539Y400000D01*
Y441655D01*
X162345Y450461D01*
X174653D01*
Y448153D01*
X183346D01*
Y453963D01*
X188624Y459240D01*
X200460D01*
X200461Y459236D01*
X201111Y458390D01*
X201957Y457741D01*
X202942Y457333D01*
X204000Y457193D01*
X205058Y457333D01*
X206043Y457741D01*
X206889Y458390D01*
X207539Y459236D01*
X207947Y460222D01*
X208086Y461279D01*
X207947Y462337D01*
X207539Y463323D01*
X206889Y464169D01*
X206043Y464818D01*
X205058Y465226D01*
X204000Y465366D01*
X202942Y465226D01*
X201957Y464818D01*
X201111Y464169D01*
X200461Y463323D01*
X200460Y463319D01*
X187779D01*
X186999Y463164D01*
X186338Y462721D01*
X180463Y456847D01*
X174653D01*
Y454539D01*
X161500D01*
X161500Y454539D01*
X160720Y454384D01*
X160058Y453942D01*
X160058Y453942D01*
X150058Y443942D01*
X149616Y443280D01*
X149461Y442500D01*
Y400845D01*
X147056Y398440D01*
X146595Y398632D01*
Y405665D01*
X144819D01*
Y477563D01*
X146831D01*
Y485665D01*
X144819D01*
Y489435D01*
X153345Y497961D01*
X175140D01*
X175203Y497808D01*
X175900Y496900D01*
X176808Y496203D01*
X177865Y495765D01*
X179000Y495616D01*
X180135Y495765D01*
X181192Y496203D01*
X182100Y496900D01*
X182797Y497808D01*
X182860Y497961D01*
X196500D01*
X197280Y498116D01*
X197942Y498558D01*
X205442Y506058D01*
X205884Y506720D01*
X206039Y507500D01*
Y515239D01*
X206043Y515241D01*
X206889Y515890D01*
X207539Y516737D01*
X207947Y517722D01*
X208086Y518780D01*
X207947Y519837D01*
X207539Y520823D01*
X206889Y521669D01*
X206043Y522318D01*
X205058Y522726D01*
X204000Y522866D01*
D02*
G37*
G36*
X113752Y485635D02*
Y482114D01*
X117272D01*
X117199Y482672D01*
X116791Y483657D01*
X116141Y484504D01*
X115295Y485153D01*
X114310Y485561D01*
X113752Y485635D01*
D02*
G37*
G36*
X64780Y485665D02*
X61228D01*
Y482114D01*
X64780D01*
Y485665D01*
D02*
G37*
G36*
Y481114D02*
X61228D01*
Y477563D01*
X64780D01*
Y481114D01*
D02*
G37*
G36*
X35752Y485700D02*
X34694Y485561D01*
X33709Y485153D01*
X32863Y484504D01*
X32213Y483657D01*
X31805Y482672D01*
X31666Y481614D01*
X31805Y480557D01*
X31807Y480553D01*
X26357Y475103D01*
X25915Y474442D01*
X25760Y473661D01*
Y199027D01*
X25309Y198840D01*
X24278Y198049D01*
X23487Y197017D01*
X22989Y195816D01*
X22820Y194528D01*
X22989Y193239D01*
X23487Y192038D01*
X24278Y191006D01*
X25309Y190215D01*
X26510Y189718D01*
X27799Y189548D01*
X29088Y189718D01*
X30289Y190215D01*
X31320Y191006D01*
X32112Y192038D01*
X32609Y193239D01*
X32779Y194528D01*
X32609Y195816D01*
X32112Y197017D01*
X31320Y198049D01*
X30289Y198840D01*
X29838Y199027D01*
Y472817D01*
X34690Y477669D01*
X34694Y477667D01*
X35752Y477528D01*
X36810Y477667D01*
X37795Y478076D01*
X38641Y478725D01*
X39291Y479571D01*
X39699Y480557D01*
X39838Y481614D01*
X39699Y482672D01*
X39291Y483657D01*
X38641Y484504D01*
X37795Y485153D01*
X36810Y485561D01*
X35752Y485700D01*
D02*
G37*
G36*
X179000Y494384D02*
X177865Y494235D01*
X176808Y493797D01*
X175900Y493100D01*
X175203Y492192D01*
X174765Y491135D01*
X174616Y490000D01*
X174765Y488865D01*
X175203Y487808D01*
X175900Y486900D01*
X176808Y486203D01*
X177865Y485765D01*
X179000Y485616D01*
X180135Y485765D01*
X180338Y485850D01*
X186374Y479815D01*
X187019Y479384D01*
X187780Y479232D01*
X200439D01*
X200461Y479177D01*
X201111Y478331D01*
X201957Y477682D01*
X202942Y477274D01*
X204000Y477134D01*
X205058Y477274D01*
X206043Y477682D01*
X206889Y478331D01*
X207539Y479177D01*
X207947Y480163D01*
X208086Y481220D01*
X207947Y482278D01*
X207539Y483263D01*
X206889Y484110D01*
X206043Y484759D01*
X205058Y485167D01*
X204000Y485307D01*
X202942Y485167D01*
X201957Y484759D01*
X201111Y484110D01*
X200461Y483263D01*
X200439Y483209D01*
X188603D01*
X183150Y488662D01*
X183235Y488865D01*
X183384Y490000D01*
X183235Y491135D01*
X182797Y492192D01*
X182100Y493100D01*
X181192Y493797D01*
X180135Y494235D01*
X179000Y494384D01*
D02*
G37*
G36*
X219000Y465366D02*
X217942Y465226D01*
X216957Y464818D01*
X216111Y464169D01*
X215461Y463323D01*
X215053Y462337D01*
X214914Y461279D01*
X215053Y460222D01*
X215461Y459236D01*
X216111Y458390D01*
X216957Y457741D01*
X217942Y457333D01*
X219000Y457193D01*
X220058Y457333D01*
X221043Y457741D01*
X221889Y458390D01*
X222539Y459236D01*
X222947Y460222D01*
X223086Y461279D01*
X222947Y462337D01*
X222539Y463323D01*
X221889Y464169D01*
X221043Y464818D01*
X220058Y465226D01*
X219000Y465366D01*
D02*
G37*
G36*
X179500Y446818D02*
Y443000D01*
X183318D01*
X183235Y443635D01*
X182797Y444692D01*
X182100Y445600D01*
X181192Y446297D01*
X180135Y446735D01*
X179500Y446818D01*
D02*
G37*
G36*
X178500D02*
X177865Y446735D01*
X176808Y446297D01*
X175900Y445600D01*
X175203Y444692D01*
X174765Y443635D01*
X174682Y443000D01*
X178500D01*
Y446818D01*
D02*
G37*
G36*
X183318Y442000D02*
X179500D01*
Y438182D01*
X180135Y438265D01*
X181192Y438703D01*
X182100Y439400D01*
X182797Y440308D01*
X183235Y441365D01*
X183318Y442000D01*
D02*
G37*
G36*
X178500D02*
X174682D01*
X174765Y441365D01*
X175203Y440308D01*
X175900Y439400D01*
X176808Y438703D01*
X177865Y438265D01*
X178500Y438182D01*
Y442000D01*
D02*
G37*
G36*
X219500Y427741D02*
Y424221D01*
X223020D01*
X222947Y424778D01*
X222539Y425764D01*
X221889Y426610D01*
X221043Y427259D01*
X220058Y427667D01*
X219500Y427741D01*
D02*
G37*
G36*
X218500Y427741D02*
X217942Y427667D01*
X216957Y427259D01*
X216111Y426610D01*
X215461Y425764D01*
X215053Y424778D01*
X214980Y424221D01*
X218500D01*
Y427741D01*
D02*
G37*
G36*
X223020Y423220D02*
X219500D01*
Y419700D01*
X220058Y419774D01*
X221043Y420182D01*
X221889Y420831D01*
X222539Y421677D01*
X222947Y422663D01*
X223020Y423220D01*
D02*
G37*
G36*
X218500D02*
X214980D01*
X215053Y422663D01*
X215461Y421677D01*
X216111Y420831D01*
X216957Y420182D01*
X217942Y419774D01*
X218500Y419700D01*
Y423220D01*
D02*
G37*
G36*
X219500Y412800D02*
Y409279D01*
X223020D01*
X222947Y409837D01*
X222539Y410823D01*
X221889Y411669D01*
X221043Y412318D01*
X220058Y412726D01*
X219500Y412800D01*
D02*
G37*
G36*
X218500Y412800D02*
X217942Y412726D01*
X216957Y412318D01*
X216111Y411669D01*
X215461Y410823D01*
X215053Y409837D01*
X214980Y409279D01*
X218500D01*
Y412800D01*
D02*
G37*
G36*
Y408280D02*
X214980D01*
X215053Y407722D01*
X215461Y406737D01*
X216111Y405890D01*
X216957Y405241D01*
X217942Y404833D01*
X218500Y404759D01*
Y408280D01*
D02*
G37*
G36*
X223020D02*
X219500D01*
Y404759D01*
X220058Y404833D01*
X221043Y405241D01*
X221889Y405890D01*
X222539Y406737D01*
X222947Y407722D01*
X223020Y408280D01*
D02*
G37*
G36*
X69331Y485665D02*
X65780D01*
Y481614D01*
Y477563D01*
X69331D01*
Y479575D01*
X109712D01*
X109713Y479571D01*
X110363Y478725D01*
X111209Y478076D01*
X111213Y478074D01*
Y405252D01*
X110973Y405153D01*
X110126Y404503D01*
X109477Y403657D01*
X109475Y403653D01*
X69095D01*
Y405665D01*
X65543D01*
Y401614D01*
Y397563D01*
X69095D01*
Y399575D01*
X109475D01*
X109477Y399571D01*
X110126Y398725D01*
X110973Y398076D01*
X111958Y397667D01*
X112516Y397594D01*
Y401614D01*
X113016D01*
Y402114D01*
X117036D01*
X116963Y402672D01*
X116554Y403657D01*
X115905Y404503D01*
X115291Y404975D01*
Y478074D01*
X115295Y478076D01*
X116141Y478725D01*
X116791Y479571D01*
X117199Y480557D01*
X117272Y481114D01*
X113252D01*
Y481614D01*
X112752D01*
Y485635D01*
X112194Y485561D01*
X111209Y485153D01*
X110363Y484504D01*
X109713Y483657D01*
X109712Y483653D01*
X69331D01*
Y485665D01*
D02*
G37*
G36*
X64543Y405665D02*
X60992D01*
Y402114D01*
X64543D01*
Y405665D01*
D02*
G37*
G36*
X117036Y401114D02*
X113516D01*
Y397594D01*
X114073Y397667D01*
X115059Y398076D01*
X115905Y398725D01*
X116554Y399571D01*
X116963Y400557D01*
X117036Y401114D01*
D02*
G37*
G36*
X64543D02*
X60992D01*
Y397563D01*
X64543D01*
Y401114D01*
D02*
G37*
G36*
X179500Y389318D02*
Y385500D01*
X183318D01*
X183235Y386135D01*
X182797Y387192D01*
X182100Y388100D01*
X181192Y388797D01*
X180135Y389235D01*
X179500Y389318D01*
D02*
G37*
G36*
X178500D02*
X177865Y389235D01*
X176808Y388797D01*
X175900Y388100D01*
X175203Y387192D01*
X174765Y386135D01*
X174682Y385500D01*
X178500D01*
Y389318D01*
D02*
G37*
G36*
X183318Y384500D02*
X179500D01*
Y380682D01*
X180135Y380765D01*
X181192Y381203D01*
X182100Y381900D01*
X182797Y382808D01*
X183235Y383865D01*
X183318Y384500D01*
D02*
G37*
G36*
X178500D02*
X174682D01*
X174765Y383865D01*
X175203Y382808D01*
X175900Y381900D01*
X176808Y381203D01*
X177865Y380765D01*
X178500Y380682D01*
Y384500D01*
D02*
G37*
G36*
X179000Y436884D02*
X177865Y436735D01*
X176808Y436297D01*
X175900Y435600D01*
X175203Y434692D01*
X174765Y433635D01*
X174616Y432500D01*
X174765Y431365D01*
X175203Y430308D01*
X175900Y429400D01*
X176808Y428703D01*
X177012Y428619D01*
Y399346D01*
X174653D01*
Y390653D01*
X183346D01*
Y399346D01*
X180988D01*
Y428619D01*
X181192Y428703D01*
X182100Y429400D01*
X182797Y430308D01*
X182881Y430512D01*
X195677D01*
X200451Y425738D01*
X200053Y424778D01*
X199914Y423721D01*
X200053Y422663D01*
X200461Y421677D01*
X201111Y420831D01*
X201957Y420182D01*
X202012Y420159D01*
Y386000D01*
X202163Y385239D01*
X202594Y384594D01*
X215037Y372152D01*
X214914Y371220D01*
X215053Y370163D01*
X215461Y369177D01*
X216111Y368331D01*
X216957Y367682D01*
X217942Y367274D01*
X219000Y367134D01*
X220058Y367274D01*
X220112Y367296D01*
X256315Y331094D01*
X256960Y330663D01*
X257720Y330512D01*
X328724D01*
X332878Y326358D01*
X332863Y326323D01*
X332725Y325276D01*
X332863Y324228D01*
X333267Y323252D01*
X333910Y322414D01*
X334748Y321771D01*
X335724Y321367D01*
X336772Y321229D01*
X337819Y321367D01*
X338795Y321771D01*
X339633Y322414D01*
X340276Y323252D01*
X340680Y324228D01*
X340818Y325276D01*
X340680Y326323D01*
X340666Y326358D01*
X345883Y331575D01*
X426086D01*
X431303Y326358D01*
X431288Y326323D01*
X431150Y325276D01*
X431288Y324228D01*
X431693Y323252D01*
X432336Y322414D01*
X433174Y321771D01*
X434150Y321367D01*
X435197Y321229D01*
X436244Y321367D01*
X437220Y321771D01*
X438058Y322414D01*
X438701Y323252D01*
X439105Y324228D01*
X439243Y325276D01*
X439105Y326323D01*
X439091Y326358D01*
X444308Y331575D01*
X524511D01*
X529728Y326358D01*
X529713Y326323D01*
X529576Y325276D01*
X529713Y324228D01*
X530118Y323252D01*
X530761Y322414D01*
X531599Y321771D01*
X532575Y321367D01*
X533622Y321229D01*
X534669Y321367D01*
X535645Y321771D01*
X536483Y322414D01*
X537126Y323252D01*
X537531Y324228D01*
X537669Y325276D01*
X537531Y326323D01*
X537126Y327299D01*
X536483Y328137D01*
X535645Y328780D01*
X534669Y329184D01*
X533622Y329322D01*
X532575Y329184D01*
X532540Y329170D01*
X526741Y334969D01*
X526095Y335400D01*
X525335Y335551D01*
X443484D01*
X442723Y335400D01*
X442078Y334969D01*
X436279Y329170D01*
X436244Y329184D01*
X435197Y329322D01*
X434150Y329184D01*
X434115Y329170D01*
X428315Y334969D01*
X427670Y335400D01*
X426909Y335551D01*
X345059D01*
X344298Y335400D01*
X343653Y334969D01*
X337854Y329170D01*
X337819Y329184D01*
X336772Y329322D01*
X335724Y329184D01*
X335689Y329170D01*
X330953Y333906D01*
X330308Y334337D01*
X329547Y334488D01*
X258544D01*
X222924Y370108D01*
X222947Y370163D01*
X223086Y371220D01*
X222947Y372278D01*
X222539Y373264D01*
X221889Y374110D01*
X221043Y374759D01*
X220058Y375167D01*
X219000Y375307D01*
X217942Y375167D01*
X217732Y375080D01*
X205988Y386824D01*
Y420159D01*
X206043Y420182D01*
X206889Y420831D01*
X207539Y421677D01*
X207947Y422663D01*
X208086Y423721D01*
X207947Y424778D01*
X207539Y425764D01*
X206889Y426610D01*
X206043Y427259D01*
X205058Y427667D01*
X204006Y427806D01*
X197906Y433906D01*
X197261Y434337D01*
X196500Y434488D01*
X182881D01*
X182797Y434692D01*
X182100Y435600D01*
X181192Y436297D01*
X180135Y436735D01*
X179000Y436884D01*
D02*
G37*
G36*
X523622Y329322D02*
X522575Y329184D01*
X521599Y328780D01*
X520761Y328137D01*
X520118Y327299D01*
X519713Y326323D01*
X519576Y325276D01*
X519713Y324228D01*
X520118Y323252D01*
X520761Y322414D01*
X521599Y321771D01*
X522575Y321367D01*
X523622Y321229D01*
X524669Y321367D01*
X525645Y321771D01*
X526483Y322414D01*
X527126Y323252D01*
X527531Y324228D01*
X527669Y325276D01*
X527531Y326323D01*
X527126Y327299D01*
X526483Y328137D01*
X525645Y328780D01*
X524669Y329184D01*
X523622Y329322D01*
D02*
G37*
G36*
X425197D02*
X424150Y329184D01*
X423174Y328780D01*
X422336Y328137D01*
X421693Y327299D01*
X421288Y326323D01*
X421150Y325276D01*
X421288Y324228D01*
X421693Y323252D01*
X422336Y322414D01*
X423174Y321771D01*
X424150Y321367D01*
X425197Y321229D01*
X426244Y321367D01*
X427220Y321771D01*
X428058Y322414D01*
X428701Y323252D01*
X429105Y324228D01*
X429243Y325276D01*
X429105Y326323D01*
X428701Y327299D01*
X428058Y328137D01*
X427220Y328780D01*
X426244Y329184D01*
X425197Y329322D01*
D02*
G37*
G36*
X179000Y379384D02*
X177865Y379235D01*
X176808Y378797D01*
X175900Y378100D01*
X175203Y377192D01*
X174765Y376135D01*
X174616Y375000D01*
X174765Y373865D01*
X175203Y372808D01*
X175900Y371900D01*
X176808Y371203D01*
X177865Y370765D01*
X179000Y370616D01*
X180135Y370765D01*
X181192Y371203D01*
X182100Y371900D01*
X182797Y372808D01*
X182860Y372961D01*
X204155D01*
X253282Y323834D01*
X253282Y323834D01*
X253944Y323392D01*
X254724Y323236D01*
X254725Y323236D01*
X323280D01*
X323910Y322414D01*
X324748Y321771D01*
X325724Y321367D01*
X326772Y321229D01*
X327819Y321367D01*
X328795Y321771D01*
X329633Y322414D01*
X330276Y323252D01*
X330680Y324228D01*
X330818Y325276D01*
X330680Y326323D01*
X330276Y327299D01*
X329633Y328137D01*
X328795Y328780D01*
X327819Y329184D01*
X326772Y329322D01*
X325724Y329184D01*
X324748Y328780D01*
X323910Y328137D01*
X323280Y327315D01*
X255569D01*
X206442Y376442D01*
X205780Y376884D01*
X205000Y377039D01*
X182860D01*
X182797Y377192D01*
X182100Y378100D01*
X181192Y378797D01*
X180135Y379235D01*
X179000Y379384D01*
D02*
G37*
G36*
X523622Y319322D02*
X522575Y319184D01*
X521599Y318780D01*
X520761Y318137D01*
X520118Y317299D01*
X519713Y316323D01*
X519576Y315276D01*
X519713Y314228D01*
X519876Y313836D01*
X517961Y311922D01*
X438194D01*
X438089Y312233D01*
X438064Y312422D01*
X438701Y313252D01*
X439105Y314228D01*
X439243Y315276D01*
X439105Y316323D01*
X438701Y317299D01*
X438058Y318137D01*
X437220Y318780D01*
X436244Y319184D01*
X435197Y319322D01*
X434150Y319184D01*
X433174Y318780D01*
X432336Y318137D01*
X431693Y317299D01*
X431288Y316323D01*
X431150Y315276D01*
X431288Y314228D01*
X431693Y313252D01*
X432330Y312422D01*
X432305Y312233D01*
X432199Y311922D01*
X431074D01*
X429006Y313990D01*
X429105Y314228D01*
X429243Y315276D01*
X429105Y316323D01*
X428701Y317299D01*
X428058Y318137D01*
X427220Y318780D01*
X426244Y319184D01*
X425197Y319322D01*
X424150Y319184D01*
X423174Y318780D01*
X422336Y318137D01*
X421693Y317299D01*
X421288Y316323D01*
X421150Y315276D01*
X421288Y314228D01*
X421451Y313836D01*
X419382Y311768D01*
X339612D01*
X339442Y312268D01*
X339633Y312414D01*
X340276Y313252D01*
X340680Y314228D01*
X340818Y315276D01*
X340680Y316323D01*
X340276Y317299D01*
X339633Y318137D01*
X338795Y318780D01*
X337819Y319184D01*
X336772Y319322D01*
X335724Y319184D01*
X334748Y318780D01*
X333910Y318137D01*
X333267Y317299D01*
X332863Y316323D01*
X332725Y315276D01*
X332863Y314228D01*
X333267Y313252D01*
X333910Y312414D01*
X334101Y312268D01*
X333932Y311768D01*
X332587D01*
X330518Y313836D01*
X330680Y314228D01*
X330818Y315276D01*
X330680Y316323D01*
X330276Y317299D01*
X329633Y318137D01*
X328795Y318780D01*
X327819Y319184D01*
X326772Y319322D01*
X325724Y319184D01*
X324748Y318780D01*
X323910Y318137D01*
X323267Y317299D01*
X322863Y316323D01*
X322725Y315276D01*
X322863Y314228D01*
X323267Y313252D01*
X323910Y312414D01*
X324748Y311771D01*
X325724Y311367D01*
X326772Y311229D01*
X327819Y311367D01*
X328211Y311529D01*
X330757Y308983D01*
X331287Y308629D01*
X331911Y308505D01*
X333624D01*
X333809Y308005D01*
X333267Y307299D01*
X332863Y306323D01*
X332791Y305776D01*
X336772D01*
X340752D01*
X340680Y306323D01*
X340276Y307299D01*
X339734Y308005D01*
X339919Y308505D01*
X420058D01*
X420682Y308629D01*
X421211Y308983D01*
X423758Y311529D01*
X424150Y311367D01*
X425197Y311229D01*
X426244Y311367D01*
X426789Y311593D01*
X429245Y309137D01*
X429774Y308783D01*
X430398Y308659D01*
X432239D01*
X432399Y308186D01*
X432336Y308137D01*
X431693Y307299D01*
X431288Y306323D01*
X431216Y305776D01*
X435197D01*
X439178D01*
X439105Y306323D01*
X438701Y307299D01*
X438058Y308137D01*
X437994Y308186D01*
X438155Y308659D01*
X518637D01*
X519261Y308783D01*
X519791Y309137D01*
X522183Y311529D01*
X522575Y311367D01*
X523622Y311229D01*
X524669Y311367D01*
X525645Y311771D01*
X526483Y312414D01*
X527126Y313252D01*
X527531Y314228D01*
X527669Y315276D01*
X527531Y316323D01*
X527126Y317299D01*
X526483Y318137D01*
X525645Y318780D01*
X524669Y319184D01*
X523622Y319322D01*
D02*
G37*
G36*
X533622D02*
X532575Y319184D01*
X531599Y318780D01*
X530761Y318137D01*
X530118Y317299D01*
X529713Y316323D01*
X529576Y315276D01*
X529713Y314228D01*
X530118Y313252D01*
X530761Y312414D01*
X531599Y311771D01*
X532575Y311367D01*
X533622Y311229D01*
X534669Y311367D01*
X535645Y311771D01*
X536483Y312414D01*
X537126Y313252D01*
X537531Y314228D01*
X537669Y315276D01*
X537531Y316323D01*
X537126Y317299D01*
X536483Y318137D01*
X535645Y318780D01*
X534669Y319184D01*
X533622Y319322D01*
D02*
G37*
G36*
X534122Y309256D02*
Y305776D01*
X537603D01*
X537531Y306323D01*
X537126Y307299D01*
X536483Y308137D01*
X535645Y308780D01*
X534669Y309184D01*
X534122Y309256D01*
D02*
G37*
G36*
X533122D02*
X532575Y309184D01*
X531599Y308780D01*
X530761Y308137D01*
X530118Y307299D01*
X529713Y306323D01*
X529641Y305776D01*
X533122D01*
Y309256D01*
D02*
G37*
G36*
X523622Y309322D02*
X522575Y309184D01*
X521599Y308780D01*
X520761Y308137D01*
X520118Y307299D01*
X519713Y306323D01*
X519576Y305276D01*
X519713Y304228D01*
X519876Y303836D01*
X517643Y301604D01*
X437823D01*
X437653Y302104D01*
X438058Y302414D01*
X438701Y303252D01*
X439105Y304228D01*
X439178Y304776D01*
X435197D01*
X431216D01*
X431288Y304228D01*
X431693Y303252D01*
X432336Y302414D01*
X432740Y302104D01*
X432571Y301604D01*
X431176D01*
X428943Y303836D01*
X429105Y304228D01*
X429243Y305276D01*
X429105Y306323D01*
X428701Y307299D01*
X428058Y308137D01*
X427220Y308780D01*
X426244Y309184D01*
X425197Y309322D01*
X424150Y309184D01*
X423174Y308780D01*
X422336Y308137D01*
X421693Y307299D01*
X421288Y306323D01*
X421150Y305276D01*
X421288Y304228D01*
X421451Y303836D01*
X419322Y301708D01*
X339533D01*
X339364Y302208D01*
X339633Y302414D01*
X340276Y303252D01*
X340680Y304228D01*
X340752Y304776D01*
X336772D01*
X332791D01*
X332863Y304228D01*
X333267Y303252D01*
X333910Y302414D01*
X334180Y302208D01*
X334010Y301708D01*
X332647D01*
X330518Y303836D01*
X330680Y304228D01*
X330818Y305276D01*
X330680Y306323D01*
X330276Y307299D01*
X329633Y308137D01*
X328795Y308780D01*
X327819Y309184D01*
X326772Y309322D01*
X325724Y309184D01*
X324748Y308780D01*
X323910Y308137D01*
X323267Y307299D01*
X322863Y306323D01*
X322725Y305276D01*
X322863Y304228D01*
X323267Y303252D01*
X323910Y302414D01*
X324748Y301771D01*
X325724Y301367D01*
X326772Y301229D01*
X327819Y301367D01*
X328211Y301529D01*
X330817Y298923D01*
X331347Y298569D01*
X331971Y298445D01*
X333520D01*
X333763Y297945D01*
X333267Y297299D01*
X332863Y296323D01*
X332725Y295276D01*
X332863Y294228D01*
X333267Y293252D01*
X333910Y292414D01*
X334748Y291771D01*
X335724Y291367D01*
X336772Y291229D01*
X337819Y291367D01*
X338211Y291529D01*
X340696Y289044D01*
X341225Y288691D01*
X341849Y288566D01*
X422156D01*
X422282Y288066D01*
X421693Y287299D01*
X421288Y286323D01*
X421150Y285276D01*
X421288Y284228D01*
X421451Y283836D01*
X419479Y281865D01*
X339694D01*
X339534Y282338D01*
X339633Y282414D01*
X340276Y283252D01*
X340680Y284228D01*
X340752Y284776D01*
X336772D01*
X332791D01*
X332863Y284228D01*
X333267Y283252D01*
X333910Y282414D01*
X334010Y282338D01*
X333849Y281865D01*
X332489D01*
X330518Y283836D01*
X330680Y284228D01*
X330818Y285276D01*
X330680Y286323D01*
X330276Y287299D01*
X329633Y288137D01*
X328795Y288780D01*
X327819Y289184D01*
X326772Y289322D01*
X325724Y289184D01*
X324748Y288780D01*
X323910Y288137D01*
X323267Y287299D01*
X322863Y286323D01*
X322725Y285276D01*
X322863Y284228D01*
X323267Y283252D01*
X323910Y282414D01*
X324748Y281771D01*
X325724Y281367D01*
X326772Y281229D01*
X327819Y281367D01*
X328211Y281529D01*
X330660Y279080D01*
X331189Y278726D01*
X331814Y278602D01*
X333752D01*
X333839Y278348D01*
X333884Y278102D01*
X333267Y277299D01*
X332863Y276323D01*
X332791Y275776D01*
X336772D01*
X340752D01*
X340680Y276323D01*
X340276Y277299D01*
X339660Y278102D01*
X339704Y278348D01*
X339791Y278602D01*
X420155D01*
X420779Y278726D01*
X421308Y279080D01*
X423758Y281529D01*
X424150Y281367D01*
X425197Y281229D01*
X426244Y281367D01*
X426636Y281529D01*
X429256Y278909D01*
X429785Y278556D01*
X430409Y278432D01*
X431931D01*
X432178Y277932D01*
X431693Y277299D01*
X431288Y276323D01*
X431216Y275776D01*
X435197D01*
Y274776D01*
X431216D01*
X431288Y274228D01*
X431510Y273693D01*
X431086Y273410D01*
X429241Y275255D01*
X429243Y275276D01*
X429105Y276323D01*
X428701Y277299D01*
X428058Y278137D01*
X427220Y278780D01*
X426244Y279184D01*
X425197Y279322D01*
X424150Y279184D01*
X423174Y278780D01*
X422336Y278137D01*
X421693Y277299D01*
X421442Y276694D01*
X344126D01*
X343502Y276570D01*
X342972Y276217D01*
X341215Y274459D01*
X340741Y274693D01*
X340752Y274776D01*
X336772D01*
X332791D01*
X332846Y274357D01*
X332463Y274113D01*
X332401Y274095D01*
X330757Y275739D01*
X330680Y276323D01*
X330276Y277299D01*
X329633Y278137D01*
X328795Y278780D01*
X327819Y279184D01*
X326772Y279322D01*
X325724Y279184D01*
X324748Y278780D01*
X323910Y278137D01*
X323267Y277299D01*
X322863Y276323D01*
X322725Y275276D01*
X322863Y274228D01*
X323267Y273252D01*
X323910Y272414D01*
X324748Y271771D01*
X325724Y271367D01*
X326772Y271229D01*
X327819Y271367D01*
X328795Y271771D01*
X329539Y272342D01*
X332760Y269122D01*
Y262248D01*
X332298Y262056D01*
X330518Y263836D01*
X330680Y264228D01*
X330818Y265276D01*
X330680Y266323D01*
X330276Y267299D01*
X329633Y268137D01*
X328795Y268780D01*
X327819Y269184D01*
X326772Y269322D01*
X325724Y269184D01*
X324748Y268780D01*
X323910Y268137D01*
X323267Y267299D01*
X322863Y266323D01*
X322725Y265276D01*
X322863Y264228D01*
X323267Y263252D01*
X323910Y262414D01*
X324748Y261771D01*
X325724Y261367D01*
X326772Y261229D01*
X327819Y261367D01*
X328211Y261529D01*
X332331Y257410D01*
X332860Y257056D01*
X333484Y256932D01*
X418484D01*
X419108Y257056D01*
X419638Y257410D01*
X423758Y261529D01*
X424150Y261367D01*
X425197Y261229D01*
X426244Y261367D01*
X426636Y261529D01*
X430756Y257410D01*
X431285Y257056D01*
X431910Y256932D01*
X516909D01*
X517534Y257056D01*
X518063Y257410D01*
X522183Y261529D01*
X522575Y261367D01*
X523622Y261229D01*
X524669Y261367D01*
X525645Y261771D01*
X526483Y262414D01*
X527126Y263252D01*
X527531Y264228D01*
X527669Y265276D01*
X527531Y266323D01*
X527126Y267299D01*
X526483Y268137D01*
X526099Y268432D01*
X526269Y268932D01*
X527659D01*
X529610Y266980D01*
Y261264D01*
X537634D01*
Y269287D01*
X531917D01*
X529488Y271716D01*
X528959Y272070D01*
X528335Y272194D01*
X526945D01*
X526698Y272694D01*
X527126Y273252D01*
X527531Y274228D01*
X527669Y275276D01*
X527531Y276323D01*
X527126Y277299D01*
X526483Y278137D01*
X525645Y278780D01*
X524669Y279184D01*
X523622Y279322D01*
X522575Y279184D01*
X521599Y278780D01*
X520761Y278137D01*
X520118Y277299D01*
X519955Y276907D01*
X442339D01*
X441714Y276783D01*
X441185Y276429D01*
X439674Y274918D01*
X439225Y275139D01*
X439243Y275276D01*
X439105Y276323D01*
X438701Y277299D01*
X438216Y277932D01*
X438462Y278432D01*
X518409D01*
X519034Y278556D01*
X519563Y278909D01*
X522183Y281529D01*
X522575Y281367D01*
X523622Y281229D01*
X524669Y281367D01*
X525645Y281771D01*
X526483Y282414D01*
X527126Y283252D01*
X527531Y284228D01*
X527669Y285276D01*
X527531Y286323D01*
X527126Y287299D01*
X526483Y288137D01*
X526269Y288301D01*
X526430Y288774D01*
X528752D01*
X529377Y288899D01*
X529906Y289252D01*
X532183Y291529D01*
X532575Y291367D01*
X533622Y291229D01*
X534669Y291367D01*
X535645Y291771D01*
X536483Y292414D01*
X537126Y293252D01*
X537531Y294228D01*
X537669Y295276D01*
X537531Y296323D01*
X537126Y297299D01*
X536483Y298137D01*
X535645Y298780D01*
X534669Y299184D01*
X533622Y299322D01*
X532575Y299184D01*
X531599Y298780D01*
X530761Y298137D01*
X530118Y297299D01*
X529713Y296323D01*
X529576Y295276D01*
X529713Y294228D01*
X529876Y293836D01*
X528077Y292037D01*
X526754D01*
X526578Y292537D01*
X527126Y293252D01*
X527531Y294228D01*
X527669Y295276D01*
X527531Y296323D01*
X527126Y297299D01*
X526483Y298137D01*
X525645Y298780D01*
X524669Y299184D01*
X523622Y299322D01*
X522575Y299184D01*
X521599Y298780D01*
X520761Y298137D01*
X520118Y297299D01*
X519713Y296323D01*
X519576Y295276D01*
X519713Y294228D01*
X520118Y293252D01*
X520667Y292537D01*
X520490Y292037D01*
X440742D01*
X438943Y293836D01*
X439105Y294228D01*
X439243Y295276D01*
X439105Y296323D01*
X438701Y297299D01*
X438285Y297841D01*
X438532Y298341D01*
X518319D01*
X518943Y298465D01*
X519472Y298819D01*
X522183Y301529D01*
X522575Y301367D01*
X523622Y301229D01*
X524669Y301367D01*
X525645Y301771D01*
X526483Y302414D01*
X527126Y303252D01*
X527531Y304228D01*
X527669Y305276D01*
X527531Y306323D01*
X527126Y307299D01*
X526483Y308137D01*
X525645Y308780D01*
X524669Y309184D01*
X523622Y309322D01*
D02*
G37*
G36*
X533122Y304776D02*
X529641D01*
X529713Y304228D01*
X530118Y303252D01*
X530761Y302414D01*
X531599Y301771D01*
X532575Y301367D01*
X533122Y301295D01*
Y304776D01*
D02*
G37*
G36*
X537603D02*
X534122D01*
Y301295D01*
X534669Y301367D01*
X535645Y301771D01*
X536483Y302414D01*
X537126Y303252D01*
X537531Y304228D01*
X537603Y304776D01*
D02*
G37*
G36*
X326772Y299322D02*
X325724Y299184D01*
X324748Y298780D01*
X323910Y298137D01*
X323267Y297299D01*
X322863Y296323D01*
X322725Y295276D01*
X322863Y294228D01*
X323267Y293252D01*
X323910Y292414D01*
X324748Y291771D01*
X325724Y291367D01*
X326772Y291229D01*
X327819Y291367D01*
X328795Y291771D01*
X329633Y292414D01*
X330276Y293252D01*
X330680Y294228D01*
X330818Y295276D01*
X330680Y296323D01*
X330276Y297299D01*
X329633Y298137D01*
X328795Y298780D01*
X327819Y299184D01*
X326772Y299322D01*
D02*
G37*
G36*
X534122Y289256D02*
Y285776D01*
X537603D01*
X537531Y286323D01*
X537126Y287299D01*
X536483Y288137D01*
X535645Y288780D01*
X534669Y289184D01*
X534122Y289256D01*
D02*
G37*
G36*
X533122D02*
X532575Y289184D01*
X531599Y288780D01*
X530761Y288137D01*
X530118Y287299D01*
X529713Y286323D01*
X529641Y285776D01*
X533122D01*
Y289256D01*
D02*
G37*
G36*
X337272Y289256D02*
Y285776D01*
X340752D01*
X340680Y286323D01*
X340276Y287299D01*
X339633Y288137D01*
X338795Y288780D01*
X337819Y289184D01*
X337272Y289256D01*
D02*
G37*
G36*
X336272Y289256D02*
X335724Y289184D01*
X334748Y288780D01*
X333910Y288137D01*
X333267Y287299D01*
X332863Y286323D01*
X332791Y285776D01*
X336272D01*
Y289256D01*
D02*
G37*
G36*
X18953Y341586D02*
X17895Y341447D01*
X16910Y341039D01*
X16063Y340389D01*
X15414Y339543D01*
X15006Y338558D01*
X14867Y337500D01*
X15006Y336442D01*
X15414Y335457D01*
X16063Y334611D01*
X16910Y333961D01*
X16914Y333960D01*
Y291551D01*
X14902D01*
Y283449D01*
X23004D01*
Y291551D01*
X20992D01*
Y333960D01*
X20996Y333961D01*
X21842Y334611D01*
X22491Y335457D01*
X22900Y336442D01*
X23039Y337500D01*
X22900Y338558D01*
X22491Y339543D01*
X21842Y340389D01*
X20996Y341039D01*
X20010Y341447D01*
X18953Y341586D01*
D02*
G37*
G36*
X533122Y284776D02*
X529641D01*
X529713Y284228D01*
X530118Y283252D01*
X530761Y282414D01*
X531599Y281771D01*
X532575Y281367D01*
X533122Y281295D01*
Y284776D01*
D02*
G37*
G36*
X537603D02*
X534122D01*
Y281295D01*
X534669Y281367D01*
X535645Y281771D01*
X536483Y282414D01*
X537126Y283252D01*
X537531Y284228D01*
X537603Y284776D01*
D02*
G37*
G36*
X534122Y279256D02*
Y275776D01*
X537603D01*
X537531Y276323D01*
X537126Y277299D01*
X536483Y278137D01*
X535645Y278780D01*
X534669Y279184D01*
X534122Y279256D01*
D02*
G37*
G36*
X533122D02*
X532575Y279184D01*
X531599Y278780D01*
X530761Y278137D01*
X530118Y277299D01*
X529713Y276323D01*
X529641Y275776D01*
X533122D01*
Y279256D01*
D02*
G37*
G36*
X533622Y275276D02*
D01*
D01*
D01*
D02*
G37*
G36*
X533122Y274776D02*
X529641D01*
X529713Y274228D01*
X530118Y273252D01*
X530761Y272414D01*
X531599Y271771D01*
X532575Y271367D01*
X533122Y271295D01*
Y274776D01*
D02*
G37*
G36*
X537603D02*
X534122D01*
Y271295D01*
X534669Y271367D01*
X535645Y271771D01*
X536483Y272414D01*
X537126Y273252D01*
X537531Y274228D01*
X537603Y274776D01*
D02*
G37*
G36*
X442626Y254527D02*
Y251563D01*
X445590D01*
X445536Y251977D01*
X445183Y252828D01*
X444622Y253559D01*
X443891Y254120D01*
X443040Y254473D01*
X442626Y254527D01*
D02*
G37*
G36*
X441626D02*
X441212Y254473D01*
X440361Y254120D01*
X439630Y253559D01*
X439069Y252828D01*
X438716Y251977D01*
X438662Y251563D01*
X441626D01*
Y254527D01*
D02*
G37*
G36*
X344083Y253740D02*
Y250776D01*
X347047D01*
X346993Y251189D01*
X346640Y252041D01*
X346079Y252772D01*
X345348Y253333D01*
X344496Y253685D01*
X344083Y253740D01*
D02*
G37*
G36*
X343083D02*
X342669Y253685D01*
X341818Y253333D01*
X341086Y252772D01*
X340525Y252041D01*
X340173Y251189D01*
X340118Y250776D01*
X343083D01*
Y253740D01*
D02*
G37*
G36*
X445590Y250563D02*
X442626D01*
Y247599D01*
X443040Y247653D01*
X443891Y248006D01*
X444622Y248567D01*
X445183Y249298D01*
X445536Y250149D01*
X445590Y250563D01*
D02*
G37*
G36*
X441626D02*
X438662D01*
X438716Y250149D01*
X439069Y249298D01*
X439630Y248567D01*
X440361Y248006D01*
X441212Y247653D01*
X441626Y247599D01*
Y250563D01*
D02*
G37*
G36*
X347047Y249776D02*
X344083D01*
Y246811D01*
X344496Y246866D01*
X345348Y247218D01*
X346079Y247779D01*
X346640Y248511D01*
X346993Y249362D01*
X347047Y249776D01*
D02*
G37*
G36*
X343083D02*
X340118D01*
X340173Y249362D01*
X340525Y248511D01*
X341086Y247779D01*
X341818Y247218D01*
X342669Y246866D01*
X343083Y246811D01*
Y249776D01*
D02*
G37*
G36*
X219047Y291586D02*
X217990Y291447D01*
X217004Y291039D01*
X216158Y290389D01*
X215509Y289543D01*
X215100Y288558D01*
X214961Y287500D01*
X215100Y286442D01*
X215509Y285457D01*
X216158Y284611D01*
X217004Y283961D01*
X217008Y283960D01*
Y244051D01*
X214996D01*
Y235949D01*
X223098D01*
Y244051D01*
X221086D01*
Y283960D01*
X221090Y283961D01*
X221937Y284611D01*
X222586Y285457D01*
X222994Y286442D01*
X223133Y287500D01*
X222994Y288558D01*
X222586Y289543D01*
X221937Y290389D01*
X221090Y291039D01*
X220105Y291447D01*
X219047Y291586D01*
D02*
G37*
G36*
X126437Y199465D02*
X116563D01*
Y196567D01*
X107028D01*
X106247Y196412D01*
X105586Y195969D01*
X100058Y190442D01*
X99616Y189780D01*
X99461Y189000D01*
Y132921D01*
X98962Y132538D01*
X98579Y132039D01*
X91845D01*
X77442Y146442D01*
X76780Y146884D01*
X76000Y147039D01*
X64545D01*
X64109Y147608D01*
X63345Y148195D01*
X62455Y148563D01*
X61500Y148689D01*
X60545Y148563D01*
X59655Y148195D01*
X58891Y147608D01*
X58305Y146844D01*
X57937Y145955D01*
X57811Y145000D01*
X57937Y144045D01*
X58305Y143156D01*
X58891Y142392D01*
X59655Y141805D01*
X60545Y141437D01*
X61500Y141311D01*
X62455Y141437D01*
X63345Y141805D01*
X64109Y142392D01*
X64545Y142961D01*
X75155D01*
X89558Y128558D01*
X90220Y128116D01*
X91000Y127961D01*
X98579D01*
X98962Y127462D01*
X99705Y126891D01*
X100571Y126533D01*
X101500Y126410D01*
X102429Y126533D01*
X103295Y126891D01*
X104038Y127462D01*
X104421Y127961D01*
X153579D01*
X153962Y127462D01*
X154705Y126891D01*
X155571Y126533D01*
X156500Y126410D01*
X157429Y126533D01*
X158295Y126891D01*
X158961Y127402D01*
X159461Y127269D01*
Y116160D01*
X157175Y113874D01*
X152941D01*
Y112354D01*
X105059D01*
Y113874D01*
X97941D01*
Y112354D01*
X90315D01*
X89535Y112199D01*
X88873Y111757D01*
X74155Y97039D01*
X25354D01*
Y98854D01*
X17646D01*
Y91146D01*
X25354D01*
Y92961D01*
X75000D01*
X75780Y93116D01*
X76442Y93558D01*
X91160Y108276D01*
X97941D01*
Y106756D01*
X105059D01*
Y108276D01*
X152941D01*
Y106756D01*
X160059D01*
Y110990D01*
X162942Y113873D01*
X163384Y114535D01*
X163539Y115315D01*
Y160500D01*
X163384Y161280D01*
X162942Y161942D01*
X158442Y166442D01*
X157780Y166884D01*
X157000Y167039D01*
X125999D01*
X125812Y167490D01*
X125021Y168521D01*
X123990Y169313D01*
X122789Y169810D01*
X121500Y169980D01*
X120211Y169810D01*
X119010Y169313D01*
X117979Y168521D01*
X117188Y167490D01*
X116690Y166289D01*
X116520Y165000D01*
X116690Y163711D01*
X117188Y162510D01*
X117979Y161479D01*
X119010Y160687D01*
X120211Y160190D01*
X121500Y160020D01*
X122789Y160190D01*
X123990Y160687D01*
X125021Y161479D01*
X125812Y162510D01*
X125999Y162961D01*
X156155D01*
X159461Y159655D01*
Y132730D01*
X158961Y132598D01*
X158295Y133109D01*
X157429Y133467D01*
X156500Y133590D01*
X155571Y133467D01*
X154705Y133109D01*
X153962Y132538D01*
X153579Y132039D01*
X104421D01*
X104038Y132538D01*
X103539Y132921D01*
Y188155D01*
X107872Y192488D01*
X116563D01*
Y189591D01*
X126437D01*
Y199465D01*
D02*
G37*
G36*
X55358Y199507D02*
X54069Y199337D01*
X52868Y198840D01*
X51837Y198049D01*
X51046Y197017D01*
X50548Y195816D01*
X50379Y194528D01*
X50548Y193239D01*
X51046Y192038D01*
X51837Y191006D01*
X52868Y190215D01*
X54069Y189718D01*
X55358Y189548D01*
X56647Y189718D01*
X57848Y190215D01*
X58879Y191006D01*
X59671Y192038D01*
X60168Y193239D01*
X60338Y194528D01*
X60168Y195816D01*
X59671Y197017D01*
X58879Y198049D01*
X57848Y198840D01*
X56647Y199337D01*
X55358Y199507D01*
D02*
G37*
G36*
X22468Y139003D02*
X20531D01*
X19496Y138866D01*
X18530Y138467D01*
X17701Y137830D01*
X17065Y137001D01*
X16665Y136036D01*
X16529Y135000D01*
X16665Y133964D01*
X17065Y132999D01*
X17701Y132170D01*
X18530Y131534D01*
X19496Y131134D01*
X20531Y130997D01*
X22468D01*
X23505Y131134D01*
X24470Y131534D01*
X25299Y132170D01*
X25906Y132961D01*
X38138D01*
Y131638D01*
X44862D01*
Y138362D01*
X38138D01*
Y137039D01*
X25906D01*
X25299Y137830D01*
X24470Y138467D01*
X23505Y138866D01*
X22468Y139003D01*
D02*
G37*
G36*
X25354Y128854D02*
X17646D01*
Y121146D01*
X25354D01*
Y122961D01*
X38827D01*
X39102Y122602D01*
X39804Y122063D01*
X40622Y121724D01*
X41500Y121609D01*
X42378Y121724D01*
X43196Y122063D01*
X43898Y122602D01*
X44437Y123304D01*
X44776Y124122D01*
X44891Y125000D01*
X44776Y125878D01*
X44437Y126696D01*
X43898Y127398D01*
X43196Y127937D01*
X42378Y128276D01*
X41500Y128391D01*
X40622Y128276D01*
X39804Y127937D01*
X39102Y127398D01*
X38827Y127039D01*
X25354D01*
Y128854D01*
D02*
G37*
G36*
X41500Y118391D02*
X40622Y118276D01*
X39804Y117937D01*
X39102Y117398D01*
X38827Y117039D01*
X31500D01*
X31500Y117039D01*
X30720Y116884D01*
X30058Y116442D01*
X30058Y116442D01*
X22601Y108985D01*
X22468Y109003D01*
X20531D01*
X19496Y108866D01*
X18530Y108466D01*
X17701Y107830D01*
X17065Y107001D01*
X16665Y106036D01*
X16529Y105000D01*
X16665Y103964D01*
X17065Y102999D01*
X17701Y102170D01*
X18530Y101533D01*
X19496Y101134D01*
X20531Y100997D01*
X22468D01*
X23505Y101134D01*
X24470Y101533D01*
X25299Y102170D01*
X25935Y102999D01*
X26335Y103964D01*
X26471Y105000D01*
X26335Y106036D01*
X26067Y106683D01*
X32345Y112961D01*
X38827D01*
X39102Y112602D01*
X39804Y112063D01*
X40622Y111724D01*
X41500Y111609D01*
X42378Y111724D01*
X43196Y112063D01*
X43898Y112602D01*
X44437Y113304D01*
X44776Y114122D01*
X44891Y115000D01*
X44776Y115878D01*
X44437Y116696D01*
X43898Y117398D01*
X43196Y117937D01*
X42378Y118276D01*
X41500Y118391D01*
D02*
G37*
G36*
X18953Y244086D02*
X17895Y243947D01*
X16910Y243539D01*
X16063Y242889D01*
X15414Y242043D01*
X15006Y241058D01*
X14867Y240000D01*
X15006Y238942D01*
X15414Y237957D01*
X16063Y237111D01*
X16910Y236461D01*
X16961Y236440D01*
Y187500D01*
X17116Y186720D01*
X17558Y186058D01*
X36932Y166684D01*
X36769Y166289D01*
X36599Y165000D01*
X36769Y163711D01*
X37266Y162510D01*
X38058Y161479D01*
X39089Y160687D01*
X40290Y160190D01*
X41579Y160020D01*
X42868Y160190D01*
X43318Y160377D01*
X49961Y153734D01*
Y139500D01*
X50116Y138720D01*
X50558Y138058D01*
X59461Y129155D01*
Y113224D01*
X57842D01*
Y111606D01*
X46067D01*
X45287Y111451D01*
X44625Y111009D01*
X41948Y108332D01*
X41500Y108391D01*
X40622Y108276D01*
X39804Y107937D01*
X39102Y107398D01*
X38563Y106696D01*
X38224Y105878D01*
X38109Y105000D01*
X38224Y104122D01*
X38563Y103304D01*
X39102Y102602D01*
X39804Y102063D01*
X40622Y101724D01*
X41500Y101609D01*
X42378Y101724D01*
X43196Y102063D01*
X43898Y102602D01*
X44437Y103304D01*
X44776Y104122D01*
X44891Y105000D01*
X44832Y105448D01*
X46912Y107528D01*
X57842D01*
Y105909D01*
X65158D01*
Y113224D01*
X63539D01*
Y130000D01*
X63384Y130780D01*
X62942Y131442D01*
X54039Y140345D01*
Y154579D01*
X53884Y155359D01*
X53442Y156021D01*
X46202Y163261D01*
X46389Y163711D01*
X46558Y165000D01*
X46389Y166289D01*
X45891Y167490D01*
X45100Y168521D01*
X44069Y169313D01*
X42868Y169810D01*
X41579Y169980D01*
X40290Y169810D01*
X39784Y169600D01*
X21039Y188345D01*
Y236495D01*
X21842Y237111D01*
X22491Y237957D01*
X22900Y238942D01*
X23039Y240000D01*
X22900Y241058D01*
X22491Y242043D01*
X21842Y242889D01*
X20996Y243539D01*
X20010Y243947D01*
X18953Y244086D01*
D02*
G37*
G36*
X575500Y18921D02*
Y15500D01*
X578921D01*
X578851Y16032D01*
X578453Y16993D01*
X577819Y17819D01*
X576993Y18453D01*
X576032Y18851D01*
X575500Y18921D01*
D02*
G37*
G36*
X574500D02*
X573968Y18851D01*
X573007Y18453D01*
X572181Y17819D01*
X571547Y16993D01*
X571149Y16032D01*
X571079Y15500D01*
X574500D01*
Y18921D01*
D02*
G37*
G36*
X578921Y14500D02*
X575500D01*
Y11079D01*
X576032Y11149D01*
X576993Y11547D01*
X577819Y12181D01*
X578453Y13007D01*
X578851Y13968D01*
X578921Y14500D01*
D02*
G37*
G36*
X574500D02*
X571079D01*
X571149Y13968D01*
X571547Y13007D01*
X572181Y12181D01*
X573007Y11547D01*
X573968Y11149D01*
X574500Y11079D01*
Y14500D01*
D02*
G37*
%LPD*%
G36*
X429347Y298819D02*
X429876Y298465D01*
X430500Y298341D01*
X431862D01*
X432108Y297841D01*
X431693Y297299D01*
X431288Y296323D01*
X431150Y295276D01*
X431288Y294228D01*
X431451Y293836D01*
X429443Y291829D01*
X428073D01*
X427913Y292303D01*
X428058Y292414D01*
X428701Y293252D01*
X429105Y294228D01*
X429243Y295276D01*
X429105Y296323D01*
X428701Y297299D01*
X428058Y298137D01*
X427220Y298780D01*
X426244Y299184D01*
X425197Y299322D01*
X424150Y299184D01*
X423174Y298780D01*
X422336Y298137D01*
X421693Y297299D01*
X421288Y296323D01*
X421150Y295276D01*
X421288Y294228D01*
X421693Y293252D01*
X422336Y292414D01*
X422481Y292303D01*
X422321Y291829D01*
X342525D01*
X340518Y293836D01*
X340680Y294228D01*
X340818Y295276D01*
X340680Y296323D01*
X340276Y297299D01*
X339780Y297945D01*
X340023Y298445D01*
X419998D01*
X420622Y298569D01*
X421151Y298923D01*
X423758Y301529D01*
X424150Y301367D01*
X425197Y301229D01*
X426244Y301367D01*
X426636Y301529D01*
X429347Y298819D01*
D02*
G37*
G36*
X438913Y289252D02*
X439442Y288899D01*
X440067Y288774D01*
X520814D01*
X520975Y288301D01*
X520761Y288137D01*
X520118Y287299D01*
X519713Y286323D01*
X519576Y285276D01*
X519713Y284228D01*
X519876Y283836D01*
X517734Y281694D01*
X437941D01*
X437771Y282194D01*
X438058Y282414D01*
X438701Y283252D01*
X439105Y284228D01*
X439178Y284776D01*
X435197D01*
Y285276D01*
D01*
Y284776D01*
X431216D01*
X431288Y284228D01*
X431693Y283252D01*
X432336Y282414D01*
X432622Y282194D01*
X432453Y281694D01*
X431085D01*
X428943Y283836D01*
X429105Y284228D01*
X429243Y285276D01*
X429105Y286323D01*
X428701Y287299D01*
X428112Y288066D01*
X428238Y288566D01*
X430119D01*
X430743Y288691D01*
X431273Y289044D01*
X433758Y291529D01*
X434150Y291367D01*
X435197Y291229D01*
X436244Y291367D01*
X436636Y291529D01*
X438913Y289252D01*
D02*
G37*
G36*
X421693Y273252D02*
X422121Y272694D01*
X421874Y272194D01*
X346626D01*
X346002Y272070D01*
X345472Y271716D01*
X341245Y267490D01*
X340784Y267681D01*
Y269287D01*
X340784Y269287D01*
X340784D01*
X341041Y269671D01*
X344802Y273432D01*
X421618D01*
X421693Y273252D01*
D02*
G37*
G36*
X520118Y273252D02*
X520546Y272694D01*
X520299Y272194D01*
X443626D01*
X443002Y272070D01*
X442472Y271716D01*
X439671Y268915D01*
X439571Y268956D01*
X439241Y269257D01*
X439152Y269664D01*
X439137Y269767D01*
X443014Y273644D01*
X519955D01*
X520118Y273252D01*
D02*
G37*
G36*
X521145Y268432D02*
X520761Y268137D01*
X520118Y267299D01*
X519713Y266323D01*
X519576Y265276D01*
X519713Y264228D01*
X519876Y263836D01*
X516234Y260194D01*
X432585D01*
X431978Y260802D01*
X432169Y261264D01*
X439209D01*
Y263933D01*
X439492Y264122D01*
X444302Y268932D01*
X520975D01*
X521145Y268432D01*
D02*
G37*
G36*
X422720D02*
X422336Y268137D01*
X421693Y267299D01*
X421288Y266323D01*
X421150Y265276D01*
X421288Y264228D01*
X421451Y263836D01*
X417808Y260194D01*
X334160D01*
X333553Y260802D01*
X333744Y261264D01*
X340784D01*
Y263644D01*
X341339D01*
X341963Y263768D01*
X342492Y264122D01*
X347302Y268932D01*
X422550D01*
X422720Y268432D01*
D02*
G37*
%LPC*%
G36*
X435697Y289256D02*
Y285776D01*
X439178D01*
X439105Y286323D01*
X438701Y287299D01*
X438058Y288137D01*
X437220Y288780D01*
X436244Y289184D01*
X435697Y289256D01*
D02*
G37*
G36*
X434697Y289256D02*
X434150Y289184D01*
X433174Y288780D01*
X432336Y288137D01*
X431693Y287299D01*
X431288Y286323D01*
X431216Y285776D01*
X434697D01*
Y289256D01*
D02*
G37*
%LPD*%
D16*
X156500Y130000D02*
D03*
X101500D02*
D03*
D17*
X156500Y110315D02*
D03*
X101500D02*
D03*
D18*
X113016Y401614D02*
D03*
X113252Y481614D02*
D03*
X35516Y401614D02*
D03*
X35752Y481614D02*
D03*
X204000Y518780D02*
D03*
Y481220D02*
D03*
X219000Y408779D02*
D03*
Y371220D02*
D03*
Y461279D02*
D03*
Y423721D02*
D03*
X204000D02*
D03*
Y461279D02*
D03*
X18953Y240000D02*
D03*
X219047Y287500D02*
D03*
X18953Y337500D02*
D03*
D19*
X142543Y401614D02*
D03*
X142780Y481614D02*
D03*
X65043Y401614D02*
D03*
X65280Y481614D02*
D03*
X219047Y240000D02*
D03*
X18953Y287500D02*
D03*
X219047Y337500D02*
D03*
D21*
X27799Y194528D02*
D03*
X55358D02*
D03*
X41579Y165000D02*
D03*
X121500D02*
D03*
D22*
Y194528D02*
D03*
D25*
X41500Y105000D02*
D03*
Y115000D02*
D03*
Y125000D02*
D03*
D26*
Y135000D02*
D03*
D36*
X101500Y130000D02*
Y189000D01*
X107028Y194528D02*
X121500D01*
X101500Y189000D02*
X107028Y194528D01*
X142780Y481614D02*
Y490279D01*
X152500Y500000D02*
X179000D01*
X142780Y490279D02*
X152500Y500000D01*
X65043Y401614D02*
X113016D01*
X36320D02*
X43386D01*
X55000Y390000D02*
X141500D01*
X43386Y401614D02*
X55000Y390000D01*
X35516Y401614D02*
X36320D01*
X179000Y500000D02*
X196500D01*
X205000Y375000D02*
X254724Y325276D01*
X326772D01*
X179000Y375000D02*
X205000D01*
X35516Y347484D02*
X45500Y337500D01*
X219047D01*
X35516Y347484D02*
Y401614D01*
X121500Y165000D02*
X157000D01*
X161500Y115315D02*
Y160500D01*
X157000Y165000D02*
X161500Y160500D01*
X41579Y165000D02*
X52000Y154579D01*
Y139500D02*
X61500Y130000D01*
X52000Y139500D02*
Y154579D01*
X21500Y95000D02*
X75000D01*
X90315Y110315D02*
X156500D01*
X75000Y95000D02*
X90315Y110315D01*
X61500Y145000D02*
X76000D01*
X91000Y130000D02*
X101500D01*
X76000Y145000D02*
X91000Y130000D01*
X141500Y390000D02*
X151500Y400000D01*
X35516Y401614D02*
X36320Y402418D01*
X161500Y452500D02*
X179000D01*
X151500Y442500D02*
X161500Y452500D01*
X151500Y400000D02*
Y442500D01*
X142780Y401850D02*
Y481614D01*
X27799Y473661D02*
X35752Y481614D01*
X27799Y194528D02*
Y473661D01*
X101500Y130000D02*
X156500D01*
X187779Y461279D02*
X204000D01*
X181746Y455246D02*
X187779Y461279D01*
X204000Y507500D02*
Y518780D01*
X196500Y500000D02*
X204000Y507500D01*
X113252Y401850D02*
Y481614D01*
X113016Y401614D02*
X113252Y401850D01*
X67779Y481614D02*
X110516D01*
X41500Y165000D02*
X41579D01*
X19000Y187500D02*
X41500Y165000D01*
X19000Y187500D02*
Y239953D01*
X18953Y240000D02*
X19000Y239953D01*
X18953Y287500D02*
Y337500D01*
X219047Y240000D02*
Y287500D01*
X61500Y109567D02*
Y130000D01*
X156500Y110315D02*
X161500Y115315D01*
X46067Y109567D02*
X61500D01*
X41500Y105000D02*
X46067Y109567D01*
X31500Y115000D02*
X41500D01*
X21500Y105000D02*
X31500Y115000D01*
X21500Y125000D02*
X41500D01*
X21500Y135000D02*
X41500D01*
D37*
X219000Y371220D02*
X257720Y332500D01*
X329547D02*
X336772Y325276D01*
X257720Y332500D02*
X329547D01*
X525335Y333563D02*
X533622Y325276D01*
X443484Y333563D02*
X525335D01*
X435197Y325276D02*
X443484Y333563D01*
X426909D02*
X435197Y325276D01*
X345059Y333563D02*
X426909D01*
X336772Y325276D02*
X345059Y333563D01*
X218779Y371220D02*
X219000D01*
X204000Y386000D02*
Y423721D01*
Y386000D02*
X218779Y371220D01*
X203196Y424524D02*
Y425804D01*
X179000Y395000D02*
Y432500D01*
X187780Y481220D02*
X204000D01*
X179000Y490000D02*
X187780Y481220D01*
X179000Y490000D02*
X179000D01*
X179000Y432500D02*
X196500D01*
X203196Y424524D02*
X204000Y423721D01*
X196500Y432500D02*
X203196Y425804D01*
D38*
X110516Y481614D02*
X110919Y481781D01*
X431910Y258563D02*
X516909D01*
X418484D02*
X425197Y265276D01*
X443626Y270563D02*
X528335D01*
X346626D02*
X426626D01*
X333484Y258563D02*
X418484D01*
X516909D02*
X523622Y265276D01*
X425197D02*
X431910Y258563D01*
X528335Y270563D02*
X533622Y265276D01*
X435197D02*
X438339D01*
X443626Y270563D01*
X426626D02*
X431913Y265276D01*
X341339D02*
X346626Y270563D01*
X326772Y265276D02*
X333484Y258563D01*
X431913Y265276D02*
X435197D01*
X336772D02*
X341339D01*
X425197Y275276D02*
X426913D01*
X432126Y270063D02*
X437126D01*
X426913Y275276D02*
X432126Y270063D01*
X518409Y280063D02*
X523622Y285276D01*
X430409Y280063D02*
X518409D01*
X425197Y285276D02*
X430409Y280063D01*
X420155Y280233D02*
X425197Y285276D01*
X326772D02*
X331814Y280233D01*
X420155D01*
X442339Y275276D02*
X523622D01*
X437126Y270063D02*
X442339Y275276D01*
X424984Y275063D02*
X425197Y275276D01*
X344126Y275063D02*
X424984D01*
X339126Y270063D02*
X344126Y275063D01*
X334126Y270063D02*
X339126D01*
X328913Y275276D02*
X334126Y270063D01*
X326772Y275276D02*
X328913D01*
X528752Y290406D02*
X533622Y295276D01*
X440067Y290406D02*
X528752D01*
X435197Y295276D02*
X440067Y290406D01*
X341849Y290198D02*
X430119D01*
X435197Y295276D01*
X336772D02*
X341849Y290198D01*
X518319Y299972D02*
X523622Y305276D01*
X430500Y299972D02*
X518319D01*
X425197Y305276D02*
X430500Y299972D01*
X419998Y300076D02*
X425197Y305276D01*
X331971Y300076D02*
X419998D01*
X326772Y305276D02*
X331971Y300076D01*
X518637Y310291D02*
X523622Y315276D01*
X430398Y310291D02*
X518637D01*
X425413Y315276D02*
X430398Y310291D01*
X425197Y315276D02*
X425413D01*
X420058Y310136D02*
X425197Y315276D01*
X331911Y310136D02*
X420058D01*
X326772Y315276D02*
X331911Y310136D01*
X179000Y452500D02*
X181746Y455246D01*
X181746D01*
D39*
X61500Y145000D02*
D03*
D40*
Y109567D02*
D03*
D41*
X533622Y325276D02*
D03*
Y315276D02*
D03*
Y305276D02*
D03*
Y275276D02*
D03*
Y285276D02*
D03*
Y295276D02*
D03*
X523622Y325276D02*
D03*
Y315276D02*
D03*
Y305276D02*
D03*
Y265276D02*
D03*
Y275276D02*
D03*
Y285276D02*
D03*
Y295276D02*
D03*
X435197Y325276D02*
D03*
Y315276D02*
D03*
Y305276D02*
D03*
Y275276D02*
D03*
Y285276D02*
D03*
Y295276D02*
D03*
X425197Y325276D02*
D03*
Y315276D02*
D03*
Y305276D02*
D03*
Y265276D02*
D03*
Y275276D02*
D03*
Y285276D02*
D03*
Y295276D02*
D03*
X336772Y325276D02*
D03*
Y315276D02*
D03*
Y305276D02*
D03*
Y275276D02*
D03*
Y285276D02*
D03*
Y295276D02*
D03*
X326772Y325276D02*
D03*
Y315276D02*
D03*
Y305276D02*
D03*
Y265276D02*
D03*
Y275276D02*
D03*
Y285276D02*
D03*
Y295276D02*
D03*
D42*
X533622Y265276D02*
D03*
X435197D02*
D03*
X336772D02*
D03*
D44*
X21500Y135000D02*
D03*
Y105000D02*
D03*
D45*
X179000Y375000D02*
D03*
Y385000D02*
D03*
Y432500D02*
D03*
Y442500D02*
D03*
Y490000D02*
D03*
Y500000D02*
D03*
D46*
Y395000D02*
D03*
Y452500D02*
D03*
Y510000D02*
D03*
D47*
X442126Y251063D02*
D03*
X343583Y250276D02*
D03*
D48*
X575000Y15000D02*
D03*
X580000Y582500D02*
D03*
X7500D02*
D03*
D49*
X21500Y125000D02*
D03*
Y95000D02*
D03*
M02*
