G04*
G04 #@! TF.GenerationSoftware,Altium Limited,Altium Designer,20.0.14 (345)*
G04*
G04 Layer_Physical_Order=1*
G04 Layer_Color=255*
%FSLAX25Y25*%
%MOIN*%
G70*
G01*
G75*
%ADD16C,0.05118*%
%ADD17R,0.05118X0.05118*%
%ADD18C,0.06102*%
%ADD19R,0.06102X0.06102*%
%ADD21C,0.07874*%
%ADD22R,0.07874X0.07874*%
%ADD25C,0.04724*%
%ADD26R,0.04724X0.04724*%
%ADD35R,0.05906X0.05512*%
%ADD36C,0.02000*%
%ADD37C,0.01900*%
%ADD38C,0.01200*%
%ADD39C,0.05315*%
%ADD40R,0.05315X0.05315*%
%ADD41C,0.06024*%
%ADD42R,0.06024X0.06024*%
%ADD43R,0.07874X0.05937*%
%ADD44O,0.07874X0.05937*%
%ADD45C,0.06693*%
%ADD46R,0.06693X0.06693*%
%ADD47C,0.05000*%
%ADD48C,0.05906*%
G36*
X590551Y0D02*
X0D01*
X-0Y590551D01*
X590551D01*
X590551Y0D01*
D02*
G37*
%LPC*%
G36*
X580500Y586421D02*
Y583000D01*
X583921D01*
X583851Y583532D01*
X583453Y584493D01*
X582819Y585319D01*
X581993Y585953D01*
X581032Y586351D01*
X580500Y586421D01*
D02*
G37*
G36*
X579500D02*
X578968Y586351D01*
X578007Y585953D01*
X577181Y585319D01*
X576547Y584493D01*
X576149Y583532D01*
X576079Y583000D01*
X579500D01*
Y586421D01*
D02*
G37*
G36*
X8000D02*
Y583000D01*
X11421D01*
X11351Y583532D01*
X10953Y584493D01*
X10319Y585319D01*
X9493Y585953D01*
X8532Y586351D01*
X8000Y586421D01*
D02*
G37*
G36*
X7000D02*
X6468Y586351D01*
X5507Y585953D01*
X4681Y585319D01*
X4047Y584493D01*
X3649Y583532D01*
X3579Y583000D01*
X7000D01*
Y586421D01*
D02*
G37*
G36*
X583921Y582000D02*
X580500D01*
Y578579D01*
X581032Y578649D01*
X581993Y579047D01*
X582819Y579681D01*
X583453Y580507D01*
X583851Y581468D01*
X583921Y582000D01*
D02*
G37*
G36*
X579500D02*
X576079D01*
X576149Y581468D01*
X576547Y580507D01*
X577181Y579681D01*
X578007Y579047D01*
X578968Y578649D01*
X579500Y578579D01*
Y582000D01*
D02*
G37*
G36*
X11421D02*
X8000D01*
Y578579D01*
X8532Y578649D01*
X9493Y579047D01*
X10319Y579681D01*
X10953Y580507D01*
X11351Y581468D01*
X11421Y582000D01*
D02*
G37*
G36*
X7000D02*
X3579D01*
X3649Y581468D01*
X4047Y580507D01*
X4681Y579681D01*
X5507Y579047D01*
X6468Y578649D01*
X7000Y578579D01*
Y582000D01*
D02*
G37*
G36*
X204000Y522866D02*
X202942Y522726D01*
X201957Y522318D01*
X201111Y521669D01*
X200461Y520823D01*
X200053Y519837D01*
X199914Y518780D01*
X200053Y517722D01*
X200461Y516737D01*
X201111Y515890D01*
X201957Y515241D01*
X202942Y514833D01*
X204000Y514693D01*
X205058Y514833D01*
X206043Y515241D01*
X206889Y515890D01*
X207539Y516737D01*
X207947Y517722D01*
X208086Y518780D01*
X207947Y519837D01*
X207539Y520823D01*
X206889Y521669D01*
X206043Y522318D01*
X205058Y522726D01*
X204000Y522866D01*
D02*
G37*
G36*
X183346Y514347D02*
X179500D01*
Y510500D01*
X183346D01*
Y514347D01*
D02*
G37*
G36*
X178500D02*
X174653D01*
Y510500D01*
X178500D01*
Y514347D01*
D02*
G37*
G36*
X183346Y509500D02*
X179500D01*
Y505653D01*
X183346D01*
Y509500D01*
D02*
G37*
G36*
X178500D02*
X174653D01*
Y505653D01*
X178500D01*
Y509500D01*
D02*
G37*
G36*
X179000Y504384D02*
X177865Y504235D01*
X176808Y503797D01*
X175900Y503100D01*
X175203Y502192D01*
X174765Y501135D01*
X174616Y500000D01*
X174765Y498865D01*
X175203Y497808D01*
X175900Y496900D01*
X176808Y496203D01*
X177865Y495765D01*
X179000Y495616D01*
X180135Y495765D01*
X181192Y496203D01*
X182100Y496900D01*
X182797Y497808D01*
X183235Y498865D01*
X183384Y500000D01*
X183235Y501135D01*
X182797Y502192D01*
X182100Y503100D01*
X181192Y503797D01*
X180135Y504235D01*
X179000Y504384D01*
D02*
G37*
G36*
X222953Y492496D02*
X219500D01*
Y489240D01*
X222953D01*
Y492496D01*
D02*
G37*
G36*
X218500D02*
X215047D01*
Y489240D01*
X218500D01*
Y492496D01*
D02*
G37*
G36*
X232953Y492496D02*
X229500D01*
Y489240D01*
X232953D01*
Y492496D01*
D02*
G37*
G36*
X228500D02*
X225047D01*
Y489240D01*
X228500D01*
Y492496D01*
D02*
G37*
G36*
X179000Y494384D02*
X177865Y494235D01*
X176808Y493797D01*
X175900Y493100D01*
X175203Y492192D01*
X174765Y491135D01*
X174616Y490000D01*
X174765Y488865D01*
X175203Y487808D01*
X175900Y486900D01*
X176808Y486203D01*
X177865Y485765D01*
X179000Y485616D01*
X180135Y485765D01*
X181192Y486203D01*
X182100Y486900D01*
X182797Y487808D01*
X183235Y488865D01*
X183384Y490000D01*
X183235Y491135D01*
X182797Y492192D01*
X182100Y493100D01*
X181192Y493797D01*
X180135Y494235D01*
X179000Y494384D01*
D02*
G37*
G36*
X222953Y488240D02*
X219000D01*
X215047D01*
Y484984D01*
Y483209D01*
X207561D01*
X207539Y483263D01*
X206889Y484110D01*
X206043Y484759D01*
X205058Y485167D01*
X204000Y485307D01*
X202942Y485167D01*
X201957Y484759D01*
X201111Y484110D01*
X200461Y483263D01*
X200053Y482278D01*
X199914Y481220D01*
X200053Y480163D01*
X200461Y479177D01*
X201111Y478331D01*
X201957Y477682D01*
X202942Y477274D01*
X204000Y477134D01*
X205058Y477274D01*
X206043Y477682D01*
X206889Y478331D01*
X207539Y479177D01*
X207561Y479232D01*
X215047D01*
Y477504D01*
X217012D01*
Y464841D01*
X216957Y464818D01*
X216111Y464169D01*
X215461Y463323D01*
X215053Y462337D01*
X214914Y461279D01*
X215053Y460222D01*
X215076Y460167D01*
X208594Y453685D01*
X208163Y453040D01*
X208012Y452280D01*
Y426088D01*
X207566Y425797D01*
X207512Y425799D01*
X206889Y426610D01*
X206043Y427259D01*
X205058Y427667D01*
X204000Y427807D01*
X202942Y427667D01*
X201957Y427259D01*
X201111Y426610D01*
X200461Y425764D01*
X200053Y424778D01*
X199914Y423721D01*
X200053Y422663D01*
X200461Y421677D01*
X201111Y420831D01*
X201957Y420182D01*
X202942Y419774D01*
X204000Y419634D01*
X205058Y419774D01*
X206043Y420182D01*
X206889Y420831D01*
X207512Y421642D01*
X207566Y421644D01*
X208012Y421352D01*
Y360000D01*
X208163Y359239D01*
X208594Y358594D01*
X248331Y318857D01*
X248976Y318426D01*
X249737Y318275D01*
X322763D01*
X322763Y318275D01*
X323386D01*
X323633Y317775D01*
X323267Y317299D01*
X322863Y316323D01*
X322725Y315276D01*
X322863Y314228D01*
X323267Y313252D01*
X323910Y312414D01*
X324748Y311771D01*
X325724Y311367D01*
X326772Y311229D01*
X327819Y311367D01*
X328795Y311771D01*
X329633Y312414D01*
X330276Y313252D01*
X330680Y314228D01*
X330818Y315276D01*
X330680Y316323D01*
X330276Y317299D01*
X329911Y317775D01*
X330157Y318275D01*
X330961D01*
X332878Y316358D01*
X332863Y316323D01*
X332725Y315276D01*
X332863Y314228D01*
X333267Y313252D01*
X333910Y312414D01*
X334748Y311771D01*
X335724Y311367D01*
X336772Y311229D01*
X337819Y311367D01*
X338795Y311771D01*
X339633Y312414D01*
X340276Y313252D01*
X340680Y314228D01*
X340818Y315276D01*
X340680Y316323D01*
X340666Y316358D01*
X342583Y318275D01*
X421811D01*
X422058Y317775D01*
X421693Y317299D01*
X421288Y316323D01*
X421150Y315276D01*
X421288Y314228D01*
X421693Y313252D01*
X422336Y312414D01*
X423174Y311771D01*
X424150Y311367D01*
X425197Y311229D01*
X426244Y311367D01*
X427220Y311771D01*
X428058Y312414D01*
X428701Y313252D01*
X429105Y314228D01*
X429243Y315276D01*
X429105Y316323D01*
X428701Y317299D01*
X428336Y317775D01*
X428582Y318275D01*
X429386D01*
X431303Y316358D01*
X431288Y316323D01*
X431150Y315276D01*
X431288Y314228D01*
X431693Y313252D01*
X432336Y312414D01*
X433174Y311771D01*
X434150Y311367D01*
X435197Y311229D01*
X436244Y311367D01*
X437220Y311771D01*
X438058Y312414D01*
X438701Y313252D01*
X439105Y314228D01*
X439243Y315276D01*
X439105Y316323D01*
X439091Y316358D01*
X441008Y318275D01*
X520236D01*
X520483Y317775D01*
X520118Y317299D01*
X519713Y316323D01*
X519576Y315276D01*
X519713Y314228D01*
X520118Y313252D01*
X520761Y312414D01*
X521599Y311771D01*
X522575Y311367D01*
X523622Y311229D01*
X524669Y311367D01*
X525645Y311771D01*
X526483Y312414D01*
X527126Y313252D01*
X527531Y314228D01*
X527669Y315276D01*
X527531Y316323D01*
X527126Y317299D01*
X526761Y317775D01*
X527008Y318275D01*
X527811D01*
X529728Y316358D01*
X529713Y316323D01*
X529576Y315276D01*
X529713Y314228D01*
X530118Y313252D01*
X530761Y312414D01*
X531599Y311771D01*
X532575Y311367D01*
X533622Y311229D01*
X534669Y311367D01*
X535645Y311771D01*
X536483Y312414D01*
X537126Y313252D01*
X537531Y314228D01*
X537669Y315276D01*
X537531Y316323D01*
X537126Y317299D01*
X536483Y318137D01*
X535645Y318780D01*
X534669Y319184D01*
X533622Y319322D01*
X532575Y319184D01*
X532540Y319170D01*
X530041Y321669D01*
X529395Y322100D01*
X528635Y322251D01*
X526988D01*
X526742Y322751D01*
X527126Y323252D01*
X527531Y324228D01*
X527669Y325276D01*
X527531Y326323D01*
X527126Y327299D01*
X526483Y328137D01*
X525645Y328780D01*
X524669Y329184D01*
X523622Y329322D01*
X522595Y329187D01*
X519277Y332505D01*
X518615Y332947D01*
X517835Y333102D01*
X430984D01*
X430204Y332947D01*
X429542Y332505D01*
X426224Y329187D01*
X425197Y329322D01*
X424169Y329187D01*
X420851Y332505D01*
X420190Y332947D01*
X419410Y333102D01*
X332559D01*
X331779Y332947D01*
X331117Y332505D01*
X327799Y329187D01*
X326772Y329322D01*
X325724Y329184D01*
X324748Y328780D01*
X323910Y328137D01*
X323267Y327299D01*
X322863Y326323D01*
X322725Y325276D01*
X322863Y324228D01*
X323267Y323252D01*
X323652Y322751D01*
X323405Y322251D01*
X322763D01*
X322763Y322251D01*
X250561D01*
X211988Y360823D01*
Y451456D01*
X217888Y457355D01*
X217942Y457333D01*
X219000Y457193D01*
X220058Y457333D01*
X221043Y457741D01*
X221889Y458390D01*
X222539Y459236D01*
X222947Y460222D01*
X223086Y461279D01*
X222947Y462337D01*
X222539Y463323D01*
X221889Y464169D01*
X221043Y464818D01*
X220988Y464841D01*
Y477504D01*
X222953D01*
Y479272D01*
X225047D01*
Y477504D01*
X232953D01*
Y484984D01*
Y488240D01*
X225047D01*
Y484984D01*
Y483248D01*
X222953D01*
Y484984D01*
Y488240D01*
D02*
G37*
G36*
X69331Y485665D02*
X65780D01*
Y482114D01*
X69331D01*
Y485665D01*
D02*
G37*
G36*
X113752Y485635D02*
Y482114D01*
X117272D01*
X117199Y482672D01*
X116791Y483657D01*
X116141Y484504D01*
X115295Y485153D01*
X114310Y485561D01*
X113752Y485635D01*
D02*
G37*
G36*
X112752Y485635D02*
X112194Y485561D01*
X111209Y485153D01*
X110363Y484504D01*
X109713Y483657D01*
X109305Y482672D01*
X109232Y482114D01*
X112752D01*
Y485635D01*
D02*
G37*
G36*
X64780Y485665D02*
X61228D01*
Y482114D01*
X64780D01*
Y485665D01*
D02*
G37*
G36*
X112752Y481114D02*
X109232D01*
X109305Y480557D01*
X109713Y479571D01*
X110363Y478725D01*
X111209Y478076D01*
X112194Y477667D01*
X112752Y477594D01*
Y481114D01*
D02*
G37*
G36*
X117272D02*
X113752D01*
Y477594D01*
X114310Y477667D01*
X115295Y478076D01*
X116141Y478725D01*
X116791Y479571D01*
X117199Y480557D01*
X117272Y481114D01*
D02*
G37*
G36*
X146831Y485665D02*
X138728D01*
Y477563D01*
X146831D01*
Y485665D01*
D02*
G37*
G36*
X35752Y485700D02*
X34694Y485561D01*
X33709Y485153D01*
X32863Y484504D01*
X32213Y483657D01*
X31805Y482672D01*
X31666Y481614D01*
X31805Y480557D01*
X32213Y479571D01*
X32863Y478725D01*
X33709Y478076D01*
X34694Y477667D01*
X35752Y477528D01*
X36810Y477667D01*
X37795Y478076D01*
X38641Y478725D01*
X39291Y479571D01*
X39699Y480557D01*
X39838Y481614D01*
X39699Y482672D01*
X39291Y483657D01*
X38641Y484504D01*
X37795Y485153D01*
X36810Y485561D01*
X35752Y485700D01*
D02*
G37*
G36*
X204000Y465366D02*
X202942Y465226D01*
X201957Y464818D01*
X201111Y464169D01*
X200461Y463323D01*
X200053Y462337D01*
X199914Y461279D01*
X200053Y460222D01*
X200461Y459236D01*
X201111Y458390D01*
X201957Y457741D01*
X202942Y457333D01*
X204000Y457193D01*
X205058Y457333D01*
X206043Y457741D01*
X206889Y458390D01*
X207539Y459236D01*
X207947Y460222D01*
X208086Y461279D01*
X207947Y462337D01*
X207539Y463323D01*
X206889Y464169D01*
X206043Y464818D01*
X205058Y465226D01*
X204000Y465366D01*
D02*
G37*
G36*
X183346Y456847D02*
X174653D01*
Y448153D01*
X183346D01*
Y456847D01*
D02*
G37*
G36*
X98953Y447496D02*
X95500D01*
Y444240D01*
X98953D01*
Y447496D01*
D02*
G37*
G36*
X179500Y446818D02*
Y443000D01*
X183318D01*
X183235Y443635D01*
X182797Y444692D01*
X182100Y445600D01*
X181192Y446297D01*
X180135Y446735D01*
X179500Y446818D01*
D02*
G37*
G36*
X178500D02*
X177865Y446735D01*
X176808Y446297D01*
X175900Y445600D01*
X175203Y444692D01*
X174765Y443635D01*
X174682Y443000D01*
X178500D01*
Y446818D01*
D02*
G37*
G36*
X183318Y442000D02*
X179500D01*
Y438182D01*
X180135Y438265D01*
X181192Y438703D01*
X182100Y439400D01*
X182797Y440308D01*
X183235Y441365D01*
X183318Y442000D01*
D02*
G37*
G36*
X178500D02*
X174682D01*
X174765Y441365D01*
X175203Y440308D01*
X175900Y439400D01*
X176808Y438703D01*
X177865Y438265D01*
X178500Y438182D01*
Y442000D01*
D02*
G37*
G36*
X179000Y436884D02*
X177865Y436735D01*
X176808Y436297D01*
X175900Y435600D01*
X175203Y434692D01*
X174765Y433635D01*
X174616Y432500D01*
X174765Y431365D01*
X175203Y430308D01*
X175900Y429400D01*
X176808Y428703D01*
X177865Y428265D01*
X179000Y428116D01*
X180135Y428265D01*
X181192Y428703D01*
X182100Y429400D01*
X182797Y430308D01*
X183235Y431365D01*
X183384Y432500D01*
X183235Y433635D01*
X182797Y434692D01*
X182100Y435600D01*
X181192Y436297D01*
X180135Y436735D01*
X179000Y436884D01*
D02*
G37*
G36*
X219500Y427741D02*
Y424221D01*
X223020D01*
X222947Y424778D01*
X222539Y425764D01*
X221889Y426610D01*
X221043Y427259D01*
X220058Y427667D01*
X219500Y427741D01*
D02*
G37*
G36*
X218500Y427741D02*
X217942Y427667D01*
X216957Y427259D01*
X216111Y426610D01*
X215461Y425764D01*
X215053Y424778D01*
X214980Y424221D01*
X218500D01*
Y427741D01*
D02*
G37*
G36*
X223020Y423220D02*
X219500D01*
Y419700D01*
X220058Y419774D01*
X221043Y420182D01*
X221889Y420831D01*
X222539Y421677D01*
X222947Y422663D01*
X223020Y423220D01*
D02*
G37*
G36*
X218500D02*
X214980D01*
X215053Y422663D01*
X215461Y421677D01*
X216111Y420831D01*
X216957Y420182D01*
X217942Y419774D01*
X218500Y419700D01*
Y423220D01*
D02*
G37*
G36*
X219500Y412800D02*
Y409279D01*
X223020D01*
X222947Y409837D01*
X222539Y410823D01*
X221889Y411669D01*
X221043Y412318D01*
X220058Y412726D01*
X219500Y412800D01*
D02*
G37*
G36*
X218500Y412800D02*
X217942Y412726D01*
X216957Y412318D01*
X216111Y411669D01*
X215461Y410823D01*
X215053Y409837D01*
X214980Y409279D01*
X218500D01*
Y412800D01*
D02*
G37*
G36*
Y408280D02*
X214980D01*
X215053Y407722D01*
X215461Y406737D01*
X216111Y405890D01*
X216957Y405241D01*
X217942Y404833D01*
X218500Y404759D01*
Y408280D01*
D02*
G37*
G36*
X223020D02*
X219500D01*
Y404759D01*
X220058Y404833D01*
X221043Y405241D01*
X221889Y405890D01*
X222539Y406737D01*
X222947Y407722D01*
X223020Y408280D01*
D02*
G37*
G36*
X113516Y405634D02*
Y402114D01*
X117036D01*
X116963Y402672D01*
X116554Y403657D01*
X115905Y404503D01*
X115059Y405153D01*
X114073Y405561D01*
X113516Y405634D01*
D02*
G37*
G36*
X69095Y405665D02*
X65543D01*
Y402114D01*
X69095D01*
Y405665D01*
D02*
G37*
G36*
X112516Y405634D02*
X111958Y405561D01*
X110973Y405153D01*
X110126Y404503D01*
X109477Y403657D01*
X109069Y402672D01*
X108995Y402114D01*
X112516D01*
Y405634D01*
D02*
G37*
G36*
X64543Y405665D02*
X60992D01*
Y402114D01*
X64543D01*
Y405665D01*
D02*
G37*
G36*
X200453Y399996D02*
X192547D01*
Y398228D01*
X183346D01*
Y399346D01*
X174653D01*
Y390653D01*
X183346D01*
Y394252D01*
X192547D01*
Y392484D01*
Y389260D01*
X196500D01*
X200453D01*
Y392484D01*
Y399996D01*
D02*
G37*
G36*
X117036Y401114D02*
X113516D01*
Y397594D01*
X114073Y397667D01*
X115059Y398076D01*
X115905Y398725D01*
X116554Y399571D01*
X116963Y400557D01*
X117036Y401114D01*
D02*
G37*
G36*
X112516D02*
X108995D01*
X109069Y400557D01*
X109477Y399571D01*
X110126Y398725D01*
X110973Y398076D01*
X111958Y397667D01*
X112516Y397594D01*
Y401114D01*
D02*
G37*
G36*
X69331Y481114D02*
X65280D01*
X61228D01*
Y477563D01*
X63240D01*
Y452720D01*
X63396Y451940D01*
X63838Y451279D01*
X72818Y442298D01*
X73479Y441856D01*
X74260Y441701D01*
X78547D01*
Y438299D01*
X44260D01*
X43479Y438144D01*
X42818Y437702D01*
X34878Y429762D01*
X34436Y429100D01*
X34281Y428320D01*
Y405488D01*
X33473Y405153D01*
X32626Y404503D01*
X31977Y403657D01*
X31569Y402672D01*
X31430Y401614D01*
X31569Y400557D01*
X31977Y399571D01*
X32626Y398725D01*
X33473Y398076D01*
X34458Y397667D01*
X35516Y397528D01*
X36573Y397667D01*
X37559Y398076D01*
X38405Y398725D01*
X39055Y399571D01*
X39463Y400557D01*
X39602Y401614D01*
X39463Y402672D01*
X39055Y403657D01*
X38405Y404503D01*
X38359Y404539D01*
Y427475D01*
X45105Y434221D01*
X78547D01*
Y432504D01*
X86453D01*
Y439984D01*
Y441701D01*
X91047D01*
Y439984D01*
Y432504D01*
X98953D01*
Y434221D01*
X117895D01*
X122961Y429155D01*
Y407500D01*
X123116Y406720D01*
X123558Y406058D01*
X129444Y400172D01*
X130105Y399730D01*
X130886Y399575D01*
X130886Y399575D01*
X138492D01*
Y397563D01*
X146595D01*
Y405665D01*
X138492D01*
Y403653D01*
X131730D01*
X127039Y408345D01*
Y430000D01*
X126884Y430780D01*
X126442Y431442D01*
X126442Y431442D01*
X120182Y437702D01*
X119520Y438144D01*
X118740Y438299D01*
X98953D01*
Y439984D01*
Y443240D01*
X95000D01*
Y443740D01*
X94500D01*
Y447496D01*
X91047D01*
Y445779D01*
X86453D01*
Y447496D01*
X83000D01*
Y443740D01*
X82000D01*
Y447496D01*
X78547D01*
Y445779D01*
X75104D01*
X67319Y453565D01*
Y477563D01*
X69331D01*
Y481114D01*
D02*
G37*
G36*
X69095Y401114D02*
X65543D01*
Y397563D01*
X69095D01*
Y401114D01*
D02*
G37*
G36*
X64543D02*
X60992D01*
Y397563D01*
X64543D01*
Y401114D01*
D02*
G37*
G36*
X179500Y389318D02*
Y385500D01*
X183318D01*
X183235Y386135D01*
X182797Y387192D01*
X182100Y388100D01*
X181192Y388797D01*
X180135Y389235D01*
X179500Y389318D01*
D02*
G37*
G36*
X178500D02*
X177865Y389235D01*
X176808Y388797D01*
X175900Y388100D01*
X175203Y387192D01*
X174765Y386135D01*
X174682Y385500D01*
X178500D01*
Y389318D01*
D02*
G37*
G36*
X200453Y388260D02*
X197000D01*
Y385004D01*
X200453D01*
Y388260D01*
D02*
G37*
G36*
X196000D02*
X192547D01*
Y385004D01*
X196000D01*
Y388260D01*
D02*
G37*
G36*
X183318Y384500D02*
X179500D01*
Y380682D01*
X180135Y380765D01*
X181192Y381203D01*
X182100Y381900D01*
X182797Y382808D01*
X183235Y383865D01*
X183318Y384500D01*
D02*
G37*
G36*
X178500D02*
X174682D01*
X174765Y383865D01*
X175203Y382808D01*
X175900Y381900D01*
X176808Y381203D01*
X177865Y380765D01*
X178500Y380682D01*
Y384500D01*
D02*
G37*
G36*
X232953Y382496D02*
X229500D01*
Y379240D01*
X232953D01*
Y382496D01*
D02*
G37*
G36*
X228500D02*
X225047D01*
Y379240D01*
X228500D01*
Y382496D01*
D02*
G37*
G36*
X200453Y379996D02*
X197000D01*
Y376740D01*
X200453D01*
Y379996D01*
D02*
G37*
G36*
X196000D02*
X192547D01*
Y376740D01*
X196000D01*
Y379996D01*
D02*
G37*
G36*
X232953Y378240D02*
X225047D01*
Y374984D01*
Y373248D01*
X222545D01*
X222539Y373264D01*
X221889Y374110D01*
X221043Y374759D01*
X220058Y375167D01*
X219000Y375307D01*
X217942Y375167D01*
X216957Y374759D01*
X216111Y374110D01*
X215461Y373264D01*
X215053Y372278D01*
X214914Y371220D01*
X215053Y370163D01*
X215461Y369177D01*
X216111Y368331D01*
X216957Y367682D01*
X217942Y367274D01*
X219000Y367134D01*
X220058Y367274D01*
X221043Y367682D01*
X221889Y368331D01*
X222539Y369177D01*
X222578Y369272D01*
X225047D01*
Y367504D01*
X232953D01*
Y374984D01*
Y378240D01*
D02*
G37*
G36*
X179000Y379384D02*
X177865Y379235D01*
X176808Y378797D01*
X175900Y378100D01*
X175203Y377192D01*
X174765Y376135D01*
X174616Y375000D01*
X174765Y373865D01*
X175203Y372808D01*
X175900Y371900D01*
X176808Y371203D01*
X177865Y370765D01*
X179000Y370616D01*
X180135Y370765D01*
X180287Y370829D01*
X183798Y367318D01*
X183798Y367318D01*
X184460Y366876D01*
X185240Y366721D01*
X192547D01*
Y365004D01*
X200453D01*
Y372484D01*
Y375740D01*
X192547D01*
Y372484D01*
Y370799D01*
X186085D01*
X183171Y373713D01*
X183235Y373865D01*
X183384Y375000D01*
X183235Y376135D01*
X182797Y377192D01*
X182100Y378100D01*
X181192Y378797D01*
X180135Y379235D01*
X179000Y379384D01*
D02*
G37*
G36*
X223098Y341551D02*
X214996D01*
Y333449D01*
X223098D01*
Y341551D01*
D02*
G37*
G36*
X18953Y341586D02*
X17895Y341447D01*
X16910Y341039D01*
X16063Y340389D01*
X15414Y339543D01*
X15006Y338558D01*
X14867Y337500D01*
X15006Y336442D01*
X15414Y335457D01*
X16063Y334611D01*
X16910Y333961D01*
X17895Y333553D01*
X18953Y333414D01*
X20010Y333553D01*
X20996Y333961D01*
X21842Y334611D01*
X22491Y335457D01*
X22900Y336442D01*
X23039Y337500D01*
X22900Y338558D01*
X22491Y339543D01*
X21842Y340389D01*
X20996Y341039D01*
X20010Y341447D01*
X18953Y341586D01*
D02*
G37*
G36*
X533622Y329322D02*
X532575Y329184D01*
X531599Y328780D01*
X530761Y328137D01*
X530118Y327299D01*
X529713Y326323D01*
X529576Y325276D01*
X529713Y324228D01*
X530118Y323252D01*
X530761Y322414D01*
X531599Y321771D01*
X532575Y321367D01*
X533622Y321229D01*
X534669Y321367D01*
X535645Y321771D01*
X536483Y322414D01*
X537126Y323252D01*
X537531Y324228D01*
X537669Y325276D01*
X537531Y326323D01*
X537126Y327299D01*
X536483Y328137D01*
X535645Y328780D01*
X534669Y329184D01*
X533622Y329322D01*
D02*
G37*
G36*
X534122Y309256D02*
Y305776D01*
X537603D01*
X537531Y306323D01*
X537126Y307299D01*
X536483Y308137D01*
X535645Y308780D01*
X534669Y309184D01*
X534122Y309256D01*
D02*
G37*
G36*
X533122D02*
X532575Y309184D01*
X531599Y308780D01*
X530761Y308137D01*
X530118Y307299D01*
X529713Y306323D01*
X529641Y305776D01*
X533122D01*
Y309256D01*
D02*
G37*
G36*
X435697Y309256D02*
Y305776D01*
X439178D01*
X439105Y306323D01*
X438701Y307299D01*
X438058Y308137D01*
X437220Y308780D01*
X436244Y309184D01*
X435697Y309256D01*
D02*
G37*
G36*
X337272D02*
Y305776D01*
X340752D01*
X340680Y306323D01*
X340276Y307299D01*
X339633Y308137D01*
X338795Y308780D01*
X337819Y309184D01*
X337272Y309256D01*
D02*
G37*
G36*
X434697Y309256D02*
X434150Y309184D01*
X433174Y308780D01*
X432336Y308137D01*
X431693Y307299D01*
X431288Y306323D01*
X431216Y305776D01*
X434697D01*
Y309256D01*
D02*
G37*
G36*
X336272D02*
X335724Y309184D01*
X334748Y308780D01*
X333910Y308137D01*
X333267Y307299D01*
X332863Y306323D01*
X332791Y305776D01*
X336272D01*
Y309256D01*
D02*
G37*
G36*
X434697Y304776D02*
X431216D01*
X431288Y304228D01*
X431693Y303252D01*
X432336Y302414D01*
X433174Y301771D01*
X434150Y301367D01*
X434697Y301295D01*
Y304776D01*
D02*
G37*
G36*
X336272D02*
X332791D01*
X332863Y304228D01*
X333267Y303252D01*
X333910Y302414D01*
X334748Y301771D01*
X335724Y301367D01*
X336272Y301295D01*
Y304776D01*
D02*
G37*
G36*
X533122Y304776D02*
X529641D01*
X529713Y304228D01*
X530118Y303252D01*
X530761Y302414D01*
X531599Y301771D01*
X532575Y301367D01*
X533122Y301295D01*
Y304776D01*
D02*
G37*
G36*
X537603D02*
X534122D01*
Y301295D01*
X534669Y301367D01*
X535645Y301771D01*
X536483Y302414D01*
X537126Y303252D01*
X537531Y304228D01*
X537603Y304776D01*
D02*
G37*
G36*
X439178Y304776D02*
X435697D01*
Y301295D01*
X436244Y301367D01*
X437220Y301771D01*
X438058Y302414D01*
X438701Y303252D01*
X439105Y304228D01*
X439178Y304776D01*
D02*
G37*
G36*
X340752D02*
X337272D01*
Y301295D01*
X337819Y301367D01*
X338795Y301771D01*
X339633Y302414D01*
X340276Y303252D01*
X340680Y304228D01*
X340752Y304776D01*
D02*
G37*
G36*
X523622Y309322D02*
X522575Y309184D01*
X521599Y308780D01*
X520761Y308137D01*
X520118Y307299D01*
X519713Y306323D01*
X519576Y305276D01*
X519713Y304228D01*
X520118Y303252D01*
X520761Y302414D01*
X521599Y301771D01*
X522575Y301367D01*
X523622Y301229D01*
X524669Y301367D01*
X525645Y301771D01*
X526483Y302414D01*
X527126Y303252D01*
X527531Y304228D01*
X527669Y305276D01*
X527531Y306323D01*
X527126Y307299D01*
X526483Y308137D01*
X525645Y308780D01*
X524669Y309184D01*
X523622Y309322D01*
D02*
G37*
G36*
X425197D02*
X424150Y309184D01*
X423174Y308780D01*
X422336Y308137D01*
X421693Y307299D01*
X421288Y306323D01*
X421150Y305276D01*
X421288Y304228D01*
X421693Y303252D01*
X422336Y302414D01*
X423174Y301771D01*
X424150Y301367D01*
X425197Y301229D01*
X426244Y301367D01*
X427220Y301771D01*
X428058Y302414D01*
X428701Y303252D01*
X429105Y304228D01*
X429243Y305276D01*
X429105Y306323D01*
X428701Y307299D01*
X428058Y308137D01*
X427220Y308780D01*
X426244Y309184D01*
X425197Y309322D01*
D02*
G37*
G36*
X326772D02*
X325724Y309184D01*
X324748Y308780D01*
X323910Y308137D01*
X323267Y307299D01*
X322863Y306323D01*
X322725Y305276D01*
X322863Y304228D01*
X323267Y303252D01*
X323910Y302414D01*
X324748Y301771D01*
X325724Y301367D01*
X326772Y301229D01*
X327819Y301367D01*
X328795Y301771D01*
X329633Y302414D01*
X330276Y303252D01*
X330680Y304228D01*
X330818Y305276D01*
X330680Y306323D01*
X330276Y307299D01*
X329633Y308137D01*
X328795Y308780D01*
X327819Y309184D01*
X326772Y309322D01*
D02*
G37*
G36*
X523622Y299322D02*
X522575Y299184D01*
X521599Y298780D01*
X520761Y298137D01*
X520118Y297299D01*
X519955Y296907D01*
X442339D01*
X441714Y296783D01*
X441185Y296429D01*
X439674Y294918D01*
X439225Y295139D01*
X439243Y295276D01*
X439105Y296323D01*
X438701Y297299D01*
X438058Y298137D01*
X437220Y298780D01*
X436244Y299184D01*
X435197Y299322D01*
X434150Y299184D01*
X433174Y298780D01*
X432336Y298137D01*
X431693Y297299D01*
X431288Y296323D01*
X431150Y295276D01*
X431288Y294228D01*
X431510Y293693D01*
X431086Y293410D01*
X429241Y295255D01*
X429243Y295276D01*
X429105Y296323D01*
X428701Y297299D01*
X428058Y298137D01*
X427220Y298780D01*
X426244Y299184D01*
X425197Y299322D01*
X424150Y299184D01*
X423174Y298780D01*
X422336Y298137D01*
X421996Y297694D01*
X344611D01*
X343986Y297570D01*
X343457Y297217D01*
X341262Y295022D01*
X340968Y295167D01*
X340817Y295284D01*
X340680Y296323D01*
X340276Y297299D01*
X339633Y298137D01*
X338795Y298780D01*
X337819Y299184D01*
X336772Y299322D01*
X335724Y299184D01*
X334748Y298780D01*
X333910Y298137D01*
X333267Y297299D01*
X332863Y296323D01*
X332725Y295276D01*
X332863Y294228D01*
X333267Y293252D01*
X333910Y292414D01*
X334068Y292293D01*
X333908Y291820D01*
X332535D01*
X330518Y293836D01*
X330680Y294228D01*
X330818Y295276D01*
X330680Y296323D01*
X330276Y297299D01*
X329633Y298137D01*
X328795Y298780D01*
X327819Y299184D01*
X326772Y299322D01*
X325724Y299184D01*
X324748Y298780D01*
X323910Y298137D01*
X323267Y297299D01*
X322863Y296323D01*
X322725Y295276D01*
X322863Y294228D01*
X323267Y293252D01*
X323910Y292414D01*
X324748Y291771D01*
X325724Y291367D01*
X326772Y291229D01*
X327819Y291367D01*
X328211Y291529D01*
X330705Y289035D01*
X331235Y288681D01*
X331859Y288557D01*
X333714D01*
X333849Y288057D01*
X333267Y287299D01*
X332863Y286323D01*
X332791Y285776D01*
X336772D01*
X340752D01*
X340680Y286323D01*
X340276Y287299D01*
X339633Y288137D01*
X339501Y288238D01*
X339566Y288819D01*
X339889Y289035D01*
X345286Y294432D01*
X421262D01*
X421288Y294228D01*
X421693Y293252D01*
X422336Y292414D01*
X423174Y291771D01*
X424150Y291367D01*
X425197Y291229D01*
X426244Y291367D01*
X427220Y291771D01*
X427724Y292158D01*
X430531Y289351D01*
X431060Y288997D01*
X431685Y288873D01*
X432474D01*
X432643Y288373D01*
X432336Y288137D01*
X431693Y287299D01*
X431288Y286323D01*
X431216Y285776D01*
X435197D01*
Y285276D01*
D01*
Y285776D01*
X439178D01*
X439105Y286323D01*
X438701Y287299D01*
X438058Y288137D01*
X437723Y288394D01*
X437847Y288929D01*
X438192Y288997D01*
X438721Y289351D01*
X443014Y293644D01*
X519955D01*
X520118Y293252D01*
X520761Y292414D01*
X521599Y291771D01*
X522575Y291367D01*
X523622Y291229D01*
X524669Y291367D01*
X525645Y291771D01*
X526483Y292414D01*
X527126Y293252D01*
X527531Y294228D01*
X527669Y295276D01*
X527531Y296323D01*
X527126Y297299D01*
X526483Y298137D01*
X525645Y298780D01*
X524669Y299184D01*
X523622Y299322D01*
D02*
G37*
G36*
X533622D02*
X532575Y299184D01*
X531599Y298780D01*
X530761Y298137D01*
X530118Y297299D01*
X529713Y296323D01*
X529576Y295276D01*
X529713Y294228D01*
X530118Y293252D01*
X530761Y292414D01*
X531599Y291771D01*
X532575Y291367D01*
X533622Y291229D01*
X534669Y291367D01*
X535645Y291771D01*
X536483Y292414D01*
X537126Y293252D01*
X537531Y294228D01*
X537669Y295276D01*
X537531Y296323D01*
X537126Y297299D01*
X536483Y298137D01*
X535645Y298780D01*
X534669Y299184D01*
X533622Y299322D01*
D02*
G37*
G36*
X534122Y289256D02*
Y285776D01*
X537603D01*
X537531Y286323D01*
X537126Y287299D01*
X536483Y288137D01*
X535645Y288780D01*
X534669Y289184D01*
X534122Y289256D01*
D02*
G37*
G36*
X533122D02*
X532575Y289184D01*
X531599Y288780D01*
X530761Y288137D01*
X530118Y287299D01*
X529713Y286323D01*
X529641Y285776D01*
X533122D01*
Y289256D01*
D02*
G37*
G36*
X23004Y291551D02*
X14902D01*
Y283449D01*
X23004D01*
Y291551D01*
D02*
G37*
G36*
X219047Y291586D02*
X217990Y291447D01*
X217004Y291039D01*
X216158Y290389D01*
X215509Y289543D01*
X215100Y288558D01*
X214961Y287500D01*
X215100Y286442D01*
X215509Y285457D01*
X216158Y284611D01*
X217004Y283961D01*
X217990Y283553D01*
X219047Y283414D01*
X220105Y283553D01*
X221090Y283961D01*
X221937Y284611D01*
X222586Y285457D01*
X222994Y286442D01*
X223133Y287500D01*
X222994Y288558D01*
X222586Y289543D01*
X221937Y290389D01*
X221090Y291039D01*
X220105Y291447D01*
X219047Y291586D01*
D02*
G37*
G36*
X434697Y284776D02*
X431216D01*
X431288Y284228D01*
X431693Y283252D01*
X432336Y282414D01*
X433174Y281771D01*
X434150Y281367D01*
X434697Y281295D01*
Y284776D01*
D02*
G37*
G36*
X336272D02*
X332791D01*
X332863Y284228D01*
X333267Y283252D01*
X333910Y282414D01*
X334748Y281771D01*
X335724Y281367D01*
X336272Y281295D01*
Y284776D01*
D02*
G37*
G36*
X533122Y284776D02*
X529641D01*
X529713Y284228D01*
X530118Y283252D01*
X530761Y282414D01*
X531599Y281771D01*
X532575Y281367D01*
X533122Y281295D01*
Y284776D01*
D02*
G37*
G36*
X537603D02*
X534122D01*
Y281295D01*
X534669Y281367D01*
X535645Y281771D01*
X536483Y282414D01*
X537126Y283252D01*
X537531Y284228D01*
X537603Y284776D01*
D02*
G37*
G36*
X439178Y284776D02*
X435697D01*
Y281295D01*
X436244Y281367D01*
X437220Y281771D01*
X438058Y282414D01*
X438701Y283252D01*
X439105Y284228D01*
X439178Y284776D01*
D02*
G37*
G36*
X340752D02*
X337272D01*
Y281295D01*
X337819Y281367D01*
X338795Y281771D01*
X339633Y282414D01*
X340276Y283252D01*
X340680Y284228D01*
X340752Y284776D01*
D02*
G37*
G36*
X523622Y289322D02*
X522575Y289184D01*
X521599Y288780D01*
X520761Y288137D01*
X520118Y287299D01*
X519713Y286323D01*
X519576Y285276D01*
X519713Y284228D01*
X520118Y283252D01*
X520761Y282414D01*
X521599Y281771D01*
X522575Y281367D01*
X523622Y281229D01*
X524669Y281367D01*
X525645Y281771D01*
X526483Y282414D01*
X527126Y283252D01*
X527531Y284228D01*
X527669Y285276D01*
X527531Y286323D01*
X527126Y287299D01*
X526483Y288137D01*
X525645Y288780D01*
X524669Y289184D01*
X523622Y289322D01*
D02*
G37*
G36*
X425197D02*
X424150Y289184D01*
X423174Y288780D01*
X422336Y288137D01*
X421693Y287299D01*
X421288Y286323D01*
X421150Y285276D01*
X421288Y284228D01*
X421693Y283252D01*
X422336Y282414D01*
X423174Y281771D01*
X424150Y281367D01*
X425197Y281229D01*
X426244Y281367D01*
X427220Y281771D01*
X428058Y282414D01*
X428701Y283252D01*
X429105Y284228D01*
X429243Y285276D01*
X429105Y286323D01*
X428701Y287299D01*
X428058Y288137D01*
X427220Y288780D01*
X426244Y289184D01*
X425197Y289322D01*
D02*
G37*
G36*
X326772D02*
X325724Y289184D01*
X324748Y288780D01*
X323910Y288137D01*
X323267Y287299D01*
X322863Y286323D01*
X322725Y285276D01*
X322863Y284228D01*
X323267Y283252D01*
X323910Y282414D01*
X324748Y281771D01*
X325724Y281367D01*
X326772Y281229D01*
X327819Y281367D01*
X328795Y281771D01*
X329633Y282414D01*
X330276Y283252D01*
X330680Y284228D01*
X330818Y285276D01*
X330680Y286323D01*
X330276Y287299D01*
X329633Y288137D01*
X328795Y288780D01*
X327819Y289184D01*
X326772Y289322D01*
D02*
G37*
G36*
X534122Y279256D02*
Y275776D01*
X537603D01*
X537531Y276323D01*
X537126Y277299D01*
X536483Y278137D01*
X535645Y278780D01*
X534669Y279184D01*
X534122Y279256D01*
D02*
G37*
G36*
X533122D02*
X532575Y279184D01*
X531599Y278780D01*
X530761Y278137D01*
X530118Y277299D01*
X529713Y276323D01*
X529641Y275776D01*
X533122D01*
Y279256D01*
D02*
G37*
G36*
X435697Y279256D02*
Y275776D01*
X439178D01*
X439105Y276323D01*
X438701Y277299D01*
X438058Y278137D01*
X437220Y278780D01*
X436244Y279184D01*
X435697Y279256D01*
D02*
G37*
G36*
X337272D02*
Y275776D01*
X340752D01*
X340680Y276323D01*
X340276Y277299D01*
X339633Y278137D01*
X338795Y278780D01*
X337819Y279184D01*
X337272Y279256D01*
D02*
G37*
G36*
X434697Y279256D02*
X434150Y279184D01*
X433174Y278780D01*
X432336Y278137D01*
X431693Y277299D01*
X431288Y276323D01*
X431216Y275776D01*
X434697D01*
Y279256D01*
D02*
G37*
G36*
X336272D02*
X335724Y279184D01*
X334748Y278780D01*
X333910Y278137D01*
X333267Y277299D01*
X332863Y276323D01*
X332791Y275776D01*
X336272D01*
Y279256D01*
D02*
G37*
G36*
X533622Y275276D02*
D01*
D01*
D01*
D02*
G37*
G36*
X434697Y274776D02*
X431216D01*
X431288Y274228D01*
X431693Y273252D01*
X432336Y272414D01*
X433174Y271771D01*
X434150Y271367D01*
X434697Y271295D01*
Y274776D01*
D02*
G37*
G36*
X336272D02*
X332791D01*
X332863Y274228D01*
X333267Y273252D01*
X333910Y272414D01*
X334748Y271771D01*
X335724Y271367D01*
X336272Y271295D01*
Y274776D01*
D02*
G37*
G36*
X533122Y274776D02*
X529641D01*
X529713Y274228D01*
X530118Y273252D01*
X530761Y272414D01*
X531599Y271771D01*
X532575Y271367D01*
X533122Y271295D01*
Y274776D01*
D02*
G37*
G36*
X537603D02*
X534122D01*
Y271295D01*
X534669Y271367D01*
X535645Y271771D01*
X536483Y272414D01*
X537126Y273252D01*
X537531Y274228D01*
X537603Y274776D01*
D02*
G37*
G36*
X523622Y279322D02*
X522575Y279184D01*
X521599Y278780D01*
X520761Y278137D01*
X520118Y277299D01*
X519713Y276323D01*
X519576Y275276D01*
X519713Y274228D01*
X520118Y273252D01*
X520761Y272414D01*
X521599Y271771D01*
X522575Y271367D01*
X523622Y271229D01*
X524669Y271367D01*
X525645Y271771D01*
X526483Y272414D01*
X527126Y273252D01*
X527531Y274228D01*
X527669Y275276D01*
X527531Y276323D01*
X527126Y277299D01*
X526483Y278137D01*
X525645Y278780D01*
X524669Y279184D01*
X523622Y279322D01*
D02*
G37*
G36*
X425197D02*
X424150Y279184D01*
X423174Y278780D01*
X422336Y278137D01*
X421693Y277299D01*
X421288Y276323D01*
X421150Y275276D01*
X421288Y274228D01*
X421693Y273252D01*
X422336Y272414D01*
X423174Y271771D01*
X424150Y271367D01*
X425197Y271229D01*
X426244Y271367D01*
X427220Y271771D01*
X428058Y272414D01*
X428701Y273252D01*
X429105Y274228D01*
X429243Y275276D01*
X429105Y276323D01*
X428701Y277299D01*
X428058Y278137D01*
X427220Y278780D01*
X426244Y279184D01*
X425197Y279322D01*
D02*
G37*
G36*
X326772D02*
X325724Y279184D01*
X324748Y278780D01*
X323910Y278137D01*
X323267Y277299D01*
X322863Y276323D01*
X322725Y275276D01*
X322863Y274228D01*
X323267Y273252D01*
X323910Y272414D01*
X324748Y271771D01*
X325724Y271367D01*
X326772Y271229D01*
X327819Y271367D01*
X328795Y271771D01*
X329633Y272414D01*
X330276Y273252D01*
X330680Y274228D01*
X330818Y275276D01*
X330680Y276323D01*
X330276Y277299D01*
X329633Y278137D01*
X328795Y278780D01*
X327819Y279184D01*
X326772Y279322D01*
D02*
G37*
G36*
X537634Y269287D02*
X529610D01*
Y261264D01*
X537634D01*
Y269287D01*
D02*
G37*
G36*
X523622Y269322D02*
X522575Y269184D01*
X521599Y268780D01*
X520761Y268137D01*
X520118Y267299D01*
X519713Y266323D01*
X519576Y265276D01*
X519713Y264228D01*
X520118Y263252D01*
X520761Y262414D01*
X521599Y261771D01*
X522575Y261367D01*
X523622Y261229D01*
X524669Y261367D01*
X525645Y261771D01*
X526483Y262414D01*
X527126Y263252D01*
X527531Y264228D01*
X527669Y265276D01*
X527531Y266323D01*
X527126Y267299D01*
X526483Y268137D01*
X525645Y268780D01*
X524669Y269184D01*
X523622Y269322D01*
D02*
G37*
G36*
X425197D02*
X424150Y269184D01*
X423174Y268780D01*
X422336Y268137D01*
X421693Y267299D01*
X421288Y266323D01*
X421150Y265276D01*
X421288Y264228D01*
X421693Y263252D01*
X422336Y262414D01*
X423174Y261771D01*
X424150Y261367D01*
X425197Y261229D01*
X426244Y261367D01*
X427220Y261771D01*
X428058Y262414D01*
X428701Y263252D01*
X429105Y264228D01*
X429243Y265276D01*
X429105Y266323D01*
X428701Y267299D01*
X428058Y268137D01*
X427220Y268780D01*
X426244Y269184D01*
X425197Y269322D01*
D02*
G37*
G36*
X326772D02*
X325724Y269184D01*
X324748Y268780D01*
X323910Y268137D01*
X323267Y267299D01*
X322863Y266323D01*
X322725Y265276D01*
X322863Y264228D01*
X323267Y263252D01*
X323910Y262414D01*
X324748Y261771D01*
X325724Y261367D01*
X326772Y261229D01*
X327819Y261367D01*
X328795Y261771D01*
X329633Y262414D01*
X330276Y263252D01*
X330680Y264228D01*
X330818Y265276D01*
X330680Y266323D01*
X330276Y267299D01*
X329633Y268137D01*
X328795Y268780D01*
X327819Y269184D01*
X326772Y269322D01*
D02*
G37*
G36*
X439178Y274776D02*
X435697D01*
Y271295D01*
X436244Y271367D01*
X436636Y271529D01*
X438416Y269749D01*
X438225Y269287D01*
X431185D01*
Y261264D01*
X439209D01*
Y268303D01*
X439671Y268495D01*
X440495Y267671D01*
Y254176D01*
X440361Y254120D01*
X439630Y253559D01*
X439069Y252828D01*
X438716Y251977D01*
X438662Y251563D01*
X445590D01*
X445536Y251977D01*
X445183Y252828D01*
X444622Y253559D01*
X443891Y254120D01*
X443757Y254176D01*
Y268347D01*
X443633Y268971D01*
X443280Y269500D01*
X438943Y273836D01*
X439105Y274228D01*
X439178Y274776D01*
D02*
G37*
G36*
X340752D02*
X337272D01*
Y271295D01*
X337819Y271367D01*
X338211Y271529D01*
X339991Y269749D01*
X339799Y269287D01*
X332760D01*
Y261264D01*
X340784D01*
Y268303D01*
X341245Y268495D01*
X341951Y267789D01*
Y253388D01*
X341818Y253333D01*
X341086Y252772D01*
X340525Y252041D01*
X340173Y251189D01*
X340118Y250776D01*
X347047D01*
X346993Y251189D01*
X346640Y252041D01*
X346079Y252772D01*
X345348Y253333D01*
X345214Y253388D01*
Y268465D01*
X345090Y269089D01*
X344736Y269618D01*
X340518Y273836D01*
X340680Y274228D01*
X340752Y274776D01*
D02*
G37*
G36*
X445590Y250563D02*
X442626D01*
Y247599D01*
X443040Y247653D01*
X443891Y248006D01*
X444622Y248567D01*
X445183Y249298D01*
X445536Y250149D01*
X445590Y250563D01*
D02*
G37*
G36*
X441626D02*
X438662D01*
X438716Y250149D01*
X439069Y249298D01*
X439630Y248567D01*
X440361Y248006D01*
X441212Y247653D01*
X441626Y247599D01*
Y250563D01*
D02*
G37*
G36*
X347047Y249776D02*
X344083D01*
Y246811D01*
X344496Y246866D01*
X345348Y247218D01*
X346079Y247779D01*
X346640Y248511D01*
X346993Y249362D01*
X347047Y249776D01*
D02*
G37*
G36*
X343083D02*
X340118D01*
X340173Y249362D01*
X340525Y248511D01*
X341086Y247779D01*
X341818Y247218D01*
X342669Y246866D01*
X343083Y246811D01*
Y249776D01*
D02*
G37*
G36*
X223098Y244051D02*
X214996D01*
Y235949D01*
X223098D01*
Y244051D01*
D02*
G37*
G36*
X18953Y244086D02*
X17895Y243947D01*
X16910Y243539D01*
X16063Y242889D01*
X15414Y242043D01*
X15006Y241058D01*
X14867Y240000D01*
X15006Y238942D01*
X15414Y237957D01*
X16063Y237111D01*
X16910Y236461D01*
X17895Y236053D01*
X18953Y235914D01*
X20010Y236053D01*
X20996Y236461D01*
X21842Y237111D01*
X22491Y237957D01*
X22900Y238942D01*
X23039Y240000D01*
X22900Y241058D01*
X22491Y242043D01*
X21842Y242889D01*
X20996Y243539D01*
X20010Y243947D01*
X18953Y244086D01*
D02*
G37*
G36*
X126437Y199465D02*
X116563D01*
Y189591D01*
X126437D01*
Y199465D01*
D02*
G37*
G36*
X55358Y199507D02*
X54069Y199337D01*
X52868Y198840D01*
X51837Y198049D01*
X51046Y197017D01*
X50548Y195816D01*
X50379Y194528D01*
X50548Y193239D01*
X51046Y192038D01*
X51837Y191006D01*
X52868Y190215D01*
X54069Y189718D01*
X55358Y189548D01*
X56647Y189718D01*
X57848Y190215D01*
X58879Y191006D01*
X59671Y192038D01*
X60168Y193239D01*
X60338Y194528D01*
X60168Y195816D01*
X59671Y197017D01*
X58879Y198049D01*
X57848Y198840D01*
X56647Y199337D01*
X55358Y199507D01*
D02*
G37*
G36*
X27799D02*
X26510Y199337D01*
X25309Y198840D01*
X24278Y198049D01*
X23487Y197017D01*
X22989Y195816D01*
X22820Y194528D01*
X22989Y193239D01*
X23487Y192038D01*
X24278Y191006D01*
X25309Y190215D01*
X26510Y189718D01*
X27799Y189548D01*
X29088Y189718D01*
X30289Y190215D01*
X31320Y191006D01*
X32112Y192038D01*
X32609Y193239D01*
X32779Y194528D01*
X32609Y195816D01*
X32112Y197017D01*
X31320Y198049D01*
X30289Y198840D01*
X29088Y199337D01*
X27799Y199507D01*
D02*
G37*
G36*
X121500Y169980D02*
X120211Y169810D01*
X119010Y169313D01*
X117979Y168521D01*
X117188Y167490D01*
X116690Y166289D01*
X116520Y165000D01*
X116690Y163711D01*
X117188Y162510D01*
X117979Y161479D01*
X119010Y160687D01*
X120211Y160190D01*
X121500Y160020D01*
X122789Y160190D01*
X123990Y160687D01*
X125021Y161479D01*
X125812Y162510D01*
X126310Y163711D01*
X126480Y165000D01*
X126310Y166289D01*
X125812Y167490D01*
X125021Y168521D01*
X123990Y169313D01*
X122789Y169810D01*
X121500Y169980D01*
D02*
G37*
G36*
X41579D02*
X40290Y169810D01*
X39089Y169313D01*
X38058Y168521D01*
X37266Y167490D01*
X36769Y166289D01*
X36599Y165000D01*
X36769Y163711D01*
X37266Y162510D01*
X38058Y161479D01*
X39089Y160687D01*
X40290Y160190D01*
X41579Y160020D01*
X42868Y160190D01*
X44069Y160687D01*
X45100Y161479D01*
X45891Y162510D01*
X46389Y163711D01*
X46558Y165000D01*
X46389Y166289D01*
X45891Y167490D01*
X45100Y168521D01*
X44069Y169313D01*
X42868Y169810D01*
X41579Y169980D01*
D02*
G37*
G36*
X61500Y148689D02*
X60545Y148563D01*
X59655Y148195D01*
X58891Y147608D01*
X58305Y146844D01*
X57937Y145955D01*
X57811Y145000D01*
X57937Y144045D01*
X58305Y143156D01*
X58891Y142392D01*
X59655Y141805D01*
X60545Y141437D01*
X61500Y141311D01*
X62455Y141437D01*
X63345Y141805D01*
X64109Y142392D01*
X64695Y143156D01*
X65063Y144045D01*
X65189Y145000D01*
X65063Y145955D01*
X64695Y146844D01*
X64109Y147608D01*
X63345Y148195D01*
X62455Y148563D01*
X61500Y148689D01*
D02*
G37*
G36*
X44862Y138362D02*
X38138D01*
Y131638D01*
X44862D01*
Y138362D01*
D02*
G37*
G36*
X22468Y139003D02*
X20531D01*
X19496Y138866D01*
X18530Y138467D01*
X17701Y137830D01*
X17065Y137001D01*
X16665Y136036D01*
X16529Y135000D01*
X16665Y133964D01*
X17065Y132999D01*
X17701Y132170D01*
X18530Y131534D01*
X19496Y131134D01*
X20531Y130997D01*
X22468D01*
X23505Y131134D01*
X24470Y131534D01*
X25299Y132170D01*
X25935Y132999D01*
X26335Y133964D01*
X26471Y135000D01*
X26335Y136036D01*
X25935Y137001D01*
X25299Y137830D01*
X24470Y138467D01*
X23505Y138866D01*
X22468Y139003D01*
D02*
G37*
G36*
X156500Y133590D02*
X155571Y133467D01*
X154705Y133109D01*
X153962Y132538D01*
X153391Y131795D01*
X153033Y130929D01*
X152910Y130000D01*
X153033Y129071D01*
X153391Y128205D01*
X153962Y127462D01*
X154705Y126891D01*
X155571Y126533D01*
X156500Y126410D01*
X157429Y126533D01*
X158295Y126891D01*
X159038Y127462D01*
X159609Y128205D01*
X159967Y129071D01*
X160090Y130000D01*
X159967Y130929D01*
X159609Y131795D01*
X159038Y132538D01*
X158295Y133109D01*
X157429Y133467D01*
X156500Y133590D01*
D02*
G37*
G36*
X101500D02*
X100571Y133467D01*
X99705Y133109D01*
X98962Y132538D01*
X98391Y131795D01*
X98033Y130929D01*
X97910Y130000D01*
X98033Y129071D01*
X98391Y128205D01*
X98962Y127462D01*
X99705Y126891D01*
X100571Y126533D01*
X101500Y126410D01*
X102429Y126533D01*
X103295Y126891D01*
X104038Y127462D01*
X104609Y128205D01*
X104967Y129071D01*
X105090Y130000D01*
X104967Y130929D01*
X104609Y131795D01*
X104038Y132538D01*
X103295Y133109D01*
X102429Y133467D01*
X101500Y133590D01*
D02*
G37*
G36*
X41500Y128391D02*
X40622Y128276D01*
X39804Y127937D01*
X39102Y127398D01*
X38563Y126696D01*
X38224Y125878D01*
X38109Y125000D01*
X38224Y124122D01*
X38563Y123304D01*
X39102Y122602D01*
X39804Y122063D01*
X40622Y121724D01*
X41500Y121609D01*
X42378Y121724D01*
X43196Y122063D01*
X43898Y122602D01*
X44437Y123304D01*
X44776Y124122D01*
X44891Y125000D01*
X44776Y125878D01*
X44437Y126696D01*
X43898Y127398D01*
X43196Y127937D01*
X42378Y128276D01*
X41500Y128391D01*
D02*
G37*
G36*
X26437Y128969D02*
X16563D01*
Y121031D01*
X26437D01*
Y128969D01*
D02*
G37*
G36*
X41500Y118391D02*
X40622Y118276D01*
X39804Y117937D01*
X39102Y117398D01*
X38563Y116696D01*
X38224Y115878D01*
X38109Y115000D01*
X38224Y114122D01*
X38563Y113304D01*
X39102Y112602D01*
X39804Y112063D01*
X40622Y111724D01*
X41500Y111609D01*
X42378Y111724D01*
X43196Y112063D01*
X43898Y112602D01*
X44437Y113304D01*
X44776Y114122D01*
X44891Y115000D01*
X44776Y115878D01*
X44437Y116696D01*
X43898Y117398D01*
X43196Y117937D01*
X42378Y118276D01*
X41500Y118391D01*
D02*
G37*
G36*
X160059Y113874D02*
X152941D01*
Y106756D01*
X160059D01*
Y113874D01*
D02*
G37*
G36*
X105059D02*
X97941D01*
Y106756D01*
X105059D01*
Y113874D01*
D02*
G37*
G36*
X65158Y113224D02*
X57842D01*
Y105909D01*
X65158D01*
Y113224D01*
D02*
G37*
G36*
X41500Y108391D02*
X40622Y108276D01*
X39804Y107937D01*
X39102Y107398D01*
X38563Y106696D01*
X38224Y105878D01*
X38109Y105000D01*
X38224Y104122D01*
X38563Y103304D01*
X39102Y102602D01*
X39804Y102063D01*
X40622Y101724D01*
X41500Y101609D01*
X42378Y101724D01*
X43196Y102063D01*
X43898Y102602D01*
X44437Y103304D01*
X44776Y104122D01*
X44891Y105000D01*
X44776Y105878D01*
X44437Y106696D01*
X43898Y107398D01*
X43196Y107937D01*
X42378Y108276D01*
X41500Y108391D01*
D02*
G37*
G36*
X22468Y109003D02*
X20531D01*
X19496Y108866D01*
X18530Y108466D01*
X17701Y107830D01*
X17065Y107001D01*
X16665Y106036D01*
X16529Y105000D01*
X16665Y103964D01*
X17065Y102999D01*
X17701Y102170D01*
X18530Y101533D01*
X19496Y101134D01*
X20531Y100997D01*
X22468D01*
X23505Y101134D01*
X24470Y101533D01*
X25299Y102170D01*
X25935Y102999D01*
X26335Y103964D01*
X26471Y105000D01*
X26335Y106036D01*
X25935Y107001D01*
X25299Y107830D01*
X24470Y108466D01*
X23505Y108866D01*
X22468Y109003D01*
D02*
G37*
G36*
X26437Y98968D02*
X16563D01*
Y91031D01*
X26437D01*
Y98968D01*
D02*
G37*
G36*
X575500Y18921D02*
Y15500D01*
X578921D01*
X578851Y16032D01*
X578453Y16993D01*
X577819Y17819D01*
X576993Y18453D01*
X576032Y18851D01*
X575500Y18921D01*
D02*
G37*
G36*
X574500D02*
X573968Y18851D01*
X573007Y18453D01*
X572181Y17819D01*
X571547Y16993D01*
X571149Y16032D01*
X571079Y15500D01*
X574500D01*
Y18921D01*
D02*
G37*
G36*
X578921Y14500D02*
X575500D01*
Y11079D01*
X576032Y11149D01*
X576993Y11547D01*
X577819Y12181D01*
X578453Y13007D01*
X578851Y13968D01*
X578921Y14500D01*
D02*
G37*
G36*
X574500D02*
X571079D01*
X571149Y13968D01*
X571547Y13007D01*
X572181Y12181D01*
X573007Y11547D01*
X573968Y11149D01*
X574500Y11079D01*
Y14500D01*
D02*
G37*
%LPD*%
G36*
X519711Y326303D02*
X519576Y325276D01*
X519713Y324228D01*
X520118Y323252D01*
X520502Y322751D01*
X520256Y322251D01*
X440184D01*
X439423Y322100D01*
X438778Y321669D01*
X436279Y319170D01*
X436244Y319184D01*
X435197Y319322D01*
X434150Y319184D01*
X434115Y319170D01*
X431615Y321669D01*
X430970Y322100D01*
X430209Y322251D01*
X428563D01*
X428317Y322751D01*
X428701Y323252D01*
X429105Y324228D01*
X429243Y325276D01*
X429108Y326303D01*
X431829Y329024D01*
X432670D01*
X432840Y328524D01*
X432336Y328137D01*
X431693Y327299D01*
X431288Y326323D01*
X431150Y325276D01*
X431288Y324228D01*
X431693Y323252D01*
X432336Y322414D01*
X433174Y321771D01*
X434150Y321367D01*
X435197Y321229D01*
X436244Y321367D01*
X437220Y321771D01*
X438058Y322414D01*
X438701Y323252D01*
X439105Y324228D01*
X439243Y325276D01*
X439105Y326323D01*
X438701Y327299D01*
X438058Y328137D01*
X437554Y328524D01*
X437723Y329024D01*
X516990D01*
X519711Y326303D01*
D02*
G37*
G36*
X421286D02*
X421150Y325276D01*
X421288Y324228D01*
X421693Y323252D01*
X422077Y322751D01*
X421831Y322251D01*
X341759D01*
X340998Y322100D01*
X340353Y321669D01*
X337854Y319170D01*
X337819Y319184D01*
X336772Y319322D01*
X335724Y319184D01*
X335689Y319170D01*
X333190Y321669D01*
X332545Y322100D01*
X331784Y322251D01*
X330138D01*
X329891Y322751D01*
X330276Y323252D01*
X330680Y324228D01*
X330818Y325276D01*
X330683Y326303D01*
X333404Y329024D01*
X334245D01*
X334415Y328524D01*
X333910Y328137D01*
X333267Y327299D01*
X332863Y326323D01*
X332725Y325276D01*
X332863Y324228D01*
X333267Y323252D01*
X333910Y322414D01*
X334748Y321771D01*
X335724Y321367D01*
X336772Y321229D01*
X337819Y321367D01*
X338795Y321771D01*
X339633Y322414D01*
X340276Y323252D01*
X340680Y324228D01*
X340818Y325276D01*
X340680Y326323D01*
X340276Y327299D01*
X339633Y328137D01*
X339129Y328524D01*
X339298Y329024D01*
X418565D01*
X421286Y326303D01*
D02*
G37*
D16*
X156500Y130000D02*
D03*
X101500D02*
D03*
D17*
X156500Y110315D02*
D03*
X101500D02*
D03*
D18*
X113016Y401614D02*
D03*
X113252Y481614D02*
D03*
X35516Y401614D02*
D03*
X35752Y481614D02*
D03*
X204000Y518780D02*
D03*
Y481220D02*
D03*
X219000Y408779D02*
D03*
Y371220D02*
D03*
Y461279D02*
D03*
Y423721D02*
D03*
X204000D02*
D03*
Y461279D02*
D03*
X18953Y240000D02*
D03*
X219047Y287500D02*
D03*
X18953Y337500D02*
D03*
D19*
X142543Y401614D02*
D03*
X142780Y481614D02*
D03*
X65043Y401614D02*
D03*
X65280Y481614D02*
D03*
X219047Y240000D02*
D03*
X18953Y287500D02*
D03*
X219047Y337500D02*
D03*
D21*
X27799Y194528D02*
D03*
X55358D02*
D03*
X41579Y165000D02*
D03*
X121500D02*
D03*
D22*
Y194528D02*
D03*
D25*
X41500Y105000D02*
D03*
Y115000D02*
D03*
Y125000D02*
D03*
D26*
Y135000D02*
D03*
D35*
X82500Y443740D02*
D03*
Y436260D02*
D03*
X95000Y443740D02*
D03*
Y436260D02*
D03*
X229000Y481260D02*
D03*
Y488740D02*
D03*
X219000Y481260D02*
D03*
Y488740D02*
D03*
X229000Y371260D02*
D03*
Y378740D02*
D03*
X196500Y396240D02*
D03*
Y388760D02*
D03*
Y368760D02*
D03*
Y376240D02*
D03*
D36*
X95000Y436260D02*
X118740D01*
X125000Y407500D02*
Y430000D01*
X118740Y436260D02*
X125000Y430000D01*
Y407500D02*
X130886Y401614D01*
X142543D01*
X81303Y443740D02*
X94000D01*
X74260D02*
X81500D01*
X65280Y452720D02*
X74260Y443740D01*
X65280Y452720D02*
Y481614D01*
X36320Y402418D02*
Y428320D01*
X44260Y436260D02*
X81500D01*
X36320Y428320D02*
X44260Y436260D01*
X332559Y331063D02*
X419410D01*
X326772Y325276D02*
X332559Y331063D01*
X419410D02*
X425197Y325276D01*
X430984Y331063D01*
X517835D02*
X523622Y325276D01*
X430984Y331063D02*
X517835D01*
X185240Y368760D02*
X196500D01*
X179000Y375000D02*
X185240Y368760D01*
D37*
X219000Y461279D02*
Y481181D01*
X204000Y481220D02*
X218961D01*
X219000Y481181D01*
X218961Y481220D02*
X219000Y481260D01*
X229000D01*
X322763Y320263D02*
X322763Y320263D01*
X210000Y360000D02*
X249737Y320263D01*
X322763D01*
X322763Y320263D02*
X331784D01*
X210000Y360000D02*
Y452280D01*
X219000Y461279D01*
X528635Y320263D02*
X533622Y315276D01*
X440184Y320263D02*
X528635D01*
X435197Y315276D02*
X440184Y320263D01*
X430209D02*
X435197Y315276D01*
X336772D02*
X341759Y320263D01*
X430209D01*
X331784D02*
X336772Y315276D01*
X229000Y371260D02*
X229041Y371219D01*
X219039Y371260D02*
X229000D01*
X219000Y371220D02*
X219039Y371260D01*
X179000Y395000D02*
X180240Y396240D01*
X196500D01*
D38*
X435197Y275276D02*
X442126Y268347D01*
Y251063D02*
Y268347D01*
X336772Y275276D02*
X343583Y268465D01*
Y250276D02*
Y268465D01*
X425197Y295276D02*
X426913D01*
X431685Y290504D02*
X437567D01*
X426913Y295276D02*
X431685Y290504D01*
X437567D02*
X442339Y295276D01*
X523622D01*
X424409Y296063D02*
X425197Y295276D01*
X344611Y296063D02*
X424409D01*
X338736Y290188D02*
X344611Y296063D01*
X331859Y290188D02*
X338736D01*
X326772Y295276D02*
X331859Y290188D01*
D39*
X61500Y145000D02*
D03*
D40*
Y109567D02*
D03*
D41*
X533622Y325276D02*
D03*
Y315276D02*
D03*
Y305276D02*
D03*
Y275276D02*
D03*
Y285276D02*
D03*
Y295276D02*
D03*
X523622Y325276D02*
D03*
Y315276D02*
D03*
Y305276D02*
D03*
Y265276D02*
D03*
Y275276D02*
D03*
Y285276D02*
D03*
Y295276D02*
D03*
X435197Y325276D02*
D03*
Y315276D02*
D03*
Y305276D02*
D03*
Y275276D02*
D03*
Y285276D02*
D03*
Y295276D02*
D03*
X425197Y325276D02*
D03*
Y315276D02*
D03*
Y305276D02*
D03*
Y265276D02*
D03*
Y275276D02*
D03*
Y285276D02*
D03*
Y295276D02*
D03*
X336772Y325276D02*
D03*
Y315276D02*
D03*
Y305276D02*
D03*
Y275276D02*
D03*
Y285276D02*
D03*
Y295276D02*
D03*
X326772Y325276D02*
D03*
Y315276D02*
D03*
Y305276D02*
D03*
Y265276D02*
D03*
Y275276D02*
D03*
Y285276D02*
D03*
Y295276D02*
D03*
D42*
X533622Y265276D02*
D03*
X435197D02*
D03*
X336772D02*
D03*
D43*
X21500Y125000D02*
D03*
Y95000D02*
D03*
D44*
Y135000D02*
D03*
Y105000D02*
D03*
D45*
X179000Y375000D02*
D03*
Y385000D02*
D03*
Y432500D02*
D03*
Y442500D02*
D03*
Y490000D02*
D03*
Y500000D02*
D03*
D46*
Y395000D02*
D03*
Y452500D02*
D03*
Y510000D02*
D03*
D47*
X442126Y251063D02*
D03*
X343583Y250276D02*
D03*
D48*
X575000Y15000D02*
D03*
X580000Y582500D02*
D03*
X7500D02*
D03*
M02*
