G04*
G04 #@! TF.GenerationSoftware,Altium Limited,Altium Designer,20.0.14 (345)*
G04*
G04 Layer_Color=1930808*
%FSLAX25Y25*%
%MOIN*%
G70*
G01*
G75*
%ADD12C,0.00787*%
%ADD51C,0.00394*%
%ADD52C,0.00197*%
D12*
X156500Y94173D02*
X157495Y94192D01*
X158489Y94249D01*
X159480Y94345D01*
X160467Y94478D01*
X161447Y94648D01*
X162421Y94857D01*
X163385Y95102D01*
X164340Y95384D01*
X165283Y95703D01*
X166213Y96057D01*
X167129Y96447D01*
X168030Y96871D01*
X168913Y97330D01*
X169779Y97822D01*
X170624Y98347D01*
X171449Y98904D01*
X172252Y99492D01*
X173032Y100111D01*
X173788Y100759D01*
X174518Y101435D01*
X175222Y102139D01*
X175899Y102870D01*
X176547Y103625D01*
X177165Y104405D01*
X177753Y105208D01*
X178310Y106033D01*
X178835Y106879D01*
X179327Y107744D01*
X179786Y108628D01*
X180211Y109528D01*
X180601Y110444D01*
X180955Y111374D01*
X181273Y112318D01*
X181555Y113272D01*
X181801Y114237D01*
X182009Y115210D01*
X182180Y116191D01*
X182313Y117178D01*
X182408Y118168D01*
X182465Y119162D01*
X182484Y120158D01*
X182465Y121153D01*
X182408Y122147D01*
X182313Y123138D01*
X182180Y124124D01*
X182009Y125105D01*
X181801Y126078D01*
X181555Y127043D01*
X181273Y127998D01*
X180955Y128941D01*
X180600Y129871D01*
X180211Y130787D01*
X179786Y131687D01*
X179327Y132571D01*
X178835Y133436D01*
X178310Y134282D01*
X177753Y135107D01*
X177165Y135910D01*
X176546Y136690D01*
X175899Y137446D01*
X175222Y138176D01*
X174518Y138880D01*
X173788Y139556D01*
X173032Y140204D01*
X172252Y140823D01*
X171449Y141411D01*
X170624Y141968D01*
X169778Y142493D01*
X168913Y142985D01*
X168029Y143444D01*
X167129Y143868D01*
X166213Y144258D01*
X165283Y144612D01*
X164340Y144931D01*
X163385Y145213D01*
X162420Y145458D01*
X161447Y145667D01*
X160466Y145837D01*
X159480Y145970D01*
X158489Y146065D01*
X157495Y146123D01*
X156500Y146142D01*
X155505Y146123D01*
X154511Y146065D01*
X153520Y145970D01*
X152533Y145837D01*
X151553Y145666D01*
X150579Y145458D01*
X149615Y145213D01*
X148660Y144931D01*
X147717Y144612D01*
X146787Y144258D01*
X145871Y143868D01*
X144970Y143444D01*
X144087Y142985D01*
X143222Y142493D01*
X142376Y141968D01*
X141551Y141411D01*
X140748Y140823D01*
X139968Y140204D01*
X139212Y139556D01*
X138482Y138880D01*
X137778Y138176D01*
X137101Y137445D01*
X136453Y136690D01*
X135835Y135910D01*
X135247Y135107D01*
X134690Y134282D01*
X134165Y133436D01*
X133672Y132571D01*
X133214Y131687D01*
X132789Y130787D01*
X132399Y129871D01*
X132045Y128941D01*
X131727Y127997D01*
X131445Y127043D01*
X131199Y126078D01*
X130991Y125105D01*
X130820Y124124D01*
X130687Y123137D01*
X130592Y122146D01*
X130535Y121153D01*
X130516Y120157D01*
X130535Y119162D01*
X130592Y118168D01*
X130687Y117177D01*
X130820Y116191D01*
X130991Y115210D01*
X131199Y114237D01*
X131445Y113272D01*
X131727Y112317D01*
X132045Y111374D01*
X132400Y110444D01*
X132789Y109528D01*
X133214Y108628D01*
X133673Y107744D01*
X134165Y106879D01*
X134690Y106033D01*
X135247Y105208D01*
X135835Y104405D01*
X136453Y103625D01*
X137101Y102869D01*
X137778Y102139D01*
X138482Y101435D01*
X139212Y100759D01*
X139968Y100111D01*
X140748Y99492D01*
X141551Y98904D01*
X142376Y98347D01*
X143222Y97822D01*
X144087Y97330D01*
X144970Y96871D01*
X145871Y96447D01*
X146787Y96057D01*
X147717Y95703D01*
X148660Y95384D01*
X149615Y95102D01*
X150580Y94857D01*
X151553Y94648D01*
X152534Y94478D01*
X153520Y94345D01*
X154511Y94249D01*
X155505Y94192D01*
X156500Y94173D01*
X101500D02*
X102495Y94192D01*
X103489Y94249D01*
X104480Y94345D01*
X105466Y94478D01*
X106447Y94648D01*
X107421Y94857D01*
X108385Y95102D01*
X109340Y95384D01*
X110283Y95703D01*
X111213Y96057D01*
X112129Y96447D01*
X113030Y96871D01*
X113913Y97330D01*
X114778Y97822D01*
X115624Y98347D01*
X116449Y98904D01*
X117252Y99492D01*
X118032Y100111D01*
X118788Y100759D01*
X119518Y101435D01*
X120222Y102139D01*
X120899Y102870D01*
X121547Y103625D01*
X122165Y104405D01*
X122753Y105208D01*
X123310Y106033D01*
X123835Y106879D01*
X124328Y107744D01*
X124786Y108628D01*
X125211Y109528D01*
X125601Y110444D01*
X125955Y111374D01*
X126273Y112318D01*
X126555Y113272D01*
X126801Y114237D01*
X127009Y115210D01*
X127180Y116191D01*
X127313Y117178D01*
X127408Y118168D01*
X127465Y119162D01*
X127484Y120158D01*
X127465Y121153D01*
X127408Y122147D01*
X127313Y123138D01*
X127180Y124124D01*
X127009Y125105D01*
X126801Y126078D01*
X126555Y127043D01*
X126273Y127998D01*
X125955Y128941D01*
X125600Y129871D01*
X125211Y130787D01*
X124786Y131687D01*
X124327Y132571D01*
X123835Y133436D01*
X123310Y134282D01*
X122753Y135107D01*
X122165Y135910D01*
X121546Y136690D01*
X120898Y137446D01*
X120222Y138176D01*
X119518Y138880D01*
X118788Y139556D01*
X118032Y140204D01*
X117252Y140823D01*
X116449Y141411D01*
X115624Y141968D01*
X114778Y142493D01*
X113913Y142985D01*
X113030Y143444D01*
X112129Y143868D01*
X111213Y144258D01*
X110283Y144612D01*
X109340Y144931D01*
X108385Y145213D01*
X107420Y145458D01*
X106447Y145667D01*
X105466Y145837D01*
X104480Y145970D01*
X103489Y146065D01*
X102495Y146123D01*
X101500Y146142D01*
X100505Y146123D01*
X99511Y146065D01*
X98520Y145970D01*
X97534Y145837D01*
X96553Y145666D01*
X95579Y145458D01*
X94615Y145213D01*
X93660Y144931D01*
X92717Y144612D01*
X91787Y144258D01*
X90871Y143868D01*
X89970Y143444D01*
X89087Y142985D01*
X88222Y142493D01*
X87376Y141968D01*
X86551Y141411D01*
X85748Y140823D01*
X84968Y140204D01*
X84212Y139556D01*
X83482Y138880D01*
X82778Y138176D01*
X82101Y137445D01*
X81453Y136690D01*
X80835Y135910D01*
X80247Y135107D01*
X79690Y134282D01*
X79165Y133436D01*
X78672Y132571D01*
X78214Y131687D01*
X77789Y130787D01*
X77399Y129871D01*
X77045Y128941D01*
X76727Y127997D01*
X76445Y127043D01*
X76199Y126078D01*
X75991Y125105D01*
X75820Y124124D01*
X75687Y123137D01*
X75592Y122146D01*
X75535Y121153D01*
X75516Y120157D01*
X75535Y119162D01*
X75592Y118168D01*
X75687Y117177D01*
X75820Y116191D01*
X75991Y115210D01*
X76199Y114237D01*
X76445Y113272D01*
X76727Y112317D01*
X77045Y111374D01*
X77400Y110444D01*
X77789Y109528D01*
X78214Y108628D01*
X78673Y107744D01*
X79165Y106879D01*
X79690Y106033D01*
X80247Y105208D01*
X80835Y104405D01*
X81454Y103625D01*
X82102Y102869D01*
X82778Y102139D01*
X83482Y101435D01*
X84212Y100759D01*
X84968Y100111D01*
X85748Y99492D01*
X86551Y98904D01*
X87376Y98347D01*
X88222Y97822D01*
X89087Y97330D01*
X89970Y96871D01*
X90871Y96447D01*
X91787Y96057D01*
X92717Y95703D01*
X93660Y95384D01*
X94615Y95102D01*
X95580Y94857D01*
X96553Y94648D01*
X97534Y94478D01*
X98520Y94345D01*
X99511Y94249D01*
X100505Y94192D01*
X101500Y94173D01*
X160653Y401614D02*
X160638Y402617D01*
X160592Y403618D01*
X160516Y404618D01*
X160409Y405615D01*
X160272Y406608D01*
X160105Y407597D01*
X159907Y408580D01*
X159680Y409556D01*
X159423Y410526D01*
X159136Y411486D01*
X158821Y412438D01*
X158476Y413380D01*
X158103Y414310D01*
X157702Y415229D01*
X157273Y416135D01*
X156816Y417028D01*
X156333Y417906D01*
X155822Y418769D01*
X155286Y419617D01*
X154724Y420447D01*
X154137Y421260D01*
X153526Y422055D01*
X152891Y422830D01*
X152232Y423586D01*
X151551Y424322D01*
X150847Y425036D01*
X150122Y425729D01*
X149376Y426399D01*
X148610Y427046D01*
X147825Y427669D01*
X147021Y428269D01*
X146199Y428843D01*
X145360Y429392D01*
X144505Y429915D01*
X143634Y430412D01*
X142749Y430882D01*
X141849Y431325D01*
X140937Y431741D01*
X140012Y432128D01*
X139075Y432487D01*
X138129Y432817D01*
X137172Y433118D01*
X136207Y433390D01*
X135234Y433632D01*
X134254Y433844D01*
X133268Y434027D01*
X132278Y434179D01*
X131282Y434301D01*
X130284Y434393D01*
X129283Y434454D01*
X128281Y434484D01*
X127278D01*
X126276Y434454D01*
X125275Y434393D01*
X124277Y434301D01*
X123282Y434179D01*
X122291Y434027D01*
X121305Y433844D01*
X120325Y433632D01*
X119352Y433390D01*
X118387Y433118D01*
X117430Y432817D01*
X116484Y432486D01*
X115547Y432128D01*
X114622Y431741D01*
X113710Y431325D01*
X112810Y430882D01*
X111925Y430412D01*
X111054Y429915D01*
X110199Y429392D01*
X109360Y428843D01*
X108538Y428269D01*
X107734Y427669D01*
X106949Y427046D01*
X106183Y426399D01*
X105437Y425729D01*
X104712Y425036D01*
X104008Y424322D01*
X103327Y423586D01*
X102668Y422830D01*
X102033Y422055D01*
X101422Y421260D01*
X100835Y420447D01*
X100273Y419617D01*
X99737Y418769D01*
X99227Y417906D01*
X98743Y417028D01*
X98286Y416135D01*
X97857Y415229D01*
X97456Y414310D01*
X97083Y413379D01*
X96738Y412438D01*
X96423Y411486D01*
X96136Y410525D01*
X95879Y409556D01*
X95652Y408580D01*
X95455Y407597D01*
X95287Y406608D01*
X95150Y405615D01*
X95043Y404618D01*
X94967Y403618D01*
X94921Y402617D01*
X94906Y401614D01*
X94921Y400612D01*
X94967Y399610D01*
X95043Y398610D01*
X95150Y397613D01*
X95287Y396620D01*
X95455Y395632D01*
X95652Y394649D01*
X95879Y393672D01*
X96136Y392703D01*
X96423Y391742D01*
X96738Y390790D01*
X97083Y389849D01*
X97456Y388918D01*
X97857Y387999D01*
X98286Y387093D01*
X98743Y386200D01*
X99227Y385322D01*
X99737Y384459D01*
X100273Y383612D01*
X100835Y382781D01*
X101422Y381968D01*
X102033Y381174D01*
X102668Y380398D01*
X103327Y379642D01*
X104008Y378906D01*
X104712Y378192D01*
X105437Y377500D01*
X106183Y376829D01*
X106949Y376182D01*
X107734Y375559D01*
X108538Y374960D01*
X109360Y374385D01*
X110199Y373836D01*
X111054Y373313D01*
X111925Y372816D01*
X112810Y372346D01*
X113710Y371903D01*
X114623Y371488D01*
X115547Y371101D01*
X116484Y370742D01*
X117430Y370412D01*
X118387Y370111D01*
X119352Y369839D01*
X120325Y369597D01*
X121305Y369384D01*
X122291Y369202D01*
X123282Y369049D01*
X124277Y368927D01*
X125275Y368836D01*
X126276Y368775D01*
X127278Y368744D01*
X128281D01*
X129283Y368775D01*
X130284Y368836D01*
X131282Y368927D01*
X132277Y369049D01*
X133268Y369202D01*
X134254Y369384D01*
X135234Y369597D01*
X136207Y369839D01*
X137172Y370111D01*
X138129Y370412D01*
X139075Y370742D01*
X140012Y371101D01*
X140936Y371488D01*
X141849Y371903D01*
X142748Y372346D01*
X143634Y372816D01*
X144505Y373313D01*
X145360Y373836D01*
X146199Y374385D01*
X147021Y374960D01*
X147825Y375559D01*
X148610Y376182D01*
X149376Y376829D01*
X150122Y377499D01*
X150847Y378192D01*
X151550Y378906D01*
X152232Y379642D01*
X152891Y380398D01*
X153526Y381173D01*
X154137Y381968D01*
X154724Y382781D01*
X155286Y383611D01*
X155822Y384459D01*
X156332Y385322D01*
X156816Y386200D01*
X157272Y387093D01*
X157702Y387999D01*
X158103Y388918D01*
X158476Y389848D01*
X158820Y390790D01*
X159136Y391742D01*
X159423Y392703D01*
X159680Y393672D01*
X159907Y394648D01*
X160105Y395631D01*
X160272Y396620D01*
X160409Y397613D01*
X160516Y398610D01*
X160592Y399610D01*
X160638Y400611D01*
X160653Y401614D01*
X160890Y481614D02*
X160874Y482617D01*
X160829Y483618D01*
X160752Y484618D01*
X160645Y485615D01*
X160508Y486608D01*
X160341Y487597D01*
X160143Y488580D01*
X159916Y489556D01*
X159659Y490525D01*
X159372Y491486D01*
X159057Y492438D01*
X158712Y493380D01*
X158339Y494310D01*
X157938Y495229D01*
X157509Y496135D01*
X157052Y497028D01*
X156569Y497906D01*
X156059Y498769D01*
X155522Y499617D01*
X154961Y500447D01*
X154374Y501260D01*
X153762Y502055D01*
X153127Y502830D01*
X152468Y503586D01*
X151787Y504322D01*
X151083Y505036D01*
X150358Y505729D01*
X149612Y506399D01*
X148847Y507046D01*
X148061Y507669D01*
X147257Y508269D01*
X146436Y508843D01*
X145597Y509392D01*
X144741Y509915D01*
X143870Y510412D01*
X142985Y510882D01*
X142085Y511325D01*
X141173Y511740D01*
X140248Y512128D01*
X139312Y512487D01*
X138365Y512817D01*
X137408Y513118D01*
X136443Y513390D01*
X135470Y513632D01*
X134491Y513844D01*
X133505Y514027D01*
X132514Y514179D01*
X131518Y514301D01*
X130520Y514393D01*
X129519Y514454D01*
X128517Y514484D01*
X127514D01*
X126512Y514454D01*
X125511Y514393D01*
X124513Y514301D01*
X123518Y514179D01*
X122527Y514027D01*
X121541Y513844D01*
X120561Y513632D01*
X119588Y513390D01*
X118623Y513118D01*
X117667Y512817D01*
X116720Y512487D01*
X115784Y512128D01*
X114859Y511740D01*
X113946Y511325D01*
X113047Y510882D01*
X112161Y510412D01*
X111290Y509915D01*
X110435Y509392D01*
X109596Y508843D01*
X108774Y508269D01*
X107970Y507669D01*
X107185Y507046D01*
X106419Y506399D01*
X105673Y505729D01*
X104948Y505036D01*
X104245Y504322D01*
X103563Y503586D01*
X102904Y502830D01*
X102269Y502055D01*
X101658Y501260D01*
X101071Y500447D01*
X100509Y499617D01*
X99973Y498769D01*
X99463Y497906D01*
X98979Y497028D01*
X98523Y496135D01*
X98094Y495229D01*
X97692Y494310D01*
X97319Y493379D01*
X96975Y492438D01*
X96659Y491486D01*
X96373Y490525D01*
X96115Y489556D01*
X95888Y488580D01*
X95691Y487597D01*
X95523Y486608D01*
X95386Y485615D01*
X95279Y484618D01*
X95203Y483618D01*
X95157Y482617D01*
X95142Y481614D01*
X95157Y480612D01*
X95203Y479610D01*
X95279Y478610D01*
X95386Y477613D01*
X95523Y476620D01*
X95691Y475632D01*
X95888Y474649D01*
X96115Y473672D01*
X96373Y472703D01*
X96659Y471742D01*
X96975Y470790D01*
X97319Y469849D01*
X97692Y468918D01*
X98094Y467999D01*
X98523Y467093D01*
X98979Y466200D01*
X99463Y465322D01*
X99973Y464459D01*
X100509Y463612D01*
X101071Y462781D01*
X101658Y461968D01*
X102269Y461174D01*
X102905Y460398D01*
X103563Y459642D01*
X104245Y458907D01*
X104948Y458192D01*
X105673Y457500D01*
X106419Y456829D01*
X107185Y456182D01*
X107970Y455559D01*
X108774Y454960D01*
X109596Y454385D01*
X110435Y453836D01*
X111290Y453313D01*
X112161Y452816D01*
X113047Y452346D01*
X113946Y451903D01*
X114859Y451488D01*
X115784Y451101D01*
X116720Y450742D01*
X117667Y450412D01*
X118623Y450111D01*
X119588Y449839D01*
X120561Y449597D01*
X121541Y449384D01*
X122527Y449202D01*
X123518Y449049D01*
X124513Y448927D01*
X125511Y448836D01*
X126512Y448775D01*
X127514Y448744D01*
X128517D01*
X129519Y448775D01*
X130520Y448836D01*
X131518Y448927D01*
X132514Y449049D01*
X133505Y449202D01*
X134491Y449384D01*
X135470Y449597D01*
X136443Y449839D01*
X137408Y450110D01*
X138365Y450412D01*
X139312Y450742D01*
X140248Y451101D01*
X141173Y451488D01*
X142085Y451903D01*
X142985Y452346D01*
X143870Y452816D01*
X144741Y453313D01*
X145597Y453836D01*
X146435Y454385D01*
X147257Y454960D01*
X148061Y455559D01*
X148846Y456182D01*
X149612Y456829D01*
X150358Y457499D01*
X151083Y458192D01*
X151787Y458906D01*
X152468Y459642D01*
X153127Y460398D01*
X153762Y461173D01*
X154374Y461968D01*
X154960Y462781D01*
X155522Y463612D01*
X156058Y464459D01*
X156569Y465322D01*
X157052Y466200D01*
X157509Y467093D01*
X157938Y467999D01*
X158339Y468918D01*
X158712Y469848D01*
X159057Y470790D01*
X159372Y471742D01*
X159659Y472703D01*
X159916Y473672D01*
X160143Y474648D01*
X160341Y475631D01*
X160508Y476620D01*
X160645Y477613D01*
X160752Y478610D01*
X160829Y479610D01*
X160874Y480611D01*
X160890Y481614D01*
X83153Y401614D02*
X83138Y402617D01*
X83092Y403618D01*
X83016Y404618D01*
X82909Y405615D01*
X82772Y406608D01*
X82605Y407597D01*
X82407Y408580D01*
X82180Y409556D01*
X81923Y410526D01*
X81636Y411486D01*
X81321Y412438D01*
X80976Y413380D01*
X80603Y414310D01*
X80202Y415229D01*
X79773Y416135D01*
X79316Y417028D01*
X78833Y417906D01*
X78322Y418769D01*
X77786Y419617D01*
X77224Y420447D01*
X76638Y421260D01*
X76026Y422055D01*
X75391Y422830D01*
X74732Y423586D01*
X74051Y424322D01*
X73347Y425036D01*
X72622Y425729D01*
X71876Y426399D01*
X71110Y427046D01*
X70325Y427669D01*
X69521Y428269D01*
X68699Y428843D01*
X67860Y429392D01*
X67005Y429915D01*
X66134Y430412D01*
X65249Y430882D01*
X64349Y431325D01*
X63437Y431741D01*
X62512Y432128D01*
X61575Y432487D01*
X60629Y432817D01*
X59672Y433118D01*
X58707Y433390D01*
X57734Y433632D01*
X56754Y433844D01*
X55769Y434027D01*
X54777Y434179D01*
X53782Y434301D01*
X52784Y434393D01*
X51783Y434454D01*
X50781Y434484D01*
X49778D01*
X48776Y434454D01*
X47775Y434393D01*
X46777Y434301D01*
X45782Y434179D01*
X44791Y434027D01*
X43805Y433844D01*
X42825Y433632D01*
X41852Y433390D01*
X40887Y433118D01*
X39930Y432817D01*
X38984Y432486D01*
X38047Y432128D01*
X37122Y431741D01*
X36210Y431325D01*
X35310Y430882D01*
X34425Y430412D01*
X33554Y429915D01*
X32699Y429392D01*
X31860Y428843D01*
X31038Y428269D01*
X30234Y427669D01*
X29449Y427046D01*
X28683Y426399D01*
X27937Y425729D01*
X27212Y425036D01*
X26508Y424322D01*
X25827Y423586D01*
X25168Y422830D01*
X24533Y422055D01*
X23922Y421260D01*
X23335Y420447D01*
X22773Y419617D01*
X22237Y418769D01*
X21727Y417906D01*
X21243Y417028D01*
X20786Y416135D01*
X20357Y415229D01*
X19956Y414310D01*
X19583Y413379D01*
X19239Y412438D01*
X18923Y411486D01*
X18636Y410525D01*
X18379Y409556D01*
X18152Y408580D01*
X17955Y407597D01*
X17787Y406608D01*
X17650Y405615D01*
X17543Y404618D01*
X17467Y403618D01*
X17421Y402617D01*
X17405Y401614D01*
X17421Y400612D01*
X17467Y399610D01*
X17543Y398610D01*
X17650Y397613D01*
X17787Y396620D01*
X17955Y395632D01*
X18152Y394649D01*
X18379Y393672D01*
X18636Y392703D01*
X18923Y391742D01*
X19239Y390790D01*
X19583Y389849D01*
X19956Y388918D01*
X20357Y387999D01*
X20786Y387093D01*
X21243Y386200D01*
X21727Y385322D01*
X22237Y384459D01*
X22773Y383612D01*
X23335Y382781D01*
X23922Y381968D01*
X24533Y381174D01*
X25168Y380398D01*
X25827Y379642D01*
X26509Y378906D01*
X27212Y378192D01*
X27937Y377500D01*
X28683Y376829D01*
X29449Y376182D01*
X30234Y375559D01*
X31038Y374960D01*
X31860Y374385D01*
X32699Y373836D01*
X33554Y373313D01*
X34425Y372816D01*
X35310Y372346D01*
X36210Y371903D01*
X37123Y371488D01*
X38047Y371101D01*
X38984Y370742D01*
X39930Y370412D01*
X40887Y370111D01*
X41852Y369839D01*
X42825Y369597D01*
X43805Y369384D01*
X44791Y369202D01*
X45782Y369049D01*
X46777Y368927D01*
X47775Y368836D01*
X48776Y368775D01*
X49778Y368744D01*
X50781D01*
X51783Y368775D01*
X52784Y368836D01*
X53782Y368927D01*
X54777Y369049D01*
X55768Y369202D01*
X56754Y369384D01*
X57734Y369597D01*
X58707Y369839D01*
X59672Y370111D01*
X60629Y370412D01*
X61575Y370742D01*
X62511Y371101D01*
X63436Y371488D01*
X64349Y371903D01*
X65249Y372346D01*
X66134Y372816D01*
X67005Y373313D01*
X67860Y373836D01*
X68699Y374385D01*
X69521Y374960D01*
X70325Y375559D01*
X71110Y376182D01*
X71876Y376829D01*
X72622Y377499D01*
X73347Y378192D01*
X74050Y378906D01*
X74732Y379642D01*
X75391Y380398D01*
X76026Y381173D01*
X76637Y381968D01*
X77224Y382781D01*
X77786Y383611D01*
X78322Y384459D01*
X78832Y385322D01*
X79316Y386200D01*
X79772Y387093D01*
X80202Y387999D01*
X80603Y388918D01*
X80976Y389848D01*
X81321Y390790D01*
X81636Y391742D01*
X81923Y392703D01*
X82180Y393672D01*
X82407Y394648D01*
X82604Y395631D01*
X82772Y396620D01*
X82909Y397613D01*
X83016Y398610D01*
X83092Y399610D01*
X83138Y400611D01*
X83153Y401614D01*
X83390Y481614D02*
X83375Y482617D01*
X83329Y483618D01*
X83252Y484618D01*
X83145Y485615D01*
X83008Y486608D01*
X82841Y487597D01*
X82643Y488580D01*
X82416Y489556D01*
X82159Y490525D01*
X81872Y491486D01*
X81557Y492438D01*
X81212Y493380D01*
X80839Y494310D01*
X80438Y495229D01*
X80009Y496135D01*
X79552Y497028D01*
X79069Y497906D01*
X78559Y498769D01*
X78022Y499617D01*
X77460Y500447D01*
X76874Y501260D01*
X76262Y502055D01*
X75627Y502830D01*
X74968Y503586D01*
X74287Y504322D01*
X73583Y505036D01*
X72858Y505729D01*
X72113Y506399D01*
X71347Y507046D01*
X70561Y507669D01*
X69757Y508269D01*
X68936Y508843D01*
X68097Y509392D01*
X67241Y509915D01*
X66370Y510412D01*
X65485Y510882D01*
X64585Y511325D01*
X63673Y511740D01*
X62748Y512128D01*
X61812Y512487D01*
X60865Y512817D01*
X59908Y513118D01*
X58943Y513390D01*
X57970Y513632D01*
X56991Y513844D01*
X56005Y514027D01*
X55014Y514179D01*
X54018Y514301D01*
X53020Y514393D01*
X52019Y514454D01*
X51017Y514484D01*
X50014D01*
X49012Y514454D01*
X48011Y514393D01*
X47013Y514301D01*
X46018Y514179D01*
X45027Y514027D01*
X44041Y513844D01*
X43061Y513632D01*
X42088Y513390D01*
X41123Y513118D01*
X40167Y512817D01*
X39220Y512487D01*
X38284Y512128D01*
X37359Y511740D01*
X36446Y511325D01*
X35547Y510882D01*
X34661Y510412D01*
X33790Y509915D01*
X32935Y509392D01*
X32096Y508843D01*
X31274Y508269D01*
X30470Y507669D01*
X29685Y507046D01*
X28919Y506399D01*
X28173Y505729D01*
X27448Y505036D01*
X26745Y504322D01*
X26063Y503586D01*
X25405Y502830D01*
X24769Y502055D01*
X24158Y501260D01*
X23571Y500447D01*
X23009Y499617D01*
X22473Y498769D01*
X21963Y497906D01*
X21479Y497028D01*
X21023Y496135D01*
X20594Y495229D01*
X20192Y494310D01*
X19819Y493379D01*
X19475Y492438D01*
X19159Y491486D01*
X18873Y490525D01*
X18616Y489556D01*
X18388Y488580D01*
X18191Y487597D01*
X18023Y486608D01*
X17886Y485615D01*
X17779Y484618D01*
X17703Y483618D01*
X17657Y482617D01*
X17642Y481614D01*
X17657Y480612D01*
X17703Y479610D01*
X17779Y478610D01*
X17886Y477613D01*
X18023Y476620D01*
X18191Y475632D01*
X18388Y474649D01*
X18616Y473672D01*
X18873Y472703D01*
X19159Y471742D01*
X19475Y470790D01*
X19819Y469849D01*
X20192Y468918D01*
X20594Y467999D01*
X21023Y467093D01*
X21479Y466200D01*
X21963Y465322D01*
X22473Y464459D01*
X23009Y463612D01*
X23571Y462781D01*
X24158Y461968D01*
X24769Y461174D01*
X25405Y460398D01*
X26063Y459642D01*
X26745Y458907D01*
X27448Y458192D01*
X28173Y457500D01*
X28919Y456829D01*
X29685Y456182D01*
X30470Y455559D01*
X31274Y454960D01*
X32096Y454385D01*
X32935Y453836D01*
X33790Y453313D01*
X34661Y452816D01*
X35547Y452346D01*
X36446Y451903D01*
X37359Y451488D01*
X38284Y451101D01*
X39220Y450742D01*
X40167Y450412D01*
X41123Y450111D01*
X42088Y449839D01*
X43061Y449597D01*
X44041Y449384D01*
X45027Y449202D01*
X46018Y449049D01*
X47013Y448927D01*
X48011Y448836D01*
X49012Y448775D01*
X50014Y448744D01*
X51017D01*
X52019Y448775D01*
X53020Y448836D01*
X54018Y448927D01*
X55014Y449049D01*
X56005Y449202D01*
X56990Y449384D01*
X57970Y449597D01*
X58943Y449839D01*
X59908Y450110D01*
X60865Y450412D01*
X61812Y450742D01*
X62748Y451101D01*
X63673Y451488D01*
X64585Y451903D01*
X65485Y452346D01*
X66370Y452816D01*
X67241Y453313D01*
X68097Y453836D01*
X68935Y454385D01*
X69757Y454960D01*
X70561Y455559D01*
X71346Y456182D01*
X72112Y456829D01*
X72858Y457499D01*
X73583Y458192D01*
X74287Y458906D01*
X74968Y459642D01*
X75627Y460398D01*
X76262Y461173D01*
X76873Y461968D01*
X77460Y462781D01*
X78022Y463612D01*
X78558Y464459D01*
X79068Y465322D01*
X79552Y466200D01*
X80009Y467093D01*
X80438Y467999D01*
X80839Y468918D01*
X81212Y469848D01*
X81557Y470790D01*
X81872Y471742D01*
X82159Y472703D01*
X82416Y473672D01*
X82643Y474648D01*
X82841Y475631D01*
X83008Y476620D01*
X83145Y477613D01*
X83252Y478610D01*
X83329Y479610D01*
X83375Y480611D01*
X83390Y481614D01*
X131146Y154370D02*
Y205157D01*
X16185D02*
X131146D01*
X16185Y154370D02*
Y205157D01*
Y154370D02*
X131146D01*
X35850Y141142D02*
X47150D01*
X35850Y98858D02*
Y141142D01*
Y98858D02*
X47150D01*
Y141142D01*
X222492Y219921D02*
Y260079D01*
X15508D02*
X222492D01*
X15508Y219921D02*
Y260079D01*
Y219921D02*
X222492D01*
X15508Y267421D02*
Y307579D01*
Y267421D02*
X222492D01*
Y307579D01*
X15508D02*
X222492D01*
Y317421D02*
Y357579D01*
X15508D02*
X222492D01*
X15508Y317421D02*
Y357579D01*
Y317421D02*
X222492D01*
D51*
X82500Y438031D02*
Y441968D01*
X80532Y440000D02*
X84469D01*
X95000Y438031D02*
Y441968D01*
X93032Y440000D02*
X96969D01*
X227031Y485000D02*
X230968D01*
X229000Y483032D02*
Y486969D01*
X219000Y483032D02*
Y486969D01*
X217032Y485000D02*
X220969D01*
X61500Y125315D02*
Y129252D01*
X59531Y127284D02*
X63468D01*
X227031Y375000D02*
X230968D01*
X229000Y373031D02*
Y376969D01*
X194532Y392500D02*
X198468D01*
X196500Y390531D02*
Y394468D01*
X194532Y372500D02*
X198468D01*
X196500Y370532D02*
Y374468D01*
X179000Y383032D02*
Y386968D01*
X177032Y385000D02*
X180968D01*
X179000Y440531D02*
Y444468D01*
X177032Y442500D02*
X180968D01*
X179000Y498032D02*
Y501968D01*
X177032Y500000D02*
X180968D01*
D52*
X77579Y448465D02*
X87421D01*
X77579Y431535D02*
X87421D01*
Y448465D01*
X77579Y431535D02*
Y448465D01*
X90079D02*
X99921D01*
X90079Y431535D02*
X99921D01*
Y448465D01*
X90079Y431535D02*
Y448465D01*
X224079Y476535D02*
Y493465D01*
X233921Y476535D02*
Y493465D01*
X224079Y476535D02*
X233921D01*
X224079Y493465D02*
X233921D01*
X214079Y476535D02*
X223921D01*
X214079Y493465D02*
X223921D01*
X214079Y476535D02*
Y493465D01*
X223921Y476535D02*
Y493465D01*
X56382Y106516D02*
X66618D01*
Y148051D01*
X56382Y106516D02*
Y148051D01*
X66618D01*
X515827Y341260D02*
X541417D01*
Y303543D02*
Y341260D01*
Y303543D02*
X545354D01*
Y287008D02*
Y303543D01*
X541417Y287008D02*
X545354D01*
X541417Y249291D02*
Y287008D01*
X515827Y249291D02*
X541417D01*
X515827D02*
Y341260D01*
X417402D02*
X442992D01*
Y303543D02*
Y341260D01*
Y303543D02*
X446929D01*
Y287008D02*
Y303543D01*
X442992Y287008D02*
X446929D01*
X442992Y249291D02*
Y287008D01*
X417402Y249291D02*
X442992D01*
X417402D02*
Y341260D01*
X318976D02*
X344567D01*
Y303543D02*
Y341260D01*
Y303543D02*
X348504D01*
Y287008D02*
Y303543D01*
X344567Y287008D02*
X348504D01*
X344567Y249291D02*
Y287008D01*
X318976Y249291D02*
X344567D01*
X318976D02*
Y341260D01*
X15516Y119016D02*
X27484D01*
X15516D02*
Y140984D01*
X27484D01*
Y119016D02*
Y140984D01*
X15516Y89016D02*
X27484D01*
X15516D02*
Y110984D01*
X27484D01*
Y89016D02*
Y110984D01*
X224079Y366535D02*
Y383465D01*
X233921Y366535D02*
Y383465D01*
X224079Y366535D02*
X233921D01*
X224079Y383465D02*
X233921D01*
X201421Y384035D02*
Y400965D01*
X191579Y384035D02*
Y400965D01*
X201421D01*
X191579Y384035D02*
X201421D01*
X191579Y364035D02*
Y380965D01*
X201421Y364035D02*
Y380965D01*
X191579Y364035D02*
X201421D01*
X191579Y380965D02*
X201421D01*
M02*
