M48
; DRILL file {KiCad 9.0.8} date 2026-03-17T16:54:36+0100
; FORMAT={-:-/ absolute / metric / decimal}
; #@! TF.CreationDate,2026-03-17T16:54:36+01:00
; #@! TF.GenerationSoftware,Kicad,Pcbnew,9.0.8
; #@! TF.FileFunction,Plated,1,4,PTH
FMAT,2
METRIC
; #@! TA.AperFunction,Plated,PTH,ViaDrill
T1C0.300
; #@! TA.AperFunction,Plated,PTH,ComponentDrill
T2C0.800
; #@! TA.AperFunction,Plated,PTH,ComponentDrill
T3C1.000
; #@! TA.AperFunction,Plated,PTH,ComponentDrill
T4C3.200
%
G90
G05
T1
X73.025Y-122.555
X77.2Y-50.165
X79.375Y-67.945
X80.01Y-73.025
X81.28Y-73.025
X82.82Y-95.885
X82.82Y-102.235
X92.44Y-129.54
X94.25Y-83.185
X94.615Y-95.25
X94.615Y-96.52
X95.885Y-68.58
X96.52Y-88.265
X101.6Y-54.61
X102.87Y-120.015
X106.045Y-72.39
X107.68Y-74.66
X109.855Y-95.885
X111.76Y-102.235
X115.3Y-85.725
X115.3Y-109.855
X121.285Y-47.625
X122.957Y-114.897
X123.825Y-70.485
X124.46Y-57.785
X124.73Y-67.945
X124.73Y-88.535
X125.73Y-120.015
X128.54Y-94.345
X130.577Y-52.705
X130.577Y-62.865
X132.08Y-78.105
X133.35Y-73.66
X134.62Y-48.26
X147.955Y-105.41
X149.225Y-54.61
X151.765Y-66.04
X155.13Y-82.55
X155.21Y-59.69
X155.21Y-71.12
X155.21Y-94.615
X155.21Y-97.155
X155.21Y-108.585
X155.21Y-117.475
X157.13Y-74.93
X157.21Y-52.07
X157.21Y-63.5
X159.385Y-109.855
X165.1Y-119.38
X166.37Y-119.38
X167.64Y-119.38
T2
X80.01Y-50.165
X80.01Y-52.705
X80.01Y-55.245
X80.01Y-57.785
X80.01Y-60.325
X80.01Y-62.865
X80.01Y-65.405
X80.01Y-78.105
X80.01Y-80.645
X80.01Y-83.185
X80.01Y-85.725
X80.01Y-88.265
X80.01Y-90.805
X80.01Y-93.345
X80.01Y-104.775
X80.01Y-107.315
X80.01Y-109.855
X80.01Y-112.395
X80.01Y-114.935
X80.01Y-117.475
X80.01Y-120.015
X87.63Y-50.165
X87.63Y-52.705
X87.63Y-55.245
X87.63Y-57.785
X87.63Y-60.325
X87.63Y-62.865
X87.63Y-65.405
X87.63Y-78.105
X87.63Y-80.645
X87.63Y-83.185
X87.63Y-85.725
X87.63Y-88.265
X87.63Y-90.805
X87.63Y-93.345
X87.63Y-104.775
X87.63Y-107.315
X87.63Y-109.855
X87.63Y-112.395
X87.63Y-114.935
X87.63Y-117.475
X87.63Y-120.015
X110.49Y-50.165
X110.49Y-52.705
X110.49Y-55.245
X110.49Y-57.785
X110.49Y-60.325
X110.49Y-62.865
X110.49Y-65.405
X110.49Y-78.105
X110.49Y-80.645
X110.49Y-83.185
X110.49Y-85.725
X110.49Y-88.265
X110.49Y-90.805
X110.49Y-93.345
X110.49Y-104.775
X110.49Y-107.315
X110.49Y-109.855
X110.49Y-112.395
X110.49Y-114.935
X110.49Y-117.475
X110.49Y-120.015
X118.11Y-50.165
X118.11Y-52.705
X118.11Y-55.245
X118.11Y-57.785
X118.11Y-60.325
X118.11Y-62.865
X118.11Y-65.405
X118.11Y-78.105
X118.11Y-80.645
X118.11Y-83.185
X118.11Y-85.725
X118.11Y-88.265
X118.11Y-90.805
X118.11Y-93.345
X118.11Y-104.775
X118.11Y-107.315
X118.11Y-109.855
X118.11Y-112.395
X118.11Y-114.935
X118.11Y-117.475
X118.11Y-120.015
X137.16Y-104.775
X137.16Y-107.315
X137.16Y-109.855
X137.16Y-112.395
X137.16Y-114.935
X137.16Y-117.475
X137.16Y-120.015
X144.78Y-104.775
X144.78Y-107.315
X144.78Y-109.855
X144.78Y-112.395
X144.78Y-114.935
X144.78Y-117.475
X144.78Y-120.015
T3
X72.39Y-55.245
X72.39Y-57.785
X72.39Y-60.325
X72.39Y-80.645
X72.39Y-83.185
X72.39Y-88.265
X72.39Y-90.805
X72.39Y-107.315
X72.39Y-109.855
X72.39Y-114.935
X72.39Y-117.475
X95.25Y-50.165
X95.25Y-52.705
X95.25Y-55.245
X95.25Y-104.775
X95.25Y-107.315
X95.25Y-109.855
X102.87Y-80.645
X102.87Y-83.185
X102.87Y-88.265
X102.87Y-90.805
X102.87Y-107.315
X102.87Y-109.855
X102.87Y-114.935
X102.87Y-117.475
X106.68Y-50.165
X106.68Y-52.705
X106.68Y-55.245
X106.68Y-60.325
X106.68Y-62.865
X106.68Y-65.405
X121.92Y-50.165
X121.92Y-52.705
X121.92Y-55.245
X121.92Y-60.325
X121.92Y-62.865
X121.92Y-65.405
X125.73Y-50.165
X125.73Y-52.705
X125.73Y-55.245
X125.73Y-60.325
X125.73Y-62.865
X125.73Y-65.405
X133.35Y-114.935
X133.35Y-117.475
X133.35Y-120.015
X160.02Y-54.61
X160.02Y-57.15
X160.02Y-66.04
X160.02Y-68.58
X160.02Y-77.47
X160.02Y-80.01
X160.02Y-92.075
X160.02Y-94.615
X160.02Y-103.505
X160.02Y-106.045
X160.02Y-114.935
X160.02Y-117.475
X170.18Y-102.235
X170.18Y-104.775
X170.18Y-107.315
X170.18Y-109.855
X170.18Y-112.395
X170.18Y-114.935
X170.18Y-117.475
X172.72Y-102.235
X172.72Y-104.775
X172.72Y-107.315
X172.72Y-109.855
X172.72Y-112.395
X172.72Y-114.935
X172.72Y-117.475
T4
X50.8Y-46.355
X50.8Y-122.555
X185.42Y-46.355
X185.42Y-122.555
M30
