%TF.GenerationSoftware,KiCad,Pcbnew,9.0.8*%
%TF.CreationDate,2026-03-17T16:54:28+01:00*%
%TF.ProjectId,Input,496e7075-742e-46b6-9963-61645f706362,1*%
%TF.SameCoordinates,Original*%
%TF.FileFunction,Copper,L2,Inr*%
%TF.FilePolarity,Positive*%
%FSLAX46Y46*%
G04 Gerber Fmt 4.6, Leading zero omitted, Abs format (unit mm)*
G04 Created by KiCad (PCBNEW 9.0.8) date 2026-03-17 16:54:28*
%MOMM*%
%LPD*%
G01*
G04 APERTURE LIST*
G04 Aperture macros list*
%AMRoundRect*
0 Rectangle with rounded corners*
0 $1 Rounding radius*
0 $2 $3 $4 $5 $6 $7 $8 $9 X,Y pos of 4 corners*
0 Add a 4 corners polygon primitive as box body*
4,1,4,$2,$3,$4,$5,$6,$7,$8,$9,$2,$3,0*
0 Add four circle primitives for the rounded corners*
1,1,$1+$1,$2,$3*
1,1,$1+$1,$4,$5*
1,1,$1+$1,$6,$7*
1,1,$1+$1,$8,$9*
0 Add four rect primitives between the rounded corners*
20,1,$1+$1,$2,$3,$4,$5,0*
20,1,$1+$1,$4,$5,$6,$7,0*
20,1,$1+$1,$6,$7,$8,$9,0*
20,1,$1+$1,$8,$9,$2,$3,0*%
G04 Aperture macros list end*
%TA.AperFunction,ComponentPad*%
%ADD10R,2.600000X1.600000*%
%TD*%
%TA.AperFunction,ComponentPad*%
%ADD11O,2.600000X1.600000*%
%TD*%
%TA.AperFunction,ComponentPad*%
%ADD12RoundRect,0.250000X-0.950000X-0.550000X0.950000X-0.550000X0.950000X0.550000X-0.950000X0.550000X0*%
%TD*%
%TA.AperFunction,ComponentPad*%
%ADD13O,2.400000X1.600000*%
%TD*%
%TA.AperFunction,ComponentPad*%
%ADD14C,6.400000*%
%TD*%
%TA.AperFunction,ComponentPad*%
%ADD15R,1.700000X1.700000*%
%TD*%
%TA.AperFunction,ComponentPad*%
%ADD16C,1.700000*%
%TD*%
%TA.AperFunction,ViaPad*%
%ADD17C,0.700000*%
%TD*%
G04 APERTURE END LIST*
D10*
%TO.N,Net-(J28-Pin_1)*%
%TO.C,J28*%
X102870000Y-117475000D03*
D11*
%TO.N,GND_I*%
X102870000Y-114935000D03*
%TD*%
D12*
%TO.N,Net-(U8A--)*%
%TO.C,U8*%
X137160000Y-104775000D03*
D13*
X137160000Y-107315000D03*
%TO.N,Net-(U17C-+)*%
X137160000Y-109855000D03*
%TO.N,+15V_I*%
X137160000Y-112395000D03*
%TO.N,Net-(SW2-B)*%
X137160000Y-114935000D03*
%TO.N,Net-(U8B--)*%
X137160000Y-117475000D03*
%TO.N,Net-(R24-Pad1)*%
X137160000Y-120015000D03*
%TO.N,Net-(R25-Pad2)*%
X144780000Y-120015000D03*
%TO.N,Net-(U8C--)*%
X144780000Y-117475000D03*
%TO.N,Net-(U8C-+)*%
X144780000Y-114935000D03*
%TO.N,-15V_I*%
X144780000Y-112395000D03*
%TO.N,GND_I*%
X144780000Y-109855000D03*
%TO.N,Net-(U8D--)*%
X144780000Y-107315000D03*
X144780000Y-104775000D03*
%TD*%
D10*
%TO.N,Net-(J8-Pin_1)*%
%TO.C,J8*%
X72390000Y-117475000D03*
D11*
%TO.N,GND_I*%
X72390000Y-114935000D03*
%TD*%
D12*
%TO.N,Net-(U15A--)*%
%TO.C,U15*%
X110490000Y-50165000D03*
D13*
X110490000Y-52705000D03*
%TO.N,Net-(U15A-+)*%
X110490000Y-55245000D03*
%TO.N,+15V_I*%
X110490000Y-57785000D03*
%TO.N,Net-(U15B-+)*%
X110490000Y-60325000D03*
%TO.N,Net-(U15B--)*%
X110490000Y-62865000D03*
X110490000Y-65405000D03*
%TO.N,Net-(R58-Pad2)*%
X118110000Y-65405000D03*
%TO.N,Net-(U15C--)*%
X118110000Y-62865000D03*
%TO.N,Net-(U15C-+)*%
X118110000Y-60325000D03*
%TO.N,-15V_I*%
X118110000Y-57785000D03*
%TO.N,Net-(U15D-+)*%
X118110000Y-55245000D03*
%TO.N,Net-(U15D--)*%
X118110000Y-52705000D03*
%TO.N,Net-(R93-Pad2)*%
X118110000Y-50165000D03*
%TD*%
D10*
%TO.N,Net-(J7-Pin_1)*%
%TO.C,J7*%
X72390000Y-107315000D03*
D11*
%TO.N,GND_I*%
X72390000Y-109855000D03*
%TD*%
D10*
%TO.N,Net-(R101-Pad1)*%
%TO.C,RV18*%
X106680000Y-55245000D03*
D11*
%TO.N,Net-(U15A-+)*%
X106680000Y-52705000D03*
%TO.N,Net-(R93-Pad2)*%
X106680000Y-50165000D03*
%TD*%
D14*
%TO.N,N/C*%
%TO.C,H6*%
X185420000Y-46355000D03*
%TD*%
D10*
%TO.N,Net-(J23-Pin_1)*%
%TO.C,J23*%
X160020000Y-103505000D03*
D11*
%TO.N,Net-(J23-Pin_2)*%
X160020000Y-106045000D03*
%TD*%
D10*
%TO.N,Net-(U11A--)*%
%TO.C,RV9*%
X95250000Y-50165000D03*
D11*
%TO.N,Net-(U11B--)*%
X95250000Y-52705000D03*
X95250000Y-55245000D03*
%TD*%
D10*
%TO.N,Net-(J20-Pin_1)*%
%TO.C,J20*%
X102870000Y-80645000D03*
D11*
%TO.N,GND_I*%
X102870000Y-83185000D03*
%TD*%
D12*
%TO.N,Net-(U4A--)*%
%TO.C,U4*%
X80010000Y-78105000D03*
D13*
X80010000Y-80645000D03*
%TO.N,Net-(U4A-+)*%
X80010000Y-83185000D03*
%TO.N,+15V_I*%
X80010000Y-85725000D03*
%TO.N,Net-(U4B-+)*%
X80010000Y-88265000D03*
%TO.N,Net-(U4B--)*%
X80010000Y-90805000D03*
X80010000Y-93345000D03*
%TO.N,Net-(C2-Pad2)*%
X87630000Y-93345000D03*
%TO.N,Net-(U4C--)*%
X87630000Y-90805000D03*
%TO.N,Net-(U4C-+)*%
X87630000Y-88265000D03*
%TO.N,-15V_I*%
X87630000Y-85725000D03*
%TO.N,Net-(U4D-+)*%
X87630000Y-83185000D03*
%TO.N,Net-(U4D--)*%
X87630000Y-80645000D03*
%TO.N,Net-(R7-Pad2)*%
X87630000Y-78105000D03*
%TD*%
D12*
%TO.N,Net-(U9A--)*%
%TO.C,U9*%
X80010000Y-104775000D03*
D13*
X80010000Y-107315000D03*
%TO.N,Net-(U9A-+)*%
X80010000Y-109855000D03*
%TO.N,+15V_I*%
X80010000Y-112395000D03*
%TO.N,Net-(U9B-+)*%
X80010000Y-114935000D03*
%TO.N,Net-(U9B--)*%
X80010000Y-117475000D03*
X80010000Y-120015000D03*
%TO.N,Net-(R30-Pad2)*%
X87630000Y-120015000D03*
%TO.N,Net-(U9C--)*%
X87630000Y-117475000D03*
%TO.N,Net-(U9C-+)*%
X87630000Y-114935000D03*
%TO.N,-15V_I*%
X87630000Y-112395000D03*
%TO.N,GND_I*%
X87630000Y-109855000D03*
%TO.N,Net-(U9D--)*%
X87630000Y-107315000D03*
X87630000Y-104775000D03*
%TD*%
D10*
%TO.N,Net-(J2-Pin_1)*%
%TO.C,J2*%
X72390000Y-80645000D03*
D11*
%TO.N,GND_I*%
X72390000Y-83185000D03*
%TD*%
D10*
%TO.N,Net-(J16-Pin_1)*%
%TO.C,J16*%
X160020000Y-54610000D03*
D11*
%TO.N,Net-(J16-Pin_2)*%
X160020000Y-57150000D03*
%TD*%
D10*
%TO.N,Net-(J23-Pin_1)*%
%TO.C,J27*%
X160020000Y-92075000D03*
D11*
%TO.N,Net-(J27-Pin_2)*%
X160020000Y-94615000D03*
%TD*%
D14*
%TO.N,N/C*%
%TO.C,H1*%
X50800000Y-122555000D03*
%TD*%
D10*
%TO.N,Net-(J17-Pin_1)*%
%TO.C,J17*%
X102870000Y-90805000D03*
D11*
%TO.N,GND_I*%
X102870000Y-88265000D03*
%TD*%
D10*
%TO.N,Net-(J3-Pin_1)*%
%TO.C,J3*%
X72390000Y-90805000D03*
D11*
%TO.N,GND_I*%
X72390000Y-88265000D03*
%TD*%
D14*
%TO.N,Net-(C3-Pad1)*%
%TO.C,H3*%
X185420000Y-122555000D03*
%TD*%
D12*
%TO.N,Net-(R67-Pad1)*%
%TO.C,U11*%
X80010000Y-50165000D03*
D13*
%TO.N,Net-(U11A--)*%
X80010000Y-52705000D03*
%TO.N,Net-(U11A-+)*%
X80010000Y-55245000D03*
%TO.N,+15V_I*%
X80010000Y-57785000D03*
%TO.N,Net-(U11B-+)*%
X80010000Y-60325000D03*
%TO.N,Net-(U11B--)*%
X80010000Y-62865000D03*
%TO.N,Net-(R52-Pad1)*%
X80010000Y-65405000D03*
%TO.N,Net-(R53-Pad1)*%
X87630000Y-65405000D03*
%TO.N,Net-(U11C--)*%
X87630000Y-62865000D03*
%TO.N,Net-(U11C-+)*%
X87630000Y-60325000D03*
%TO.N,-15V_I*%
X87630000Y-57785000D03*
%TO.N,GND_I*%
X87630000Y-55245000D03*
%TO.N,Net-(U11D--)*%
X87630000Y-52705000D03*
X87630000Y-50165000D03*
%TD*%
D10*
%TO.N,Net-(U15C-+)*%
%TO.C,RV11*%
X121920000Y-60325000D03*
D11*
X121920000Y-62865000D03*
%TO.N,Net-(R76-Pad2)*%
X121920000Y-65405000D03*
%TO.N,Net-(R77-Pad2)*%
X125730000Y-65405000D03*
%TO.N,Net-(U15C-+)*%
X125730000Y-62865000D03*
D10*
X125730000Y-60325000D03*
%TD*%
%TO.N,Net-(J22-Pin_1)*%
%TO.C,J22*%
X102870000Y-107315000D03*
D11*
%TO.N,GND_I*%
X102870000Y-109855000D03*
%TD*%
D12*
%TO.N,Net-(U19A--)*%
%TO.C,U19*%
X110490000Y-104775000D03*
D13*
X110490000Y-107315000D03*
%TO.N,Net-(U19A-+)*%
X110490000Y-109855000D03*
%TO.N,+15V_I*%
X110490000Y-112395000D03*
%TO.N,Net-(U19B-+)*%
X110490000Y-114935000D03*
%TO.N,Net-(U19B--)*%
X110490000Y-117475000D03*
X110490000Y-120015000D03*
%TO.N,Net-(R135-Pad1)*%
X118110000Y-120015000D03*
%TO.N,Net-(U19C--)*%
X118110000Y-117475000D03*
%TO.N,Net-(U19C-+)*%
X118110000Y-114935000D03*
%TO.N,-15V_I*%
X118110000Y-112395000D03*
%TO.N,Net-(U17C-+)*%
X118110000Y-109855000D03*
%TO.N,Net-(U19D--)*%
X118110000Y-107315000D03*
X118110000Y-104775000D03*
%TD*%
D10*
%TO.N,Net-(SW2-A)*%
%TO.C,SW2*%
X95250000Y-104775000D03*
D11*
%TO.N,Net-(SW2-B)*%
X95250000Y-107315000D03*
%TO.N,Net-(SW2-C)*%
X95250000Y-109855000D03*
%TD*%
D10*
%TO.N,Net-(J12-Pin_1)*%
%TO.C,J12*%
X160020000Y-77470000D03*
D11*
%TO.N,Net-(J12-Pin_2)*%
X160020000Y-80010000D03*
%TD*%
D10*
%TO.N,Net-(J4-Pin_1)*%
%TO.C,J4*%
X160020000Y-114935000D03*
D11*
%TO.N,Net-(J4-Pin_2)*%
X160020000Y-117475000D03*
%TD*%
D15*
%TO.N,9V_GND_I*%
%TO.C,J30*%
X170180000Y-102235000D03*
D16*
X172720000Y-102235000D03*
X170180000Y-104775000D03*
X172720000Y-104775000D03*
%TO.N,+9V_I*%
X170180000Y-107315000D03*
X172720000Y-107315000D03*
%TO.N,-15V_I*%
X170180000Y-109855000D03*
X172720000Y-109855000D03*
%TO.N,GND_I*%
X170180000Y-112395000D03*
X172720000Y-112395000D03*
X170180000Y-114935000D03*
X172720000Y-114935000D03*
%TO.N,+15V_I*%
X170180000Y-117475000D03*
X172720000Y-117475000D03*
%TD*%
D10*
%TO.N,Net-(R24-Pad1)*%
%TO.C,RV4*%
X133350000Y-120015000D03*
D11*
%TO.N,Net-(U8B--)*%
X133350000Y-117475000D03*
X133350000Y-114935000D03*
%TD*%
D12*
%TO.N,Net-(U17A--)*%
%TO.C,U17*%
X110490000Y-78105000D03*
D13*
X110490000Y-80645000D03*
%TO.N,Net-(U17A-+)*%
X110490000Y-83185000D03*
%TO.N,+15V_I*%
X110490000Y-85725000D03*
%TO.N,Net-(U17B-+)*%
X110490000Y-88265000D03*
%TO.N,Net-(U17B--)*%
X110490000Y-90805000D03*
X110490000Y-93345000D03*
%TO.N,Net-(U17C--)*%
X118110000Y-93345000D03*
X118110000Y-90805000D03*
%TO.N,Net-(U17C-+)*%
X118110000Y-88265000D03*
%TO.N,-15V_I*%
X118110000Y-85725000D03*
%TO.N,Net-(U17D-+)*%
X118110000Y-83185000D03*
%TO.N,Net-(U17D--)*%
X118110000Y-80645000D03*
%TO.N,Net-(R103-Pad2)*%
X118110000Y-78105000D03*
%TD*%
D10*
%TO.N,Net-(J14-Pin_1)*%
%TO.C,J14*%
X160020000Y-66040000D03*
D11*
%TO.N,Net-(J14-Pin_2)*%
X160020000Y-68580000D03*
%TD*%
D10*
%TO.N,Net-(U15D-+)*%
%TO.C,RV17*%
X121920000Y-55245000D03*
D11*
X121920000Y-52705000D03*
%TO.N,Net-(R105-Pad2)*%
X121920000Y-50165000D03*
%TO.N,Net-(R106-Pad2)*%
X125730000Y-50165000D03*
%TO.N,Net-(U15D-+)*%
X125730000Y-52705000D03*
D10*
X125730000Y-55245000D03*
%TD*%
%TO.N,Net-(J9-Pin_1)*%
%TO.C,J9*%
X72390000Y-55245000D03*
D11*
%TO.N,GND_I*%
X72390000Y-57785000D03*
%TO.N,Net-(J9-Pin_3)*%
X72390000Y-60325000D03*
%TD*%
D14*
%TO.N,N/C*%
%TO.C,H7*%
X50800000Y-46355000D03*
%TD*%
D10*
%TO.N,Net-(R65-Pad1)*%
%TO.C,RV13*%
X106680000Y-60325000D03*
D11*
%TO.N,Net-(U15B-+)*%
X106680000Y-62865000D03*
%TO.N,Net-(R58-Pad2)*%
X106680000Y-65405000D03*
%TD*%
D17*
%TO.N,GND_I*%
X159385000Y-109855000D03*
X111760000Y-102235000D03*
X109855000Y-95885000D03*
X107680000Y-74660000D03*
X130577500Y-62865000D03*
X125730000Y-120015000D03*
X155210000Y-94615000D03*
X79375000Y-67945000D03*
X165100000Y-119380000D03*
X157130000Y-74930000D03*
X95885000Y-68580000D03*
X122957500Y-114897500D03*
X128540000Y-94345000D03*
X80010000Y-73025000D03*
X94615000Y-95250000D03*
X155210000Y-97155000D03*
X155210000Y-108585000D03*
X124730000Y-88535000D03*
X157210000Y-63500000D03*
X134620000Y-48260000D03*
X155210000Y-71120000D03*
X82820000Y-95885000D03*
X155210000Y-59690000D03*
X101600000Y-54610000D03*
X94250000Y-83185000D03*
X123825000Y-70485000D03*
X77200000Y-50165000D03*
X124460000Y-57785000D03*
X102870000Y-120015000D03*
X82820000Y-102235000D03*
X81280000Y-73025000D03*
X155210000Y-117475000D03*
X94615000Y-96520000D03*
X166370000Y-119380000D03*
X73025000Y-122555000D03*
X130577500Y-52705000D03*
X157210000Y-52070000D03*
X155130000Y-82550000D03*
X167640000Y-119380000D03*
X92440000Y-129540000D03*
%TO.N,Net-(R58-Pad2)*%
X124730000Y-67945000D03*
%TO.N,Net-(R93-Pad2)*%
X121285000Y-47625000D03*
%TO.N,Net-(R101-Pad1)*%
X106045000Y-72390000D03*
%TO.N,Net-(R102-Pad1)*%
X133350000Y-73660000D03*
X132080000Y-78105000D03*
%TO.N,Net-(U19C--)*%
X115300000Y-109855000D03*
X115300000Y-85725000D03*
%TO.N,Net-(R135-Pad1)*%
X147955000Y-105410000D03*
%TO.N,Net-(U4C-+)*%
X96520000Y-88265000D03*
%TO.N,Net-(U17C--)*%
X149225000Y-54610000D03*
%TO.N,Net-(U19D--)*%
X151765000Y-66040000D03*
%TD*%
%TA.AperFunction,Conductor*%
%TO.N,GND_I*%
G36*
X158126979Y-46742382D02*
G01*
X158137034Y-46744382D01*
X158198946Y-46776767D01*
X158233520Y-46837483D01*
X158229781Y-46907252D01*
X158188915Y-46963924D01*
X158123897Y-46989506D01*
X158115100Y-46989899D01*
X158115000Y-46990000D01*
X158115000Y-47490000D01*
X158115000Y-87130000D01*
X158115000Y-87630000D01*
X158115000Y-95885000D01*
X158115000Y-98425000D01*
X158115000Y-107315000D01*
X158615000Y-107315000D01*
X159215325Y-107315000D01*
X159234722Y-107316526D01*
X159417648Y-107345500D01*
X159417649Y-107345500D01*
X160622351Y-107345500D01*
X160622352Y-107345500D01*
X160805277Y-107316526D01*
X160824675Y-107315000D01*
X161425000Y-107315000D01*
X162425000Y-107315000D01*
X168358638Y-107315000D01*
X168425677Y-107334685D01*
X168446319Y-107351319D01*
X168873681Y-107778681D01*
X168907166Y-107840004D01*
X168910000Y-107866362D01*
X168910000Y-109373709D01*
X168903931Y-109412028D01*
X168862754Y-109538756D01*
X168829500Y-109748713D01*
X168829500Y-109961286D01*
X168862753Y-110171239D01*
X168903931Y-110297971D01*
X168910000Y-110336289D01*
X168910000Y-111125000D01*
X169698709Y-111125000D01*
X169737027Y-111131068D01*
X169863757Y-111172246D01*
X170073713Y-111205500D01*
X170073714Y-111205500D01*
X170286286Y-111205500D01*
X170286287Y-111205500D01*
X170496243Y-111172246D01*
X170622972Y-111131068D01*
X170661291Y-111125000D01*
X172238709Y-111125000D01*
X172277027Y-111131068D01*
X172403757Y-111172246D01*
X172613713Y-111205500D01*
X172613714Y-111205500D01*
X172826286Y-111205500D01*
X172826287Y-111205500D01*
X173036243Y-111172246D01*
X173162972Y-111131068D01*
X173165302Y-111130699D01*
X173166356Y-111130023D01*
X173201291Y-111125000D01*
X173438638Y-111125000D01*
X173505677Y-111144685D01*
X173526319Y-111161319D01*
X173953681Y-111588681D01*
X173987166Y-111650004D01*
X173990000Y-111676362D01*
X173990000Y-115653638D01*
X173970315Y-115720677D01*
X173953681Y-115741319D01*
X173526319Y-116168681D01*
X173499391Y-116183384D01*
X173473573Y-116199977D01*
X173467372Y-116200868D01*
X173464996Y-116202166D01*
X173438638Y-116205000D01*
X173201291Y-116205000D01*
X173162972Y-116198931D01*
X173107512Y-116180911D01*
X173036243Y-116157754D01*
X172826287Y-116124500D01*
X172613713Y-116124500D01*
X172527335Y-116138181D01*
X172403756Y-116157754D01*
X172277028Y-116198931D01*
X172238709Y-116205000D01*
X170661291Y-116205000D01*
X170622972Y-116198931D01*
X170567512Y-116180911D01*
X170496243Y-116157754D01*
X170286287Y-116124500D01*
X170073713Y-116124500D01*
X169987335Y-116138181D01*
X169863756Y-116157754D01*
X169737028Y-116198931D01*
X169698709Y-116205000D01*
X168275000Y-116205000D01*
X168275000Y-120733638D01*
X168255315Y-120800677D01*
X168238681Y-120821319D01*
X167811319Y-121248681D01*
X167749996Y-121282166D01*
X167723638Y-121285000D01*
X162476362Y-121285000D01*
X162409323Y-121265315D01*
X162388681Y-121248681D01*
X161961319Y-120821319D01*
X161927834Y-120759996D01*
X161925000Y-120733638D01*
X161925000Y-113665000D01*
X161514446Y-113665000D01*
X161471112Y-113657181D01*
X161427491Y-113640911D01*
X161427480Y-113640908D01*
X161367883Y-113634501D01*
X161367881Y-113634500D01*
X161367873Y-113634500D01*
X161367864Y-113634500D01*
X158672129Y-113634500D01*
X158672123Y-113634501D01*
X158612518Y-113640908D01*
X158587164Y-113650365D01*
X158568885Y-113657182D01*
X158525554Y-113665000D01*
X158115000Y-113665000D01*
X158115000Y-130385638D01*
X158095315Y-130452677D01*
X158078681Y-130473319D01*
X157651319Y-130900681D01*
X157589996Y-130934166D01*
X157563638Y-130937000D01*
X71671362Y-130937000D01*
X71604323Y-130917315D01*
X71583681Y-130900681D01*
X71156319Y-130473319D01*
X71122834Y-130411996D01*
X71120000Y-130385638D01*
X71120000Y-121836362D01*
X71139685Y-121769323D01*
X71156319Y-121748681D01*
X71583681Y-121321319D01*
X71645004Y-121287834D01*
X71671362Y-121285000D01*
X74295000Y-121285000D01*
X74295000Y-116205000D01*
X73884446Y-116205000D01*
X73841112Y-116197181D01*
X73797491Y-116180911D01*
X73797480Y-116180908D01*
X73737883Y-116174501D01*
X73737881Y-116174500D01*
X73737873Y-116174500D01*
X73737865Y-116174500D01*
X71640862Y-116174500D01*
X71573823Y-116154815D01*
X71553181Y-116138181D01*
X71156319Y-115741319D01*
X71122834Y-115679996D01*
X71120000Y-115653638D01*
X71120000Y-114216362D01*
X71139685Y-114149323D01*
X71156319Y-114128681D01*
X71583681Y-113701319D01*
X71645004Y-113667834D01*
X71671362Y-113665000D01*
X77553638Y-113665000D01*
X77620677Y-113684685D01*
X77641319Y-113701319D01*
X78068681Y-114128681D01*
X78102166Y-114190004D01*
X78105000Y-114216362D01*
X78105000Y-121920000D01*
X89035000Y-121920000D01*
X89535000Y-121920000D01*
X89535000Y-111125000D01*
X88334675Y-111125000D01*
X88315277Y-111123473D01*
X88298830Y-111120868D01*
X88132352Y-111094500D01*
X87127648Y-111094500D01*
X86961170Y-111120868D01*
X86944723Y-111123473D01*
X86925325Y-111125000D01*
X82466362Y-111125000D01*
X82399323Y-111105315D01*
X82378681Y-111088681D01*
X81951319Y-110661319D01*
X81917834Y-110599996D01*
X81915000Y-110573638D01*
X81915000Y-103505000D01*
X81415000Y-103505000D01*
X81193159Y-103505000D01*
X81154156Y-103498706D01*
X81112801Y-103485002D01*
X81112798Y-103485001D01*
X81112797Y-103485001D01*
X81112793Y-103485000D01*
X81112790Y-103485000D01*
X81010010Y-103474500D01*
X79009998Y-103474500D01*
X79009981Y-103474501D01*
X78907203Y-103485000D01*
X78875151Y-103495621D01*
X78865843Y-103498706D01*
X78826840Y-103505000D01*
X78105000Y-103505000D01*
X78105000Y-110573638D01*
X78085315Y-110640677D01*
X78068681Y-110661319D01*
X77641319Y-111088681D01*
X77579996Y-111122166D01*
X77553638Y-111125000D01*
X71671362Y-111125000D01*
X71604323Y-111105315D01*
X71583681Y-111088681D01*
X71156319Y-110661319D01*
X71122834Y-110599996D01*
X71120000Y-110573638D01*
X71120000Y-109136361D01*
X71139685Y-109069322D01*
X71156314Y-109048685D01*
X71553183Y-108651816D01*
X71614504Y-108618333D01*
X71640854Y-108615499D01*
X73737872Y-108615499D01*
X73797483Y-108609091D01*
X73841114Y-108592817D01*
X73884446Y-108585000D01*
X74295000Y-108585000D01*
X74295000Y-100246362D01*
X74314685Y-100179323D01*
X74331319Y-100158681D01*
X74758681Y-99731319D01*
X74820004Y-99697834D01*
X74846362Y-99695000D01*
X85173638Y-99695000D01*
X85240677Y-99714685D01*
X85261319Y-99731319D01*
X85688681Y-100158681D01*
X85722166Y-100220004D01*
X85725000Y-100246362D01*
X85725000Y-108585000D01*
X86925325Y-108585000D01*
X86944722Y-108586526D01*
X87127648Y-108615500D01*
X87127649Y-108615500D01*
X88132351Y-108615500D01*
X88132352Y-108615500D01*
X88315277Y-108586526D01*
X88334675Y-108585000D01*
X89535000Y-108585000D01*
X89535000Y-97790000D01*
X89035000Y-97790000D01*
X74846362Y-97790000D01*
X74779323Y-97770315D01*
X74758681Y-97753681D01*
X74331319Y-97326319D01*
X74297834Y-97264996D01*
X74295000Y-97238638D01*
X74295000Y-89535000D01*
X73884446Y-89535000D01*
X73841112Y-89527181D01*
X73797491Y-89510911D01*
X73797480Y-89510908D01*
X73737883Y-89504501D01*
X73737881Y-89504500D01*
X73737873Y-89504500D01*
X73737865Y-89504500D01*
X71640862Y-89504500D01*
X71573823Y-89484815D01*
X71553181Y-89468181D01*
X71156319Y-89071319D01*
X71122834Y-89009996D01*
X71120000Y-88983638D01*
X71120000Y-87546362D01*
X71139685Y-87479323D01*
X71156319Y-87458681D01*
X71583681Y-87031319D01*
X71645004Y-86997834D01*
X71671362Y-86995000D01*
X77553638Y-86995000D01*
X77620677Y-87014685D01*
X77641319Y-87031319D01*
X78068681Y-87458681D01*
X78102166Y-87520004D01*
X78105000Y-87546362D01*
X78105000Y-94615000D01*
X79305325Y-94615000D01*
X79324722Y-94616526D01*
X79507648Y-94645500D01*
X79507649Y-94645500D01*
X80512351Y-94645500D01*
X80512352Y-94645500D01*
X80695277Y-94616526D01*
X80714675Y-94615000D01*
X86925325Y-94615000D01*
X86944722Y-94616526D01*
X87127648Y-94645500D01*
X87127649Y-94645500D01*
X88132351Y-94645500D01*
X88132352Y-94645500D01*
X88315277Y-94616526D01*
X88334675Y-94615000D01*
X89535000Y-94615000D01*
X89535000Y-76200000D01*
X89035000Y-76200000D01*
X78605000Y-76200000D01*
X78105000Y-76200000D01*
X78105000Y-83903638D01*
X78085315Y-83970677D01*
X78068681Y-83991319D01*
X77641319Y-84418681D01*
X77579996Y-84452166D01*
X77553638Y-84455000D01*
X71671362Y-84455000D01*
X71604323Y-84435315D01*
X71583681Y-84418681D01*
X71156319Y-83991319D01*
X71122834Y-83929996D01*
X71120000Y-83903638D01*
X71120000Y-82466361D01*
X71139685Y-82399322D01*
X71156314Y-82378685D01*
X71553183Y-81981816D01*
X71614504Y-81948333D01*
X71640854Y-81945499D01*
X73737872Y-81945499D01*
X73797483Y-81939091D01*
X73841114Y-81922817D01*
X73884446Y-81915000D01*
X74295000Y-81915000D01*
X74295000Y-72941362D01*
X74314685Y-72874323D01*
X74331319Y-72853681D01*
X74758681Y-72426319D01*
X74820004Y-72392834D01*
X74846362Y-72390000D01*
X94698638Y-72390000D01*
X94765677Y-72409685D01*
X94786319Y-72426319D01*
X95213681Y-72853681D01*
X95247166Y-72915004D01*
X95250000Y-72941362D01*
X95250000Y-102318638D01*
X95230315Y-102385677D01*
X95213681Y-102406319D01*
X94786319Y-102833681D01*
X94724996Y-102867166D01*
X94698638Y-102870000D01*
X93345000Y-102870000D01*
X93345000Y-121666000D01*
X97290000Y-121666000D01*
X97790000Y-121666000D01*
X97790000Y-114216362D01*
X97809685Y-114149323D01*
X97826319Y-114128681D01*
X98253681Y-113701319D01*
X98315004Y-113667834D01*
X98341362Y-113665000D01*
X103588638Y-113665000D01*
X103655677Y-113684685D01*
X103676319Y-113701319D01*
X104103681Y-114128681D01*
X104137166Y-114190004D01*
X104140000Y-114216362D01*
X104140000Y-115653637D01*
X104120315Y-115720676D01*
X104103681Y-115741318D01*
X103706818Y-116138181D01*
X103645495Y-116171666D01*
X103619137Y-116174500D01*
X101522129Y-116174500D01*
X101522123Y-116174501D01*
X101462518Y-116180908D01*
X101437164Y-116190365D01*
X101418885Y-116197182D01*
X101375554Y-116205000D01*
X100965000Y-116205000D01*
X100965000Y-118745000D01*
X101375554Y-118745000D01*
X101418888Y-118752819D01*
X101462508Y-118769088D01*
X101462511Y-118769088D01*
X101462517Y-118769091D01*
X101522127Y-118775500D01*
X104217872Y-118775499D01*
X104277483Y-118769091D01*
X104321114Y-118752817D01*
X104364446Y-118745000D01*
X106763638Y-118745000D01*
X106830677Y-118764685D01*
X106851319Y-118781319D01*
X107278681Y-119208681D01*
X107312166Y-119270004D01*
X107315000Y-119296362D01*
X107315000Y-121285000D01*
X109785325Y-121285000D01*
X109804722Y-121286526D01*
X109987648Y-121315500D01*
X109987649Y-121315500D01*
X110992351Y-121315500D01*
X110992352Y-121315500D01*
X111175277Y-121286526D01*
X111194675Y-121285000D01*
X117405325Y-121285000D01*
X117424722Y-121286526D01*
X117607648Y-121315500D01*
X117607649Y-121315500D01*
X118612351Y-121315500D01*
X118612352Y-121315500D01*
X118795277Y-121286526D01*
X118814675Y-121285000D01*
X121285000Y-121285000D01*
X121285000Y-103505000D01*
X120785000Y-103505000D01*
X118814675Y-103505000D01*
X118795277Y-103503473D01*
X118765180Y-103498706D01*
X118612352Y-103474500D01*
X117607648Y-103474500D01*
X117454820Y-103498706D01*
X117424723Y-103503473D01*
X117405325Y-103505000D01*
X111673159Y-103505000D01*
X111634156Y-103498706D01*
X111592801Y-103485002D01*
X111592798Y-103485001D01*
X111592797Y-103485001D01*
X111592793Y-103485000D01*
X111592790Y-103485000D01*
X111490010Y-103474500D01*
X109489998Y-103474500D01*
X109489981Y-103474501D01*
X109387203Y-103485000D01*
X109355151Y-103495621D01*
X109345843Y-103498706D01*
X109306840Y-103505000D01*
X100965000Y-103505000D01*
X100965000Y-108585000D01*
X101375554Y-108585000D01*
X101418888Y-108592819D01*
X101462508Y-108609088D01*
X101462511Y-108609088D01*
X101462517Y-108609091D01*
X101522127Y-108615500D01*
X103619137Y-108615499D01*
X103686176Y-108635184D01*
X103706818Y-108651818D01*
X104103681Y-109048681D01*
X104137166Y-109110004D01*
X104140000Y-109136362D01*
X104140000Y-110573638D01*
X104120315Y-110640677D01*
X104103681Y-110661319D01*
X103676319Y-111088681D01*
X103614996Y-111122166D01*
X103588638Y-111125000D01*
X97706362Y-111125000D01*
X97639323Y-111105315D01*
X97618681Y-111088681D01*
X97191319Y-110661319D01*
X97157834Y-110599996D01*
X97155000Y-110573638D01*
X97155000Y-88882755D01*
X97174685Y-88815716D01*
X97177433Y-88811939D01*
X97180622Y-88807165D01*
X97180626Y-88807162D01*
X97273703Y-88667863D01*
X97337816Y-88513082D01*
X97370500Y-88348767D01*
X97370500Y-88181233D01*
X97337816Y-88016918D01*
X97273703Y-87862137D01*
X97180626Y-87722838D01*
X97177242Y-87717773D01*
X97179147Y-87716499D01*
X97155832Y-87661587D01*
X97155000Y-87647244D01*
X97155000Y-82466362D01*
X97174685Y-82399323D01*
X97191319Y-82378681D01*
X97618681Y-81951319D01*
X97680004Y-81917834D01*
X97706362Y-81915000D01*
X101375554Y-81915000D01*
X101418888Y-81922819D01*
X101462508Y-81939088D01*
X101462511Y-81939088D01*
X101462517Y-81939091D01*
X101522127Y-81945500D01*
X104217872Y-81945499D01*
X104277483Y-81939091D01*
X104321114Y-81922817D01*
X104364446Y-81915000D01*
X104775000Y-81915000D01*
X104775000Y-74211362D01*
X104794685Y-74144323D01*
X104811319Y-74123681D01*
X105238681Y-73696319D01*
X105300004Y-73662834D01*
X105326362Y-73660000D01*
X108033638Y-73660000D01*
X108100677Y-73679685D01*
X108121319Y-73696319D01*
X108548681Y-74123681D01*
X108582166Y-74185004D01*
X108585000Y-74211362D01*
X108585000Y-83903638D01*
X108565315Y-83970677D01*
X108548681Y-83991319D01*
X108121319Y-84418681D01*
X108059996Y-84452166D01*
X108033638Y-84455000D01*
X100965000Y-84455000D01*
X100965000Y-99695000D01*
X101465000Y-99695000D01*
X126448638Y-99695000D01*
X126515677Y-99714685D01*
X126536319Y-99731319D01*
X126963681Y-100158681D01*
X126997166Y-100220004D01*
X127000000Y-100246362D01*
X127000000Y-121666000D01*
X138565000Y-121666000D01*
X139065000Y-121666000D01*
X139065000Y-109136362D01*
X139084685Y-109069323D01*
X139101319Y-109048681D01*
X139528681Y-108621319D01*
X139590004Y-108587834D01*
X139616362Y-108585000D01*
X144075325Y-108585000D01*
X144094722Y-108586526D01*
X144277648Y-108615500D01*
X144277649Y-108615500D01*
X145282351Y-108615500D01*
X145282352Y-108615500D01*
X145465277Y-108586526D01*
X145484675Y-108585000D01*
X145498638Y-108585000D01*
X145565677Y-108604685D01*
X145586319Y-108621319D01*
X146013681Y-109048681D01*
X146047166Y-109110004D01*
X146050000Y-109136362D01*
X146050000Y-110573638D01*
X146030315Y-110640677D01*
X146013681Y-110661319D01*
X145586319Y-111088681D01*
X145559391Y-111103384D01*
X145533573Y-111119977D01*
X145527372Y-111120868D01*
X145524996Y-111122166D01*
X145498638Y-111125000D01*
X145484675Y-111125000D01*
X145465277Y-111123473D01*
X145448830Y-111120868D01*
X145282352Y-111094500D01*
X144277648Y-111094500D01*
X144111170Y-111120868D01*
X144094723Y-111123473D01*
X144075325Y-111125000D01*
X142875000Y-111125000D01*
X142875000Y-121920000D01*
X148725000Y-121920000D01*
X149225000Y-121920000D01*
X149225000Y-99819000D01*
X149244685Y-99751961D01*
X149297489Y-99706206D01*
X149349000Y-99695000D01*
X149352000Y-99695000D01*
X149352000Y-97790000D01*
X105326362Y-97790000D01*
X105259323Y-97770315D01*
X105238681Y-97753681D01*
X104811319Y-97326319D01*
X104777834Y-97264996D01*
X104775000Y-97238638D01*
X104775000Y-89535000D01*
X104364446Y-89535000D01*
X104321112Y-89527181D01*
X104277491Y-89510911D01*
X104277480Y-89510908D01*
X104217883Y-89504501D01*
X104217881Y-89504500D01*
X104217873Y-89504500D01*
X104217865Y-89504500D01*
X102120862Y-89504500D01*
X102053823Y-89484815D01*
X102033181Y-89468181D01*
X101636319Y-89071319D01*
X101602834Y-89009996D01*
X101600000Y-88983638D01*
X101600000Y-87546362D01*
X101619685Y-87479323D01*
X101636319Y-87458681D01*
X102063681Y-87031319D01*
X102125004Y-86997834D01*
X102151362Y-86995000D01*
X108033638Y-86995000D01*
X108100677Y-87014685D01*
X108121319Y-87031319D01*
X108548681Y-87458681D01*
X108582166Y-87520004D01*
X108585000Y-87546362D01*
X108585000Y-94615000D01*
X109785325Y-94615000D01*
X109804722Y-94616526D01*
X109987648Y-94645500D01*
X109987649Y-94645500D01*
X110992351Y-94645500D01*
X110992352Y-94645500D01*
X111175277Y-94616526D01*
X111194675Y-94615000D01*
X117405325Y-94615000D01*
X117424722Y-94616526D01*
X117607648Y-94645500D01*
X117607649Y-94645500D01*
X118612351Y-94645500D01*
X118612352Y-94645500D01*
X118795277Y-94616526D01*
X118814675Y-94615000D01*
X122555000Y-94615000D01*
X122555000Y-79926362D01*
X122574685Y-79859323D01*
X122591319Y-79838681D01*
X123018681Y-79411319D01*
X123080004Y-79377834D01*
X123106362Y-79375000D01*
X134620000Y-79375000D01*
X134620000Y-73025000D01*
X134120000Y-73025000D01*
X133967756Y-73025000D01*
X133900717Y-73005315D01*
X133896941Y-73002567D01*
X133752860Y-72906295D01*
X133598082Y-72842184D01*
X133598074Y-72842182D01*
X133433771Y-72809500D01*
X133433767Y-72809500D01*
X133266233Y-72809500D01*
X133266228Y-72809500D01*
X133101925Y-72842182D01*
X133101917Y-72842184D01*
X132947139Y-72906295D01*
X132802773Y-73002758D01*
X132801499Y-73000852D01*
X132746587Y-73024168D01*
X132732244Y-73025000D01*
X119266118Y-73025000D01*
X119225073Y-73018010D01*
X119181048Y-73002567D01*
X118374493Y-72719642D01*
X118338076Y-72699460D01*
X117157500Y-71755000D01*
X115570000Y-70485000D01*
X115070000Y-70485000D01*
X66591362Y-70485000D01*
X66524323Y-70465315D01*
X66503681Y-70448681D01*
X66076319Y-70021319D01*
X66042834Y-69959996D01*
X66040000Y-69933638D01*
X66040000Y-57066362D01*
X66059685Y-56999323D01*
X66076319Y-56978681D01*
X66503681Y-56551319D01*
X66565004Y-56517834D01*
X66591362Y-56515000D01*
X70895554Y-56515000D01*
X70938888Y-56522819D01*
X70982508Y-56539088D01*
X70982511Y-56539088D01*
X70982517Y-56539091D01*
X71042127Y-56545500D01*
X73737872Y-56545499D01*
X73797483Y-56539091D01*
X73841114Y-56522817D01*
X73884446Y-56515000D01*
X74930000Y-56515000D01*
X74930000Y-49446362D01*
X74949685Y-49379323D01*
X74966319Y-49358681D01*
X75393681Y-48931319D01*
X75455004Y-48897834D01*
X75481362Y-48895000D01*
X77553638Y-48895000D01*
X77620677Y-48914685D01*
X77641319Y-48931319D01*
X78068681Y-49358681D01*
X78102166Y-49420004D01*
X78105000Y-49446362D01*
X78105000Y-58503638D01*
X78085315Y-58570677D01*
X78068681Y-58591319D01*
X77641319Y-59018681D01*
X77579996Y-59052166D01*
X77553638Y-59055000D01*
X73194675Y-59055000D01*
X73175277Y-59053473D01*
X73135558Y-59047182D01*
X72992352Y-59024500D01*
X71787648Y-59024500D01*
X71644442Y-59047182D01*
X71604723Y-59053473D01*
X71585325Y-59055000D01*
X70485000Y-59055000D01*
X70485000Y-66675000D01*
X79305325Y-66675000D01*
X79324722Y-66676526D01*
X79507648Y-66705500D01*
X79507649Y-66705500D01*
X80512351Y-66705500D01*
X80512352Y-66705500D01*
X80695277Y-66676526D01*
X80714675Y-66675000D01*
X81915000Y-66675000D01*
X81915000Y-54526362D01*
X81934685Y-54459323D01*
X81951319Y-54438681D01*
X82378681Y-54011319D01*
X82440004Y-53977834D01*
X82466362Y-53975000D01*
X86925325Y-53975000D01*
X86944722Y-53976526D01*
X87127648Y-54005500D01*
X87127649Y-54005500D01*
X88132351Y-54005500D01*
X88132352Y-54005500D01*
X88315277Y-53976526D01*
X88334675Y-53975000D01*
X88348638Y-53975000D01*
X88415677Y-53994685D01*
X88436319Y-54011319D01*
X88863681Y-54438681D01*
X88897166Y-54500004D01*
X88900000Y-54526362D01*
X88900000Y-55963638D01*
X88880315Y-56030677D01*
X88863681Y-56051319D01*
X88436319Y-56478681D01*
X88409391Y-56493384D01*
X88383573Y-56509977D01*
X88377372Y-56510868D01*
X88374996Y-56512166D01*
X88348638Y-56515000D01*
X88334675Y-56515000D01*
X88315277Y-56513473D01*
X88298830Y-56510868D01*
X88132352Y-56484500D01*
X87127648Y-56484500D01*
X86961170Y-56510868D01*
X86944723Y-56513473D01*
X86925325Y-56515000D01*
X85725000Y-56515000D01*
X85725000Y-66675000D01*
X86925325Y-66675000D01*
X86944722Y-66676526D01*
X87127648Y-66705500D01*
X87127649Y-66705500D01*
X88132351Y-66705500D01*
X88132352Y-66705500D01*
X88315277Y-66676526D01*
X88334675Y-66675000D01*
X100330000Y-66675000D01*
X100330000Y-53621362D01*
X100349685Y-53554323D01*
X100366319Y-53533681D01*
X100793681Y-53106319D01*
X100855004Y-53072834D01*
X100881362Y-53070000D01*
X103588638Y-53070000D01*
X103655677Y-53089685D01*
X103676319Y-53106319D01*
X104103681Y-53533681D01*
X104137166Y-53595004D01*
X104140000Y-53621362D01*
X104140000Y-66675000D01*
X105875325Y-66675000D01*
X105894722Y-66676526D01*
X106077648Y-66705500D01*
X106077649Y-66705500D01*
X107282351Y-66705500D01*
X107282352Y-66705500D01*
X107465277Y-66676526D01*
X107484675Y-66675000D01*
X109785325Y-66675000D01*
X109804722Y-66676526D01*
X109987648Y-66705500D01*
X109987649Y-66705500D01*
X110992351Y-66705500D01*
X110992352Y-66705500D01*
X111175277Y-66676526D01*
X111194675Y-66675000D01*
X117405325Y-66675000D01*
X117424722Y-66676526D01*
X117607648Y-66705500D01*
X117607649Y-66705500D01*
X117681377Y-66705500D01*
X117720589Y-66711863D01*
X118490913Y-66968637D01*
X118526095Y-66987071D01*
X120650000Y-68580000D01*
X120650001Y-68580000D01*
X124112244Y-68580000D01*
X124179283Y-68599685D01*
X124183058Y-68602432D01*
X124187837Y-68605625D01*
X124187838Y-68605626D01*
X124327137Y-68698703D01*
X124481918Y-68762816D01*
X124646228Y-68795499D01*
X124646232Y-68795500D01*
X124646233Y-68795500D01*
X124813768Y-68795500D01*
X124813769Y-68795499D01*
X124978082Y-68762816D01*
X125132863Y-68698703D01*
X125272162Y-68605626D01*
X125272161Y-68605626D01*
X125277227Y-68602242D01*
X125278500Y-68604147D01*
X125333413Y-68580832D01*
X125347756Y-68580000D01*
X127635000Y-68580000D01*
X127635000Y-59055000D01*
X127224446Y-59055000D01*
X127181112Y-59047181D01*
X127137491Y-59030911D01*
X127137480Y-59030908D01*
X127077883Y-59024501D01*
X127077881Y-59024500D01*
X127077873Y-59024500D01*
X127077864Y-59024500D01*
X124382129Y-59024500D01*
X124382123Y-59024501D01*
X124322518Y-59030908D01*
X124297164Y-59040365D01*
X124278885Y-59047182D01*
X124235554Y-59055000D01*
X123741362Y-59055000D01*
X123674323Y-59035315D01*
X123653681Y-59018681D01*
X123226319Y-58591319D01*
X123192834Y-58529996D01*
X123190000Y-58503638D01*
X123190000Y-57066362D01*
X123209685Y-56999323D01*
X123226319Y-56978681D01*
X123653681Y-56551319D01*
X123715004Y-56517834D01*
X123741362Y-56515000D01*
X124235554Y-56515000D01*
X124278888Y-56522819D01*
X124322508Y-56539088D01*
X124322511Y-56539088D01*
X124322517Y-56539091D01*
X124382127Y-56545500D01*
X127077872Y-56545499D01*
X127137483Y-56539091D01*
X127181114Y-56522817D01*
X127224446Y-56515000D01*
X128270000Y-56515000D01*
X128270000Y-47541362D01*
X128289685Y-47474323D01*
X128306319Y-47453681D01*
X128733681Y-47026319D01*
X128795004Y-46992834D01*
X128821362Y-46990000D01*
X144228638Y-46990000D01*
X144295677Y-47009685D01*
X144316319Y-47026319D01*
X144743681Y-47453681D01*
X144777166Y-47515004D01*
X144780000Y-47541362D01*
X144780000Y-79375000D01*
X153670000Y-79375000D01*
X153670000Y-46990000D01*
X153669103Y-46989103D01*
X153649882Y-46983459D01*
X153626755Y-46981390D01*
X153616984Y-46973799D01*
X153605117Y-46970315D01*
X153589915Y-46952771D01*
X153571578Y-46938526D01*
X153567462Y-46926859D01*
X153559362Y-46917511D01*
X153556057Y-46894530D01*
X153548334Y-46872636D01*
X153551178Y-46860597D01*
X153549418Y-46848353D01*
X153559062Y-46827234D01*
X153564402Y-46804639D01*
X153573304Y-46796049D01*
X153578443Y-46784797D01*
X153597974Y-46772244D01*
X153614682Y-46756124D01*
X153633254Y-46749571D01*
X153637221Y-46747023D01*
X153647966Y-46744382D01*
X153658021Y-46742382D01*
X153682211Y-46740000D01*
X158102789Y-46740000D01*
X158126979Y-46742382D01*
G37*
%TD.AperFunction*%
%TD*%
M02*
