G04*
G04 #@! TF.GenerationSoftware,Altium Limited,Altium Designer,20.0.14 (345)*
G04*
G04 Layer_Physical_Order=2*
G04 Layer_Color=16776960*
%FSLAX25Y25*%
%MOIN*%
G70*
G01*
G75*
%ADD20C,0.04724*%
%ADD21R,0.04724X0.04724*%
%ADD28C,0.02000*%
%ADD29C,0.01200*%
%ADD31O,0.05937X0.07874*%
%ADD32R,0.05937X0.05937*%
%ADD33C,0.05937*%
%ADD34C,0.05709*%
%ADD35R,0.05709X0.05709*%
%ADD36C,0.06024*%
%ADD37R,0.06024X0.06024*%
%ADD39O,0.07874X0.05937*%
%ADD40C,0.05906*%
%ADD41C,0.05000*%
%ADD42R,0.05906X0.05512*%
%ADD43R,0.05118X0.07874*%
%ADD44R,0.05118X0.05118*%
%ADD45R,0.07874X0.04921*%
%ADD46R,0.03543X0.03150*%
%ADD47R,0.05709X0.05709*%
G36*
X590551Y0D02*
X0D01*
Y295276D01*
X590551D01*
Y0D01*
D02*
G37*
%LPC*%
G36*
X580500Y288464D02*
Y285500D01*
X583464D01*
X583410Y285914D01*
X583057Y286765D01*
X582496Y287496D01*
X581765Y288057D01*
X580914Y288410D01*
X580500Y288464D01*
D02*
G37*
G36*
X579500D02*
X579086Y288410D01*
X578235Y288057D01*
X577504Y287496D01*
X576943Y286765D01*
X576590Y285914D01*
X576536Y285500D01*
X579500D01*
Y288464D01*
D02*
G37*
G36*
X583464Y284500D02*
X580500D01*
Y281536D01*
X580914Y281590D01*
X581765Y281943D01*
X582496Y282504D01*
X583057Y283235D01*
X583410Y284086D01*
X583464Y284500D01*
D02*
G37*
G36*
X579500D02*
X576536D01*
X576590Y284086D01*
X576943Y283235D01*
X577504Y282504D01*
X578235Y281943D01*
X579086Y281590D01*
X579500Y281536D01*
Y284500D01*
D02*
G37*
G36*
X10000Y288530D02*
X9086Y288410D01*
X8235Y288057D01*
X7504Y287496D01*
X6943Y286765D01*
X6590Y285914D01*
X6470Y285000D01*
X6590Y284086D01*
X6943Y283235D01*
X7504Y282504D01*
X8235Y281943D01*
X9086Y281590D01*
X10000Y281470D01*
X10914Y281590D01*
X11765Y281943D01*
X12496Y282504D01*
X13057Y283235D01*
X13410Y284086D01*
X13530Y285000D01*
X13410Y285914D01*
X13057Y286765D01*
X12496Y287496D01*
X11765Y288057D01*
X10914Y288410D01*
X10000Y288530D01*
D02*
G37*
G36*
X493953Y274996D02*
X490500D01*
Y271740D01*
X493953D01*
Y274996D01*
D02*
G37*
G36*
X489500D02*
X486047D01*
Y271740D01*
X489500D01*
Y274996D01*
D02*
G37*
G36*
X133953Y274996D02*
X130500D01*
Y271740D01*
X133953D01*
Y274996D01*
D02*
G37*
G36*
X129500D02*
X126047D01*
Y271740D01*
X129500D01*
Y274996D01*
D02*
G37*
G36*
X428734Y292331D02*
X76900D01*
X76276Y292207D01*
X75747Y291853D01*
X53947Y270054D01*
X53593Y269524D01*
X53469Y268900D01*
Y62100D01*
X53593Y61476D01*
X53947Y60947D01*
X68546Y46347D01*
X69076Y45993D01*
X69700Y45869D01*
X266470D01*
X271529Y40809D01*
X271367Y40417D01*
X271229Y39370D01*
X271367Y38323D01*
X271771Y37347D01*
X272414Y36509D01*
X273252Y35866D01*
X274228Y35462D01*
X275276Y35324D01*
X276323Y35462D01*
X277299Y35866D01*
X278137Y36509D01*
X278780Y37347D01*
X279184Y38323D01*
X279322Y39370D01*
X279184Y40417D01*
X278780Y41393D01*
X278137Y42231D01*
X277299Y42874D01*
X276323Y43279D01*
X275276Y43417D01*
X274228Y43279D01*
X273836Y43116D01*
X268846Y48107D01*
X269037Y48569D01*
X273770D01*
X281529Y40809D01*
X281367Y40417D01*
X281229Y39370D01*
X281367Y38323D01*
X281771Y37347D01*
X282414Y36509D01*
X283252Y35866D01*
X284228Y35462D01*
X285276Y35324D01*
X286323Y35462D01*
X287299Y35866D01*
X288137Y36509D01*
X288780Y37347D01*
X289184Y38323D01*
X289322Y39370D01*
X289184Y40417D01*
X288780Y41393D01*
X288137Y42231D01*
X287299Y42874D01*
X286323Y43279D01*
X285276Y43417D01*
X284228Y43279D01*
X283836Y43116D01*
X276546Y50407D01*
X276737Y50869D01*
X281470D01*
X291529Y40809D01*
X291367Y40417D01*
X291229Y39370D01*
X291367Y38323D01*
X291771Y37347D01*
X292414Y36509D01*
X293252Y35866D01*
X294228Y35462D01*
X295276Y35324D01*
X296323Y35462D01*
X297299Y35866D01*
X298137Y36509D01*
X298780Y37347D01*
X299184Y38323D01*
X299322Y39370D01*
X299184Y40417D01*
X298780Y41393D01*
X298137Y42231D01*
X297299Y42874D01*
X296323Y43279D01*
X295276Y43417D01*
X294228Y43279D01*
X293836Y43116D01*
X283946Y53007D01*
X284137Y53469D01*
X288870D01*
X301529Y40809D01*
X301367Y40417D01*
X301229Y39370D01*
X301367Y38323D01*
X301771Y37347D01*
X302414Y36509D01*
X302906Y36131D01*
X302736Y35631D01*
X299905D01*
X299281Y35507D01*
X298752Y35153D01*
X296715Y33116D01*
X296323Y33279D01*
X295276Y33417D01*
X294228Y33279D01*
X293252Y32874D01*
X292414Y32231D01*
X291771Y31393D01*
X291367Y30417D01*
X291229Y29370D01*
X291367Y28323D01*
X291771Y27347D01*
X292414Y26509D01*
X293252Y25866D01*
X294228Y25462D01*
X295276Y25324D01*
X296323Y25462D01*
X297299Y25866D01*
X298137Y26509D01*
X298780Y27347D01*
X299184Y28323D01*
X299322Y29370D01*
X299184Y30417D01*
X299022Y30809D01*
X300581Y32369D01*
X301889D01*
X302136Y31869D01*
X301771Y31393D01*
X301367Y30417D01*
X301295Y29870D01*
X309256D01*
X309184Y30417D01*
X308780Y31393D01*
X308137Y32231D01*
X308057Y32293D01*
X308073Y32793D01*
X308154Y32847D01*
X311253Y35947D01*
X311607Y36476D01*
X311649Y36685D01*
X312183Y36810D01*
X312414Y36509D01*
X313252Y35866D01*
X314228Y35462D01*
X315276Y35324D01*
X316323Y35462D01*
X317299Y35866D01*
X318137Y36509D01*
X318780Y37347D01*
X319184Y38323D01*
X319322Y39370D01*
X319184Y40417D01*
X318780Y41393D01*
X318137Y42231D01*
X317299Y42874D01*
X316907Y43037D01*
Y44778D01*
X317369Y44970D01*
X321529Y40809D01*
X321367Y40417D01*
X321229Y39370D01*
X321367Y38323D01*
X321771Y37347D01*
X322414Y36509D01*
X323252Y35866D01*
X324228Y35462D01*
X325276Y35324D01*
X326323Y35462D01*
X327299Y35866D01*
X328137Y36509D01*
X328780Y37347D01*
X329184Y38323D01*
X329322Y39370D01*
X329184Y40417D01*
X328780Y41393D01*
X328137Y42231D01*
X327299Y42874D01*
X326323Y43279D01*
X325276Y43417D01*
X324228Y43279D01*
X323836Y43116D01*
X319631Y47321D01*
Y94500D01*
X319631Y94500D01*
X319507Y95124D01*
X319153Y95653D01*
X253153Y161653D01*
X252624Y162007D01*
X252000Y162131D01*
X100317D01*
X81631Y180817D01*
Y210004D01*
X83953D01*
Y212128D01*
X86047D01*
Y210004D01*
X93953D01*
Y217484D01*
Y220740D01*
X90000D01*
X86047D01*
Y217484D01*
Y215391D01*
X83953D01*
Y217484D01*
Y224996D01*
X78551D01*
X74131Y229416D01*
Y272024D01*
X81976Y279869D01*
X130324D01*
X136374Y273819D01*
X136245Y273506D01*
X136112Y272500D01*
X136245Y271494D01*
X136633Y270556D01*
X137251Y269751D01*
X138056Y269133D01*
X138994Y268745D01*
X140000Y268612D01*
X141006Y268745D01*
X141944Y269133D01*
X142749Y269751D01*
X143367Y270556D01*
X143496Y270869D01*
X146047D01*
Y267484D01*
Y265391D01*
X142564D01*
X141944Y265867D01*
X141006Y266255D01*
X140000Y266388D01*
X138994Y266255D01*
X138056Y265867D01*
X137251Y265249D01*
X136633Y264444D01*
X136245Y263506D01*
X136112Y262500D01*
X136245Y261494D01*
X136633Y260556D01*
X137251Y259751D01*
X137263Y259570D01*
X136824Y259131D01*
X127500D01*
X126876Y259007D01*
X126347Y258653D01*
X123846Y256153D01*
X123493Y255624D01*
X123369Y255000D01*
Y254996D01*
X121631D01*
Y260004D01*
X123953D01*
Y262128D01*
X126047D01*
Y260004D01*
X133953D01*
Y267484D01*
Y270740D01*
X126047D01*
Y267484D01*
Y265391D01*
X123953D01*
Y267484D01*
Y274996D01*
X116047D01*
Y274131D01*
X113854D01*
Y276354D01*
X106146D01*
Y268646D01*
X108369D01*
Y265996D01*
X108056Y265867D01*
X107251Y265249D01*
X106633Y264444D01*
X106245Y263506D01*
X106112Y262500D01*
X106245Y261494D01*
X106633Y260556D01*
X107251Y259751D01*
X108056Y259133D01*
X108994Y258745D01*
X110000Y258612D01*
X111006Y258745D01*
X111944Y259133D01*
X112749Y259751D01*
X113367Y260556D01*
X113755Y261494D01*
X113888Y262500D01*
X113755Y263506D01*
X113367Y264444D01*
X112749Y265249D01*
X111944Y265867D01*
X111631Y265996D01*
Y268646D01*
X113854D01*
Y270869D01*
X116047D01*
Y267484D01*
Y260004D01*
X118369D01*
Y254996D01*
X116047D01*
Y247484D01*
Y240004D01*
X118369D01*
Y224996D01*
X116047D01*
Y217484D01*
Y210004D01*
X116047D01*
X116225Y209575D01*
X111646Y204996D01*
X106047D01*
Y199791D01*
X105908Y199652D01*
X105760Y199623D01*
X105231Y199269D01*
X104477Y198516D01*
X103953D01*
Y204146D01*
X108681Y208874D01*
X108994Y208745D01*
X110000Y208612D01*
X111006Y208745D01*
X111944Y209133D01*
X112749Y209751D01*
X113367Y210556D01*
X113755Y211494D01*
X113888Y212500D01*
X113755Y213506D01*
X113367Y214444D01*
X112749Y215249D01*
X111944Y215867D01*
X111631Y215996D01*
Y219004D01*
X111944Y219133D01*
X112749Y219751D01*
X113367Y220556D01*
X113755Y221494D01*
X113888Y222500D01*
X113755Y223506D01*
X113367Y224444D01*
X112749Y225249D01*
X111944Y225867D01*
X111006Y226255D01*
X110000Y226388D01*
X108994Y226255D01*
X108056Y225867D01*
X107251Y225249D01*
X107131Y225093D01*
X106631Y225263D01*
Y226824D01*
X108681Y228874D01*
X108994Y228745D01*
X110000Y228612D01*
X111006Y228745D01*
X111944Y229133D01*
X112749Y229751D01*
X113367Y230556D01*
X113755Y231494D01*
X113888Y232500D01*
X113755Y233506D01*
X113367Y234444D01*
X112749Y235249D01*
X111944Y235867D01*
X111006Y236255D01*
X110000Y236388D01*
X108994Y236255D01*
X108056Y235867D01*
X107251Y235249D01*
X106633Y234444D01*
X106245Y233506D01*
X106112Y232500D01*
X106245Y231494D01*
X106374Y231181D01*
X103847Y228654D01*
X103493Y228124D01*
X103369Y227500D01*
Y224996D01*
X100500D01*
Y221240D01*
X100000D01*
Y220740D01*
X96047D01*
Y217484D01*
Y210004D01*
X96047D01*
X96225Y209575D01*
X91646Y204996D01*
X86047D01*
Y197484D01*
Y190004D01*
X88369D01*
Y187500D01*
X88493Y186876D01*
X88846Y186346D01*
X93846Y181346D01*
X94376Y180993D01*
X95000Y180869D01*
X96146D01*
Y178646D01*
X103854D01*
Y186354D01*
X96146D01*
Y184204D01*
X95646Y184161D01*
X91631Y188176D01*
Y190004D01*
X93953D01*
Y197484D01*
Y202689D01*
X95585Y204322D01*
X96047Y204130D01*
Y197484D01*
Y190004D01*
X103953D01*
Y195209D01*
X103997Y195253D01*
X105153D01*
X105547Y195331D01*
X106047Y195002D01*
Y194260D01*
X110000D01*
X113953D01*
Y197484D01*
Y202689D01*
X115585Y204322D01*
X116047Y204130D01*
Y197484D01*
Y194260D01*
X120000D01*
X123953D01*
Y196484D01*
X124477D01*
X125231Y195731D01*
X125760Y195377D01*
X125908Y195348D01*
X126047Y195209D01*
Y190004D01*
X133087D01*
X133278Y189542D01*
X130122Y186386D01*
X129754D01*
X129597Y186354D01*
X123646D01*
Y178646D01*
X126647D01*
X126876Y178493D01*
X127500Y178369D01*
X128124Y178493D01*
X128353Y178646D01*
X131354D01*
Y183266D01*
X131463Y183288D01*
X131992Y183641D01*
X133260Y184910D01*
X133684Y184627D01*
X133634Y184504D01*
X133497Y183468D01*
Y183000D01*
X137000D01*
Y187405D01*
X136464Y187335D01*
X136342Y187284D01*
X136058Y187708D01*
X138354Y190004D01*
X143953D01*
Y197484D01*
Y202689D01*
X145585Y204322D01*
X146047Y204130D01*
Y197484D01*
Y194260D01*
X153953D01*
Y197484D01*
Y199609D01*
X157249D01*
X157999Y199033D01*
X158964Y198634D01*
X160000Y198497D01*
X161036Y198634D01*
X162001Y199033D01*
X162830Y199670D01*
X163467Y200499D01*
X163866Y201464D01*
X164003Y202500D01*
X163866Y203536D01*
X163467Y204501D01*
X162830Y205330D01*
X162001Y205966D01*
X161036Y206366D01*
X160000Y206503D01*
X158964Y206366D01*
X157999Y205966D01*
X157170Y205330D01*
X156534Y204501D01*
X156134Y203536D01*
X156046Y202871D01*
X153953D01*
Y204996D01*
X146749D01*
X146522Y205496D01*
X146631Y206043D01*
Y210004D01*
X149500D01*
Y213760D01*
X150000D01*
Y214260D01*
X153953D01*
Y217484D01*
Y222886D01*
X156279Y225212D01*
X156778Y225180D01*
X157170Y224670D01*
X157999Y224033D01*
X158964Y223634D01*
X160000Y223497D01*
X161036Y223634D01*
X162001Y224033D01*
X162830Y224670D01*
X163467Y225499D01*
X163620Y225869D01*
X166380D01*
X166534Y225499D01*
X167170Y224670D01*
X167999Y224033D01*
X168369Y223880D01*
Y206120D01*
X167999Y205966D01*
X167170Y205330D01*
X166534Y204501D01*
X166134Y203536D01*
X165997Y202500D01*
X166134Y201464D01*
X166534Y200499D01*
X167170Y199670D01*
X167999Y199033D01*
X168964Y198634D01*
X170000Y198497D01*
X171036Y198634D01*
X172001Y199033D01*
X172830Y199670D01*
X173467Y200499D01*
X173620Y200869D01*
X176031D01*
Y198531D01*
X178369D01*
Y192500D01*
X178493Y191876D01*
X178847Y191347D01*
X183846Y186346D01*
X184376Y185993D01*
X185000Y185869D01*
X200000D01*
X200624Y185993D01*
X201153Y186346D01*
X206153Y191347D01*
X206507Y191876D01*
X206631Y192500D01*
Y247500D01*
X206507Y248124D01*
X206153Y248654D01*
X203626Y251181D01*
X203755Y251494D01*
X203888Y252500D01*
X203755Y253506D01*
X203367Y254444D01*
X202749Y255249D01*
X201944Y255867D01*
X201829Y255914D01*
X201928Y256414D01*
X204089D01*
X204713Y256539D01*
X205242Y256892D01*
X208354Y260004D01*
X213953D01*
Y266484D01*
X214477D01*
X215231Y265731D01*
X215760Y265377D01*
X215908Y265348D01*
X216047Y265209D01*
Y260004D01*
X220705D01*
X220790Y259578D01*
X221144Y259049D01*
X226374Y253819D01*
X226245Y253506D01*
X226112Y252500D01*
X226245Y251494D01*
X226633Y250556D01*
X227251Y249751D01*
X228056Y249133D01*
X228994Y248745D01*
X230000Y248612D01*
X231006Y248745D01*
X231319Y248874D01*
X233369Y246824D01*
Y245263D01*
X232869Y245093D01*
X232749Y245249D01*
X231944Y245867D01*
X231006Y246255D01*
X230000Y246388D01*
X228994Y246255D01*
X228056Y245867D01*
X227920Y245762D01*
X227737Y245799D01*
X223953D01*
Y247484D01*
Y250740D01*
X220000D01*
X216047D01*
Y247484D01*
Y240004D01*
X223953D01*
Y241721D01*
X226215D01*
X226245Y241494D01*
X226633Y240556D01*
X227251Y239751D01*
X228056Y239133D01*
X228994Y238745D01*
X230000Y238612D01*
X231006Y238745D01*
X231944Y239133D01*
X232749Y239751D01*
X232869Y239907D01*
X233369Y239737D01*
Y238176D01*
X231319Y236126D01*
X231006Y236255D01*
X230000Y236388D01*
X228994Y236255D01*
X228056Y235867D01*
X227251Y235249D01*
X226633Y234444D01*
X226245Y233506D01*
X226112Y232500D01*
X226245Y231494D01*
X226633Y230556D01*
X227251Y229751D01*
X228056Y229133D01*
X228994Y228745D01*
X230000Y228612D01*
X231006Y228745D01*
X231944Y229133D01*
X232749Y229751D01*
X233367Y230556D01*
X233755Y231494D01*
X233888Y232500D01*
X233755Y233506D01*
X233626Y233819D01*
X236154Y236347D01*
X236507Y236876D01*
X236631Y237500D01*
Y240004D01*
X239500D01*
Y243760D01*
X240500D01*
Y240004D01*
X243369D01*
Y235676D01*
X233846Y226153D01*
X233493Y225624D01*
X233410Y225209D01*
X232883Y225074D01*
X232749Y225249D01*
X231944Y225867D01*
X231006Y226255D01*
X230000Y226388D01*
X228994Y226255D01*
X228056Y225867D01*
X227251Y225249D01*
X226633Y224444D01*
X226504Y224131D01*
X223953D01*
Y224996D01*
X216047D01*
Y217484D01*
Y210004D01*
X218369D01*
Y204996D01*
X216047D01*
Y197484D01*
Y190004D01*
X218369D01*
Y186354D01*
X216146D01*
Y178646D01*
X223854D01*
Y186354D01*
X221631D01*
Y190004D01*
X223953D01*
Y197484D01*
Y199609D01*
X226047D01*
Y197484D01*
Y194260D01*
X230000D01*
Y193760D01*
X230500D01*
Y190004D01*
X233369D01*
Y186375D01*
X232895Y186214D01*
X232830Y186299D01*
X232001Y186935D01*
X231036Y187335D01*
X230500Y187405D01*
Y182500D01*
Y177595D01*
X231036Y177665D01*
X232001Y178065D01*
X232830Y178701D01*
X233467Y179530D01*
X233866Y180496D01*
X233889Y180669D01*
X234363Y180830D01*
X246346Y168846D01*
X246876Y168493D01*
X247500Y168369D01*
X310408D01*
X310600Y167907D01*
X308846Y166154D01*
X308493Y165624D01*
X308369Y165000D01*
Y163854D01*
X306146D01*
Y156146D01*
X313854D01*
Y163854D01*
X311704D01*
X311661Y164354D01*
X313176Y165869D01*
X326556D01*
X326768Y165602D01*
X326661Y165025D01*
X326618Y164996D01*
X326047D01*
Y164328D01*
X326040Y164317D01*
X325916Y163693D01*
X326040Y163069D01*
X326047Y163058D01*
Y157484D01*
Y150004D01*
X333953D01*
Y155209D01*
X333997Y155253D01*
X334384D01*
X335009Y155377D01*
X335538Y155731D01*
X335676Y155869D01*
X338291D01*
Y154925D01*
X343835D01*
Y160075D01*
X338291D01*
Y159131D01*
X335000D01*
X334453Y159022D01*
X333953Y159249D01*
Y164996D01*
X331538D01*
Y165093D01*
X331414Y165717D01*
X331060Y166247D01*
X329400Y167907D01*
X329592Y168369D01*
X466824D01*
X468369Y166824D01*
Y164996D01*
X466047D01*
Y158644D01*
X465585Y158453D01*
X464769Y159269D01*
X464240Y159623D01*
X464092Y159652D01*
X463953Y159791D01*
Y164996D01*
X456047D01*
Y160380D01*
X455685Y160138D01*
X454848Y159300D01*
X454386Y159492D01*
Y165587D01*
X449575D01*
X449008Y166154D01*
X448479Y166507D01*
X447854Y166631D01*
X423957D01*
X423332Y166507D01*
X422803Y166154D01*
X421646Y164996D01*
X416047D01*
Y162872D01*
X411709D01*
Y163815D01*
X406165D01*
Y158665D01*
X411709D01*
Y159609D01*
X416047D01*
Y157484D01*
Y154260D01*
X423953D01*
Y157484D01*
Y162689D01*
X424632Y163369D01*
X447179D01*
X447268Y163279D01*
Y159333D01*
X446768Y159038D01*
X446299Y159131D01*
X432732D01*
Y162437D01*
X425614D01*
Y152563D01*
X432732D01*
Y155869D01*
X445623D01*
X447268Y154224D01*
Y149413D01*
X454386D01*
Y154224D01*
X455585Y155424D01*
X456047Y155233D01*
Y154260D01*
X460000D01*
Y153760D01*
X460500D01*
Y150004D01*
X463369D01*
Y150000D01*
X463493Y149376D01*
X463846Y148846D01*
X465928Y146765D01*
X466146Y146354D01*
X466146D01*
X466146Y146354D01*
Y138646D01*
X468369D01*
Y135996D01*
X468056Y135867D01*
X467251Y135249D01*
X466633Y134444D01*
X466245Y133506D01*
X466112Y132500D01*
X466245Y131494D01*
X466633Y130556D01*
X467251Y129751D01*
X467407Y129631D01*
X467237Y129131D01*
X460000D01*
X459376Y129007D01*
X458847Y128654D01*
X453847Y123653D01*
X453493Y123124D01*
X453369Y122500D01*
Y120587D01*
X452458D01*
Y127651D01*
X455585Y130778D01*
X456047Y130587D01*
Y130004D01*
X463953D01*
Y137484D01*
Y140740D01*
X460000D01*
X456047D01*
Y137484D01*
Y135082D01*
X455950D01*
X455326Y134957D01*
X454797Y134604D01*
X449673Y129480D01*
X449320Y128951D01*
X449195Y128327D01*
Y120587D01*
X447268D01*
Y113469D01*
X453369D01*
Y112821D01*
X452079Y111531D01*
X447268D01*
Y104413D01*
X454386D01*
Y109224D01*
X455585Y110424D01*
X456047Y110232D01*
Y109260D01*
X463953D01*
Y112484D01*
Y114201D01*
X465415D01*
X466229Y113387D01*
X466112Y112500D01*
X466245Y111494D01*
X466633Y110556D01*
X467251Y109751D01*
X468056Y109133D01*
X468994Y108745D01*
X470000Y108612D01*
X471006Y108745D01*
X471944Y109133D01*
X472749Y109751D01*
X472869Y109907D01*
X473369Y109737D01*
Y108176D01*
X471319Y106126D01*
X471006Y106255D01*
X470000Y106388D01*
X468994Y106255D01*
X468056Y105867D01*
X467251Y105249D01*
X466633Y104444D01*
X466245Y103506D01*
X466112Y102500D01*
X466245Y101494D01*
X466633Y100556D01*
X467251Y99751D01*
X468056Y99133D01*
X468994Y98745D01*
X470000Y98612D01*
X471006Y98745D01*
X471944Y99133D01*
X472749Y99751D01*
X473367Y100556D01*
X473496Y100869D01*
X496504D01*
X496633Y100556D01*
X497251Y99751D01*
X498056Y99133D01*
X498994Y98745D01*
X500000Y98612D01*
X501006Y98745D01*
X501944Y99133D01*
X502749Y99751D01*
X503367Y100556D01*
X503496Y100869D01*
X507500D01*
X508124Y100993D01*
X508653Y101347D01*
X511060Y103753D01*
X511414Y104283D01*
X511538Y104907D01*
Y105004D01*
X513953D01*
Y112484D01*
Y115740D01*
X510000D01*
Y116240D01*
D01*
Y115740D01*
X506047D01*
Y112484D01*
Y105004D01*
X507044D01*
X507235Y104542D01*
X506824Y104131D01*
X503496D01*
X503367Y104444D01*
X502749Y105249D01*
X501944Y105867D01*
X501006Y106255D01*
X500000Y106388D01*
X498994Y106255D01*
X498056Y105867D01*
X497251Y105249D01*
X496633Y104444D01*
X496504Y104131D01*
X474592D01*
X474400Y104593D01*
X476154Y106346D01*
X476507Y106876D01*
X476631Y107500D01*
Y117500D01*
X476507Y118124D01*
X476154Y118654D01*
X474400Y120407D01*
X474592Y120869D01*
X485000D01*
X485624Y120993D01*
X486154Y121346D01*
X491153Y126347D01*
X491507Y126876D01*
X491631Y127500D01*
Y130004D01*
X493953D01*
Y137484D01*
Y139609D01*
X497436D01*
X498056Y139133D01*
X498994Y138745D01*
X500000Y138612D01*
X501006Y138745D01*
X501944Y139133D01*
X502749Y139751D01*
X503367Y140556D01*
X503496Y140869D01*
X506047D01*
Y137484D01*
Y135391D01*
X502564D01*
X501944Y135867D01*
X501006Y136255D01*
X500000Y136388D01*
X498994Y136255D01*
X498056Y135867D01*
X497251Y135249D01*
X496633Y134444D01*
X496245Y133506D01*
X496112Y132500D01*
X496245Y131494D01*
X496633Y130556D01*
X497251Y129751D01*
X498056Y129133D01*
X498994Y128745D01*
X500000Y128612D01*
X501006Y128745D01*
X501944Y129133D01*
X502749Y129751D01*
X503367Y130556D01*
X503755Y131494D01*
X503839Y132129D01*
X506047D01*
Y130004D01*
X513953D01*
Y132419D01*
X514050D01*
X514674Y132543D01*
X515203Y132896D01*
X518653Y136346D01*
X519007Y136876D01*
X519131Y137500D01*
X519131Y137500D01*
Y150000D01*
X519007Y150624D01*
X518653Y151154D01*
X514894Y154913D01*
X514364Y155267D01*
X513740Y155391D01*
X503953D01*
Y159609D01*
X513740D01*
X514364Y159733D01*
X514894Y160087D01*
X518653Y163847D01*
X519007Y164376D01*
X519131Y165000D01*
Y247500D01*
X519007Y248124D01*
X518653Y248654D01*
X516153Y251153D01*
X515624Y251507D01*
X515000Y251631D01*
X513953D01*
Y254996D01*
X511631D01*
Y260004D01*
X513953D01*
Y267484D01*
Y274996D01*
X506047D01*
Y274131D01*
X503496D01*
X503367Y274444D01*
X502749Y275249D01*
X501944Y275867D01*
X501006Y276255D01*
X500000Y276388D01*
X498994Y276255D01*
X498056Y275867D01*
X497251Y275249D01*
X496633Y274444D01*
X496245Y273506D01*
X496112Y272500D01*
X496245Y271494D01*
X496633Y270556D01*
X497251Y269751D01*
X498056Y269133D01*
X498369Y269004D01*
Y265996D01*
X498056Y265867D01*
X497251Y265249D01*
X496633Y264444D01*
X496245Y263506D01*
X496112Y262500D01*
X496245Y261494D01*
X496633Y260556D01*
X497251Y259751D01*
X498056Y259133D01*
X498994Y258745D01*
X500000Y258612D01*
X501006Y258745D01*
X501944Y259133D01*
X502749Y259751D01*
X503367Y260556D01*
X503755Y261494D01*
X503888Y262500D01*
X503755Y263506D01*
X503367Y264444D01*
X502749Y265249D01*
X501944Y265867D01*
X501631Y265996D01*
Y269004D01*
X501944Y269133D01*
X502749Y269751D01*
X503367Y270556D01*
X503496Y270869D01*
X506047D01*
Y267484D01*
Y260004D01*
X508369D01*
Y254996D01*
X506047D01*
Y249413D01*
X505585Y249222D01*
X503626Y251181D01*
X503755Y251494D01*
X503888Y252500D01*
X503755Y253506D01*
X503367Y254444D01*
X502749Y255249D01*
X501944Y255867D01*
X501006Y256255D01*
X500000Y256388D01*
X498994Y256255D01*
X498056Y255867D01*
X497251Y255249D01*
X497070Y255237D01*
X492765Y259542D01*
X492956Y260004D01*
X493953D01*
Y267484D01*
Y270740D01*
X490000D01*
X486047D01*
Y269998D01*
X485547Y269669D01*
X485153Y269747D01*
X483997D01*
X483953Y269791D01*
Y274996D01*
X476047D01*
Y266913D01*
X475585Y266722D01*
X474072Y268235D01*
X473854Y268646D01*
X473854D01*
X473854Y268646D01*
Y276354D01*
X466146D01*
Y274131D01*
X453953D01*
Y274996D01*
X446047D01*
Y267484D01*
Y265391D01*
X443953D01*
Y267484D01*
Y274996D01*
X441631D01*
Y279434D01*
X441507Y280059D01*
X441153Y280588D01*
X429888Y291853D01*
X429359Y292207D01*
X428734Y292331D01*
D02*
G37*
G36*
X90969Y266503D02*
X90500D01*
Y263000D01*
X94905D01*
X94835Y263536D01*
X94435Y264501D01*
X93799Y265330D01*
X92970Y265967D01*
X92005Y266366D01*
X90969Y266503D01*
D02*
G37*
G36*
X89500D02*
X89031D01*
X87995Y266366D01*
X87030Y265967D01*
X86201Y265330D01*
X85565Y264501D01*
X85165Y263536D01*
X85095Y263000D01*
X89500D01*
Y266503D01*
D02*
G37*
G36*
X94905Y262000D02*
X90500D01*
Y258497D01*
X90969D01*
X92005Y258634D01*
X92970Y259033D01*
X93799Y259670D01*
X94435Y260499D01*
X94835Y261464D01*
X94905Y262000D01*
D02*
G37*
G36*
X89500D02*
X85095D01*
X85165Y261464D01*
X85565Y260499D01*
X86201Y259670D01*
X87030Y259033D01*
X87995Y258634D01*
X89031Y258497D01*
X89500D01*
Y262000D01*
D02*
G37*
G36*
X223953Y254996D02*
X220500D01*
Y251740D01*
X223953D01*
Y254996D01*
D02*
G37*
G36*
X219500D02*
X216047D01*
Y251740D01*
X219500D01*
Y254996D01*
D02*
G37*
G36*
X93854Y276354D02*
X86146D01*
Y268646D01*
X93854D01*
Y270869D01*
X96047D01*
Y267484D01*
Y260854D01*
X91144Y255951D01*
X90790Y255421D01*
X90705Y254996D01*
X86047D01*
Y247484D01*
Y244260D01*
X93953D01*
Y247484D01*
Y254146D01*
X98856Y259049D01*
X99210Y259578D01*
X99295Y260004D01*
X100705D01*
X100790Y259578D01*
X101144Y259049D01*
X106374Y253819D01*
X106245Y253506D01*
X106112Y252500D01*
X106245Y251494D01*
X106633Y250556D01*
X107251Y249751D01*
X108056Y249133D01*
X108994Y248745D01*
X110000Y248612D01*
X111006Y248745D01*
X111944Y249133D01*
X112749Y249751D01*
X113367Y250556D01*
X113755Y251494D01*
X113888Y252500D01*
X113755Y253506D01*
X113367Y254444D01*
X112749Y255249D01*
X111944Y255867D01*
X111006Y256255D01*
X110000Y256388D01*
X108994Y256255D01*
X108681Y256126D01*
X103953Y260854D01*
Y267484D01*
Y274996D01*
X96047D01*
Y274131D01*
X93854D01*
Y276354D01*
D02*
G37*
G36*
X103953Y243260D02*
X100500D01*
Y240004D01*
X103953D01*
Y243260D01*
D02*
G37*
G36*
X99500D02*
X96047D01*
Y240004D01*
X99500D01*
Y243260D01*
D02*
G37*
G36*
X93953D02*
X90500D01*
Y240004D01*
X93953D01*
Y243260D01*
D02*
G37*
G36*
X89500D02*
X86047D01*
Y240004D01*
X89500D01*
Y243260D01*
D02*
G37*
G36*
X103953Y254996D02*
X96047D01*
Y247484D01*
Y244260D01*
X103953D01*
Y245010D01*
X104415Y245201D01*
X106229Y243387D01*
X106112Y242500D01*
X106245Y241494D01*
X106633Y240556D01*
X107251Y239751D01*
X108056Y239133D01*
X108994Y238745D01*
X110000Y238612D01*
X111006Y238745D01*
X111944Y239133D01*
X112749Y239751D01*
X113367Y240556D01*
X113755Y241494D01*
X113888Y242500D01*
X113755Y243506D01*
X113367Y244444D01*
X112749Y245249D01*
X111944Y245867D01*
X111006Y246255D01*
X110000Y246388D01*
X109113Y246271D01*
X104458Y250926D01*
X103953Y251263D01*
Y254996D01*
D02*
G37*
G36*
X93953Y224996D02*
X90500D01*
Y221740D01*
X93953D01*
Y224996D01*
D02*
G37*
G36*
X99500D02*
X96047D01*
Y221740D01*
X99500D01*
Y224996D01*
D02*
G37*
G36*
X89500D02*
X86047D01*
Y221740D01*
X89500D01*
Y224996D01*
D02*
G37*
G36*
X153953Y213260D02*
X150500D01*
Y210004D01*
X153953D01*
Y213260D01*
D02*
G37*
G36*
X123953Y193260D02*
X120500D01*
Y190004D01*
X123953D01*
Y193260D01*
D02*
G37*
G36*
X119500D02*
X116047D01*
Y190004D01*
X119500D01*
Y193260D01*
D02*
G37*
G36*
X113953D02*
X110500D01*
Y190004D01*
X113953D01*
Y193260D01*
D02*
G37*
G36*
X109500D02*
X106047D01*
Y190004D01*
X109500D01*
Y193260D01*
D02*
G37*
G36*
X229500Y193260D02*
X226047D01*
Y190004D01*
X229500D01*
Y193260D01*
D02*
G37*
G36*
X153953D02*
X150500D01*
Y190004D01*
X153953D01*
Y193260D01*
D02*
G37*
G36*
X149500D02*
X146047D01*
Y190004D01*
X149500D01*
Y193260D01*
D02*
G37*
G36*
X229500Y187405D02*
X228964Y187335D01*
X227999Y186935D01*
X227170Y186299D01*
X226534Y185470D01*
X226134Y184504D01*
X225997Y183468D01*
Y183000D01*
X229500D01*
Y187405D01*
D02*
G37*
G36*
X138000D02*
Y183000D01*
X141503D01*
Y183468D01*
X141366Y184504D01*
X140966Y185470D01*
X140330Y186299D01*
X139501Y186935D01*
X138536Y187335D01*
X138000Y187405D01*
D02*
G37*
G36*
X110500D02*
Y183000D01*
X114003D01*
Y183468D01*
X113866Y184504D01*
X113467Y185470D01*
X112830Y186299D01*
X112001Y186935D01*
X111036Y187335D01*
X110500Y187405D01*
D02*
G37*
G36*
X109500D02*
X108964Y187335D01*
X107999Y186935D01*
X107170Y186299D01*
X106534Y185470D01*
X106134Y184504D01*
X105997Y183468D01*
Y183000D01*
X109500D01*
Y187405D01*
D02*
G37*
G36*
X229500Y182000D02*
X225997D01*
Y181532D01*
X226134Y180496D01*
X226534Y179530D01*
X227170Y178701D01*
X227999Y178065D01*
X228964Y177665D01*
X229500Y177595D01*
Y182000D01*
D02*
G37*
G36*
X141503D02*
X138000D01*
Y177595D01*
X138536Y177665D01*
X139501Y178065D01*
X140330Y178701D01*
X140966Y179530D01*
X141366Y180496D01*
X141503Y181532D01*
Y182000D01*
D02*
G37*
G36*
X137000D02*
X133497D01*
Y181532D01*
X133634Y180496D01*
X134034Y179530D01*
X134670Y178701D01*
X135499Y178065D01*
X136464Y177665D01*
X137000Y177595D01*
Y182000D01*
D02*
G37*
G36*
X114003D02*
X110500D01*
Y177595D01*
X111036Y177665D01*
X112001Y178065D01*
X112830Y178701D01*
X113467Y179530D01*
X113866Y180496D01*
X114003Y181532D01*
Y182000D01*
D02*
G37*
G36*
X109500D02*
X105997D01*
Y181532D01*
X106134Y180496D01*
X106534Y179530D01*
X107170Y178701D01*
X107999Y178065D01*
X108964Y177665D01*
X109500Y177595D01*
Y182000D01*
D02*
G37*
G36*
X393953Y164996D02*
X386047D01*
Y162872D01*
X383953D01*
Y164996D01*
X376047D01*
Y159998D01*
X375547Y159669D01*
X375153Y159747D01*
X373997D01*
X373953Y159791D01*
Y164996D01*
X366047D01*
Y162872D01*
X363953D01*
Y164996D01*
X356047D01*
Y157090D01*
X355585Y156899D01*
X351709Y160776D01*
Y163815D01*
X346165D01*
Y158665D01*
X349205D01*
X351074Y156797D01*
X350882Y156335D01*
X346165D01*
Y151185D01*
X347344D01*
Y150617D01*
X347499Y149837D01*
X347941Y149175D01*
X351058Y146058D01*
X351720Y145616D01*
X352500Y145461D01*
X363740D01*
X364521Y145616D01*
X365182Y146058D01*
X369128Y150004D01*
X370872D01*
X374818Y146058D01*
X374818Y146058D01*
X375480Y145616D01*
X376146Y145484D01*
Y144131D01*
X345000D01*
X344376Y144007D01*
X343847Y143654D01*
X338846Y138654D01*
X338493Y138124D01*
X338369Y137500D01*
Y126120D01*
X337999Y125967D01*
X337170Y125330D01*
X336533Y124501D01*
X336134Y123536D01*
X335997Y122500D01*
X336134Y121464D01*
X336533Y120499D01*
X337170Y119670D01*
X337999Y119034D01*
X338369Y118880D01*
Y101120D01*
X337999Y100967D01*
X337170Y100330D01*
X336533Y99501D01*
X336380Y99131D01*
X332500D01*
X331876Y99007D01*
X331347Y98654D01*
X328940Y96247D01*
X328586Y95717D01*
X328462Y95093D01*
Y94996D01*
X326047D01*
Y87484D01*
Y80004D01*
X328462D01*
Y79907D01*
X328586Y79283D01*
X328940Y78753D01*
X331347Y76346D01*
X331876Y75993D01*
X332500Y75869D01*
X372500D01*
X373124Y75993D01*
X373654Y76346D01*
X376153Y78847D01*
X376507Y79376D01*
X376590Y79791D01*
X377117Y79926D01*
X377251Y79751D01*
X378056Y79133D01*
X378994Y78745D01*
X380000Y78612D01*
X381006Y78745D01*
X381944Y79133D01*
X382749Y79751D01*
X383367Y80556D01*
X383755Y81494D01*
X383839Y82129D01*
X386047D01*
Y80004D01*
X388369D01*
Y75505D01*
X387869Y75094D01*
X387703Y75127D01*
X387078Y75003D01*
X387068Y74996D01*
X386047D01*
Y67484D01*
Y65391D01*
X383953D01*
Y67484D01*
Y70740D01*
X380000D01*
Y71240D01*
D01*
Y70740D01*
X376047D01*
Y67484D01*
Y60004D01*
X377044D01*
X377235Y59542D01*
X376824Y59131D01*
X353176D01*
X351631Y60676D01*
Y63646D01*
X353854D01*
Y71354D01*
X346146D01*
Y63646D01*
X348369D01*
Y60000D01*
X348493Y59376D01*
X348847Y58846D01*
X351346Y56346D01*
X351876Y55993D01*
X352500Y55869D01*
X377500D01*
X378124Y55993D01*
X378654Y56346D01*
X381060Y58753D01*
X381414Y59283D01*
X381538Y59907D01*
Y60004D01*
X383953D01*
Y62129D01*
X386047D01*
Y60004D01*
X393953D01*
Y67484D01*
Y74996D01*
X391631D01*
Y80004D01*
X393953D01*
Y87484D01*
Y94996D01*
X386047D01*
Y94131D01*
X383496D01*
X383367Y94444D01*
X382749Y95249D01*
X381944Y95867D01*
X381006Y96255D01*
X380000Y96388D01*
X378994Y96255D01*
X378056Y95867D01*
X377251Y95249D01*
X376633Y94444D01*
X376245Y93506D01*
X376112Y92500D01*
X376245Y91494D01*
X376374Y91181D01*
X374415Y89222D01*
X373953Y89413D01*
Y94996D01*
X372932D01*
X372921Y95003D01*
X372297Y95127D01*
X372131Y95094D01*
X371631Y95505D01*
Y101668D01*
X372093Y101859D01*
X372606Y101347D01*
X373136Y100993D01*
X373760Y100869D01*
X376504D01*
X376633Y100556D01*
X377251Y99751D01*
X378056Y99133D01*
X378994Y98745D01*
X380000Y98612D01*
X381006Y98745D01*
X381944Y99133D01*
X382749Y99751D01*
X383367Y100556D01*
X383755Y101494D01*
X383888Y102500D01*
X383755Y103506D01*
X383367Y104444D01*
X382749Y105249D01*
X381944Y105867D01*
X381006Y106255D01*
X380000Y106388D01*
X378994Y106255D01*
X378056Y105867D01*
X377251Y105249D01*
X376633Y104444D01*
X376504Y104131D01*
X374436D01*
X373953Y104614D01*
Y109984D01*
Y113240D01*
X370000D01*
X366047D01*
Y109984D01*
Y102504D01*
X368369D01*
Y94996D01*
X366047D01*
Y87484D01*
Y85391D01*
X354416D01*
X351631Y88176D01*
Y93880D01*
X352001Y94033D01*
X352830Y94670D01*
X353467Y95499D01*
X353866Y96464D01*
X354003Y97500D01*
X353866Y98536D01*
X353467Y99501D01*
X352830Y100330D01*
X352001Y100967D01*
X351631Y101120D01*
Y118880D01*
X352001Y119034D01*
X352830Y119670D01*
X353467Y120499D01*
X353620Y120869D01*
X356031D01*
Y118532D01*
X363968D01*
Y126469D01*
X361980D01*
X361776Y126969D01*
X365676Y130869D01*
X376504D01*
X376633Y130556D01*
X377251Y129751D01*
X378056Y129133D01*
X378994Y128745D01*
X380000Y128612D01*
X381006Y128745D01*
X381944Y129133D01*
X382749Y129751D01*
X383367Y130556D01*
X383755Y131494D01*
X383888Y132500D01*
X383755Y133506D01*
X383367Y134444D01*
X382749Y135249D01*
X381944Y135867D01*
X381006Y136255D01*
X380000Y136388D01*
X378994Y136255D01*
X378056Y135867D01*
X377251Y135249D01*
X376633Y134444D01*
X376504Y134131D01*
X365000D01*
X364376Y134007D01*
X363846Y133653D01*
X358846Y128654D01*
X358493Y128124D01*
X358369Y127500D01*
Y126469D01*
X356031D01*
Y124131D01*
X353620D01*
X353467Y124501D01*
X352830Y125330D01*
X352001Y125967D01*
X351036Y126366D01*
X350000Y126503D01*
X348964Y126366D01*
X347999Y125967D01*
X347170Y125330D01*
X346533Y124501D01*
X346134Y123536D01*
X345997Y122500D01*
X346134Y121464D01*
X346533Y120499D01*
X347170Y119670D01*
X347999Y119034D01*
X348369Y118880D01*
Y101120D01*
X347999Y100967D01*
X347170Y100330D01*
X346533Y99501D01*
X346134Y98536D01*
X345997Y97500D01*
X346134Y96464D01*
X346533Y95499D01*
X347170Y94670D01*
X347999Y94033D01*
X348369Y93880D01*
Y87500D01*
X348493Y86876D01*
X348847Y86347D01*
X352587Y82606D01*
X353116Y82253D01*
X353740Y82129D01*
X366047D01*
Y80004D01*
X372044D01*
X372235Y79542D01*
X371824Y79131D01*
X333176D01*
X332765Y79542D01*
X332956Y80004D01*
X333953D01*
Y87484D01*
Y94996D01*
X332956D01*
X332765Y95458D01*
X333176Y95869D01*
X336380D01*
X336533Y95499D01*
X337170Y94670D01*
X337999Y94033D01*
X338964Y93634D01*
X340000Y93497D01*
X341036Y93634D01*
X342001Y94033D01*
X342830Y94670D01*
X343466Y95499D01*
X343866Y96464D01*
X344003Y97500D01*
X343866Y98536D01*
X343466Y99501D01*
X342830Y100330D01*
X342001Y100967D01*
X341631Y101120D01*
Y118880D01*
X342001Y119034D01*
X342830Y119670D01*
X343466Y120499D01*
X343866Y121464D01*
X344003Y122500D01*
X343866Y123536D01*
X343466Y124501D01*
X342830Y125330D01*
X342001Y125967D01*
X341631Y126120D01*
Y136824D01*
X345676Y140869D01*
X376146D01*
Y138646D01*
X383854D01*
Y145461D01*
X385962D01*
X386047Y144996D01*
X386047Y144961D01*
Y141740D01*
X389500D01*
Y144996D01*
X387726D01*
X387677Y145496D01*
X388280Y145616D01*
X388942Y146058D01*
X390617Y147734D01*
X391059Y148395D01*
X391215Y149176D01*
Y150004D01*
X393953D01*
Y150010D01*
X394415Y150201D01*
X395461Y149155D01*
Y128345D01*
X389383Y122266D01*
X388941Y121605D01*
X388785Y120825D01*
Y119996D01*
X386047D01*
Y118279D01*
X383740D01*
X382960Y118124D01*
X382298Y117682D01*
X380887Y116271D01*
X380000Y116388D01*
X378994Y116255D01*
X378056Y115867D01*
X377251Y115249D01*
X376633Y114444D01*
X376245Y113506D01*
X376112Y112500D01*
X376245Y111494D01*
X376633Y110556D01*
X377251Y109751D01*
X378056Y109133D01*
X378994Y108745D01*
X380000Y108612D01*
X381006Y108745D01*
X381944Y109133D01*
X382749Y109751D01*
X383367Y110556D01*
X383755Y111494D01*
X383888Y112500D01*
X383771Y113387D01*
X384585Y114201D01*
X386047D01*
Y112484D01*
Y109260D01*
X393953D01*
Y112484D01*
Y119996D01*
X393533D01*
X393342Y120458D01*
X398942Y126058D01*
X399384Y126720D01*
X399539Y127500D01*
Y150000D01*
X399384Y150780D01*
X398942Y151442D01*
X396223Y154161D01*
X395562Y154603D01*
X394781Y154758D01*
X393953D01*
Y159299D01*
X394453Y159480D01*
X397041Y156892D01*
X397570Y156539D01*
X398194Y156414D01*
X398291D01*
Y154925D01*
X403835D01*
Y160075D01*
X398472D01*
X396153Y162394D01*
X395624Y162747D01*
X395000Y162872D01*
X393953D01*
Y164996D01*
D02*
G37*
G36*
X320000Y164971D02*
X318964Y164835D01*
X317999Y164435D01*
X317170Y163799D01*
X316533Y162970D01*
X316134Y162004D01*
X315997Y160968D01*
Y159031D01*
X316134Y157995D01*
X316533Y157030D01*
X317170Y156201D01*
X317999Y155565D01*
X318964Y155165D01*
X320000Y155029D01*
X321036Y155165D01*
X322001Y155565D01*
X322830Y156201D01*
X323466Y157030D01*
X323866Y157995D01*
X324003Y159031D01*
Y160968D01*
X323866Y162004D01*
X323466Y162970D01*
X322830Y163799D01*
X322001Y164435D01*
X321036Y164835D01*
X320000Y164971D01*
D02*
G37*
G36*
X411709Y156335D02*
X409437D01*
Y154260D01*
X411709D01*
Y156335D01*
D02*
G37*
G36*
X408437D02*
X406165D01*
Y154260D01*
X408437D01*
Y156335D01*
D02*
G37*
G36*
X411709Y153260D02*
X409437D01*
Y151185D01*
X411709D01*
Y153260D01*
D02*
G37*
G36*
X408437D02*
X406165D01*
Y151185D01*
X408437D01*
Y153260D01*
D02*
G37*
G36*
X459500Y153260D02*
X456047D01*
Y150004D01*
X459500D01*
Y153260D01*
D02*
G37*
G36*
X423953D02*
X420500D01*
Y150004D01*
X423953D01*
Y153260D01*
D02*
G37*
G36*
X419500D02*
X416047D01*
Y150004D01*
X419500D01*
Y153260D01*
D02*
G37*
G36*
X463953Y144996D02*
X460500D01*
Y141740D01*
X463953D01*
Y144996D01*
D02*
G37*
G36*
X393953D02*
X390500D01*
Y141740D01*
X393953D01*
Y144996D01*
D02*
G37*
G36*
X459500D02*
X456047D01*
Y141740D01*
X459500D01*
Y144996D01*
D02*
G37*
G36*
X410000Y146388D02*
X408994Y146255D01*
X408056Y145867D01*
X407251Y145249D01*
X406633Y144444D01*
X406245Y143506D01*
X406112Y142500D01*
X406245Y141494D01*
X406633Y140556D01*
X407251Y139751D01*
X408056Y139133D01*
X408369Y139004D01*
Y135996D01*
X408056Y135867D01*
X407251Y135249D01*
X406633Y134444D01*
X406245Y133506D01*
X406112Y132500D01*
X406245Y131494D01*
X406633Y130556D01*
X407251Y129751D01*
X408056Y129133D01*
X408994Y128745D01*
X410000Y128612D01*
X411006Y128745D01*
X411944Y129133D01*
X412749Y129751D01*
X413367Y130556D01*
X413755Y131494D01*
X413888Y132500D01*
X413755Y133506D01*
X413367Y134444D01*
X412749Y135249D01*
X411944Y135867D01*
X411631Y135996D01*
Y139004D01*
X411944Y139133D01*
X412749Y139751D01*
X413367Y140556D01*
X413755Y141494D01*
X413888Y142500D01*
X413755Y143506D01*
X413367Y144444D01*
X412749Y145249D01*
X411944Y145867D01*
X411006Y146255D01*
X410000Y146388D01*
D02*
G37*
G36*
X393953Y140740D02*
X390000D01*
X386047D01*
Y137484D01*
Y130854D01*
X381319Y126126D01*
X381006Y126255D01*
X380000Y126388D01*
X378994Y126255D01*
X378056Y125867D01*
X377251Y125249D01*
X376633Y124444D01*
X376245Y123506D01*
X376112Y122500D01*
X376245Y121494D01*
X376633Y120556D01*
X377251Y119751D01*
X378056Y119133D01*
X378994Y118745D01*
X380000Y118612D01*
X381006Y118745D01*
X381944Y119133D01*
X382749Y119751D01*
X383367Y120556D01*
X383755Y121494D01*
X383888Y122500D01*
X383755Y123506D01*
X383626Y123819D01*
X388856Y129049D01*
X389210Y129578D01*
X389295Y130004D01*
X393953D01*
Y137484D01*
Y140740D01*
D02*
G37*
G36*
X500500Y126322D02*
Y123000D01*
X503822D01*
X503755Y123506D01*
X503367Y124444D01*
X502749Y125249D01*
X501944Y125867D01*
X501006Y126255D01*
X500500Y126322D01*
D02*
G37*
G36*
X410500D02*
Y123000D01*
X413822D01*
X413755Y123506D01*
X413367Y124444D01*
X412749Y125249D01*
X411944Y125867D01*
X411006Y126255D01*
X410500Y126322D01*
D02*
G37*
G36*
X499500D02*
X498994Y126255D01*
X498056Y125867D01*
X497251Y125249D01*
X496633Y124444D01*
X496245Y123506D01*
X496178Y123000D01*
X499500D01*
Y126322D01*
D02*
G37*
G36*
X409500D02*
X408994Y126255D01*
X408056Y125867D01*
X407251Y125249D01*
X406633Y124444D01*
X406245Y123506D01*
X406178Y123000D01*
X409500D01*
Y126322D01*
D02*
G37*
G36*
X503822Y122000D02*
X500500D01*
Y118678D01*
X501006Y118745D01*
X501944Y119133D01*
X502749Y119751D01*
X503367Y120556D01*
X503755Y121494D01*
X503822Y122000D01*
D02*
G37*
G36*
X413822D02*
X410500D01*
Y118678D01*
X411006Y118745D01*
X411944Y119133D01*
X412749Y119751D01*
X413367Y120556D01*
X413755Y121494D01*
X413822Y122000D01*
D02*
G37*
G36*
X499500D02*
X496178D01*
X496245Y121494D01*
X496633Y120556D01*
X497251Y119751D01*
X498056Y119133D01*
X498994Y118745D01*
X499500Y118678D01*
Y122000D01*
D02*
G37*
G36*
X409500D02*
X406178D01*
X406245Y121494D01*
X406633Y120556D01*
X407251Y119751D01*
X408056Y119133D01*
X408994Y118745D01*
X409500Y118678D01*
Y122000D01*
D02*
G37*
G36*
X513953Y119996D02*
X510500D01*
Y116740D01*
X513953D01*
Y119996D01*
D02*
G37*
G36*
X423953D02*
X420500D01*
Y116740D01*
X423953D01*
Y119996D01*
D02*
G37*
G36*
X493953D02*
X490500D01*
Y116740D01*
X493953D01*
Y119996D01*
D02*
G37*
G36*
X403953D02*
X400500D01*
Y116740D01*
X403953D01*
Y119996D01*
D02*
G37*
G36*
X509500D02*
X506047D01*
Y116740D01*
X509500D01*
Y119996D01*
D02*
G37*
G36*
X419500D02*
X416047D01*
Y116740D01*
X419500D01*
Y119996D01*
D02*
G37*
G36*
X489500D02*
X486047D01*
Y116740D01*
X489500D01*
Y119996D01*
D02*
G37*
G36*
X399500D02*
X396047D01*
Y116740D01*
X399500D01*
Y119996D01*
D02*
G37*
G36*
X373953Y117496D02*
X370500D01*
Y114240D01*
X373953D01*
Y117496D01*
D02*
G37*
G36*
X369500D02*
X366047D01*
Y114240D01*
X369500D01*
Y117496D01*
D02*
G37*
G36*
X500000Y116388D02*
X498994Y116255D01*
X498056Y115867D01*
X497251Y115249D01*
X496633Y114444D01*
X496245Y113506D01*
X496112Y112500D01*
X496229Y111613D01*
X495415Y110799D01*
X493953D01*
Y112484D01*
Y115740D01*
X490000D01*
X486047D01*
Y112484D01*
Y105004D01*
X493953D01*
Y106721D01*
X496260D01*
X497040Y106876D01*
X497702Y107318D01*
X499113Y108729D01*
X500000Y108612D01*
X501006Y108745D01*
X501944Y109133D01*
X502749Y109751D01*
X503367Y110556D01*
X503755Y111494D01*
X503888Y112500D01*
X503755Y113506D01*
X503367Y114444D01*
X502749Y115249D01*
X501944Y115867D01*
X501006Y116255D01*
X500000Y116388D01*
D02*
G37*
G36*
X410000D02*
X408994Y116255D01*
X408056Y115867D01*
X407251Y115249D01*
X406633Y114444D01*
X406245Y113506D01*
X406112Y112500D01*
X406245Y111494D01*
X406633Y110556D01*
X407251Y109751D01*
X408056Y109133D01*
X408994Y108745D01*
X410000Y108612D01*
X410887Y108729D01*
X412298Y107318D01*
X412960Y106876D01*
X413740Y106721D01*
X416047D01*
Y105004D01*
X423953D01*
Y112484D01*
Y115740D01*
X420000D01*
X416047D01*
Y112484D01*
Y110799D01*
X414585D01*
X413771Y111613D01*
X413888Y112500D01*
X413755Y113506D01*
X413367Y114444D01*
X412749Y115249D01*
X411944Y115867D01*
X411006Y116255D01*
X410000Y116388D01*
D02*
G37*
G36*
X463953Y108260D02*
X460500D01*
Y105004D01*
X463953D01*
Y108260D01*
D02*
G37*
G36*
X459500D02*
X456047D01*
Y105004D01*
X459500D01*
Y108260D01*
D02*
G37*
G36*
X393953D02*
X390500D01*
Y105004D01*
X393953D01*
Y108260D01*
D02*
G37*
G36*
X389500D02*
X386047D01*
Y105004D01*
X389500D01*
Y108260D01*
D02*
G37*
G36*
X432732Y117437D02*
X425614D01*
Y107563D01*
X427103D01*
X427294Y107101D01*
X424324Y104131D01*
X413496D01*
X413367Y104444D01*
X412749Y105249D01*
X411944Y105867D01*
X411006Y106255D01*
X410000Y106388D01*
X408994Y106255D01*
X408056Y105867D01*
X407251Y105249D01*
X406633Y104444D01*
X406245Y103506D01*
X406112Y102500D01*
X406203Y101811D01*
X405729Y101577D01*
X402765Y104542D01*
X402956Y105004D01*
X403953D01*
Y112484D01*
Y115740D01*
X400000D01*
Y116240D01*
D01*
Y115740D01*
X396047D01*
Y112484D01*
Y105004D01*
X398462D01*
Y104907D01*
X398586Y104283D01*
X398940Y103753D01*
X407263Y95430D01*
X407251Y95249D01*
X406633Y94444D01*
X406245Y93506D01*
X406112Y92500D01*
X406245Y91494D01*
X406633Y90556D01*
X407251Y89751D01*
X408056Y89133D01*
X408994Y88745D01*
X410000Y88612D01*
X411006Y88745D01*
X411944Y89133D01*
X412749Y89751D01*
X413367Y90556D01*
X413496Y90869D01*
X416047D01*
Y87484D01*
Y84131D01*
X413496D01*
X413367Y84444D01*
X412749Y85249D01*
X411944Y85867D01*
X411006Y86255D01*
X410000Y86388D01*
X408994Y86255D01*
X408056Y85867D01*
X407251Y85249D01*
X406633Y84444D01*
X406245Y83506D01*
X406112Y82500D01*
X406245Y81494D01*
X406633Y80556D01*
X407251Y79751D01*
X408056Y79133D01*
X408994Y78745D01*
X410000Y78612D01*
X411006Y78745D01*
X411944Y79133D01*
X412749Y79751D01*
X413367Y80556D01*
X413496Y80869D01*
X416047D01*
Y80004D01*
X423953D01*
Y82129D01*
X426047D01*
Y80004D01*
X433953D01*
Y86484D01*
X434477D01*
X435231Y85731D01*
X435760Y85377D01*
X435908Y85348D01*
X436047Y85209D01*
Y80004D01*
X438369D01*
Y75676D01*
X435564Y72872D01*
X433953D01*
Y74996D01*
X426047D01*
Y66913D01*
X425585Y66722D01*
X424962Y67345D01*
Y68021D01*
X424937Y68147D01*
Y73343D01*
X415437D01*
X415063Y73343D01*
X414563Y73343D01*
X405063D01*
Y71513D01*
X404882D01*
X404258Y71389D01*
X403728Y71035D01*
X401346Y68654D01*
X400993Y68124D01*
X400869Y67500D01*
Y50000D01*
X400993Y49376D01*
X401346Y48847D01*
X403847Y46347D01*
X404376Y45993D01*
X405000Y45869D01*
X487500D01*
X488124Y45993D01*
X488654Y46347D01*
X490194Y47887D01*
X490548Y48416D01*
X490672Y49041D01*
X491162Y49138D01*
X493362D01*
Y55862D01*
X491631D01*
Y57504D01*
X493953D01*
Y64984D01*
Y68240D01*
X490000D01*
X486047D01*
Y64984D01*
Y62891D01*
X483953D01*
Y64984D01*
Y68240D01*
X476047D01*
Y64984D01*
Y57504D01*
X483953D01*
Y59628D01*
X486047D01*
Y57504D01*
X488369D01*
Y55862D01*
X486638D01*
Y49138D01*
X486140Y49131D01*
X405676D01*
X404131Y50676D01*
Y66824D01*
X404601Y67294D01*
X405063Y67103D01*
Y66421D01*
X414563D01*
X414937Y66421D01*
X415437Y66421D01*
X415961D01*
X416152Y65959D01*
X410022Y59829D01*
X409669Y59300D01*
X409544Y58676D01*
Y58579D01*
X405063D01*
Y51657D01*
X414563D01*
X414937Y51657D01*
X415437Y51657D01*
X419500D01*
Y55118D01*
Y58579D01*
X415437D01*
X415063Y58579D01*
X414563Y58579D01*
X414039D01*
X413848Y59041D01*
X419978Y65171D01*
X420331Y65700D01*
X420456Y66324D01*
Y66421D01*
X421749D01*
X421824Y66045D01*
X422177Y65516D01*
X424797Y62896D01*
X425326Y62543D01*
X425950Y62419D01*
X426047D01*
Y60004D01*
X433953D01*
Y67484D01*
Y69609D01*
X436240D01*
X436864Y69733D01*
X437394Y70087D01*
X441153Y73847D01*
X441507Y74376D01*
X441631Y75000D01*
Y80004D01*
X443953D01*
Y87484D01*
Y90740D01*
X440000D01*
X436047D01*
Y89998D01*
X435547Y89669D01*
X435153Y89747D01*
X433997D01*
X433953Y89791D01*
Y94996D01*
X426047D01*
Y87484D01*
Y85391D01*
X423953D01*
Y87484D01*
Y94996D01*
X416047D01*
Y94131D01*
X413496D01*
X413367Y94444D01*
X412749Y95249D01*
X411944Y95867D01*
X411006Y96255D01*
X410700Y96295D01*
X410666Y96465D01*
X410312Y96995D01*
X409078Y98229D01*
X409311Y98703D01*
X410000Y98612D01*
X411006Y98745D01*
X411944Y99133D01*
X412749Y99751D01*
X413367Y100556D01*
X413496Y100869D01*
X425000D01*
X425624Y100993D01*
X426154Y101347D01*
X431119Y106312D01*
X431473Y106842D01*
X431597Y107466D01*
Y107563D01*
X432732D01*
Y117437D01*
D02*
G37*
G36*
X500000Y96388D02*
X498994Y96255D01*
X498056Y95867D01*
X497251Y95249D01*
X496633Y94444D01*
X496504Y94131D01*
X493953D01*
Y94996D01*
X486047D01*
Y87484D01*
Y80004D01*
X488462D01*
Y79907D01*
X488586Y79283D01*
X488940Y78753D01*
X491347Y76346D01*
X491876Y75993D01*
X492500Y75869D01*
X507500D01*
X508124Y75993D01*
X508653Y76346D01*
X511060Y78753D01*
X511414Y79283D01*
X511538Y79907D01*
Y80004D01*
X513953D01*
Y85209D01*
X513997Y85253D01*
X515153D01*
X515547Y85331D01*
X516047Y85002D01*
Y80854D01*
X508847Y73654D01*
X508493Y73124D01*
X508369Y72500D01*
Y71354D01*
X506146D01*
Y63646D01*
X513854D01*
Y71354D01*
X511704D01*
X511661Y71854D01*
X518856Y79049D01*
X519210Y79579D01*
X519295Y80004D01*
X523953D01*
Y87484D01*
Y94996D01*
X516047D01*
Y89791D01*
X515908Y89652D01*
X515760Y89623D01*
X515231Y89269D01*
X514477Y88516D01*
X513953D01*
Y90740D01*
X510000D01*
Y91240D01*
D01*
Y90740D01*
X506047D01*
Y87484D01*
Y80004D01*
X507044D01*
X507235Y79542D01*
X506824Y79131D01*
X502763D01*
X502593Y79631D01*
X502749Y79751D01*
X503367Y80556D01*
X503755Y81494D01*
X503888Y82500D01*
X503755Y83506D01*
X503367Y84444D01*
X502749Y85249D01*
X501944Y85867D01*
X501631Y85996D01*
Y89004D01*
X501944Y89133D01*
X502749Y89751D01*
X503367Y90556D01*
X503755Y91494D01*
X503888Y92500D01*
X503755Y93506D01*
X503367Y94444D01*
X502749Y95249D01*
X501944Y95867D01*
X501006Y96255D01*
X500000Y96388D01*
D02*
G37*
G36*
X363968Y101469D02*
X356031D01*
Y93532D01*
X363968D01*
Y101469D01*
D02*
G37*
G36*
X513953Y94996D02*
X510500D01*
Y91740D01*
X513953D01*
Y94996D01*
D02*
G37*
G36*
X463953D02*
X460500D01*
Y91740D01*
X463953D01*
Y94996D01*
D02*
G37*
G36*
X443953D02*
X440500D01*
Y91740D01*
X443953D01*
Y94996D01*
D02*
G37*
G36*
X509500D02*
X506047D01*
Y91740D01*
X509500D01*
Y94996D01*
D02*
G37*
G36*
X459500D02*
X456047D01*
Y91740D01*
X459500D01*
Y94996D01*
D02*
G37*
G36*
X439500D02*
X436047D01*
Y91740D01*
X439500D01*
Y94996D01*
D02*
G37*
G36*
X470000Y96388D02*
X468994Y96255D01*
X468056Y95867D01*
X467251Y95249D01*
X466633Y94444D01*
X466245Y93506D01*
X466112Y92500D01*
X466245Y91494D01*
X466633Y90556D01*
X467251Y89751D01*
X468056Y89133D01*
X468369Y89004D01*
Y85996D01*
X468056Y85867D01*
X467251Y85249D01*
X466633Y84444D01*
X466245Y83506D01*
X466112Y82500D01*
X466245Y81494D01*
X466633Y80556D01*
X467251Y79751D01*
X467407Y79631D01*
X467237Y79131D01*
X463176D01*
X462765Y79542D01*
X462956Y80004D01*
X463953D01*
Y87484D01*
Y90740D01*
X460000D01*
X456047D01*
Y89998D01*
X455547Y89669D01*
X455153Y89747D01*
X453997D01*
X453953Y89791D01*
Y94996D01*
X446047D01*
Y87484D01*
Y80004D01*
X448369D01*
Y72500D01*
X448493Y71876D01*
X448846Y71346D01*
X453847Y66347D01*
X454376Y65993D01*
X455000Y65869D01*
X456146D01*
Y63646D01*
X463854D01*
Y71354D01*
X456146D01*
Y69204D01*
X455646Y69161D01*
X451631Y73176D01*
Y80004D01*
X453953D01*
Y86484D01*
X454477D01*
X455231Y85731D01*
X455760Y85377D01*
X455908Y85348D01*
X456047Y85209D01*
Y80004D01*
X458462D01*
Y79907D01*
X458586Y79283D01*
X458940Y78753D01*
X461346Y76346D01*
X461876Y75993D01*
X462500Y75869D01*
X477500D01*
X478124Y75993D01*
X478653Y76346D01*
X481060Y78753D01*
X481414Y79283D01*
X481538Y79907D01*
Y80004D01*
X483953D01*
Y87484D01*
Y94996D01*
X476047D01*
Y94131D01*
X473496D01*
X473367Y94444D01*
X472749Y95249D01*
X471944Y95867D01*
X471006Y96255D01*
X470000Y96388D01*
D02*
G37*
G36*
X383953Y74996D02*
X380500D01*
Y71740D01*
X383953D01*
Y74996D01*
D02*
G37*
G36*
X379500D02*
X376047D01*
Y71740D01*
X379500D01*
Y74996D01*
D02*
G37*
G36*
X493953Y72496D02*
X490500D01*
Y69240D01*
X493953D01*
Y72496D01*
D02*
G37*
G36*
X489500D02*
X486047D01*
Y69240D01*
X489500D01*
Y72496D01*
D02*
G37*
G36*
X483953Y72496D02*
X480500D01*
Y69240D01*
X483953D01*
Y72496D01*
D02*
G37*
G36*
X479500D02*
X476047D01*
Y69240D01*
X479500D01*
Y72496D01*
D02*
G37*
G36*
X520500Y72405D02*
Y68000D01*
X524003D01*
Y68468D01*
X523866Y69504D01*
X523466Y70470D01*
X522830Y71299D01*
X522001Y71935D01*
X521036Y72335D01*
X520500Y72405D01*
D02*
G37*
G36*
X519500D02*
X518964Y72335D01*
X517999Y71935D01*
X517170Y71299D01*
X516534Y70470D01*
X516134Y69504D01*
X515997Y68468D01*
Y68000D01*
X519500D01*
Y72405D01*
D02*
G37*
G36*
X470500D02*
Y68000D01*
X474003D01*
Y68468D01*
X473866Y69504D01*
X473466Y70470D01*
X472830Y71299D01*
X472001Y71935D01*
X471036Y72335D01*
X470500Y72405D01*
D02*
G37*
G36*
X469500D02*
X468964Y72335D01*
X467999Y71935D01*
X467170Y71299D01*
X466534Y70470D01*
X466134Y69504D01*
X465997Y68468D01*
Y68000D01*
X469500D01*
Y72405D01*
D02*
G37*
G36*
X360500D02*
Y68000D01*
X364003D01*
Y68468D01*
X363866Y69504D01*
X363467Y70470D01*
X362830Y71299D01*
X362001Y71935D01*
X361036Y72335D01*
X360500Y72405D01*
D02*
G37*
G36*
X359500D02*
X358964Y72335D01*
X357999Y71935D01*
X357170Y71299D01*
X356534Y70470D01*
X356134Y69504D01*
X355997Y68468D01*
Y68000D01*
X359500D01*
Y72405D01*
D02*
G37*
G36*
X524003Y67000D02*
X520500D01*
Y62595D01*
X521036Y62665D01*
X522001Y63065D01*
X522830Y63701D01*
X523466Y64530D01*
X523866Y65496D01*
X524003Y66531D01*
Y67000D01*
D02*
G37*
G36*
X519500D02*
X515997D01*
Y66531D01*
X516134Y65496D01*
X516534Y64530D01*
X517170Y63701D01*
X517999Y63065D01*
X518964Y62665D01*
X519500Y62595D01*
Y67000D01*
D02*
G37*
G36*
X474003D02*
X470500D01*
Y62595D01*
X471036Y62665D01*
X472001Y63065D01*
X472830Y63701D01*
X473466Y64530D01*
X473866Y65496D01*
X474003Y66531D01*
Y67000D01*
D02*
G37*
G36*
X469500D02*
X465997D01*
Y66531D01*
X466134Y65496D01*
X466534Y64530D01*
X467170Y63701D01*
X467999Y63065D01*
X468964Y62665D01*
X469500Y62595D01*
Y67000D01*
D02*
G37*
G36*
X364003D02*
X360500D01*
Y62595D01*
X361036Y62665D01*
X362001Y63065D01*
X362830Y63701D01*
X363467Y64530D01*
X363866Y65496D01*
X364003Y66531D01*
Y67000D01*
D02*
G37*
G36*
X359500D02*
X355997D01*
Y66531D01*
X356134Y65496D01*
X356534Y64530D01*
X357170Y63701D01*
X357999Y63065D01*
X358964Y62665D01*
X359500Y62595D01*
Y67000D01*
D02*
G37*
G36*
X420500Y58579D02*
Y55618D01*
X424937D01*
Y58579D01*
X420500D01*
D02*
G37*
G36*
X510500Y55825D02*
Y53000D01*
X513325D01*
X513276Y53378D01*
X512937Y54196D01*
X512398Y54898D01*
X511696Y55437D01*
X510878Y55776D01*
X510500Y55825D01*
D02*
G37*
G36*
X509500D02*
X509122Y55776D01*
X508304Y55437D01*
X507602Y54898D01*
X507063Y54196D01*
X506724Y53378D01*
X506675Y53000D01*
X509500D01*
Y55825D01*
D02*
G37*
G36*
X500500D02*
Y53000D01*
X503325D01*
X503276Y53378D01*
X502937Y54196D01*
X502398Y54898D01*
X501696Y55437D01*
X500878Y55776D01*
X500500Y55825D01*
D02*
G37*
G36*
X499500D02*
X499122Y55776D01*
X498304Y55437D01*
X497602Y54898D01*
X497063Y54196D01*
X496724Y53378D01*
X496675Y53000D01*
X499500D01*
Y55825D01*
D02*
G37*
G36*
X424937Y54618D02*
X420500D01*
Y51657D01*
X424937D01*
Y54618D01*
D02*
G37*
G36*
X513325Y52000D02*
X510500D01*
Y49175D01*
X510878Y49224D01*
X511696Y49563D01*
X512398Y50102D01*
X512937Y50804D01*
X513276Y51622D01*
X513325Y52000D01*
D02*
G37*
G36*
X509500D02*
X506675D01*
X506724Y51622D01*
X507063Y50804D01*
X507602Y50102D01*
X508304Y49563D01*
X509122Y49224D01*
X509500Y49175D01*
Y52000D01*
D02*
G37*
G36*
X503325D02*
X500500D01*
Y49175D01*
X500878Y49224D01*
X501696Y49563D01*
X502398Y50102D01*
X502937Y50804D01*
X503276Y51622D01*
X503325Y52000D01*
D02*
G37*
G36*
X499500D02*
X496675D01*
X496724Y51622D01*
X497063Y50804D01*
X497602Y50102D01*
X498304Y49563D01*
X499122Y49224D01*
X499500Y49175D01*
Y52000D01*
D02*
G37*
G36*
X520000Y55891D02*
X519122Y55776D01*
X518304Y55437D01*
X517602Y54898D01*
X517063Y54196D01*
X516724Y53378D01*
X516609Y52500D01*
X516724Y51622D01*
X517063Y50804D01*
X517602Y50102D01*
X517961Y49827D01*
Y38345D01*
X504155Y24539D01*
X265870D01*
X265553Y24918D01*
X265710Y25381D01*
X266323Y25462D01*
X267299Y25866D01*
X268137Y26509D01*
X268780Y27347D01*
X269184Y28323D01*
X269322Y29370D01*
X269184Y30417D01*
X268780Y31393D01*
X268137Y32231D01*
X267299Y32874D01*
X266323Y33279D01*
X265276Y33417D01*
X264228Y33279D01*
X263252Y32874D01*
X262539Y32327D01*
X262039Y32506D01*
Y34155D01*
X263604Y35720D01*
X264228Y35462D01*
X265276Y35324D01*
X266323Y35462D01*
X267299Y35866D01*
X268137Y36509D01*
X268780Y37347D01*
X269184Y38323D01*
X269322Y39370D01*
X269184Y40417D01*
X268780Y41393D01*
X268137Y42231D01*
X267299Y42874D01*
X266323Y43279D01*
X265276Y43417D01*
X264228Y43279D01*
X263252Y42874D01*
X262414Y42231D01*
X261771Y41393D01*
X261367Y40417D01*
X261229Y39370D01*
X261259Y39143D01*
X258558Y36442D01*
X258116Y35780D01*
X257961Y35000D01*
Y27500D01*
X258116Y26720D01*
X258558Y26058D01*
X263558Y21058D01*
X264220Y20616D01*
X265000Y20461D01*
X505000D01*
X505780Y20616D01*
X506442Y21058D01*
X521442Y36058D01*
X521884Y36720D01*
X522039Y37500D01*
Y49827D01*
X522398Y50102D01*
X522937Y50804D01*
X523276Y51622D01*
X523391Y52500D01*
X523276Y53378D01*
X522937Y54196D01*
X522398Y54898D01*
X521696Y55437D01*
X520878Y55776D01*
X520000Y55891D01*
D02*
G37*
G36*
X315776Y33351D02*
Y29870D01*
X319256D01*
X319184Y30417D01*
X318780Y31393D01*
X318137Y32231D01*
X317299Y32874D01*
X316323Y33279D01*
X315776Y33351D01*
D02*
G37*
G36*
X314776D02*
X314228Y33279D01*
X313252Y32874D01*
X312414Y32231D01*
X311771Y31393D01*
X311367Y30417D01*
X311295Y29870D01*
X314776D01*
Y33351D01*
D02*
G37*
G36*
X285776D02*
Y29870D01*
X289256D01*
X289184Y30417D01*
X288780Y31393D01*
X288137Y32231D01*
X287299Y32874D01*
X286323Y33279D01*
X285776Y33351D01*
D02*
G37*
G36*
X284776D02*
X284228Y33279D01*
X283252Y32874D01*
X282414Y32231D01*
X281771Y31393D01*
X281367Y30417D01*
X281295Y29870D01*
X284776D01*
Y33351D01*
D02*
G37*
G36*
X319256Y28870D02*
X315776D01*
Y25390D01*
X316323Y25462D01*
X317299Y25866D01*
X318137Y26509D01*
X318780Y27347D01*
X319184Y28323D01*
X319256Y28870D01*
D02*
G37*
G36*
X314776D02*
X311295D01*
X311367Y28323D01*
X311771Y27347D01*
X312414Y26509D01*
X313252Y25866D01*
X314228Y25462D01*
X314776Y25390D01*
Y28870D01*
D02*
G37*
G36*
X309256D02*
X305776D01*
Y25390D01*
X306323Y25462D01*
X307299Y25866D01*
X308137Y26509D01*
X308780Y27347D01*
X309184Y28323D01*
X309256Y28870D01*
D02*
G37*
G36*
X304776D02*
X301295D01*
X301367Y28323D01*
X301771Y27347D01*
X302414Y26509D01*
X303252Y25866D01*
X304228Y25462D01*
X304776Y25390D01*
Y28870D01*
D02*
G37*
G36*
X289256D02*
X285776D01*
Y25390D01*
X286323Y25462D01*
X287299Y25866D01*
X288137Y26509D01*
X288780Y27347D01*
X289184Y28323D01*
X289256Y28870D01*
D02*
G37*
G36*
X284776D02*
X281295D01*
X281367Y28323D01*
X281771Y27347D01*
X282414Y26509D01*
X283252Y25866D01*
X284228Y25462D01*
X284776Y25390D01*
Y28870D01*
D02*
G37*
G36*
X329287Y33382D02*
X321264D01*
Y25358D01*
X329287D01*
Y33382D01*
D02*
G37*
G36*
X275276Y33417D02*
X274228Y33279D01*
X273252Y32874D01*
X272414Y32231D01*
X271771Y31393D01*
X271367Y30417D01*
X271229Y29370D01*
X271367Y28323D01*
X271771Y27347D01*
X272414Y26509D01*
X273252Y25866D01*
X274228Y25462D01*
X275276Y25324D01*
X276323Y25462D01*
X277299Y25866D01*
X278137Y26509D01*
X278780Y27347D01*
X279184Y28323D01*
X279322Y29370D01*
X279184Y30417D01*
X278780Y31393D01*
X278137Y32231D01*
X277299Y32874D01*
X276323Y33279D01*
X275276Y33417D01*
D02*
G37*
G36*
X15500Y18921D02*
Y15500D01*
X18921D01*
X18851Y16032D01*
X18453Y16993D01*
X17819Y17819D01*
X16993Y18453D01*
X16032Y18851D01*
X15500Y18921D01*
D02*
G37*
G36*
X14500D02*
X13968Y18851D01*
X13007Y18453D01*
X12181Y17819D01*
X11547Y16993D01*
X11149Y16032D01*
X11079Y15500D01*
X14500D01*
Y18921D01*
D02*
G37*
G36*
X18921Y14500D02*
X15500D01*
Y11079D01*
X16032Y11149D01*
X16993Y11547D01*
X17819Y12181D01*
X18453Y13007D01*
X18851Y13968D01*
X18921Y14500D01*
D02*
G37*
G36*
X14500D02*
X11079D01*
X11149Y13968D01*
X11547Y13007D01*
X12181Y12181D01*
X13007Y11547D01*
X13968Y11149D01*
X14500Y11079D01*
Y14500D01*
D02*
G37*
G36*
X580500Y13464D02*
Y10500D01*
X583464D01*
X583410Y10914D01*
X583057Y11765D01*
X582496Y12496D01*
X581765Y13057D01*
X580914Y13410D01*
X580500Y13464D01*
D02*
G37*
G36*
X579500D02*
X579086Y13410D01*
X578235Y13057D01*
X577504Y12496D01*
X576943Y11765D01*
X576590Y10914D01*
X576536Y10500D01*
X579500D01*
Y13464D01*
D02*
G37*
G36*
X583464Y9500D02*
X580500D01*
Y6536D01*
X580914Y6590D01*
X581765Y6943D01*
X582496Y7504D01*
X583057Y8235D01*
X583410Y9086D01*
X583464Y9500D01*
D02*
G37*
G36*
X579500D02*
X576536D01*
X576590Y9086D01*
X576943Y8235D01*
X577504Y7504D01*
X578235Y6943D01*
X579086Y6590D01*
X579500Y6536D01*
Y9500D01*
D02*
G37*
%LPD*%
G36*
X466146Y268646D02*
X469820D01*
Y268549D01*
X469944Y267924D01*
X470298Y267395D01*
X470923Y266771D01*
X470689Y266297D01*
X470000Y266388D01*
X468994Y266255D01*
X468056Y265867D01*
X467251Y265249D01*
X466633Y264444D01*
X466504Y264131D01*
X453953D01*
Y267484D01*
Y270869D01*
X466146D01*
Y268646D01*
D02*
G37*
G36*
X168369Y276259D02*
Y274996D01*
X166047D01*
Y272871D01*
X163740D01*
X163116Y272747D01*
X162587Y272394D01*
X158846Y268653D01*
X158493Y268124D01*
X158369Y267500D01*
Y256120D01*
X157999Y255966D01*
X157170Y255330D01*
X156534Y254501D01*
X156134Y253536D01*
X155997Y252500D01*
X156134Y251464D01*
X156534Y250499D01*
X157170Y249670D01*
X157999Y249033D01*
X158964Y248634D01*
X160000Y248497D01*
X161036Y248634D01*
X162001Y249033D01*
X162830Y249670D01*
X163467Y250499D01*
X163866Y251464D01*
X164003Y252500D01*
X163866Y253536D01*
X163467Y254501D01*
X162830Y255330D01*
X162001Y255966D01*
X161631Y256120D01*
Y266824D01*
X164416Y269609D01*
X166047D01*
Y267484D01*
Y260004D01*
X173953D01*
Y262128D01*
X176047D01*
Y260004D01*
X183953D01*
Y262128D01*
X196161D01*
X196245Y261494D01*
X196633Y260556D01*
X196924Y260177D01*
X196678Y259677D01*
X185546D01*
X184921Y259553D01*
X184392Y259199D01*
X181661Y256469D01*
X176031D01*
Y248532D01*
X183968D01*
Y254161D01*
X186221Y256414D01*
X198072D01*
X198171Y255914D01*
X198056Y255867D01*
X197251Y255249D01*
X196633Y254444D01*
X196245Y253506D01*
X196112Y252500D01*
X196245Y251494D01*
X196633Y250556D01*
X197251Y249751D01*
X198056Y249133D01*
X198994Y248745D01*
X200000Y248612D01*
X201006Y248745D01*
X201319Y248874D01*
X203369Y246824D01*
Y245263D01*
X202869Y245093D01*
X202749Y245249D01*
X201944Y245867D01*
X201006Y246255D01*
X200000Y246388D01*
X198994Y246255D01*
X198056Y245867D01*
X197920Y245762D01*
X197737Y245799D01*
X193953D01*
Y247484D01*
Y250740D01*
X190000D01*
X186047D01*
Y247484D01*
Y240004D01*
X193953D01*
Y241721D01*
X196215D01*
X196245Y241494D01*
X196633Y240556D01*
X197251Y239751D01*
X198056Y239133D01*
X198994Y238745D01*
X200000Y238612D01*
X201006Y238745D01*
X201944Y239133D01*
X202749Y239751D01*
X202869Y239907D01*
X203369Y239737D01*
Y235263D01*
X202869Y235093D01*
X202749Y235249D01*
X201944Y235867D01*
X201006Y236255D01*
X200000Y236388D01*
X198994Y236255D01*
X198056Y235867D01*
X197251Y235249D01*
X196633Y234444D01*
X196504Y234131D01*
X180676D01*
X171631Y243176D01*
Y248880D01*
X172001Y249033D01*
X172830Y249670D01*
X173467Y250499D01*
X173866Y251464D01*
X174003Y252500D01*
X173866Y253536D01*
X173467Y254501D01*
X172830Y255330D01*
X172001Y255966D01*
X171036Y256366D01*
X170000Y256503D01*
X168964Y256366D01*
X167999Y255966D01*
X167170Y255330D01*
X166534Y254501D01*
X166134Y253536D01*
X165997Y252500D01*
X166134Y251464D01*
X166534Y250499D01*
X167170Y249670D01*
X167999Y249033D01*
X168369Y248880D01*
Y242500D01*
X168493Y241876D01*
X168846Y241347D01*
X178262Y231930D01*
X178071Y231469D01*
X176031D01*
Y223532D01*
X183968D01*
Y224311D01*
X184430Y224503D01*
X186047Y222886D01*
Y217484D01*
Y210004D01*
X188369D01*
Y204996D01*
X186047D01*
Y197484D01*
Y190004D01*
X193953D01*
Y192129D01*
X196260D01*
X196884Y192253D01*
X197413Y192606D01*
X201153Y196346D01*
X201507Y196876D01*
X201631Y197500D01*
Y209004D01*
X201944Y209133D01*
X202749Y209751D01*
X202869Y209907D01*
X203369Y209737D01*
Y193176D01*
X199324Y189131D01*
X185676D01*
X181631Y193176D01*
Y198531D01*
X183968D01*
Y206469D01*
X176031D01*
Y204131D01*
X173620D01*
X173467Y204501D01*
X172830Y205330D01*
X172001Y205966D01*
X171631Y206120D01*
Y223880D01*
X172001Y224033D01*
X172830Y224670D01*
X173467Y225499D01*
X173866Y226464D01*
X174003Y227500D01*
X173866Y228536D01*
X173467Y229501D01*
X172830Y230330D01*
X172001Y230966D01*
X171036Y231366D01*
X170000Y231503D01*
X168964Y231366D01*
X167999Y230966D01*
X167170Y230330D01*
X166534Y229501D01*
X166380Y229131D01*
X163620D01*
X163467Y229501D01*
X162830Y230330D01*
X162001Y230966D01*
X161036Y231366D01*
X160000Y231503D01*
X158964Y231366D01*
X157999Y230966D01*
X157170Y230330D01*
X156534Y229501D01*
X156255Y228830D01*
X155958D01*
X155334Y228705D01*
X154805Y228352D01*
X151449Y224996D01*
X146631D01*
Y227500D01*
X146507Y228124D01*
X146153Y228654D01*
X143626Y231181D01*
X143755Y231494D01*
X143888Y232500D01*
X143755Y233506D01*
X143367Y234444D01*
X142749Y235249D01*
X141944Y235867D01*
X141006Y236255D01*
X140000Y236388D01*
X138994Y236255D01*
X138056Y235867D01*
X137251Y235249D01*
X136633Y234444D01*
X136504Y234131D01*
X135676D01*
X131631Y238176D01*
Y240004D01*
X133953D01*
Y247484D01*
Y250740D01*
X130000D01*
Y251240D01*
X129500D01*
Y254996D01*
X127956D01*
X127765Y255458D01*
X128176Y255869D01*
X137237D01*
X137407Y255369D01*
X137251Y255249D01*
X136633Y254444D01*
X136245Y253506D01*
X136178Y253000D01*
X139500D01*
Y256322D01*
X139311Y256297D01*
X139077Y256770D01*
X140312Y258005D01*
X140666Y258535D01*
X140700Y258705D01*
X141006Y258745D01*
X141944Y259133D01*
X142749Y259751D01*
X143367Y260556D01*
X143755Y261494D01*
X143839Y262128D01*
X146047D01*
Y260004D01*
X153953D01*
Y267484D01*
Y274996D01*
X146047D01*
Y274131D01*
X143496D01*
X143367Y274444D01*
X142749Y275249D01*
X141944Y275867D01*
X141006Y276255D01*
X140000Y276388D01*
X138994Y276255D01*
X138681Y276126D01*
X133100Y281707D01*
X133292Y282169D01*
X162459D01*
X168369Y276259D01*
D02*
G37*
G36*
X196146Y268646D02*
X201547D01*
X205331Y264862D01*
X205860Y264509D01*
X206047Y264471D01*
Y262311D01*
X203726Y259990D01*
X203581Y260014D01*
X203366Y260556D01*
X203367Y260556D01*
X203755Y261494D01*
X203888Y262500D01*
X203755Y263506D01*
X203367Y264444D01*
X202749Y265249D01*
X201944Y265867D01*
X201006Y266255D01*
X200000Y266388D01*
X198994Y266255D01*
X198056Y265867D01*
X197436Y265391D01*
X183953D01*
Y269609D01*
X196146D01*
Y268646D01*
D02*
G37*
G36*
X376146D02*
X381547D01*
X385331Y264862D01*
X385860Y264509D01*
X386047Y264471D01*
Y262311D01*
X383184Y259447D01*
X383152Y259455D01*
X382951Y260015D01*
X383367Y260556D01*
X383755Y261494D01*
X383888Y262500D01*
X383755Y263506D01*
X383367Y264444D01*
X382749Y265249D01*
X381944Y265867D01*
X381006Y266255D01*
X380000Y266388D01*
X378994Y266255D01*
X378056Y265867D01*
X377251Y265249D01*
X376633Y264444D01*
X376504Y264131D01*
X363953D01*
Y267484D01*
Y269609D01*
X376146D01*
Y268646D01*
D02*
G37*
G36*
X286146D02*
X291547D01*
X295331Y264862D01*
X295860Y264509D01*
X296047Y264471D01*
Y262311D01*
X293183Y259447D01*
X293152Y259455D01*
X292951Y260015D01*
X293367Y260556D01*
X293755Y261494D01*
X293888Y262500D01*
X293755Y263506D01*
X293367Y264444D01*
X292749Y265249D01*
X291944Y265867D01*
X291006Y266255D01*
X290000Y266388D01*
X288994Y266255D01*
X288056Y265867D01*
X287251Y265249D01*
X286633Y264444D01*
X286504Y264131D01*
X273953D01*
Y267484D01*
Y269609D01*
X286146D01*
Y268646D01*
D02*
G37*
G36*
X348369Y276259D02*
Y274996D01*
X346047D01*
Y272871D01*
X345000D01*
X344376Y272747D01*
X343847Y272394D01*
X338846Y267394D01*
X338493Y266864D01*
X338369Y266240D01*
Y256120D01*
X337999Y255966D01*
X337170Y255330D01*
X336533Y254501D01*
X336134Y253536D01*
X335997Y252500D01*
X336070Y251944D01*
X335597Y251710D01*
X335203Y252104D01*
X334674Y252457D01*
X334050Y252582D01*
X333953D01*
Y254996D01*
X331631D01*
Y260004D01*
X333953D01*
Y267484D01*
Y274996D01*
X326047D01*
Y274131D01*
X323496D01*
X323367Y274444D01*
X322749Y275249D01*
X321944Y275867D01*
X321209Y276171D01*
Y276712D01*
X321765Y276943D01*
X322496Y277504D01*
X323057Y278235D01*
X323410Y279086D01*
X323464Y279500D01*
X316536D01*
X316590Y279086D01*
X316943Y278235D01*
X317504Y277504D01*
X318235Y276943D01*
X318791Y276712D01*
Y276171D01*
X318056Y275867D01*
X317251Y275249D01*
X316633Y274444D01*
X316245Y273506D01*
X316112Y272500D01*
X316245Y271494D01*
X316633Y270556D01*
X317251Y269751D01*
X318056Y269133D01*
X318369Y269004D01*
Y265996D01*
X318056Y265867D01*
X317251Y265249D01*
X316633Y264444D01*
X316245Y263506D01*
X316112Y262500D01*
X316245Y261494D01*
X316633Y260556D01*
X317251Y259751D01*
X318056Y259133D01*
X318994Y258745D01*
X320000Y258612D01*
X321006Y258745D01*
X321944Y259133D01*
X322749Y259751D01*
X323367Y260556D01*
X323755Y261494D01*
X323888Y262500D01*
X323755Y263506D01*
X323367Y264444D01*
X322749Y265249D01*
X321944Y265867D01*
X321631Y265996D01*
Y269004D01*
X321944Y269133D01*
X322749Y269751D01*
X323367Y270556D01*
X323496Y270869D01*
X326047D01*
Y267484D01*
Y260004D01*
X328369D01*
Y254996D01*
X326047D01*
Y249413D01*
X325585Y249222D01*
X323626Y251181D01*
X323755Y251494D01*
X323888Y252500D01*
X323755Y253506D01*
X323367Y254444D01*
X322749Y255249D01*
X321944Y255867D01*
X321006Y256255D01*
X320000Y256388D01*
X319717Y256350D01*
X313953Y262114D01*
Y267484D01*
Y270740D01*
X310000D01*
X306047D01*
Y269998D01*
X305547Y269669D01*
X305153Y269747D01*
X303997D01*
X303953Y269791D01*
Y274996D01*
X296047D01*
Y269413D01*
X295585Y269222D01*
X293854Y270953D01*
Y276354D01*
X286146D01*
Y272871D01*
X273953D01*
Y274996D01*
X266047D01*
Y267484D01*
Y265391D01*
X263953D01*
Y267484D01*
Y274996D01*
X261631D01*
Y276934D01*
X261507Y277559D01*
X261154Y278088D01*
X252835Y286407D01*
X253026Y286869D01*
X337759D01*
X348369Y276259D01*
D02*
G37*
G36*
X485231Y265731D02*
X485760Y265377D01*
X485908Y265348D01*
X486047Y265209D01*
Y260004D01*
X488462D01*
Y259907D01*
X488586Y259283D01*
X488940Y258753D01*
X492235Y255458D01*
X492044Y254996D01*
X490500D01*
Y251740D01*
X493953D01*
Y253087D01*
X494415Y253278D01*
X495505Y252188D01*
X496035Y251834D01*
X496205Y251800D01*
X496245Y251494D01*
X496633Y250556D01*
X497251Y249751D01*
X498056Y249133D01*
X498994Y248745D01*
X500000Y248612D01*
X501006Y248745D01*
X501319Y248874D01*
X503369Y246824D01*
Y245263D01*
X502869Y245093D01*
X502749Y245249D01*
X501944Y245867D01*
X501006Y246255D01*
X500000Y246388D01*
X498994Y246255D01*
X498056Y245867D01*
X497920Y245762D01*
X497737Y245799D01*
X493953D01*
Y247484D01*
Y250740D01*
X490000D01*
Y251240D01*
D01*
Y250740D01*
X486047D01*
Y247484D01*
Y240004D01*
X493953D01*
Y241721D01*
X496215D01*
X496245Y241494D01*
X496633Y240556D01*
X497251Y239751D01*
X498056Y239133D01*
X498994Y238745D01*
X500000Y238612D01*
X500689Y238703D01*
X500922Y238229D01*
X499688Y236995D01*
X499334Y236465D01*
X499300Y236295D01*
X498994Y236255D01*
X498056Y235867D01*
X497251Y235249D01*
X496633Y234444D01*
X496245Y233506D01*
X496112Y232500D01*
X496245Y231494D01*
X496633Y230556D01*
X497251Y229751D01*
X498056Y229133D01*
X498994Y228745D01*
X500000Y228612D01*
X501006Y228745D01*
X501944Y229133D01*
X502749Y229751D01*
X503367Y230556D01*
X503755Y231494D01*
X503888Y232500D01*
X503755Y233506D01*
X503367Y234444D01*
X502749Y235249D01*
X502737Y235430D01*
X506153Y238846D01*
X506507Y239376D01*
X506631Y240000D01*
Y240004D01*
X509500D01*
Y243760D01*
X510000D01*
Y244260D01*
X513953D01*
Y248059D01*
X514453Y248240D01*
X515869Y246824D01*
Y165676D01*
X513064Y162872D01*
X503953D01*
Y164996D01*
X496047D01*
Y157484D01*
Y155391D01*
X493953D01*
Y157484D01*
Y164996D01*
X491631D01*
Y167500D01*
X491507Y168124D01*
X491153Y168654D01*
X483653Y176154D01*
X483124Y176507D01*
X482500Y176631D01*
X423176D01*
X416631Y183176D01*
Y190004D01*
X419500D01*
Y193760D01*
X420000D01*
Y194260D01*
X423953D01*
Y197484D01*
Y199609D01*
X427249D01*
X427999Y199033D01*
X428964Y198634D01*
X430000Y198497D01*
X431036Y198634D01*
X432001Y199033D01*
X432830Y199670D01*
X433466Y200499D01*
X433866Y201464D01*
X434003Y202500D01*
X433866Y203536D01*
X433466Y204501D01*
X432830Y205330D01*
X432001Y205966D01*
X431036Y206366D01*
X430000Y206503D01*
X428964Y206366D01*
X427999Y205966D01*
X427170Y205330D01*
X426534Y204501D01*
X426134Y203536D01*
X426046Y202871D01*
X423953D01*
Y204996D01*
X416631D01*
Y210004D01*
X419500D01*
Y213760D01*
X420000D01*
Y214260D01*
X423953D01*
Y217484D01*
Y222886D01*
X426279Y225212D01*
X426778Y225180D01*
X427170Y224670D01*
X427999Y224033D01*
X428964Y223634D01*
X430000Y223497D01*
X431036Y223634D01*
X432001Y224033D01*
X432830Y224670D01*
X433466Y225499D01*
X433620Y225869D01*
X436380D01*
X436533Y225499D01*
X437170Y224670D01*
X437999Y224033D01*
X438369Y223880D01*
Y206120D01*
X437999Y205966D01*
X437170Y205330D01*
X436533Y204501D01*
X436134Y203536D01*
X435997Y202500D01*
X436134Y201464D01*
X436533Y200499D01*
X437170Y199670D01*
X437999Y199033D01*
X438964Y198634D01*
X440000Y198497D01*
X441036Y198634D01*
X442001Y199033D01*
X442830Y199670D01*
X443467Y200499D01*
X443620Y200869D01*
X446032D01*
Y198531D01*
X448369D01*
Y192500D01*
X448493Y191876D01*
X448846Y191347D01*
X453847Y186346D01*
X454376Y185993D01*
X455000Y185869D01*
X470000D01*
X470624Y185993D01*
X471153Y186346D01*
X476154Y191347D01*
X476507Y191876D01*
X476631Y192500D01*
Y235000D01*
X476507Y235624D01*
X476154Y236154D01*
X473654Y238653D01*
X473124Y239007D01*
X472709Y239090D01*
X472574Y239617D01*
X472749Y239751D01*
X473294Y240461D01*
X476047D01*
Y240004D01*
X483953D01*
Y247484D01*
Y250740D01*
X480000D01*
X476047D01*
Y247484D01*
Y244539D01*
X473294D01*
X472749Y245249D01*
X471944Y245867D01*
X471006Y246255D01*
X470000Y246388D01*
X468994Y246255D01*
X468056Y245867D01*
X467251Y245249D01*
X467131Y245093D01*
X466631Y245263D01*
Y249324D01*
X467070Y249763D01*
X467251Y249751D01*
X468056Y249133D01*
X468994Y248745D01*
X470000Y248612D01*
X471006Y248745D01*
X471944Y249133D01*
X472749Y249751D01*
X473367Y250556D01*
X473755Y251494D01*
X473888Y252500D01*
X473755Y253506D01*
X473367Y254444D01*
X472749Y255249D01*
X472593Y255369D01*
X472763Y255869D01*
X475000D01*
X475624Y255993D01*
X476154Y256347D01*
X478856Y259049D01*
X479210Y259578D01*
X479295Y260004D01*
X483953D01*
Y266484D01*
X484477D01*
X485231Y265731D01*
D02*
G37*
G36*
X395231D02*
X395760Y265377D01*
X395908Y265348D01*
X396047Y265209D01*
Y260004D01*
X400705D01*
X400790Y259578D01*
X401144Y259049D01*
X406374Y253819D01*
X406245Y253506D01*
X406112Y252500D01*
X406245Y251494D01*
X406633Y250556D01*
X407251Y249751D01*
X408056Y249133D01*
X408994Y248745D01*
X410000Y248612D01*
X411006Y248745D01*
X411319Y248874D01*
X413369Y246824D01*
Y245263D01*
X412869Y245093D01*
X412749Y245249D01*
X411944Y245867D01*
X411006Y246255D01*
X410000Y246388D01*
X408994Y246255D01*
X408056Y245867D01*
X407920Y245762D01*
X407737Y245799D01*
X403953D01*
Y247484D01*
Y250740D01*
X400000D01*
Y251240D01*
D01*
Y250740D01*
X396047D01*
Y247484D01*
Y240004D01*
X403953D01*
Y241721D01*
X406215D01*
X406245Y241494D01*
X406633Y240556D01*
X407251Y239751D01*
X408056Y239133D01*
X408994Y238745D01*
X410000Y238612D01*
X411006Y238745D01*
X411944Y239133D01*
X412749Y239751D01*
X412869Y239907D01*
X413369Y239737D01*
Y238176D01*
X411319Y236126D01*
X411006Y236255D01*
X410000Y236388D01*
X408994Y236255D01*
X408056Y235867D01*
X407251Y235249D01*
X406633Y234444D01*
X406245Y233506D01*
X406112Y232500D01*
X406245Y231494D01*
X406633Y230556D01*
X407251Y229751D01*
X408056Y229133D01*
X408994Y228745D01*
X410000Y228612D01*
X411006Y228745D01*
X411944Y229133D01*
X412749Y229751D01*
X413367Y230556D01*
X413755Y231494D01*
X413888Y232500D01*
X413755Y233506D01*
X413626Y233819D01*
X416153Y236347D01*
X416507Y236876D01*
X416631Y237500D01*
Y240004D01*
X419500D01*
Y243760D01*
X420500D01*
Y240004D01*
X423369D01*
Y235676D01*
X413846Y226153D01*
X413493Y225624D01*
X413410Y225209D01*
X412883Y225074D01*
X412749Y225249D01*
X411944Y225867D01*
X411006Y226255D01*
X410000Y226388D01*
X408994Y226255D01*
X408056Y225867D01*
X407251Y225249D01*
X406633Y224444D01*
X406245Y223506D01*
X406161Y222871D01*
X403953D01*
Y224996D01*
X396047D01*
Y217484D01*
Y210004D01*
X398369D01*
Y204996D01*
X396047D01*
Y197484D01*
Y190004D01*
X398369D01*
Y186354D01*
X396146D01*
Y178646D01*
X403854D01*
Y186354D01*
X401631D01*
Y190004D01*
X403953D01*
Y197484D01*
Y198369D01*
X406047D01*
Y197484D01*
Y194260D01*
X410000D01*
Y193760D01*
X410500D01*
Y190004D01*
X413369D01*
Y186375D01*
X412895Y186214D01*
X412830Y186299D01*
X412001Y186935D01*
X411036Y187335D01*
X410500Y187405D01*
Y182500D01*
Y177595D01*
X411036Y177665D01*
X412001Y178065D01*
X412830Y178701D01*
X413467Y179530D01*
X413866Y180496D01*
X413889Y180669D01*
X414363Y180830D01*
X420600Y174593D01*
X420408Y174131D01*
X335676D01*
X326631Y183176D01*
Y190004D01*
X329500D01*
Y193760D01*
X330000D01*
Y194260D01*
X333953D01*
Y197484D01*
Y199609D01*
X337249D01*
X337999Y199033D01*
X338964Y198634D01*
X340000Y198497D01*
X341036Y198634D01*
X342001Y199033D01*
X342830Y199670D01*
X343466Y200499D01*
X343866Y201464D01*
X344003Y202500D01*
X343866Y203536D01*
X343466Y204501D01*
X342830Y205330D01*
X342001Y205966D01*
X341036Y206366D01*
X340000Y206503D01*
X338964Y206366D01*
X337999Y205966D01*
X337170Y205330D01*
X336533Y204501D01*
X336134Y203536D01*
X336046Y202871D01*
X333953D01*
Y204996D01*
X326631D01*
Y210004D01*
X329500D01*
Y213760D01*
X330000D01*
Y214260D01*
X333953D01*
Y217484D01*
Y222886D01*
X336279Y225212D01*
X336778Y225180D01*
X337170Y224670D01*
X337999Y224033D01*
X338964Y223634D01*
X340000Y223497D01*
X341036Y223634D01*
X342001Y224033D01*
X342830Y224670D01*
X343466Y225499D01*
X343620Y225869D01*
X346380D01*
X346533Y225499D01*
X347170Y224670D01*
X347999Y224033D01*
X348369Y223880D01*
Y206120D01*
X347999Y205966D01*
X347170Y205330D01*
X346533Y204501D01*
X346134Y203536D01*
X345997Y202500D01*
X346134Y201464D01*
X346533Y200499D01*
X347170Y199670D01*
X347999Y199033D01*
X348964Y198634D01*
X350000Y198497D01*
X351036Y198634D01*
X352001Y199033D01*
X352830Y199670D01*
X353467Y200499D01*
X353620Y200869D01*
X356031D01*
Y198531D01*
X358369D01*
Y190000D01*
X358493Y189376D01*
X358846Y188847D01*
X363846Y183846D01*
X364376Y183493D01*
X365000Y183369D01*
X380000D01*
X380624Y183493D01*
X381153Y183846D01*
X386154Y188847D01*
X386507Y189376D01*
X386631Y190000D01*
Y235000D01*
X386507Y235624D01*
X386154Y236154D01*
X383653Y238653D01*
X383124Y239007D01*
X382709Y239090D01*
X382574Y239617D01*
X382749Y239751D01*
X383367Y240556D01*
X383755Y241494D01*
X383785Y241721D01*
X386047D01*
Y240004D01*
X393953D01*
Y247484D01*
Y250740D01*
X390000D01*
X386047D01*
Y247484D01*
Y245799D01*
X382263D01*
X382080Y245762D01*
X381944Y245867D01*
X381006Y246255D01*
X380000Y246388D01*
X378994Y246255D01*
X378056Y245867D01*
X377251Y245249D01*
X377131Y245093D01*
X376631Y245263D01*
Y246824D01*
X378681Y248874D01*
X378994Y248745D01*
X380000Y248612D01*
X381006Y248745D01*
X381944Y249133D01*
X382749Y249751D01*
X383367Y250556D01*
X383755Y251494D01*
X383888Y252500D01*
X383755Y253506D01*
X383367Y254444D01*
X382749Y255249D01*
X382593Y255369D01*
X382763Y255869D01*
X383543D01*
X384168Y255993D01*
X384697Y256347D01*
X388354Y260004D01*
X393953D01*
Y266484D01*
X394477D01*
X395231Y265731D01*
D02*
G37*
G36*
X305231D02*
X305760Y265377D01*
X305908Y265348D01*
X306047Y265209D01*
Y260004D01*
X311449D01*
X316796Y254656D01*
X316633Y254444D01*
X316245Y253506D01*
X316112Y252500D01*
X316245Y251494D01*
X316633Y250556D01*
X317251Y249751D01*
X318056Y249133D01*
X318994Y248745D01*
X320000Y248612D01*
X321006Y248745D01*
X321319Y248874D01*
X323369Y246824D01*
Y245263D01*
X322869Y245093D01*
X322749Y245249D01*
X321944Y245867D01*
X321006Y246255D01*
X320000Y246388D01*
X318994Y246255D01*
X318056Y245867D01*
X317251Y245249D01*
X316706Y244539D01*
X313953D01*
Y247484D01*
Y250740D01*
X310000D01*
X306047D01*
Y247484D01*
Y240004D01*
X313953D01*
Y240461D01*
X316706D01*
X317251Y239751D01*
X318056Y239133D01*
X318994Y238745D01*
X320000Y238612D01*
X321006Y238745D01*
X321944Y239133D01*
X322749Y239751D01*
X322869Y239907D01*
X323369Y239737D01*
Y238176D01*
X321319Y236126D01*
X321006Y236255D01*
X320000Y236388D01*
X318994Y236255D01*
X318056Y235867D01*
X317251Y235249D01*
X316633Y234444D01*
X316245Y233506D01*
X316112Y232500D01*
X316245Y231494D01*
X316633Y230556D01*
X317251Y229751D01*
X318056Y229133D01*
X318994Y228745D01*
X320000Y228612D01*
X321006Y228745D01*
X321944Y229133D01*
X322749Y229751D01*
X323367Y230556D01*
X323755Y231494D01*
X323888Y232500D01*
X323755Y233506D01*
X323626Y233819D01*
X326153Y236347D01*
X326507Y236876D01*
X326631Y237500D01*
Y240004D01*
X329500D01*
Y243760D01*
X330000D01*
Y244260D01*
X333953D01*
Y248087D01*
X334415Y248278D01*
X335869Y246824D01*
Y238176D01*
X323847Y226153D01*
X323493Y225624D01*
X323410Y225209D01*
X322883Y225074D01*
X322749Y225249D01*
X321944Y225867D01*
X321006Y226255D01*
X320000Y226388D01*
X318994Y226255D01*
X318056Y225867D01*
X317251Y225249D01*
X316633Y224444D01*
X316245Y223506D01*
X316161Y222871D01*
X313953D01*
Y224996D01*
X306047D01*
Y217484D01*
Y210004D01*
X308369D01*
Y204996D01*
X306047D01*
Y197484D01*
Y190004D01*
X308369D01*
Y186354D01*
X306146D01*
Y178646D01*
X313854D01*
Y186354D01*
X311631D01*
Y190004D01*
X313953D01*
Y197484D01*
Y199609D01*
X316047D01*
Y197484D01*
Y194260D01*
X320000D01*
Y193760D01*
X320500D01*
Y190004D01*
X323369D01*
Y186375D01*
X322895Y186214D01*
X322830Y186299D01*
X322001Y186935D01*
X321036Y187335D01*
X320500Y187405D01*
Y182500D01*
Y177595D01*
X321036Y177665D01*
X322001Y178065D01*
X322830Y178701D01*
X323466Y179530D01*
X323866Y180496D01*
X323889Y180669D01*
X324363Y180830D01*
X333100Y172093D01*
X332908Y171631D01*
X248176D01*
X236631Y183176D01*
Y190004D01*
X239500D01*
Y193760D01*
X240000D01*
Y194260D01*
X243953D01*
Y197484D01*
Y199609D01*
X247249D01*
X247999Y199033D01*
X248964Y198634D01*
X250000Y198497D01*
X251036Y198634D01*
X252001Y199033D01*
X252830Y199670D01*
X253467Y200499D01*
X253866Y201464D01*
X254003Y202500D01*
X253866Y203536D01*
X253467Y204501D01*
X252830Y205330D01*
X252001Y205966D01*
X251036Y206366D01*
X250000Y206503D01*
X248964Y206366D01*
X247999Y205966D01*
X247170Y205330D01*
X246533Y204501D01*
X246134Y203536D01*
X246046Y202871D01*
X243953D01*
Y204996D01*
X236631D01*
Y210004D01*
X239500D01*
Y213760D01*
X240000D01*
Y214260D01*
X243953D01*
Y217484D01*
Y224146D01*
X245676Y225869D01*
X246380D01*
X246533Y225499D01*
X247170Y224670D01*
X247999Y224033D01*
X248964Y223634D01*
X250000Y223497D01*
X251036Y223634D01*
X252001Y224033D01*
X252830Y224670D01*
X253467Y225499D01*
X253620Y225869D01*
X256380D01*
X256534Y225499D01*
X257170Y224670D01*
X257999Y224033D01*
X258369Y223880D01*
Y206120D01*
X257999Y205966D01*
X257170Y205330D01*
X256534Y204501D01*
X256134Y203536D01*
X255997Y202500D01*
X256134Y201464D01*
X256534Y200499D01*
X257170Y199670D01*
X257999Y199033D01*
X258964Y198634D01*
X260000Y198497D01*
X261036Y198634D01*
X262001Y199033D01*
X262830Y199670D01*
X263467Y200499D01*
X263620Y200869D01*
X266032D01*
Y198531D01*
X268369D01*
Y192500D01*
X268493Y191876D01*
X268847Y191347D01*
X273847Y186346D01*
X274376Y185993D01*
X275000Y185869D01*
X290000D01*
X290624Y185993D01*
X291154Y186346D01*
X296153Y191347D01*
X296507Y191876D01*
X296631Y192500D01*
Y235000D01*
X296507Y235624D01*
X296153Y236154D01*
X293653Y238653D01*
X293124Y239007D01*
X292709Y239090D01*
X292574Y239617D01*
X292749Y239751D01*
X293294Y240461D01*
X296047D01*
Y240004D01*
X303953D01*
Y247484D01*
Y250740D01*
X300000D01*
X296047D01*
Y247484D01*
Y244539D01*
X293294D01*
X292749Y245249D01*
X291944Y245867D01*
X291006Y246255D01*
X290000Y246388D01*
X288994Y246255D01*
X288056Y245867D01*
X287251Y245249D01*
X287131Y245093D01*
X286631Y245263D01*
Y246824D01*
X288681Y248874D01*
X288994Y248745D01*
X290000Y248612D01*
X291006Y248745D01*
X291944Y249133D01*
X292749Y249751D01*
X293367Y250556D01*
X293755Y251494D01*
X293888Y252500D01*
X293755Y253506D01*
X293367Y254444D01*
X292749Y255249D01*
X292593Y255369D01*
X292763Y255869D01*
X293543D01*
X294168Y255993D01*
X294697Y256347D01*
X298354Y260004D01*
X303953D01*
Y266484D01*
X304477D01*
X305231Y265731D01*
D02*
G37*
G36*
X438369Y278759D02*
Y274996D01*
X436047D01*
Y272871D01*
X433740D01*
X433116Y272747D01*
X432587Y272394D01*
X428847Y268653D01*
X428493Y268124D01*
X428369Y267500D01*
Y256120D01*
X427999Y255966D01*
X427170Y255330D01*
X426534Y254501D01*
X426134Y253536D01*
X425997Y252500D01*
X426134Y251464D01*
X426534Y250499D01*
X427170Y249670D01*
X427999Y249033D01*
X428964Y248634D01*
X430000Y248497D01*
X431036Y248634D01*
X432001Y249033D01*
X432830Y249670D01*
X433466Y250499D01*
X433866Y251464D01*
X434003Y252500D01*
X433866Y253536D01*
X433466Y254501D01*
X432830Y255330D01*
X432001Y255966D01*
X431631Y256120D01*
Y266824D01*
X434416Y269609D01*
X436047D01*
Y267484D01*
Y260004D01*
X443953D01*
Y262128D01*
X446047D01*
Y260004D01*
X453953D01*
Y260869D01*
X466504D01*
X466633Y260556D01*
X467251Y259751D01*
X467407Y259631D01*
X467237Y259131D01*
X455000D01*
X454376Y259007D01*
X453847Y258653D01*
X451661Y256469D01*
X446032D01*
Y248532D01*
X453968D01*
Y254161D01*
X455676Y255869D01*
X467237D01*
X467407Y255369D01*
X467251Y255249D01*
X466633Y254444D01*
X466245Y253506D01*
X466205Y253200D01*
X466035Y253166D01*
X465505Y252812D01*
X463846Y251153D01*
X463493Y250624D01*
X463369Y250000D01*
Y240000D01*
X463493Y239376D01*
X463846Y238846D01*
X466347Y236347D01*
X466876Y235993D01*
X467291Y235910D01*
X467426Y235383D01*
X467251Y235249D01*
X466633Y234444D01*
X466504Y234131D01*
X450676D01*
X441631Y243176D01*
Y248880D01*
X442001Y249033D01*
X442830Y249670D01*
X443467Y250499D01*
X443866Y251464D01*
X444003Y252500D01*
X443866Y253536D01*
X443467Y254501D01*
X442830Y255330D01*
X442001Y255966D01*
X441036Y256366D01*
X440000Y256503D01*
X438964Y256366D01*
X437999Y255966D01*
X437170Y255330D01*
X436533Y254501D01*
X436134Y253536D01*
X435997Y252500D01*
X436134Y251464D01*
X436533Y250499D01*
X437170Y249670D01*
X437999Y249033D01*
X438369Y248880D01*
Y242500D01*
X438493Y241876D01*
X438846Y241347D01*
X448263Y231930D01*
X448071Y231469D01*
X446032D01*
Y223532D01*
X453968D01*
Y224311D01*
X454430Y224503D01*
X456047Y222886D01*
Y217484D01*
Y210004D01*
X458369D01*
Y204996D01*
X456047D01*
Y197484D01*
Y190004D01*
X463953D01*
Y192129D01*
X466260D01*
X466884Y192253D01*
X467413Y192606D01*
X471153Y196346D01*
X471507Y196876D01*
X471631Y197500D01*
Y209004D01*
X471944Y209133D01*
X472749Y209751D01*
X472869Y209907D01*
X473369Y209737D01*
Y193176D01*
X469324Y189131D01*
X455676D01*
X451631Y193176D01*
Y198531D01*
X453968D01*
Y206469D01*
X446032D01*
Y204131D01*
X443620D01*
X443467Y204501D01*
X442830Y205330D01*
X442001Y205966D01*
X441631Y206120D01*
Y223880D01*
X442001Y224033D01*
X442830Y224670D01*
X443467Y225499D01*
X443866Y226464D01*
X444003Y227500D01*
X443866Y228536D01*
X443467Y229501D01*
X442830Y230330D01*
X442001Y230966D01*
X441036Y231366D01*
X440000Y231503D01*
X438964Y231366D01*
X437999Y230966D01*
X437170Y230330D01*
X436533Y229501D01*
X436380Y229131D01*
X433620D01*
X433466Y229501D01*
X432830Y230330D01*
X432001Y230966D01*
X431036Y231366D01*
X430000Y231503D01*
X428964Y231366D01*
X427999Y230966D01*
X427170Y230330D01*
X426534Y229501D01*
X426255Y228830D01*
X425958D01*
X425334Y228705D01*
X424805Y228352D01*
X421449Y224996D01*
X417956D01*
X417765Y225458D01*
X426154Y233846D01*
X426507Y234376D01*
X426631Y235000D01*
X426631Y235000D01*
Y247500D01*
X426507Y248124D01*
X426154Y248654D01*
X424569Y250238D01*
X424040Y250591D01*
X423953Y250609D01*
Y254996D01*
X421631D01*
Y260004D01*
X423953D01*
Y267484D01*
Y274996D01*
X416047D01*
Y274131D01*
X413496D01*
X413367Y274444D01*
X412749Y275249D01*
X411944Y275867D01*
X411209Y276171D01*
Y276712D01*
X411765Y276943D01*
X412496Y277504D01*
X413057Y278235D01*
X413410Y279086D01*
X413464Y279500D01*
X406536D01*
X406590Y279086D01*
X406943Y278235D01*
X407504Y277504D01*
X408235Y276943D01*
X408791Y276712D01*
Y276171D01*
X408056Y275867D01*
X407251Y275249D01*
X406633Y274444D01*
X406245Y273506D01*
X406112Y272500D01*
X406245Y271494D01*
X406633Y270556D01*
X407251Y269751D01*
X408056Y269133D01*
X408369Y269004D01*
Y265996D01*
X408056Y265867D01*
X407251Y265249D01*
X406633Y264444D01*
X406245Y263506D01*
X406112Y262500D01*
X406245Y261494D01*
X406633Y260556D01*
X407251Y259751D01*
X408056Y259133D01*
X408994Y258745D01*
X410000Y258612D01*
X411006Y258745D01*
X411944Y259133D01*
X412749Y259751D01*
X413367Y260556D01*
X413755Y261494D01*
X413888Y262500D01*
X413755Y263506D01*
X413367Y264444D01*
X412749Y265249D01*
X411944Y265867D01*
X411631Y265996D01*
Y269004D01*
X411944Y269133D01*
X412749Y269751D01*
X413367Y270556D01*
X413496Y270869D01*
X416047D01*
Y267484D01*
Y260004D01*
X418369D01*
Y254996D01*
X416047D01*
Y249413D01*
X415585Y249222D01*
X413626Y251181D01*
X413755Y251494D01*
X413888Y252500D01*
X413755Y253506D01*
X413367Y254444D01*
X412749Y255249D01*
X411944Y255867D01*
X411006Y256255D01*
X410000Y256388D01*
X408994Y256255D01*
X408681Y256126D01*
X403953Y260854D01*
Y267484D01*
Y270740D01*
X400000D01*
X396047D01*
Y269998D01*
X395547Y269669D01*
X395153Y269747D01*
X393997D01*
X393953Y269791D01*
Y274996D01*
X386047D01*
Y269413D01*
X385585Y269222D01*
X383854Y270953D01*
Y276354D01*
X376146D01*
Y272871D01*
X363953D01*
Y274996D01*
X356047D01*
Y267484D01*
Y265391D01*
X353953D01*
Y267484D01*
Y274996D01*
X351631D01*
Y276934D01*
X351507Y277559D01*
X351153Y278088D01*
X340635Y288607D01*
X340826Y289069D01*
X428059D01*
X438369Y278759D01*
D02*
G37*
G36*
X346047Y269299D02*
Y267484D01*
Y260004D01*
X353953D01*
Y262128D01*
X356047D01*
Y260004D01*
X363953D01*
Y260869D01*
X376504D01*
X376633Y260556D01*
X377251Y259751D01*
X377407Y259631D01*
X377237Y259131D01*
X365000D01*
X364376Y259007D01*
X363846Y258653D01*
X361661Y256469D01*
X356031D01*
Y248532D01*
X363968D01*
Y254161D01*
X365676Y255869D01*
X377237D01*
X377407Y255369D01*
X377251Y255249D01*
X376633Y254444D01*
X376245Y253506D01*
X376112Y252500D01*
X376245Y251494D01*
X376374Y251181D01*
X373847Y248654D01*
X373493Y248124D01*
X373369Y247500D01*
Y240000D01*
X373493Y239376D01*
X373847Y238846D01*
X376346Y236347D01*
X376876Y235993D01*
X377291Y235910D01*
X377426Y235383D01*
X377251Y235249D01*
X376633Y234444D01*
X376504Y234131D01*
X358176D01*
X351631Y240676D01*
Y248880D01*
X352001Y249033D01*
X352830Y249670D01*
X353467Y250499D01*
X353866Y251464D01*
X354003Y252500D01*
X353866Y253536D01*
X353467Y254501D01*
X352830Y255330D01*
X352001Y255966D01*
X351036Y256366D01*
X350000Y256503D01*
X348964Y256366D01*
X347999Y255966D01*
X347170Y255330D01*
X346533Y254501D01*
X346134Y253536D01*
X345997Y252500D01*
X346134Y251464D01*
X346533Y250499D01*
X347170Y249670D01*
X347999Y249033D01*
X348369Y248880D01*
Y240000D01*
X348493Y239376D01*
X348847Y238846D01*
X355814Y231879D01*
X356031Y231469D01*
X356031D01*
X356031Y231469D01*
Y223532D01*
X363968D01*
Y224311D01*
X364430Y224503D01*
X366047Y222886D01*
Y217484D01*
Y210004D01*
X368369D01*
Y204996D01*
X366047D01*
Y197484D01*
Y190004D01*
X373953D01*
Y192129D01*
X376260D01*
X376884Y192253D01*
X377413Y192606D01*
X381153Y196346D01*
X381507Y196876D01*
X381631Y197500D01*
Y209004D01*
X381944Y209133D01*
X382749Y209751D01*
X382869Y209907D01*
X383369Y209737D01*
Y190676D01*
X379324Y186631D01*
X365676D01*
X361631Y190676D01*
Y198531D01*
X363968D01*
Y206469D01*
X356031D01*
Y204131D01*
X353620D01*
X353467Y204501D01*
X352830Y205330D01*
X352001Y205966D01*
X351631Y206120D01*
Y223880D01*
X352001Y224033D01*
X352830Y224670D01*
X353467Y225499D01*
X353866Y226464D01*
X354003Y227500D01*
X353866Y228536D01*
X353467Y229501D01*
X352830Y230330D01*
X352001Y230966D01*
X351036Y231366D01*
X350000Y231503D01*
X348964Y231366D01*
X347999Y230966D01*
X347170Y230330D01*
X346533Y229501D01*
X346380Y229131D01*
X343620D01*
X343466Y229501D01*
X342830Y230330D01*
X342001Y230966D01*
X341036Y231366D01*
X340000Y231503D01*
X338964Y231366D01*
X337999Y230966D01*
X337170Y230330D01*
X336533Y229501D01*
X336255Y228830D01*
X335958D01*
X335334Y228705D01*
X334805Y228352D01*
X331449Y224996D01*
X327956D01*
X327765Y225458D01*
X338653Y236347D01*
X339007Y236876D01*
X339131Y237500D01*
Y247500D01*
X339131Y247500D01*
X339007Y248124D01*
X339298Y248590D01*
X340000Y248497D01*
X341036Y248634D01*
X342001Y249033D01*
X342830Y249670D01*
X343466Y250499D01*
X343866Y251464D01*
X344003Y252500D01*
X343866Y253536D01*
X343466Y254501D01*
X342830Y255330D01*
X342001Y255966D01*
X341631Y256120D01*
Y265564D01*
X345547Y269480D01*
X346047Y269299D01*
D02*
G37*
G36*
X258369Y276259D02*
Y274996D01*
X256047D01*
Y272871D01*
X253740D01*
X253116Y272747D01*
X252587Y272394D01*
X248847Y268653D01*
X248493Y268124D01*
X248369Y267500D01*
Y256120D01*
X247999Y255966D01*
X247170Y255330D01*
X246533Y254501D01*
X246134Y253536D01*
X245997Y252500D01*
X246134Y251464D01*
X246533Y250499D01*
X247170Y249670D01*
X247999Y249033D01*
X248964Y248634D01*
X250000Y248497D01*
X251036Y248634D01*
X252001Y249033D01*
X252830Y249670D01*
X253467Y250499D01*
X253866Y251464D01*
X254003Y252500D01*
X253866Y253536D01*
X253467Y254501D01*
X252830Y255330D01*
X252001Y255966D01*
X251631Y256120D01*
Y266824D01*
X254416Y269609D01*
X256047D01*
Y267484D01*
Y260004D01*
X263953D01*
Y262128D01*
X266047D01*
Y260004D01*
X273953D01*
Y260869D01*
X286504D01*
X286633Y260556D01*
X287251Y259751D01*
X287407Y259631D01*
X287237Y259131D01*
X275000D01*
X274376Y259007D01*
X273847Y258653D01*
X271661Y256469D01*
X266032D01*
Y248532D01*
X273969D01*
Y254161D01*
X275676Y255869D01*
X287237D01*
X287407Y255369D01*
X287251Y255249D01*
X286633Y254444D01*
X286245Y253506D01*
X286112Y252500D01*
X286245Y251494D01*
X286374Y251181D01*
X283846Y248654D01*
X283493Y248124D01*
X283369Y247500D01*
Y240000D01*
X283493Y239376D01*
X283846Y238846D01*
X286347Y236347D01*
X286876Y235993D01*
X287291Y235910D01*
X287426Y235383D01*
X287251Y235249D01*
X286633Y234444D01*
X286504Y234131D01*
X270676D01*
X261631Y243176D01*
Y248880D01*
X262001Y249033D01*
X262830Y249670D01*
X263467Y250499D01*
X263866Y251464D01*
X264003Y252500D01*
X263866Y253536D01*
X263467Y254501D01*
X262830Y255330D01*
X262001Y255966D01*
X261036Y256366D01*
X260000Y256503D01*
X258964Y256366D01*
X257999Y255966D01*
X257170Y255330D01*
X256534Y254501D01*
X256134Y253536D01*
X255997Y252500D01*
X256134Y251464D01*
X256534Y250499D01*
X257170Y249670D01*
X257999Y249033D01*
X258369Y248880D01*
Y242500D01*
X258493Y241876D01*
X258846Y241347D01*
X268263Y231930D01*
X268071Y231469D01*
X266032D01*
Y223532D01*
X273969D01*
Y224311D01*
X274430Y224503D01*
X276047Y222886D01*
Y217484D01*
Y210004D01*
X278369D01*
Y204996D01*
X276047D01*
Y197484D01*
Y190004D01*
X283953D01*
Y192129D01*
X286260D01*
X286884Y192253D01*
X287413Y192606D01*
X291154Y196346D01*
X291507Y196876D01*
X291631Y197500D01*
Y209004D01*
X291944Y209133D01*
X292749Y209751D01*
X292869Y209907D01*
X293369Y209737D01*
Y193176D01*
X289324Y189131D01*
X275676D01*
X271631Y193176D01*
Y198531D01*
X273969D01*
Y206469D01*
X266032D01*
Y204131D01*
X263620D01*
X263467Y204501D01*
X262830Y205330D01*
X262001Y205966D01*
X261631Y206120D01*
Y223880D01*
X262001Y224033D01*
X262830Y224670D01*
X263467Y225499D01*
X263866Y226464D01*
X264003Y227500D01*
X263866Y228536D01*
X263467Y229501D01*
X262830Y230330D01*
X262001Y230966D01*
X261036Y231366D01*
X260000Y231503D01*
X258964Y231366D01*
X257999Y230966D01*
X257170Y230330D01*
X256534Y229501D01*
X256380Y229131D01*
X253620D01*
X253467Y229501D01*
X252830Y230330D01*
X252001Y230966D01*
X251036Y231366D01*
X250000Y231503D01*
X248964Y231366D01*
X247999Y230966D01*
X247170Y230330D01*
X246533Y229501D01*
X246380Y229131D01*
X245000D01*
X244376Y229007D01*
X243847Y228654D01*
X241144Y225951D01*
X240790Y225422D01*
X240705Y224996D01*
X237956D01*
X237765Y225458D01*
X246153Y233846D01*
X246507Y234376D01*
X246631Y235000D01*
X246631Y235000D01*
Y246731D01*
X246507Y247356D01*
X246153Y247885D01*
X243953Y250086D01*
Y254996D01*
X241631D01*
Y260004D01*
X243953D01*
Y267484D01*
Y274996D01*
X236047D01*
Y274131D01*
X233496D01*
X233367Y274444D01*
X232749Y275249D01*
X231944Y275867D01*
X231209Y276171D01*
Y276712D01*
X231765Y276943D01*
X232496Y277504D01*
X233057Y278235D01*
X233410Y279086D01*
X233464Y279500D01*
X226536D01*
X226590Y279086D01*
X226943Y278235D01*
X227504Y277504D01*
X228235Y276943D01*
X228791Y276712D01*
Y276171D01*
X228056Y275867D01*
X227251Y275249D01*
X226633Y274444D01*
X226245Y273506D01*
X226112Y272500D01*
X226245Y271494D01*
X226633Y270556D01*
X227251Y269751D01*
X228056Y269133D01*
X228369Y269004D01*
Y265996D01*
X228056Y265867D01*
X227251Y265249D01*
X226633Y264444D01*
X226245Y263506D01*
X226112Y262500D01*
X226245Y261494D01*
X226633Y260556D01*
X227251Y259751D01*
X228056Y259133D01*
X228994Y258745D01*
X230000Y258612D01*
X231006Y258745D01*
X231944Y259133D01*
X232749Y259751D01*
X233367Y260556D01*
X233755Y261494D01*
X233888Y262500D01*
X233755Y263506D01*
X233367Y264444D01*
X232749Y265249D01*
X231944Y265867D01*
X231631Y265996D01*
Y269004D01*
X231944Y269133D01*
X232749Y269751D01*
X233367Y270556D01*
X233496Y270869D01*
X236047D01*
Y267484D01*
Y260004D01*
X238369D01*
Y254996D01*
X236047D01*
Y249413D01*
X235585Y249222D01*
X233626Y251181D01*
X233755Y251494D01*
X233888Y252500D01*
X233755Y253506D01*
X233367Y254444D01*
X232749Y255249D01*
X231944Y255867D01*
X231006Y256255D01*
X230000Y256388D01*
X228994Y256255D01*
X228681Y256126D01*
X223953Y260854D01*
Y267484D01*
Y270740D01*
X220000D01*
Y271240D01*
D01*
Y270740D01*
X216047D01*
Y269998D01*
X215547Y269669D01*
X215153Y269747D01*
X213997D01*
X213953Y269791D01*
Y274996D01*
X206047D01*
Y269413D01*
X205585Y269222D01*
X203854Y270953D01*
Y276354D01*
X196146D01*
Y272871D01*
X183953D01*
Y274996D01*
X176047D01*
Y267484D01*
Y265391D01*
X173953D01*
Y267484D01*
Y274996D01*
X171631D01*
Y276934D01*
X171507Y277559D01*
X171153Y278088D01*
X165035Y284207D01*
X165226Y284669D01*
X249959D01*
X258369Y276259D01*
D02*
G37*
G36*
X466633Y230556D02*
X467251Y229751D01*
X468056Y229133D01*
X468994Y228745D01*
X470000Y228612D01*
X471006Y228745D01*
X471944Y229133D01*
X472749Y229751D01*
X472869Y229907D01*
X473369Y229737D01*
Y225263D01*
X472869Y225093D01*
X472749Y225249D01*
X471944Y225867D01*
X471006Y226255D01*
X470000Y226388D01*
X468994Y226255D01*
X468056Y225867D01*
X467251Y225249D01*
X466633Y224444D01*
X466245Y223506D01*
X466112Y222500D01*
X466245Y221494D01*
X466633Y220556D01*
X467251Y219751D01*
X468056Y219133D01*
X468369Y219004D01*
Y215996D01*
X468056Y215867D01*
X467251Y215249D01*
X466633Y214444D01*
X466245Y213506D01*
X466112Y212500D01*
X466245Y211494D01*
X466633Y210556D01*
X467251Y209751D01*
X468056Y209133D01*
X468369Y209004D01*
Y198176D01*
X465584Y195391D01*
X463953D01*
Y197484D01*
Y204996D01*
X461631D01*
Y210004D01*
X463953D01*
Y217484D01*
Y224996D01*
X458551D01*
X455219Y228328D01*
X454690Y228682D01*
X454066Y228806D01*
X453968D01*
Y230869D01*
X466504D01*
X466633Y230556D01*
D02*
G37*
G36*
X376633D02*
X377251Y229751D01*
X378056Y229133D01*
X378994Y228745D01*
X380000Y228612D01*
X381006Y228745D01*
X381944Y229133D01*
X382749Y229751D01*
X382869Y229907D01*
X383369Y229737D01*
Y225263D01*
X382869Y225093D01*
X382749Y225249D01*
X381944Y225867D01*
X381006Y226255D01*
X380000Y226388D01*
X378994Y226255D01*
X378056Y225867D01*
X377251Y225249D01*
X376633Y224444D01*
X376245Y223506D01*
X376112Y222500D01*
X376245Y221494D01*
X376633Y220556D01*
X377251Y219751D01*
X378056Y219133D01*
X378369Y219004D01*
Y215996D01*
X378056Y215867D01*
X377251Y215249D01*
X376633Y214444D01*
X376245Y213506D01*
X376112Y212500D01*
X376245Y211494D01*
X376633Y210556D01*
X377251Y209751D01*
X378056Y209133D01*
X378369Y209004D01*
Y198176D01*
X375584Y195391D01*
X373953D01*
Y197484D01*
Y204996D01*
X371631D01*
Y210004D01*
X373953D01*
Y217484D01*
Y224996D01*
X368551D01*
X365219Y228328D01*
X364690Y228682D01*
X364066Y228806D01*
X363968D01*
Y230869D01*
X376504D01*
X376633Y230556D01*
D02*
G37*
G36*
X286633D02*
X287251Y229751D01*
X288056Y229133D01*
X288994Y228745D01*
X290000Y228612D01*
X291006Y228745D01*
X291944Y229133D01*
X292749Y229751D01*
X292869Y229907D01*
X293369Y229737D01*
Y225263D01*
X292869Y225093D01*
X292749Y225249D01*
X291944Y225867D01*
X291006Y226255D01*
X290000Y226388D01*
X288994Y226255D01*
X288056Y225867D01*
X287251Y225249D01*
X286633Y224444D01*
X286245Y223506D01*
X286112Y222500D01*
X286245Y221494D01*
X286633Y220556D01*
X287251Y219751D01*
X288056Y219133D01*
X288369Y219004D01*
Y215996D01*
X288056Y215867D01*
X287251Y215249D01*
X286633Y214444D01*
X286245Y213506D01*
X286112Y212500D01*
X286245Y211494D01*
X286633Y210556D01*
X287251Y209751D01*
X288056Y209133D01*
X288369Y209004D01*
Y198176D01*
X285584Y195391D01*
X283953D01*
Y197484D01*
Y204996D01*
X281631D01*
Y210004D01*
X283953D01*
Y217484D01*
Y224996D01*
X278551D01*
X275219Y228328D01*
X274690Y228682D01*
X274066Y228806D01*
X273969D01*
Y230869D01*
X286504D01*
X286633Y230556D01*
D02*
G37*
G36*
X196633D02*
X197251Y229751D01*
X198056Y229133D01*
X198994Y228745D01*
X200000Y228612D01*
X201006Y228745D01*
X201944Y229133D01*
X202749Y229751D01*
X202869Y229907D01*
X203369Y229737D01*
Y225263D01*
X202869Y225093D01*
X202749Y225249D01*
X201944Y225867D01*
X201006Y226255D01*
X200000Y226388D01*
X198994Y226255D01*
X198056Y225867D01*
X197251Y225249D01*
X196633Y224444D01*
X196245Y223506D01*
X196112Y222500D01*
X196245Y221494D01*
X196633Y220556D01*
X197251Y219751D01*
X198056Y219133D01*
X198369Y219004D01*
Y215996D01*
X198056Y215867D01*
X197251Y215249D01*
X196633Y214444D01*
X196245Y213506D01*
X196112Y212500D01*
X196245Y211494D01*
X196633Y210556D01*
X197251Y209751D01*
X198056Y209133D01*
X198369Y209004D01*
Y198176D01*
X195584Y195391D01*
X193953D01*
Y197484D01*
Y204996D01*
X191631D01*
Y210004D01*
X193953D01*
Y217484D01*
Y224996D01*
X188551D01*
X185219Y228328D01*
X184690Y228682D01*
X184066Y228806D01*
X183968D01*
Y230869D01*
X196504D01*
X196633Y230556D01*
D02*
G37*
G36*
X126047Y246356D02*
Y240004D01*
X128369D01*
Y237500D01*
X128493Y236876D01*
X128847Y236347D01*
X133846Y231347D01*
X134376Y230993D01*
X135000Y230869D01*
X136504D01*
X136633Y230556D01*
X137251Y229751D01*
X138056Y229133D01*
X138994Y228745D01*
X140000Y228612D01*
X141006Y228745D01*
X141319Y228874D01*
X143369Y226824D01*
Y225263D01*
X142869Y225093D01*
X142749Y225249D01*
X141944Y225867D01*
X141006Y226255D01*
X140000Y226388D01*
X138994Y226255D01*
X138056Y225867D01*
X137251Y225249D01*
X136633Y224444D01*
X136245Y223506D01*
X136112Y222500D01*
X136245Y221494D01*
X136633Y220556D01*
X137251Y219751D01*
X138056Y219133D01*
X138369Y219004D01*
Y215996D01*
X138056Y215867D01*
X137251Y215249D01*
X136633Y214444D01*
X136245Y213506D01*
X136112Y212500D01*
X136245Y211494D01*
X136374Y211181D01*
X131144Y205951D01*
X130790Y205421D01*
X130705Y204996D01*
X126913D01*
X126722Y205458D01*
X129820Y208557D01*
X130174Y209086D01*
X130298Y209710D01*
Y210004D01*
X133953D01*
Y217484D01*
Y224996D01*
X126047D01*
Y222871D01*
X123953D01*
Y224996D01*
X121631D01*
Y240004D01*
X123953D01*
Y245209D01*
X124092Y245348D01*
X124240Y245377D01*
X124769Y245731D01*
X125585Y246547D01*
X126047Y246356D01*
D02*
G37*
G36*
Y217484D02*
Y210004D01*
X126047D01*
X126225Y209575D01*
X121646Y204996D01*
X116913D01*
X116722Y205458D01*
X119820Y208557D01*
X120174Y209086D01*
X120298Y209710D01*
Y210004D01*
X123953D01*
Y217484D01*
Y219609D01*
X126047D01*
Y217484D01*
D02*
G37*
G36*
X143369Y209737D02*
Y206719D01*
X141646Y204996D01*
X136047D01*
Y197484D01*
Y192311D01*
X134415Y190679D01*
X133953Y190870D01*
Y197484D01*
Y204146D01*
X138681Y208874D01*
X138994Y208745D01*
X140000Y208612D01*
X141006Y208745D01*
X141944Y209133D01*
X142749Y209751D01*
X142869Y209907D01*
X143369Y209737D01*
D02*
G37*
G36*
X107251Y219751D02*
X108056Y219133D01*
X108369Y219004D01*
Y215996D01*
X108056Y215867D01*
X107251Y215249D01*
X106633Y214444D01*
X106245Y213506D01*
X106112Y212500D01*
X106245Y211494D01*
X106374Y211181D01*
X101144Y205951D01*
X100790Y205421D01*
X100705Y204996D01*
X96913D01*
X96722Y205458D01*
X99820Y208557D01*
X100174Y209086D01*
X100298Y209710D01*
Y210004D01*
X103953D01*
Y215209D01*
X104092Y215348D01*
X104240Y215377D01*
X104769Y215731D01*
X106154Y217115D01*
X106507Y217645D01*
X106631Y218269D01*
Y219737D01*
X107131Y219907D01*
X107251Y219751D01*
D02*
G37*
G36*
X318056Y219133D02*
X318369Y219004D01*
Y215996D01*
X318056Y215867D01*
X317251Y215249D01*
X316633Y214444D01*
X316245Y213506D01*
X316112Y212500D01*
X316245Y211494D01*
X316633Y210556D01*
X317251Y209751D01*
X318056Y209133D01*
X318994Y208745D01*
X320000Y208612D01*
X321006Y208745D01*
X321944Y209133D01*
X322749Y209751D01*
X322869Y209907D01*
X323369Y209737D01*
Y204996D01*
X316047D01*
Y202871D01*
X313953D01*
Y204996D01*
X311631D01*
Y210004D01*
X313953D01*
Y217484D01*
Y219609D01*
X317436D01*
X318056Y219133D01*
D02*
G37*
G36*
X226633Y220556D02*
X227251Y219751D01*
X228056Y219133D01*
X228369Y219004D01*
Y215996D01*
X228056Y215867D01*
X227251Y215249D01*
X226633Y214444D01*
X226245Y213506D01*
X226112Y212500D01*
X226245Y211494D01*
X226633Y210556D01*
X227251Y209751D01*
X228056Y209133D01*
X228994Y208745D01*
X230000Y208612D01*
X231006Y208745D01*
X231944Y209133D01*
X232749Y209751D01*
X232869Y209907D01*
X233369Y209737D01*
Y204996D01*
X226047D01*
Y202871D01*
X223953D01*
Y204996D01*
X221631D01*
Y210004D01*
X223953D01*
Y217484D01*
Y220869D01*
X226504D01*
X226633Y220556D01*
D02*
G37*
G36*
X408056Y219133D02*
X408369Y219004D01*
Y215996D01*
X408056Y215867D01*
X407251Y215249D01*
X406633Y214444D01*
X406245Y213506D01*
X406112Y212500D01*
X406245Y211494D01*
X406633Y210556D01*
X407251Y209751D01*
X408056Y209133D01*
X408994Y208745D01*
X410000Y208612D01*
X411006Y208745D01*
X411944Y209133D01*
X412749Y209751D01*
X412869Y209907D01*
X413369Y209737D01*
Y204996D01*
X406047D01*
Y201631D01*
X403953D01*
Y204996D01*
X401631D01*
Y210004D01*
X403953D01*
Y217484D01*
Y219609D01*
X407436D01*
X408056Y219133D01*
D02*
G37*
G36*
X488369Y166824D02*
Y164996D01*
X486047D01*
Y157484D01*
Y155391D01*
X483953D01*
Y157484D01*
Y164996D01*
X481631D01*
Y167500D01*
X481507Y168124D01*
X481153Y168654D01*
X476900Y172907D01*
X477092Y173369D01*
X481824D01*
X488369Y166824D01*
D02*
G37*
G36*
X478369D02*
Y164996D01*
X476047D01*
Y157484D01*
Y155391D01*
X473953D01*
Y157484D01*
Y164996D01*
X471631D01*
Y167500D01*
X471507Y168124D01*
X471153Y168654D01*
X469400Y170407D01*
X469592Y170869D01*
X474324D01*
X478369Y166824D01*
D02*
G37*
G36*
X515869Y149324D02*
Y138176D01*
X514415Y136722D01*
X513953Y136913D01*
Y144996D01*
X506047D01*
Y144131D01*
X503496D01*
X503367Y144444D01*
X502749Y145249D01*
X501944Y145867D01*
X501006Y146255D01*
X500000Y146388D01*
X498994Y146255D01*
X498056Y145867D01*
X497251Y145249D01*
X496633Y144444D01*
X496245Y143506D01*
X496161Y142871D01*
X493953D01*
Y144996D01*
X486047D01*
Y138644D01*
X485585Y138453D01*
X483953Y140086D01*
Y144996D01*
X481538D01*
Y145093D01*
X481414Y145717D01*
X481061Y146247D01*
X478654Y148653D01*
X478124Y149007D01*
X477500Y149131D01*
X468176D01*
X467765Y149542D01*
X467956Y150004D01*
X473953D01*
Y152129D01*
X476047D01*
Y150004D01*
X483953D01*
Y152129D01*
X486047D01*
Y150004D01*
X493953D01*
Y152129D01*
X496047D01*
Y150004D01*
X503953D01*
Y152129D01*
X513064D01*
X515869Y149324D01*
D02*
G37*
G36*
X203339Y146854D02*
X203296Y146354D01*
X196146D01*
Y144131D01*
X170000D01*
X170000Y144131D01*
X169376Y144007D01*
X168846Y143654D01*
X158846Y133653D01*
X158493Y133124D01*
X158369Y132500D01*
Y126120D01*
X157999Y125967D01*
X157170Y125330D01*
X157105Y125246D01*
X156631Y125407D01*
Y134324D01*
X170676Y148369D01*
X201824D01*
X203339Y146854D01*
D02*
G37*
G36*
X70869Y271408D02*
Y228740D01*
X70993Y228116D01*
X71346Y227587D01*
X76047Y222886D01*
Y217484D01*
Y210004D01*
X78369D01*
Y180141D01*
X78493Y179517D01*
X78847Y178988D01*
X98488Y159346D01*
X99017Y158993D01*
X99641Y158869D01*
X123354D01*
X123562Y158369D01*
X113946Y148753D01*
X113593Y148224D01*
X113469Y147600D01*
Y146354D01*
X106146D01*
Y144131D01*
X80000D01*
X80000Y144131D01*
X79376Y144007D01*
X78847Y143654D01*
X68846Y133653D01*
X68493Y133124D01*
X68369Y132500D01*
Y126120D01*
X67999Y125967D01*
X67170Y125330D01*
X66533Y124501D01*
X66134Y123536D01*
X65997Y122500D01*
X66134Y121464D01*
X66533Y120499D01*
X67170Y119670D01*
X67999Y119034D01*
X68369Y118880D01*
Y94996D01*
X66047D01*
Y90086D01*
X64131Y88170D01*
X63631Y88377D01*
Y264824D01*
X70407Y271600D01*
X70869Y271408D01*
D02*
G37*
G36*
X196146Y138646D02*
X203369D01*
Y135263D01*
X202869Y135093D01*
X202749Y135249D01*
X201944Y135867D01*
X201006Y136255D01*
X200000Y136388D01*
X198994Y136255D01*
X198056Y135867D01*
X197251Y135249D01*
X196633Y134444D01*
X196504Y134131D01*
X175000D01*
X174376Y134007D01*
X173846Y133653D01*
X168846Y128654D01*
X168493Y128124D01*
X168369Y127500D01*
Y126120D01*
X167999Y125967D01*
X167170Y125330D01*
X166534Y124501D01*
X166134Y123536D01*
X165997Y122500D01*
X166134Y121464D01*
X166534Y120499D01*
X167170Y119670D01*
X167999Y119034D01*
X168369Y118880D01*
Y101120D01*
X167999Y100967D01*
X167170Y100330D01*
X166534Y99501D01*
X166134Y98536D01*
X165997Y97500D01*
X166134Y96464D01*
X166534Y95499D01*
X167170Y94670D01*
X167999Y94033D01*
X168964Y93634D01*
X170000Y93497D01*
X171036Y93634D01*
X172001Y94033D01*
X172830Y94670D01*
X173467Y95499D01*
X173620Y95869D01*
X176031D01*
Y93532D01*
X178369D01*
Y87500D01*
X178493Y86876D01*
X178847Y86347D01*
X182587Y82606D01*
X183116Y82253D01*
X183740Y82129D01*
X186047D01*
Y80004D01*
X192044D01*
X192235Y79542D01*
X189324Y76631D01*
X167500D01*
X166876Y76507D01*
X166347Y76153D01*
X164415Y74222D01*
X163953Y74413D01*
Y74996D01*
X161631D01*
Y93880D01*
X162001Y94033D01*
X162830Y94670D01*
X163467Y95499D01*
X163866Y96464D01*
X164003Y97500D01*
X163866Y98536D01*
X163467Y99501D01*
X162830Y100330D01*
X162001Y100967D01*
X161631Y101120D01*
Y118880D01*
X162001Y119034D01*
X162830Y119670D01*
X163467Y120499D01*
X163866Y121464D01*
X164003Y122500D01*
X163866Y123536D01*
X163467Y124501D01*
X162830Y125330D01*
X162001Y125967D01*
X161631Y126120D01*
Y131824D01*
X170676Y140869D01*
X196146D01*
Y138646D01*
D02*
G37*
G36*
X106146D02*
X113469D01*
Y135132D01*
X112969Y134963D01*
X112749Y135249D01*
X111944Y135867D01*
X111006Y136255D01*
X110000Y136388D01*
X108994Y136255D01*
X108056Y135867D01*
X107251Y135249D01*
X106633Y134444D01*
X106504Y134131D01*
X85000D01*
X84376Y134007D01*
X83846Y133653D01*
X78847Y128654D01*
X78493Y128124D01*
X78369Y127500D01*
Y126120D01*
X77999Y125967D01*
X77170Y125330D01*
X76534Y124501D01*
X76134Y123536D01*
X75997Y122500D01*
X76134Y121464D01*
X76534Y120499D01*
X77170Y119670D01*
X77999Y119034D01*
X78369Y118880D01*
Y94996D01*
X76047D01*
Y89791D01*
X75908Y89652D01*
X75760Y89623D01*
X75231Y89269D01*
X74477Y88516D01*
X73953D01*
Y94996D01*
X71631D01*
Y118880D01*
X72001Y119034D01*
X72830Y119670D01*
X73466Y120499D01*
X73866Y121464D01*
X74003Y122500D01*
X73866Y123536D01*
X73466Y124501D01*
X72830Y125330D01*
X72001Y125967D01*
X71631Y126120D01*
Y131824D01*
X80676Y140869D01*
X106146D01*
Y138646D01*
D02*
G37*
G36*
X477235Y145458D02*
X477044Y144996D01*
X476047D01*
Y137484D01*
Y134131D01*
X473496D01*
X473367Y134444D01*
X472749Y135249D01*
X471944Y135867D01*
X471631Y135996D01*
Y138646D01*
X473854D01*
Y145869D01*
X476824D01*
X477235Y145458D01*
D02*
G37*
G36*
X488369Y128176D02*
X484324Y124131D01*
X473496D01*
X473367Y124444D01*
X472749Y125249D01*
X472593Y125369D01*
X472763Y125869D01*
X482500D01*
X483124Y125993D01*
X483653Y126347D01*
X486154Y128847D01*
X486507Y129376D01*
X486631Y130000D01*
Y130004D01*
X488369D01*
Y128176D01*
D02*
G37*
G36*
X313644Y92549D02*
Y43037D01*
X313252Y42874D01*
X312414Y42231D01*
X312231Y41993D01*
X311731Y42163D01*
Y43900D01*
X311607Y44524D01*
X311253Y45054D01*
X297654Y58653D01*
X297124Y59007D01*
X296500Y59131D01*
X198135D01*
X197944Y59593D01*
X198354Y60004D01*
X203953D01*
Y62129D01*
X206047D01*
Y60004D01*
X213953D01*
Y67484D01*
Y74996D01*
X211631D01*
Y80004D01*
X213953D01*
Y87484D01*
Y94996D01*
X206047D01*
Y94131D01*
X203496D01*
X203367Y94444D01*
X202749Y95249D01*
X201944Y95867D01*
X201006Y96255D01*
X200000Y96388D01*
X198994Y96255D01*
X198056Y95867D01*
X197251Y95249D01*
X196633Y94444D01*
X196245Y93506D01*
X196112Y92500D01*
X196245Y91494D01*
X196374Y91181D01*
X194415Y89222D01*
X193953Y89413D01*
Y94996D01*
X191631D01*
Y96824D01*
X195676Y100869D01*
X196504D01*
X196633Y100556D01*
X197251Y99751D01*
X198056Y99133D01*
X198994Y98745D01*
X200000Y98612D01*
X201006Y98745D01*
X201944Y99133D01*
X202749Y99751D01*
X203367Y100556D01*
X203755Y101494D01*
X203888Y102500D01*
X203755Y103506D01*
X203626Y103819D01*
X205585Y105778D01*
X206047Y105587D01*
Y105004D01*
X213953D01*
Y112484D01*
Y115740D01*
X210000D01*
X206047D01*
Y112484D01*
Y110572D01*
X205950Y110082D01*
X205326Y109957D01*
X204797Y109604D01*
X201319Y106126D01*
X201006Y106255D01*
X200000Y106388D01*
X198994Y106255D01*
X198056Y105867D01*
X197251Y105249D01*
X196633Y104444D01*
X196504Y104131D01*
X195000D01*
X194376Y104007D01*
X193846Y103654D01*
X188847Y98654D01*
X188493Y98124D01*
X188369Y97500D01*
Y94996D01*
X186047D01*
Y87484D01*
Y85391D01*
X184416D01*
X181631Y88176D01*
Y93532D01*
X183968D01*
Y101469D01*
X176031D01*
Y99131D01*
X173620D01*
X173467Y99501D01*
X172830Y100330D01*
X172001Y100967D01*
X171631Y101120D01*
Y118880D01*
X172001Y119034D01*
X172830Y119670D01*
X173467Y120499D01*
X173866Y121464D01*
X174003Y122500D01*
X173866Y123536D01*
X173467Y124501D01*
X172830Y125330D01*
X172001Y125967D01*
X171631Y126120D01*
Y126824D01*
X175676Y130869D01*
X196504D01*
X196633Y130556D01*
X197251Y129751D01*
X198056Y129133D01*
X198994Y128745D01*
X200000Y128612D01*
X200689Y128703D01*
X200922Y128229D01*
X199688Y126995D01*
X199334Y126465D01*
X199300Y126295D01*
X198994Y126255D01*
X198056Y125867D01*
X197251Y125249D01*
X196633Y124444D01*
X196245Y123506D01*
X196112Y122500D01*
X196245Y121494D01*
X196633Y120556D01*
X197251Y119751D01*
X198056Y119133D01*
X198994Y118745D01*
X200000Y118612D01*
X201006Y118745D01*
X201944Y119133D01*
X202749Y119751D01*
X203367Y120556D01*
X203496Y120869D01*
X226504D01*
X226633Y120556D01*
X227251Y119751D01*
X228056Y119133D01*
X228994Y118745D01*
X230000Y118612D01*
X231006Y118745D01*
X231944Y119133D01*
X232749Y119751D01*
X233367Y120556D01*
X233755Y121494D01*
X233888Y122500D01*
X233755Y123506D01*
X233367Y124444D01*
X232749Y125249D01*
X231944Y125867D01*
X231006Y126255D01*
X230000Y126388D01*
X228994Y126255D01*
X228056Y125867D01*
X227251Y125249D01*
X226633Y124444D01*
X226504Y124131D01*
X203496D01*
X203367Y124444D01*
X202749Y125249D01*
X202737Y125430D01*
X206153Y128847D01*
X206507Y129376D01*
X206631Y130000D01*
Y147500D01*
X206507Y148124D01*
X206153Y148653D01*
X203654Y151154D01*
X203124Y151507D01*
X202500Y151631D01*
X170000D01*
X169376Y151507D01*
X168846Y151154D01*
X153847Y136153D01*
X153493Y135624D01*
X153369Y135000D01*
Y119996D01*
X150500D01*
Y116240D01*
X150000D01*
Y115740D01*
X146047D01*
Y112484D01*
Y110799D01*
X144585D01*
X143771Y111613D01*
X143888Y112500D01*
X143755Y113506D01*
X143367Y114444D01*
X142749Y115249D01*
X141944Y115867D01*
X141006Y116255D01*
X140000Y116388D01*
X138994Y116255D01*
X138056Y115867D01*
X137251Y115249D01*
X136633Y114444D01*
X136245Y113506D01*
X136112Y112500D01*
X136245Y111494D01*
X136633Y110556D01*
X137251Y109751D01*
X138056Y109133D01*
X138994Y108745D01*
X140000Y108612D01*
X140887Y108729D01*
X142298Y107318D01*
X142960Y106876D01*
X143740Y106721D01*
X146047D01*
Y105004D01*
X153369D01*
Y103176D01*
X148846Y98654D01*
X148493Y98124D01*
X148369Y97500D01*
Y94996D01*
X146047D01*
Y87484D01*
Y85391D01*
X142563D01*
X141944Y85867D01*
X141006Y86255D01*
X140000Y86388D01*
X138994Y86255D01*
X138056Y85867D01*
X137251Y85249D01*
X136633Y84444D01*
X136245Y83506D01*
X136112Y82500D01*
X136245Y81494D01*
X136633Y80556D01*
X137251Y79751D01*
X138056Y79133D01*
X138369Y79004D01*
Y74996D01*
X136047D01*
Y66913D01*
X135585Y66722D01*
X134131Y68176D01*
Y84324D01*
X138681Y88874D01*
X138994Y88745D01*
X140000Y88612D01*
X141006Y88745D01*
X141944Y89133D01*
X142749Y89751D01*
X143367Y90556D01*
X143755Y91494D01*
X143888Y92500D01*
X143755Y93506D01*
X143367Y94444D01*
X142749Y95249D01*
X141944Y95867D01*
X141006Y96255D01*
X140000Y96388D01*
X138994Y96255D01*
X138681Y96126D01*
X131631Y103176D01*
Y105004D01*
X133953D01*
Y112484D01*
Y119996D01*
X126047D01*
Y117871D01*
X123953D01*
Y119996D01*
X121631D01*
Y130004D01*
X123953D01*
Y137484D01*
Y140740D01*
X120000D01*
Y141240D01*
X119500D01*
Y144996D01*
X116731D01*
Y146924D01*
X125676Y155869D01*
X250324D01*
X313644Y92549D01*
D02*
G37*
G36*
X467407Y125369D02*
X467251Y125249D01*
X466633Y124444D01*
X466245Y123506D01*
X466112Y122500D01*
X466245Y121494D01*
X466633Y120556D01*
X467251Y119751D01*
X468056Y119133D01*
X468994Y118745D01*
X470000Y118612D01*
X471006Y118745D01*
X471319Y118874D01*
X473369Y116824D01*
Y115263D01*
X472869Y115093D01*
X472749Y115249D01*
X471944Y115867D01*
X471006Y116255D01*
X470000Y116388D01*
X469113Y116271D01*
X467702Y117682D01*
X467040Y118124D01*
X466260Y118279D01*
X463953D01*
Y119996D01*
X456631D01*
Y121824D01*
X460676Y125869D01*
X467237D01*
X467407Y125369D01*
D02*
G37*
G36*
X106633Y130556D02*
X107251Y129751D01*
X108056Y129133D01*
X108994Y128745D01*
X110000Y128612D01*
X111006Y128745D01*
X111944Y129133D01*
X112749Y129751D01*
X112969Y130037D01*
X113469Y129868D01*
Y128276D01*
X111319Y126126D01*
X111006Y126255D01*
X110000Y126388D01*
X108994Y126255D01*
X108056Y125867D01*
X107251Y125249D01*
X106633Y124444D01*
X106245Y123506D01*
X106112Y122500D01*
X106245Y121494D01*
X106633Y120556D01*
X107251Y119751D01*
X108056Y119133D01*
X108994Y118745D01*
X110000Y118612D01*
X111006Y118745D01*
X111944Y119133D01*
X112749Y119751D01*
X113367Y120556D01*
X113755Y121494D01*
X113888Y122500D01*
X113755Y123506D01*
X113626Y123819D01*
X116253Y126446D01*
X116607Y126976D01*
X116731Y127600D01*
Y130004D01*
X118369D01*
Y119996D01*
X116047D01*
Y112484D01*
Y105004D01*
X118369D01*
Y102500D01*
X118493Y101876D01*
X118846Y101347D01*
X123369Y96824D01*
Y94996D01*
X116047D01*
Y92871D01*
X113839D01*
X113755Y93506D01*
X113367Y94444D01*
X112749Y95249D01*
X111944Y95867D01*
X111006Y96255D01*
X110000Y96388D01*
X108994Y96255D01*
X108056Y95867D01*
X107251Y95249D01*
X106633Y94444D01*
X106245Y93506D01*
X106161Y92871D01*
X103953D01*
Y94996D01*
X96047D01*
Y87484D01*
Y80854D01*
X94324Y79131D01*
X68176D01*
X67765Y79542D01*
X67956Y80004D01*
X73953D01*
Y85209D01*
X73997Y85253D01*
X75153D01*
X75547Y85331D01*
X76047Y85002D01*
Y80004D01*
X83953D01*
Y85209D01*
X83997Y85253D01*
X85153D01*
X85547Y85331D01*
X86047Y85002D01*
Y84260D01*
X93953D01*
Y87484D01*
Y94146D01*
X100676Y100869D01*
X106504D01*
X106633Y100556D01*
X107251Y99751D01*
X108056Y99133D01*
X108994Y98745D01*
X110000Y98612D01*
X111006Y98745D01*
X111944Y99133D01*
X112749Y99751D01*
X113367Y100556D01*
X113755Y101494D01*
X113888Y102500D01*
X113755Y103506D01*
X113367Y104444D01*
X112749Y105249D01*
X111944Y105867D01*
X111006Y106255D01*
X110000Y106388D01*
X108994Y106255D01*
X108056Y105867D01*
X107251Y105249D01*
X106633Y104444D01*
X106504Y104131D01*
X100000D01*
X99376Y104007D01*
X98847Y103654D01*
X91144Y95951D01*
X90790Y95421D01*
X90705Y94996D01*
X86047D01*
Y89791D01*
X85908Y89652D01*
X85760Y89623D01*
X85231Y89269D01*
X84477Y88516D01*
X83953D01*
Y94996D01*
X81631D01*
Y118880D01*
X82001Y119034D01*
X82830Y119670D01*
X83467Y120499D01*
X83866Y121464D01*
X84003Y122500D01*
X83866Y123536D01*
X83467Y124501D01*
X82830Y125330D01*
X82001Y125967D01*
X81631Y126120D01*
Y126824D01*
X85676Y130869D01*
X106504D01*
X106633Y130556D01*
D02*
G37*
G36*
X206047Y87484D02*
Y84131D01*
X203496D01*
X203367Y84444D01*
X202749Y85249D01*
X201944Y85867D01*
X201006Y86255D01*
X200000Y86388D01*
X198994Y86255D01*
X198056Y85867D01*
X197251Y85249D01*
X197131Y85093D01*
X196631Y85263D01*
Y86824D01*
X198681Y88874D01*
X198994Y88745D01*
X200000Y88612D01*
X201006Y88745D01*
X201944Y89133D01*
X202749Y89751D01*
X203367Y90556D01*
X203496Y90869D01*
X206047D01*
Y87484D01*
D02*
G37*
G36*
X126047Y112484D02*
Y105004D01*
X128369D01*
Y102500D01*
X128493Y101876D01*
X128847Y101347D01*
X136374Y93819D01*
X136245Y93506D01*
X136112Y92500D01*
X136245Y91494D01*
X136374Y91181D01*
X131346Y86154D01*
X130993Y85624D01*
X130869Y85000D01*
Y67500D01*
X130993Y66876D01*
X131346Y66347D01*
X134797Y62896D01*
X135326Y62543D01*
X135950Y62418D01*
X136047Y61928D01*
Y60004D01*
X143953D01*
Y64391D01*
X144040Y64409D01*
X144569Y64762D01*
X145585Y65778D01*
X146047Y65587D01*
Y60004D01*
X151449D01*
X154260Y57193D01*
X154068Y56731D01*
X73576D01*
X63631Y66676D01*
Y78355D01*
X64131Y78562D01*
X66347Y76346D01*
X66876Y75993D01*
X67500Y75869D01*
X95000D01*
X95624Y75993D01*
X96153Y76346D01*
X98856Y79049D01*
X99210Y79579D01*
X99295Y80004D01*
X103953D01*
Y87484D01*
Y89609D01*
X107437D01*
X108056Y89133D01*
X108994Y88745D01*
X110000Y88612D01*
X111006Y88745D01*
X111944Y89133D01*
X112564Y89609D01*
X116047D01*
Y87484D01*
Y84131D01*
X113496D01*
X113367Y84444D01*
X112749Y85249D01*
X111944Y85867D01*
X111006Y86255D01*
X110000Y86388D01*
X108994Y86255D01*
X108056Y85867D01*
X107251Y85249D01*
X106633Y84444D01*
X106245Y83506D01*
X106112Y82500D01*
X106245Y81494D01*
X106633Y80556D01*
X107251Y79751D01*
X108056Y79133D01*
X108994Y78745D01*
X110000Y78612D01*
X111006Y78745D01*
X111944Y79133D01*
X112749Y79751D01*
X113367Y80556D01*
X113496Y80869D01*
X116047D01*
Y80004D01*
X123953D01*
Y85209D01*
X124092Y85348D01*
X124240Y85377D01*
X124769Y85731D01*
X126154Y87115D01*
X126507Y87644D01*
X126631Y88269D01*
Y97500D01*
X126507Y98124D01*
X126154Y98654D01*
X121631Y103176D01*
Y105004D01*
X123953D01*
Y112484D01*
Y114609D01*
X126047D01*
Y112484D01*
D02*
G37*
G36*
X157170Y119670D02*
X157999Y119034D01*
X158369Y118880D01*
Y101120D01*
X157999Y100967D01*
X157170Y100330D01*
X156534Y99501D01*
X156134Y98536D01*
X155997Y97500D01*
X156134Y96464D01*
X156534Y95499D01*
X157170Y94670D01*
X157999Y94033D01*
X158369Y93880D01*
Y74996D01*
X156047D01*
Y67484D01*
Y60673D01*
X155585Y60482D01*
X153953Y62114D01*
Y67484D01*
Y72861D01*
X153960Y72872D01*
X154084Y73496D01*
X153960Y74120D01*
X153953Y74131D01*
Y74996D01*
X153088D01*
X153077Y75003D01*
X152453Y75127D01*
X151829Y75003D01*
X151818Y74996D01*
X146047D01*
Y70609D01*
X145960Y70591D01*
X145431Y70238D01*
X144415Y69222D01*
X143953Y69413D01*
Y74996D01*
X141631D01*
Y79004D01*
X141944Y79133D01*
X142749Y79751D01*
X143367Y80556D01*
X143755Y81494D01*
X143839Y82129D01*
X146047D01*
Y80004D01*
X153953D01*
Y87484D01*
Y94996D01*
X151631D01*
Y96824D01*
X156154Y101347D01*
X156507Y101876D01*
X156631Y102500D01*
Y119593D01*
X157105Y119754D01*
X157170Y119670D01*
D02*
G37*
G36*
X206047Y80004D02*
X208369D01*
Y74996D01*
X206047D01*
Y67484D01*
Y65391D01*
X203953D01*
Y67484D01*
Y70740D01*
X200000D01*
X196047D01*
Y67484D01*
Y62311D01*
X195368Y61631D01*
X175676D01*
X174161Y63146D01*
X174204Y63646D01*
X176354D01*
Y71354D01*
X168646D01*
Y63646D01*
X170869D01*
Y62500D01*
X170993Y61876D01*
X171346Y61347D01*
X173100Y59593D01*
X172908Y59131D01*
X156936D01*
X156525Y59542D01*
X156716Y60004D01*
X163953D01*
Y64391D01*
X164040Y64409D01*
X164569Y64762D01*
X166154Y66347D01*
X166507Y66876D01*
X166631Y67500D01*
Y71824D01*
X168176Y73369D01*
X190000D01*
X190624Y73493D01*
X191154Y73847D01*
X196153Y78847D01*
X196507Y79376D01*
X196590Y79791D01*
X197117Y79926D01*
X197251Y79751D01*
X198056Y79133D01*
X198994Y78745D01*
X200000Y78612D01*
X201006Y78745D01*
X201944Y79133D01*
X202749Y79751D01*
X203367Y80556D01*
X203496Y80869D01*
X206047D01*
Y80004D01*
D02*
G37*
G36*
X308469Y43224D02*
Y42581D01*
X307969Y42360D01*
X307299Y42874D01*
X306323Y43279D01*
X305276Y43417D01*
X304228Y43279D01*
X303836Y43116D01*
X291546Y55407D01*
X291737Y55869D01*
X295824D01*
X308469Y43224D01*
D02*
G37*
%LPC*%
G36*
X140500Y256322D02*
Y253000D01*
X143822D01*
X143755Y253506D01*
X143367Y254444D01*
X142749Y255249D01*
X141944Y255867D01*
X141006Y256255D01*
X140500Y256322D01*
D02*
G37*
G36*
X193953Y254996D02*
X190500D01*
Y251740D01*
X193953D01*
Y254996D01*
D02*
G37*
G36*
X133953D02*
X130500D01*
Y251740D01*
X133953D01*
Y254996D01*
D02*
G37*
G36*
X153953D02*
X150500D01*
Y251740D01*
X153953D01*
Y254996D01*
D02*
G37*
G36*
X189500D02*
X186047D01*
Y251740D01*
X189500D01*
Y254996D01*
D02*
G37*
G36*
X149500D02*
X146047D01*
Y251740D01*
X149500D01*
Y254996D01*
D02*
G37*
G36*
X143822Y252000D02*
X140500D01*
Y248678D01*
X141006Y248745D01*
X141944Y249133D01*
X142749Y249751D01*
X143367Y250556D01*
X143755Y251494D01*
X143822Y252000D01*
D02*
G37*
G36*
X139500D02*
X136178D01*
X136245Y251494D01*
X136633Y250556D01*
X137251Y249751D01*
X138056Y249133D01*
X138994Y248745D01*
X139500Y248678D01*
Y252000D01*
D02*
G37*
G36*
X153953Y250740D02*
X150000D01*
X146047D01*
Y247484D01*
Y245799D01*
X142263D01*
X142080Y245762D01*
X141944Y245867D01*
X141006Y246255D01*
X140000Y246388D01*
X138994Y246255D01*
X138056Y245867D01*
X137251Y245249D01*
X136633Y244444D01*
X136245Y243506D01*
X136112Y242500D01*
X136245Y241494D01*
X136633Y240556D01*
X137251Y239751D01*
X138056Y239133D01*
X138994Y238745D01*
X140000Y238612D01*
X141006Y238745D01*
X141944Y239133D01*
X142749Y239751D01*
X143367Y240556D01*
X143755Y241494D01*
X143785Y241721D01*
X146047D01*
Y240004D01*
X153953D01*
Y247484D01*
Y250740D01*
D02*
G37*
G36*
X320500Y283464D02*
Y280500D01*
X323464D01*
X323410Y280914D01*
X323057Y281765D01*
X322496Y282496D01*
X321765Y283057D01*
X320914Y283410D01*
X320500Y283464D01*
D02*
G37*
G36*
X319500D02*
X319086Y283410D01*
X318235Y283057D01*
X317504Y282496D01*
X316943Y281765D01*
X316590Y280914D01*
X316536Y280500D01*
X319500D01*
Y283464D01*
D02*
G37*
G36*
X313953Y274996D02*
X310500D01*
Y271740D01*
X313953D01*
Y274996D01*
D02*
G37*
G36*
X309500D02*
X306047D01*
Y271740D01*
X309500D01*
Y274996D01*
D02*
G37*
G36*
X483953Y254996D02*
X480500D01*
Y251740D01*
X483953D01*
Y254996D01*
D02*
G37*
G36*
X479500D02*
X476047D01*
Y251740D01*
X479500D01*
Y254996D01*
D02*
G37*
G36*
X489500D02*
X486047D01*
Y251740D01*
X489500D01*
Y254996D01*
D02*
G37*
G36*
X513953Y243260D02*
X510500D01*
Y240004D01*
X513953D01*
Y243260D01*
D02*
G37*
G36*
X500000Y226388D02*
X498994Y226255D01*
X498056Y225867D01*
X497251Y225249D01*
X496633Y224444D01*
X496245Y223506D01*
X496161Y222871D01*
X493953D01*
Y224996D01*
X486047D01*
Y217484D01*
Y210004D01*
X488369D01*
Y204996D01*
X486047D01*
Y197484D01*
Y190004D01*
X488369D01*
Y186354D01*
X486146D01*
Y178646D01*
X493854D01*
Y186354D01*
X491631D01*
Y190004D01*
X493953D01*
Y197484D01*
Y199609D01*
X496047D01*
Y197484D01*
Y194260D01*
X503953D01*
Y197484D01*
Y204996D01*
X496047D01*
Y202871D01*
X493953D01*
Y204996D01*
X491631D01*
Y210004D01*
X493953D01*
Y217484D01*
Y219609D01*
X497436D01*
X498056Y219133D01*
X498369Y219004D01*
Y215996D01*
X498056Y215867D01*
X497251Y215249D01*
X496633Y214444D01*
X496245Y213506D01*
X496112Y212500D01*
X496245Y211494D01*
X496633Y210556D01*
X497251Y209751D01*
X498056Y209133D01*
X498994Y208745D01*
X500000Y208612D01*
X501006Y208745D01*
X501944Y209133D01*
X502749Y209751D01*
X503367Y210556D01*
X503755Y211494D01*
X503888Y212500D01*
X503755Y213506D01*
X503367Y214444D01*
X502749Y215249D01*
X501944Y215867D01*
X501631Y215996D01*
Y219004D01*
X501944Y219133D01*
X502749Y219751D01*
X503367Y220556D01*
X503755Y221494D01*
X503888Y222500D01*
X503755Y223506D01*
X503367Y224444D01*
X502749Y225249D01*
X501944Y225867D01*
X501006Y226255D01*
X500000Y226388D01*
D02*
G37*
G36*
X423953Y213260D02*
X420500D01*
Y210004D01*
X423953D01*
Y213260D01*
D02*
G37*
G36*
X503953Y193260D02*
X500500D01*
Y190004D01*
X503953D01*
Y193260D01*
D02*
G37*
G36*
X499500D02*
X496047D01*
Y190004D01*
X499500D01*
Y193260D01*
D02*
G37*
G36*
X423953D02*
X420500D01*
Y190004D01*
X423953D01*
Y193260D01*
D02*
G37*
G36*
X500500Y187405D02*
Y183000D01*
X504003D01*
Y183468D01*
X503866Y184504D01*
X503467Y185470D01*
X502830Y186299D01*
X502001Y186935D01*
X501036Y187335D01*
X500500Y187405D01*
D02*
G37*
G36*
X499500D02*
X498964Y187335D01*
X497999Y186935D01*
X497170Y186299D01*
X496533Y185470D01*
X496134Y184504D01*
X495997Y183468D01*
Y183000D01*
X499500D01*
Y187405D01*
D02*
G37*
G36*
X504003Y182000D02*
X500500D01*
Y177595D01*
X501036Y177665D01*
X502001Y178065D01*
X502830Y178701D01*
X503467Y179530D01*
X503866Y180496D01*
X504003Y181532D01*
Y182000D01*
D02*
G37*
G36*
X499500D02*
X495997D01*
Y181532D01*
X496134Y180496D01*
X496533Y179530D01*
X497170Y178701D01*
X497999Y178065D01*
X498964Y177665D01*
X499500Y177595D01*
Y182000D01*
D02*
G37*
G36*
X403953Y254996D02*
X400500D01*
Y251740D01*
X403953D01*
Y254996D01*
D02*
G37*
G36*
X393953D02*
X390500D01*
Y251740D01*
X393953D01*
Y254996D01*
D02*
G37*
G36*
X389500D02*
X386047D01*
Y251740D01*
X389500D01*
Y254996D01*
D02*
G37*
G36*
X399500D02*
X396047D01*
Y251740D01*
X399500D01*
Y254996D01*
D02*
G37*
G36*
X333953Y213260D02*
X330500D01*
Y210004D01*
X333953D01*
Y213260D01*
D02*
G37*
G36*
X409500Y193260D02*
X406047D01*
Y190004D01*
X409500D01*
Y193260D01*
D02*
G37*
G36*
X333953D02*
X330500D01*
Y190004D01*
X333953D01*
Y193260D01*
D02*
G37*
G36*
X409500Y187405D02*
X408964Y187335D01*
X407999Y186935D01*
X407170Y186299D01*
X406533Y185470D01*
X406134Y184504D01*
X405997Y183468D01*
Y183000D01*
X409500D01*
Y187405D01*
D02*
G37*
G36*
Y182000D02*
X405997D01*
Y181532D01*
X406134Y180496D01*
X406533Y179530D01*
X407170Y178701D01*
X407999Y178065D01*
X408964Y177665D01*
X409500Y177595D01*
Y182000D01*
D02*
G37*
G36*
X313953Y254996D02*
X310500D01*
Y251740D01*
X313953D01*
Y254996D01*
D02*
G37*
G36*
X303953D02*
X300500D01*
Y251740D01*
X303953D01*
Y254996D01*
D02*
G37*
G36*
X299500D02*
X296047D01*
Y251740D01*
X299500D01*
Y254996D01*
D02*
G37*
G36*
X309500D02*
X306047D01*
Y251740D01*
X309500D01*
Y254996D01*
D02*
G37*
G36*
X333953Y243260D02*
X330500D01*
Y240004D01*
X333953D01*
Y243260D01*
D02*
G37*
G36*
X243953Y213260D02*
X240500D01*
Y210004D01*
X243953D01*
Y213260D01*
D02*
G37*
G36*
X319500Y193260D02*
X316047D01*
Y190004D01*
X319500D01*
Y193260D01*
D02*
G37*
G36*
X243953D02*
X240500D01*
Y190004D01*
X243953D01*
Y193260D01*
D02*
G37*
G36*
X319500Y187405D02*
X318964Y187335D01*
X317999Y186935D01*
X317170Y186299D01*
X316533Y185470D01*
X316134Y184504D01*
X315997Y183468D01*
Y183000D01*
X319500D01*
Y187405D01*
D02*
G37*
G36*
Y182000D02*
X315997D01*
Y181532D01*
X316134Y180496D01*
X316533Y179530D01*
X317170Y178701D01*
X317999Y178065D01*
X318964Y177665D01*
X319500Y177595D01*
Y182000D01*
D02*
G37*
G36*
X410500Y283464D02*
Y280500D01*
X413464D01*
X413410Y280914D01*
X413057Y281765D01*
X412496Y282496D01*
X411765Y283057D01*
X410914Y283410D01*
X410500Y283464D01*
D02*
G37*
G36*
X409500D02*
X409086Y283410D01*
X408235Y283057D01*
X407504Y282496D01*
X406943Y281765D01*
X406590Y280914D01*
X406536Y280500D01*
X409500D01*
Y283464D01*
D02*
G37*
G36*
X403953Y274996D02*
X400500D01*
Y271740D01*
X403953D01*
Y274996D01*
D02*
G37*
G36*
X399500D02*
X396047D01*
Y271740D01*
X399500D01*
Y274996D01*
D02*
G37*
G36*
X230500Y283464D02*
Y280500D01*
X233464D01*
X233410Y280914D01*
X233057Y281765D01*
X232496Y282496D01*
X231765Y283057D01*
X230914Y283410D01*
X230500Y283464D01*
D02*
G37*
G36*
X229500D02*
X229086Y283410D01*
X228235Y283057D01*
X227504Y282496D01*
X226943Y281765D01*
X226590Y280914D01*
X226536Y280500D01*
X229500D01*
Y283464D01*
D02*
G37*
G36*
X223953Y274996D02*
X220500D01*
Y271740D01*
X223953D01*
Y274996D01*
D02*
G37*
G36*
X219500D02*
X216047D01*
Y271740D01*
X219500D01*
Y274996D01*
D02*
G37*
G36*
X123953Y144996D02*
X120500D01*
Y141740D01*
X123953D01*
Y144996D01*
D02*
G37*
G36*
X140000Y146388D02*
X138994Y146255D01*
X138056Y145867D01*
X137251Y145249D01*
X136633Y144444D01*
X136245Y143506D01*
X136112Y142500D01*
X136245Y141494D01*
X136633Y140556D01*
X137251Y139751D01*
X138056Y139133D01*
X138369Y139004D01*
Y135996D01*
X138056Y135867D01*
X137251Y135249D01*
X136633Y134444D01*
X136245Y133506D01*
X136112Y132500D01*
X136245Y131494D01*
X136633Y130556D01*
X137251Y129751D01*
X138056Y129133D01*
X138994Y128745D01*
X140000Y128612D01*
X141006Y128745D01*
X141944Y129133D01*
X142749Y129751D01*
X143367Y130556D01*
X143755Y131494D01*
X143888Y132500D01*
X143755Y133506D01*
X143367Y134444D01*
X142749Y135249D01*
X141944Y135867D01*
X141631Y135996D01*
Y139004D01*
X141944Y139133D01*
X142749Y139751D01*
X143367Y140556D01*
X143755Y141494D01*
X143888Y142500D01*
X143755Y143506D01*
X143367Y144444D01*
X142749Y145249D01*
X141944Y145867D01*
X141006Y146255D01*
X140000Y146388D01*
D02*
G37*
G36*
X140500Y126322D02*
Y123000D01*
X143822D01*
X143755Y123506D01*
X143367Y124444D01*
X142749Y125249D01*
X141944Y125867D01*
X141006Y126255D01*
X140500Y126322D01*
D02*
G37*
G36*
X139500D02*
X138994Y126255D01*
X138056Y125867D01*
X137251Y125249D01*
X136633Y124444D01*
X136245Y123506D01*
X136178Y123000D01*
X139500D01*
Y126322D01*
D02*
G37*
G36*
X143822Y122000D02*
X140500D01*
Y118678D01*
X141006Y118745D01*
X141944Y119133D01*
X142749Y119751D01*
X143367Y120556D01*
X143755Y121494D01*
X143822Y122000D01*
D02*
G37*
G36*
X139500D02*
X136178D01*
X136245Y121494D01*
X136633Y120556D01*
X137251Y119751D01*
X138056Y119133D01*
X138994Y118745D01*
X139500Y118678D01*
Y122000D01*
D02*
G37*
G36*
X183968Y126469D02*
X176031D01*
Y118532D01*
X183968D01*
Y126469D01*
D02*
G37*
G36*
X213953Y119996D02*
X210500D01*
Y116740D01*
X213953D01*
Y119996D01*
D02*
G37*
G36*
X193953D02*
X190500D01*
Y116740D01*
X193953D01*
Y119996D01*
D02*
G37*
G36*
X223953D02*
X220500D01*
Y116740D01*
X223953D01*
Y119996D01*
D02*
G37*
G36*
X209500D02*
X206047D01*
Y116740D01*
X209500D01*
Y119996D01*
D02*
G37*
G36*
X189500D02*
X186047D01*
Y116740D01*
X189500D01*
Y119996D01*
D02*
G37*
G36*
X149500D02*
X146047D01*
Y116740D01*
X149500D01*
Y119996D01*
D02*
G37*
G36*
X219500D02*
X216047D01*
Y116740D01*
X219500D01*
Y119996D01*
D02*
G37*
G36*
X243953Y119996D02*
X236047D01*
Y118279D01*
X233740D01*
X232960Y118124D01*
X232298Y117682D01*
X230887Y116271D01*
X230000Y116388D01*
X228994Y116255D01*
X228056Y115867D01*
X227251Y115249D01*
X226633Y114444D01*
X226245Y113506D01*
X226112Y112500D01*
X226245Y111494D01*
X226633Y110556D01*
X227251Y109751D01*
X228056Y109133D01*
X228994Y108745D01*
X230000Y108612D01*
X231006Y108745D01*
X231944Y109133D01*
X232749Y109751D01*
X233367Y110556D01*
X233755Y111494D01*
X233888Y112500D01*
X233771Y113387D01*
X234585Y114201D01*
X236047D01*
Y112484D01*
Y109260D01*
X243953D01*
Y112484D01*
Y119996D01*
D02*
G37*
G36*
X200000Y116388D02*
X198994Y116255D01*
X198056Y115867D01*
X197251Y115249D01*
X196633Y114444D01*
X196245Y113506D01*
X196112Y112500D01*
X196229Y111613D01*
X195415Y110799D01*
X193953D01*
Y112484D01*
Y115740D01*
X190000D01*
X186047D01*
Y112484D01*
Y105004D01*
X193953D01*
Y106721D01*
X196260D01*
X197040Y106876D01*
X197702Y107318D01*
X199113Y108729D01*
X200000Y108612D01*
X201006Y108745D01*
X201944Y109133D01*
X202749Y109751D01*
X203367Y110556D01*
X203755Y111494D01*
X203888Y112500D01*
X203755Y113506D01*
X203367Y114444D01*
X202749Y115249D01*
X201944Y115867D01*
X201006Y116255D01*
X200000Y116388D01*
D02*
G37*
G36*
X243953Y108260D02*
X240500D01*
Y105004D01*
X243953D01*
Y108260D01*
D02*
G37*
G36*
X239500D02*
X236047D01*
Y105004D01*
X239500D01*
Y108260D01*
D02*
G37*
G36*
X140500Y106322D02*
Y103000D01*
X143822D01*
X143755Y103506D01*
X143367Y104444D01*
X142749Y105249D01*
X141944Y105867D01*
X141006Y106255D01*
X140500Y106322D01*
D02*
G37*
G36*
X139500D02*
X138994Y106255D01*
X138056Y105867D01*
X137251Y105249D01*
X136633Y104444D01*
X136245Y103506D01*
X136178Y103000D01*
X139500D01*
Y106322D01*
D02*
G37*
G36*
X143822Y102000D02*
X140500D01*
Y98678D01*
X141006Y98745D01*
X141944Y99133D01*
X142749Y99751D01*
X143367Y100556D01*
X143755Y101494D01*
X143822Y102000D01*
D02*
G37*
G36*
X139500D02*
X136178D01*
X136245Y101494D01*
X136633Y100556D01*
X137251Y99751D01*
X138056Y99133D01*
X138994Y98745D01*
X139500Y98678D01*
Y102000D01*
D02*
G37*
G36*
X250000Y101503D02*
X248964Y101366D01*
X247999Y100967D01*
X247170Y100330D01*
X246533Y99501D01*
X246134Y98536D01*
X245997Y97500D01*
X246134Y96464D01*
X246533Y95499D01*
X247170Y94670D01*
X247999Y94033D01*
X248964Y93634D01*
X250000Y93497D01*
X251036Y93634D01*
X252001Y94033D01*
X252830Y94670D01*
X253467Y95499D01*
X253866Y96464D01*
X254003Y97500D01*
X253866Y98536D01*
X253467Y99501D01*
X252830Y100330D01*
X252001Y100967D01*
X251036Y101366D01*
X250000Y101503D01*
D02*
G37*
G36*
X230000Y146388D02*
X228994Y146255D01*
X228056Y145867D01*
X227251Y145249D01*
X226633Y144444D01*
X226245Y143506D01*
X226112Y142500D01*
X226245Y141494D01*
X226633Y140556D01*
X227251Y139751D01*
X228056Y139133D01*
X228994Y138745D01*
X230000Y138612D01*
X231006Y138745D01*
X231944Y139133D01*
X232749Y139751D01*
X233367Y140556D01*
X233496Y140869D01*
X259324D01*
X268369Y131824D01*
Y126469D01*
X266032D01*
Y118532D01*
X268369D01*
Y101469D01*
X266032D01*
Y93532D01*
X273969D01*
Y94311D01*
X274430Y94503D01*
X276047Y92886D01*
Y87484D01*
Y80004D01*
X277044D01*
X277235Y79542D01*
X276824Y79131D01*
X238176D01*
X237765Y79542D01*
X237956Y80004D01*
X243953D01*
Y82129D01*
X256260D01*
X256884Y82253D01*
X257413Y82606D01*
X261154Y86347D01*
X261507Y86876D01*
X261631Y87500D01*
Y93880D01*
X262001Y94033D01*
X262830Y94670D01*
X263467Y95499D01*
X263866Y96464D01*
X264003Y97500D01*
X263866Y98536D01*
X263467Y99501D01*
X262830Y100330D01*
X262001Y100967D01*
X261631Y101120D01*
Y118880D01*
X262001Y119034D01*
X262830Y119670D01*
X263467Y120499D01*
X263866Y121464D01*
X264003Y122500D01*
X263866Y123536D01*
X263467Y124501D01*
X262830Y125330D01*
X262001Y125967D01*
X261036Y126366D01*
X260000Y126503D01*
X258964Y126366D01*
X257999Y125967D01*
X257170Y125330D01*
X256534Y124501D01*
X256380Y124131D01*
X253620D01*
X253467Y124501D01*
X252830Y125330D01*
X252001Y125967D01*
X251631Y126120D01*
Y127500D01*
X251507Y128124D01*
X251153Y128654D01*
X246153Y133653D01*
X245624Y134007D01*
X245000Y134131D01*
X233496D01*
X233367Y134444D01*
X232749Y135249D01*
X231944Y135867D01*
X231006Y136255D01*
X230000Y136388D01*
X228994Y136255D01*
X228056Y135867D01*
X227251Y135249D01*
X226633Y134444D01*
X226245Y133506D01*
X226112Y132500D01*
X226245Y131494D01*
X226633Y130556D01*
X227251Y129751D01*
X228056Y129133D01*
X228994Y128745D01*
X230000Y128612D01*
X231006Y128745D01*
X231944Y129133D01*
X232749Y129751D01*
X233367Y130556D01*
X233496Y130869D01*
X244324D01*
X248369Y126824D01*
Y126120D01*
X247999Y125967D01*
X247170Y125330D01*
X246533Y124501D01*
X246134Y123536D01*
X245997Y122500D01*
X246134Y121464D01*
X246533Y120499D01*
X247170Y119670D01*
X247999Y119034D01*
X248964Y118634D01*
X250000Y118497D01*
X251036Y118634D01*
X252001Y119034D01*
X252830Y119670D01*
X253467Y120499D01*
X253620Y120869D01*
X256380D01*
X256534Y120499D01*
X257170Y119670D01*
X257999Y119034D01*
X258369Y118880D01*
Y101120D01*
X257999Y100967D01*
X257170Y100330D01*
X256534Y99501D01*
X256134Y98536D01*
X255997Y97500D01*
X256134Y96464D01*
X256534Y95499D01*
X257170Y94670D01*
X257999Y94033D01*
X258369Y93880D01*
Y88176D01*
X255584Y85391D01*
X243953D01*
Y87484D01*
Y94996D01*
X239295D01*
X239210Y95421D01*
X238856Y95951D01*
X233626Y101181D01*
X233755Y101494D01*
X233888Y102500D01*
X233755Y103506D01*
X233367Y104444D01*
X232749Y105249D01*
X231944Y105867D01*
X231006Y106255D01*
X230000Y106388D01*
X228994Y106255D01*
X228681Y106126D01*
X225203Y109604D01*
X224674Y109957D01*
X224050Y110082D01*
X223953D01*
Y112484D01*
Y115740D01*
X220000D01*
X216047D01*
Y112484D01*
Y105004D01*
X223953D01*
Y105587D01*
X224415Y105778D01*
X226374Y103819D01*
X226245Y103506D01*
X226112Y102500D01*
X226245Y101494D01*
X226633Y100556D01*
X227251Y99751D01*
X228056Y99133D01*
X228994Y98745D01*
X230000Y98612D01*
X231006Y98745D01*
X231319Y98874D01*
X236047Y94146D01*
Y89413D01*
X235585Y89222D01*
X233626Y91181D01*
X233755Y91494D01*
X233888Y92500D01*
X233755Y93506D01*
X233367Y94444D01*
X232749Y95249D01*
X231944Y95867D01*
X231006Y96255D01*
X230000Y96388D01*
X228994Y96255D01*
X228056Y95867D01*
X227251Y95249D01*
X226633Y94444D01*
X226245Y93506D01*
X226161Y92871D01*
X223953D01*
Y94996D01*
X216047D01*
Y87484D01*
Y80004D01*
X218369D01*
Y74996D01*
X216047D01*
Y67484D01*
Y60004D01*
X223953D01*
Y62129D01*
X226047D01*
Y60004D01*
X233953D01*
Y62129D01*
X236260D01*
X236884Y62253D01*
X237413Y62606D01*
X240676Y65869D01*
X246146D01*
Y63646D01*
X253854D01*
Y71354D01*
X246146D01*
Y69131D01*
X240000D01*
X239376Y69007D01*
X238846Y68654D01*
X235584Y65391D01*
X233953D01*
Y67484D01*
Y70740D01*
X230000D01*
X226047D01*
Y67484D01*
Y65391D01*
X223953D01*
Y67484D01*
Y74996D01*
X221631D01*
Y80004D01*
X223953D01*
Y80869D01*
X226504D01*
X226633Y80556D01*
X227251Y79751D01*
X228056Y79133D01*
X228994Y78745D01*
X230000Y78612D01*
X231006Y78745D01*
X231944Y79133D01*
X232749Y79751D01*
X232883Y79926D01*
X233410Y79791D01*
X233493Y79376D01*
X233846Y78847D01*
X236347Y76346D01*
X236876Y75993D01*
X237500Y75869D01*
X277500D01*
X278124Y75993D01*
X278654Y76346D01*
X281060Y78753D01*
X281414Y79283D01*
X281538Y79907D01*
Y80004D01*
X283953D01*
Y87484D01*
Y94996D01*
X278551D01*
X275219Y98328D01*
X274690Y98682D01*
X274066Y98806D01*
X273969D01*
Y101469D01*
X271631D01*
Y118532D01*
X273969D01*
Y126469D01*
X271631D01*
Y132500D01*
X271631Y132500D01*
X271507Y133124D01*
X271153Y133653D01*
X261154Y143654D01*
X260624Y144007D01*
X260000Y144131D01*
X233496D01*
X233367Y144444D01*
X232749Y145249D01*
X231944Y145867D01*
X231006Y146255D01*
X230000Y146388D01*
D02*
G37*
G36*
X233953Y74996D02*
X230500D01*
Y71740D01*
X233953D01*
Y74996D01*
D02*
G37*
G36*
X229500D02*
X226047D01*
Y71740D01*
X229500D01*
Y74996D01*
D02*
G37*
G36*
X260500Y72405D02*
Y68000D01*
X264003D01*
Y68468D01*
X263866Y69504D01*
X263467Y70470D01*
X262830Y71299D01*
X262001Y71935D01*
X261036Y72335D01*
X260500Y72405D01*
D02*
G37*
G36*
X259500D02*
X258964Y72335D01*
X257999Y71935D01*
X257170Y71299D01*
X256534Y70470D01*
X256134Y69504D01*
X255997Y68468D01*
Y68000D01*
X259500D01*
Y72405D01*
D02*
G37*
G36*
X264003Y67000D02*
X260500D01*
Y62595D01*
X261036Y62665D01*
X262001Y63065D01*
X262830Y63701D01*
X263467Y64530D01*
X263866Y65496D01*
X264003Y66531D01*
Y67000D01*
D02*
G37*
G36*
X259500D02*
X255997D01*
Y66531D01*
X256134Y65496D01*
X256534Y64530D01*
X257170Y63701D01*
X257999Y63065D01*
X258964Y62665D01*
X259500Y62595D01*
Y67000D01*
D02*
G37*
%LPD*%
G36*
X228056Y89133D02*
X228994Y88745D01*
X230000Y88612D01*
X231006Y88745D01*
X231319Y88874D01*
X233369Y86824D01*
Y85263D01*
X232869Y85093D01*
X232749Y85249D01*
X231944Y85867D01*
X231006Y86255D01*
X230000Y86388D01*
X228994Y86255D01*
X228056Y85867D01*
X227251Y85249D01*
X226633Y84444D01*
X226504Y84131D01*
X223953D01*
Y87484D01*
Y89609D01*
X227436D01*
X228056Y89133D01*
D02*
G37*
%LPC*%
G36*
X93968Y126469D02*
X86032D01*
Y118532D01*
X93968D01*
Y126469D01*
D02*
G37*
G36*
X103953Y119996D02*
X100500D01*
Y116740D01*
X103953D01*
Y119996D01*
D02*
G37*
G36*
X99500D02*
X96047D01*
Y116740D01*
X99500D01*
Y119996D01*
D02*
G37*
G36*
X90500Y116421D02*
Y113000D01*
X93921D01*
X93851Y113532D01*
X93453Y114493D01*
X92819Y115319D01*
X91993Y115953D01*
X91032Y116351D01*
X90500Y116421D01*
D02*
G37*
G36*
X89500D02*
X88968Y116351D01*
X88007Y115953D01*
X87181Y115319D01*
X86547Y114493D01*
X86149Y113532D01*
X86079Y113000D01*
X89500D01*
Y116421D01*
D02*
G37*
G36*
X110000Y116388D02*
X108994Y116255D01*
X108056Y115867D01*
X107251Y115249D01*
X106633Y114444D01*
X106245Y113506D01*
X106112Y112500D01*
X106229Y111613D01*
X105415Y110799D01*
X103953D01*
Y112484D01*
Y115740D01*
X100000D01*
X96047D01*
Y112484D01*
Y105004D01*
X103953D01*
Y106721D01*
X106260D01*
X107040Y106876D01*
X107702Y107318D01*
X109113Y108729D01*
X110000Y108612D01*
X111006Y108745D01*
X111944Y109133D01*
X112749Y109751D01*
X113367Y110556D01*
X113755Y111494D01*
X113888Y112500D01*
X113755Y113506D01*
X113367Y114444D01*
X112749Y115249D01*
X111944Y115867D01*
X111006Y116255D01*
X110000Y116388D01*
D02*
G37*
G36*
X93921Y112000D02*
X90500D01*
Y108579D01*
X91032Y108649D01*
X91993Y109047D01*
X92819Y109681D01*
X93453Y110507D01*
X93851Y111468D01*
X93921Y112000D01*
D02*
G37*
G36*
X89500D02*
X86079D01*
X86149Y111468D01*
X86547Y110507D01*
X87181Y109681D01*
X88007Y109047D01*
X88968Y108649D01*
X89500Y108579D01*
Y112000D01*
D02*
G37*
G36*
X93953Y83260D02*
X90500D01*
Y80004D01*
X93953D01*
Y83260D01*
D02*
G37*
G36*
X89500D02*
X86047D01*
Y80004D01*
X89500D01*
Y83260D01*
D02*
G37*
G36*
X203953Y74996D02*
X200500D01*
Y71740D01*
X203953D01*
Y74996D01*
D02*
G37*
G36*
X199500D02*
X196047D01*
Y71740D01*
X199500D01*
Y74996D01*
D02*
G37*
G36*
X183000Y72405D02*
Y68000D01*
X186503D01*
Y68468D01*
X186366Y69504D01*
X185967Y70470D01*
X185330Y71299D01*
X184501Y71935D01*
X183536Y72335D01*
X183000Y72405D01*
D02*
G37*
G36*
X182000D02*
X181464Y72335D01*
X180499Y71935D01*
X179670Y71299D01*
X179034Y70470D01*
X178634Y69504D01*
X178497Y68468D01*
Y68000D01*
X182000D01*
Y72405D01*
D02*
G37*
G36*
X186503Y67000D02*
X183000D01*
Y62595D01*
X183536Y62665D01*
X184501Y63065D01*
X185330Y63701D01*
X185967Y64530D01*
X186366Y65496D01*
X186503Y66531D01*
Y67000D01*
D02*
G37*
G36*
X182000D02*
X178497D01*
Y66531D01*
X178634Y65496D01*
X179034Y64530D01*
X179670Y63701D01*
X180499Y63065D01*
X181464Y62665D01*
X182000Y62595D01*
Y67000D01*
D02*
G37*
%LPD*%
G36*
X386047Y87484D02*
Y85391D01*
X382563D01*
X381944Y85867D01*
X381006Y86255D01*
X380000Y86388D01*
X378994Y86255D01*
X378056Y85867D01*
X377251Y85249D01*
X377131Y85093D01*
X376631Y85263D01*
Y86824D01*
X378681Y88874D01*
X378994Y88745D01*
X380000Y88612D01*
X381006Y88745D01*
X381944Y89133D01*
X382749Y89751D01*
X383367Y90556D01*
X383496Y90869D01*
X386047D01*
Y87484D01*
D02*
G37*
G36*
X496633Y90556D02*
X497251Y89751D01*
X498056Y89133D01*
X498369Y89004D01*
Y85996D01*
X498056Y85867D01*
X497251Y85249D01*
X496633Y84444D01*
X496245Y83506D01*
X496112Y82500D01*
X496245Y81494D01*
X496633Y80556D01*
X497251Y79751D01*
X497407Y79631D01*
X497237Y79131D01*
X493176D01*
X492765Y79542D01*
X492956Y80004D01*
X493953D01*
Y87484D01*
Y90869D01*
X496504D01*
X496633Y90556D01*
D02*
G37*
G36*
X476047Y87484D02*
Y80004D01*
X477044D01*
X477235Y79542D01*
X476824Y79131D01*
X472763D01*
X472593Y79631D01*
X472749Y79751D01*
X473367Y80556D01*
X473755Y81494D01*
X473888Y82500D01*
X473755Y83506D01*
X473367Y84444D01*
X472749Y85249D01*
X471944Y85867D01*
X471631Y85996D01*
Y89004D01*
X471944Y89133D01*
X472749Y89751D01*
X473367Y90556D01*
X473496Y90869D01*
X476047D01*
Y87484D01*
D02*
G37*
D20*
X520000Y52500D02*
D03*
X510000D02*
D03*
X500000D02*
D03*
D21*
X490000D02*
D03*
D28*
X520000Y37500D02*
Y52500D01*
X260000Y27500D02*
Y35000D01*
Y27500D02*
X265000Y22500D01*
X369803Y153760D02*
X370197D01*
X505000Y22500D02*
X520000Y37500D01*
X265000Y22500D02*
X505000D01*
X264370Y39370D02*
X265276D01*
X260000Y35000D02*
X264370Y39370D01*
X368047Y151807D02*
Y152004D01*
X348937Y153760D02*
X349383Y153314D01*
X371953Y151807D02*
X376260Y147500D01*
X380000Y242500D02*
X381004D01*
X390825Y117065D02*
Y120825D01*
X390000Y153760D02*
X391041Y152719D01*
X298740Y242500D02*
X300000Y243760D01*
X290000Y242500D02*
X298740D01*
X233740Y116240D02*
X240000D01*
X478740Y242500D02*
X480000Y243760D01*
X470000Y242500D02*
X478740D01*
X352500Y147500D02*
X363740D01*
X387500D02*
X389176Y149176D01*
X376260Y147500D02*
X387500D01*
X368047Y152004D02*
X369803Y153760D01*
X389176Y152935D02*
X390000Y153760D01*
X349383Y150617D02*
Y153314D01*
X381004Y242500D02*
X382263Y243760D01*
X370197Y153760D02*
X371953Y152004D01*
X466260Y116240D02*
X470000Y112500D01*
X460000Y116240D02*
X466260D01*
X390000D02*
X390825Y117065D01*
X371953Y151807D02*
Y152004D01*
X390825Y120825D02*
X397500Y127500D01*
X389176Y149176D02*
Y152935D01*
X397500Y127500D02*
Y150000D01*
X363740Y147500D02*
X368047Y151807D01*
X382263Y243760D02*
X390000D01*
X383740Y116240D02*
X390000D01*
X380000Y112500D02*
X383740Y116240D01*
X394781Y152719D02*
X397500Y150000D01*
X410000Y112500D02*
X413740Y108760D01*
X420000D01*
X496260D02*
X500000Y112500D01*
X490000Y108760D02*
X496260D01*
X230000Y112500D02*
X233740Y116240D01*
X142263Y243760D02*
X150000D01*
X490000D02*
X497737D01*
X407737D02*
X408996Y242500D01*
X196260Y108760D02*
X200000Y112500D01*
X400000Y243760D02*
X407737D01*
X190000Y108760D02*
X196260D01*
X140000Y112500D02*
X143740Y108760D01*
X150000D01*
X100000D02*
X106260D01*
X110000Y112500D01*
X349383Y150617D02*
X352500Y147500D01*
X103016Y249484D02*
X110000Y242500D01*
X141004D02*
X142263Y243760D01*
X497737D02*
X498996Y242500D01*
X190000Y243760D02*
X197737D01*
X408996Y242500D02*
X410000D01*
X227737Y243760D02*
X228996Y242500D01*
X100000Y251240D02*
X101756Y249484D01*
X103016D01*
X197737Y243760D02*
X198996Y242500D01*
X200000D01*
X310000Y243760D02*
X311260Y242500D01*
X320000D01*
X220000Y243760D02*
X227737D01*
X498996Y242500D02*
X500000D01*
X140000D02*
X141004D01*
X228996D02*
X230000D01*
X391041Y152719D02*
X394781D01*
D29*
X152353Y61407D02*
X156260Y57500D01*
X150000Y63760D02*
X150197D01*
X152353Y61407D02*
Y61604D01*
X318000Y46646D02*
X325276Y39370D01*
X318000Y46646D02*
Y94500D01*
X315276Y39370D02*
Y93224D01*
X296500Y57500D02*
X310100Y43900D01*
X72900Y55100D02*
X289546D01*
X305276Y39370D01*
X72000Y52500D02*
X282146D01*
X295276Y39370D01*
X71000Y50200D02*
X274446D01*
X285276Y39370D01*
X69700Y47500D02*
X267146D01*
X275276Y39370D01*
X251000Y157500D02*
X315276Y93224D01*
X252000Y160500D02*
X318000Y94500D01*
X99641Y160500D02*
X252000D01*
X80000Y180141D02*
X99641Y160500D01*
X115100Y147600D02*
X125000Y157500D01*
X115100Y127600D02*
Y147600D01*
X125000Y157500D02*
X251000D01*
X156260Y57500D02*
X296500D01*
X310100Y37100D02*
Y43900D01*
X307000Y34000D02*
X310100Y37100D01*
X295276Y29370D02*
X299905Y34000D01*
X307000D01*
X55100Y62100D02*
X69700Y47500D01*
X55100Y62100D02*
Y268900D01*
X76900Y290700D01*
X57600Y63600D02*
X71000Y50200D01*
X57600Y63600D02*
Y268000D01*
X78100Y288500D01*
X59800Y64700D02*
X72000Y52500D01*
X59800Y64700D02*
Y266700D01*
X79400Y286300D01*
X150197Y63760D02*
X152353Y61604D01*
X76900Y290700D02*
X428734D01*
X78100Y288500D02*
X338434D01*
X428734Y290700D02*
X440000Y279434D01*
X250634Y286300D02*
X260000Y276934D01*
X62000Y66000D02*
X72900Y55100D01*
X163134Y283800D02*
X170000Y276934D01*
X62000Y66000D02*
Y265500D01*
X80300Y283800D01*
X163134D01*
X72500Y228740D02*
Y272700D01*
X81300Y281500D02*
X131000D01*
X72500Y272700D02*
X81300Y281500D01*
X79400Y286300D02*
X250634D01*
X338434Y288500D02*
X350000Y276934D01*
X279907Y83667D02*
X280000Y83760D01*
X86679Y88116D02*
X89803Y91240D01*
X222297Y260203D02*
Y261604D01*
X387703Y130203D02*
Y131604D01*
X162156Y65916D02*
X163416D01*
X334384Y156884D02*
X335000Y157500D01*
X135950Y64050D02*
X139710D01*
X330000Y83760D02*
X330093Y83667D01*
X312353Y261407D02*
Y261604D01*
X422353Y223593D02*
X425958Y227198D01*
X147744Y85916D02*
X149900Y83760D01*
X162256Y65916D02*
Y66016D01*
X123321Y246884D02*
X123616D01*
X143416Y65916D02*
X146584Y69084D01*
X483321Y268116D02*
X485153D01*
X453321Y88116D02*
X455153D01*
X107520Y91240D02*
X108780Y92500D01*
X489803Y263760D02*
X490000D01*
X381220Y82500D02*
X382480Y83760D01*
X459896Y83667D02*
X460093D01*
X513321Y86884D02*
X515153D01*
X490093Y259907D02*
Y263667D01*
X430000Y91240D02*
X430197D01*
X393321Y268116D02*
X395153D01*
X519803Y91240D02*
X520000D01*
X73321Y86884D02*
X75153D01*
X477703Y261604D02*
X479859Y263760D01*
X327647Y163396D02*
X329803Y161240D01*
X436384Y86884D02*
X436679D01*
X79803Y91240D02*
X80000D01*
X471451Y268549D02*
X475950Y264050D01*
X370197Y161240D02*
X373321Y158116D01*
X490000Y141240D02*
X497520D01*
X72500Y228740D02*
X77647Y223593D01*
X370000Y91240D02*
X370141D01*
X376679Y156884D02*
X379803Y153760D01*
X372353Y103907D02*
Y104104D01*
X141220Y82500D02*
X142480Y83760D01*
X377500Y57500D02*
X379907Y59907D01*
X163416Y65916D02*
X165000Y67500D01*
X132500D02*
X135950Y64050D01*
X330000Y83760D02*
X330100D01*
X327500Y167500D02*
X329907Y165093D01*
X479859Y263760D02*
X480000D01*
X79803Y221240D02*
X80000D01*
X471451Y268549D02*
Y271049D01*
X330093Y79907D02*
X332500Y77500D01*
X77647Y223396D02*
X79803Y221240D01*
X205000Y192500D02*
Y247500D01*
X185000Y187500D02*
X200000D01*
X205000Y192500D01*
X290000Y187500D02*
X295000Y192500D01*
Y235000D01*
X275000Y187500D02*
X290000D01*
X385000Y190000D02*
Y235000D01*
X365000Y185000D02*
X380000D01*
X385000Y190000D01*
X475000Y192500D02*
Y235000D01*
X455000Y187500D02*
X470000D01*
X475000Y192500D01*
X285000Y247500D02*
X290000Y252500D01*
X285000Y240000D02*
Y247500D01*
Y240000D02*
X287500Y237500D01*
X292500D01*
X295000Y235000D01*
X240000Y221240D02*
X240141D01*
X242297Y223396D02*
Y224797D01*
X131000Y281500D02*
X140000Y272500D01*
X77647Y223396D02*
Y223593D01*
X260000Y271240D02*
Y276934D01*
X350000Y271240D02*
Y276934D01*
X135000Y232500D02*
X140000D01*
X130000Y237500D02*
X135000Y232500D01*
X130000Y237500D02*
Y243760D01*
X140000Y232500D02*
X145000Y227500D01*
X466659Y251659D02*
X469159D01*
X422353Y223396D02*
Y223593D01*
X465000Y240000D02*
Y250000D01*
Y240000D02*
X467500Y237500D01*
X472500D01*
X475000Y235000D01*
X490000Y91240D02*
X491260Y92500D01*
X500000D01*
X237500Y77500D02*
X277500D01*
X228780Y92500D02*
X230000D01*
X279907Y79907D02*
Y83667D01*
X235000Y80000D02*
X237500Y77500D01*
X235000Y80000D02*
Y87500D01*
X230000Y92500D02*
X235000Y87500D01*
X200841Y125841D02*
X205000Y130000D01*
X389859Y133760D02*
X390000D01*
X205000Y130000D02*
Y147500D01*
X202500Y150000D02*
X205000Y147500D01*
X170000Y150000D02*
X202500D01*
X155000Y135000D02*
X170000Y150000D01*
X155000Y102500D02*
Y135000D01*
X150000Y97500D02*
X155000Y102500D01*
X150000Y91240D02*
Y97500D01*
X132500Y67500D02*
Y85000D01*
X140000Y92500D01*
Y63760D02*
X142156Y65916D01*
X146584Y69084D02*
X147844D01*
X140000Y71240D02*
Y82500D01*
X142156Y65916D02*
X143416D01*
X147844Y69084D02*
X150000Y71240D01*
X139710Y64050D02*
X140000Y63760D01*
X147744Y85916D02*
Y86016D01*
X140000Y82500D02*
X141220D01*
X149900Y83760D02*
X150000D01*
X190000Y201240D02*
Y213760D01*
X280000Y201240D02*
Y213760D01*
X375000Y247500D02*
X380000Y252500D01*
X375000Y240000D02*
Y247500D01*
Y240000D02*
X377500Y237500D01*
X382500D01*
X385000Y235000D01*
X415000Y225000D02*
X425000Y235000D01*
X422156Y249084D02*
X423416D01*
X425000Y235000D02*
Y247500D01*
X420000Y251240D02*
X422156Y249084D01*
X440000Y242500D02*
X450000Y232500D01*
X470000D01*
X440000Y242500D02*
Y252500D01*
X490093Y259907D02*
X496659Y253341D01*
X499159D02*
X505000Y247500D01*
X490000Y263760D02*
X490093Y263667D01*
X475950Y264050D02*
X479710D01*
X480000Y263760D01*
X455000Y257500D02*
X475000D01*
X477703Y260203D01*
Y261604D01*
X470000Y272500D02*
X471451Y271049D01*
X470000Y197500D02*
Y222500D01*
X370000Y201240D02*
Y213760D01*
X372353Y103907D02*
X373760Y102500D01*
X370141Y91240D02*
X372297Y93396D01*
X370197Y106260D02*
X372353Y104104D01*
X373760Y102500D02*
X380000D01*
X190000Y97500D02*
X195000Y102500D01*
X190000Y91240D02*
Y97500D01*
X195000Y102500D02*
X200000D01*
X165000Y72500D02*
X167500Y75000D01*
X165000Y67500D02*
Y72500D01*
X160000Y63760D02*
X160100D01*
X160000D02*
X162156Y65916D01*
X196043Y60000D02*
X199803Y63760D01*
X172500Y62500D02*
X175000Y60000D01*
X172500Y62500D02*
Y67500D01*
X236260Y63760D02*
X240000Y67500D01*
X250000D01*
X352500Y57500D02*
X377500D01*
X350000Y60000D02*
Y67500D01*
Y60000D02*
X352500Y57500D01*
X379907Y59907D02*
Y63667D01*
X380000Y63760D01*
X330093Y79907D02*
Y83667D01*
X332256Y85916D02*
Y86016D01*
X372500Y77500D02*
X375000Y80000D01*
X332500Y77500D02*
X372500D01*
X330093Y95093D02*
X332500Y97500D01*
X330093Y91333D02*
Y95093D01*
X332500Y97500D02*
X340000D01*
Y137500D01*
X330000Y91240D02*
X330093Y91333D01*
X390000Y71240D02*
Y83760D01*
X455000Y67500D02*
X460000D01*
X450000Y72500D02*
Y83760D01*
Y72500D02*
X455000Y67500D01*
X480000Y61260D02*
X490000D01*
Y52500D02*
Y61260D01*
X310000Y160000D02*
Y165000D01*
X312500Y167500D02*
X327500D01*
X310000Y165000D02*
X312500Y167500D01*
X327547Y163693D02*
X327647Y163593D01*
Y163396D02*
Y163593D01*
X400000Y182500D02*
Y193760D01*
X310000Y182500D02*
Y193760D01*
X220000Y182500D02*
Y193760D01*
X95000Y182500D02*
X100000D01*
X95000Y77500D02*
X97703Y80203D01*
X457647Y223396D02*
Y223593D01*
X86384Y88116D02*
X86679D01*
X411176Y56294D02*
Y58676D01*
X110000Y201240D02*
X110197D01*
X200000Y272500D02*
X206484Y266016D01*
X76385Y88116D02*
X76679D01*
X465000Y150000D02*
Y156731D01*
X330100Y83760D02*
X332256Y85916D01*
X197520Y263760D02*
X198780Y262500D01*
X421470Y69882D02*
X423331Y68021D01*
X103321Y196884D02*
X105153D01*
X306384Y266884D02*
X306679D01*
X500000Y232500D02*
X500841Y233341D01*
X450827Y152972D02*
X456839Y158984D01*
X220310Y108450D02*
X224050D01*
X425950Y64050D02*
X429710D01*
X90197Y201240D02*
X98667Y209710D01*
X387703Y131604D02*
X389859Y133760D01*
X306679Y266884D02*
X309803Y263760D01*
X237703Y93396D02*
X239859Y91240D01*
X150000Y71240D02*
X150197D01*
X130000Y201240D02*
X130141D01*
X387703Y73396D02*
X389859Y71240D01*
X334050Y250950D02*
X337500Y247500D01*
X130457Y184795D02*
X130838D01*
X222297Y260203D02*
X235000Y247500D01*
X490093Y79907D02*
X492500Y77500D01*
X360000Y227500D02*
X360325Y227175D01*
X409159Y93341D02*
X410000Y92500D01*
X220000Y91240D02*
X227520D01*
X420000Y201240D02*
X427458D01*
X456385Y86884D02*
X456679D01*
X219803Y263760D02*
X220141D01*
X155958Y227198D02*
X159698D01*
X485000Y130000D02*
Y136731D01*
X277647Y93396D02*
X279803Y91240D01*
X123321Y198116D02*
X125153D01*
X430197Y91240D02*
X433321Y88116D01*
X373321Y158116D02*
X375153D01*
X365000Y257500D02*
X383543D01*
X364066Y227175D02*
X367647Y223593D01*
X400000Y108760D02*
X400093Y108667D01*
X479907Y79907D02*
Y83667D01*
X216385Y266884D02*
X216679D01*
X332353Y223396D02*
Y223593D01*
X510000Y72500D02*
X517703Y80203D01*
X274066Y227175D02*
X277647Y223593D01*
X125000Y248269D02*
Y255000D01*
X248718Y202500D02*
X250000D01*
X299803Y263760D02*
X300000D01*
X390197Y271240D02*
X393321Y268116D01*
X242647Y249084D02*
X245000Y246731D01*
X489041Y51541D02*
X490000Y52500D01*
X180000Y227500D02*
X180325Y227175D01*
X139159Y259159D02*
Y261659D01*
X150000Y201240D02*
X157458D01*
X330197Y153760D02*
X333321Y156884D01*
X102297Y203396D02*
Y204797D01*
X92297Y254797D02*
X97703Y260203D01*
X180000Y252500D02*
X185546Y258046D01*
X420000Y221240D02*
X420197D01*
X160100Y63760D02*
X162256Y65916D01*
X184066Y227175D02*
X187647Y223593D01*
X120000Y243760D02*
X120197D01*
X85153Y86884D02*
X86384Y88116D01*
X350109Y160069D02*
X355950Y154227D01*
X100000Y193760D02*
X100197D01*
X204089Y258046D02*
X209803Y263760D01*
X496659Y253341D02*
X499159D01*
X425958Y227198D02*
X429698D01*
X65000Y80000D02*
Y86731D01*
X454066Y227175D02*
X457647Y223593D01*
X83321Y86884D02*
X85153D01*
X411176Y58676D02*
X418824Y66324D01*
X109803Y201240D02*
X110000D01*
X310197Y263760D02*
X312353Y261604D01*
X480000Y271240D02*
X480197D01*
X450197Y91240D02*
X453321Y88116D01*
X463321Y158116D02*
X463616D01*
X420000Y69882D02*
X421470D01*
X118667Y212427D02*
X120000Y213760D01*
X309803Y263760D02*
X310197D01*
X500841Y233341D02*
Y235841D01*
X200000Y122500D02*
X200841Y123341D01*
X305153Y268116D02*
X306384Y266884D01*
X132297Y204797D02*
X140000Y212500D01*
X370000Y161240D02*
X370197D01*
X130838Y184795D02*
X139803Y193760D01*
X360325Y227175D02*
X364066D01*
X128667Y209710D02*
Y212427D01*
X159698Y227198D02*
X160000Y227500D01*
X277647Y93396D02*
Y93593D01*
X126679Y196884D02*
X129803Y193760D01*
X436679Y86884D02*
X439803Y83760D01*
X389803Y263760D02*
X390000D01*
X139803Y193760D02*
X140000D01*
X369803Y221240D02*
X370000D01*
X330197D02*
X332353Y223396D01*
X517703Y81604D02*
X519859Y83760D01*
X277647Y223396D02*
X279803Y221240D01*
X423957Y165000D02*
X447854D01*
X98599Y262500D02*
X101401D01*
X290000Y272500D02*
X296484Y266016D01*
X180325Y227175D02*
X184066D01*
X348937Y161240D02*
X349134D01*
X100000Y201240D02*
X100141D01*
X90000Y251240D02*
X90141D01*
X207547Y266016D02*
X209803Y263760D01*
X396679Y266884D02*
X400000Y263563D01*
X465000Y250000D02*
X466659Y251659D01*
X189803Y221240D02*
X190000D01*
X372297Y93396D02*
Y93496D01*
X92297Y93396D02*
Y94797D01*
X355950Y154227D02*
X359533D01*
X101401Y262500D02*
X102297Y261604D01*
X429698Y227198D02*
X430000Y227500D01*
X450000D02*
X450325Y227175D01*
X359533Y154227D02*
X360000Y153760D01*
X102297Y260203D02*
Y261604D01*
X457647Y223396D02*
X459803Y221240D01*
X90141Y251240D02*
X92297Y253396D01*
X402297Y260203D02*
X415000Y247500D01*
X337458Y201240D02*
X338718Y202500D01*
X120197Y201240D02*
X123321Y198116D01*
X318780Y222500D02*
X320000D01*
X380000Y272500D02*
X386484Y266016D01*
X152353Y223396D02*
Y223593D01*
X270000Y97500D02*
X270325Y97175D01*
X120197Y201240D02*
X128667Y209710D01*
X330000Y221240D02*
X330197D01*
X270000Y227500D02*
X270325Y227175D01*
X420000Y161240D02*
X420197D01*
X275000Y257500D02*
X293543D01*
X335958Y227198D02*
X339698D01*
X329907Y161333D02*
Y165093D01*
X150000Y221240D02*
X150197D01*
X277647Y223396D02*
Y223593D01*
X97703Y260203D02*
Y261604D01*
X329803Y161240D02*
X330000D01*
X170000Y271240D02*
Y276934D01*
X440000Y271240D02*
Y279434D01*
X110000Y122500D02*
X115100Y127600D01*
X80000Y180141D02*
Y213760D01*
X404882Y69882D02*
X410000D01*
X402500Y50000D02*
Y67500D01*
X404882Y69882D01*
X402500Y50000D02*
X405000Y47500D01*
X487500D01*
X423331Y66669D02*
X425950Y64050D01*
X423331Y66669D02*
Y68021D01*
X410000Y55118D02*
X411176Y56294D01*
X387703Y73396D02*
Y73496D01*
X382480Y83760D02*
X390000D01*
X388740Y92500D02*
X390000Y91240D01*
X380000Y92500D02*
X388740D01*
X400093Y104907D02*
X409159Y95841D01*
X400093Y104907D02*
Y108667D01*
X409159Y93341D02*
Y95841D01*
X380000Y122500D02*
X387703Y130203D01*
X200841Y123341D02*
Y125841D01*
X120000Y116240D02*
Y133760D01*
X370000Y106260D02*
X370197D01*
X389859Y71240D02*
X390000D01*
X380000Y82500D02*
X381220D01*
X379803Y63760D02*
X390000D01*
X487500Y47500D02*
X489041Y49041D01*
Y51541D01*
X480000Y61260D02*
X480000Y61260D01*
X429710Y64050D02*
X430000Y63760D01*
X418824Y66324D02*
Y68706D01*
X375000Y80000D02*
Y87500D01*
X380000Y92500D01*
X350000Y87500D02*
X353740Y83760D01*
X370000D01*
Y91240D02*
Y106260D01*
X350000Y87500D02*
Y122500D01*
X365000Y132500D02*
X380000D01*
X360000Y127500D02*
X365000Y132500D01*
X360000Y122500D02*
Y127500D01*
X350000Y122500D02*
X360000D01*
X340000Y137500D02*
X345000Y142500D01*
X380000D01*
X274066Y97175D02*
X277647Y93593D01*
X270325Y97175D02*
X274066D01*
X150197Y71240D02*
X152453Y73496D01*
X190000Y75000D02*
X195000Y80000D01*
X167500Y75000D02*
X190000D01*
X175000Y60000D02*
X196043D01*
X220000Y63760D02*
X236260D01*
X220000Y71240D02*
Y83760D01*
Y108760D02*
X220310Y108450D01*
X224050D02*
X237703Y94797D01*
X220000Y83760D02*
X221260Y82500D01*
X230000D01*
X277500Y77500D02*
X279907Y79907D01*
X227520Y91240D02*
X228780Y92500D01*
X260000Y87500D02*
Y122500D01*
X256260Y83760D02*
X260000Y87500D01*
X240000Y83760D02*
X256260D01*
X279803Y91240D02*
X280000D01*
X270000Y97500D02*
Y132500D01*
X250000Y122500D02*
X260000D01*
X250000D02*
Y127500D01*
X239859Y91240D02*
X240000D01*
X237703Y93396D02*
Y94797D01*
X195000Y87500D02*
X200000Y92500D01*
X195000Y80000D02*
Y87500D01*
X180000Y192500D02*
Y202500D01*
Y192500D02*
X185000Y187500D01*
X200000Y252500D02*
X205000Y247500D01*
X80000Y213760D02*
X90000D01*
X130417Y184754D02*
X130457Y184795D01*
X129754Y184754D02*
X130417D01*
X127500Y182500D02*
X129754Y184754D01*
X140000Y201240D02*
X140197D01*
X145000Y206043D02*
Y227500D01*
X130141Y201240D02*
X132297Y203396D01*
Y204797D01*
X120000Y201240D02*
X120197D01*
X129803Y193760D02*
X130000D01*
X128667Y212427D02*
X130000Y213760D01*
X126384Y196884D02*
X126679D01*
X125153Y198116D02*
X126384Y196884D01*
X106679Y198116D02*
X109803Y201240D01*
X100197Y193760D02*
X103321Y196884D01*
X106385Y198116D02*
X106679D01*
X90000Y187500D02*
X95000Y182500D01*
X90000Y187500D02*
Y193760D01*
X127500Y180000D02*
Y182500D01*
X140197Y201240D02*
X145000Y206043D01*
X123616Y246884D02*
X125000Y248269D01*
X127500Y257500D02*
X137500D01*
X125000Y255000D02*
X127500Y257500D01*
X139159Y261659D02*
X140000Y262500D01*
X141220D01*
X209690Y108450D02*
X210000Y108760D01*
X199803Y63760D02*
X210000D01*
X209370Y83130D02*
X210000Y82500D01*
X208740Y82500D02*
X209370Y83130D01*
X210000Y71240D02*
Y82500D01*
X200000Y122500D02*
X230000D01*
X200000Y102500D02*
X205950Y108450D01*
X209690D01*
X200000Y82500D02*
X208740D01*
X200000Y92500D02*
X208740D01*
X210000Y91240D01*
X180000Y87500D02*
Y97500D01*
Y87500D02*
X183740Y83760D01*
X190000D01*
X170000Y97500D02*
X180000D01*
X230000Y132500D02*
X245000D01*
X250000Y127500D01*
X230000Y142500D02*
X260000D01*
X270000Y132500D01*
X170000Y142500D02*
X200000D01*
X160000Y132500D02*
X170000Y142500D01*
X160000Y71240D02*
Y132500D01*
X175000D02*
X200000D01*
X170000Y127500D02*
X175000Y132500D01*
X170000Y97500D02*
Y127500D01*
X410000Y132500D02*
Y142500D01*
X140000Y132500D02*
Y142500D01*
X142480Y83760D02*
X150000D01*
X120000Y116240D02*
X130000D01*
X110000Y82500D02*
X118937D01*
X123321Y86884D02*
X123616D01*
X125000Y88269D02*
Y97500D01*
X120000Y102500D02*
X125000Y97500D01*
X120000Y102500D02*
Y108760D01*
X100000Y102500D02*
X110000D01*
X89803Y91240D02*
X90141D01*
X92297Y94797D02*
X100000Y102500D01*
X80197Y83760D02*
X83321Y86884D01*
X90141Y91240D02*
X92297Y93396D01*
X80000Y83760D02*
X80197D01*
X130000Y102500D02*
Y108760D01*
Y102500D02*
X140000Y92500D01*
X118937Y82500D02*
X123321Y86884D01*
X123616D02*
X125000Y88269D01*
X112480Y91240D02*
X120000D01*
X108780Y92500D02*
X111220D01*
X100000Y91240D02*
X107520D01*
X111220Y92500D02*
X112480Y91240D01*
X97703Y81604D02*
X99859Y83760D01*
X97703Y80203D02*
Y81604D01*
X70000Y91240D02*
Y132500D01*
X65000Y80000D02*
X67500Y77500D01*
X95000D01*
X67353Y89084D02*
X67844D01*
X70000Y91240D01*
X99859Y83760D02*
X100000D01*
X75153Y86884D02*
X76385Y88116D01*
X80000Y91240D02*
Y127500D01*
X76679Y88116D02*
X79803Y91240D01*
X70197Y83760D02*
X73321Y86884D01*
X85000Y132500D02*
X110000D01*
X80000Y127500D02*
X85000Y132500D01*
X70000Y83760D02*
X70197D01*
X80000Y142500D02*
X110000D01*
X70000Y132500D02*
X80000Y142500D01*
X65000Y86731D02*
X67353Y89084D01*
X329907Y161333D02*
X330000Y161240D01*
X141220Y262500D02*
X142480Y263760D01*
X137500Y257500D02*
X139159Y259159D01*
X120197Y243760D02*
X123321Y246884D01*
X142480Y263760D02*
X150000D01*
X148740Y272500D02*
X150000Y271240D01*
X140000Y272500D02*
X148740D01*
X118667Y209710D02*
Y212427D01*
X105153Y196884D02*
X106385Y198116D01*
X110197Y201240D02*
X118667Y209710D01*
X102297Y204797D02*
X110000Y212500D01*
X100141Y201240D02*
X102297Y203396D01*
X105000Y227500D02*
X110000Y232500D01*
X98667Y209710D02*
Y212230D01*
X103321Y216884D02*
X103615D01*
X98667Y212230D02*
X103321Y216884D01*
X90000Y201240D02*
X90197D01*
X103615Y216884D02*
X105000Y218269D01*
X140000Y212500D02*
Y222500D01*
X110000Y212500D02*
Y222500D01*
X105000Y218269D02*
Y227500D01*
X120000Y221240D02*
X130000D01*
X120000D02*
Y243760D01*
Y251240D02*
Y263760D01*
X130000D01*
X92297Y253396D02*
Y254797D01*
X97703Y261604D02*
X98599Y262500D01*
X118740Y272500D02*
X120000Y271240D01*
X110000Y272500D02*
X118740D01*
X102297Y260203D02*
X110000Y252500D01*
Y262500D02*
Y272500D01*
X98740D02*
X100000Y271240D01*
X90000Y272500D02*
X98740D01*
X418824Y68706D02*
X420000Y69882D01*
X455000Y122500D02*
X460000Y127500D01*
X482500D02*
X485000Y130000D01*
X460000Y127500D02*
X482500D01*
X479907Y141333D02*
X482156Y139084D01*
X482647D01*
X459690Y133450D02*
X460000Y133760D01*
X455950Y133450D02*
X459690D01*
X450827Y117028D02*
Y128327D01*
X425000Y102500D02*
X429966Y107466D01*
X429173Y112500D02*
X429966Y111707D01*
Y107466D02*
Y111707D01*
X430000Y71240D02*
X436240D01*
X440000Y75000D02*
Y83760D01*
X436240Y71240D02*
X440000Y75000D01*
X439803Y83760D02*
X440000D01*
X433321Y88116D02*
X435153D01*
X436384Y86884D01*
X410000Y82500D02*
X420000D01*
X421260Y83760D01*
X430000D01*
X420000D02*
X421260D01*
X430000D02*
X430000Y83760D01*
X418740Y92500D02*
X419370Y91870D01*
X410000Y92500D02*
X418740D01*
X410000Y102500D02*
X425000D01*
X457547Y158984D02*
X459803Y161240D01*
X450827Y107973D02*
X455000Y112146D01*
X450827Y128327D02*
X455950Y133450D01*
X460197Y161240D02*
X463321Y158116D01*
X482647Y139084D02*
X485000Y136731D01*
X467500Y147500D02*
X477500D01*
X465000Y150000D02*
X467500Y147500D01*
X446299Y157500D02*
X450827Y152972D01*
X479907Y141333D02*
Y145093D01*
X470000Y132500D02*
X478740D01*
X477500Y147500D02*
X479907Y145093D01*
X456839Y158984D02*
X457547D01*
X247500Y170000D02*
X467500D01*
X470000Y167500D01*
X235000Y182500D02*
X247500Y170000D01*
X490000Y182500D02*
Y193760D01*
X335000Y157500D02*
X341063D01*
X333321Y156884D02*
X334384D01*
X330000Y153760D02*
X330197D01*
X349134Y161240D02*
X350109Y160265D01*
Y160069D02*
Y160265D01*
X400517Y158046D02*
X401063Y157500D01*
X398194Y158046D02*
X400517D01*
X395000Y161240D02*
X398194Y158046D01*
X408937Y161240D02*
X420000D01*
X370000Y161240D02*
X370000Y161240D01*
X360000Y161240D02*
X370000D01*
X376384Y156884D02*
X376679D01*
X375153Y158116D02*
X376384Y156884D01*
X379803Y153760D02*
X380000D01*
Y161240D02*
X380000Y161240D01*
X395000D01*
X420000D02*
X420000Y161240D01*
X420197D02*
X423957Y165000D01*
X447854D02*
X450827Y162028D01*
X429173Y157500D02*
X446299D01*
X459803Y161240D02*
X460197D01*
X463616Y158116D02*
X465000Y156731D01*
X455000Y112146D02*
Y122500D01*
X429173Y157500D02*
X429173Y157500D01*
X519859Y83760D02*
X520000D01*
X517703Y80203D02*
Y81604D01*
X510000Y67500D02*
Y72500D01*
X509907Y83470D02*
X513321Y86884D01*
X509907Y79907D02*
Y83470D01*
X490000Y83760D02*
X490093Y83667D01*
X516679Y88116D02*
X519803Y91240D01*
X492500Y77500D02*
X507500D01*
X515153Y86884D02*
X516385Y88116D01*
X516679D01*
X507500Y77500D02*
X509907Y79907D01*
X460093D02*
X462500Y77500D01*
X460093Y79907D02*
Y83667D01*
X450000Y91240D02*
X450197D01*
X478740Y132500D02*
X480000Y133760D01*
X513740Y161240D02*
X517500Y165000D01*
X490000Y161240D02*
Y167500D01*
X422500Y175000D02*
X482500D01*
X490000Y167500D01*
X475000Y172500D02*
X480000Y167500D01*
X337500Y237500D02*
Y247500D01*
X325000Y225000D02*
X337500Y237500D01*
X330000Y251240D02*
X330290Y250950D01*
X334050D01*
X325000Y182500D02*
Y225000D01*
Y182500D02*
X335000Y172500D01*
X500000Y161240D02*
X513740D01*
X517500Y165000D02*
Y247500D01*
X515000Y250000D02*
X517500Y247500D01*
X511240Y250000D02*
X515000D01*
X510000Y251240D02*
X511240Y250000D01*
X415000Y182500D02*
X422500Y175000D01*
X415000Y182500D02*
Y225000D01*
X423416Y249084D02*
X425000Y247500D01*
X470000Y161240D02*
Y167500D01*
X335000Y172500D02*
X475000D01*
X480000Y161240D02*
Y167500D01*
X480197Y271240D02*
X483321Y268116D01*
X505000Y240000D02*
Y247500D01*
X486679Y266884D02*
X489803Y263760D01*
X235000Y182500D02*
Y225000D01*
X245000Y235000D01*
X240000Y251240D02*
X242156Y249084D01*
X245000Y235000D02*
Y246731D01*
X242156Y249084D02*
X242647D01*
X490093Y79907D02*
Y83667D01*
X479907Y83667D02*
X480000Y83760D01*
X456679Y86884D02*
X459896Y83667D01*
X462500Y77500D02*
X477500D01*
X479907Y79907D01*
X455153Y88116D02*
X456385Y86884D01*
X478740Y92500D02*
X480000Y91240D01*
X470000Y92500D02*
X478740D01*
X513740Y153760D02*
X517500Y150000D01*
X514050Y134050D02*
X517500Y137500D01*
Y150000D01*
X501220Y132500D02*
X502480Y133760D01*
X510000D01*
X510290Y134050D02*
X514050D01*
X509907Y104907D02*
Y108667D01*
X510000Y108760D01*
X507500Y102500D02*
X509907Y104907D01*
X470000Y132500D02*
Y142500D01*
Y82500D02*
Y92500D01*
X500000Y82500D02*
Y92500D01*
X470000Y122500D02*
X485000D01*
X490000Y127500D02*
Y133760D01*
X485000Y122500D02*
X490000Y127500D01*
X470000Y102500D02*
X507500D01*
X470000D02*
X475000Y107500D01*
Y117500D01*
X470000Y122500D02*
X475000Y117500D01*
X498726Y142446D02*
Y142500D01*
X508740D01*
X497520Y141240D02*
X498726Y142446D01*
X508740Y142500D02*
X510000Y141240D01*
X470000Y153760D02*
X513740D01*
X500000Y132500D02*
X501220D01*
X510000Y133760D02*
X510290Y134050D01*
X220000Y201240D02*
Y213760D01*
X230000Y201240D02*
X230000Y201240D01*
X220000Y201240D02*
X230000D01*
X218740Y222500D02*
X230000D01*
X157458Y201240D02*
X158718Y202500D01*
X160000D01*
X150197Y221240D02*
X152353Y223396D01*
Y223593D02*
X155958Y227198D01*
X160000Y227500D02*
X170000D01*
Y202500D02*
X180000D01*
X170000D02*
Y227500D01*
X187647Y223396D02*
Y223593D01*
Y223396D02*
X189803Y221240D01*
X200000Y197500D02*
Y222500D01*
X196260Y193760D02*
X200000Y197500D01*
X190000Y193760D02*
X196260D01*
X230000Y212500D02*
Y222500D01*
X215153Y268116D02*
X216385Y266884D01*
X235000Y237500D02*
Y247500D01*
X230000Y232500D02*
X235000Y237500D01*
X240000Y251240D02*
Y263760D01*
X230000Y262500D02*
Y272500D01*
X238740D02*
X240000Y271240D01*
X230000Y272500D02*
X238740D01*
X220141Y263760D02*
X222297Y261604D01*
X210000Y271240D02*
X210197D01*
X213321Y268116D01*
X216679Y266884D02*
X219803Y263760D01*
X213321Y268116D02*
X215153D01*
X206484Y266016D02*
X207547D01*
X180000Y232500D02*
X200000D01*
X170000Y242500D02*
X180000Y232500D01*
X170000Y242500D02*
Y252500D01*
X198780Y262500D02*
X200000D01*
X180000Y263760D02*
X197520D01*
X185546Y258046D02*
X204089D01*
X209803Y263760D02*
X210000D01*
X198740Y271240D02*
X200000Y272500D01*
X180000Y271240D02*
X198740D01*
X180000Y263760D02*
X180000Y263760D01*
X170000Y263760D02*
X180000D01*
X163740Y271240D02*
X170000D01*
X160000Y267500D02*
X163740Y271240D01*
X160000Y252500D02*
Y267500D01*
X387547Y266016D02*
X389803Y263760D01*
X296484Y266016D02*
X297547D01*
X299803Y263760D01*
X270000Y252500D02*
X275000Y257500D01*
X270325Y227175D02*
X274066D01*
X279803Y221240D02*
X280000D01*
X260000Y242500D02*
Y252500D01*
X270000Y232500D02*
X290000D01*
X260000Y242500D02*
X270000Y232500D01*
Y192500D02*
X275000Y187500D01*
X270000Y192500D02*
Y202500D01*
X240000Y201240D02*
X247458D01*
X248718Y202500D01*
X245000Y227500D02*
X260000D01*
X240141Y221240D02*
X242297Y223396D01*
Y224797D02*
X245000Y227500D01*
X260000Y202500D02*
Y227500D01*
Y202500D02*
X270000D01*
X290000Y197500D02*
Y222500D01*
X286260Y193760D02*
X290000Y197500D01*
X280000Y193760D02*
X286260D01*
X320000Y201240D02*
X320000Y201240D01*
X310000Y201240D02*
X320000D01*
X310000D02*
Y213760D01*
X320000Y212500D02*
Y222500D01*
X310000Y221240D02*
X317520D01*
X318780Y222500D01*
X320000Y262500D02*
Y272500D01*
X328740D01*
X330000Y271240D01*
Y251240D02*
Y263760D01*
X312353Y261407D02*
X319137Y254623D01*
X325000Y237500D02*
Y247500D01*
X320000Y232500D02*
X325000Y237500D01*
X319137Y253363D02*
Y254623D01*
X303321Y268116D02*
X305153D01*
X319137Y253363D02*
X325000Y247500D01*
X300000Y271240D02*
X300197D01*
X303321Y268116D01*
X293543Y257500D02*
X299803Y263760D01*
X271260Y262500D02*
X290000D01*
X270000Y263760D02*
X271260Y262500D01*
X288740Y271240D02*
X290000Y272500D01*
X270000Y271240D02*
X288740D01*
X260000Y263760D02*
X270000D01*
X260000Y263760D02*
X260000Y263760D01*
X253740Y271240D02*
X260000D01*
X250000Y267500D02*
X253740Y271240D01*
X250000Y252500D02*
Y267500D01*
X490000Y221240D02*
X497520D01*
X498780Y222500D02*
X500000D01*
X490000Y201240D02*
Y213760D01*
X400000Y201240D02*
Y213760D01*
Y221240D02*
X407520D01*
X408780Y222500D01*
X400000Y201240D02*
X401240Y200000D01*
X408760D02*
X410000Y201240D01*
X401240Y200000D02*
X408760D01*
X367647Y223396D02*
Y223593D01*
Y223396D02*
X369803Y221240D01*
X340000Y227500D02*
X350000D01*
X332353Y223593D02*
X335958Y227198D01*
X339698D02*
X340000Y227500D01*
X338718Y202500D02*
X340000D01*
X330000Y201240D02*
X337458D01*
X360000Y190000D02*
X365000Y185000D01*
X360000Y190000D02*
Y202500D01*
X380000Y197500D02*
Y222500D01*
X376260Y193760D02*
X380000Y197500D01*
X370000Y193760D02*
X376260D01*
X350000Y202500D02*
X360000D01*
X350000D02*
Y227500D01*
Y240000D02*
Y252500D01*
Y240000D02*
X357500Y232500D01*
X380000D01*
X500841Y235841D02*
X505000Y240000D01*
X485153Y268116D02*
X486384Y266884D01*
X486679D01*
X383543Y257500D02*
X389803Y263760D01*
X386484Y266016D02*
X387547D01*
X400338Y263563D02*
X402297Y261604D01*
X390000Y271240D02*
X390197D01*
X396385Y266884D02*
X396679D01*
X400000Y263563D02*
X400338D01*
X360000Y252500D02*
X365000Y257500D01*
X420000Y251240D02*
Y263760D01*
X402297Y260203D02*
Y261604D01*
X415000Y237500D02*
Y247500D01*
X410000Y232500D02*
X415000Y237500D01*
X410000Y212500D02*
Y222500D01*
X408780D02*
X410000D01*
X418740Y272500D02*
X420000Y271240D01*
X410000Y272500D02*
X418740D01*
X410000Y262500D02*
Y272500D01*
X395153Y268116D02*
X396385Y266884D01*
X378740Y271240D02*
X380000Y272500D01*
X360000Y271240D02*
X378740D01*
X361260Y262500D02*
X380000D01*
X360000Y263760D02*
X361260Y262500D01*
X350000Y263760D02*
X360000D01*
X340000Y252500D02*
Y266240D01*
X345000Y271240D02*
X350000D01*
X340000Y266240D02*
X345000Y271240D01*
X466260Y193760D02*
X470000Y197500D01*
X451260Y262500D02*
X470000D01*
X451260Y272500D02*
X470000D01*
X460000Y193760D02*
X466260D01*
X450000Y192500D02*
X455000Y187500D01*
X450000Y192500D02*
Y202500D01*
Y252500D02*
X455000Y257500D01*
X500000Y201240D02*
X500000Y201240D01*
X490000Y201240D02*
X500000D01*
X510000Y251240D02*
Y263760D01*
X508740Y272500D02*
X510000Y271240D01*
X500000Y272500D02*
X508740D01*
X497520Y221240D02*
X498780Y222500D01*
X500000Y212500D02*
Y222500D01*
Y262500D02*
Y272500D01*
X459803Y221240D02*
X460000D01*
X450325Y227175D02*
X454066D01*
X460000Y201240D02*
Y213760D01*
X440000Y202500D02*
X450000D01*
X427458Y201240D02*
X428718Y202500D01*
X430000D01*
X469159Y251659D02*
X470000Y252500D01*
X420197Y221240D02*
X422353Y223396D01*
X430000Y227500D02*
X440000D01*
Y202500D02*
Y227500D01*
X433740Y271240D02*
X440000D01*
X430000Y267500D02*
X433740Y271240D01*
X430000Y252500D02*
Y267500D01*
X440000Y263760D02*
X440000Y263760D01*
X450000D01*
X451260Y262500D01*
X450000Y271240D02*
X451260Y272500D01*
D31*
X320000Y160000D02*
D03*
X500000Y182500D02*
D03*
X520000Y67500D02*
D03*
X470000D02*
D03*
X360000D02*
D03*
X182500D02*
D03*
X260000D02*
D03*
X230000Y182500D02*
D03*
X320000D02*
D03*
X137500D02*
D03*
X110000D02*
D03*
X410000D02*
D03*
D32*
X360000Y202500D02*
D03*
Y227500D02*
D03*
Y252500D02*
D03*
X450000Y202500D02*
D03*
Y227500D02*
D03*
Y252500D02*
D03*
X360000Y97500D02*
D03*
Y122500D02*
D03*
X270000Y97500D02*
D03*
Y122500D02*
D03*
X180000Y97500D02*
D03*
Y122500D02*
D03*
X90000D02*
D03*
X270000Y202500D02*
D03*
Y227500D02*
D03*
Y252500D02*
D03*
X180000Y202500D02*
D03*
Y227500D02*
D03*
Y252500D02*
D03*
D33*
X350000Y202500D02*
D03*
X340000D02*
D03*
X350000Y227500D02*
D03*
X340000D02*
D03*
X350000Y252500D02*
D03*
X340000D02*
D03*
X440000Y202500D02*
D03*
X430000D02*
D03*
X440000Y227500D02*
D03*
X430000D02*
D03*
X440000Y252500D02*
D03*
X430000D02*
D03*
X340000Y97500D02*
D03*
X350000D02*
D03*
X340000Y122500D02*
D03*
X350000D02*
D03*
X250000Y97500D02*
D03*
X260000D02*
D03*
X250000Y122500D02*
D03*
X260000D02*
D03*
X160000Y97500D02*
D03*
X170000D02*
D03*
X160000Y122500D02*
D03*
X170000D02*
D03*
X70000D02*
D03*
X80000D02*
D03*
X250000Y202500D02*
D03*
X260000D02*
D03*
X250000Y227500D02*
D03*
X260000D02*
D03*
X250000Y252500D02*
D03*
X260000D02*
D03*
X160000Y202500D02*
D03*
X170000D02*
D03*
X160000Y227500D02*
D03*
X170000D02*
D03*
X160000Y252500D02*
D03*
X170000D02*
D03*
D34*
X500000Y82500D02*
D03*
Y92500D02*
D03*
Y102500D02*
D03*
Y112500D02*
D03*
Y122500D02*
D03*
Y132500D02*
D03*
Y142500D02*
D03*
X470000Y82500D02*
D03*
Y92500D02*
D03*
Y102500D02*
D03*
Y112500D02*
D03*
Y122500D02*
D03*
Y132500D02*
D03*
X410000Y82500D02*
D03*
Y92500D02*
D03*
Y102500D02*
D03*
Y112500D02*
D03*
Y122500D02*
D03*
Y132500D02*
D03*
Y142500D02*
D03*
X380000Y82500D02*
D03*
Y92500D02*
D03*
Y102500D02*
D03*
Y112500D02*
D03*
Y122500D02*
D03*
Y132500D02*
D03*
X230000Y82500D02*
D03*
Y92500D02*
D03*
Y102500D02*
D03*
Y112500D02*
D03*
Y122500D02*
D03*
Y132500D02*
D03*
Y142500D02*
D03*
X200000Y82500D02*
D03*
Y92500D02*
D03*
Y102500D02*
D03*
Y112500D02*
D03*
Y122500D02*
D03*
Y132500D02*
D03*
X140000Y82500D02*
D03*
Y92500D02*
D03*
Y102500D02*
D03*
Y112500D02*
D03*
Y122500D02*
D03*
Y132500D02*
D03*
Y142500D02*
D03*
X110000Y82500D02*
D03*
Y92500D02*
D03*
Y102500D02*
D03*
Y112500D02*
D03*
Y122500D02*
D03*
Y132500D02*
D03*
X230000Y212500D02*
D03*
Y222500D02*
D03*
Y232500D02*
D03*
Y242500D02*
D03*
Y252500D02*
D03*
Y262500D02*
D03*
Y272500D02*
D03*
X200000Y212500D02*
D03*
Y222500D02*
D03*
Y232500D02*
D03*
Y242500D02*
D03*
Y252500D02*
D03*
Y262500D02*
D03*
X110000D02*
D03*
Y252500D02*
D03*
Y242500D02*
D03*
Y232500D02*
D03*
Y222500D02*
D03*
Y212500D02*
D03*
X140000Y272500D02*
D03*
Y262500D02*
D03*
Y252500D02*
D03*
Y242500D02*
D03*
Y232500D02*
D03*
Y222500D02*
D03*
Y212500D02*
D03*
X470000Y262500D02*
D03*
Y252500D02*
D03*
Y242500D02*
D03*
Y232500D02*
D03*
Y222500D02*
D03*
Y212500D02*
D03*
X500000Y272500D02*
D03*
Y262500D02*
D03*
Y252500D02*
D03*
Y242500D02*
D03*
Y232500D02*
D03*
Y222500D02*
D03*
Y212500D02*
D03*
X290000Y262500D02*
D03*
Y252500D02*
D03*
Y242500D02*
D03*
Y232500D02*
D03*
Y222500D02*
D03*
Y212500D02*
D03*
X320000Y272500D02*
D03*
Y262500D02*
D03*
Y252500D02*
D03*
Y242500D02*
D03*
Y232500D02*
D03*
Y222500D02*
D03*
Y212500D02*
D03*
X410000D02*
D03*
Y222500D02*
D03*
Y232500D02*
D03*
Y242500D02*
D03*
Y252500D02*
D03*
Y262500D02*
D03*
Y272500D02*
D03*
X380000Y212500D02*
D03*
Y222500D02*
D03*
Y232500D02*
D03*
Y242500D02*
D03*
Y252500D02*
D03*
Y262500D02*
D03*
D35*
X470000Y142500D02*
D03*
X380000D02*
D03*
X200000D02*
D03*
X110000D02*
D03*
X90000Y272500D02*
D03*
X200000D02*
D03*
X110000D02*
D03*
X470000D02*
D03*
X290000D02*
D03*
X380000D02*
D03*
D36*
X295276Y39370D02*
D03*
X305276D02*
D03*
X315276D02*
D03*
X325276D02*
D03*
X285276D02*
D03*
X275276D02*
D03*
X265276D02*
D03*
X295276Y29370D02*
D03*
X305276D02*
D03*
X315276D02*
D03*
X285276D02*
D03*
X275276D02*
D03*
X265276D02*
D03*
D37*
X325276D02*
D03*
D39*
X90000Y262500D02*
D03*
D40*
X15000Y15000D02*
D03*
X90000Y112500D02*
D03*
D41*
X10000Y285000D02*
D03*
X580000Y10000D02*
D03*
Y285000D02*
D03*
X320000Y280000D02*
D03*
X410000D02*
D03*
X230000D02*
D03*
D42*
X280000Y221240D02*
D03*
Y213760D02*
D03*
X420000Y153760D02*
D03*
Y161240D02*
D03*
X390000Y133760D02*
D03*
Y141240D02*
D03*
Y83760D02*
D03*
Y91240D02*
D03*
X370000Y106260D02*
D03*
Y113740D02*
D03*
X390000Y63760D02*
D03*
Y71240D02*
D03*
X380000Y63760D02*
D03*
Y71240D02*
D03*
X370000Y91240D02*
D03*
Y83760D02*
D03*
X330000Y83760D02*
D03*
Y91240D02*
D03*
X230000Y63760D02*
D03*
Y71240D02*
D03*
X220000Y63760D02*
D03*
Y71240D02*
D03*
Y108760D02*
D03*
Y116240D02*
D03*
Y83760D02*
D03*
Y91240D02*
D03*
X240000Y91240D02*
D03*
Y83760D02*
D03*
X280000Y83760D02*
D03*
Y91240D02*
D03*
X200000Y63760D02*
D03*
Y71240D02*
D03*
X210000Y63760D02*
D03*
Y71240D02*
D03*
X240000Y116240D02*
D03*
Y108760D02*
D03*
X190000Y108760D02*
D03*
Y116240D02*
D03*
X210000Y108760D02*
D03*
Y116240D02*
D03*
Y83760D02*
D03*
Y91240D02*
D03*
X190000Y91240D02*
D03*
Y83760D02*
D03*
X160000Y63760D02*
D03*
Y71240D02*
D03*
X150000Y83760D02*
D03*
Y91240D02*
D03*
X130000Y116240D02*
D03*
Y108760D02*
D03*
X150000Y63760D02*
D03*
Y71240D02*
D03*
X140000Y71240D02*
D03*
Y63760D02*
D03*
X120000Y133760D02*
D03*
Y141240D02*
D03*
Y116240D02*
D03*
Y108760D02*
D03*
X150000Y108760D02*
D03*
Y116240D02*
D03*
X100000Y108760D02*
D03*
Y116240D02*
D03*
X120000Y83760D02*
D03*
Y91240D02*
D03*
X100000Y91240D02*
D03*
Y83760D02*
D03*
X90000Y91240D02*
D03*
Y83760D02*
D03*
X70000Y91240D02*
D03*
Y83760D02*
D03*
X80000Y83760D02*
D03*
Y91240D02*
D03*
X90000Y213760D02*
D03*
Y221240D02*
D03*
X80000Y213760D02*
D03*
Y221240D02*
D03*
X150000Y271240D02*
D03*
Y263760D02*
D03*
X130000Y201240D02*
D03*
Y193760D02*
D03*
Y243760D02*
D03*
Y251240D02*
D03*
X140000Y193760D02*
D03*
Y201240D02*
D03*
X110000Y193760D02*
D03*
Y201240D02*
D03*
X120000Y193760D02*
D03*
Y201240D02*
D03*
X100000Y201240D02*
D03*
Y193760D02*
D03*
Y213760D02*
D03*
Y221240D02*
D03*
X90000Y201240D02*
D03*
Y193760D02*
D03*
X130000Y213760D02*
D03*
Y221240D02*
D03*
X120000Y213760D02*
D03*
Y221240D02*
D03*
Y251240D02*
D03*
Y243760D02*
D03*
X130000Y271240D02*
D03*
Y263760D02*
D03*
X120000Y271240D02*
D03*
Y263760D02*
D03*
X90000Y251240D02*
D03*
Y243760D02*
D03*
X150000Y243760D02*
D03*
Y251240D02*
D03*
X100000Y251240D02*
D03*
Y243760D02*
D03*
Y263760D02*
D03*
Y271240D02*
D03*
X480000Y68740D02*
D03*
Y61260D02*
D03*
X490000Y61260D02*
D03*
Y68740D02*
D03*
X440000Y83760D02*
D03*
Y91240D02*
D03*
X390000Y116240D02*
D03*
Y108760D02*
D03*
X420000Y108760D02*
D03*
Y116240D02*
D03*
X430000Y71240D02*
D03*
Y63760D02*
D03*
Y91240D02*
D03*
Y83760D02*
D03*
X400000Y108760D02*
D03*
Y116240D02*
D03*
X420000Y83760D02*
D03*
Y91240D02*
D03*
X460000Y133760D02*
D03*
Y141240D02*
D03*
X370000Y153760D02*
D03*
Y161240D02*
D03*
X360000Y161240D02*
D03*
Y153760D02*
D03*
X380000Y161240D02*
D03*
Y153760D02*
D03*
X330000Y161240D02*
D03*
Y153760D02*
D03*
X390000Y153760D02*
D03*
Y161240D02*
D03*
X520000Y83760D02*
D03*
Y91240D02*
D03*
X510000Y83760D02*
D03*
Y91240D02*
D03*
X490000Y83760D02*
D03*
Y91240D02*
D03*
X450000Y83760D02*
D03*
Y91240D02*
D03*
X460000Y83760D02*
D03*
Y91240D02*
D03*
X480000Y83760D02*
D03*
Y91240D02*
D03*
X460000Y161240D02*
D03*
Y153760D02*
D03*
X480000Y141240D02*
D03*
Y133760D02*
D03*
X510000Y108760D02*
D03*
Y116240D02*
D03*
X460000Y116240D02*
D03*
Y108760D02*
D03*
X490000Y108760D02*
D03*
Y116240D02*
D03*
Y133760D02*
D03*
Y141240D02*
D03*
X510000Y141240D02*
D03*
Y133760D02*
D03*
X470000Y153760D02*
D03*
Y161240D02*
D03*
X490000Y153760D02*
D03*
Y161240D02*
D03*
X480000Y153760D02*
D03*
Y161240D02*
D03*
X500000Y153760D02*
D03*
Y161240D02*
D03*
X230000Y193760D02*
D03*
Y201240D02*
D03*
X220000Y201240D02*
D03*
Y193760D02*
D03*
X190000Y213760D02*
D03*
Y221240D02*
D03*
Y193760D02*
D03*
Y201240D02*
D03*
X150000Y213760D02*
D03*
Y221240D02*
D03*
X240000Y271240D02*
D03*
Y263760D02*
D03*
X210000Y263760D02*
D03*
Y271240D02*
D03*
X220000Y271240D02*
D03*
Y263760D02*
D03*
Y221240D02*
D03*
Y213760D02*
D03*
X240000Y243760D02*
D03*
Y251240D02*
D03*
X170000Y271240D02*
D03*
Y263760D02*
D03*
X150000Y193760D02*
D03*
Y201240D02*
D03*
X220000Y251240D02*
D03*
Y243760D02*
D03*
X190000Y251240D02*
D03*
Y243760D02*
D03*
X310000Y251240D02*
D03*
Y243760D02*
D03*
X300000Y263760D02*
D03*
Y271240D02*
D03*
X310000Y201240D02*
D03*
Y193760D02*
D03*
Y221240D02*
D03*
Y213760D02*
D03*
X240000Y213760D02*
D03*
Y221240D02*
D03*
X330000Y271240D02*
D03*
Y263760D02*
D03*
X310000Y271240D02*
D03*
Y263760D02*
D03*
X330000Y243760D02*
D03*
Y251240D02*
D03*
X320000Y193760D02*
D03*
Y201240D02*
D03*
X240000Y193760D02*
D03*
Y201240D02*
D03*
X300000Y251240D02*
D03*
Y243760D02*
D03*
X280000Y193760D02*
D03*
Y201240D02*
D03*
X270000Y263760D02*
D03*
Y271240D02*
D03*
X260000Y271240D02*
D03*
Y263760D02*
D03*
X400000D02*
D03*
Y271240D02*
D03*
X420000Y263760D02*
D03*
Y271240D02*
D03*
Y251240D02*
D03*
Y243760D02*
D03*
X390000Y271240D02*
D03*
Y263760D02*
D03*
X180000Y271240D02*
D03*
Y263760D02*
D03*
X400000Y213760D02*
D03*
Y221240D02*
D03*
X410000Y201240D02*
D03*
Y193760D02*
D03*
X400000Y193760D02*
D03*
Y201240D02*
D03*
Y243760D02*
D03*
Y251240D02*
D03*
X390000Y243760D02*
D03*
Y251240D02*
D03*
X330000Y201240D02*
D03*
Y193760D02*
D03*
Y221240D02*
D03*
Y213760D02*
D03*
X370000Y221240D02*
D03*
Y213760D02*
D03*
Y201240D02*
D03*
Y193760D02*
D03*
X360000Y271240D02*
D03*
Y263760D02*
D03*
X350000Y263760D02*
D03*
Y271240D02*
D03*
X500000Y201240D02*
D03*
Y193760D02*
D03*
X510000Y251240D02*
D03*
Y243760D02*
D03*
Y263760D02*
D03*
Y271240D02*
D03*
X490000Y193760D02*
D03*
Y201240D02*
D03*
Y213760D02*
D03*
Y221240D02*
D03*
Y263760D02*
D03*
Y271240D02*
D03*
X480000Y271240D02*
D03*
Y263760D02*
D03*
X490000Y243760D02*
D03*
Y251240D02*
D03*
X480000Y243760D02*
D03*
Y251240D02*
D03*
X420000Y221240D02*
D03*
Y213760D02*
D03*
Y201240D02*
D03*
Y193760D02*
D03*
X460000Y221240D02*
D03*
Y213760D02*
D03*
Y201240D02*
D03*
Y193760D02*
D03*
X450000Y271240D02*
D03*
Y263760D02*
D03*
X440000Y263760D02*
D03*
Y271240D02*
D03*
D43*
X429173Y112500D02*
D03*
Y157500D02*
D03*
D44*
X450827Y117028D02*
D03*
Y107973D02*
D03*
Y152972D02*
D03*
Y162028D02*
D03*
D45*
X410000Y55118D02*
D03*
Y69882D02*
D03*
X420000Y55118D02*
D03*
Y69882D02*
D03*
D46*
X348937Y161240D02*
D03*
Y153760D02*
D03*
X341063Y157500D02*
D03*
X408937Y161240D02*
D03*
Y153760D02*
D03*
X401063Y157500D02*
D03*
D47*
X310000Y160000D02*
D03*
X490000Y182500D02*
D03*
X510000Y67500D02*
D03*
X460000D02*
D03*
X350000D02*
D03*
X172500D02*
D03*
X250000D02*
D03*
X220000Y182500D02*
D03*
X310000D02*
D03*
X127500D02*
D03*
X100000D02*
D03*
X400000D02*
D03*
M02*
