G04*
G04 #@! TF.GenerationSoftware,Altium Limited,Altium Designer,20.0.14 (345)*
G04*
G04 Layer_Color=16711935*
%FSLAX25Y25*%
%MOIN*%
G70*
G01*
G75*
%ADD10C,0.00787*%
%ADD12C,0.00500*%
%ADD53C,0.00394*%
D10*
X302835Y160000D02*
X302047D01*
X302835D01*
X373031Y202500D02*
X372244D01*
X373031D01*
Y227500D02*
X372244D01*
X373031D01*
Y252500D02*
X372244D01*
X373031D01*
X463031Y202500D02*
X462244D01*
X463031D01*
Y227500D02*
X462244D01*
X463031D01*
Y252500D02*
X462244D01*
X463031D01*
X482835Y182500D02*
X482047D01*
X482835D01*
X502835Y67500D02*
X502047D01*
X502835D01*
X452835D02*
X452047D01*
X452835D01*
X342835D02*
X342047D01*
X342835D01*
X373031Y97500D02*
X372244D01*
X373031D01*
Y122500D02*
X372244D01*
X373031D01*
X343701Y28858D02*
X342913D01*
X343701D01*
X165335Y67500D02*
X164547D01*
X165335D01*
X242835D02*
X242047D01*
X242835D01*
X283032Y97500D02*
X282244D01*
X283032D01*
Y122500D02*
X282244D01*
X283032D01*
X193032Y97500D02*
X192244D01*
X193032D01*
Y122500D02*
X192244D01*
X193032D01*
X103032D02*
X102244D01*
X103032D01*
X212835Y182500D02*
X212047D01*
X212835D01*
X302835D02*
X302047D01*
X302835D01*
X283032Y202500D02*
X282244D01*
X283032D01*
Y227500D02*
X282244D01*
X283032D01*
Y252500D02*
X282244D01*
X283032D01*
X193032Y202500D02*
X192244D01*
X193032D01*
Y227500D02*
X192244D01*
X193032D01*
Y252500D02*
X192244D01*
X193032D01*
X120335Y182500D02*
X119547D01*
X120335D01*
X92835D02*
X92047D01*
X92835D01*
X90394Y280059D02*
X89606D01*
X90394D01*
X392835Y182500D02*
X392047D01*
X392835D01*
X484252Y47244D02*
Y57756D01*
Y47244D02*
X525748D01*
Y57756D01*
X484252D02*
X525748D01*
X413150Y55216D02*
Y69784D01*
X406850D02*
X413150D01*
X406850Y55216D02*
Y69784D01*
Y55216D02*
X413150D01*
X423150D02*
Y69784D01*
X416850D02*
X423150D01*
X416850Y55216D02*
Y69784D01*
Y55216D02*
X423150D01*
D12*
X305000Y155000D02*
Y165000D01*
X325000D01*
Y155000D02*
Y165000D01*
X305000Y155000D02*
X325000D01*
X330512Y193248D02*
Y215886D01*
Y193248D02*
X369488D01*
Y215886D01*
X330512D02*
X369488D01*
X330512Y218248D02*
Y240886D01*
Y218248D02*
X369488D01*
Y240886D01*
X330512D02*
X369488D01*
X330512Y243248D02*
Y265886D01*
Y243248D02*
X369488D01*
Y265886D01*
X330512D02*
X369488D01*
X420512Y193248D02*
Y215886D01*
Y193248D02*
X459488D01*
Y215886D01*
X420512D02*
X459488D01*
X420512Y218248D02*
Y240886D01*
Y218248D02*
X459488D01*
Y240886D01*
X420512D02*
X459488D01*
X420512Y243248D02*
Y265886D01*
Y243248D02*
X459488D01*
Y265886D01*
X420512D02*
X459488D01*
X485000Y177500D02*
Y187500D01*
X505000D01*
Y177500D02*
Y187500D01*
X485000Y177500D02*
X505000D01*
Y62500D02*
Y72500D01*
X525000D01*
Y62500D02*
Y72500D01*
X505000Y62500D02*
X525000D01*
X455000D02*
Y72500D01*
X475000D01*
Y62500D02*
Y72500D01*
X455000Y62500D02*
X475000D01*
X345000D02*
Y72500D01*
X365000D01*
Y62500D02*
Y72500D01*
X345000Y62500D02*
X365000D01*
X330512Y110886D02*
X369488D01*
Y88248D02*
Y110886D01*
X330512Y88248D02*
X369488D01*
X330512D02*
Y110886D01*
Y135886D02*
X369488D01*
Y113248D02*
Y135886D01*
X330512Y113248D02*
X369488D01*
X330512D02*
Y135886D01*
X250276Y22559D02*
Y46181D01*
Y22559D02*
X287992D01*
X302559D01*
X340276D01*
Y46181D01*
X250276D02*
X340276D01*
X287992Y18622D02*
Y22559D01*
Y18622D02*
X302559D01*
Y22559D01*
X167500Y62500D02*
Y72500D01*
X187500D01*
Y62500D02*
Y72500D01*
X167500Y62500D02*
X187500D01*
X245000D02*
Y72500D01*
X265000D01*
Y62500D02*
Y72500D01*
X245000Y62500D02*
X265000D01*
X240512Y110886D02*
X279488D01*
Y88248D02*
Y110886D01*
X240512Y88248D02*
X279488D01*
X240512D02*
Y110886D01*
Y135886D02*
X279488D01*
Y113248D02*
Y135886D01*
X240512Y113248D02*
X279488D01*
X240512D02*
Y135886D01*
X150512Y110886D02*
X189488D01*
Y88248D02*
Y110886D01*
X150512Y88248D02*
X189488D01*
X150512D02*
Y110886D01*
Y135886D02*
X189488D01*
Y113248D02*
Y135886D01*
X150512Y113248D02*
X189488D01*
X150512D02*
Y135886D01*
X60512D02*
X99488D01*
Y113248D02*
Y135886D01*
X60512Y113248D02*
X99488D01*
X60512D02*
Y135886D01*
X215000Y177500D02*
Y187500D01*
X235000D01*
Y177500D02*
Y187500D01*
X215000Y177500D02*
X235000D01*
X305000D02*
Y187500D01*
X325000D01*
Y177500D02*
Y187500D01*
X305000Y177500D02*
X325000D01*
X240512Y215886D02*
X279488D01*
Y193248D02*
Y215886D01*
X240512Y193248D02*
X279488D01*
X240512D02*
Y215886D01*
Y240886D02*
X279488D01*
Y218248D02*
Y240886D01*
X240512Y218248D02*
X279488D01*
X240512D02*
Y240886D01*
Y265886D02*
X279488D01*
Y243248D02*
Y265886D01*
X240512Y243248D02*
X279488D01*
X240512D02*
Y265886D01*
X150512Y215886D02*
X189488D01*
Y193248D02*
Y215886D01*
X150512Y193248D02*
X189488D01*
X150512D02*
Y215886D01*
Y240886D02*
X189488D01*
Y218248D02*
Y240886D01*
X150512Y218248D02*
X189488D01*
X150512D02*
Y240886D01*
Y265886D02*
X189488D01*
Y243248D02*
Y265886D01*
X150512Y243248D02*
X189488D01*
X150512D02*
Y265886D01*
X122500Y177500D02*
Y187500D01*
X142500D01*
Y177500D02*
Y187500D01*
X122500Y177500D02*
X142500D01*
X95000D02*
Y187500D01*
X115000D01*
Y177500D02*
Y187500D01*
X95000Y177500D02*
X115000D01*
X85000Y277500D02*
X95000D01*
Y257500D02*
Y277500D01*
X85000Y257500D02*
X95000D01*
X85000D02*
Y277500D01*
X395000Y177500D02*
X415000D01*
Y187500D01*
X395000D02*
X415000D01*
X395000Y177500D02*
Y187500D01*
D53*
X277343Y213366D02*
Y221634D01*
X282658Y213366D02*
Y221634D01*
X277343D02*
X282658D01*
X277343Y213366D02*
X282658D01*
X431142Y121358D02*
X448858D01*
X431142Y103642D02*
Y121358D01*
Y103642D02*
X448858D01*
Y121358D01*
X417343Y153366D02*
X422657D01*
X417343Y161634D02*
X422657D01*
Y153366D02*
Y161634D01*
X417343Y153366D02*
Y161634D01*
X448858Y148642D02*
Y166358D01*
X431142Y148642D02*
X448858D01*
X431142D02*
Y166358D01*
X448858D01*
X465300Y77750D02*
Y147250D01*
X504700Y77750D02*
Y147250D01*
X465300Y77750D02*
X504700D01*
X465300Y147250D02*
X504700D01*
X375300Y77750D02*
Y147250D01*
X414700Y77750D02*
Y147250D01*
X375300Y77750D02*
X414700D01*
X375300Y147250D02*
X414700D01*
X195300Y77750D02*
Y147250D01*
X234700Y77750D02*
Y147250D01*
X195300Y77750D02*
X234700D01*
X195300Y147250D02*
X234700D01*
X105300Y77750D02*
Y147250D01*
X144700Y77750D02*
Y147250D01*
X105300Y77750D02*
X144700D01*
X105300Y147250D02*
X144700D01*
X195300Y207750D02*
Y277250D01*
X234700Y207750D02*
Y277250D01*
X195300Y207750D02*
X234700D01*
X195300Y277250D02*
X234700D01*
X392657Y133366D02*
Y141634D01*
X387343Y133366D02*
Y141634D01*
Y133366D02*
X392657D01*
X387343Y141634D02*
X392657D01*
Y83366D02*
Y91634D01*
X387343Y83366D02*
Y91634D01*
Y83366D02*
X392657D01*
X387343Y91634D02*
X392657D01*
X372657Y105866D02*
Y114134D01*
X367342Y105866D02*
Y114134D01*
Y105866D02*
X372657D01*
X367342Y114134D02*
X372657D01*
X392657Y63366D02*
Y71634D01*
X387343Y63366D02*
Y71634D01*
Y63366D02*
X392657D01*
X387343Y71634D02*
X392657D01*
X382658Y63366D02*
Y71634D01*
X377343Y63366D02*
Y71634D01*
Y63366D02*
X382658D01*
X377343Y71634D02*
X382658D01*
X367342Y83366D02*
Y91634D01*
X372657Y83366D02*
Y91634D01*
X367342D02*
X372657D01*
X367342Y83366D02*
X372657D01*
X332658D02*
Y91634D01*
X327343Y83366D02*
Y91634D01*
Y83366D02*
X332658D01*
X327343Y91634D02*
X332658D01*
X232658Y63366D02*
Y71634D01*
X227343Y63366D02*
Y71634D01*
Y63366D02*
X232658D01*
X227343Y71634D02*
X232658D01*
X222657Y63366D02*
Y71634D01*
X217342Y63366D02*
Y71634D01*
Y63366D02*
X222657D01*
X217342Y71634D02*
X222657D01*
Y108366D02*
Y116634D01*
X217342Y108366D02*
Y116634D01*
Y108366D02*
X222657D01*
X217342Y116634D02*
X222657D01*
Y83366D02*
Y91634D01*
X217342Y83366D02*
Y91634D01*
Y83366D02*
X222657D01*
X217342Y91634D02*
X222657D01*
X237343Y83366D02*
Y91634D01*
X242657Y83366D02*
Y91634D01*
X237343D02*
X242657D01*
X237343Y83366D02*
X242657D01*
X282658D02*
Y91634D01*
X277343Y83366D02*
Y91634D01*
Y83366D02*
X282658D01*
X277343Y91634D02*
X282658D01*
X202658Y63366D02*
Y71634D01*
X197343Y63366D02*
Y71634D01*
Y63366D02*
X202658D01*
X197343Y71634D02*
X202658D01*
X212657Y63366D02*
Y71634D01*
X207343Y63366D02*
Y71634D01*
Y63366D02*
X212657D01*
X207343Y71634D02*
X212657D01*
X237343Y108366D02*
Y116634D01*
X242657Y108366D02*
Y116634D01*
X237343D02*
X242657D01*
X237343Y108366D02*
X242657D01*
X192657D02*
Y116634D01*
X187343Y108366D02*
Y116634D01*
Y108366D02*
X192657D01*
X187343Y116634D02*
X192657D01*
X212657Y108366D02*
Y116634D01*
X207343Y108366D02*
Y116634D01*
Y108366D02*
X212657D01*
X207343Y116634D02*
X212657D01*
Y83366D02*
Y91634D01*
X207343Y83366D02*
Y91634D01*
Y83366D02*
X212657D01*
X207343Y91634D02*
X212657D01*
X187343Y83366D02*
Y91634D01*
X192657Y83366D02*
Y91634D01*
X187343D02*
X192657D01*
X187343Y83366D02*
X192657D01*
X162657Y63366D02*
Y71634D01*
X157343Y63366D02*
Y71634D01*
Y63366D02*
X162657D01*
X157343Y71634D02*
X162657D01*
X152657Y83366D02*
Y91634D01*
X147343Y83366D02*
Y91634D01*
Y83366D02*
X152657D01*
X147343Y91634D02*
X152657D01*
X127342Y108366D02*
Y116634D01*
X132658Y108366D02*
Y116634D01*
X127342D02*
X132658D01*
X127342Y108366D02*
X132658D01*
X152657Y63366D02*
Y71634D01*
X147343Y63366D02*
Y71634D01*
Y63366D02*
X152657D01*
X147343Y71634D02*
X152657D01*
X137343Y63366D02*
Y71634D01*
X142657Y63366D02*
Y71634D01*
X137343D02*
X142657D01*
X137343Y63366D02*
X142657D01*
X122658Y133366D02*
Y141634D01*
X117342Y133366D02*
Y141634D01*
Y133366D02*
X122658D01*
X117342Y141634D02*
X122658D01*
X117342Y108366D02*
Y116634D01*
X122658Y108366D02*
Y116634D01*
X117342D02*
X122658D01*
X117342Y108366D02*
X122658D01*
X152657D02*
Y116634D01*
X147343Y108366D02*
Y116634D01*
Y108366D02*
X152657D01*
X147343Y116634D02*
X152657D01*
X102657Y108366D02*
Y116634D01*
X97342Y108366D02*
Y116634D01*
Y108366D02*
X102657D01*
X97342Y116634D02*
X102657D01*
X122658Y83366D02*
Y91634D01*
X117342Y83366D02*
Y91634D01*
Y83366D02*
X122658D01*
X117342Y91634D02*
X122658D01*
X97342Y83366D02*
Y91634D01*
X102657Y83366D02*
Y91634D01*
X97342D02*
X102657D01*
X97342Y83366D02*
X102657D01*
X87343D02*
Y91634D01*
X92658Y83366D02*
Y91634D01*
X87343D02*
X92658D01*
X87343Y83366D02*
X92658D01*
X67343D02*
Y91634D01*
X72658Y83366D02*
Y91634D01*
X67343D02*
X72658D01*
X67343Y83366D02*
X72658D01*
X82657D02*
Y91634D01*
X77342Y83366D02*
Y91634D01*
Y83366D02*
X82657D01*
X77342Y91634D02*
X82657D01*
X92658Y213366D02*
Y221634D01*
X87343Y213366D02*
Y221634D01*
Y213366D02*
X92658D01*
X87343Y221634D02*
X92658D01*
X82657Y213366D02*
Y221634D01*
X77342Y213366D02*
Y221634D01*
Y213366D02*
X82657D01*
X77342Y221634D02*
X82657D01*
X147343Y263366D02*
Y271634D01*
X152657Y263366D02*
Y271634D01*
X147343D02*
X152657D01*
X147343Y263366D02*
X152657D01*
X127342Y193366D02*
Y201634D01*
X132658Y193366D02*
Y201634D01*
X127342D02*
X132658D01*
X127342Y193366D02*
X132658D01*
Y243366D02*
Y251634D01*
X127342Y243366D02*
Y251634D01*
Y243366D02*
X132658D01*
X127342Y251634D02*
X132658D01*
X142657Y193366D02*
Y201634D01*
X137343Y193366D02*
Y201634D01*
Y193366D02*
X142657D01*
X137343Y201634D02*
X142657D01*
X112657Y193366D02*
Y201634D01*
X107343Y193366D02*
Y201634D01*
Y193366D02*
X112657D01*
X107343Y201634D02*
X112657D01*
X122658Y193366D02*
Y201634D01*
X117342Y193366D02*
Y201634D01*
Y193366D02*
X122658D01*
X117342Y201634D02*
X122658D01*
X97342Y193366D02*
Y201634D01*
X102657Y193366D02*
Y201634D01*
X97342D02*
X102657D01*
X97342Y193366D02*
X102657D01*
Y213366D02*
Y221634D01*
X97342Y213366D02*
Y221634D01*
Y213366D02*
X102657D01*
X97342Y221634D02*
X102657D01*
X87343Y193366D02*
Y201634D01*
X92658Y193366D02*
Y201634D01*
X87343D02*
X92658D01*
X87343Y193366D02*
X92658D01*
X132658Y213366D02*
Y221634D01*
X127342Y213366D02*
Y221634D01*
Y213366D02*
X132658D01*
X127342Y221634D02*
X132658D01*
X122658Y213366D02*
Y221634D01*
X117342Y213366D02*
Y221634D01*
Y213366D02*
X122658D01*
X117342Y221634D02*
X122658D01*
X117342Y243366D02*
Y251634D01*
X122658Y243366D02*
Y251634D01*
X117342D02*
X122658D01*
X117342Y243366D02*
X122658D01*
X127342Y263366D02*
Y271634D01*
X132658Y263366D02*
Y271634D01*
X127342D02*
X132658D01*
X127342Y263366D02*
X132658D01*
X117342D02*
Y271634D01*
X122658Y263366D02*
Y271634D01*
X117342D02*
X122658D01*
X117342Y263366D02*
X122658D01*
X87343Y243366D02*
Y251634D01*
X92658Y243366D02*
Y251634D01*
X87343D02*
X92658D01*
X87343Y243366D02*
X92658D01*
X152657D02*
Y251634D01*
X147343Y243366D02*
Y251634D01*
Y243366D02*
X152657D01*
X147343Y251634D02*
X152657D01*
X97342Y243366D02*
Y251634D01*
X102657Y243366D02*
Y251634D01*
X97342D02*
X102657D01*
X97342Y243366D02*
X102657D01*
Y263366D02*
Y271634D01*
X97342Y263366D02*
Y271634D01*
Y263366D02*
X102657D01*
X97342Y271634D02*
X102657D01*
X105300Y277250D02*
X144700D01*
X105300Y207750D02*
X144700D01*
Y277250D01*
X105300Y207750D02*
Y277250D01*
X477343Y60866D02*
Y69134D01*
X482657Y60866D02*
Y69134D01*
X477343D02*
X482657D01*
X477343Y60866D02*
X482657D01*
X492658D02*
Y69134D01*
X487343Y60866D02*
Y69134D01*
Y60866D02*
X492658D01*
X487343Y69134D02*
X492658D01*
X442658Y83366D02*
Y91634D01*
X437343Y83366D02*
Y91634D01*
Y83366D02*
X442658D01*
X437343Y91634D02*
X442658D01*
X387343Y108366D02*
Y116634D01*
X392657Y108366D02*
Y116634D01*
X387343D02*
X392657D01*
X387343Y108366D02*
X392657D01*
X422657D02*
Y116634D01*
X417343Y108366D02*
Y116634D01*
Y108366D02*
X422657D01*
X417343Y116634D02*
X422657D01*
X427343Y63366D02*
Y71634D01*
X432657Y63366D02*
Y71634D01*
X427343D02*
X432657D01*
X427343Y63366D02*
X432657D01*
X427343Y83366D02*
Y91634D01*
X432657Y83366D02*
Y91634D01*
X427343D02*
X432657D01*
X427343Y83366D02*
X432657D01*
X402658Y108366D02*
Y116634D01*
X397342Y108366D02*
Y116634D01*
Y108366D02*
X402658D01*
X397342Y116634D02*
X402658D01*
X422657Y83366D02*
Y91634D01*
X417343Y83366D02*
Y91634D01*
Y83366D02*
X422657D01*
X417343Y91634D02*
X422657D01*
X462657Y133366D02*
Y141634D01*
X457342Y133366D02*
Y141634D01*
Y133366D02*
X462657D01*
X457342Y141634D02*
X462657D01*
X347559Y151752D02*
Y163248D01*
X342441Y151752D02*
Y163248D01*
X347559D01*
X342441Y151752D02*
X347559D01*
X407559D02*
Y163248D01*
X402441Y151752D02*
Y163248D01*
X407559D01*
X402441Y151752D02*
X407559D01*
X372657Y153366D02*
Y161634D01*
X367342Y153366D02*
Y161634D01*
Y153366D02*
X372657D01*
X367342Y161634D02*
X372657D01*
X357343Y153366D02*
Y161634D01*
X362657Y153366D02*
Y161634D01*
X357343D02*
X362657D01*
X357343Y153366D02*
X362657D01*
X377343D02*
Y161634D01*
X382658Y153366D02*
Y161634D01*
X377343D02*
X382658D01*
X377343Y153366D02*
X382658D01*
X327343D02*
Y161634D01*
X332658Y153366D02*
Y161634D01*
X327343D02*
X332658D01*
X327343Y153366D02*
X332658D01*
X392657D02*
Y161634D01*
X387343Y153366D02*
Y161634D01*
Y153366D02*
X392657D01*
X387343Y161634D02*
X392657D01*
X522657Y83366D02*
Y91634D01*
X517343Y83366D02*
Y91634D01*
Y83366D02*
X522657D01*
X517343Y91634D02*
X522657D01*
X512657Y83366D02*
Y91634D01*
X507342Y83366D02*
Y91634D01*
Y83366D02*
X512657D01*
X507342Y91634D02*
X512657D01*
X492658Y83366D02*
Y91634D01*
X487343Y83366D02*
Y91634D01*
Y83366D02*
X492658D01*
X487343Y91634D02*
X492658D01*
X452658Y83366D02*
Y91634D01*
X447342Y83366D02*
Y91634D01*
Y83366D02*
X452658D01*
X447342Y91634D02*
X452658D01*
X462657Y83366D02*
Y91634D01*
X457342Y83366D02*
Y91634D01*
Y83366D02*
X462657D01*
X457342Y91634D02*
X462657D01*
X482657Y83366D02*
Y91634D01*
X477343Y83366D02*
Y91634D01*
Y83366D02*
X482657D01*
X477343Y91634D02*
X482657D01*
X457342Y153366D02*
Y161634D01*
X462657Y153366D02*
Y161634D01*
X457342D02*
X462657D01*
X457342Y153366D02*
X462657D01*
X477343Y133366D02*
Y141634D01*
X482657Y133366D02*
Y141634D01*
X477343D02*
X482657D01*
X477343Y133366D02*
X482657D01*
X512657Y108366D02*
Y116634D01*
X507342Y108366D02*
Y116634D01*
Y108366D02*
X512657D01*
X507342Y116634D02*
X512657D01*
X457342Y108366D02*
Y116634D01*
X462657Y108366D02*
Y116634D01*
X457342D02*
X462657D01*
X457342Y108366D02*
X462657D01*
X492658D02*
Y116634D01*
X487343Y108366D02*
Y116634D01*
Y108366D02*
X492658D01*
X487343Y116634D02*
X492658D01*
Y133366D02*
Y141634D01*
X487343Y133366D02*
Y141634D01*
Y133366D02*
X492658D01*
X487343Y141634D02*
X492658D01*
X507342Y133366D02*
Y141634D01*
X512657Y133366D02*
Y141634D01*
X507342D02*
X512657D01*
X507342Y133366D02*
X512657D01*
X472657Y153366D02*
Y161634D01*
X467343Y153366D02*
Y161634D01*
Y153366D02*
X472657D01*
X467343Y161634D02*
X472657D01*
X492658Y153366D02*
Y161634D01*
X487343Y153366D02*
Y161634D01*
Y153366D02*
X492658D01*
X487343Y161634D02*
X492658D01*
X482657Y153366D02*
Y161634D01*
X477343Y153366D02*
Y161634D01*
Y153366D02*
X482657D01*
X477343Y161634D02*
X482657D01*
X465300Y277250D02*
X504700D01*
X465300Y207750D02*
X504700D01*
Y277250D01*
X465300Y207750D02*
Y277250D01*
X502658Y153366D02*
Y161634D01*
X497342Y153366D02*
Y161634D01*
Y153366D02*
X502658D01*
X497342Y161634D02*
X502658D01*
X227343Y193366D02*
X232658D01*
X227343Y201634D02*
X232658D01*
Y193366D02*
Y201634D01*
X227343Y193366D02*
Y201634D01*
X217342D02*
X222657D01*
X217342Y193366D02*
X222657D01*
X217342D02*
Y201634D01*
X222657Y193366D02*
Y201634D01*
X187343Y213366D02*
X192657D01*
X187343Y221634D02*
X192657D01*
Y213366D02*
Y221634D01*
X187343Y213366D02*
Y221634D01*
Y193366D02*
X192657D01*
X187343Y201634D02*
X192657D01*
Y193366D02*
Y201634D01*
X187343Y193366D02*
Y201634D01*
X147343Y213366D02*
X152657D01*
X147343Y221634D02*
X152657D01*
Y213366D02*
Y221634D01*
X147343Y213366D02*
Y221634D01*
X237343Y271634D02*
X242657D01*
X237343Y263366D02*
X242657D01*
X237343D02*
Y271634D01*
X242657Y263366D02*
Y271634D01*
X207343Y263366D02*
X212657D01*
X207343Y271634D02*
X212657D01*
Y263366D02*
Y271634D01*
X207343Y263366D02*
Y271634D01*
X217342D02*
X222657D01*
X217342Y263366D02*
X222657D01*
X217342D02*
Y271634D01*
X222657Y263366D02*
Y271634D01*
X217342Y221634D02*
X222657D01*
X217342Y213366D02*
X222657D01*
X217342D02*
Y221634D01*
X222657Y213366D02*
Y221634D01*
X237343Y243366D02*
X242657D01*
X237343Y251634D02*
X242657D01*
Y243366D02*
Y251634D01*
X237343Y243366D02*
Y251634D01*
X167342Y271634D02*
X172658D01*
X167342Y263366D02*
X172658D01*
X167342D02*
Y271634D01*
X172658Y263366D02*
Y271634D01*
X147343Y193366D02*
X152657D01*
X147343Y201634D02*
X152657D01*
Y193366D02*
Y201634D01*
X147343Y193366D02*
Y201634D01*
X217342Y251634D02*
X222657D01*
X217342Y243366D02*
X222657D01*
X217342D02*
Y251634D01*
X222657Y243366D02*
Y251634D01*
X187343D02*
X192657D01*
X187343Y243366D02*
X192657D01*
X187343D02*
Y251634D01*
X192657Y243366D02*
Y251634D01*
X307343D02*
X312657D01*
X307343Y243366D02*
X312657D01*
X307343D02*
Y251634D01*
X312657Y243366D02*
Y251634D01*
X297342Y263366D02*
X302658D01*
X297342Y271634D02*
X302658D01*
Y263366D02*
Y271634D01*
X297342Y263366D02*
Y271634D01*
X307343Y201634D02*
X312657D01*
X307343Y193366D02*
X312657D01*
X307343D02*
Y201634D01*
X312657Y193366D02*
Y201634D01*
X307343Y221634D02*
X312657D01*
X307343Y213366D02*
X312657D01*
X307343D02*
Y221634D01*
X312657Y213366D02*
Y221634D01*
X237343Y213366D02*
X242657D01*
X237343Y221634D02*
X242657D01*
Y213366D02*
Y221634D01*
X237343Y213366D02*
Y221634D01*
X327343Y271634D02*
X332658D01*
X327343Y263366D02*
X332658D01*
X327343D02*
Y271634D01*
X332658Y263366D02*
Y271634D01*
X307343D02*
X312657D01*
X307343Y263366D02*
X312657D01*
X307343D02*
Y271634D01*
X312657Y263366D02*
Y271634D01*
X327343Y243366D02*
X332658D01*
X327343Y251634D02*
X332658D01*
Y243366D02*
Y251634D01*
X327343Y243366D02*
Y251634D01*
X317342Y193366D02*
X322657D01*
X317342Y201634D02*
X322657D01*
Y193366D02*
Y201634D01*
X317342Y193366D02*
Y201634D01*
X237343Y193366D02*
X242657D01*
X237343Y201634D02*
X242657D01*
Y193366D02*
Y201634D01*
X237343Y193366D02*
Y201634D01*
X297342Y251634D02*
X302658D01*
X297342Y243366D02*
X302658D01*
X297342D02*
Y251634D01*
X302658Y243366D02*
Y251634D01*
X277343Y193366D02*
X282658D01*
X277343Y201634D02*
X282658D01*
Y193366D02*
Y201634D01*
X277343Y193366D02*
Y201634D01*
X267342Y263366D02*
X272657D01*
X267342Y271634D02*
X272657D01*
Y263366D02*
Y271634D01*
X267342Y263366D02*
Y271634D01*
X257343D02*
X262657D01*
X257343Y263366D02*
X262657D01*
X257343D02*
Y271634D01*
X262657Y263366D02*
Y271634D01*
X285300Y277250D02*
X324700D01*
X285300Y207750D02*
X324700D01*
Y277250D01*
X285300Y207750D02*
Y277250D01*
X375300Y207750D02*
Y277250D01*
X414700Y207750D02*
Y277250D01*
X375300Y207750D02*
X414700D01*
X375300Y277250D02*
X414700D01*
X402658Y263366D02*
Y271634D01*
X397342Y263366D02*
Y271634D01*
Y263366D02*
X402658D01*
X397342Y271634D02*
X402658D01*
X422657Y263366D02*
Y271634D01*
X417343Y263366D02*
Y271634D01*
Y263366D02*
X422657D01*
X417343Y271634D02*
X422657D01*
X417343Y243366D02*
Y251634D01*
X422657Y243366D02*
Y251634D01*
X417343D02*
X422657D01*
X417343Y243366D02*
X422657D01*
X387343Y263366D02*
Y271634D01*
X392657Y263366D02*
Y271634D01*
X387343D02*
X392657D01*
X387343Y263366D02*
X392657D01*
X177342D02*
Y271634D01*
X182658Y263366D02*
Y271634D01*
X177342D02*
X182658D01*
X177342Y263366D02*
X182658D01*
X402658Y213366D02*
Y221634D01*
X397342Y213366D02*
Y221634D01*
Y213366D02*
X402658D01*
X397342Y221634D02*
X402658D01*
X407342Y193366D02*
Y201634D01*
X412657Y193366D02*
Y201634D01*
X407342D02*
X412657D01*
X407342Y193366D02*
X412657D01*
X402658D02*
Y201634D01*
X397342Y193366D02*
Y201634D01*
Y193366D02*
X402658D01*
X397342Y201634D02*
X402658D01*
Y243366D02*
Y251634D01*
X397342Y243366D02*
Y251634D01*
Y243366D02*
X402658D01*
X397342Y251634D02*
X402658D01*
X392657Y243366D02*
Y251634D01*
X387343Y243366D02*
Y251634D01*
Y243366D02*
X392657D01*
X387343Y251634D02*
X392657D01*
X327343Y193366D02*
Y201634D01*
X332658Y193366D02*
Y201634D01*
X327343D02*
X332658D01*
X327343Y193366D02*
X332658D01*
X327343Y213366D02*
Y221634D01*
X332658Y213366D02*
Y221634D01*
X327343D02*
X332658D01*
X327343Y213366D02*
X332658D01*
X367342D02*
Y221634D01*
X372657Y213366D02*
Y221634D01*
X367342D02*
X372657D01*
X367342Y213366D02*
X372657D01*
X367342Y193366D02*
Y201634D01*
X372657Y193366D02*
Y201634D01*
X367342D02*
X372657D01*
X367342Y193366D02*
X372657D01*
X357343Y263366D02*
Y271634D01*
X362657Y263366D02*
Y271634D01*
X357343D02*
X362657D01*
X357343Y263366D02*
X362657D01*
X352658D02*
Y271634D01*
X347342Y263366D02*
Y271634D01*
Y263366D02*
X352658D01*
X347342Y271634D02*
X352658D01*
X497342Y193366D02*
Y201634D01*
X502658Y193366D02*
Y201634D01*
X497342D02*
X502658D01*
X497342Y193366D02*
X502658D01*
X507342Y243366D02*
Y251634D01*
X512657Y243366D02*
Y251634D01*
X507342D02*
X512657D01*
X507342Y243366D02*
X512657D01*
Y263366D02*
Y271634D01*
X507342Y263366D02*
Y271634D01*
Y263366D02*
X512657D01*
X507342Y271634D02*
X512657D01*
X492658Y193366D02*
Y201634D01*
X487343Y193366D02*
Y201634D01*
Y193366D02*
X492658D01*
X487343Y201634D02*
X492658D01*
Y213366D02*
Y221634D01*
X487343Y213366D02*
Y221634D01*
Y213366D02*
X492658D01*
X487343Y221634D02*
X492658D01*
Y263366D02*
Y271634D01*
X487343Y263366D02*
Y271634D01*
Y263366D02*
X492658D01*
X487343Y271634D02*
X492658D01*
X477343Y263366D02*
Y271634D01*
X482657Y263366D02*
Y271634D01*
X477343D02*
X482657D01*
X477343Y263366D02*
X482657D01*
X492658Y243366D02*
Y251634D01*
X487343Y243366D02*
Y251634D01*
Y243366D02*
X492658D01*
X487343Y251634D02*
X492658D01*
X482657Y243366D02*
Y251634D01*
X477343Y243366D02*
Y251634D01*
Y243366D02*
X482657D01*
X477343Y251634D02*
X482657D01*
X417343Y213366D02*
Y221634D01*
X422657Y213366D02*
Y221634D01*
X417343D02*
X422657D01*
X417343Y213366D02*
X422657D01*
X417343Y193366D02*
Y201634D01*
X422657Y193366D02*
Y201634D01*
X417343D02*
X422657D01*
X417343Y193366D02*
X422657D01*
X457342Y213366D02*
Y221634D01*
X462657Y213366D02*
Y221634D01*
X457342D02*
X462657D01*
X457342Y213366D02*
X462657D01*
X457342Y193366D02*
Y201634D01*
X462657Y193366D02*
Y201634D01*
X457342D02*
X462657D01*
X457342Y193366D02*
X462657D01*
X447342Y263366D02*
Y271634D01*
X452658Y263366D02*
Y271634D01*
X447342D02*
X452658D01*
X447342Y263366D02*
X452658D01*
X442658D02*
Y271634D01*
X437343Y263366D02*
Y271634D01*
Y263366D02*
X442658D01*
X437343Y271634D02*
X442658D01*
M02*
