G04*
G04 #@! TF.GenerationSoftware,Altium Limited,Altium Designer,20.0.14 (345)*
G04*
G04 Layer_Color=16711935*
%FSLAX25Y25*%
%MOIN*%
G70*
G01*
G75*
%ADD15O,0.06337X0.08274*%
%ADD16R,0.06337X0.06337*%
%ADD17C,0.06337*%
%ADD18C,0.06109*%
%ADD19R,0.06109X0.06109*%
%ADD20C,0.04724*%
%ADD21R,0.04724X0.04724*%
%ADD22C,0.06424*%
%ADD23R,0.06424X0.06424*%
%ADD25O,0.08274X0.06337*%
%ADD26C,0.06306*%
%ADD27C,0.05400*%
%ADD45R,0.07874X0.04921*%
%ADD48R,0.06306X0.05912*%
%ADD49R,0.05518X0.08274*%
%ADD50R,0.05518X0.05518*%
%ADD51R,0.03943X0.03550*%
%ADD52R,0.06109X0.06109*%
D15*
X320000Y160000D02*
D03*
X500000Y182500D02*
D03*
X520000Y67500D02*
D03*
X470000D02*
D03*
X360000D02*
D03*
X182500D02*
D03*
X260000D02*
D03*
X230000Y182500D02*
D03*
X320000D02*
D03*
X137500D02*
D03*
X110000D02*
D03*
X410000D02*
D03*
D16*
X360000Y202500D02*
D03*
Y227500D02*
D03*
Y252500D02*
D03*
X450000Y202500D02*
D03*
Y227500D02*
D03*
Y252500D02*
D03*
X360000Y97500D02*
D03*
Y122500D02*
D03*
X270000Y97500D02*
D03*
Y122500D02*
D03*
X180000Y97500D02*
D03*
Y122500D02*
D03*
X90000D02*
D03*
X270000Y202500D02*
D03*
Y227500D02*
D03*
Y252500D02*
D03*
X180000Y202500D02*
D03*
Y227500D02*
D03*
Y252500D02*
D03*
D17*
X350000Y202500D02*
D03*
X340000D02*
D03*
X350000Y227500D02*
D03*
X340000D02*
D03*
X350000Y252500D02*
D03*
X340000D02*
D03*
X440000Y202500D02*
D03*
X430000D02*
D03*
X440000Y227500D02*
D03*
X430000D02*
D03*
X440000Y252500D02*
D03*
X430000D02*
D03*
X340000Y97500D02*
D03*
X350000D02*
D03*
X340000Y122500D02*
D03*
X350000D02*
D03*
X250000Y97500D02*
D03*
X260000D02*
D03*
X250000Y122500D02*
D03*
X260000D02*
D03*
X160000Y97500D02*
D03*
X170000D02*
D03*
X160000Y122500D02*
D03*
X170000D02*
D03*
X70000D02*
D03*
X80000D02*
D03*
X250000Y202500D02*
D03*
X260000D02*
D03*
X250000Y227500D02*
D03*
X260000D02*
D03*
X250000Y252500D02*
D03*
X260000D02*
D03*
X160000Y202500D02*
D03*
X170000D02*
D03*
X160000Y227500D02*
D03*
X170000D02*
D03*
X160000Y252500D02*
D03*
X170000D02*
D03*
D18*
X500000Y82500D02*
D03*
Y92500D02*
D03*
Y102500D02*
D03*
Y112500D02*
D03*
Y122500D02*
D03*
Y132500D02*
D03*
Y142500D02*
D03*
X470000Y82500D02*
D03*
Y92500D02*
D03*
Y102500D02*
D03*
Y112500D02*
D03*
Y122500D02*
D03*
Y132500D02*
D03*
X410000Y82500D02*
D03*
Y92500D02*
D03*
Y102500D02*
D03*
Y112500D02*
D03*
Y122500D02*
D03*
Y132500D02*
D03*
Y142500D02*
D03*
X380000Y82500D02*
D03*
Y92500D02*
D03*
Y102500D02*
D03*
Y112500D02*
D03*
Y122500D02*
D03*
Y132500D02*
D03*
X230000Y82500D02*
D03*
Y92500D02*
D03*
Y102500D02*
D03*
Y112500D02*
D03*
Y122500D02*
D03*
Y132500D02*
D03*
Y142500D02*
D03*
X200000Y82500D02*
D03*
Y92500D02*
D03*
Y102500D02*
D03*
Y112500D02*
D03*
Y122500D02*
D03*
Y132500D02*
D03*
X140000Y82500D02*
D03*
Y92500D02*
D03*
Y102500D02*
D03*
Y112500D02*
D03*
Y122500D02*
D03*
Y132500D02*
D03*
Y142500D02*
D03*
X110000Y82500D02*
D03*
Y92500D02*
D03*
Y102500D02*
D03*
Y112500D02*
D03*
Y122500D02*
D03*
Y132500D02*
D03*
X230000Y212500D02*
D03*
Y222500D02*
D03*
Y232500D02*
D03*
Y242500D02*
D03*
Y252500D02*
D03*
Y262500D02*
D03*
Y272500D02*
D03*
X200000Y212500D02*
D03*
Y222500D02*
D03*
Y232500D02*
D03*
Y242500D02*
D03*
Y252500D02*
D03*
Y262500D02*
D03*
X110000D02*
D03*
Y252500D02*
D03*
Y242500D02*
D03*
Y232500D02*
D03*
Y222500D02*
D03*
Y212500D02*
D03*
X140000Y272500D02*
D03*
Y262500D02*
D03*
Y252500D02*
D03*
Y242500D02*
D03*
Y232500D02*
D03*
Y222500D02*
D03*
Y212500D02*
D03*
X470000Y262500D02*
D03*
Y252500D02*
D03*
Y242500D02*
D03*
Y232500D02*
D03*
Y222500D02*
D03*
Y212500D02*
D03*
X500000Y272500D02*
D03*
Y262500D02*
D03*
Y252500D02*
D03*
Y242500D02*
D03*
Y232500D02*
D03*
Y222500D02*
D03*
Y212500D02*
D03*
X290000Y262500D02*
D03*
Y252500D02*
D03*
Y242500D02*
D03*
Y232500D02*
D03*
Y222500D02*
D03*
Y212500D02*
D03*
X320000Y272500D02*
D03*
Y262500D02*
D03*
Y252500D02*
D03*
Y242500D02*
D03*
Y232500D02*
D03*
Y222500D02*
D03*
Y212500D02*
D03*
X410000D02*
D03*
Y222500D02*
D03*
Y232500D02*
D03*
Y242500D02*
D03*
Y252500D02*
D03*
Y262500D02*
D03*
Y272500D02*
D03*
X380000Y212500D02*
D03*
Y222500D02*
D03*
Y232500D02*
D03*
Y242500D02*
D03*
Y252500D02*
D03*
Y262500D02*
D03*
D19*
X470000Y142500D02*
D03*
X380000D02*
D03*
X200000D02*
D03*
X110000D02*
D03*
X90000Y272500D02*
D03*
X200000D02*
D03*
X110000D02*
D03*
X470000D02*
D03*
X290000D02*
D03*
X380000D02*
D03*
D20*
X520000Y52500D02*
D03*
X510000D02*
D03*
X500000D02*
D03*
D21*
X490000D02*
D03*
D22*
X295276Y39370D02*
D03*
X305276D02*
D03*
X315276D02*
D03*
X325276D02*
D03*
X285276D02*
D03*
X275276D02*
D03*
X265276D02*
D03*
X295276Y29370D02*
D03*
X305276D02*
D03*
X315276D02*
D03*
X285276D02*
D03*
X275276D02*
D03*
X265276D02*
D03*
D23*
X325276D02*
D03*
D25*
X90000Y262500D02*
D03*
D26*
X15000Y15000D02*
D03*
X90000Y112500D02*
D03*
D27*
X10000Y285000D02*
D03*
X580000Y10000D02*
D03*
Y285000D02*
D03*
X320000Y280000D02*
D03*
X410000D02*
D03*
X230000D02*
D03*
D45*
X410000Y55118D02*
D03*
Y69882D02*
D03*
X420000Y55118D02*
D03*
Y69882D02*
D03*
D48*
X280000Y221240D02*
D03*
Y213760D02*
D03*
X420000Y153760D02*
D03*
Y161240D02*
D03*
X390000Y133760D02*
D03*
Y141240D02*
D03*
Y83760D02*
D03*
Y91240D02*
D03*
X370000Y106260D02*
D03*
Y113740D02*
D03*
X390000Y63760D02*
D03*
Y71240D02*
D03*
X380000Y63760D02*
D03*
Y71240D02*
D03*
X370000Y91240D02*
D03*
Y83760D02*
D03*
X330000Y83760D02*
D03*
Y91240D02*
D03*
X230000Y63760D02*
D03*
Y71240D02*
D03*
X220000Y63760D02*
D03*
Y71240D02*
D03*
Y108760D02*
D03*
Y116240D02*
D03*
Y83760D02*
D03*
Y91240D02*
D03*
X240000Y91240D02*
D03*
Y83760D02*
D03*
X280000Y83760D02*
D03*
Y91240D02*
D03*
X200000Y63760D02*
D03*
Y71240D02*
D03*
X210000Y63760D02*
D03*
Y71240D02*
D03*
X240000Y116240D02*
D03*
Y108760D02*
D03*
X190000Y108760D02*
D03*
Y116240D02*
D03*
X210000Y108760D02*
D03*
Y116240D02*
D03*
Y83760D02*
D03*
Y91240D02*
D03*
X190000Y91240D02*
D03*
Y83760D02*
D03*
X160000Y63760D02*
D03*
Y71240D02*
D03*
X150000Y83760D02*
D03*
Y91240D02*
D03*
X130000Y116240D02*
D03*
Y108760D02*
D03*
X150000Y63760D02*
D03*
Y71240D02*
D03*
X140000Y71240D02*
D03*
Y63760D02*
D03*
X120000Y133760D02*
D03*
Y141240D02*
D03*
Y116240D02*
D03*
Y108760D02*
D03*
X150000Y108760D02*
D03*
Y116240D02*
D03*
X100000Y108760D02*
D03*
Y116240D02*
D03*
X120000Y83760D02*
D03*
Y91240D02*
D03*
X100000Y91240D02*
D03*
Y83760D02*
D03*
X90000Y91240D02*
D03*
Y83760D02*
D03*
X70000Y91240D02*
D03*
Y83760D02*
D03*
X80000Y83760D02*
D03*
Y91240D02*
D03*
X90000Y213760D02*
D03*
Y221240D02*
D03*
X80000Y213760D02*
D03*
Y221240D02*
D03*
X150000Y271240D02*
D03*
Y263760D02*
D03*
X130000Y201240D02*
D03*
Y193760D02*
D03*
Y243760D02*
D03*
Y251240D02*
D03*
X140000Y193760D02*
D03*
Y201240D02*
D03*
X110000Y193760D02*
D03*
Y201240D02*
D03*
X120000Y193760D02*
D03*
Y201240D02*
D03*
X100000Y201240D02*
D03*
Y193760D02*
D03*
Y213760D02*
D03*
Y221240D02*
D03*
X90000Y201240D02*
D03*
Y193760D02*
D03*
X130000Y213760D02*
D03*
Y221240D02*
D03*
X120000Y213760D02*
D03*
Y221240D02*
D03*
Y251240D02*
D03*
Y243760D02*
D03*
X130000Y271240D02*
D03*
Y263760D02*
D03*
X120000Y271240D02*
D03*
Y263760D02*
D03*
X90000Y251240D02*
D03*
Y243760D02*
D03*
X150000Y243760D02*
D03*
Y251240D02*
D03*
X100000Y251240D02*
D03*
Y243760D02*
D03*
Y263760D02*
D03*
Y271240D02*
D03*
X480000Y68740D02*
D03*
Y61260D02*
D03*
X490000Y61260D02*
D03*
Y68740D02*
D03*
X440000Y83760D02*
D03*
Y91240D02*
D03*
X390000Y116240D02*
D03*
Y108760D02*
D03*
X420000Y108760D02*
D03*
Y116240D02*
D03*
X430000Y71240D02*
D03*
Y63760D02*
D03*
Y91240D02*
D03*
Y83760D02*
D03*
X400000Y108760D02*
D03*
Y116240D02*
D03*
X420000Y83760D02*
D03*
Y91240D02*
D03*
X460000Y133760D02*
D03*
Y141240D02*
D03*
X370000Y153760D02*
D03*
Y161240D02*
D03*
X360000Y161240D02*
D03*
Y153760D02*
D03*
X380000Y161240D02*
D03*
Y153760D02*
D03*
X330000Y161240D02*
D03*
Y153760D02*
D03*
X390000Y153760D02*
D03*
Y161240D02*
D03*
X520000Y83760D02*
D03*
Y91240D02*
D03*
X510000Y83760D02*
D03*
Y91240D02*
D03*
X490000Y83760D02*
D03*
Y91240D02*
D03*
X450000Y83760D02*
D03*
Y91240D02*
D03*
X460000Y83760D02*
D03*
Y91240D02*
D03*
X480000Y83760D02*
D03*
Y91240D02*
D03*
X460000Y161240D02*
D03*
Y153760D02*
D03*
X480000Y141240D02*
D03*
Y133760D02*
D03*
X510000Y108760D02*
D03*
Y116240D02*
D03*
X460000Y116240D02*
D03*
Y108760D02*
D03*
X490000Y108760D02*
D03*
Y116240D02*
D03*
Y133760D02*
D03*
Y141240D02*
D03*
X510000Y141240D02*
D03*
Y133760D02*
D03*
X470000Y153760D02*
D03*
Y161240D02*
D03*
X490000Y153760D02*
D03*
Y161240D02*
D03*
X480000Y153760D02*
D03*
Y161240D02*
D03*
X500000Y153760D02*
D03*
Y161240D02*
D03*
X230000Y193760D02*
D03*
Y201240D02*
D03*
X220000Y201240D02*
D03*
Y193760D02*
D03*
X190000Y213760D02*
D03*
Y221240D02*
D03*
Y193760D02*
D03*
Y201240D02*
D03*
X150000Y213760D02*
D03*
Y221240D02*
D03*
X240000Y271240D02*
D03*
Y263760D02*
D03*
X210000Y263760D02*
D03*
Y271240D02*
D03*
X220000Y271240D02*
D03*
Y263760D02*
D03*
Y221240D02*
D03*
Y213760D02*
D03*
X240000Y243760D02*
D03*
Y251240D02*
D03*
X170000Y271240D02*
D03*
Y263760D02*
D03*
X150000Y193760D02*
D03*
Y201240D02*
D03*
X220000Y251240D02*
D03*
Y243760D02*
D03*
X190000Y251240D02*
D03*
Y243760D02*
D03*
X310000Y251240D02*
D03*
Y243760D02*
D03*
X300000Y263760D02*
D03*
Y271240D02*
D03*
X310000Y201240D02*
D03*
Y193760D02*
D03*
Y221240D02*
D03*
Y213760D02*
D03*
X240000Y213760D02*
D03*
Y221240D02*
D03*
X330000Y271240D02*
D03*
Y263760D02*
D03*
X310000Y271240D02*
D03*
Y263760D02*
D03*
X330000Y243760D02*
D03*
Y251240D02*
D03*
X320000Y193760D02*
D03*
Y201240D02*
D03*
X240000Y193760D02*
D03*
Y201240D02*
D03*
X300000Y251240D02*
D03*
Y243760D02*
D03*
X280000Y193760D02*
D03*
Y201240D02*
D03*
X270000Y263760D02*
D03*
Y271240D02*
D03*
X260000Y271240D02*
D03*
Y263760D02*
D03*
X400000D02*
D03*
Y271240D02*
D03*
X420000Y263760D02*
D03*
Y271240D02*
D03*
Y251240D02*
D03*
Y243760D02*
D03*
X390000Y271240D02*
D03*
Y263760D02*
D03*
X180000Y271240D02*
D03*
Y263760D02*
D03*
X400000Y213760D02*
D03*
Y221240D02*
D03*
X410000Y201240D02*
D03*
Y193760D02*
D03*
X400000Y193760D02*
D03*
Y201240D02*
D03*
Y243760D02*
D03*
Y251240D02*
D03*
X390000Y243760D02*
D03*
Y251240D02*
D03*
X330000Y201240D02*
D03*
Y193760D02*
D03*
Y221240D02*
D03*
Y213760D02*
D03*
X370000Y221240D02*
D03*
Y213760D02*
D03*
Y201240D02*
D03*
Y193760D02*
D03*
X360000Y271240D02*
D03*
Y263760D02*
D03*
X350000Y263760D02*
D03*
Y271240D02*
D03*
X500000Y201240D02*
D03*
Y193760D02*
D03*
X510000Y251240D02*
D03*
Y243760D02*
D03*
Y263760D02*
D03*
Y271240D02*
D03*
X490000Y193760D02*
D03*
Y201240D02*
D03*
Y213760D02*
D03*
Y221240D02*
D03*
Y263760D02*
D03*
Y271240D02*
D03*
X480000Y271240D02*
D03*
Y263760D02*
D03*
X490000Y243760D02*
D03*
Y251240D02*
D03*
X480000Y243760D02*
D03*
Y251240D02*
D03*
X420000Y221240D02*
D03*
Y213760D02*
D03*
Y201240D02*
D03*
Y193760D02*
D03*
X460000Y221240D02*
D03*
Y213760D02*
D03*
Y201240D02*
D03*
Y193760D02*
D03*
X450000Y271240D02*
D03*
Y263760D02*
D03*
X440000Y263760D02*
D03*
Y271240D02*
D03*
D49*
X429173Y112500D02*
D03*
Y157500D02*
D03*
D50*
X450827Y117028D02*
D03*
Y107973D02*
D03*
Y152972D02*
D03*
Y162028D02*
D03*
D51*
X348937Y161240D02*
D03*
Y153760D02*
D03*
X341063Y157500D02*
D03*
X408937Y161240D02*
D03*
Y153760D02*
D03*
X401063Y157500D02*
D03*
D52*
X310000Y160000D02*
D03*
X490000Y182500D02*
D03*
X510000Y67500D02*
D03*
X460000D02*
D03*
X350000D02*
D03*
X172500D02*
D03*
X250000D02*
D03*
X220000Y182500D02*
D03*
X310000D02*
D03*
X127500D02*
D03*
X100000D02*
D03*
X400000D02*
D03*
M02*
