M48
;Layer_Color=9474304
;FILE_FORMAT=2:4
INCH,TZ
;TYPE=PLATED
T1F00S00C0.0276
T2F00S00C0.0280
T3F00S00C0.0354
T4F00S00C0.0359
T5F00S00C0.0394
T6F00S00C0.0402
T7F00S00C0.0433
%
T01
X49000Y5250
X50000
X51000
X52000
T02
X58000Y1000
X1000Y28500
X23000Y28000
X32000
X41000
X58000Y28500
T03
X1500Y1500
X9000Y11250
T04
X38000Y8250
Y9250
Y10250
Y11250
Y12250
Y13250
Y14250
X41000
Y13250
Y12250
Y11250
Y10250
Y9250
Y8250
X47000
Y9250
Y10250
Y11250
Y12250
Y13250
Y14250
X50000
Y13250
Y12250
Y11250
Y10250
Y9250
Y8250
X23000
Y9250
Y10250
Y11250
Y12250
Y13250
Y14250
X20000
Y13250
Y12250
Y11250
Y10250
Y9250
Y8250
X14000
Y9250
Y10250
Y11250
Y12250
Y13250
Y14250
X11000
Y13250
Y12250
Y11250
Y10250
Y9250
Y8250
Y21250
Y22250
Y23250
Y24250
Y25250
Y26250
Y27250
X14000
Y26250
Y25250
Y24250
Y23250
Y22250
Y21250
X20000
Y22250
Y23250
Y24250
Y25250
Y26250
Y27250
X23000
Y26250
Y25250
Y24250
Y23250
Y22250
Y21250
X29000
Y22250
Y23250
Y24250
Y25250
Y26250
Y27250
X32000
Y26250
Y25250
Y24250
Y23250
Y22250
Y21250
X38000
Y22250
Y23250
Y24250
Y25250
Y26250
Y27250
X41000
Y26250
Y25250
Y24250
Y23250
Y22250
Y21250
X47000
Y22250
Y23250
Y24250
Y25250
Y26250
Y27250
X50000
Y26250
Y25250
Y24250
Y23250
Y22250
Y21250
T05
X43000Y20250
X44000
X45000
X36000
X35000
X34000
X27000
X26000
X25000
Y12250
X26000
X27000
Y9750
X26000
X25000
X34000
X35000
X36000
Y12250
X35000
X34000
X18000
X17000
X16000
Y9750
X17000
X18000
Y20250
X17000
X16000
X9000Y12250
X8000
X7000
X16000Y22750
X17000
X18000
Y25250
X17000
X16000
X25000
X26000
X27000
Y22750
X26000
X25000
X34000
X35000
X36000
Y25250
X35000
X34000
X43000
X44000
X45000
Y22750
X44000
X43000
T06
X26528Y2937
Y3937
X27528
X28528
X29528
X30528
X31528
X32528
Y2937
X31528
X30528
X29528
X28528
X27528
T07
X46000Y6750
X47000
X51000
X52000
X50000Y18250
X49000
X41000
X40000
X32000
X31000
Y16000
X32000
X23000Y18250
X22000
X25000Y6750
X26000
X35000
X36000
X18250
X17250
X13750Y18250
X12750
X11000
X10000
X9000Y26250
Y27250
M30
