M48
;Layer_Color=9474304
;FILE_FORMAT=2:4
INCH,TZ
;TYPE=PLATED
T1F00S00C0.0354
T2F00S00C0.0359
T3F00S00C0.0360
T4F00S00C0.0394
T5F00S00C0.0402
T6F00S00C0.0433
%
T01
X1500Y4437
X33250Y4687
X34250
X57500Y4437
X46000Y7437
X45250Y9437
X44500
X43250
X42000Y7437
Y11937
X43250Y13937
X44500
X45250
Y16437
X43250
X42000Y19437
X46000
X49500Y20437
X46000Y11937
X37000Y13937
X34250Y18437
X31750
Y17437
X31000Y11437
Y10437
X33250Y7437
X28000
X24949Y12428
X25500Y13437
X25000Y14437
X25500Y15437
X24250Y19437
X15000
X14250Y16437
X12250
Y14187
X13500
X14250
X17000
X15000Y11937
Y10437
X13500Y9937
X12250
X11000Y11937
Y7437
X15000
X6000Y14187
X8000Y20437
X11000Y19437
X4000Y18437
X3000
Y21937
X4000
X1500Y26937
X6000Y25687
X11000Y23937
X12250Y21937
X14250
X15000
Y23937
X14250Y26124
X27500Y26437
X28500
Y23687
X29500
X30500
X31500
Y26937
X32500Y27687
X34500Y25437
X37000Y25937
X42000Y23937
X43250Y21437
X45000
X46000
Y23937
X57500Y26937
T02
X37000Y6437
Y7437
Y8437
Y9437
Y10437
Y11437
Y12437
X40000
Y11437
Y10437
Y9437
Y8437
Y7437
Y6437
X48000
Y7437
Y8437
Y9437
Y10437
Y11437
Y12437
X51000
Y11437
Y10437
Y9437
Y8437
Y7437
Y6437
Y18437
Y19437
Y20437
X48000
Y19437
Y18437
X40000
Y19437
Y20437
X37000
Y19437
Y18437
X20000
Y19437
Y20437
X17000
Y19437
Y18437
Y12437
Y11437
Y10437
Y9437
Y8437
Y7437
Y6437
X20000
Y7437
Y8437
Y9437
Y10437
Y11437
Y12437
X9000
Y11437
Y10437
Y9437
Y8437
Y7437
Y6437
X6000
Y7437
Y8437
Y9437
Y10437
Y11437
Y12437
Y18437
Y19437
Y20437
X9000
Y19437
Y18437
Y21437
Y22437
Y23437
Y24437
X6000
Y23437
Y22437
Y21437
X17000
Y22437
Y23437
Y24437
X20000
Y23437
Y22437
Y21437
X37000
Y22437
Y23437
Y24437
X40000
Y23437
Y22437
Y21437
X48000
Y22437
Y23437
Y24437
X51000
Y23437
Y22437
Y21437
T03
X26500Y7437
Y8437
Y9437
Y10437
Y11437
Y12437
Y13437
Y14437
Y15437
Y16437
Y17437
Y18437
Y19437
Y20437
X32500
Y19437
Y18437
Y17437
Y16437
Y15437
Y14437
Y13437
Y12437
Y11437
Y10437
Y9437
Y8437
Y7437
Y21437
X26500
T04
X53000Y6437
Y7437
Y8437
Y10437
Y11437
Y12437
Y18437
Y19437
Y20437
X22000
Y19437
Y18437
Y12437
Y11437
Y10437
Y8437
Y7437
Y6437
Y22437
Y23437
Y24437
X53000
Y23437
Y22437
T05
X26528Y24591
Y25591
X27528
X28528
X29528
X30528
X31528
X32528
Y24591
X31528
X30528
X29528
X28528
X27528
T06
X9000Y4624
X18000Y4687
X35250
X46500Y4937
Y14437
Y16937
X40000
X20000Y16437
X15500Y14187
X9000Y16937
X15750Y26124
X46500Y26187
M30
