M48
;Layer_Color=9474304
;FILE_FORMAT=2:4
INCH,TZ
;TYPE=PLATED
T1F00S00C0.0276
T2F00S00C0.0280
T3F00S00C0.0315
T4F00S00C0.0335
T5F00S00C0.0354
T6F00S00C0.0394
T7F00S00C0.0402
T8F00S00C0.0413
T9F00S00C0.0433
T10F00S00C0.0512
%
T01
X4150Y10500
Y11500
Y12500
Y13500
T02
X34358Y25028
X44213Y25106
T03
X10150Y11032
Y13000
X15650
Y11032
T04
X6150Y10957
Y14500
T05
X57500Y1500
X750Y58250
X58000
T06
X1895Y24000
Y28750
Y33750
X21905
Y28750
Y24000
X14254Y40161
X11302
X6504
X6528Y48161
X11325
X14278
X3575
X3552Y40161
T07
X32677Y26528
X33677
Y27528
Y28528
Y29528
Y30528
Y31528
Y32528
X32677
Y31528
Y30528
Y29528
Y28528
Y27528
X42520
X43520
Y26528
X42520
Y28528
X43520
Y29528
Y30528
Y31528
Y32528
X42520
Y31528
Y30528
Y29528
X52362
Y30528
Y31528
Y32528
Y28528
Y27528
Y26528
X53362
Y27528
Y28528
Y29528
Y30528
Y31528
Y32528
T08
X21900Y37122
Y40878
Y42372
Y46128
X20400
Y48122
Y51878
Y42372
T09
X2150Y9500
Y10500
Y12500
Y13500
X17900Y37500
Y38500
Y39500
Y43250
Y44250
Y45250
Y49000
Y50000
Y51000
T10
X12150Y16500
Y19453
X5536
X2780
X4158Y16500
M30
